<?xml version="1.0" encoding="UTF-8" standalone="no"?>
<!-- Created with Inkscape (http://www.inkscape.org/) -->

<svg
   xmlns:dc="http://purl.org/dc/elements/1.1/"
   xmlns:cc="http://creativecommons.org/ns#"
   xmlns:rdf="http://www.w3.org/1999/02/22-rdf-syntax-ns#"
   xmlns:svg="http://www.w3.org/2000/svg"
   xmlns="http://www.w3.org/2000/svg"
   xmlns:sodipodi="http://sodipodi.sourceforge.net/DTD/sodipodi-0.dtd"
   xmlns:inkscape="http://www.inkscape.org/namespaces/inkscape"
   width="33.866665mm"
   height="33.866665mm"
   viewBox="0 0 33.866665 33.866665"
   version="1.1"
   id="svg4943"
   inkscape:version="0.92.4 (5da689c313, 2019-01-14)"
   sodipodi:docname="abjuration.svg">
  <defs
     id="defs4937" />
  <sodipodi:namedview
     id="base"
     pagecolor="#ffffff"
     bordercolor="#666666"
     borderopacity="1.0"
     inkscape:pageopacity="0.0"
     inkscape:pageshadow="2"
     inkscape:zoom="5.6"
     inkscape:cx="104.1169"
     inkscape:cy="51.822869"
     inkscape:document-units="mm"
     inkscape:current-layer="layer1"
     showgrid="false"
     inkscape:window-width="1850"
     inkscape:window-height="1016"
     inkscape:window-x="70"
     inkscape:window-y="27"
     inkscape:window-maximized="1" />
  <metadata
     id="metadata4940">
    <rdf:RDF>
      <cc:Work
         rdf:about="">
        <dc:format>image/svg+xml</dc:format>
        <dc:type
           rdf:resource="http://purl.org/dc/dcmitype/StillImage" />
        <dc:title></dc:title>
      </cc:Work>
    </rdf:RDF>
  </metadata>
  <g
     inkscape:label="Layer 1"
     inkscape:groupmode="layer"
     id="layer1"
     transform="translate(-88.900002,-131.89999)">
    <path
       style="fill:#ffffff;stroke-width:0.26458332;fill-opacity:1"
       d="m 105.42966,160.37992 -0.17716,-1.41799 -2.10092,-0.16201 c -1.1555,-0.0891 -2.29496,-0.2706 -2.53213,-0.40333 -0.45268,-0.25333 -0.11622,-0.33254 3.03107,-0.71352 l 1.38906,-0.16815 -0.004,-0.96736 c -0.002,-0.53205 -0.0915,-1.09818 -0.19843,-1.25807 -0.10692,-0.15988 -1.08476,-0.3716 -2.17299,-0.47047 -2.40715,-0.21872 -2.932995,-0.58944 -1.16217,-0.81934 3.53326,-0.45871 3.27306,-0.34212 3.27306,-1.46667 0,-1.00656 -0.0142,-1.02044 -1.48339,-1.44754 -1.10639,-0.32164 -1.80686,-0.7547 -2.75614,-1.70398 -2.06866,-2.06866 -2.333047,-4.03477 -1.052135,-7.82421 0.768245,-2.27277 1.000085,-3.6102 0.551765,-3.98271 -0.969696,-0.80573 -1.25379,-0.28413 -1.874682,-0.11432 0.259859,-0.52754 0.937717,-0.79739 1.816673,-0.79739 0.983439,0 2.022729,1.27377 1.747309,2.14155 -0.33364,1.0512 -1.17577,5.4006 -1.17345,6.06053 0.006,1.76691 1.57697,3.63013 3.45537,4.09879 l 0.68652,0.17129 0.16024,-3.25952 c 0.17212,-3.50115 0.69411,-7.36056 0.99553,-7.36056 0.28728,0 0.77826,3.76022 0.96106,7.36039 l 0.16551,3.25935 0.68585,-0.17112 c 1.91012,-0.47657 3.46397,-2.3214 3.46397,-4.11266 0,-0.45588 -0.24263,-2.01951 -0.53919,-3.47472 -0.29655,-1.45522 -0.46106,-2.90267 -0.36558,-3.21656 0.46238,-1.51999 1.9943,-1.99499 2.90726,-0.90145 0.27336,0.32742 0.32753,0.44649 0.12039,0.26459 -0.51489,-0.45215 -1.45828,-0.41585 -1.86288,0.0717 -0.27436,0.33057 -0.16208,0.93861 0.62906,3.40659 1.44444,4.50597 1.26222,6.23576 -0.88286,8.38084 -0.94928,0.94928 -1.64975,1.38234 -2.75614,1.70398 -1.46917,0.4271 -1.48339,0.44098 -1.48339,1.44754 0,1.12353 -0.24416,1.0123 3.26104,1.48563 1.76215,0.23796 1.22489,0.59855 -1.19681,0.80326 -1.97269,0.16675 -2.01589,0.18586 -2.17078,0.96031 -0.32655,1.63276 -0.27244,1.7081 1.36332,1.89816 0.83674,0.0972 1.92407,0.24621 2.41629,0.33109 1.37252,0.23667 0.4365,0.59675 -2.04964,0.78846 l -2.10092,0.16201 -0.17716,1.41799 c -0.0974,0.77989 -0.2791,1.41799 -0.40368,1.41799 -0.12457,0 -0.30623,-0.6381 -0.40367,-1.41799 z"
       id="path4956"
       inkscape:connector-curvature="0"
       sodipodi:nodetypes="cccccccccsscssscsccccsscccscccscsscsccccccccscc" />
  </g>
</svg>
