<?xml version="1.0" encoding="UTF-8" standalone="no"?>
<!-- Created with Inkscape (http://www.inkscape.org/) -->

<svg
   xmlns:dc="http://purl.org/dc/elements/1.1/"
   xmlns:cc="http://creativecommons.org/ns#"
   xmlns:rdf="http://www.w3.org/1999/02/22-rdf-syntax-ns#"
   xmlns:svg="http://www.w3.org/2000/svg"
   xmlns="http://www.w3.org/2000/svg"
   xmlns:sodipodi="http://sodipodi.sourceforge.net/DTD/sodipodi-0.dtd"
   xmlns:inkscape="http://www.inkscape.org/namespaces/inkscape"
   width="33.866665mm"
   height="33.866665mm"
   viewBox="0 0 33.866665 33.866665"
   version="1.1"
   id="svg8"
   inkscape:version="0.92.4 (5da689c313, 2019-01-14)"
   sodipodi:docname="evocation.svg">
  <defs
     id="defs2" />
  <sodipodi:namedview
     id="base"
     pagecolor="#ffffff"
     bordercolor="#666666"
     borderopacity="1.0"
     inkscape:pageopacity="0.0"
     inkscape:pageshadow="2"
     inkscape:zoom="2.8"
     inkscape:cx="85.750007"
     inkscape:cy="26.195061"
     inkscape:document-units="mm"
     inkscape:current-layer="layer1"
     showgrid="false"
     inkscape:pagecheckerboard="true"
     inkscape:window-width="1850"
     inkscape:window-height="1016"
     inkscape:window-x="70"
     inkscape:window-y="27"
     inkscape:window-maximized="1" />
  <metadata
     id="metadata5">
    <rdf:RDF>
      <cc:Work
         rdf:about="">
        <dc:format>image/svg+xml</dc:format>
        <dc:type
           rdf:resource="http://purl.org/dc/dcmitype/StillImage" />
        <dc:title></dc:title>
      </cc:Work>
    </rdf:RDF>
  </metadata>
  <g
     inkscape:label="Layer 1"
     inkscape:groupmode="layer"
     id="layer1"
     transform="translate(338.2131,84.302383)">
    <path
       style="fill:#fffffa;stroke-width:0.26458332;fill-opacity:1"
       d="m -321.35508,-55.727384 c -0.0932,-0.654844 -0.24465,-1.740879 -0.33659,-2.413414 l -0.16716,-1.222789 -1.73778,-0.178041 -1.73779,-0.178042 -1.04956,1.003955 -1.04956,1.003956 0.17902,-0.79375 c 0.0985,-0.436563 0.23698,-0.989655 0.3078,-1.229095 0.0903,-0.305227 -0.22443,-0.632752 -1.05296,-1.095826 l -1.18173,-0.660482 -1.97813,1.426556 c -1.08797,0.784605 -2.05137,1.426555 -2.1409,1.426555 -0.0895,0 0.50401,-0.885893 1.31896,-1.968651 l 1.48172,-1.968652 -0.68168,-1.003184 c -0.37492,-0.551751 -0.68168,-1.217407 -0.68168,-1.479235 0,-0.589239 -0.15575,-0.639035 -2.77813,-0.888209 l -2.11666,-0.201123 2.24896,-0.280369 2.24895,-0.280368 0.36586,-1.156497 c 0.20221,-0.639184 0.85761,-1.669716 1.46522,-2.303846 0.78098,-0.815084 1.04893,-1.284697 0.92523,-1.621628 -0.0958,-0.260853 -0.26447,-0.888176 -0.3749,-1.394049 l -0.20079,-0.919771 1.19079,0.975768 c 1.12072,0.918341 1.24098,0.956901 2.04344,0.655187 0.83955,-0.315656 0.85014,-0.3409 0.68963,-1.643497 -0.50558,-4.10319 -0.58374,-3.969742 0.80059,-1.366967 l 1.24309,2.337199 0.95099,-0.178407 c 0.52304,-0.09812 1.02332,-0.223109 1.11172,-0.277745 0.0884,-0.05464 0.23741,-1.096858 0.33113,-2.316048 0.0937,-1.21919 0.25166,-2.622195 0.351,-3.117788 l 0.18061,-0.901077 0.21502,0.79375 c 0.11825,0.436562 0.2926,1.883548 0.38742,3.215523 l 0.17242,2.421773 0.78957,0.157914 c 1.58504,0.317009 1.67935,0.247715 2.9359,-2.15719 1.31264,-2.512239 1.35833,-2.520853 0.95956,-0.180884 -0.14715,0.86347 -0.31951,1.881096 -0.38303,2.26139 -0.0902,0.540295 0.0288,0.757186 0.54458,0.992188 1.04825,0.477616 1.47325,0.364847 2.53601,-0.672913 l 0.99711,-0.973657 -0.40959,1.439837 -0.4096,1.439837 1.04506,1.098587 c 0.57478,0.604223 1.20839,1.614832 1.40801,2.245799 l 0.36295,1.147212 2.24896,0.236752 c 2.54701,0.268127 2.51643,0.345643 -0.24615,0.62401 l -1.96073,0.197571 -0.74865,1.449971 c -0.41175,0.797484 -0.74863,1.520121 -0.74863,1.60586 0,0.08574 0.48546,0.802471 1.07881,1.592738 1.77042,2.357978 1.707,2.472887 -0.50816,0.920685 l -2.11516,-1.482132 -1.10209,0.574442 c -1.04176,0.542996 -1.09278,0.624067 -0.93202,1.480957 0.0935,0.498583 0.24016,1.106419 0.32583,1.350747 0.0857,0.244327 -0.32225,-0.01102 -0.90651,-0.56743 l -1.06228,-1.011662 -1.87218,0.18448 -1.87218,0.184479 -0.17569,1.488641 c -0.0966,0.818752 -0.26078,1.905359 -0.36477,2.414682 l -0.18907,0.926042 z m -0.71844,-7.416637 c 0,-1.255748 -0.10749,-1.894619 -0.33073,-1.965711 -0.1819,-0.05793 -1.9083,-0.153811 -3.83645,-0.213072 -4.02044,-0.123568 -4.16495,-0.02565 -2.33688,1.583483 1.09177,0.961015 3.57431,2.00223 5.44573,2.284023 0.3638,0.05478 0.75075,0.115815 0.8599,0.135632 0.10914,0.01982 0.19843,-0.801142 0.19843,-1.824355 z m 5.31415,1.051337 c 1.73671,-0.500966 4.21085,-2.25983 4.21085,-2.993485 0,-0.236231 -0.90128,-0.294243 -3.50573,-0.225652 -1.92815,0.05078 -3.65455,0.140722 -3.83646,0.19987 -0.22288,0.07247 -0.33072,0.712042 -0.33072,1.961315 v 1.853773 l 0.85989,-0.146625 c 0.47294,-0.08064 1.64392,-0.372783 2.60217,-0.649196 z m -5.64488,-5.154037 c 0.39448,-0.126101 0.4745,-4.091079 0.0826,-4.091079 -1.04577,0 -4.11466,0.995186 -5.30809,1.721314 -1.18527,0.721167 -2.38125,2.013615 -2.38125,2.573322 0,0.136314 7.14138,-0.05479 7.60677,-0.203557 z m 10.12032,0.224772 c 0,-0.100136 -0.26349,-0.566601 -0.58553,-1.03659 -0.77109,-1.125319 -2.8572,-2.351024 -4.87662,-2.865275 -2.59676,-0.66127 -2.50916,-0.720498 -2.42034,1.636534 l 0.0773,2.050521 3.57187,0.144056 c 1.96453,0.07923 3.72071,0.168528 3.90261,0.198437 0.1819,0.02991 0.33073,-0.02755 0.33073,-0.127683 z"
       id="path826"
       inkscape:connector-curvature="0" />
  </g>
</svg>
