<?xml version="1.0" encoding="UTF-8" standalone="no"?>
<!-- Created with Inkscape (http://www.inkscape.org/) -->

<svg
   xmlns:dc="http://purl.org/dc/elements/1.1/"
   xmlns:cc="http://creativecommons.org/ns#"
   xmlns:rdf="http://www.w3.org/1999/02/22-rdf-syntax-ns#"
   xmlns:svg="http://www.w3.org/2000/svg"
   xmlns="http://www.w3.org/2000/svg"
   xmlns:sodipodi="http://sodipodi.sourceforge.net/DTD/sodipodi-0.dtd"
   xmlns:inkscape="http://www.inkscape.org/namespaces/inkscape"
   width="33.866665mm"
   height="33.866665mm"
   viewBox="0 0 33.866665 33.866665"
   version="1.1"
   id="svg853"
   inkscape:version="0.92.4 (5da689c313, 2019-01-14)"
   sodipodi:docname="illusion.svg">
  <defs
     id="defs847" />
  <sodipodi:namedview
     id="base"
     pagecolor="#ffffff"
     bordercolor="#666666"
     borderopacity="1.0"
     inkscape:pageopacity="0.0"
     inkscape:pageshadow="2"
     inkscape:zoom="2.8"
     inkscape:cx="59.984098"
     inkscape:cy="-0.22449321"
     inkscape:document-units="mm"
     inkscape:current-layer="layer1"
     showgrid="false"
     inkscape:pagecheckerboard="true"
     inkscape:window-width="1850"
     inkscape:window-height="1016"
     inkscape:window-x="70"
     inkscape:window-y="27"
     inkscape:window-maximized="1" />
  <metadata
     id="metadata850">
    <rdf:RDF>
      <cc:Work
         rdf:about="">
        <dc:format>image/svg+xml</dc:format>
        <dc:type
           rdf:resource="http://purl.org/dc/dcmitype/StillImage" />
        <dc:title></dc:title>
      </cc:Work>
    </rdf:RDF>
  </metadata>
  <g
     inkscape:label="Layer 1"
     inkscape:groupmode="layer"
     id="layer1"
     transform="translate(-110.06667,-147.77499)">
    <path
       style="fill:#ffffff;stroke-width:0.26458332;fill-opacity:1"
       d="m 126.95145,171.4401 c -0.0786,-0.13722 -0.22113,-0.57691 -0.31678,-0.97709 -0.14112,-0.59038 -0.32138,-0.7276 -0.95583,-0.7276 -0.61144,0 -0.88217,0.18747 -1.24176,0.85989 l -0.45985,0.8599 -0.24181,-0.9379 c -0.19293,-0.74832 -0.42461,-0.99512 -1.14617,-1.22097 -0.86022,-0.26924 -0.92572,-0.24283 -1.34193,0.54103 l -0.43756,0.82409 -0.17885,-1.04345 c -0.11763,-0.68623 -0.43194,-1.24524 -0.91815,-1.63293 l -0.73929,-0.58949 -0.93263,0.63374 c -0.51295,0.34855 -0.96713,0.59924 -1.00929,0.55707 -0.0422,-0.0422 0.0404,-0.4847 0.18339,-0.98343 0.35597,-1.24119 0.33845,-1.32276 -0.49276,-2.29357 l -0.73132,-0.85415 -1.94068,1.58175 c -1.06737,0.86996 -1.99099,1.58175 -2.05249,1.58175 -0.36704,0 1.9646,-2.75047 3.7842,-4.46395 3.76346,-3.54397 6.94461,-5.0685 10.99238,-5.26797 2.12556,-0.10475 2.87619,-0.0274 4.4886,0.46232 2.43069,0.7383 4.57015,1.81231 6.62825,3.3274 0.88138,0.64883 1.88288,1.1797 2.22556,1.1797 1.28694,0 1.48368,-1.88549 0.36122,-3.46185 -0.74133,-1.0411 -0.23861,-0.97594 0.92306,0.11965 1.07997,1.01855 1.22507,2.0103 0.51351,3.50981 -0.82113,1.7304 -2.37607,2.1527 -4.3043,1.169 l -1.01041,-0.51547 -0.30303,0.58161 c -0.20595,0.39527 -0.23058,1.02669 -0.0769,1.97069 0.12438,0.76398 0.16114,1.38906 0.0817,1.38906 -0.0795,0 -0.46736,-0.30937 -0.86203,-0.68749 l -0.71759,-0.68749 -0.78307,0.57895 c -0.71726,0.53029 -0.77206,0.68256 -0.65208,1.81197 l 0.13098,1.23302 -0.81182,-0.76198 c -1.00743,-0.94556 -1.5558,-0.77552 -1.77248,0.54963 -0.0905,0.55336 -0.19931,1.18469 -0.24186,1.40297 -0.0425,0.21828 -0.3025,-0.10889 -0.57769,-0.72706 -0.31467,-0.70684 -0.63111,-1.07504 -0.85271,-0.99219 -0.19381,0.0725 -0.52611,0.13175 -0.73846,0.13175 -0.21234,0 -0.5981,0.49922 -0.85724,1.10938 -0.25913,0.61016 -0.53544,0.99711 -0.61403,0.8599 z m 2.81524,-4.7736 c 1.71491,-0.43888 4.89777,-1.89264 5.9413,-2.71366 l 0.6382,-0.50211 -1.96112,-1.0875 c -1.07861,-0.59812 -2.08017,-1.08419 -2.22569,-1.08015 -0.14552,0.004 -0.54215,0.5991 -0.88141,1.32236 -1.58507,3.37926 -5.64022,3.91201 -7.46565,0.98082 -0.29536,-0.47427 -0.60731,-1.19221 -0.69322,-1.59542 -0.0859,-0.40321 -0.26421,-0.79987 -0.39623,-0.88146 -0.27406,-0.16938 -4.78656,1.99996 -5.75949,2.76881 l -0.64392,0.50886 1.56996,0.78527 c 4.24811,2.12484 7.71086,2.56046 11.87727,1.49418 z m -1.16453,-4.08269 c 0.54436,-0.29133 1.44031,-1.80038 1.20727,-2.03342 -0.20758,-0.20758 -4.58644,-0.23674 -4.7923,-0.0319 -0.19775,0.19676 0.25242,1.16989 0.86725,1.87475 0.45088,0.51689 1.91608,0.61965 2.71778,0.19059 z"
       id="path866"
       inkscape:connector-curvature="0" />
  </g>
</svg>
