<?xml version="1.0" standalone="no"?>
<!DOCTYPE svg PUBLIC "-//W3C//DTD SVG 20010904//EN"
 "http://www.w3.org/TR/2001/REC-SVG-20010904/DTD/svg10.dtd">
<svg version="1.0" xmlns="http://www.w3.org/2000/svg"
 width="512.000000pt" height="512.000000pt" viewBox="0 0 512.000000 512.000000"
 preserveAspectRatio="xMidYMid meet">
<metadata>
Created by potrace 1.15, written by Peter Selinger 2001-2017
</metadata>
<g transform="translate(0.000000,512.000000) scale(0.100000,-0.100000)"
fill="#ffffff" stroke="none">
<path d="M2122 4902 c-95 -89 -208 -350 -297 -686 -34 -128 -75 -315 -75 -341
0 -26 256 -114 440 -151 299 -61 661 -41 945 52 150 49 235 85 235 100 0 8
-11 67 -25 132 -78 358 -186 665 -290 822 -55 83 -80 100 -144 100 -71 0 -100
-28 -140 -134 -26 -69 -41 -93 -77 -125 -76 -67 -173 -72 -257 -14 -36 25 -60
66 -113 191 -25 61 -55 82 -119 82 -44 0 -58 -5 -83 -28z"/>
<path d="M1700 3575 c-14 -133 -20 -122 85 -173 87 -43 202 -77 350 -103 117
-21 160 -24 425 -24 265 0 308 3 425 24 148 26 263 60 350 103 105 51 99 40
85 173 -11 100 -15 116 -29 111 -9 -3 -75 -26 -147 -51 -233 -81 -434 -115
-684 -115 -250 0 -451 34 -684 115 -72 25 -138 48 -147 51 -14 5 -18 -11 -29
-111z"/>
<path d="M1341 3540 c-397 -85 -811 -225 -911 -308 l-25 -20 43 -40 c156 -144
666 -273 1312 -332 344 -31 965 -40 1315 -20 790 46 1415 184 1597 352 l43 40
-25 20 c-71 59 -390 180 -653 247 -128 33 -398 91 -424 91 -14 0 -15 -11 -9
-88 l6 -87 -42 -42 c-144 -140 -434 -227 -845 -253 -112 -7 -214 -7 -325 0
-412 26 -702 113 -846 253 l-42 42 6 87 7 88 -24 -1 c-13 0 -84 -14 -158 -29z"/>
<path d="M1530 2638 c0 -132 61 -371 131 -510 82 -165 215 -324 352 -422 81
-57 229 -128 322 -152 99 -27 351 -27 450 0 93 24 241 95 322 152 135 97 271
259 352 422 70 139 131 378 131 510 l0 54 -57 -6 c-152 -18 -137 -9 -163 -89
-61 -191 -119 -251 -274 -284 -106 -22 -241 -1 -333 53 -46 27 -128 140 -158
218 -15 39 -22 46 -45 46 -23 0 -30 -7 -45 -46 -30 -78 -112 -191 -158 -218
-92 -54 -227 -75 -333 -53 -155 33 -213 93 -274 284 -26 80 -11 71 -162 89
l-58 6 0 -54z"/>
<path d="M1205 2399 c-179 -60 -446 -189 -600 -289 -118 -77 -365 -259 -365
-270 0 -3 48 -14 108 -24 214 -36 404 -114 605 -249 105 -70 446 -336 447
-348 0 -3 -57 -11 -127 -18 -206 -20 -360 -84 -493 -208 -61 -56 -106 -110
-98 -118 2 -3 99 -18 214 -34 645 -92 862 -173 1197 -445 67 -54 109 -82 112
-74 12 40 48 217 47 238 0 14 -15 85 -32 159 -27 112 -40 145 -76 202 -62 96
-132 245 -143 305 -9 46 -3 107 13 132 4 6 -10 51 -30 100 -27 67 -43 93 -66
106 -48 29 -212 192 -272 270 -112 146 -205 343 -248 526 -11 50 -26 90 -32
90 -6 0 -78 -23 -161 -51z"/>
<path d="M3722 2361 c-43 -184 -135 -381 -248 -527 -60 -79 -225 -241 -273
-270 -24 -14 -39 -38 -66 -107 -19 -48 -32 -93 -29 -99 16 -25 22 -86 13 -132
-11 -60 -81 -209 -143 -305 -38 -60 -49 -89 -79 -219 l-35 -150 26 -119 c14
-65 27 -120 28 -121 1 -2 51 36 110 84 336 272 553 352 1198 445 115 16 212
31 214 34 8 8 -37 62 -98 118 -133 124 -287 188 -492 208 -71 7 -128 15 -128
18 1 12 342 278 447 348 201 135 391 213 606 249 59 10 107 21 107 24 0 11
-247 193 -365 270 -194 126 -575 298 -741 334 l-31 7 -21 -90z"/>
<path d="M2295 1340 c-28 -5 -68 -16 -89 -25 -37 -16 -38 -18 -33 -56 17 -129
239 -454 351 -514 36 -19 36 -19 72 0 116 62 346 405 348 518 1 40 1 40 -54
60 -49 18 -83 21 -300 23 -135 2 -268 -1 -295 -6z"/>
<path d="M2435 567 c-22 -92 -85 -382 -85 -388 0 -5 95 -9 210 -9 116 0 210 1
210 3 0 2 -20 94 -45 205 -25 111 -45 203 -45 206 0 3 -17 -2 -37 -11 -48 -20
-118 -20 -166 0 -36 15 -37 15 -42 -6z"/>
</g>
</svg>
