<?xml version="1.0" standalone="no"?>
<!DOCTYPE svg PUBLIC "-//W3C//DTD SVG 20010904//EN"
 "http://www.w3.org/TR/2001/REC-SVG-20010904/DTD/svg10.dtd">
<svg version="1.0" xmlns="http://www.w3.org/2000/svg"
 width="512.000000pt" height="512.000000pt" viewBox="0 0 512.000000 512.000000"
 preserveAspectRatio="xMidYMid meet">
<metadata>
Created by potrace 1.15, written by Peter Selinger 2001-2017
</metadata>
<g transform="translate(0.000000,512.000000) scale(0.100000,-0.100000)"
fill="#ffffff" stroke="none">
<path d="M3534 4849 c-351 -344 -554 -747 -654 -1303 -11 -60 -21 -110 -22
-111 -2 -1 -37 -12 -78 -24 -89 -27 -372 -163 -519 -251 l-103 -62 -169 17
c-93 10 -172 15 -175 12 -4 -3 19 -44 49 -89 l56 -83 -27 -7 c-15 -3 -92 -16
-172 -29 -80 -12 -147 -24 -149 -26 -3 -2 26 -35 65 -74 l69 -71 -142 6 c-79
3 -143 3 -143 -1 0 -5 7 -33 15 -63 8 -30 15 -57 15 -59 0 -2 -61 0 -136 4
l-135 7 6 -33 c9 -56 24 -173 22 -175 -1 -1 -53 7 -114 19 -62 11 -114 19
-117 16 -2 -2 3 -53 10 -113 8 -60 13 -111 11 -112 -2 -2 -104 17 -164 31 -23
5 -23 4 -23 -85 0 -67 -4 -92 -14 -96 -7 -3 -73 5 -145 16 -73 12 -135 19
-138 17 -2 -3 0 -45 6 -94 6 -48 11 -97 11 -109 0 -18 -20 -26 -175 -69 l-175
-49 0 -813 0 -813 897 2 897 3 333 570 c183 314 333 575 333 581 0 5 -79 111
-175 234 -97 123 -172 226 -168 230 76 61 104 80 112 76 5 -3 103 -126 219
-273 115 -148 222 -281 238 -297 83 -83 134 -103 394 -152 382 -72 412 -87
574 -291 82 -102 117 -126 191 -131 33 -2 98 3 145 11 l85 15 61 -60 c43 -41
66 -58 75 -52 33 19 109 88 109 98 0 6 -67 79 -150 161 l-150 150 52 52 53 53
166 -166 c137 -137 168 -163 177 -151 26 30 55 294 56 497 l1 195 -33 61 c-37
69 -142 181 -307 329 -231 207 -263 251 -340 460 -107 288 -126 334 -166 397
-53 83 -297 323 -427 422 -57 43 -102 81 -100 84 2 4 36 72 75 152 130 263
201 470 244 715 20 110 23 164 23 355 -1 158 -5 254 -17 324 -9 54 -18 101
-21 104 -3 3 -49 -37 -102 -89z m-41 -2294 c48 -24 70 -61 75 -127 4 -58 4
-59 -40 -103 -42 -41 -49 -45 -95 -45 -61 0 -110 29 -135 80 -63 125 69 256
195 195z m1034 -1046 c22 -64 13 -202 -16 -248 -32 -49 -70 104 -52 204 17 91
45 109 68 44z"/>
<path d="M4229 4687 c-125 -76 -191 -123 -311 -225 l-87 -73 -6 -67 c-29 -311
-119 -622 -265 -912 -22 -44 -40 -81 -40 -83 0 -1 23 -21 51 -42 l52 -39 45
49 c145 160 327 435 419 634 86 185 176 493 198 681 3 30 8 67 11 83 7 35 0
34 -67 -6z"/>
</g>
</svg>
