<?xml version="1.0" standalone="no"?>
<!DOCTYPE svg PUBLIC "-//W3C//DTD SVG 20010904//EN"
 "http://www.w3.org/TR/2001/REC-SVG-20010904/DTD/svg10.dtd">
<svg version="1.0" xmlns="http://www.w3.org/2000/svg"
 width="512.000000pt" height="512.000000pt" viewBox="0 0 512.000000 512.000000"
 preserveAspectRatio="xMidYMid meet">
<metadata>
Created by potrace 1.15, written by Peter Selinger 2001-2017
</metadata>
<g transform="translate(0.000000,512.000000) scale(0.100000,-0.100000)"
fill="#ffffff" stroke="none">
<path d="M1740 4924 c-19 -2 -78 -9 -130 -15 -201 -22 -434 -88 -607 -170
-131 -62 -259 -154 -369 -263 -236 -237 -371 -539 -426 -956 -15 -118 -15
-482 0 -615 59 -496 211 -975 450 -1420 331 -614 747 -993 1282 -1169 259 -85
449 -111 740 -103 184 5 420 35 443 56 4 4 -29 13 -73 20 -547 83 -1188 502
-1651 1078 -223 277 -436 653 -544 959 l-49 140 -56 17 c-72 22 -138 72 -182
138 -57 87 -73 142 -73 244 1 77 5 99 29 152 29 64 101 142 151 165 24 11 25
15 26 102 0 50 4 118 9 151 6 50 5 62 -9 73 -155 119 -191 311 -95 509 145
302 492 357 624 99 33 -66 35 -74 35 -170 -1 -115 -20 -183 -80 -272 -64 -97
-173 -180 -261 -198 -30 -7 -32 -10 -38 -68 -3 -33 -6 -94 -6 -134 l0 -73 43
-19 c71 -32 133 -96 174 -180 37 -73 38 -80 38 -182 0 -99 -2 -109 -33 -172
-20 -41 -50 -82 -76 -105 l-44 -38 39 -111 c137 -399 386 -799 702 -1131 448
-469 976 -762 1467 -813 259 -27 512 27 698 150 338 222 624 547 811 922 39
77 71 147 71 155 0 9 -24 -7 -57 -38 -453 -415 -1170 -371 -1732 105 -334 282
-640 816 -713 1240 -29 171 -22 408 16 546 102 368 364 626 705 696 101 20
281 15 376 -11 223 -60 538 -295 721 -537 276 -367 316 -800 95 -1024 -118
-121 -301 -150 -502 -80 -93 32 -286 138 -347 190 -142 121 -222 275 -222 425
0 96 23 156 85 218 105 104 264 112 445 21 96 -48 224 -180 272 -278 69 -143
76 -267 22 -370 -16 -30 -30 -59 -32 -63 -2 -4 9 -5 25 -2 107 23 156 64 193
162 31 79 31 224 1 338 -62 236 -246 483 -498 670 -175 129 -310 179 -488 178
-180 0 -311 -53 -447 -181 -176 -165 -261 -382 -261 -662 0 -187 32 -342 113
-545 100 -254 344 -611 526 -771 315 -278 702 -412 1043 -360 323 49 559 221
708 516 40 78 96 249 113 344 17 92 7 355 -19 498 -129 713 -547 1230 -1301
1608 -232 116 -497 221 -649 256 -153 36 -372 35 -514 -1 -453 -116 -778 -570
-848 -1185 -16 -139 -6 -472 18 -604 l18 -98 63 -23 c77 -28 132 -64 166 -108
97 -127 95 -288 -5 -401 l-34 -39 58 -111 c80 -152 73 -145 130 -136 257 39
505 -259 419 -501 l-19 -56 76 -66 c42 -36 97 -82 123 -102 l47 -37 34 26 c83
63 247 86 368 50 132 -39 260 -135 321 -240 14 -26 32 -75 38 -109 10 -53 9
-72 -4 -118 -63 -216 -328 -290 -585 -164 -81 39 -188 142 -220 210 -25 55
-44 142 -36 167 4 12 -17 34 -72 77 -43 33 -111 90 -152 126 -66 60 -75 65
-95 55 -38 -21 -174 -15 -239 11 -82 32 -177 123 -219 209 -30 61 -33 74 -33
162 0 84 3 102 26 146 l26 51 -24 39 c-13 21 -49 85 -79 141 l-55 102 -47 6
c-147 20 -237 84 -294 211 -52 117 -11 274 93 352 39 28 49 42 45 57 -38 150
-57 529 -36 716 66 603 342 1060 766 1271 105 52 106 53 73 60 -38 9 -464 19
-519 12z"/>
<path d="M928 4098 c-43 -11 -111 -67 -143 -118 -56 -88 -68 -212 -29 -279 63
-106 222 -52 301 102 33 66 43 174 20 229 -25 59 -81 84 -149 66z"/>
<path d="M734 3011 c-90 -55 -84 -233 12 -320 36 -34 51 -41 84 -41 72 0 112
35 129 112 36 163 -107 321 -225 249z"/>
<path d="M1528 2674 c-56 -30 -74 -112 -38 -171 73 -121 270 -92 270 40 0 53
-35 108 -83 131 -43 20 -113 20 -149 0z"/>
<path d="M1978 1861 c-57 -45 -60 -135 -6 -216 43 -64 106 -99 181 -100 54 0
61 3 89 34 28 31 30 38 26 96 -7 116 -87 196 -202 203 -51 3 -66 0 -88 -17z"/>
<path d="M2870 1210 c-68 -13 -120 -60 -120 -109 1 -112 151 -229 306 -239 86
-5 134 9 169 49 32 39 32 78 -2 141 -58 107 -227 183 -353 158z"/>
</g>
</svg>
