<?xml version="1.0" standalone="no"?>
<!DOCTYPE svg PUBLIC "-//W3C//DTD SVG 20010904//EN"
 "http://www.w3.org/TR/2001/REC-SVG-20010904/DTD/svg10.dtd">
<svg version="1.0" xmlns="http://www.w3.org/2000/svg"
 width="512.000000pt" height="512.000000pt" viewBox="0 0 512.000000 512.000000"
 preserveAspectRatio="xMidYMid meet">
<metadata>
Created by potrace 1.15, written by Peter Selinger 2001-2017
</metadata>
<g transform="translate(0.000000,512.000000) scale(0.100000,-0.100000)"
fill="#ffffff" stroke="none">
<path d="M2375 4944 c-255 -39 -449 -109 -640 -231 -213 -137 -392 -340 -509
-578 -69 -139 -95 -214 -128 -365 -19 -86 -21 -138 -25 -552 l-5 -458 256 0
255 0 3 438 c4 421 5 440 27 510 70 226 209 419 391 542 185 126 430 186 645
160 338 -41 609 -235 764 -547 86 -173 101 -284 101 -755 l0 -348 250 0 250 0
0 414 c0 238 -5 448 -11 493 -46 337 -205 645 -456 883 -199 188 -439 314
-713 375 -73 16 -387 29 -455 19z"/>
<path d="M823 2538 c-70 -111 -143 -299 -178 -458 -24 -113 -30 -353 -11 -475
49 -318 196 -602 434 -840 305 -306 708 -497 1182 -561 138 -18 456 -18 585 1
268 38 476 102 690 209 558 282 893 748 940 1307 20 237 -56 558 -186 785
l-43 74 -1693 0 -1693 0 -27 -42z m1869 -243 c92 -37 160 -102 205 -193 36
-73 38 -80 38 -176 0 -88 -3 -108 -26 -156 -35 -73 -100 -145 -165 -181 l-52
-30 163 -489 163 -490 -475 0 c-376 0 -474 3 -470 13 2 6 73 223 157 482 84
259 155 473 157 477 2 4 -11 14 -29 21 -95 40 -186 168 -210 295 -37 201 107
408 317 452 61 13 160 2 227 -25z"/>
</g>
</svg>
