<?xml version="1.0" standalone="no"?>
<!DOCTYPE svg PUBLIC "-//W3C//DTD SVG 20010904//EN"
 "http://www.w3.org/TR/2001/REC-SVG-20010904/DTD/svg10.dtd">
<svg version="1.0" xmlns="http://www.w3.org/2000/svg"
 width="512.000000pt" height="512.000000pt" viewBox="0 0 512.000000 512.000000"
 preserveAspectRatio="xMidYMid meet">
<metadata>
Created by potrace 1.15, written by Peter Selinger 2001-2017
</metadata>
<g transform="translate(0.000000,512.000000) scale(0.100000,-0.100000)"
fill="#ffffff" stroke="none">
<path d="M2337 4926 c-108 -12 -396 -55 -405 -61 -3 -2 29 -81 216 -525 144
-344 134 -325 180 -343 111 -44 246 -43 376 5 l59 22 55 115 c30 64 81 172
113 240 32 68 59 125 59 126 0 2 30 65 66 141 81 170 115 246 112 249 -2 2
-66 10 -143 20 -185 22 -523 28 -688 11z"/>
<path d="M1662 4775 c-151 -55 -325 -144 -429 -223 -39 -29 -41 -42 -12 -68
68 -60 251 -309 325 -441 35 -62 35 -62 90 -69 134 -16 239 23 354 133 l72 68
-146 310 c-80 170 -150 312 -154 316 -4 4 -49 -8 -100 -26z"/>
<path d="M3145 4434 c-88 -196 -161 -359 -163 -363 -2 -7 106 -81 157 -106 88
-44 269 -77 308 -57 23 13 327 637 319 657 -5 14 -173 111 -241 140 -22 9 -74
29 -115 45 -41 15 -82 31 -90 34 -12 5 -51 -74 -175 -350z"/>
<path d="M892 4342 c-247 -250 -454 -559 -572 -856 -34 -85 -92 -278 -85 -284
6 -6 546 -33 608 -30 l57 3 48 110 c121 278 252 451 427 567 36 23 65 46 65
50 0 23 -125 227 -197 321 -56 72 -212 237 -225 237 -5 0 -62 -53 -126 -118z"/>
<path d="M3927 4438 c-53 -86 -307 -592 -300 -598 4 -4 40 -29 78 -56 104 -73
242 -216 299 -313 28 -46 71 -135 97 -199 l46 -117 39 3 c22 2 168 19 326 38
159 19 300 34 315 34 54 0 56 8 29 121 -77 325 -217 597 -409 796 -134 139
-238 213 -381 271 -107 44 -123 46 -139 20z"/>
<path d="M3418 3035 c-3 -39 -18 -82 -54 -152 -38 -76 -49 -109 -49 -145 0
-44 -2 -48 -24 -48 -16 0 -39 16 -68 46 l-43 47 0 -50 c0 -67 22 -125 70 -190
l40 -53 -25 -6 c-14 -3 -39 -4 -55 -2 -23 3 -30 1 -30 -11 1 -48 66 -103 148
-127 45 -13 61 -14 105 -3 l52 12 -40 17 c-63 27 -70 42 -35 69 35 25 41 72
13 104 -15 16 -15 21 -4 25 47 16 63 75 41 152 l-10 35 48 -52 c60 -65 93 -75
131 -39 l27 26 18 -39 c19 -44 41 -56 87 -46 l30 7 -7 -39 c-10 -54 -20 -79
-54 -128 -17 -24 -30 -46 -30 -49 0 -12 128 48 153 72 15 15 43 58 62 96 42
83 47 150 14 202 -27 44 -39 43 -39 -1 0 -79 -55 -51 -131 65 -51 77 -68 87
-69 38 0 -27 -22 -68 -36 -68 -6 0 -40 44 -74 98 -74 115 -115 169 -140 182
-16 8 -18 3 -22 -45z"/>
<path d="M200 2736 c0 -262 3 -336 13 -336 6 0 172 26 367 58 l355 58 9 242
c4 133 6 248 3 255 -4 10 -83 17 -313 30 -170 10 -337 21 -371 24 l-63 6 0
-337z"/>
<path d="M1640 3037 c-1 -74 -72 -219 -114 -233 -26 -9 -54 26 -62 77 -4 22
-9 39 -13 39 -3 0 -19 -23 -35 -52 -42 -75 -118 -150 -147 -146 -20 2 -25 10
-29 43 l-5 40 -22 -24 c-53 -57 -55 -160 -4 -264 43 -90 59 -106 125 -123 32
-8 60 -13 62 -11 2 2 -11 24 -29 48 -42 54 -62 94 -70 137 -7 34 -2 37 37 22
36 -13 70 2 86 39 15 37 14 37 40 11 42 -42 84 -17 192 114 l25 29 -10 -66
c-13 -88 -2 -126 45 -152 33 -19 35 -21 21 -42 -8 -12 -17 -48 -20 -80 -7 -73
-17 -92 -54 -105 -39 -14 -29 -25 31 -33 43 -6 59 -3 106 20 63 31 114 92 114
136 l0 28 -35 -15 c-51 -21 -59 -17 -35 15 47 67 76 186 64 269 l-6 42 -28
-42 c-15 -24 -38 -53 -51 -65 l-24 -22 3 49 c6 81 -53 224 -127 310 l-30 35
-1 -28z"/>
<path d="M4460 3023 c-179 -14 -325 -26 -326 -27 0 0 2 -181 5 -401 l6 -400
378 -13 c208 -8 380 -12 381 -10 2 2 6 200 10 441 l7 437 -68 -1 c-37 -1 -214
-13 -393 -26z"/>
<path d="M945 2323 c-16 -2 -176 -22 -355 -43 -179 -22 -345 -42 -369 -46
l-44 -6 8 -501 c4 -276 8 -503 8 -503 1 -1 191 -4 423 -8 l420 -7 -3 63 c-7
133 -43 995 -43 1026 0 17 -3 31 -7 31 -5 -1 -21 -4 -38 -6z"/>
<path d="M3635 2216 c-94 -23 -130 -36 -129 -47 2 -21 205 -663 213 -671 3 -4
43 4 88 18 l81 25 -5 37 c-3 20 -24 179 -47 352 -33 250 -44 315 -56 316 -8 1
-73 -12 -145 -30z"/>
<path d="M1316 2208 c-4 -12 -84 -623 -89 -676 -2 -21 7 -26 77 -49 43 -13 82
-21 86 -16 10 10 221 676 215 681 -2 2 -59 17 -127 33 -68 16 -131 32 -141 35
-9 3 -19 0 -21 -8z"/>
<path d="M4120 1600 l0 -420 28 0 c50 0 761 76 767 82 3 3 25 607 25 701 l0
57 -410 0 -410 0 0 -420z"/>
<path d="M4480 1051 l-405 -46 -6 -405 c-4 -223 -6 -406 -5 -406 0 -1 207 -5
459 -9 l457 -7 0 309 c0 171 -3 378 -7 461 l-6 152 -41 -1 c-23 -1 -223 -22
-446 -48z"/>
<path d="M427 1070 c-125 -4 -230 -10 -234 -13 -5 -5 -49 -721 -53 -849 0 -17
28 -18 457 -18 l456 0 -6 108 c-3 59 -12 259 -18 445 l-13 337 -180 -2 c-100
-1 -283 -4 -409 -8z"/>
</g>
</svg>
