<?xml version="1.0" standalone="no"?>
<!DOCTYPE svg PUBLIC "-//W3C//DTD SVG 20010904//EN"
 "http://www.w3.org/TR/2001/REC-SVG-20010904/DTD/svg10.dtd">
<svg version="1.0" xmlns="http://www.w3.org/2000/svg"
 width="512.000000pt" height="512.000000pt" viewBox="0 0 512.000000 512.000000"
 preserveAspectRatio="xMidYMid meet">
<metadata>
Created by potrace 1.15, written by Peter Selinger 2001-2017
</metadata>
<g transform="translate(0.000000,512.000000) scale(0.100000,-0.100000)"
fill="#ffffff" stroke="none">
<path d="M2293 4694 c-896 -130 -1562 -897 -1563 -1800 l0 -140 90 -207 c50
-114 107 -256 127 -315 20 -59 39 -111 43 -115 4 -4 -1 39 -11 96 -28 162 -39
295 -39 473 0 532 167 983 489 1316 300 312 689 478 1116 478 215 -1 503 -65
660 -148 l40 -21 -107 -1 c-201 0 -476 -54 -693 -135 -307 -114 -700 -356
-828 -510 -192 -230 -359 -662 -496 -1280 -22 -99 -48 -225 -57 -281 l-18
-101 64 -104 c149 -243 230 -348 344 -448 48 -42 61 -49 68 -37 5 9 11 95 15
193 8 249 -12 522 -68 912 l-20 143 34 32 c32 29 34 36 40 116 4 47 20 139 36
205 53 216 117 377 273 690 l100 200 68 -195 c37 -107 97 -271 132 -365 104
-272 144 -427 155 -597 l6 -97 37 -30 37 -30 -14 -68 c-20 -97 -28 -445 -13
-574 15 -130 43 -268 76 -379 l26 -85 24 30 c32 41 138 253 168 340 14 39 35
111 46 160 16 65 29 98 49 120 19 20 40 69 64 145 65 205 163 376 421 738 89
125 191 269 226 320 50 73 66 89 71 75 3 -10 9 -86 12 -169 4 -83 16 -252 27
-376 33 -371 41 -571 30 -745 -8 -113 -7 -165 0 -184 10 -23 7 -36 -23 -95
-38 -76 -66 -155 -92 -254 -23 -91 -43 -210 -35 -210 4 0 58 53 121 118 205
210 393 442 404 496 26 128 104 301 248 546 188 323 187 320 187 413 -1 349
-154 769 -388 1062 -299 374 -715 613 -1183 680 -128 18 -400 18 -526 -1z"/>
<path d="M1875 3404 c-66 -149 -125 -325 -155 -462 -30 -135 -31 -132 38 -116
102 24 213 14 310 -27 l44 -19 -7 47 c-11 79 -52 231 -94 354 -40 115 -99 270
-106 278 -2 2 -16 -23 -30 -55z"/>
<path d="M3292 2833 c-104 -147 -206 -314 -261 -427 -76 -156 -79 -143 41
-148 118 -5 179 -25 279 -89 l62 -41 -6 244 c-7 228 -29 543 -40 554 -3 3 -36
-39 -75 -93z"/>
<path d="M482 2870 c-48 -124 -92 -283 -112 -410 -22 -130 -16 -399 9 -439 7
-10 21 -3 57 33 67 65 193 126 273 133 59 6 62 7 57 29 -3 12 -48 121 -100
241 -51 120 -108 259 -126 308 -51 143 -46 134 -58 105z"/>
<path d="M4424 2583 c-162 -280 -194 -338 -232 -426 -23 -50 -44 -104 -47
-118 l-7 -27 169 -4 c158 -3 171 -5 227 -31 32 -15 60 -27 62 -27 10 0 2 243
-12 342 -13 98 -81 408 -88 408 -2 0 -34 -53 -72 -117z"/>
<path d="M1788 2660 c-21 -5 -64 -23 -96 -39 l-59 -30 17 -123 c10 -68 23
-177 29 -243 19 -180 8 -163 98 -162 43 1 109 -2 146 -7 67 -8 68 -8 63 -34
-3 -15 -8 -53 -11 -86 l-7 -58 -98 7 c-54 4 -112 4 -129 0 l-31 -7 0 -132 0
-132 97 4 c54 3 128 -1 166 -8 78 -14 76 -6 41 -126 -13 -45 -19 -54 -32 -49
-33 14 -208 18 -244 6 -33 -11 -36 -16 -42 -59 -13 -89 -37 -237 -42 -250 -9
-28 -250 129 -360 235 -102 98 -178 199 -304 402 -143 231 -163 251 -250 251
-97 0 -230 -108 -261 -210 -11 -37 -10 -39 68 -151 44 -63 100 -148 124 -189
23 -41 44 -77 46 -79 1 -2 29 21 62 52 51 47 166 116 176 105 5 -5 45 -144 45
-154 0 -5 -17 -17 -38 -27 -43 -20 -73 -46 -124 -106 -37 -44 -37 -44 -22 -80
9 -20 46 -115 84 -211 37 -97 79 -199 94 -228 l26 -52 1523 0 1523 0 23 71
c13 39 19 75 14 79 -16 16 -176 60 -274 77 -99 16 -100 16 -95 42 3 14 8 52
12 84 l7 59 46 -7 c95 -13 199 -37 279 -64 l82 -27 20 64 c11 35 20 70 20 77
0 13 -92 57 -200 95 -36 13 -66 24 -67 25 -1 0 7 36 19 78 18 65 25 77 42 77
12 0 71 -21 131 -46 61 -25 117 -47 125 -50 11 -4 26 17 53 73 54 109 118 211
188 295 67 82 67 80 -21 122 -41 19 -61 21 -210 20 -91 0 -175 -5 -188 -10
-12 -5 -60 -58 -106 -118 -162 -208 -291 -342 -604 -626 -83 -74 -106 -91
-114 -79 -10 15 -4 382 7 411 5 13 -5 23 -45 43 -60 31 -187 65 -239 65 l-36
0 3 86 4 87 79 -6 c48 -4 114 -18 167 -37 48 -16 91 -31 95 -32 5 -2 17 26 28
62 11 36 34 100 50 142 36 89 36 89 -55 166 -80 68 -148 96 -238 101 -66 3
-84 -1 -130 -22 -77 -37 -77 -37 -98 -123 -62 -261 -197 -518 -361 -689 -45
-47 -85 -85 -89 -85 -8 0 -97 222 -129 320 -101 319 -134 705 -85 1002 6 34 4
38 -37 68 -24 18 -76 48 -115 66 -77 38 -169 51 -236 34z"/>
<path d="M907 365 c-54 -80 -97 -147 -97 -150 0 -3 788 -5 1750 -5 963 0 1750
2 1750 5 0 3 -43 70 -97 150 l-96 145 -1557 0 -1557 0 -96 -145z"/>
</g>
</svg>
