<?xml version="1.0" standalone="no"?>
<!DOCTYPE svg PUBLIC "-//W3C//DTD SVG 20010904//EN"
 "http://www.w3.org/TR/2001/REC-SVG-20010904/DTD/svg10.dtd">
<svg version="1.0" xmlns="http://www.w3.org/2000/svg"
 width="512.000000pt" height="512.000000pt" viewBox="0 0 512.000000 512.000000"
 preserveAspectRatio="xMidYMid meet">
<metadata>
Created by potrace 1.15, written by Peter Selinger 2001-2017
</metadata>
<g transform="translate(0.000000,512.000000) scale(0.100000,-0.100000)"
fill="#ffffff" stroke="none">
<path d="M2558 4911 c-206 -43 -382 -276 -429 -565 -17 -106 -7 -308 21 -410
21 -80 69 -186 111 -249 114 -166 285 -250 445 -217 343 70 540 568 402 1018
-72 238 -255 413 -444 426 -38 3 -86 1 -106 -3z"/>
<path d="M1440 4829 c-41 -23 -76 -42 -78 -44 -2 -2 595 -1153 604 -1164 5 -6
94 33 94 42 0 4 -13 33 -29 65 -48 97 -101 286 -101 362 0 15 -21 68 -46 117
-26 48 -72 138 -104 198 -31 61 -99 190 -150 288 -50 97 -97 177 -103 177 -7
0 -46 -19 -87 -41z"/>
<path d="M3675 4758 c-32 -62 -75 -144 -95 -183 -176 -333 -238 -463 -244
-515 -10 -84 -45 -206 -86 -301 l-37 -86 49 -18 c42 -15 52 -16 59 -4 5 8 140
265 300 573 230 441 289 560 278 568 -25 16 -148 78 -157 78 -4 0 -34 -51 -67
-112z"/>
<path d="M956 4416 c-43 -39 -67 -68 -64 -77 6 -13 182 -210 608 -678 102
-112 194 -215 206 -229 l20 -24 65 67 c35 36 65 70 67 74 2 6 -719 814 -801
898 l-32 32 -69 -63z"/>
<path d="M4079 4297 c-90 -100 -270 -299 -399 -442 -130 -143 -240 -266 -244
-273 -5 -9 14 -34 61 -77 37 -36 71 -64 74 -62 4 1 60 61 124 132 65 72 137
150 159 175 23 25 80 88 127 140 47 52 158 175 248 274 185 204 177 174 70
267 l-56 48 -164 -182z"/>
<path d="M580 3873 c-28 -43 -50 -82 -50 -86 0 -8 71 -55 580 -379 490 -313
470 -301 470 -278 0 6 16 43 35 83 19 39 35 75 35 78 0 7 -38 32 -355 234
-110 70 -222 142 -250 160 -27 18 -106 68 -175 112 -69 44 -151 96 -183 117
l-57 37 -50 -78z"/>
<path d="M4544 3887 c-99 -63 -436 -279 -716 -458 -80 -52 -154 -99 -164 -105
-17 -10 -17 -13 5 -60 13 -27 32 -68 42 -92 l18 -42 88 57 c125 81 676 432
816 520 75 48 115 79 110 86 -4 7 -28 45 -53 84 l-47 73 -99 -63z"/>
<path d="M3060 3473 c-53 -54 -157 -124 -226 -152 -202 -79 -434 -26 -609 140
l-52 49 -40 -14 c-83 -29 -150 -71 -208 -130 -205 -205 -305 -587 -322 -1223
l-6 -233 136 0 135 0 -4 58 c-7 90 -33 616 -31 618 1 1 41 4 90 7 85 6 87 5
87 -16 0 -95 50 -922 95 -1583 30 -440 55 -808 55 -817 0 -15 19 -17 195 -17
l195 0 0 665 0 665 90 0 90 0 0 -665 0 -665 210 0 210 0 0 32 c0 17 20 367 45
777 25 410 56 943 69 1183 12 241 25 440 27 442 2 2 41 1 87 -2 l82 -5 0 -51
c0 -28 -7 -168 -15 -311 -8 -143 -15 -272 -15 -287 l0 -28 126 0 126 0 -7 238
c-7 281 -20 468 -41 612 -52 351 -174 586 -360 695 -39 23 -146 65 -163 65 -3
0 -26 -21 -51 -47z"/>
<path d="M338 3233 c-14 -49 -23 -91 -19 -95 5 -5 546 -169 761 -230 19 -6
116 -34 214 -64 99 -29 182 -51 185 -48 3 3 15 46 27 94 l21 89 -61 20 c-51
16 -360 108 -980 292 -55 16 -105 29 -111 29 -6 0 -23 -39 -37 -87z"/>
<path d="M4710 3269 c-91 -28 -280 -84 -420 -125 -310 -92 -513 -154 -516
-157 -8 -7 34 -181 44 -185 6 -2 156 40 334 93 178 53 431 128 563 167 132 39
241 73 243 74 2 1 -9 43 -24 93 -20 66 -31 91 -43 90 -9 0 -90 -23 -181 -50z"/>
<path d="M260 2550 l0 -100 589 0 588 0 7 63 c4 34 10 79 13 100 l6 37 -602 0
-601 0 0 -100z"/>
<path d="M3834 2589 c3 -34 6 -79 6 -100 l0 -39 585 0 585 0 0 100 0 100 -591
0 -592 0 7 -61z"/>
<path d="M1377 2280 c-16 -5 -259 -77 -540 -161 -282 -84 -515 -155 -519 -158
-12 -10 44 -181 59 -181 7 0 219 61 471 136 251 75 483 144 515 152 l57 16 0
51 c0 27 3 74 6 103 7 57 5 58 -49 42z"/>
<path d="M3852 2189 l3 -103 140 -42 c77 -23 235 -70 350 -104 116 -34 283
-84 373 -111 89 -27 169 -49 176 -49 9 0 22 28 35 69 36 120 44 109 -99 152
-113 34 -920 273 -963 285 -16 5 -17 -3 -15 -97z"/>
<path d="M994 1617 c-226 -145 -424 -272 -439 -284 l-29 -21 50 -81 c27 -44
51 -81 54 -81 3 0 151 94 330 209 179 115 380 245 448 288 l123 78 -55 3 -56
3 0 74 c0 41 -3 75 -7 75 -5 0 -193 -119 -419 -263z"/>
<path d="M3850 1805 l0 -74 -54 -3 -54 -3 449 -289 c248 -158 452 -286 453
-285 12 13 106 163 104 165 -14 12 -883 564 -890 564 -4 0 -8 -34 -8 -75z"/>
<path d="M1328 1250 c-238 -264 -434 -487 -436 -494 -2 -7 28 -41 67 -75 l69
-61 313 347 c173 192 335 371 360 398 171 185 190 209 184 239 -3 16 -5 50 -5
77 l0 49 -59 0 -60 0 -433 -480z"/>
<path d="M3416 1684 c-3 -26 -6 -68 -6 -93 l0 -46 348 -386 c191 -213 379
-421 418 -463 l69 -77 73 68 73 68 -438 487 -438 487 -46 0 -46 1 -7 -46z"/>
<path d="M1629 833 c-145 -279 -265 -510 -267 -515 -6 -13 167 -93 176 -83 5
6 95 175 200 376 l191 367 -13 176 c-7 97 -15 178 -18 181 -2 3 -124 -223
-269 -502z"/>
<path d="M3390 1261 c0 -16 -5 -97 -11 -180 l-10 -151 182 -350 c100 -193 186
-350 191 -350 12 0 168 79 168 85 0 5 -193 378 -444 857 -33 65 -64 118 -68
118 -5 0 -8 -13 -8 -29z"/>
</g>
</svg>
