<?xml version="1.0" standalone="no"?>
<!DOCTYPE svg PUBLIC "-//W3C//DTD SVG 20010904//EN"
 "http://www.w3.org/TR/2001/REC-SVG-20010904/DTD/svg10.dtd">
<svg version="1.0" xmlns="http://www.w3.org/2000/svg"
 width="512.000000pt" height="512.000000pt" viewBox="0 0 512.000000 512.000000"
 preserveAspectRatio="xMidYMid meet">
<metadata>
Created by potrace 1.15, written by Peter Selinger 2001-2017
</metadata>
<g transform="translate(0.000000,512.000000) scale(0.100000,-0.100000)"
fill="#ffffff" stroke="none">
<path d="M1768 4268 c-199 -178 -379 -339 -400 -358 l-38 -35 92 -352 c81
-311 94 -353 111 -353 11 0 118 16 239 36 121 19 221 34 224 32 2 -2 -53 -167
-122 -367 -69 -200 -123 -365 -120 -368 4 -4 197 105 352 198 l31 19 53 -180
c30 -98 58 -176 62 -174 4 3 71 83 149 179 79 96 146 175 149 175 4 0 71 -82
149 -182 79 -101 147 -183 153 -183 6 0 50 82 97 182 47 101 89 183 93 183 4
0 76 -45 159 -100 83 -56 153 -99 155 -97 2 2 -52 163 -121 357 -69 195 -124
355 -122 356 1 1 102 -11 225 -28 123 -17 225 -28 228 -25 4 3 48 156 100 339
l94 333 -28 27 c-15 14 -198 180 -407 367 l-380 341 -408 0 -407 0 -362 -322z
m373 -314 c30 -9 77 -32 106 -50 61 -41 153 -156 153 -192 0 -5 -56 -17 -124
-26 -69 -10 -204 -30 -300 -45 l-176 -27 0 56 c0 110 42 201 116 253 68 48
137 57 225 31z m1018 5 c58 -12 131 -71 161 -129 21 -41 43 -154 38 -192 l-3
-24 -300 45 c-165 24 -301 46 -303 47 -2 1 6 21 18 44 47 92 164 187 256 209
54 13 75 13 133 0z m-475 -671 c64 -141 116 -259 116 -262 0 -3 -104 -6 -231
-6 -181 0 -230 3 -226 13 3 6 51 130 108 275 60 153 106 257 110 250 4 -7 59
-129 123 -270z"/>
<path d="M830 2171 c-52 -37 -146 -102 -208 -146 -62 -43 -109 -81 -105 -85 8
-8 44 -21 518 -187 597 -209 1015 -356 1280 -449 l270 -95 225 79 c124 44 578
204 1010 357 432 152 797 282 813 287 15 6 27 13 27 16 0 4 -92 71 -204 150
l-204 142 -73 -10 c-41 -5 -267 -11 -504 -14 -443 -3 -478 -6 -616 -50 -104
-32 -226 -117 -284 -196 l-37 -50 -152 0 -152 0 -37 50 c-67 89 -172 160 -300
201 -127 40 -245 49 -650 49 -210 0 -411 4 -447 10 -36 5 -67 9 -70 9 -3 0
-48 -30 -100 -68z"/>
<path d="M285 1819 c-8 -12 -65 -179 -61 -179 1 0 74 -25 162 -56 87 -31 254
-89 369 -129 116 -40 316 -110 445 -155 603 -210 887 -309 907 -315 22 -6 23
-12 23 -96 l0 -89 465 0 465 0 0 93 0 92 843 294 c463 162 886 310 939 329
l96 34 -32 92 c-22 64 -36 90 -46 88 -14 -3 -409 -140 -1000 -347 -146 -51
-440 -154 -654 -229 -215 -75 -392 -138 -394 -141 -3 -3 4 -29 15 -60 l21 -55
-268 0 -268 0 21 55 c11 31 18 57 15 60 -4 4 -225 83 -748 265 -107 37 -422
148 -700 245 -278 97 -529 185 -557 195 -32 11 -55 15 -58 9z"/>
</g>
</svg>
