<?xml version="1.0" standalone="no"?>
<!DOCTYPE svg PUBLIC "-//W3C//DTD SVG 20010904//EN"
 "http://www.w3.org/TR/2001/REC-SVG-20010904/DTD/svg10.dtd">
<svg version="1.0" xmlns="http://www.w3.org/2000/svg"
 width="512.000000pt" height="512.000000pt" viewBox="0 0 512.000000 512.000000"
 preserveAspectRatio="xMidYMid meet">
<metadata>
Created by potrace 1.15, written by Peter Selinger 2001-2017
</metadata>
<g transform="translate(0.000000,512.000000) scale(0.100000,-0.100000)"
fill="#ffffff" stroke="none">
<path d="M1627 4893 c-9 -15 -48 -193 -63 -290 -9 -56 -17 -180 -19 -291 l-4
-194 -45 -29 c-70 -44 -131 -111 -167 -181 -27 -53 -33 -77 -37 -155 -6 -110
12 -311 39 -447 31 -155 83 -296 180 -491 79 -160 89 -186 89 -234 0 -174
-181 -188 -265 -21 -13 26 -49 110 -78 186 -142 364 -276 577 -408 649 -40 22
-68 28 -136 33 -80 5 -85 6 -107 36 -41 54 -137 226 -211 379 -40 82 -75 145
-78 140 -3 -5 -16 -56 -29 -114 -19 -87 -22 -134 -22 -289 0 -160 3 -193 20
-246 l21 -61 -24 -29 c-14 -16 -39 -58 -56 -94 -26 -53 -32 -80 -35 -148 -5
-96 10 -145 86 -297 107 -215 246 -390 516 -648 291 -280 418 -468 538 -801
l39 -109 -77 -229 c-42 -126 -74 -232 -71 -235 3 -3 53 20 111 50 58 30 106
54 106 54 0 -1 -34 -103 -74 -227 -41 -123 -73 -226 -71 -228 2 -3 39 16 82
41 43 26 80 42 81 36 5 -14 -35 -143 -65 -205 -14 -30 -24 -57 -21 -59 3 -3
500 -4 1106 -3 l1101 3 -46 75 c-62 103 -127 234 -111 224 7 -4 46 -32 86 -62
40 -30 75 -53 77 -50 3 2 -22 127 -55 276 -33 150 -60 275 -60 278 0 3 30 -29
68 -71 61 -69 68 -73 74 -53 3 13 6 122 7 244 l1 220 73 91 c160 200 346 384
582 574 180 145 300 279 430 479 151 232 191 342 166 457 -13 58 -53 144 -77
164 -10 8 -8 24 7 77 51 176 83 378 77 492 l-3 65 -194 -217 c-186 -206 -196
-216 -220 -206 -15 6 -69 11 -121 11 -108 1 -176 -19 -254 -72 -58 -40 -159
-175 -238 -319 -154 -279 -233 -372 -313 -372 -37 0 -62 16 -81 52 -23 44 -13
81 61 227 115 230 177 403 219 613 36 177 49 303 44 415 -3 84 -8 107 -36 166
-39 85 -116 162 -200 202 l-62 30 0 62 c0 85 -17 200 -45 313 -25 97 -100 333
-115 360 -10 18 -3 39 -69 -190 -28 -96 -74 -246 -103 -334 l-53 -159 -73 -18
c-144 -36 -263 -122 -316 -227 -46 -90 -90 -313 -106 -537 -7 -100 -7 -210 2
-387 12 -270 9 -301 -38 -357 -48 -58 -146 -51 -203 14 -51 59 -56 92 -37 272
45 430 44 586 -5 841 -40 207 -117 299 -301 357 l-72 23 -21 73 c-34 116 -90
249 -187 447 -89 178 -102 200 -111 185z m1711 -953 c69 -30 152 -120 183
-197 33 -83 33 -254 1 -368 -92 -323 -301 -486 -498 -390 -134 66 -209 232
-208 465 1 185 38 300 127 397 108 118 257 153 395 93z m-1430 -40 c165 -78
265 -269 264 -505 -1 -177 -61 -305 -178 -375 -52 -31 -65 -35 -133 -35 -66 0
-83 4 -130 30 -146 81 -225 266 -225 530 0 112 3 138 23 188 70 176 220 243
379 167z m-1151 -720 c74 -33 138 -102 187 -203 118 -245 96 -450 -57 -529
-48 -24 -131 -22 -188 6 -81 38 -160 139 -220 281 -73 170 -62 322 28 407 62
59 169 75 250 38z m3725 -227 c106 -48 163 -134 163 -248 0 -102 -42 -184
-150 -290 -131 -129 -263 -194 -369 -181 -166 19 -187 208 -56 493 67 144 121
203 219 240 47 17 136 11 193 -14z m-1745 -519 c400 -59 747 -288 854 -561 33
-86 33 -200 -2 -273 -56 -120 -208 -219 -399 -261 -161 -35 -250 -23 -500 66
-57 21 -94 27 -155 27 -82 1 -93 -2 -315 -80 -134 -47 -222 -57 -322 -37 -180
37 -321 106 -406 199 -60 65 -84 125 -90 216 -8 138 57 271 198 403 158 148
408 259 670 296 41 6 86 13 100 15 67 9 274 4 367 -10z"/>
</g>
</svg>
