<?xml version="1.0" standalone="no"?>
<!DOCTYPE svg PUBLIC "-//W3C//DTD SVG 20010904//EN"
 "http://www.w3.org/TR/2001/REC-SVG-20010904/DTD/svg10.dtd">
<svg version="1.0" xmlns="http://www.w3.org/2000/svg"
 width="512.000000pt" height="512.000000pt" viewBox="0 0 512.000000 512.000000"
 preserveAspectRatio="xMidYMid meet">
<metadata>
Created by potrace 1.15, written by Peter Selinger 2001-2017
</metadata>
<g transform="translate(0.000000,512.000000) scale(0.100000,-0.100000)"
fill="#ffffff" stroke="none">
<path d="M295 4951 c-140 -63 -179 -250 -77 -363 48 -54 102 -78 175 -78 138
0 231 92 231 230 0 100 -51 179 -141 217 -46 19 -140 16 -188 -6z"/>
<path d="M1544 4870 c-11 -4 -33 -22 -47 -40 -21 -25 -27 -42 -27 -81 0 -28 7
-64 16 -80 16 -31 81 -69 119 -69 38 0 103 38 119 69 23 44 21 122 -5 155 -39
50 -116 70 -175 46z"/>
<path d="M773 4680 c-42 -25 -63 -68 -63 -126 0 -40 5 -51 38 -84 49 -49 96
-58 157 -31 37 16 50 29 66 67 28 62 19 106 -31 156 -33 34 -43 38 -86 38 -31
0 -61 -7 -81 -20z"/>
<path d="M1838 4560 c-131 -71 -158 -250 -52 -356 51 -51 97 -67 179 -62 120
7 200 94 200 218 0 81 -30 140 -93 185 -38 26 -53 30 -120 33 -61 2 -84 -2
-114 -18z"/>
<path d="M1120 4339 c-25 -5 -73 -22 -106 -39 l-62 -30 -53 25 c-128 59 -275
8 -342 -120 -30 -57 -30 -174 0 -230 44 -83 121 -134 214 -142 59 -6 59 -6 88
-58 35 -61 95 -116 166 -151 l52 -25 -5 -55 c-2 -30 1 -75 8 -99 16 -56 81
-132 135 -156 54 -25 156 -25 210 0 51 23 118 98 133 149 26 85 5 191 -50 249
l-20 22 21 30 c44 61 72 140 78 214 15 203 -121 379 -322 416 -66 12 -82 12
-145 0z"/>
<path d="M2136 3894 c-180 -44 -351 -200 -410 -377 -38 -113 -41 -223 -10
-367 4 -21 -2 -29 -39 -53 -66 -41 -134 -119 -170 -195 -30 -64 -32 -73 -32
-187 0 -114 2 -123 32 -188 43 -90 129 -177 220 -220 64 -30 75 -32 178 -32
61 0 125 4 143 8 31 8 32 8 32 -23 0 -18 7 -60 16 -94 59 -229 240 -401 473
-449 40 -9 75 -17 77 -20 2 -2 -5 -39 -17 -83 -16 -58 -22 -121 -26 -241 l-6
-161 -46 -12 c-167 -42 -274 -180 -275 -355 0 -70 4 -90 31 -147 38 -81 97
-141 172 -177 49 -23 68 -26 161 -26 102 0 107 1 171 36 l66 37 82 -79 c227
-217 506 -329 820 -329 324 0 611 118 836 344 178 179 288 390 331 637 22 124
14 357 -15 475 -72 292 -248 544 -492 706 l-76 51 8 36 c13 56 10 199 -6 276
-39 185 -183 369 -355 454 -261 128 -563 83 -769 -114 -62 -60 -139 -163 -154
-208 -1 -5 -24 5 -50 23 -62 42 -149 76 -230 91 l-66 12 30 44 c69 100 99 203
99 340 0 274 -175 498 -445 568 -73 18 -209 18 -289 -1z"/>
<path d="M3319 3889 c-189 -30 -301 -247 -216 -421 48 -99 137 -158 248 -166
97 -7 159 17 229 87 207 208 30 546 -261 500z"/>
<path d="M3893 3611 c-41 -26 -63 -69 -63 -125 0 -80 84 -147 165 -132 111 21
149 161 65 241 -40 38 -119 46 -167 16z"/>
<path d="M553 3085 c-96 -41 -97 -209 -1 -249 29 -13 31 -17 33 -72 6 -149
115 -254 265 -254 111 0 195 53 239 150 28 62 28 168 1 226 -30 61 -98 120
-161 138 -62 19 -90 20 -142 5 -35 -10 -40 -8 -59 17 -40 50 -113 66 -175 39z"/>
<path d="M986 2330 c-35 -11 -92 -63 -113 -104 -8 -16 -15 -55 -15 -88 0 -197
253 -273 367 -110 25 37 30 53 30 105 0 118 -72 198 -182 204 -32 1 -71 -2
-87 -7z"/>
<path d="M1429 1952 c-122 -32 -225 -120 -282 -240 -30 -63 -32 -74 -32 -182
0 -108 2 -119 31 -181 120 -252 431 -335 655 -174 l49 35 51 -16 c73 -24 171
-15 238 22 62 33 96 70 129 142 20 45 23 65 20 130 -4 94 -33 157 -96 213 -55
48 -117 69 -204 69 l-68 0 -63 63 c-118 120 -266 161 -428 119z"/>
</g>
</svg>
