<?xml version="1.0" standalone="no"?>
<!DOCTYPE svg PUBLIC "-//W3C//DTD SVG 20010904//EN"
 "http://www.w3.org/TR/2001/REC-SVG-20010904/DTD/svg10.dtd">
<svg version="1.0" xmlns="http://www.w3.org/2000/svg"
 width="512.000000pt" height="512.000000pt" viewBox="0 0 512.000000 512.000000"
 preserveAspectRatio="xMidYMid meet">
<metadata>
Created by potrace 1.15, written by Peter Selinger 2001-2017
</metadata>
<g transform="translate(0.000000,512.000000) scale(0.100000,-0.100000)"
fill="#ffffff" stroke="none">
<path d="M2445 4887 c-93 -31 -163 -88 -225 -183 -74 -113 -95 -192 -95 -354
0 -122 3 -144 29 -223 31 -97 77 -174 151 -255 26 -29 46 -54 44 -55 -2 -2
-44 -11 -94 -21 -163 -32 -246 -87 -326 -215 -23 -36 -43 -68 -45 -69 -4 -6
-219 27 -352 54 -179 36 -314 78 -427 134 -129 62 -176 109 -183 178 -4 47 -2
52 37 95 104 113 378 204 786 263 94 13 176 24 183 24 8 0 12 18 12 55 0 65
19 61 -202 40 -667 -64 -1205 -211 -1394 -382 -138 -125 -107 -266 86 -385
218 -135 614 -241 1135 -304 l231 -28 -18 -81 c-34 -159 -68 -524 -68 -747 l0
-78 179 0 179 0 6 -77 c4 -43 9 -106 13 -141 l5 -63 -33 5 c-19 3 -72 8 -119
11 -196 15 -515 76 -685 131 -120 40 -247 108 -294 159 -35 38 -41 51 -41 88
0 37 6 51 40 89 68 78 260 161 483 208 l107 23 0 32 c0 18 3 47 7 65 l6 33
-69 -7 c-392 -39 -890 -178 -1074 -299 -318 -209 -158 -439 421 -606 292 -84
652 -140 1095 -172 l172 -12 7 -81 c3 -45 17 -222 30 -395 16 -218 27 -316 35
-321 75 -46 666 -46 740 0 10 6 20 112 39 402 l25 395 171 12 c780 56 1385
209 1592 404 85 80 103 149 62 234 -67 139 -386 285 -809 372 -122 25 -326 58
-412 67 l-67 7 6 -59 c3 -33 8 -62 12 -65 3 -4 53 -17 110 -29 216 -45 427
-139 485 -215 70 -91 36 -164 -117 -249 -162 -91 -485 -171 -827 -206 -58 -6
-125 -12 -148 -15 l-44 -5 6 58 c3 31 8 94 12 140 l6 82 171 0 170 0 -6 268
c-6 247 -22 439 -47 571 -5 30 -10 57 -10 61 0 4 48 13 108 19 534 60 937 155
1180 279 202 104 274 206 228 327 -86 223 -741 424 -1598 491 l-88 6 0 -54 0
-55 108 -12 c303 -33 621 -112 774 -193 77 -41 146 -110 154 -155 30 -160
-334 -313 -921 -387 -27 -3 -33 1 -64 56 -45 77 -124 154 -186 183 -50 24
-182 55 -229 55 -43 0 -39 18 19 88 186 223 216 540 74 788 -38 67 -126 149
-193 180 -66 30 -165 39 -221 21z"/>
<path d="M1830 1559 c-836 -75 -1417 -249 -1551 -466 -28 -45 -28 -116 0 -171
159 -311 1351 -541 2564 -493 680 26 1224 111 1592 248 187 69 339 171 378
255 100 213 -266 423 -953 547 -200 36 -491 71 -620 74 l-95 2 -3 -47 c-3 -46
-3 -47 30 -52 18 -2 113 -16 211 -31 434 -63 740 -187 778 -315 76 -252 -755
-458 -1756 -436 -490 10 -903 69 -1175 166 -218 77 -310 149 -310 243 0 135
326 276 793 342 100 14 197 28 215 31 29 5 33 8 28 27 -3 12 -6 37 -6 55 0 19
-5 31 -12 31 -7 -1 -56 -6 -108 -10z"/>
</g>
</svg>
