<?xml version="1.0" standalone="no"?>
<!DOCTYPE svg PUBLIC "-//W3C//DTD SVG 20010904//EN"
 "http://www.w3.org/TR/2001/REC-SVG-20010904/DTD/svg10.dtd">
<svg version="1.0" xmlns="http://www.w3.org/2000/svg"
 width="512.000000pt" height="512.000000pt" viewBox="0 0 512.000000 512.000000"
 preserveAspectRatio="xMidYMid meet">
<metadata>
Created by potrace 1.15, written by Peter Selinger 2001-2017
</metadata>
<g transform="translate(0.000000,512.000000) scale(0.100000,-0.100000)"
fill="#ffffff" stroke="none">
<path d="M2839 4800 c-381 -36 -731 -208 -1005 -492 -185 -193 -305 -413 -355
-653 -16 -76 -16 -273 0 -345 11 -49 17 -58 55 -82 24 -16 49 -28 56 -28 48 0
1360 289 1685 372 390 98 1020 289 1049 318 11 11 -31 134 -81 240 -73 154
-354 391 -622 525 -224 111 -533 169 -782 145z"/>
<path d="M4505 3774 c-175 -72 -570 -201 -880 -287 -330 -93 -727 -186 -1410
-332 -247 -53 -460 -99 -472 -102 l-22 -5 23 -36 c13 -21 29 -54 37 -74 l13
-38 131 0 c73 0 186 -3 253 -7 l121 -6 7 29 c23 96 103 192 198 239 48 23 71
28 131 28 63 0 83 -4 142 -33 77 -38 159 -115 218 -203 l38 -57 151 5 c606 23
977 45 1366 83 196 19 188 15 175 100 l-7 45 -166 -6 c-119 -4 -200 -13 -282
-30 -63 -13 -116 -23 -118 -22 -4 4 179 87 237 107 87 30 186 48 262 48 l69 0
0 39 c0 40 -28 273 -34 278 -1 2 -49 -21 -107 -50 -230 -117 -442 -169 -819
-201 -59 -5 -52 -2 68 29 270 70 516 165 712 274 84 47 105 63 103 79 -4 36
-52 132 -65 131 -7 0 -40 -12 -73 -25z"/>
<path d="M1265 3095 c-81 -85 -114 -241 -74 -346 14 -36 71 -61 155 -67 86 -5
161 14 230 60 42 29 49 38 52 70 7 81 -111 239 -218 293 -70 35 -105 33 -145
-10z"/>
<path d="M2549 2987 c-95 -64 -110 -183 -47 -358 49 -134 178 -288 284 -339
30 -14 69 -24 100 -24 l51 -1 26 -79 c15 -44 24 -82 21 -85 -3 -3 -45 -6 -92
-5 -102 1 -163 22 -257 89 -150 107 -281 302 -324 483 l-13 52 -87 0 c-48 0
-162 3 -252 6 l-164 7 -20 -38 c-10 -20 -34 -50 -53 -65 l-34 -28 57 -99 c31
-55 86 -139 121 -187 l64 -87 -30 -138 c-72 -328 -155 -516 -299 -673 l-50
-54 71 -110 c234 -361 470 -585 773 -734 182 -89 403 -152 611 -175 l60 -7 33
112 c97 331 242 541 509 738 l84 62 116 0 c453 1 673 118 709 375 l5 42 -98 6
c-55 4 -144 7 -198 7 l-99 0 7 53 c3 28 6 67 6 85 l0 34 196 -4 196 -3 -6 70
c-7 69 -30 239 -42 303 l-6 32 181 0 c160 0 181 2 181 16 0 39 -74 236 -117
309 -48 84 -116 177 -152 209 -21 19 -25 19 -229 2 -333 -27 -624 -44 -982
-57 -286 -10 -340 -14 -370 -29 l-35 -18 -53 91 c-101 173 -173 237 -267 237
-38 0 -62 -6 -86 -23z"/>
<path d="M1047 2573 c-31 -77 -268 -552 -333 -668 -129 -231 -266 -415 -373
-502 -31 -25 -56 -48 -56 -52 0 -3 56 -86 124 -184 l123 -179 59 152 c32 83
122 300 200 483 207 486 287 693 342 884 l15 51 -37 26 c-20 14 -40 26 -43 26
-3 0 -13 -17 -21 -37z"/>
<path d="M1282 2405 c-47 -154 -146 -406 -308 -785 -305 -717 -389 -963 -401
-1182 -8 -128 -4 -136 45 -103 113 75 417 148 706 171 l88 7 -6 36 c-52 300
-56 808 -10 1356 18 215 52 551 59 583 5 21 3 22 -68 22 l-73 0 -32 -105z"/>
</g>
</svg>
