<?xml version="1.0" standalone="no"?>
<!DOCTYPE svg PUBLIC "-//W3C//DTD SVG 20010904//EN"
 "http://www.w3.org/TR/2001/REC-SVG-20010904/DTD/svg10.dtd">
<svg version="1.0" xmlns="http://www.w3.org/2000/svg"
 width="512.000000pt" height="512.000000pt" viewBox="0 0 512.000000 512.000000"
 preserveAspectRatio="xMidYMid meet">
<metadata>
Created by potrace 1.15, written by Peter Selinger 2001-2017
</metadata>
<g transform="translate(0.000000,512.000000) scale(0.100000,-0.100000)"
fill="#ffffff" stroke="none">
<path d="M180 4682 l0 -257 236 -235 c285 -284 390 -404 500 -570 154 -231
248 -436 359 -782 96 -297 126 -381 167 -461 170 -329 653 -344 868 -27 42 62
74 146 85 225 15 104 42 128 177 157 118 25 197 67 273 143 161 162 199 395
99 603 -15 31 -54 81 -93 118 -90 89 -207 145 -489 234 -273 86 -398 135 -567
220 -325 164 -538 325 -860 649 l-240 241 -257 0 -258 0 0 -258z"/>
<path d="M3153 3183 c-7 -54 -21 -125 -33 -158 -55 -160 -188 -314 -333 -385
-76 -37 -179 -70 -217 -70 -12 0 -19 -16 -27 -57 -41 -217 -196 -408 -399
-493 -80 -33 -199 -60 -265 -60 -21 0 -39 -4 -39 -9 0 -21 106 -102 187 -144
96 -48 161 -72 384 -141 419 -130 733 -294 1079 -567 47 -37 276 -259 510
-493 l425 -426 257 0 258 0 0 258 0 257 -473 473 c-268 269 -503 513 -543 565
-224 289 -366 581 -509 1047 -61 200 -102 307 -148 385 -27 48 -84 115 -97
115 -3 0 -11 -44 -17 -97z"/>
</g>
</svg>
