<?xml version="1.0" standalone="no"?>
<!DOCTYPE svg PUBLIC "-//W3C//DTD SVG 20010904//EN"
 "http://www.w3.org/TR/2001/REC-SVG-20010904/DTD/svg10.dtd">
<svg version="1.0" xmlns="http://www.w3.org/2000/svg"
 width="512.000000pt" height="512.000000pt" viewBox="0 0 512.000000 512.000000"
 preserveAspectRatio="xMidYMid meet">
<metadata>
Created by potrace 1.15, written by Peter Selinger 2001-2017
</metadata>
<g transform="translate(0.000000,512.000000) scale(0.100000,-0.100000)"
fill="#ffffff" stroke="none">
<path d="M1924 4666 l-49 -154 -200 -88 -200 -89 -148 -145 -148 -145 151
-175 c124 -144 156 -176 180 -178 17 -2 126 6 244 17 l214 21 176 -40 c96 -22
179 -40 184 -40 4 0 76 74 160 165 119 129 152 171 152 193 0 72 -41 547 -48
553 -7 6 -607 259 -615 259 -2 0 -25 -69 -53 -154z"/>
<path d="M231 3736 c-102 -274 -1 -616 252 -853 93 -87 181 -147 288 -197 144
-67 209 -81 379 -80 129 1 154 4 225 27 82 27 195 92 195 112 0 7 -159 137
-352 291 -194 153 -438 346 -543 429 -104 83 -239 190 -300 238 -60 48 -113
87 -117 87 -3 0 -16 -24 -27 -54z"/>
<path d="M3673 3043 c-93 -31 -163 -60 -163 -67 0 -7 14 -52 30 -101 17 -49
30 -94 30 -99 0 -6 -57 -47 -125 -91 -115 -73 -281 -182 -675 -438 -80 -52
-424 -276 -765 -497 -341 -222 -640 -416 -664 -433 l-44 -30 69 -32 c82 -38
181 -111 219 -161 16 -20 33 -33 41 -30 14 5 248 156 884 569 212 138 421 274
465 302 44 29 223 145 398 259 175 113 320 206 322 206 2 0 84 -241 182 -536
98 -295 183 -538 188 -539 6 -2 49 -10 96 -19 107 -20 175 -47 267 -108 39
-26 72 -44 72 -40 0 24 -647 1942 -655 1941 -5 0 -83 -25 -172 -56z"/>
<path d="M1680 2608 c-57 -48 -164 -108 -237 -133 -37 -12 -68 -27 -68 -33 0
-6 141 -119 313 -251 275 -213 315 -240 332 -231 12 6 87 54 167 107 121 78
144 97 132 107 -42 31 -316 243 -425 328 -68 53 -136 105 -152 116 l-27 20
-35 -30z"/>
<path d="M2758 1597 c-87 -56 -158 -104 -158 -107 1 -3 71 -59 157 -125 86
-66 213 -164 282 -217 l126 -97 170 0 170 -1 54 61 c29 33 52 62 50 64 -27 26
-677 525 -684 524 -5 0 -81 -46 -167 -102z"/>
<path d="M975 1138 c-191 -36 -355 -203 -395 -403 -43 -213 73 -451 267 -549
389 -196 827 150 728 573 -63 268 -323 432 -600 379z m182 -323 c73 -31 113
-92 113 -175 0 -114 -79 -190 -198 -190 -96 0 -182 89 -182 188 0 139 139 230
267 177z"/>
<path d="M3945 1141 c-160 -35 -287 -134 -358 -280 -39 -82 -42 -92 -45 -192
-7 -174 40 -291 159 -403 53 -51 84 -70 151 -97 76 -30 92 -33 193 -33 95 0
119 4 178 27 203 79 327 257 327 471 0 226 -122 405 -327 482 -74 28 -207 40
-278 25z m180 -330 c68 -30 115 -104 115 -179 0 -31 -27 -92 -53 -120 -96
-104 -266 -71 -322 60 -64 155 104 310 260 239z"/>
<path d="M250 640 l0 -230 96 0 c88 0 96 2 89 18 -13 34 -35 165 -35 212 0 47
22 178 35 213 7 15 -1 17 -89 17 l-96 0 0 -230z"/>
<path d="M1738 818 c10 -35 15 -96 15 -178 0 -82 -5 -143 -15 -178 l-15 -52
838 0 c462 0 839 3 839 8 0 4 -7 32 -15 62 -20 72 -20 248 0 320 8 30 15 58
15 63 0 4 -377 7 -839 7 l-838 0 15 -52z"/>
<path d="M4690 863 c0 -5 7 -33 15 -63 9 -32 15 -99 15 -160 0 -61 -6 -128
-15 -160 -8 -30 -15 -58 -15 -62 0 -5 41 -8 90 -8 l90 0 0 230 0 230 -90 0
c-49 0 -90 -3 -90 -7z"/>
</g>
</svg>
