<?xml version="1.0" standalone="no"?>
<!DOCTYPE svg PUBLIC "-//W3C//DTD SVG 20010904//EN"
 "http://www.w3.org/TR/2001/REC-SVG-20010904/DTD/svg10.dtd">
<svg version="1.0" xmlns="http://www.w3.org/2000/svg"
 width="512.000000pt" height="512.000000pt" viewBox="0 0 512.000000 512.000000"
 preserveAspectRatio="xMidYMid meet">
<metadata>
Created by potrace 1.15, written by Peter Selinger 2001-2017
</metadata>
<g transform="translate(0.000000,512.000000) scale(0.100000,-0.100000)"
fill="#ffffff" stroke="none">
<path d="M2960 4939 c-111 -10 -217 -29 -331 -60 l-82 -22 8 -512 7 -511 -61
-19 c-64 -19 -80 -35 -35 -35 45 0 204 -41 278 -72 64 -27 83 -30 206 -33 156
-4 246 -25 349 -81 202 -111 302 -280 318 -539 24 -409 -238 -917 -651 -1260
-90 -74 -260 -187 -360 -237 -95 -48 -288 -113 -394 -134 -105 -21 -319 -20
-397 0 -227 61 -392 222 -451 441 -25 96 -29 264 -9 386 17 104 17 106 -5 169
-19 58 -43 193 -52 290 l-4 35 -28 -60 c-15 -33 -43 -104 -61 -158 -18 -54
-36 -101 -39 -104 -5 -5 -509 9 -802 23 l-130 6 -22 -98 c-45 -206 -75 -494
-51 -494 7 0 96 27 198 59 102 33 222 71 266 84 44 14 173 55 287 91 113 36
209 66 212 66 3 0 6 -45 6 -99 0 -102 17 -212 43 -289 l15 -44 -456 -225
c-252 -124 -467 -229 -479 -233 -20 -8 -21 -11 -8 -53 39 -129 182 -417 208
-417 11 0 55 38 352 300 122 107 281 248 354 313 l133 117 34 -43 c39 -49 121
-122 182 -160 23 -15 42 -30 42 -33 0 -3 -39 -53 -87 -112 -48 -59 -186 -228
-307 -377 -121 -148 -242 -297 -269 -329 l-49 -59 24 -18 c46 -36 226 -119
331 -155 60 -19 110 -34 112 -32 4 3 101 219 258 568 58 129 125 280 150 335
35 77 49 100 64 99 10 -1 61 -7 113 -14 60 -8 133 -10 198 -5 98 6 103 5 98
-12 -10 -34 -275 -988 -282 -1016 l-7 -29 79 7 c120 10 256 32 387 62 l117 26
0 31 c0 17 -13 247 -30 510 -16 264 -28 480 -27 481 1 1 43 16 92 34 89 33
227 98 309 146 l42 25 23 -88 c48 -186 222 -838 226 -850 6 -16 71 18 210 111
100 67 316 229 334 251 9 11 -47 82 -286 360 -164 191 -298 351 -298 355 0 5
39 43 87 85 48 42 127 121 175 176 48 55 91 100 96 100 7 0 58 -36 532 -374
l220 -157 28 33 c77 89 338 511 324 524 -3 3 -221 44 -484 92 l-480 87 65 124
c36 68 82 171 102 230 l38 106 368 6 c203 3 433 7 510 8 l142 1 5 28 c55 256
82 446 75 528 l-3 42 -105 -39 c-146 -54 -637 -231 -802 -290 l-138 -48 0 123
c0 68 -7 163 -15 211 -9 49 -12 92 -8 96 4 4 148 82 318 174 171 92 328 177
350 189 22 13 99 54 170 91 72 37 136 73 144 80 11 11 10 24 -9 82 -41 126
-174 383 -199 383 -5 0 -63 -51 -128 -112 -65 -62 -192 -183 -283 -268 -90
-85 -203 -192 -250 -236 -199 -190 -204 -195 -215 -177 -5 9 -37 50 -70 91
-51 64 -94 103 -207 184 -16 12 -5 28 115 163 536 610 640 730 641 743 2 23
-203 126 -329 167 -60 19 -116 35 -123 35 -10 0 -496 -956 -514 -1011 -3 -8
-29 -6 -88 6 -65 13 -115 16 -212 12 -71 -2 -128 -2 -128 1 0 3 45 145 101
316 173 533 239 738 239 742 0 5 -55 3 -170 -7z"/>
<path d="M1814 4527 c-133 -79 -421 -287 -440 -319 -3 -5 2 -20 11 -34 13 -21
388 -528 401 -543 2 -2 43 14 91 37 49 23 113 51 143 61 48 17 55 23 53 45 -3
40 -156 790 -163 799 -3 4 -46 -17 -96 -46z"/>
<path d="M758 3548 c-117 -158 -279 -430 -265 -444 3 -3 88 -26 189 -50 101
-24 277 -67 393 -94 116 -28 217 -53 225 -55 12 -4 19 13 33 73 10 42 31 111
48 152 25 62 28 76 16 85 -7 5 -58 47 -113 92 -303 250 -430 353 -436 353 -3
0 -44 -51 -90 -112z"/>
<path d="M2170 3551 c-304 -64 -551 -306 -630 -615 -24 -96 -27 -271 -5 -374
67 -319 300 -563 615 -643 174 -44 420 -20 571 56 235 119 398 328 455 581 22
101 15 309 -14 404 -75 248 -233 433 -460 537 -151 70 -357 91 -532 54z"/>
</g>
</svg>
