<?xml version="1.0" standalone="no"?>
<!DOCTYPE svg PUBLIC "-//W3C//DTD SVG 20010904//EN"
 "http://www.w3.org/TR/2001/REC-SVG-20010904/DTD/svg10.dtd">
<svg version="1.0" xmlns="http://www.w3.org/2000/svg"
 width="512.000000pt" height="512.000000pt" viewBox="0 0 512.000000 512.000000"
 preserveAspectRatio="xMidYMid meet">
<metadata>
Created by potrace 1.15, written by Peter Selinger 2001-2017
</metadata>
<g transform="translate(0.000000,512.000000) scale(0.100000,-0.100000)"
fill="#ffffff" stroke="none">
<path d="M1573 4895 c-327 -92 -529 -489 -458 -898 24 -135 74 -262 142 -355
18 -23 21 -33 11 -36 -231 -67 -370 -213 -483 -505 -103 -266 -165 -725 -165
-1223 l0 -158 215 0 c215 0 215 0 219 -22 5 -25 106 -1427 106 -1470 l0 -28
320 0 320 0 0 32 c0 35 -97 1392 -104 1451 l-4 37 104 0 c57 0 104 -3 104 -8
0 -4 25 -338 55 -742 30 -404 55 -745 55 -757 l0 -23 550 0 c517 0 550 1 550
18 0 55 99 1505 103 1508 2 3 49 3 103 2 l99 -3 -47 -715 c-26 -393 -47 -734
-47 -757 l-1 -43 320 0 320 0 0 25 c0 13 23 349 50 745 28 396 50 727 50 735
0 13 32 15 200 15 l200 0 0 268 c0 287 -11 493 -36 692 -67 537 -248 842 -551
926 l-62 17 31 44 c226 329 175 849 -108 1102 -97 86 -186 123 -325 137 -104
10 -192 -16 -297 -88 l-43 -30 63 -67 c117 -125 188 -286 207 -472 20 -205
-27 -405 -140 -580 -34 -53 -35 -59 -11 -59 37 -1 151 -49 210 -89 178 -120
289 -327 356 -661 42 -210 57 -388 63 -772 l6 -358 -105 0 -105 0 -6 358 c-3
223 -12 411 -22 502 -66 603 -247 927 -562 1010 l-61 16 39 59 c47 72 91 182
114 289 22 97 16 327 -10 421 -42 152 -114 275 -217 370 -115 108 -235 151
-395 143 -72 -4 -93 -10 -165 -46 -182 -90 -315 -281 -364 -521 -22 -113 -15
-312 16 -426 23 -87 75 -197 121 -260 26 -35 28 -40 12 -43 -10 -2 -43 -13
-73 -24 -313 -122 -490 -515 -550 -1223 -6 -71 -14 -241 -17 -377 l-6 -248
-100 0 -100 0 6 293 c12 605 87 991 246 1270 78 136 225 258 353 294 l56 16
-39 57 c-222 325 -190 803 71 1068 28 28 50 55 50 59 0 14 -108 75 -166 95
-75 25 -206 32 -271 13z"/>
</g>
</svg>
