<?xml version="1.0" standalone="no"?>
<!DOCTYPE svg PUBLIC "-//W3C//DTD SVG 20010904//EN"
 "http://www.w3.org/TR/2001/REC-SVG-20010904/DTD/svg10.dtd">
<svg version="1.0" xmlns="http://www.w3.org/2000/svg"
 width="512.000000pt" height="512.000000pt" viewBox="0 0 512.000000 512.000000"
 preserveAspectRatio="xMidYMid meet">
<metadata>
Created by potrace 1.15, written by Peter Selinger 2001-2017
</metadata>
<g transform="translate(0.000000,512.000000) scale(0.100000,-0.100000)"
fill="#ffffff" stroke="none">
<path d="M1945 4820 c-94 -47 -120 -170 -54 -254 44 -56 141 -76 205 -43 30
15 37 13 314 -89 156 -57 285 -106 288 -109 3 -2 -19 -70 -48 -150 -29 -80
-51 -147 -49 -149 2 -1 44 -17 92 -34 l88 -32 10 28 c24 66 33 88 39 95 4 4
101 -27 216 -69 115 -42 250 -91 299 -109 50 -18 313 -114 586 -213 l495 -180
260 50 c142 27 260 51 262 53 5 4 -318 408 -332 417 -10 6 -303 112 -1426 519
-90 33 -166 62 -168 63 -1 2 6 27 18 55 11 28 20 58 20 65 0 17 -168 83 -179
70 -4 -5 -27 -65 -51 -134 -24 -69 -47 -132 -51 -142 -8 -14 -23 -11 -141 33
-73 28 -204 76 -292 107 -146 53 -161 60 -182 93 -26 42 -94 79 -145 79 -19 0
-52 -9 -74 -20z m1671 -635 l570 -207 48 -60 c26 -33 45 -62 42 -65 -3 -3 -32
-11 -65 -18 l-60 -12 -618 224 c-340 124 -621 228 -626 232 -4 4 5 39 19 78
l26 72 47 -18 c25 -10 303 -111 617 -226z"/>
<path d="M1565 4116 c-37 -16 -82 -67 -91 -102 -11 -41 2 -124 23 -152 27 -37
88 -65 142 -66 40 -1 59 -10 146 -72 55 -39 170 -119 255 -179 85 -59 157
-109 159 -111 3 -3 -64 -103 -142 -211 l-38 -52 78 -55 c43 -30 81 -56 84 -56
3 0 23 25 43 55 24 36 41 53 49 48 11 -6 458 -317 587 -408 30 -21 114 -79
185 -130 321 -226 596 -416 607 -420 14 -6 531 -44 536 -41 1 2 -46 112 -105
244 l-106 242 -697 487 -697 488 39 58 c38 56 39 59 21 73 -40 31 -144 96
-147 93 -1 -2 -42 -59 -90 -127 -48 -68 -91 -122 -96 -120 -4 2 -120 82 -257
178 -240 168 -251 176 -256 212 -14 103 -135 167 -232 124z m1445 -1031 l525
-367 32 -74 32 -74 -42 0 c-79 1 -112 17 -302 150 -104 73 -217 152 -250 175
-292 204 -611 428 -617 434 -10 9 73 133 86 128 6 -3 247 -170 536 -372z"/>
<path d="M1034 3472 c-62 -30 -89 -74 -89 -149 0 -47 5 -68 21 -89 31 -43 67
-65 123 -78 49 -11 53 -14 225 -219 97 -115 176 -212 176 -216 0 -4 -52 -49
-115 -101 -63 -52 -115 -100 -115 -105 0 -12 110 -145 119 -145 4 0 28 18 55
40 26 22 50 40 51 40 5 0 171 -197 660 -780 224 -267 414 -493 423 -502 15
-15 511 -193 517 -186 8 9 -85 531 -96 545 -17 21 -676 808 -911 1087 l-167
199 49 39 c28 22 50 44 50 50 0 6 -17 31 -37 56 -21 25 -48 56 -59 71 l-22 26
-122 -104 c-66 -57 -123 -101 -124 -100 -2 2 -43 51 -92 109 -273 322 -284
336 -284 378 0 110 -130 183 -236 134z m902 -998 c93 -110 279 -332 414 -493
l245 -292 13 -71 c7 -38 11 -72 8 -75 -2 -3 -34 5 -70 17 l-65 21 -283 337
c-156 184 -345 409 -422 499 -76 90 -137 166 -135 167 33 31 116 95 120 93 4
-1 82 -92 175 -203z"/>
<path d="M350 3028 c-117 -59 -116 -241 1 -293 32 -15 42 -30 104 -163 38 -81
91 -194 117 -251 27 -57 46 -107 41 -112 -4 -4 -66 -34 -136 -67 -70 -33 -131
-62 -134 -65 -7 -7 68 -177 78 -177 4 0 32 12 64 26 31 15 60 22 64 18 4 -5
167 -351 361 -768 195 -417 359 -763 364 -768 29 -25 431 -287 434 -283 3 2
17 122 31 266 l27 262 -199 426 c-109 234 -211 453 -227 486 -15 33 -76 164
-135 290 -59 127 -118 254 -131 283 l-24 54 60 26 c33 15 60 33 60 40 0 7 -18
48 -40 92 l-40 79 -137 -65 c-76 -35 -142 -63 -146 -61 -5 1 -60 112 -122 246
-96 204 -113 247 -104 264 16 29 14 109 -4 143 -46 88 -138 117 -227 72z m796
-1515 c148 -319 269 -584 268 -589 -1 -5 -5 -39 -9 -76 l-6 -67 -61 39 -61 38
-273 587 c-151 322 -274 588 -274 591 0 8 124 63 135 60 5 -1 132 -264 281
-583z"/>
</g>
</svg>
