<?xml version="1.0" standalone="no"?>
<!DOCTYPE svg PUBLIC "-//W3C//DTD SVG 20010904//EN"
 "http://www.w3.org/TR/2001/REC-SVG-20010904/DTD/svg10.dtd">
<svg version="1.0" xmlns="http://www.w3.org/2000/svg"
 width="512.000000pt" height="512.000000pt" viewBox="0 0 512.000000 512.000000"
 preserveAspectRatio="xMidYMid meet">
<metadata>
Created by potrace 1.15, written by Peter Selinger 2001-2017
</metadata>
<g transform="translate(0.000000,512.000000) scale(0.100000,-0.100000)"
fill="#ffffff" stroke="none">
<path d="M2150 4899 c-85 -10 -235 -51 -292 -80 l-38 -19 0 -370 0 -370 63 0
c205 0 587 -52 700 -95 16 -7 17 18 17 438 l0 445 -47 17 c-59 20 -223 45
-283 44 -25 -1 -79 -5 -120 -10z"/>
<path d="M2875 4790 c-44 -12 -84 -25 -89 -30 -10 -10 -19 -809 -10 -845 4
-13 34 -33 92 -60 356 -166 540 -439 495 -735 l-8 -55 -85 -27 c-47 -16 -170
-49 -275 -74 -104 -26 -197 -50 -205 -54 -12 -6 -15 -28 -14 -111 1 -57 2
-115 3 -128 l1 -23 123 6 c165 9 467 34 558 46 41 5 80 10 87 10 9 0 12 206
12 996 l0 995 -62 29 c-118 54 -207 72 -383 76 -136 3 -172 1 -240 -16z"/>
<path d="M1238 4645 c-105 -21 -229 -64 -304 -104 l-69 -37 -3 -372 c-1 -205
0 -372 3 -372 4 0 26 15 51 34 57 44 217 126 309 159 79 28 270 72 358 83 l57
6 -2 297 -3 296 -55 12 c-74 15 -260 14 -342 -2z"/>
<path d="M3935 4623 c-63 -7 -148 -25 -171 -35 l-24 -11 0 -919 0 -920 28 6
c15 3 81 15 147 26 147 26 357 72 486 107 l97 25 6 287 c3 157 9 516 12 798
l6 511 -50 26 c-150 76 -378 118 -537 99z"/>
<path d="M1590 3873 c-94 -10 -262 -47 -347 -78 -278 -99 -424 -268 -441 -509
l-5 -79 26 7 c144 36 272 50 462 50 180 0 211 -3 315 -27 173 -39 325 -104
462 -194 l68 -46 82 7 c190 15 507 73 762 137 88 23 171 44 184 46 34 8 37 25
18 99 -68 278 -489 508 -1057 579 -112 14 -429 19 -529 8z"/>
<path d="M1104 3085 c-97 -13 -257 -48 -371 -81 l-54 -16 6 -56 c10 -86 62
-344 90 -442 103 -368 289 -719 509 -963 130 -144 168 -174 246 -197 212 -62
538 -100 864 -100 l188 0 -5 248 c-7 340 -45 556 -142 795 -180 447 -478 717
-885 802 -105 22 -323 27 -446 10z"/>
<path d="M2455 2854 c-44 -7 -95 -13 -112 -13 -18 -1 -33 -4 -33 -7 0 -3 30
-46 67 -95 l66 -89 151 2 c83 1 118 4 79 5 l-73 4 0 104 0 105 -32 -1 c-18 -1
-69 -8 -113 -15z"/>
<path d="M4415 2699 c-447 -123 -1071 -209 -1643 -226 -198 -5 -222 -8 -217
-22 4 -9 26 -66 50 -126 101 -252 146 -502 153 -852 l4 -242 57 4 c31 3 117
10 191 16 308 23 917 121 947 152 31 32 168 238 222 336 147 261 266 594 324
909 16 84 21 81 -88 51z"/>
<path d="M3959 1216 c-8 -7 -253 -55 -414 -80 -414 -66 -777 -91 -1173 -83
-430 9 -745 52 -971 132 -24 8 -47 15 -52 15 -5 0 -9 -178 -9 -399 l0 -399 84
-31 c622 -224 1778 -224 2480 2 l101 33 3 407 2 407 -23 0 c-13 0 -26 -2 -28
-4z"/>
</g>
</svg>
