<?xml version="1.0" standalone="no"?>
<!DOCTYPE svg PUBLIC "-//W3C//DTD SVG 20010904//EN"
 "http://www.w3.org/TR/2001/REC-SVG-20010904/DTD/svg10.dtd">
<svg version="1.0" xmlns="http://www.w3.org/2000/svg"
 width="512.000000pt" height="512.000000pt" viewBox="0 0 512.000000 512.000000"
 preserveAspectRatio="xMidYMid meet">
<metadata>
Created by potrace 1.15, written by Peter Selinger 2001-2017
</metadata>
<g transform="translate(0.000000,512.000000) scale(0.100000,-0.100000)"
fill="#ffffff" stroke="none">
<path d="M236 4893 c189 -350 484 -800 756 -1154 449 -584 881 -1056 1796
-1963 232 -230 422 -421 422 -425 -1 -11 -293 -216 -433 -303 -78 -48 -145
-92 -151 -98 -7 -7 33 -54 129 -150 77 -77 144 -140 150 -140 5 0 163 153 350
340 l341 341 74 -53 c351 -246 617 -517 912 -931 27 -37 51 -67 56 -67 10 0
287 278 282 283 -3 2 -34 23 -70 47 -293 197 -606 475 -782 695 -70 88 -198
275 -198 289 0 6 154 165 342 353 l341 342 -140 140 c-78 78 -145 141 -151
141 -6 0 -32 -39 -58 -87 -65 -122 -153 -258 -252 -391 -74 -100 -86 -111
-100 -100 -10 7 -168 162 -352 343 -1105 1089 -1767 1652 -2590 2202 -202 135
-694 433 -715 433 -4 0 15 -39 41 -87z m2380 -2184 c544 -544 991 -992 993
-995 3 -2 -22 -31 -54 -64 l-60 -60 -997 997 -998 998 57 57 c32 32 60 58 64
58 3 0 451 -446 995 -991z"/>
<path d="M4794 4912 c-618 -351 -1284 -831 -1928 -1391 l-179 -156 119 -112
119 -113 285 285 285 285 63 -62 62 -63 -282 -283 -283 -283 125 -119 c68 -65
128 -116 132 -114 18 12 356 397 521 594 325 389 586 750 834 1150 108 174
257 439 251 445 -2 3 -58 -26 -124 -63z"/>
<path d="M712 2447 c-78 -78 -142 -147 -142 -153 0 -5 153 -162 340 -349 l341
-338 -65 -98 c-167 -251 -402 -499 -668 -703 -92 -70 -304 -222 -323 -230 -9
-4 272 -285 287 -286 3 0 17 17 29 38 35 57 186 258 257 342 184 216 464 472
678 620 l70 49 340 -340 c186 -186 343 -339 349 -339 13 0 285 272 284 285 0
6 -59 46 -131 90 -119 72 -330 217 -418 287 l-35 28 265 265 265 265 -130 130
-130 130 -277 -277 -278 -278 -62 63 -63 62 280 280 279 279 -109 113 c-60 62
-117 122 -126 132 -18 20 -24 14 -289 -250 -149 -148 -275 -269 -279 -269 -24
0 -205 259 -312 447 -45 79 -83 144 -83 145 -1 1 -66 -62 -144 -140z"/>
</g>
</svg>
