<?xml version="1.0" standalone="no"?>
<!DOCTYPE svg PUBLIC "-//W3C//DTD SVG 20010904//EN"
 "http://www.w3.org/TR/2001/REC-SVG-20010904/DTD/svg10.dtd">
<svg version="1.0" xmlns="http://www.w3.org/2000/svg"
 width="512.000000pt" height="512.000000pt" viewBox="0 0 512.000000 512.000000"
 preserveAspectRatio="xMidYMid meet">
<metadata>
Created by potrace 1.15, written by Peter Selinger 2001-2017
</metadata>
<g transform="translate(0.000000,512.000000) scale(0.100000,-0.100000)"
fill="#ffffff" stroke="none">
<path d="M200 4789 c0 -138 2 -155 22 -188 34 -55 236 -382 378 -611 70 -113
168 -270 217 -350 138 -223 270 -435 338 -545 34 -55 143 -230 242 -390 99
-159 192 -310 207 -334 l28 -44 60 59 c33 33 64 66 69 76 9 16 -58 126 -737
1219 -60 97 -260 419 -444 717 -398 644 -380 625 -380 391z"/>
<path d="M830 4931 c0 -6 303 -503 674 -1105 371 -603 811 -1328 977 -1613
166 -285 303 -520 305 -522 4 -5 5 -4 176 124 73 55 152 113 176 129 24 16 45
33 48 38 4 6 -361 640 -569 987 l-50 83 -106 -113 -107 -113 -80 129 c-72 117
-216 350 -994 1614 l-225 366 -113 3 c-68 2 -112 -1 -112 -7z"/>
<path d="M1633 4926 c3 -7 262 -435 575 -950 314 -515 696 -1150 849 -1411
153 -261 282 -475 287 -475 15 0 416 261 416 271 0 10 -685 1167 -700 1183 -5
5 -56 -40 -117 -104 l-108 -112 -490 806 -490 806 -114 0 c-91 0 -112 -3 -108
-14z"/>
<path d="M2444 4925 c3 -8 225 -383 494 -833 269 -449 596 -997 726 -1217 131
-220 241 -404 245 -408 16 -16 391 279 391 308 0 6 -37 74 -83 150 -46 77
-213 358 -372 625 -158 267 -292 489 -297 495 -5 6 -50 -32 -117 -99 l-109
-109 -328 549 -329 549 -114 3 c-99 2 -113 1 -107 -13z"/>
<path d="M3217 4908 c11 -18 105 -170 210 -338 217 -348 383 -618 435 -705 19
-33 156 -262 303 -509 l268 -450 34 40 c55 63 178 252 223 341 l41 83 -212
357 c-250 422 -361 607 -364 611 -1 1 -66 -18 -145 -44 -97 -31 -145 -43 -152
-36 -6 6 -104 161 -217 344 l-207 333 -118 3 -118 3 19 -33z"/>
<path d="M3970 4930 c0 -5 93 -150 207 -322 113 -172 301 -472 417 -665 116
-194 214 -349 218 -345 14 14 68 239 88 367 22 141 37 295 46 493 l7 143 -29
-7 c-16 -4 -114 -36 -219 -71 -149 -49 -192 -60 -200 -50 -6 6 -79 114 -161
240 l-149 227 -112 0 c-67 0 -113 -4 -113 -10z"/>
<path d="M200 3326 l0 -178 83 -132 c46 -72 262 -410 479 -751 217 -341 502
-791 633 -1000 468 -746 550 -875 558 -877 13 -2 467 264 467 273 0 15 -152
250 -160 247 -4 -2 -58 -57 -120 -123 -62 -66 -115 -121 -119 -123 -8 -3 -756
1246 -756 1263 0 8 36 51 80 97 44 46 92 97 107 113 l27 30 -45 73 c-25 39
-49 72 -54 72 -5 0 -75 -38 -156 -85 -82 -46 -149 -83 -150 -82 0 1 -191 301
-424 667 -232 366 -429 672 -436 680 -12 12 -14 -12 -14 -164z"/>
<path d="M2025 2488 c-27 -29 -102 -111 -169 -181 -67 -71 -122 -132 -124
-136 -3 -8 530 -926 549 -945 5 -6 58 41 131 116 68 68 149 148 181 177 31 29
56 55 54 59 -35 69 -562 962 -567 962 -4 0 -29 -24 -55 -52z"/>
<path d="M1535 1969 c-32 -35 -54 -67 -51 -75 6 -15 555 -936 562 -944 9 -9
116 109 112 124 -5 21 -552 956 -559 956 -4 0 -32 -28 -64 -61z"/>
<path d="M1105 1139 c-209 -191 -506 -408 -798 -585 l-98 -59 7 -55 c7 -69 34
-132 71 -166 34 -32 119 -74 151 -74 16 0 59 32 130 98 230 210 463 399 695
561 64 46 117 87 117 92 0 9 -146 246 -164 266 -9 10 -34 -8 -111 -78z"/>
</g>
</svg>
