<?xml version="1.0" standalone="no"?>
<!DOCTYPE svg PUBLIC "-//W3C//DTD SVG 20010904//EN"
 "http://www.w3.org/TR/2001/REC-SVG-20010904/DTD/svg10.dtd">
<svg version="1.0" xmlns="http://www.w3.org/2000/svg"
 width="512.000000pt" height="512.000000pt" viewBox="0 0 512.000000 512.000000"
 preserveAspectRatio="xMidYMid meet">
<metadata>
Created by potrace 1.15, written by Peter Selinger 2001-2017
</metadata>
<g transform="translate(0.000000,512.000000) scale(0.100000,-0.100000)"
fill="#ffffff" stroke="none">
<path d="M1285 4339 c-200 -27 -386 -111 -527 -237 -50 -46 -132 -141 -126
-148 2 -2 95 26 207 62 243 76 342 97 476 97 113 0 194 -17 298 -65 52 -24 66
-35 62 -47 -63 -161 -89 -299 -89 -476 0 -187 23 -289 95 -432 l49 -98 -37
-115 c-20 -63 -38 -117 -40 -119 -6 -8 -114 84 -156 132 -133 156 -210 345
-243 600 -16 126 -28 149 -95 187 -61 34 -169 34 -249 0 -335 -145 -565 -463
-594 -825 -3 -38 -2 -88 2 -110 l7 -40 59 93 c163 259 314 437 451 531 78 54
177 104 231 115 l31 7 18 -93 c37 -192 115 -380 214 -510 62 -82 174 -187 243
-228 l55 -33 -1 -98 c-1 -73 -4 -99 -14 -99 -35 0 -184 69 -261 121 -105 69
-202 163 -295 282 -77 99 -104 117 -176 117 -95 0 -170 -63 -262 -218 -140
-237 -167 -535 -77 -862 27 -96 39 -109 39 -41 0 205 84 488 194 655 40 59
127 161 162 189 l23 18 73 -77 c168 -178 352 -291 553 -341 l63 -15 22 -69
c13 -38 35 -89 51 -114 16 -25 29 -50 29 -55 0 -15 -121 -12 -230 4 -108 17
-228 53 -341 102 -89 39 -121 42 -166 14 -69 -42 -100 -170 -89 -370 17 -318
146 -605 341 -762 32 -27 62 -48 66 -48 4 0 -12 42 -36 92 -116 250 -157 509
-121 758 10 63 21 119 25 123 5 5 45 -3 89 -17 131 -41 246 -59 382 -58 69 0
148 5 175 10 47 10 53 9 105 -23 30 -18 65 -36 78 -40 22 -6 21 -8 -17 -27
-49 -24 -97 -77 -125 -137 -24 -54 -29 -199 -8 -268 46 -153 200 -254 386
-252 117 1 127 7 72 46 -151 106 -202 340 -104 475 9 13 10 27 2 58 -6 22 -10
40 -9 40 1 0 46 -7 101 -15 54 -8 158 -15 229 -15 123 0 317 20 359 36 16 6
18 4 11 -12 -19 -46 -17 -76 10 -125 61 -112 37 -265 -61 -386 -19 -23 -50
-51 -70 -64 -31 -19 -34 -23 -19 -32 9 -5 63 -7 119 -5 88 3 110 8 168 35 117
55 186 146 209 277 26 152 -33 291 -148 347 -44 21 -45 23 -22 31 13 5 44 22
69 38 42 27 48 28 95 19 28 -6 106 -11 175 -11 137 0 252 17 382 58 44 14 84
22 89 17 4 -4 15 -60 25 -123 36 -249 -5 -508 -121 -757 -43 -92 -43 -93 -17
-79 43 22 119 93 167 156 129 168 208 395 221 640 11 200 -20 328 -89 370 -46
28 -76 25 -180 -19 -125 -53 -215 -79 -327 -96 -109 -17 -230 -20 -230 -5 0 5
13 30 29 55 16 25 39 76 51 114 l22 70 48 10 c196 42 397 164 568 345 l73 77
23 -18 c35 -28 122 -130 162 -189 110 -167 194 -450 194 -655 0 -68 12 -55 39
41 71 258 69 505 -6 714 -51 142 -167 307 -244 346 -46 24 -128 26 -168 5 -16
-8 -60 -54 -97 -102 -93 -119 -190 -213 -295 -282 -77 -52 -227 -121 -261
-121 -10 0 -13 26 -15 98 l-1 99 55 32 c70 42 182 147 244 229 99 130 177 318
214 510 l18 93 31 -7 c49 -10 148 -58 215 -103 142 -97 263 -233 425 -480
l101 -154 7 39 c4 22 5 68 2 104 -29 365 -257 685 -594 830 -80 34 -188 34
-249 0 -67 -38 -79 -61 -95 -187 -33 -255 -110 -444 -243 -600 -42 -48 -150
-140 -156 -132 -2 2 -20 56 -40 119 l-37 115 49 98 c72 143 95 245 95 432 0
177 -26 315 -89 476 -4 12 10 23 62 47 104 48 185 65 298 65 134 0 233 -21
476 -97 112 -36 205 -64 207 -62 6 7 -76 102 -126 148 -235 211 -585 294 -895
213 -138 -36 -204 -84 -228 -165 -12 -38 -10 -47 20 -118 92 -215 127 -377
118 -556 -5 -108 -34 -229 -70 -294 -13 -23 -14 -23 -56 32 -111 143 -271 260
-439 317 -94 32 -102 33 -252 33 -150 0 -158 -1 -252 -33 -168 -57 -328 -174
-439 -317 -42 -55 -43 -55 -56 -32 -36 65 -65 186 -70 294 -9 179 26 341 118
556 31 73 32 79 20 120 -26 85 -111 140 -270 173 -91 19 -242 26 -326 14z
m967 -1702 c75 -37 149 -117 177 -192 34 -90 27 -197 -19 -283 -38 -71 -77
-110 -153 -150 -47 -24 -62 -27 -152 -27 -89 0 -106 3 -150 27 -69 36 -133
102 -164 168 -35 74 -37 210 -4 282 25 54 90 128 140 159 92 57 228 63 325 16z
m911 0 c65 -32 140 -109 170 -175 33 -72 31 -207 -4 -282 -31 -66 -95 -132
-164 -168 -44 -24 -61 -27 -150 -27 -90 0 -105 3 -152 27 -76 40 -115 79 -153
150 -46 86 -53 193 -20 282 36 95 126 180 223 212 67 22 184 13 250 -19z"/>
<path d="M1960 2568 c-167 -90 -92 -350 97 -336 97 8 163 79 163 178 0 138
-139 222 -260 158z"/>
<path d="M2223 2225 c-84 -36 -64 -157 28 -171 28 -5 41 -1 67 21 81 68 3 192
-95 150z"/>
<path d="M2873 2571 c-26 -12 -52 -35 -70 -62 -59 -89 -25 -216 70 -260 125
-56 257 26 257 161 0 135 -132 217 -257 161z"/>
<path d="M3143 2233 c-34 -7 -63 -50 -63 -93 0 -53 48 -95 99 -86 65 10 101
81 70 138 -9 16 -71 52 -81 47 -2 -1 -13 -4 -25 -6z"/>
</g>
</svg>
