<?xml version="1.0" standalone="no"?>
<!DOCTYPE svg PUBLIC "-//W3C//DTD SVG 20010904//EN"
 "http://www.w3.org/TR/2001/REC-SVG-20010904/DTD/svg10.dtd">
<svg version="1.0" xmlns="http://www.w3.org/2000/svg"
 width="512.000000pt" height="512.000000pt" viewBox="0 0 512.000000 512.000000"
 preserveAspectRatio="xMidYMid meet">
<metadata>
Created by potrace 1.15, written by Peter Selinger 2001-2017
</metadata>
<g transform="translate(0.000000,512.000000) scale(0.100000,-0.100000)"
fill="#ffffff" stroke="none">
<path d="M815 4823 c-214 -58 -392 -107 -394 -109 -2 -2 -52 -183 -111 -401
l-107 -398 516 -517 c284 -285 521 -518 526 -518 6 0 127 32 270 70 143 39
262 70 266 70 3 0 11 -24 18 -54 6 -29 26 -75 42 -102 18 -28 361 -379 792
-811 547 -548 756 -763 740 -763 -11 0 -187 16 -389 35 -203 20 -434 42 -514
49 -80 8 -146 13 -148 11 -2 -1 85 -114 192 -251 l194 -249 -210 -89 c-166
-71 -208 -93 -205 -106 2 -10 24 -128 48 -263 l44 -247 97 0 c82 0 98 3 98 16
0 17 -58 349 -66 374 -3 12 31 31 143 78 82 34 155 64 164 67 11 4 72 -67 225
-264 l209 -270 123 -1 c67 0 122 3 122 6 0 4 -106 142 -235 308 -129 165 -235
303 -235 306 0 3 141 65 313 138 292 123 316 131 346 121 17 -6 66 -10 109 -8
275 13 419 298 262 519 l-20 29 154 416 c85 229 156 418 158 420 2 3 130 -7
284 -20 153 -14 289 -25 302 -25 22 0 23 2 20 98 l-3 97 -365 31 c-201 17
-367 29 -370 28 -3 -1 -64 -161 -135 -354 -72 -193 -131 -345 -133 -338 -10
52 -130 913 -128 915 2 2 86 21 187 43 101 22 279 61 394 86 116 26 287 63
380 83 l170 37 3 101 3 101 -38 -8 c-21 -5 -173 -38 -338 -74 -165 -36 -444
-97 -620 -136 -176 -38 -328 -70 -337 -70 -9 0 -19 -4 -22 -9 -3 -5 30 -257
74 -560 44 -304 80 -560 80 -569 0 -9 -318 300 -712 695 -778 778 -751 754
-883 769 -30 4 -55 7 -55 8 0 0 34 120 75 266 l74 265 -517 518 c-284 284
-521 516 -527 516 -5 -1 -185 -49 -400 -106z m787 -550 l437 -438 -75 -280
c-45 -164 -83 -287 -92 -296 -10 -9 -142 -49 -295 -89 l-278 -74 -438 438
-437 437 78 291 c43 160 79 292 80 293 2 0 75 20 163 43 88 23 214 58 280 76
66 19 125 35 130 35 6 1 207 -196 447 -436z m633 -1157 l36 -31 -99 -98 -99
-99 -37 43 c-48 56 -62 106 -42 153 37 88 159 104 241 32z m255 -251 l75 -75
-98 -98 -97 -97 -77 78 -78 77 95 95 c52 52 97 95 100 95 3 0 39 -34 80 -75z
m273 -467 l-98 -98 -77 77 -78 78 97 97 98 98 77 -77 78 -78 -97 -97z m317
-123 l75 -75 -98 -98 -97 -97 -77 78 -78 77 95 95 c52 52 97 95 100 95 3 0 39
-34 80 -75z m273 -467 l-98 -98 -77 77 -78 78 97 97 98 98 77 -77 78 -78 -97
-97z m307 -113 l65 -65 -98 -98 -97 -97 -67 68 -68 67 95 95 c52 52 97 95 100
95 3 0 35 -29 70 -65z m256 -267 c30 -57 9 -120 -53 -163 -57 -38 -123 -33
-176 13 -17 15 -12 22 80 114 93 94 98 97 116 80 10 -9 25 -29 33 -44z m-874
-306 l187 -17 -159 -68 c-88 -37 -163 -67 -168 -67 -4 0 -41 41 -80 90 l-71
90 52 -6 c29 -3 136 -13 239 -22z"/>
</g>
</svg>
