<?xml version="1.0" standalone="no"?>
<!DOCTYPE svg PUBLIC "-//W3C//DTD SVG 20010904//EN"
 "http://www.w3.org/TR/2001/REC-SVG-20010904/DTD/svg10.dtd">
<svg version="1.0" xmlns="http://www.w3.org/2000/svg"
 width="512.000000pt" height="512.000000pt" viewBox="0 0 512.000000 512.000000"
 preserveAspectRatio="xMidYMid meet">
<metadata>
Created by potrace 1.15, written by Peter Selinger 2001-2017
</metadata>
<g transform="translate(0.000000,512.000000) scale(0.100000,-0.100000)"
fill="#ffffff" stroke="none">
<path d="M2255 4945 c-536 -70 -1021 -309 -1398 -688 -378 -379 -608 -844
-682 -1376 -21 -152 -21 -467 0 -626 70 -535 305 -1013 685 -1395 387 -389
886 -629 1435 -690 118 -13 416 -13 530 1 944 109 1725 744 2020 1644 88 265
121 504 112 809 -11 377 -86 684 -249 1011 -361 724 -1050 1210 -1858 1311
-140 17 -457 17 -595 -1z m454 -600 c338 -18 716 -173 1001 -410 342 -286 559
-679 626 -1135 24 -166 15 -452 -19 -605 -134 -598 -522 -1063 -1082 -1295
-401 -165 -865 -176 -1277 -30 -517 184 -926 601 -1098 1119 -94 283 -119 599
-69 886 82 477 376 919 791 1189 176 115 404 208 623 255 93 20 318 41 375 35
14 -2 72 -6 129 -9z"/>
<path d="M1641 3730 c-45 -21 -87 -54 -141 -108 -95 -95 -140 -176 -140 -254
l0 -52 377 -378 378 -378 -378 -378 -377 -378 0 -55 c0 -78 45 -162 135 -253
90 -91 175 -136 254 -136 l55 0 378 377 378 378 378 -378 378 -377 53 0 c80 0
172 52 264 150 88 93 127 168 127 242 l0 52 -377 378 -378 378 378 378 377
378 0 50 c0 80 -46 164 -143 259 -98 96 -170 135 -249 135 l-52 0 -378 -377
-378 -378 -378 378 -378 377 -49 0 c-35 0 -70 -9 -114 -30z"/>
</g>
</svg>
