<?xml version="1.0" standalone="no"?>
<!DOCTYPE svg PUBLIC "-//W3C//DTD SVG 20010904//EN"
 "http://www.w3.org/TR/2001/REC-SVG-20010904/DTD/svg10.dtd">
<svg version="1.0" xmlns="http://www.w3.org/2000/svg"
 width="512.000000pt" height="512.000000pt" viewBox="0 0 512.000000 512.000000"
 preserveAspectRatio="xMidYMid meet">
<metadata>
Created by potrace 1.15, written by Peter Selinger 2001-2017
</metadata>
<g transform="translate(0.000000,512.000000) scale(0.100000,-0.100000)"
fill="#ffffff" stroke="none">
<path d="M435 4535 c-93 -32 -174 -168 -162 -271 10 -96 -14 -78 652 -474 837
-497 1469 -870 1475 -870 3 0 32 53 63 117 46 92 56 118 45 124 -8 4 -142 99
-299 210 -295 210 -406 288 -749 531 -113 80 -356 252 -540 383 -184 131 -349
244 -367 251 -40 17 -67 17 -118 -1z m169 -216 c33 -26 35 -73 4 -106 -45 -48
-122 -16 -122 52 0 67 64 96 118 54z m239 -151 c37 -44 4 -118 -55 -118 -31 0
-78 39 -78 64 0 75 85 111 133 54z"/>
<path d="M2646 3028 c-8 -18 -48 -104 -90 -191 -42 -87 -76 -159 -76 -161 0
-7 410 -280 414 -275 2 2 9 81 15 174 6 94 14 202 18 241 l6 72 -132 86 c-72
47 -133 86 -136 86 -3 0 -11 -15 -19 -32z"/>
<path d="M1202 2757 c-39 -310 -213 -611 -477 -827 -70 -57 -233 -170 -245
-170 -3 0 -11 -26 -18 -58 -31 -151 -44 -283 -49 -519 l-6 -253 1382 0 c759 0
1381 3 1381 8 0 4 7 106 15 227 8 121 24 398 35 615 27 519 59 904 86 1043 l6
27 -106 0 -105 0 -5 -42 c-3 -24 -20 -191 -36 -373 -17 -181 -32 -333 -33
-337 -1 -3 -47 26 -102 66 -103 75 -235 165 -507 349 l-156 105 49 104 c27 56
49 109 49 115 0 10 -120 13 -573 13 l-573 0 -12 -93z"/>
<path d="M3582 2841 c-70 -18 -114 -87 -131 -207 -10 -63 -26 -313 -81 -1229
-11 -181 -22 -363 -26 -403 l-6 -72 451 0 452 0 -6 48 c-3 26 -30 373 -61 771
-30 399 -61 758 -69 798 -25 132 -80 227 -154 271 -44 26 -53 27 -191 29 -80
1 -160 -2 -178 -6z"/>
<path d="M4330 1954 c0 -5 7 -88 15 -184 8 -96 15 -182 15 -191 0 -16 86 -48
228 -84 149 -38 271 -28 333 25 l34 30 -25 21 c-28 24 -567 379 -587 386 -7 3
-13 1 -13 -3z"/>
<path d="M170 665 l0 -95 2165 0 2165 0 0 95 0 95 -2165 0 -2165 0 0 -95z"/>
</g>
</svg>
