<?xml version="1.0" standalone="no"?>
<!DOCTYPE svg PUBLIC "-//W3C//DTD SVG 20010904//EN"
 "http://www.w3.org/TR/2001/REC-SVG-20010904/DTD/svg10.dtd">
<svg version="1.0" xmlns="http://www.w3.org/2000/svg"
 width="512.000000pt" height="512.000000pt" viewBox="0 0 512.000000 512.000000"
 preserveAspectRatio="xMidYMid meet">
<metadata>
Created by potrace 1.15, written by Peter Selinger 2001-2017
</metadata>
<g transform="translate(0.000000,512.000000) scale(0.100000,-0.100000)"
fill="#ffffff" stroke="none">
<path d="M2512 4919 c-5 -13 -125 -412 -268 -886 l-259 -861 -42 126 c-22 70
-118 363 -213 652 -94 289 -174 528 -178 532 -4 4 -119 -398 -257 -893 -137
-494 -252 -899 -255 -899 -3 0 -77 191 -165 425 -88 234 -162 425 -165 425 -3
0 -83 -316 -179 -703 -142 -574 -179 -709 -201 -742 -87 -127 -134 -270 -135
-405 0 -105 11 -190 26 -190 5 0 9 4 9 10 0 30 50 133 101 209 197 295 631
548 1179 685 668 168 1448 162 2105 -15 615 -167 1065 -474 1201 -819 15 -39
30 -70 35 -70 4 0 13 38 20 85 25 168 -20 340 -131 505 -35 52 -47 96 -210
753 -95 385 -175 695 -180 690 -6 -7 -45 -108 -235 -615 l-51 -137 -24 87
c-13 48 -65 233 -115 412 -51 179 -148 524 -216 767 -68 243 -127 439 -131
435 -4 -4 -111 -329 -239 -722 -127 -393 -233 -717 -235 -719 -1 -1 -14 35
-28 80 -14 46 -143 473 -286 948 -143 476 -263 867 -265 869 -2 3 -8 -6 -13
-19z m76 -1499 c88 -40 154 -148 172 -282 37 -266 -157 -497 -335 -400 -39 21
-94 88 -121 145 -75 165 -45 376 68 489 69 69 136 84 216 48z m-947 -282 c137
-106 140 -373 6 -482 -32 -26 -48 -31 -91 -31 -66 0 -109 30 -151 106 -28 51
-30 61 -30 164 0 94 3 116 22 151 64 121 160 156 244 92z m2020 -1 c53 -40 87
-104 102 -191 10 -57 9 -77 -6 -134 -19 -72 -55 -133 -100 -166 -44 -32 -123
-29 -170 6 -56 43 -91 126 -95 223 -4 95 7 146 47 205 61 92 148 114 222 57z
m-2898 -428 c91 -47 131 -175 92 -291 -18 -51 -66 -105 -102 -114 -100 -25
-193 122 -163 259 14 66 52 125 93 142 40 17 52 18 80 4z m3610 0 c44 -23 78
-64 92 -113 31 -104 10 -201 -57 -262 -36 -32 -45 -36 -80 -31 -158 21 -184
337 -34 403 38 16 52 17 79 3z"/>
<path d="M1135 1080 c-33 -6 -96 -22 -140 -36 -81 -27 -225 -93 -225 -103 0
-14 142 -167 210 -227 158 -138 325 -215 516 -236 124 -14 272 3 435 51 124
36 302 104 306 117 1 5 -39 41 -90 80 -231 179 -461 297 -662 340 -87 19 -271
26 -350 14z"/>
<path d="M3760 1085 c-8 -2 -49 -9 -90 -15 -194 -32 -437 -151 -664 -325 -124
-95 -122 -93 -111 -104 16 -15 191 -80 317 -116 393 -114 696 -42 989 237 63
60 164 176 158 182 -13 12 -135 67 -197 90 -121 43 -315 68 -402 51z"/>
</g>
</svg>
