<?xml version="1.0" standalone="no"?>
<!DOCTYPE svg PUBLIC "-//W3C//DTD SVG 20010904//EN"
 "http://www.w3.org/TR/2001/REC-SVG-20010904/DTD/svg10.dtd">
<svg version="1.0" xmlns="http://www.w3.org/2000/svg"
 width="512.000000pt" height="512.000000pt" viewBox="0 0 512.000000 512.000000"
 preserveAspectRatio="xMidYMid meet">
<metadata>
Created by potrace 1.15, written by Peter Selinger 2001-2017
</metadata>
<g transform="translate(0.000000,512.000000) scale(0.100000,-0.100000)"
fill="#ffffff" stroke="none">
<path d="M3196 4864 c19 -65 82 -210 117 -269 139 -238 354 -416 570 -471 96
-25 295 -25 386 0 301 82 575 379 686 744 l13 42 -893 0 -893 0 14 -46z"/>
<path d="M4875 4353 c-49 -68 -187 -200 -263 -252 -259 -175 -574 -219 -842
-118 -166 62 -262 127 -406 272 l-112 113 -168 -29 c-230 -40 -460 -85 -574
-114 -100 -25 -331 -99 -362 -116 -20 -11 -73 -119 -195 -394 -127 -288 -298
-726 -291 -746 2 -7 79 -38 172 -70 194 -67 388 -160 531 -253 67 -43 102 -61
106 -53 4 7 23 69 44 138 l37 126 81 -17 82 -16 -2 -50 c-1 -27 -9 -148 -18
-269 -8 -121 -20 -308 -26 -415 -14 -277 -23 -1272 -14 -1613 l7 -287 1134 0
1134 0 0 2110 c0 1161 -3 2110 -7 2110 -5 -1 -26 -26 -48 -57z"/>
<path d="M806 3277 c-8 -28 -31 -78 -51 -111 -19 -32 -35 -61 -35 -63 0 -3 22
-30 50 -60 73 -83 160 -264 160 -337 0 -43 15 -51 48 -27 50 35 102 52 158 52
30 0 54 2 54 4 0 2 -14 43 -31 92 -58 163 -128 286 -235 408 -92 105 -99 108
-118 42z"/>
<path d="M1453 2773 c-14 -32 -34 -78 -44 -102 l-20 -44 88 7 c48 3 179 9 291
13 111 3 202 9 202 13 0 12 -451 170 -487 170 -2 0 -16 -26 -30 -57z"/>
<path d="M1075 2537 l-27 -23 26 -64 c30 -73 106 -210 117 -210 7 0 12 25 24
111 9 58 -10 150 -36 183 -26 33 -69 34 -104 3z"/>
<path d="M1571 2469 c-62 -4 -128 -10 -146 -13 -33 -7 -33 -7 -37 -74 -2 -37
-2 -70 0 -74 2 -5 40 -8 85 -8 236 -1 593 -55 855 -130 56 -17 106 -30 111
-30 8 0 41 147 41 185 0 20 -48 66 -132 128 l-38 27 -312 -1 c-172 -1 -364 -5
-427 -10z"/>
<path d="M936 2288 c-3 -13 -6 -55 -6 -93 0 -96 30 -159 78 -163 32 -3 82 19
82 37 0 5 -21 39 -46 77 -25 38 -57 90 -70 116 -13 26 -26 48 -28 48 -2 0 -6
-10 -10 -22z"/>
<path d="M1306 2071 l-30 -61 23 -18 c131 -96 465 -276 659 -353 102 -41 324
-120 327 -117 12 15 127 440 120 446 -2 2 -41 15 -87 28 -254 75 -538 121
-818 131 l-165 6 -29 -62z"/>
<path d="M745 1998 c-59 -44 -225 -152 -344 -225 -59 -36 -98 -65 -90 -68 90
-32 291 -34 397 -5 84 23 165 62 236 114 l50 35 -28 11 c-15 5 -31 10 -35 10
-22 0 -94 66 -119 109 l-28 49 -39 -30z"/>
<path d="M1140 1760 c-13 -60 -22 -111 -19 -113 43 -35 254 -159 339 -199 194
-92 387 -154 686 -223 18 -4 25 5 48 60 16 35 25 68 22 74 -4 5 -31 17 -62 26
-66 19 -335 127 -454 182 -125 58 -301 157 -418 234 -57 38 -106 69 -110 69
-4 0 -18 -49 -32 -110z"/>
<path d="M1186 1381 c-35 -123 -256 -1148 -256 -1188 0 -2 182 -3 405 -3 l404
0 14 47 c8 27 69 227 136 447 67 219 121 399 119 400 -2 1 -37 10 -78 20 -175
42 -416 130 -577 211 -132 67 -163 79 -167 66z"/>
</g>
</svg>
