<?xml version="1.0" standalone="no"?>
<!DOCTYPE svg PUBLIC "-//W3C//DTD SVG 20010904//EN"
 "http://www.w3.org/TR/2001/REC-SVG-20010904/DTD/svg10.dtd">
<svg version="1.0" xmlns="http://www.w3.org/2000/svg"
 width="512.000000pt" height="512.000000pt" viewBox="0 0 512.000000 512.000000"
 preserveAspectRatio="xMidYMid meet">
<metadata>
Created by potrace 1.15, written by Peter Selinger 2001-2017
</metadata>
<g transform="translate(0.000000,512.000000) scale(0.100000,-0.100000)"
fill="#ffffff" stroke="none">
<path d="M3068 4891 c-91 -33 -145 -68 -200 -130 -68 -77 -86 -133 -118 -364
-24 -168 -43 -243 -80 -318 -36 -70 -113 -163 -168 -204 -23 -16 -42 -33 -42
-37 0 -4 55 -7 123 -7 203 1 376 -40 561 -132 47 -23 89 -39 93 -35 13 13 16
237 3 314 -7 42 -37 160 -67 262 -76 259 -86 303 -86 405 -1 76 3 99 25 146
14 30 40 72 58 92 l32 37 -28 -1 c-16 0 -64 -13 -106 -28z"/>
<path d="M1331 4626 c-70 -116 -100 -240 -81 -336 15 -81 52 -148 155 -285
181 -241 210 -311 209 -503 l-1 -122 86 85 c163 161 315 254 518 315 48 14 71
26 66 33 -3 7 -29 41 -57 76 -81 100 -199 183 -451 316 -289 152 -384 251
-403 415 l-7 61 -34 -55z"/>
<path d="M4293 3919 c-82 -14 -150 -51 -304 -166 -229 -171 -329 -210 -515
-199 l-101 6 91 -93 c143 -144 249 -320 307 -507 13 -41 24 -77 25 -78 6 -10
97 64 155 126 73 76 139 178 248 381 161 299 252 389 413 407 32 4 55 10 53
14 -11 17 -133 79 -185 93 -79 22 -128 26 -187 16z"/>
<path d="M2405 3644 c-148 -24 -336 -102 -449 -186 -25 -18 -45 -37 -46 -42 0
-4 39 -82 86 -173 47 -90 84 -166 82 -168 -2 -2 -88 23 -191 57 -219 70 -189
79 -267 -77 -84 -168 -123 -378 -106 -567 l8 -76 136 -6 c75 -4 174 -10 218
-14 l82 -7 -134 -120 c-74 -66 -149 -132 -166 -146 l-32 -26 47 -74 c113 -180
274 -322 462 -407 114 -51 98 -61 229 142 64 99 117 181 119 183 2 2 23 -91
47 -207 l44 -210 67 0 c208 0 472 104 643 253 l39 34 -92 178 c-51 97 -90 179
-88 181 2 2 84 -23 182 -56 99 -33 180 -60 181 -60 8 0 49 86 78 164 45 119
66 240 66 375 0 93 -14 229 -25 239 -2 2 -81 8 -176 13 -94 4 -174 10 -176 13
-2 2 55 56 126 121 78 70 128 122 124 128 -82 143 -220 294 -341 371 -77 50
-185 106 -204 106 -7 0 -67 -85 -133 -190 -66 -104 -123 -189 -126 -190 -3 0
-20 73 -38 163 -18 89 -40 192 -48 230 l-15 67 -67 -1 c-36 -1 -102 -7 -146
-15z"/>
<path d="M1195 3245 c-87 -16 -176 -39 -380 -100 -151 -45 -167 -48 -280 -49
-133 -1 -163 9 -253 82 l-43 35 7 -29 c18 -77 58 -181 89 -229 72 -113 171
-163 375 -190 157 -21 226 -33 285 -52 111 -34 233 -121 300 -212 17 -22 32
-41 35 -41 3 0 5 57 6 128 0 204 41 377 131 556 24 48 42 91 39 94 -23 22
-207 27 -311 7z"/>
<path d="M3828 2612 c6 -200 -47 -429 -139 -601 -22 -40 -38 -75 -36 -77 1 -2
36 -8 77 -15 103 -16 241 1 422 52 349 98 400 110 482 110 102 0 162 -18 231
-70 30 -23 55 -37 55 -32 0 26 -46 154 -77 214 -74 142 -180 193 -463 227
-225 26 -352 82 -471 207 -38 40 -69 78 -69 83 0 6 -3 10 -7 10 -5 0 -7 -48
-5 -108z"/>
<path d="M1317 2259 c-103 -68 -203 -201 -337 -449 -175 -325 -254 -406 -425
-435 l-70 -12 109 -54 109 -54 107 0 c104 0 109 1 181 38 41 21 126 78 189
128 203 158 321 204 508 197 56 -2 102 -3 102 -3 0 0 -43 44 -95 97 -141 144
-235 298 -296 481 -17 50 -32 93 -33 94 -2 2 -23 -11 -49 -28z"/>
<path d="M3455 1702 c-151 -148 -300 -240 -487 -299 -48 -15 -88 -31 -88 -34
0 -4 20 -34 45 -68 75 -102 211 -199 480 -341 267 -142 385 -269 385 -415 0
-25 4 -45 10 -45 14 0 85 145 105 215 25 83 16 186 -23 268 -16 34 -72 120
-126 190 -174 229 -211 323 -204 514 2 62 4 113 4 113 -1 0 -46 -45 -101 -98z"/>
<path d="M1922 1492 c-4 -15 -7 -83 -7 -152 1 -142 9 -184 89 -455 30 -99 59
-215 66 -258 23 -143 -2 -255 -75 -336 -45 -49 -33 -53 66 -20 94 31 156 65
211 117 83 78 107 143 142 388 14 97 35 203 50 244 38 110 106 203 211 288
l40 32 -120 0 c-211 0 -385 40 -568 130 l-97 48 -8 -26z"/>
</g>
</svg>
