<?xml version="1.0" standalone="no"?>
<!DOCTYPE svg PUBLIC "-//W3C//DTD SVG 20010904//EN"
 "http://www.w3.org/TR/2001/REC-SVG-20010904/DTD/svg10.dtd">
<svg version="1.0" xmlns="http://www.w3.org/2000/svg"
 width="512.000000pt" height="512.000000pt" viewBox="0 0 512.000000 512.000000"
 preserveAspectRatio="xMidYMid meet">
<metadata>
Created by potrace 1.15, written by Peter Selinger 2001-2017
</metadata>
<g transform="translate(0.000000,512.000000) scale(0.100000,-0.100000)"
fill="#ffffff" stroke="none">
<path d="M286 4838 c248 -257 366 -478 431 -803 15 -74 18 -138 17 -365 0
-259 -3 -296 -42 -620 -23 -190 -47 -424 -53 -520 -43 -678 134 -1196 560
-1634 318 -326 745 -533 1261 -611 230 -34 605 -29 860 11 604 96 1045 426
1315 987 170 352 245 757 215 1162 -44 600 -269 1114 -652 1491 -234 231 -497
391 -818 497 -123 41 -320 91 -320 81 0 -2 33 -25 73 -51 243 -155 451 -346
562 -514 207 -315 218 -621 28 -820 -72 -76 -150 -112 -256 -117 -91 -5 -144
7 -244 53 -122 56 -205 152 -234 270 -9 34 -13 157 -13 385 -1 376 -5 404 -76
555 -66 141 -182 272 -333 373 -79 54 -137 86 -137 76 0 -3 14 -37 30 -75 115
-262 84 -467 -82 -539 -76 -34 -197 -33 -290 2 -194 73 -334 217 -394 408 -13
41 -26 102 -30 135 l-6 60 -20 -25 c-34 -40 -77 -141 -89 -205 -15 -82 -4
-181 32 -289 57 -172 163 -344 433 -705 310 -414 412 -626 423 -876 15 -320
-124 -538 -353 -553 -141 -9 -259 40 -370 153 -110 111 -180 256 -204 424 -18
119 -8 332 21 456 19 83 23 127 22 260 0 205 -23 301 -117 490 -81 162 -166
276 -320 430 -145 144 -263 240 -452 367 -131 89 -401 248 -420 248 -5 0 14
-24 42 -52z m4131 -1673 c138 -314 196 -587 197 -925 1 -268 -36 -482 -121
-710 -172 -462 -473 -771 -898 -925 -509 -184 -1136 -148 -1652 95 -223 105
-414 241 -573 406 -91 95 -189 214 -176 214 3 0 31 -15 63 -34 278 -160 549
-274 814 -341 402 -101 755 -83 1029 52 78 39 110 62 181 133 93 92 126 145
167 260 23 67 26 90 26 210 0 116 -3 149 -27 234 -15 54 -49 144 -76 200 -48
98 -148 262 -156 254 -2 -2 1 -37 6 -78 19 -146 -12 -316 -81 -449 -89 -172
-251 -312 -461 -400 -40 -17 -74 -29 -75 -28 -2 1 12 18 29 37 157 169 233
382 244 685 12 333 -78 755 -246 1160 -16 40 -17 45 -3 25 370 -527 786 -820
1165 -820 161 0 268 41 374 142 72 70 132 181 159 293 30 125 22 320 -21 510
-10 44 58 -78 112 -200z m-3343 -77 c-4 -46 -1 -138 5 -204 20 -223 68 -407
151 -580 223 -464 647 -744 1128 -744 130 0 129 1 19 -59 -181 -98 -336 -136
-522 -128 -248 10 -436 92 -622 270 -232 222 -353 533 -340 877 5 149 23 249
68 384 27 82 107 266 116 266 1 0 0 -37 -3 -82z"/>
<path d="M3893 2226 c-163 -53 -271 -227 -244 -393 48 -298 406 -414 611 -197
75 79 94 129 95 244 0 82 -3 102 -26 150 -37 78 -88 131 -160 170 -53 28 -74
33 -148 36 -55 3 -101 -1 -128 -10z"/>
<path d="M3726 1336 c-73 -27 -135 -111 -136 -182 0 -75 49 -156 114 -185 103
-47 221 -4 267 96 25 54 23 110 -5 172 -41 86 -150 132 -240 99z"/>
</g>
</svg>
