<?xml version="1.0" standalone="no"?>
<!DOCTYPE svg PUBLIC "-//W3C//DTD SVG 20010904//EN"
 "http://www.w3.org/TR/2001/REC-SVG-20010904/DTD/svg10.dtd">
<svg version="1.0" xmlns="http://www.w3.org/2000/svg"
 width="512.000000pt" height="512.000000pt" viewBox="0 0 512.000000 512.000000"
 preserveAspectRatio="xMidYMid meet">
<metadata>
Created by potrace 1.15, written by Peter Selinger 2001-2017
</metadata>
<g transform="translate(0.000000,512.000000) scale(0.100000,-0.100000)"
fill="#ffffff" stroke="none">
<path d="M2170 2560 c0 -1535 3 -2280 10 -2280 7 0 989 293 1393 416 16 5 17
103 17 1864 0 1761 -1 1859 -17 1864 -404 123 -1386 416 -1393 416 -7 0 -10
-745 -10 -2280z m315 209 c44 -39 65 -106 65 -206 0 -104 -16 -158 -60 -204
-20 -22 -43 -39 -50 -39 -24 0 -88 75 -100 118 -15 58 -15 187 0 242 12 43 75
120 98 120 6 0 27 -14 47 -31z"/>
<path d="M1190 3770 l0 -800 90 0 90 0 0 710 0 710 310 0 310 0 0 90 0 90
-400 0 -400 0 0 -800z"/>
<path d="M3764 4554 c3 -9 6 -81 6 -160 l0 -144 80 0 80 0 0 160 0 160 -86 0
c-74 0 -85 -2 -80 -16z"/>
<path d="M3770 3990 l0 -80 80 0 80 0 0 80 0 80 -80 0 -80 0 0 -80z"/>
<path d="M3770 2550 l0 -1180 80 0 80 0 0 1180 0 1180 -80 0 -80 0 0 -1180z"/>
<path d="M710 2855 l-295 -295 298 -298 297 -297 0 183 0 182 480 0 480 0 0
230 0 230 -480 0 -480 0 -2 180 -3 180 -295 -295z"/>
<path d="M1190 1395 l0 -755 90 0 90 0 0 755 0 755 -90 0 -90 0 0 -755z"/>
<path d="M3770 1120 l0 -70 80 0 80 0 0 70 0 70 -80 0 -80 0 0 -70z"/>
<path d="M3770 755 l0 -115 80 0 80 0 0 115 0 115 -80 0 -80 0 0 -115z"/>
<path d="M320 320 l0 -90 835 0 835 0 0 90 0 90 -835 0 -835 0 0 -90z"/>
<path d="M2905 320 l-290 -89 1093 0 1092 -1 0 90 0 90 -802 -1 -803 -1 -290
-88z"/>
</g>
</svg>
