<?xml version="1.0" standalone="no"?>
<!DOCTYPE svg PUBLIC "-//W3C//DTD SVG 20010904//EN"
 "http://www.w3.org/TR/2001/REC-SVG-20010904/DTD/svg10.dtd">
<svg version="1.0" xmlns="http://www.w3.org/2000/svg"
 width="512.000000pt" height="512.000000pt" viewBox="0 0 512.000000 512.000000"
 preserveAspectRatio="xMidYMid meet">
<metadata>
Created by potrace 1.15, written by Peter Selinger 2001-2017
</metadata>
<g transform="translate(0.000000,512.000000) scale(0.100000,-0.100000)"
fill="#ffffff" stroke="none">
<path d="M666 3351 c-211 -279 -347 -537 -391 -748 -19 -90 -19 -253 0 -328
35 -135 123 -249 259 -339 108 -72 142 -88 283 -135 295 -98 686 -140 1147
-121 205 9 249 13 235 23 -2 2 -35 25 -74 52 -249 174 -595 530 -855 880 -152
205 -385 563 -497 764 l-30 53 -77 -101z m294 -708 c46 -58 58 -83 92 -192 53
-170 116 -374 135 -438 9 -29 19 -53 23 -53 3 0 21 64 39 143 18 78 35 144 37
146 2 2 52 -46 110 -108 59 -61 167 -168 240 -236 l133 -125 -137 0 c-371 0
-680 82 -795 210 -57 64 -78 125 -78 228 0 85 10 140 42 242 19 58 98 250 103
250 1 0 26 -30 56 -67z"/>
<path d="M4344 3393 c-396 -693 -902 -1310 -1328 -1618 -52 -39 -96 -73 -96
-76 0 -11 260 -23 475 -22 831 3 1351 218 1450 598 19 76 19 225 -1 322 -32
156 -122 359 -238 538 -75 116 -216 305 -227 305 -4 0 -20 -21 -35 -47z m-30
-920 c37 -115 47 -168 47 -255 0 -111 -21 -170 -86 -234 -128 -128 -421 -204
-787 -204 l-137 0 107 99 c59 54 167 160 241 235 74 75 135 135 137 134 1 -2
17 -67 35 -145 18 -79 35 -143 39 -143 3 0 31 82 62 183 142 460 131 431 189
503 l54 67 37 -81 c21 -45 49 -117 62 -159z"/>
</g>
</svg>
