<?xml version="1.0" standalone="no"?>
<!DOCTYPE svg PUBLIC "-//W3C//DTD SVG 20010904//EN"
 "http://www.w3.org/TR/2001/REC-SVG-20010904/DTD/svg10.dtd">
<svg version="1.0" xmlns="http://www.w3.org/2000/svg"
 width="512.000000pt" height="512.000000pt" viewBox="0 0 512.000000 512.000000"
 preserveAspectRatio="xMidYMid meet">
<metadata>
Created by potrace 1.15, written by Peter Selinger 2001-2017
</metadata>
<g transform="translate(0.000000,512.000000) scale(0.100000,-0.100000)"
fill="#ffffff" stroke="none">
<path d="M2065 4910 c-89 -10 -140 -29 -184 -66 -83 -72 -83 -155 1 -325 55
-111 82 -181 112 -285 l14 -52 -84 -22 c-46 -13 -86 -21 -87 -19 -2 2 -15 45
-31 94 -38 123 -87 222 -136 277 -71 81 -138 86 -264 20 -83 -43 -176 -127
-214 -191 -21 -36 -27 -59 -27 -107 0 -55 4 -68 37 -115 42 -61 101 -110 200
-164 l67 -36 -37 -79 c-27 -57 -41 -78 -52 -74 -8 3 -58 30 -111 60 -206 117
-358 158 -427 115 -103 -66 -188 -365 -126 -448 51 -69 138 -102 292 -110
l102 -6 0 -88 0 -89 -137 0 c-76 -1 -158 -5 -182 -9 -89 -17 -119 -66 -128
-207 -7 -100 10 -143 71 -179 79 -46 162 -59 382 -60 l202 0 6 -44 c3 -24 6
-63 6 -86 l0 -43 -107 -7 c-123 -9 -303 -1 -381 16 -29 6 -56 8 -59 5 -12 -11
-4 -115 10 -142 39 -74 156 -143 278 -164 43 -7 263 -10 674 -8 l610 3 54 30
c105 58 146 134 208 383 20 83 40 152 43 152 3 0 28 -71 54 -157 58 -190 102
-278 167 -337 87 -78 66 -76 739 -76 657 0 656 0 774 63 105 56 166 136 166
218 l0 42 -42 -8 c-154 -26 -284 -31 -445 -18 l-82 6 5 46 c3 25 7 65 10 88
l5 42 142 -6 c240 -9 403 20 468 86 47 46 56 91 41 193 -23 157 -44 170 -279
176 l-163 4 0 89 0 89 73 0 c147 1 269 43 315 110 22 32 23 43 20 120 -7 140
-70 287 -141 330 -77 47 -232 2 -472 -139 -38 -23 -72 -41 -76 -41 -6 0 -13
15 -55 107 l-23 52 73 40 c89 48 179 129 208 185 49 94 15 202 -95 301 -114
104 -256 157 -324 121 -72 -37 -156 -175 -203 -336 -13 -41 -26 -79 -30 -83
-7 -8 -155 25 -167 36 -9 10 77 250 114 316 77 142 78 143 78 213 0 52 -5 73
-21 95 -53 71 -148 105 -295 106 -91 0 -104 -3 -163 -32 -127 -62 -206 -202
-252 -441 -11 -60 -17 -172 -21 -382 l-5 -298 -89 0 -89 0 0 203 c0 393 -35
610 -121 763 -35 62 -100 129 -150 154 -32 17 -147 42 -174 39 -5 -1 -37 -5
-70 -9z"/>
<path d="M2612 2250 c-69 -76 -161 -130 -256 -150 -37 -8 -247 -10 -687 -8
l-634 3 -80 27 c-89 30 -183 83 -232 130 -18 18 -35 29 -38 27 -6 -7 46 -319
75 -450 142 -645 377 -1158 710 -1553 l55 -65 1141 0 1141 -1 79 96 c299 363
514 814 654 1374 54 215 127 616 115 628 -2 2 -21 -13 -42 -33 -84 -82 -205
-146 -323 -171 -61 -12 -169 -14 -694 -12 l-621 3 -57 23 c-72 29 -164 98
-209 156 l-35 44 -62 -68z m-864 -336 c42 -8 115 -34 162 -57 69 -33 102 -58
176 -132 76 -75 98 -105 137 -185 26 -52 47 -103 47 -111 0 -29 -86 -114 -147
-146 -94 -50 -165 -67 -283 -67 -174 0 -322 57 -436 169 -68 67 -107 128 -141
222 -36 99 -33 116 36 183 68 66 139 104 232 124 85 19 125 19 217 0z m1992 6
c94 -15 195 -66 257 -130 29 -30 55 -62 59 -72 8 -26 -22 -122 -63 -200 -177
-339 -710 -412 -945 -130 l-27 33 20 52 c87 222 288 398 505 441 87 18 113 18
194 6z"/>
<path d="M1669 1699 c-102 -61 -104 -199 -5 -273 39 -29 133 -29 172 0 53 39
69 71 69 134 0 63 -16 95 -68 134 -40 30 -123 32 -168 5z"/>
<path d="M3480 1702 c-52 -29 -73 -64 -77 -129 -5 -75 18 -119 78 -151 54 -29
121 -26 168 7 87 62 86 199 -1 264 -39 29 -123 34 -168 9z"/>
</g>
</svg>
