<?xml version="1.0" standalone="no"?>
<!DOCTYPE svg PUBLIC "-//W3C//DTD SVG 20010904//EN"
 "http://www.w3.org/TR/2001/REC-SVG-20010904/DTD/svg10.dtd">
<svg version="1.0" xmlns="http://www.w3.org/2000/svg"
 width="512.000000pt" height="512.000000pt" viewBox="0 0 512.000000 512.000000"
 preserveAspectRatio="xMidYMid meet">
<metadata>
Created by potrace 1.15, written by Peter Selinger 2001-2017
</metadata>
<g transform="translate(0.000000,512.000000) scale(0.100000,-0.100000)"
fill="#ffffff" stroke="none">
<path d="M776 4918 c9 -14 511 -682 861 -1145 117 -155 213 -284 213 -286 0
-17 -122 -32 -255 -31 -239 0 -431 49 -861 215 -115 44 -238 92 -273 105 -44
17 -61 21 -52 10 17 -20 216 -163 401 -286 387 -260 557 -413 605 -550 21 -60
19 -145 -5 -194 -77 -159 -279 -281 -825 -498 -165 -66 -355 -151 -355 -160 0
-5 19 -6 43 -2 94 13 408 66 502 84 170 33 255 42 390 44 122 1 235 -15 235
-33 0 -4 -44 -26 -97 -48 -54 -23 -327 -143 -608 -266 l-510 -224 -3 -107 c-2
-85 0 -107 10 -103 24 10 913 398 1126 492 118 52 221 96 230 97 14 3 16 -5
14 -42 -7 -100 -64 -241 -164 -407 -31 -51 -52 -93 -48 -93 5 0 76 30 157 66
182 81 337 133 422 141 l65 6 -21 -34 c-11 -19 -110 -189 -218 -379 -109 -190
-240 -417 -291 -505 -288 -499 -344 -598 -344 -606 0 -6 47 -8 111 -7 l111 3
421 733 c231 403 426 731 431 729 6 -2 36 -33 66 -69 156 -186 233 -409 304
-878 13 -91 35 -231 47 -312 13 -82 25 -148 29 -148 3 0 19 80 34 178 102 653
145 835 238 1015 50 97 133 183 184 193 112 21 346 -49 679 -204 130 -60 423
-210 530 -272 104 -59 181 -100 189 -100 5 0 -65 68 -283 275 -213 203 -385
383 -455 479 -55 74 -111 174 -102 183 4 5 251 -120 1004 -504 l282 -144 0
110 0 110 -142 74 c-79 41 -346 177 -595 303 l-451 229 26 18 c78 51 238 77
492 78 158 0 172 2 145 14 -16 8 -95 43 -175 78 -173 75 -294 144 -367 211
-54 49 -90 101 -75 109 4 3 34 8 67 11 71 9 971 123 1033 131 l42 6 0 100 c0
54 -1 99 -2 99 -2 0 -160 -20 -353 -45 -682 -88 -757 -96 -762 -91 -14 14 72
131 172 231 113 115 207 190 482 386 358 256 448 327 381 299 -84 -33 -157
-64 -253 -108 -478 -216 -615 -271 -773 -308 -77 -18 -204 -20 -263 -4 l-42
12 525 526 c289 290 607 610 707 712 l180 185 1 63 0 62 -77 0 -78 0 -697
-702 c-564 -569 -699 -700 -708 -688 -18 27 -48 115 -66 196 -34 156 -18 620
40 1157 6 54 -18 48 -45 -10 -11 -27 -74 -178 -139 -338 -196 -484 -282 -653
-393 -772 -63 -67 -132 -113 -170 -113 -44 0 -114 58 -168 138 -55 82 -157
286 -209 416 -17 44 -37 91 -45 105 -12 24 -13 22 -19 -39 -3 -36 -8 -121 -11
-190 -12 -239 -44 -384 -106 -474 l-22 -33 -385 511 c-211 281 -439 584 -505
673 l-122 163 -123 0 c-96 0 -122 -3 -116 -12z m1986 -1467 c81 -22 163 -70
220 -128 l41 -42 -33 -38 c-19 -21 -101 -109 -183 -195 l-150 -157 -155 206
c-145 194 -153 207 -141 229 24 45 121 107 200 128 74 20 122 19 201 -3z
m-594 -385 l119 -160 -121 -69 c-66 -38 -122 -70 -124 -72 -1 -1 22 -58 52
-126 31 -67 54 -124 53 -125 -8 -8 -390 -174 -393 -171 -8 8 -24 110 -30 194
-12 156 23 337 88 468 43 84 77 132 143 199 69 69 46 84 213 -138z m1131 124
c21 -10 58 -41 83 -69 72 -80 114 -222 71 -235 -10 -3 -94 -28 -188 -57 -145
-44 -323 -85 -330 -77 -3 3 318 457 323 458 1 0 20 -9 41 -20z m208 -606 l81
-6 7 -46 c3 -26 1 -71 -5 -101 -10 -54 -56 -151 -72 -151 -4 0 -79 35 -166 79
-122 61 -179 97 -256 160 l-99 82 214 -6 c118 -3 251 -8 296 -11z m-548 -359
c91 -49 166 -95 168 -101 2 -6 -22 -44 -53 -83 -161 -202 -424 -303 -703 -271
-52 6 -97 12 -98 14 -2 2 76 143 174 314 l178 310 85 -46 c47 -26 159 -87 249
-137z m-572 168 c-2 -5 -73 -128 -157 -276 l-153 -267 -46 26 c-71 41 -138 94
-171 136 -36 44 -72 120 -62 129 4 3 66 31 137 62 72 31 202 88 290 126 173
77 168 74 162 64z"/>
</g>
</svg>
