<?xml version="1.0" standalone="no"?>
<!DOCTYPE svg PUBLIC "-//W3C//DTD SVG 20010904//EN"
 "http://www.w3.org/TR/2001/REC-SVG-20010904/DTD/svg10.dtd">
<svg version="1.0" xmlns="http://www.w3.org/2000/svg"
 width="512.000000pt" height="512.000000pt" viewBox="0 0 512.000000 512.000000"
 preserveAspectRatio="xMidYMid meet">
<metadata>
Created by potrace 1.15, written by Peter Selinger 2001-2017
</metadata>
<g transform="translate(0.000000,512.000000) scale(0.100000,-0.100000)"
fill="#ffffff" stroke="none">
<path d="M2569 4927 c-6 -9 -94 -934 -90 -938 8 -8 661 -73 667 -66 7 6 97
927 92 933 -3 2 -137 17 -299 34 -162 16 -311 31 -331 34 -21 2 -38 3 -39 3z"/>
<path d="M1406 3908 c-9 -54 -67 -640 -64 -642 7 -5 2822 -285 2825 -282 5 4
74 669 70 672 -1 1 -321 34 -712 73 -1578 160 -2090 211 -2102 211 -7 0 -14
-15 -17 -32z"/>
<path d="M2376 2988 c-9 -43 -208 -2099 -204 -2104 3 -2 54 1 114 7 60 6 211
9 336 7 l227 -4 5 36 c17 111 197 2002 192 2008 -5 4 -580 67 -658 72 -4 0
-10 -10 -12 -22z"/>
<path d="M2275 739 c-381 -35 -777 -154 -1150 -344 -140 -72 -319 -177 -330
-195 -4 -7 633 -10 1759 -10 1001 0 1766 4 1766 9 0 20 -274 182 -429 252
-334 153 -671 247 -1021 284 -145 16 -448 18 -595 4z"/>
</g>
</svg>
