<?xml version="1.0" standalone="no"?>
<!DOCTYPE svg PUBLIC "-//W3C//DTD SVG 20010904//EN"
 "http://www.w3.org/TR/2001/REC-SVG-20010904/DTD/svg10.dtd">
<svg version="1.0" xmlns="http://www.w3.org/2000/svg"
 width="512.000000pt" height="512.000000pt" viewBox="0 0 512.000000 512.000000"
 preserveAspectRatio="xMidYMid meet">
<metadata>
Created by potrace 1.15, written by Peter Selinger 2001-2017
</metadata>
<g transform="translate(0.000000,512.000000) scale(0.100000,-0.100000)"
fill="#ffffff" stroke="none">
<path d="M185 3851 c3 -597 7 -1268 10 -1491 3 -223 5 -764 5 -1202 l0 -797
38 -10 c93 -24 240 -33 348 -21 184 21 290 61 379 141 77 71 100 129 100 249
-1 147 -45 267 -180 490 -168 277 -279 573 -336 897 -31 169 -33 540 -6 698
101 573 378 1036 821 1369 248 186 556 315 891 373 143 24 480 24 630 0 215
-35 440 -100 618 -178 183 -81 293 -142 510 -287 159 -105 220 -131 307 -132
54 0 72 5 102 25 97 66 165 224 254 595 25 102 56 223 70 269 14 45 24 84 22
86 -2 1 -1035 5 -2295 7 l-2293 5 5 -1086z"/>
<path d="M2445 4393 c-105 -8 -128 -14 -114 -27 8 -7 93 -60 189 -116 96 -57
218 -129 270 -160 52 -32 174 -104 270 -160 96 -57 218 -129 270 -160 92 -55
538 -319 551 -326 7 -4 223 375 217 380 -1 2 -19 11 -38 21 -19 10 -89 54
-155 98 -271 182 -506 295 -770 372 -223 64 -491 95 -690 78z"/>
<path d="M1234 3828 c-233 -245 -415 -579 -483 -885 l-19 -81 92 5 c177 10
345 -31 561 -137 77 -38 167 -86 200 -108 328 -216 495 -310 625 -352 61 -19
97 -24 190 -24 l115 -1 3 60 c24 467 -465 1107 -1164 1523 -38 23 -72 42 -75
42 -3 0 -23 -19 -45 -42z"/>
<path d="M3540 3371 c0 -10 -12 -59 -26 -107 -111 -384 -360 -760 -734 -1109
-269 -251 -639 -463 -940 -539 -129 -33 -102 -41 135 -41 174 0 199 2 295 28
58 15 141 41 185 58 89 34 262 123 334 171 183 124 386 323 503 493 129 188
217 394 264 615 28 134 23 450 -7 450 -5 0 -9 -8 -9 -19z"/>
<path d="M4207 3340 c-3 -8 -15 -55 -27 -104 -151 -632 -692 -1362 -1350
-1823 -166 -117 -259 -173 -426 -256 -200 -100 -405 -176 -548 -202 -174 -33
239 -65 454 -36 604 83 1198 476 1575 1041 258 386 393 849 356 1222 -12 122
-25 183 -34 158z"/>
<path d="M4857 3131 c-150 -607 -522 -1222 -1082 -1785 -437 -440 -972 -792
-1493 -982 -79 -29 -243 -76 -346 -99 -15 -3 -26 -8 -23 -11 16 -16 202 -34
352 -34 244 0 430 29 655 102 426 138 797 362 1129 683 469 454 769 1010 858
1590 28 185 18 569 -16 633 -4 7 -19 -36 -34 -97z"/>
<path d="M706 2679 c-11 -34 -14 -219 -5 -342 23 -350 134 -696 327 -1025 103
-174 127 -221 162 -315 31 -80 34 -85 54 -75 31 17 340 199 345 204 2 2 -30
63 -72 136 -41 73 -188 336 -327 583 -367 654 -471 840 -476 844 -2 2 -6 -2
-8 -10z"/>
</g>
</svg>
