<?xml version="1.0" standalone="no"?>
<!DOCTYPE svg PUBLIC "-//W3C//DTD SVG 20010904//EN"
 "http://www.w3.org/TR/2001/REC-SVG-20010904/DTD/svg10.dtd">
<svg version="1.0" xmlns="http://www.w3.org/2000/svg"
 width="512.000000pt" height="512.000000pt" viewBox="0 0 512.000000 512.000000"
 preserveAspectRatio="xMidYMid meet">
<metadata>
Created by potrace 1.15, written by Peter Selinger 2001-2017
</metadata>
<g transform="translate(0.000000,512.000000) scale(0.100000,-0.100000)"
fill="#ffffff" stroke="none">
<path d="M3635 4613 c-60 -75 -136 -170 -169 -210 -32 -40 -61 -73 -65 -73 -3
0 -60 92 -125 205 -66 113 -122 205 -126 205 -4 0 -14 -98 -24 -217 -10 -120
-18 -224 -19 -232 -1 -8 27 -26 74 -45 180 -74 294 -180 375 -351 59 -123 77
-216 72 -379 -4 -126 -8 -151 -37 -235 -39 -115 -87 -197 -160 -273 -30 -32
-49 -58 -43 -58 29 0 819 122 837 129 15 6 -32 25 -188 77 -114 38 -207 71
-207 74 0 3 44 31 98 62 344 200 648 381 657 389 7 7 -10 9 -50 5 -33 -3 -177
-10 -320 -16 -143 -6 -286 -13 -318 -16 l-58 -5 123 158 c67 87 205 264 306
393 101 129 180 236 176 237 -5 2 -180 -73 -389 -166 -209 -93 -381 -168 -382
-167 -2 1 15 139 38 305 22 167 39 312 37 322 -2 13 -35 -22 -113 -118z"/>
<path d="M588 4530 c-78 -14 -178 -50 -258 -92 -135 -73 -120 -35 -120 -309 0
-132 4 -239 8 -239 5 0 17 10 28 22 49 55 215 143 329 174 77 22 246 18 335
-6 249 -68 498 -257 745 -565 140 -175 231 -273 337 -363 155 -130 327 -225
508 -279 86 -25 109 -28 245 -28 142 0 155 2 238 32 116 41 185 84 267 166 80
80 140 186 172 304 27 104 30 298 4 393 -53 194 -182 331 -365 387 -66 20
-197 17 -273 -7 -213 -66 -333 -297 -250 -483 73 -164 270 -224 391 -121 36
31 81 94 67 94 -3 0 -27 -12 -53 -26 -56 -30 -102 -28 -157 5 -49 31 -71 82
-71 167 0 61 4 75 27 106 41 54 108 82 193 82 186 1 315 -157 315 -384 0 -83
-24 -199 -56 -267 -35 -73 -131 -171 -204 -206 -66 -32 -174 -57 -251 -57
-117 0 -358 84 -484 168 -155 103 -299 250 -444 452 -386 534 -653 784 -923
860 -82 24 -229 33 -300 20z"/>
<path d="M4415 2961 c-180 -44 -390 -188 -503 -346 -20 -27 -37 -52 -39 -54
-1 -2 -38 12 -81 32 -226 103 -507 121 -847 52 -298 -60 -650 -217 -878 -392
-99 -76 -225 -201 -289 -286 -106 -143 -155 -248 -184 -395 -37 -190 10 -390
134 -575 57 -86 203 -241 284 -302 l60 -45 -595 0 -595 0 -132 -236 c-72 -130
-129 -238 -127 -240 2 -2 583 -3 1291 -2 l1287 3 -441 514 -440 514 22 25
c163 179 510 356 798 408 139 25 134 27 164 -73 47 -156 157 -464 218 -613
124 -301 285 -578 414 -718 l59 -63 308 3 309 3 -67 75 c-266 299 -501 706
-623 1080 -58 176 -122 474 -122 566 l0 34 35 -39 c19 -21 65 -53 102 -72 67
-34 70 -34 198 -34 123 1 135 3 219 35 91 34 230 120 298 184 252 239 361 575
254 784 -84 162 -270 228 -491 173z"/>
</g>
</svg>
