<?xml version="1.0" standalone="no"?>
<!DOCTYPE svg PUBLIC "-//W3C//DTD SVG 20010904//EN"
 "http://www.w3.org/TR/2001/REC-SVG-20010904/DTD/svg10.dtd">
<svg version="1.0" xmlns="http://www.w3.org/2000/svg"
 width="512.000000pt" height="512.000000pt" viewBox="0 0 512.000000 512.000000"
 preserveAspectRatio="xMidYMid meet">
<metadata>
Created by potrace 1.15, written by Peter Selinger 2001-2017
</metadata>
<g transform="translate(0.000000,512.000000) scale(0.100000,-0.100000)"
fill="#ffffff" stroke="none">
<path d="M2376 4909 c-90 -10 -209 -37 -268 -60 -39 -15 -84 -19 -295 -22
-284 -5 -413 -23 -603 -83 -479 -151 -805 -491 -986 -1029 l-44 -130 0 -1712
0 -1713 948 0 947 0 0 272 c1 283 11 400 56 623 38 192 103 395 180 562 21 46
39 87 39 91 3 20 -489 78 -817 98 -131 7 -112 -18 -143 199 -75 536 -36 990
117 1375 52 131 111 250 124 250 6 0 125 -61 147 -75 1 -1 -18 -42 -42 -91
-87 -177 -150 -376 -182 -580 -32 -209 -29 -550 8 -821 l11 -82 51 -5 c28 -3
116 -10 196 -16 200 -16 581 -72 809 -120 413 -86 729 -177 1086 -312 72 -27
160 -61 197 -75 l67 -25 65 30 c143 67 235 211 317 497 28 96 35 135 24 135
-3 0 -74 -47 -159 -104 l-153 -105 -48 220 c-27 120 -51 219 -55 219 -3 0
-106 -67 -228 -150 -135 -90 -225 -144 -227 -137 -3 7 -25 104 -50 217 -25
113 -49 213 -53 223 -6 15 -37 -2 -217 -123 -115 -77 -212 -140 -215 -140 -3
0 -27 99 -54 219 -27 121 -52 225 -56 231 -5 8 -81 -38 -223 -134 l-215 -146
-22 92 c-56 245 -120 537 -120 550 0 8 100 82 223 165 122 83 276 187 341 232
66 44 122 81 126 81 3 0 27 -100 54 -222 27 -123 53 -227 57 -232 7 -8 237
140 390 250 l46 34 21 -88 c11 -48 35 -153 53 -234 18 -82 37 -148 42 -148 5
0 101 63 215 140 113 77 207 138 210 136 2 -2 24 -93 48 -203 25 -109 47 -206
50 -216 4 -14 46 10 233 137 l228 155 33 -152 c46 -214 38 -204 100 -112 29
43 75 124 101 180 120 250 123 461 11 587 -91 100 -468 399 -702 555 -102 68
-107 73 -142 145 -86 173 -298 368 -493 452 -64 28 -80 31 -180 31 -112 0
-138 -6 -206 -51 l-25 -16 -80 78 c-116 116 -231 172 -414 199 -103 16 -147
17 -254 4z m272 -250 c61 -30 128 -98 154 -157 13 -29 23 -76 26 -124 5 -78
-3 -95 -26 -58 -20 33 -92 64 -147 63 -89 0 -155 -48 -183 -132 -21 -61 -8
-130 33 -179 l25 -30 -48 5 c-111 12 -218 88 -265 191 -32 72 -30 199 5 267
65 125 176 189 311 180 43 -2 86 -12 115 -26z"/>
</g>
</svg>
