<?xml version="1.0" standalone="no"?>
<!DOCTYPE svg PUBLIC "-//W3C//DTD SVG 20010904//EN"
 "http://www.w3.org/TR/2001/REC-SVG-20010904/DTD/svg10.dtd">
<svg version="1.0" xmlns="http://www.w3.org/2000/svg"
 width="512.000000pt" height="512.000000pt" viewBox="0 0 512.000000 512.000000"
 preserveAspectRatio="xMidYMid meet">
<metadata>
Created by potrace 1.15, written by Peter Selinger 2001-2017
</metadata>
<g transform="translate(0.000000,512.000000) scale(0.100000,-0.100000)"
fill="#ffffff" stroke="none">
<path d="M2396 4935 c-454 -77 -862 -344 -1111 -730 -86 -132 -250 -475 -299
-625 -88 -267 -120 -480 -118 -780 5 -665 169 -1280 473 -1773 89 -143 191
-271 323 -403 227 -226 448 -353 721 -415 142 -31 359 -31 500 1 184 41 311
96 480 208 137 91 371 325 477 477 365 527 561 1194 561 1910 0 430 -66 726
-250 1110 -131 275 -201 381 -348 534 -259 269 -599 446 -944 490 -112 15
-367 12 -465 -4z m513 -206 c439 -95 822 -399 1010 -799 40 -86 83 -220 95
-297 l6 -43 -672 0 -673 0 -72 263 c-40 144 -73 268 -73 275 0 6 -4 12 -8 12
-5 0 -51 -156 -104 -346 l-94 -345 -123 448 c-68 246 -127 454 -131 462 -4 7
-9 10 -12 5 -2 -5 -51 -181 -109 -391 l-104 -383 -289 0 -289 0 7 57 c9 75 55
212 107 315 152 304 446 571 767 697 102 41 253 80 349 91 111 12 301 3 412
-21z m-719 -1539 c67 -245 123 -452 126 -460 8 -22 11 -15 109 348 l88 322
754 0 c725 0 753 -1 753 -18 0 -11 -9 -53 -19 -94 -154 -600 -876 -989 -1621
-873 -382 60 -718 247 -920 513 -91 120 -190 353 -190 449 l0 23 364 0 363 0
34 126 c18 69 35 121 36 117 1 -4 56 -208 123 -453z m-804 -961 c39 -40 185
-139 254 -171 94 -43 185 -62 300 -62 157 0 283 46 420 153 l65 50 62 -62 63
-61 -28 -23 c-120 -101 -244 -169 -379 -209 -116 -35 -296 -37 -416 -5 -149
39 -324 136 -442 245 l-60 54 60 61 c33 34 62 61 65 61 4 0 19 -14 36 -31z
m2670 -30 l62 -62 -61 -54 c-129 -113 -298 -206 -442 -244 -123 -32 -301 -30
-418 5 -135 40 -301 132 -372 206 l-28 29 59 61 59 61 64 -51 c132 -106 263
-154 421 -154 121 0 208 19 317 70 71 34 210 131 247 172 11 12 22 22 25 22 3
0 33 -28 67 -61z m-1090 -1294 c209 -23 462 -69 480 -88 5 -5 -35 -167 -41
-167 -2 0 -41 9 -87 20 -211 50 -349 64 -638 64 -293 1 -399 -9 -639 -59 -63
-14 -116 -23 -118 -22 -1 2 -10 32 -18 68 -9 35 -19 72 -21 81 -6 20 15 26
171 57 300 58 644 76 911 46z"/>
</g>
</svg>
