<?xml version="1.0" standalone="no"?>
<!DOCTYPE svg PUBLIC "-//W3C//DTD SVG 20010904//EN"
 "http://www.w3.org/TR/2001/REC-SVG-20010904/DTD/svg10.dtd">
<svg version="1.0" xmlns="http://www.w3.org/2000/svg"
 width="512.000000pt" height="512.000000pt" viewBox="0 0 512.000000 512.000000"
 preserveAspectRatio="xMidYMid meet">
<metadata>
Created by potrace 1.15, written by Peter Selinger 2001-2017
</metadata>
<g transform="translate(0.000000,512.000000) scale(0.100000,-0.100000)"
fill="#ffffff" stroke="none">
<path d="M1202 4772 c-10 -7 -2 -41 35 -151 l48 -143 120 7 c183 10 165 -7
165 156 l0 139 -177 0 c-98 0 -184 -4 -191 -8z"/>
<path d="M180 2465 l0 -2285 1490 0 c820 0 1490 3 1490 7 0 3 -25 106 -56 227
l-57 221 -322 325 -322 325 -239 799 -239 799 -440 401 -440 400 -40 400 -40
400 -393 133 -392 132 0 -2284z"/>
<path d="M1888 4072 c-159 -36 -288 -70 -288 -75 0 -6 36 -76 80 -158 l81
-147 72 -22 c40 -11 78 -23 86 -26 11 -3 13 -25 9 -105 -4 -89 -3 -99 11 -94
9 3 127 56 264 118 192 87 246 115 242 127 -17 44 -251 450 -260 449 -5 0
-139 -30 -297 -67z"/>
<path d="M2439 3429 c-52 -56 -95 -106 -97 -110 -3 -8 103 -61 235 -119 l42
-19 67 107 c63 101 66 107 48 120 -38 27 -189 122 -195 122 -3 0 -48 -46 -100
-101z"/>
<path d="M2876 2509 c-92 -67 -172 -131 -176 -143 -10 -23 -121 -578 -117
-582 1 -1 227 -54 502 -117 l500 -114 3 36 c4 40 -25 826 -34 906 l-5 50 -227
38 c-125 21 -239 40 -253 43 -20 4 -58 -19 -193 -117z"/>
<path d="M3992 1984 c-41 -7 -80 -18 -88 -25 -8 -7 -47 -52 -86 -101 l-71 -89
23 -105 c13 -58 27 -107 31 -110 12 -7 409 148 409 160 0 6 -18 73 -41 149
l-42 137 -31 -1 c-17 -1 -64 -7 -104 -15z"/>
<path d="M3430 1013 c-102 -13 -187 -27 -189 -29 -3 -2 11 -70 30 -152 l35
-147 129 3 c72 1 155 5 186 8 l57 6 6 45 c3 25 6 101 6 169 l0 124 -37 -1
c-21 -1 -121 -12 -223 -26z"/>
<path d="M3875 416 c-71 -12 -141 -28 -155 -35 -38 -21 -304 -183 -314 -193
-6 -4 171 -8 392 -8 l402 0 -65 130 c-76 152 -50 141 -260 106z"/>
</g>
</svg>
