<?xml version="1.0" standalone="no"?>
<!DOCTYPE svg PUBLIC "-//W3C//DTD SVG 20010904//EN"
 "http://www.w3.org/TR/2001/REC-SVG-20010904/DTD/svg10.dtd">
<svg version="1.0" xmlns="http://www.w3.org/2000/svg"
 width="512.000000pt" height="512.000000pt" viewBox="0 0 512.000000 512.000000"
 preserveAspectRatio="xMidYMid meet">
<metadata>
Created by potrace 1.15, written by Peter Selinger 2001-2017
</metadata>
<g transform="translate(0.000000,512.000000) scale(0.100000,-0.100000)"
fill="#ffffff" stroke="none">
<path d="M2926 4808 c-7 -119 -46 -1362 -46 -1456 l0 -62 -92 77 c-50 43 -177
150 -282 238 -105 89 -393 331 -640 538 -246 208 -450 376 -452 374 -3 -2 99
-249 225 -548 126 -299 227 -545 226 -547 -2 -2 -269 175 -594 393 -325 218
-591 392 -591 388 0 -8 678 -740 1059 -1142 75 -80 129 -142 121 -139 -26 9
-1615 607 -1635 614 -40 16 -31 7 555 -550 688 -652 948 -901 946 -903 -2 -2
-252 -10 -556 -18 -305 -9 -556 -17 -558 -20 -5 -5 19 -17 649 -320 848 -408
909 -438 909 -444 0 -3 -271 -37 -603 -74 -599 -68 -643 -74 -633 -84 2 -3
233 -85 511 -183 l506 -177 -178 -48 c-197 -52 -217 -59 -187 -68 47 -15 1178
-287 1190 -287 34 0 3 -22 -156 -110 -93 -52 -169 -98 -170 -102 0 -5 551 -8
1225 -8 l1225 0 0 465 0 464 -125 318 c-69 175 -182 460 -250 633 -68 173
-174 441 -234 594 -60 153 -106 275 -101 270 5 -5 160 -229 345 -499 186 -269
343 -497 351 -505 12 -12 14 18 14 212 l0 226 -100 768 c-55 422 -102 769
-104 772 -6 6 -10 -11 -92 -413 -42 -209 -80 -383 -83 -387 -4 -4 -41 101 -83
235 -314 999 -403 1276 -409 1270 -4 -5 -63 -194 -132 -422 l-124 -413 -72
223 c-228 703 -265 813 -268 802 -2 -6 10 -233 27 -503 17 -270 30 -496 28
-502 -2 -5 -124 251 -272 569 -147 318 -271 582 -276 586 -4 5 -11 -38 -14
-95z m524 -1726 c184 -304 338 -552 342 -552 5 0 41 66 82 148 41 81 75 140
76 132 0 -8 83 -316 184 -685 101 -369 183 -671 182 -672 0 0 -162 226 -360
504 -197 277 -360 502 -362 500 -3 -3 76 -659 89 -733 l4 -22 -87 23 c-414
111 -664 175 -672 173 -5 -2 99 -100 233 -218 513 -455 725 -643 748 -665 l23
-23 -152 -28 c-142 -27 -181 -38 -170 -47 3 -2 196 -113 430 -247 234 -134
429 -247 434 -251 4 -4 -131 35 -300 87 -170 51 -603 182 -961 291 -359 109
-653 200 -653 204 0 3 137 53 305 109 168 57 305 107 305 110 0 4 -232 125
-515 269 -631 322 -594 303 -570 297 11 -3 162 -30 335 -61 173 -30 326 -58
338 -61 14 -3 21 -1 18 5 -4 6 -270 234 -591 507 -322 274 -584 499 -582 500
1 2 277 -77 612 -175 336 -98 611 -174 613 -170 3 7 -150 490 -179 567 -10 25
-11 26 56 -19 179 -118 617 -390 622 -385 4 4 -207 1000 -253 1191 -7 27 -5
25 376 -603z"/>
</g>
</svg>
