<?xml version="1.0" standalone="no"?>
<!DOCTYPE svg PUBLIC "-//W3C//DTD SVG 20010904//EN"
 "http://www.w3.org/TR/2001/REC-SVG-20010904/DTD/svg10.dtd">
<svg version="1.0" xmlns="http://www.w3.org/2000/svg"
 width="512.000000pt" height="512.000000pt" viewBox="0 0 512.000000 512.000000"
 preserveAspectRatio="xMidYMid meet">
<metadata>
Created by potrace 1.15, written by Peter Selinger 2001-2017
</metadata>
<g transform="translate(0.000000,512.000000) scale(0.100000,-0.100000)"
fill="#ffffff" stroke="none">
<path d="M2835 4864 c-698 -77 -1436 -533 -1842 -1139 -160 -239 -253 -455
-310 -725 -24 -112 -27 -146 -27 -335 -1 -162 3 -234 18 -315 21 -122 73 -308
117 -418 42 -105 131 -283 140 -280 5 2 100 94 213 204 l205 202 -24 87 c-68
245 -94 603 -61 835 40 285 138 542 299 788 333 508 956 919 1572 1037 66 12
113 25 105 28 -58 23 -308 41 -405 31z"/>
<path d="M2895 4179 c-229 -30 -447 -139 -595 -296 -198 -209 -237 -572 -86
-783 l36 -49 -33 -25 c-17 -13 -169 -121 -337 -241 -168 -119 -306 -222 -308
-228 -3 -16 972 -991 986 -986 6 2 104 135 217 294 114 160 223 312 241 338
l35 48 39 -31 c196 -155 580 -119 789 74 199 183 327 518 306 795 -30 379
-216 697 -531 907 -215 144 -514 216 -759 183z m-156 -435 c111 -60 178 -142
207 -254 36 -140 -17 -317 -122 -409 -48 -43 -159 -75 -233 -68 -149 13 -228
119 -239 318 -10 202 67 376 193 435 45 22 133 12 194 -22z m803 -814 c145
-54 266 -247 230 -368 -16 -53 -90 -126 -166 -161 -84 -40 -168 -55 -279 -49
-150 9 -243 55 -290 142 -33 61 -30 190 5 266 74 162 309 242 500 170z m-693
-172 c-50 -101 -93 -185 -94 -187 -2 -1 -46 38 -97 89 l-93 92 185 94 c102 51
186 93 188 93 1 1 -39 -81 -89 -181z m-650 -87 c-13 -20 -8 -27 72 -107 81
-81 87 -85 103 -68 17 16 21 14 77 -42 56 -55 58 -59 42 -76 -16 -18 -13 -23
70 -106 81 -81 88 -86 108 -73 20 12 26 9 80 -46 l59 -58 -143 -143 -142 -142
-60 60 -59 60 64 65 64 65 -59 62 c-33 34 -73 75 -90 90 l-30 29 -62 -68 -63
-68 -59 60 -60 60 59 62 c33 35 60 66 60 70 -1 8 -109 124 -148 157 l-23 20
-64 -64 -65 -64 -60 59 -60 60 142 142 143 143 58 -59 c55 -54 58 -60 46 -80z"/>
<path d="M4808 3152 c-72 -416 -306 -877 -621 -1224 -295 -326 -661 -546
-1050 -632 -179 -39 -291 -49 -481 -43 -191 7 -318 24 -483 65 l-112 29 -203
-204 c-112 -112 -204 -207 -206 -212 -3 -10 170 -97 281 -140 810 -320 1658
-80 2291 649 356 410 590 920 637 1390 6 63 8 151 5 195 -8 96 -26 207 -35
217 -4 4 -14 -36 -23 -90z"/>
<path d="M1582 2057 c-45 -45 -82 -87 -82 -92 0 -13 452 -465 465 -465 6 0 47
37 93 83 l82 82 -238 238 -237 237 -83 -83z"/>
<path d="M772 1247 l-592 -592 0 -173 c0 -94 3 -172 7 -172 12 0 1353 1344
1353 1355 0 10 -161 175 -170 175 -3 0 -272 -267 -598 -593z"/>
<path d="M975 859 l-680 -679 180 0 180 0 595 595 595 595 -85 85 c-46 47 -89
85 -95 84 -5 0 -316 -306 -690 -680z"/>
</g>
</svg>
