<?xml version="1.0" standalone="no"?>
<!DOCTYPE svg PUBLIC "-//W3C//DTD SVG 20010904//EN"
 "http://www.w3.org/TR/2001/REC-SVG-20010904/DTD/svg10.dtd">
<svg version="1.0" xmlns="http://www.w3.org/2000/svg"
 width="512.000000pt" height="512.000000pt" viewBox="0 0 512.000000 512.000000"
 preserveAspectRatio="xMidYMid meet">
<metadata>
Created by potrace 1.15, written by Peter Selinger 2001-2017
</metadata>
<g transform="translate(0.000000,512.000000) scale(0.100000,-0.100000)"
fill="#ffffff" stroke="none">
<path d="M1195 4603 c-44 -9 -81 -17 -83 -18 -2 -2 22 -134 54 -294 31 -161
55 -293 53 -295 -2 -2 -20 -6 -40 -10 l-36 -6 -100 172 c-55 95 -129 221 -163
281 -34 59 -65 107 -69 107 -13 0 -161 -91 -161 -99 0 -5 67 -124 150 -265 82
-141 154 -264 159 -275 8 -14 5 -23 -14 -41 l-24 -23 -118 115 c-219 213 -345
333 -352 336 -3 1 -37 -28 -74 -66 l-67 -68 112 -109 c62 -61 173 -168 246
-238 l133 -129 -18 -28 -18 -28 -185 104 c-102 57 -207 117 -235 133 -29 17
-54 26 -60 21 -23 -20 -90 -159 -80 -169 10 -10 123 -73 440 -249 105 -58 222
-126 261 -152 40 -26 99 -57 133 -68 37 -13 81 -38 113 -65 63 -54 976 -799
997 -813 2 -2 48 -193 102 -426 75 -323 116 -528 174 -869 41 -246 75 -449 75
-453 0 -3 45 -6 99 -6 l99 0 6 38 c3 20 28 218 56 439 53 425 46 390 248 1250
6 26 41 60 182 175 97 79 330 269 519 423 271 222 351 282 386 291 53 14 126
48 180 84 22 15 191 112 375 215 184 103 336 188 337 189 1 1 -20 41 -46 89
l-47 87 -239 -134 -240 -134 -17 28 -17 28 117 114 c64 62 174 169 244 237
l128 125 -58 62 c-31 33 -63 64 -71 68 -8 4 -94 -72 -248 -220 l-234 -226 -24
22 c-14 13 -23 26 -21 29 2 3 74 127 160 274 86 148 156 272 156 277 0 9 -147
100 -161 100 -3 0 -79 -126 -169 -281 -144 -249 -165 -280 -184 -275 -11 3
-29 6 -39 6 -23 0 -24 -13 44 330 27 135 49 250 49 256 0 10 -180 47 -188 39
-3 -2 -31 -138 -63 -302 -32 -164 -64 -326 -70 -359 -9 -43 -22 -73 -43 -98
l-31 -37 -93 180 -93 181 -80 -41 c-44 -22 -82 -46 -85 -53 -3 -7 41 -100 98
-207 57 -107 114 -219 127 -249 12 -30 41 -88 62 -129 24 -45 36 -78 31 -85
-5 -6 -152 -191 -328 -411 -176 -220 -345 -434 -376 -475 -79 -104 -155 -160
-251 -186 -148 -39 -300 7 -413 127 -23 24 -196 238 -384 474 -189 237 -349
437 -356 445 -10 12 2 45 73 190 47 96 123 246 169 332 46 86 84 163 84 170 0
8 -38 32 -84 55 l-84 42 -94 -179 -93 -179 -30 35 c-28 34 -35 60 -101 398
-52 266 -75 361 -85 362 -8 1 -50 -5 -94 -13z"/>
<path d="M2505 3389 c-76 -22 -166 -133 -207 -255 -32 -97 -32 -259 0 -361 31
-100 94 -190 162 -230 46 -28 64 -33 116 -33 76 0 105 10 161 56 155 127 199
440 92 652 -35 68 -110 145 -164 168 -38 15 -113 17 -160 3z"/>
<path d="M1987 798 c-76 -41 -160 -131 -176 -191 -44 -156 112 -299 416 -380
118 -31 119 -31 368 -31 248 0 251 1 368 32 270 71 419 187 421 327 1 63 -22
110 -81 169 -42 41 -163 116 -163 101 0 -3 15 -24 33 -47 44 -55 45 -117 3
-172 -58 -77 -201 -146 -366 -177 -84 -16 -346 -16 -430 0 -308 58 -464 215
-355 357 15 19 25 37 23 39 -2 2 -29 -10 -61 -27z"/>
</g>
</svg>
