<?xml version="1.0" standalone="no"?>
<!DOCTYPE svg PUBLIC "-//W3C//DTD SVG 20010904//EN"
 "http://www.w3.org/TR/2001/REC-SVG-20010904/DTD/svg10.dtd">
<svg version="1.0" xmlns="http://www.w3.org/2000/svg"
 width="512.000000pt" height="512.000000pt" viewBox="0 0 512.000000 512.000000"
 preserveAspectRatio="xMidYMid meet">
<metadata>
Created by potrace 1.15, written by Peter Selinger 2001-2017
</metadata>
<g transform="translate(0.000000,512.000000) scale(0.100000,-0.100000)"
fill="#ffffff" stroke="none">
<path d="M3484 4940 c-28 -11 -34 -21 -64 -104 l-25 -70 -57 -11 c-32 -6 -66
-19 -77 -29 -24 -22 -56 -100 -47 -115 4 -6 34 -27 66 -47 33 -20 60 -41 60
-46 0 -14 -53 -89 -148 -211 -111 -142 -186 -263 -212 -342 -12 -36 -27 -65
-33 -65 -7 0 -57 7 -112 15 -55 8 -171 15 -257 15 l-158 0 -29 -59 c-17 -32
-57 -95 -91 -139 -163 -217 -392 -322 -579 -266 -56 16 -114 45 -145 73 -43
36 -106 135 -126 197 l-22 66 -62 -7 c-141 -16 -288 -103 -507 -297 -134 -118
-345 -330 -361 -361 -61 -120 -63 -289 -7 -641 15 -99 19 -165 17 -285 l-3
-156 33 -66 c37 -77 94 -133 149 -148 57 -16 123 -13 170 9 54 24 133 98 174
161 38 59 41 52 -91 162 -168 140 -164 131 -162 332 0 171 18 388 34 418 5 9
16 17 26 17 68 1 229 88 354 192 55 46 58 47 63 26 3 -13 30 -144 60 -293 66
-317 121 -535 177 -695 22 -63 42 -128 45 -145 2 -16 -16 -147 -41 -290 -87
-495 -118 -758 -120 -1046 l-1 -176 -100 -17 c-55 -9 -156 -26 -224 -38 l-124
-21 -18 -41 c-24 -53 -25 -148 -2 -187 l17 -29 141 0 c77 0 253 -2 392 -4 223
-3 253 -1 259 13 4 9 9 93 11 186 4 193 18 278 73 439 52 156 97 260 214 501
93 192 108 217 177 290 87 94 207 197 374 320 216 160 285 223 443 405 l30 34
58 -49 c223 -187 372 -377 479 -607 28 -60 53 -107 56 -105 4 1 34 36 67 77
142 176 279 295 480 418 84 52 92 59 87 82 -26 109 -47 148 -103 185 l-38 25
-85 -29 c-96 -32 -162 -64 -250 -121 l-62 -40 -97 148 c-170 259 -277 371
-426 445 l-62 30 -68 -17 c-182 -44 -483 -196 -641 -323 -24 -19 -43 -33 -43
-31 0 2 13 83 30 181 25 150 46 324 76 624 5 52 6 53 47 64 65 17 185 69 400
173 110 53 202 96 207 96 4 0 50 45 103 99 138 144 184 233 252 491 20 74 46
161 57 192 18 52 24 58 61 70 38 12 45 20 89 103 46 88 99 234 112 306 6 36 6
37 -46 58 -94 37 -240 53 -294 31z"/>
<path d="M1987 4596 c-72 -30 -90 -42 -160 -106 -107 -97 -197 -264 -227 -418
-18 -90 -8 -244 19 -307 82 -188 291 -190 480 -5 249 242 308 700 108 824 -67
41 -141 45 -220 12z"/>
<path d="M4433 1729 c-104 -51 -186 -235 -162 -363 5 -27 7 -51 5 -54 -11 -10
-36 109 -42 195 l-7 93 -81 -6 c-114 -8 -110 -5 -103 -73 l5 -59 -84 -7 c-72
-6 -84 -9 -80 -23 3 -10 14 -66 26 -126 47 -245 105 -322 247 -334 l52 -4 -24
-65 c-42 -110 -192 -399 -294 -566 -22 -37 -41 -71 -41 -75 0 -4 26 -23 58
-41 31 -19 67 -41 78 -48 21 -13 25 -8 97 114 41 70 92 159 112 196 l38 69 29
-69 c38 -89 161 -312 172 -313 16 0 156 81 156 91 0 5 -18 42 -41 82 -68 119
-128 252 -146 320 l-17 65 36 129 c41 143 53 197 68 295 10 62 14 71 56 110
50 46 90 115 110 193 22 79 18 134 -13 196 -48 94 -122 122 -210 78z"/>
</g>
</svg>
