<?xml version="1.0" standalone="no"?>
<!DOCTYPE svg PUBLIC "-//W3C//DTD SVG 20010904//EN"
 "http://www.w3.org/TR/2001/REC-SVG-20010904/DTD/svg10.dtd">
<svg version="1.0" xmlns="http://www.w3.org/2000/svg"
 width="512.000000pt" height="512.000000pt" viewBox="0 0 512.000000 512.000000"
 preserveAspectRatio="xMidYMid meet">
<metadata>
Created by potrace 1.15, written by Peter Selinger 2001-2017
</metadata>
<g transform="translate(0.000000,512.000000) scale(0.100000,-0.100000)"
fill="#ffffff" stroke="none">
<path d="M4170 4893 c-105 -18 -103 -21 39 -42 186 -28 289 -125 266 -248 -29
-155 -254 -373 -444 -428 -235 -70 -419 -172 -550 -306 -75 -77 -112 -144
-118 -220 -5 -53 -9 -61 -38 -79 -45 -28 -101 -92 -121 -137 -9 -21 -17 -67
-17 -104 -2 -148 102 -260 281 -304 77 -18 205 -28 197 -15 -3 5 -15 10 -26
10 -11 0 -41 11 -67 24 -202 103 -162 345 61 363 75 6 171 -17 305 -75 184
-79 318 -196 389 -339 36 -72 38 -83 38 -168 0 -84 -2 -95 -30 -140 -76 -123
-236 -139 -421 -43 -161 83 -191 96 -259 113 -90 23 -223 23 -301 0 -32 -9
-91 -34 -129 -55 -181 -98 -316 -87 -374 32 -48 99 -6 213 105 287 57 37 47
39 -39 8 -232 -85 -321 -239 -237 -415 35 -74 112 -153 176 -179 24 -10 44
-21 44 -25 0 -10 -94 -75 -188 -129 -257 -147 -592 -219 -811 -175 -270 55
-402 224 -371 472 17 136 14 134 75 66 32 -35 78 -72 117 -92 54 -29 73 -34
133 -34 82 -1 132 21 186 81 48 53 74 98 104 178 27 72 29 110 2 60 -20 -39
-83 -98 -127 -120 -43 -22 -126 -23 -167 -2 -101 53 -128 173 -68 305 33 72
37 76 175 187 119 94 178 161 225 253 25 47 29 51 44 39 9 -8 36 -25 61 -38
38 -20 59 -24 140 -24 80 0 103 4 143 24 100 49 175 146 212 276 15 49 16 79
10 184 -13 210 -10 262 17 316 75 152 254 152 343 1 14 -24 28 -64 31 -90 12
-86 24 -58 24 57 0 132 -16 197 -63 258 -76 99 -227 122 -371 56 -180 -82
-244 -272 -181 -532 27 -111 14 -205 -39 -286 -27 -40 -89 -79 -126 -79 -39 0
-97 39 -128 86 -35 52 -42 70 -72 207 -83 374 -463 751 -913 906 -304 105
-670 106 -894 1 -83 -38 -156 -108 -194 -186 -26 -53 -31 -75 -31 -136 0 -42
7 -92 16 -117 52 -142 207 -248 401 -273 124 -16 205 -42 251 -82 98 -83 99
-197 5 -278 -52 -44 -114 -63 -186 -55 -72 7 -62 -7 23 -34 83 -25 203 -35
258 -20 142 38 219 215 170 385 -49 166 -166 242 -411 267 -149 14 -227 41
-280 94 -73 72 -73 140 -2 211 80 79 216 110 447 101 200 -7 347 -45 523 -133
l71 -36 -36 -19 c-51 -26 -129 -108 -158 -166 -32 -64 -40 -175 -15 -224 45
-88 121 -149 240 -194 87 -33 109 -32 54 4 -89 56 -138 145 -126 231 26 193
293 209 440 25 108 -135 186 -351 174 -479 -15 -148 -59 -215 -233 -358 -230
-188 -377 -356 -469 -538 -114 -225 -215 -293 -360 -244 -68 24 -156 113 -185
190 -49 127 -19 239 88 334 69 61 122 81 161 59 39 -22 55 -64 61 -164 l6 -90
27 57 c101 208 26 372 -168 373 -98 0 -183 -42 -259 -128 -144 -162 -175 -371
-82 -556 l25 -49 -45 -17 c-139 -53 -245 -240 -232 -410 11 -125 74 -213 182
-254 67 -25 212 -28 311 -7 l60 12 -55 8 c-155 21 -259 129 -260 269 0 61 21
117 57 149 52 48 151 60 253 33 79 -22 195 -20 264 3 l56 19 0 -36 c0 -20 7
-64 15 -96 56 -221 232 -394 475 -465 110 -33 186 -75 257 -143 110 -105 158
-243 134 -382 -39 -223 -196 -349 -436 -349 -117 -1 -189 18 -261 66 -92 63
-127 133 -110 223 9 45 68 112 121 136 44 21 139 25 195 9 l35 -9 -22 18 c-13
11 -62 33 -110 51 -120 43 -216 45 -296 6 -102 -50 -151 -145 -151 -297 -1
-88 2 -100 32 -162 19 -39 50 -81 75 -103 39 -34 149 -94 173 -94 21 0 93 -71
113 -113 69 -142 -55 -300 -234 -299 -72 0 -133 23 -188 72 -21 18 -40 31 -42
28 -9 -9 92 -143 144 -191 149 -139 328 -136 460 8 92 102 136 237 113 352 -6
32 -14 68 -17 79 -6 20 -2 22 52 29 32 3 98 20 146 36 49 16 90 29 93 29 2 0
4 -13 4 -28 0 -46 57 -148 104 -187 74 -60 150 -89 236 -89 112 -1 177 41 231
146 25 50 49 157 49 223 l0 50 -24 -58 c-33 -79 -50 -103 -97 -134 -47 -31
-133 -42 -179 -23 -41 17 -87 71 -99 117 -6 21 -11 63 -11 93 1 53 6 73 65
225 35 92 44 228 21 334 -18 85 -73 202 -122 259 -19 22 -34 42 -34 45 0 3 31
12 69 21 138 31 366 126 454 188 16 11 29 19 31 17 1 -2 11 -35 20 -72 36
-133 121 -231 261 -298 261 -126 545 -32 664 221 23 48 26 68 26 155 0 85 -4
107 -24 149 -50 101 -172 136 -279 82 -49 -25 -157 -115 -148 -123 3 -3 33 4
68 15 94 30 125 33 163 18 44 -19 59 -48 52 -105 -12 -96 -82 -203 -161 -243
-95 -49 -237 -31 -332 41 -103 78 -134 182 -84 287 36 75 179 214 265 256 101
50 157 63 265 62 78 -1 109 -6 170 -29 266 -99 444 -346 458 -635 5 -126 -13
-237 -65 -390 -49 -146 -84 -207 -174 -303 -202 -216 -456 -315 -581 -226 -17
12 -42 46 -56 77 -21 46 -24 69 -24 146 1 50 5 112 10 138 5 27 6 48 2 48 -12
0 -87 -177 -109 -260 -14 -49 -21 -105 -21 -161 0 -75 4 -94 28 -140 22 -43
38 -59 82 -82 52 -27 60 -29 150 -24 75 3 112 11 176 36 94 36 233 125 319
204 l60 54 -33 -66 c-109 -222 -122 -445 -33 -568 91 -126 286 -136 456 -24
66 44 144 119 110 107 -43 -16 -131 -36 -155 -36 -83 0 -162 56 -201 143 -22
47 -24 65 -23 192 1 189 15 240 153 555 62 142 72 158 124 216 83 91 172 117
252 71 99 -56 128 -174 72 -297 -12 -25 -23 -49 -25 -55 -2 -5 20 15 48 45 98
106 147 247 120 345 -39 139 -246 243 -402 203 l-58 -15 0 66 c0 173 -41 354
-115 508 l-44 92 37 6 c116 18 194 57 262 132 62 67 96 141 111 234 26 169
119 256 218 205 36 -19 94 -84 123 -138 l23 -43 3 35 c6 55 -18 146 -52 202
-74 124 -204 146 -357 61 -3 -2 -24 27 -45 64 -53 91 -188 224 -296 291 -48
30 -138 74 -200 98 -179 71 -208 86 -240 123 -25 28 -29 40 -24 69 11 73 127
171 247 211 242 79 601 35 727 -90 87 -85 91 -177 15 -302 -19 -32 -33 -60
-32 -62 8 -7 117 73 166 122 28 29 66 82 84 119 28 56 33 78 34 138 0 60 -4
79 -29 124 -78 141 -270 198 -536 158 -52 -8 -96 -14 -97 -12 -1 1 33 25 76
53 150 100 283 252 331 379 23 64 26 159 6 207 -20 48 -73 94 -135 119 -75 29
-265 34 -401 11z"/>
</g>
</svg>
