<?xml version="1.0" standalone="no"?>
<!DOCTYPE svg PUBLIC "-//W3C//DTD SVG 20010904//EN"
 "http://www.w3.org/TR/2001/REC-SVG-20010904/DTD/svg10.dtd">
<svg version="1.0" xmlns="http://www.w3.org/2000/svg"
 width="512.000000pt" height="512.000000pt" viewBox="0 0 512.000000 512.000000"
 preserveAspectRatio="xMidYMid meet">
<metadata>
Created by potrace 1.15, written by Peter Selinger 2001-2017
</metadata>
<g transform="translate(0.000000,512.000000) scale(0.100000,-0.100000)"
fill="#ffffff" stroke="none">
<path d="M2391 4929 c-175 -34 -358 -217 -425 -425 -9 -29 -20 -75 -25 -103
l-8 -51 111 -68 c61 -38 116 -72 122 -75 5 -3 66 12 135 34 68 21 125 39 127
39 6 0 1 -64 -9 -112 -21 -102 6 -94 -346 -101 -271 -5 -614 -24 -785 -43 -47
-5 -57 -10 -62 -28 -15 -60 -38 -417 -40 -607 l-1 -215 -205 -45 c-148 -32
-205 -48 -205 -58 0 -25 108 -89 203 -121 117 -39 315 -62 336 -39 13 13 117
341 150 475 25 100 44 205 52 293 6 78 8 82 28 77 95 -27 332 -58 473 -63
l161 -6 11 -76 c6 -42 17 -136 26 -208 15 -137 38 -260 58 -321 12 -34 13 -35
167 -82 85 -26 227 -73 314 -104 88 -31 163 -53 167 -49 21 24 96 410 135 701
l18 134 427 -4 428 -3 5 29 c9 45 7 254 -5 579 -7 164 -10 300 -7 302 3 3 38
15 79 26 95 26 184 76 257 144 l57 53 -45 13 c-71 22 -355 19 -456 -5 l-80
-18 -36 -400 c-21 -220 -39 -402 -41 -404 -2 -2 -57 7 -123 21 -192 39 -355
57 -570 62 l-202 6 -17 84 c-9 47 -15 86 -13 88 2 1 62 -15 133 -36 143 -42
196 -47 216 -23 16 20 25 129 11 138 -6 3 -38 10 -72 14 -33 5 -68 16 -77 24
-8 9 -21 41 -28 72 l-13 56 79 0 c43 0 79 2 79 5 0 3 -13 34 -29 70 -112 245
-395 402 -640 354z"/>
<path d="M2299 2783 c-70 -157 -479 -1191 -479 -1212 0 -6 69 14 153 43 83 30
238 84 342 121 105 37 371 130 592 208 222 78 403 147 402 152 0 6 -93 136
-207 290 l-207 280 -255 87 c-140 48 -267 90 -283 93 -26 6 -29 3 -58 -62z"/>
<path d="M3165 1851 c-99 -37 -199 -76 -223 -87 l-42 -19 83 -146 c82 -144
122 -204 179 -265 l29 -31 -10 -84 c-16 -119 -14 -168 9 -241 23 -76 59 -132
141 -222 67 -73 222 -206 311 -267 l56 -38 -19 -62 c-26 -82 -25 -149 2 -183
l20 -26 299 0 c297 0 299 0 314 22 17 24 20 56 10 105 -6 30 -7 30 -85 36 -92
7 -159 33 -245 93 -148 104 -239 248 -476 754 -31 65 -36 89 -42 180 -14 206
-86 550 -115 550 -9 -1 -97 -31 -196 -69z"/>
<path d="M1957 1426 c-212 -76 -264 -99 -295 -127 -20 -19 -59 -52 -86 -74
-68 -54 -90 -77 -134 -143 -53 -78 -129 -230 -229 -462 -46 -107 -98 -219
-115 -249 -22 -40 -30 -67 -30 -103 1 -97 -35 -89 365 -86 l352 3 3 25 c2 13
-1 40 -7 60 l-10 36 -110 11 c-124 13 -193 38 -239 86 l-31 32 24 60 c34 83
99 174 210 296 52 57 132 146 178 198 45 52 93 103 107 115 78 65 185 184 248
278 81 119 90 138 71 137 -8 0 -130 -42 -272 -93z"/>
</g>
</svg>
