<?xml version="1.0" standalone="no"?>
<!DOCTYPE svg PUBLIC "-//W3C//DTD SVG 20010904//EN"
 "http://www.w3.org/TR/2001/REC-SVG-20010904/DTD/svg10.dtd">
<svg version="1.0" xmlns="http://www.w3.org/2000/svg"
 width="512.000000pt" height="512.000000pt" viewBox="0 0 512.000000 512.000000"
 preserveAspectRatio="xMidYMid meet">
<metadata>
Created by potrace 1.15, written by Peter Selinger 2001-2017
</metadata>
<g transform="translate(0.000000,512.000000) scale(0.100000,-0.100000)"
fill="#ffffff" stroke="none">
<path d="M4517 4954 c-5 -9 -80 -275 -120 -429 l-24 -89 -7 42 c-13 83 -139
421 -157 422 -10 0 -87 -179 -124 -289 -64 -191 -65 -273 -9 -453 27 -85 123
-318 131 -318 2 0 17 28 33 63 16 34 29 59 30 56 0 -4 -7 -42 -14 -85 -42
-225 -50 -312 -50 -514 0 -230 14 -343 85 -695 43 -213 72 -336 146 -612 l45
-171 -30 -94 c-84 -254 -98 -380 -62 -549 28 -132 136 -459 151 -459 12 0 107
276 140 405 53 210 44 315 -52 611 -48 149 -49 151 -35 200 118 404 229 963
251 1264 20 268 -78 840 -255 1487 -53 193 -63 222 -73 207z"/>
<path d="M1030 4658 c-39 -164 -100 -470 -100 -502 0 -49 -14 -32 -42 52 -43
127 -110 274 -120 264 -15 -15 -85 -184 -123 -298 -48 -146 -55 -237 -26 -359
22 -92 124 -360 146 -383 10 -11 20 5 54 83 23 52 51 119 61 148 l19 52 0 -41
c3 -162 150 -921 171 -883 9 16 76 302 86 367 l7 42 39 -97 c40 -100 148 -314
180 -355 17 -23 17 -23 32 -3 32 43 176 335 207 420 61 169 42 309 -76 547
-58 116 -138 258 -146 258 -5 0 -109 -178 -141 -244 -14 -26 -15 -19 -21 110
-4 77 -16 202 -27 279 -33 218 -123 650 -140 668 -4 5 -22 -51 -40 -125z"/>
<path d="M2546 4712 c-64 -110 -160 -315 -186 -397 -32 -103 -29 -196 9 -315
29 -90 124 -293 192 -409 l31 -54 31 49 c98 155 203 397 226 521 19 96 -13
219 -105 413 -50 104 -141 270 -149 270 -2 0 -24 -35 -49 -78z"/>
<path d="M3481 4403 c-142 -636 -152 -843 -61 -1328 15 -82 27 -151 26 -152
-1 -1 -26 47 -56 107 -30 61 -57 110 -61 110 -4 0 -31 -46 -60 -102 l-53 -103
-23 150 c-22 143 -100 526 -125 610 l-11 40 -14 -45 c-25 -84 -102 -454 -129
-625 -36 -223 -38 -441 -5 -650 12 -77 27 -174 32 -215 28 -214 43 -284 83
-404 47 -139 114 -302 176 -425 l37 -76 6 -170 c6 -173 30 -355 82 -605 41
-204 78 -360 85 -360 15 0 114 465 151 710 28 184 29 387 5 563 l-18 127 46
123 c142 381 144 522 11 875 l-45 120 29 134 c97 438 126 667 110 881 -12 159
-63 466 -119 711 -22 99 -40 181 -40 183 0 2 -4 3 -8 3 -5 0 -28 -84 -51 -187z"/>
<path d="M2051 3948 c-113 -570 -187 -1091 -198 -1393 -6 -185 6 -405 38 -653
10 -84 19 -156 19 -160 0 -4 -25 56 -54 133 -62 163 -123 306 -136 319 -10 10
-35 -42 -120 -254 -144 -357 -209 -617 -197 -786 12 -171 88 -436 213 -747 76
-187 93 -222 104 -211 4 5 33 68 63 139 100 238 172 444 208 600 12 49 24 98
27 108 4 10 24 -69 46 -184 24 -125 42 -196 47 -188 9 17 111 530 130 657 l13
84 36 -184 c38 -187 93 -406 153 -603 79 -259 111 -355 118 -355 8 0 62 160
128 375 95 313 170 645 191 844 25 231 -29 568 -166 1046 -88 304 -145 470
-155 454 -12 -18 -105 -307 -149 -461 -19 -65 -36 -116 -38 -114 -2 2 -8 78
-13 168 -19 344 -81 780 -195 1373 -26 132 -50 243 -53 248 -4 4 -31 -111 -60
-255z"/>
<path d="M4090 2880 c-25 -93 -82 -350 -105 -476 -71 -385 -72 -557 -4 -959
25 -152 108 -527 118 -538 12 -12 104 401 140 628 48 302 47 446 -4 765 -32
193 -118 607 -130 618 -2 2 -9 -15 -15 -38z"/>
<path d="M407 2024 c-41 -171 -88 -407 -113 -574 -24 -153 -24 -413 0 -570 35
-232 127 -684 146 -719 9 -17 64 206 111 452 l33 168 13 -53 c19 -73 90 -289
114 -346 l21 -47 13 32 c29 68 106 297 125 372 48 188 44 301 -15 506 -30 102
-115 345 -122 345 -7 0 -41 -87 -82 -205 l-38 -113 -7 76 c-15 161 -130 764
-156 811 -5 9 -22 -44 -43 -135z"/>
</g>
</svg>
