<?xml version="1.0" standalone="no"?>
<!DOCTYPE svg PUBLIC "-//W3C//DTD SVG 20010904//EN"
 "http://www.w3.org/TR/2001/REC-SVG-20010904/DTD/svg10.dtd">
<svg version="1.0" xmlns="http://www.w3.org/2000/svg"
 width="512.000000pt" height="512.000000pt" viewBox="0 0 512.000000 512.000000"
 preserveAspectRatio="xMidYMid meet">
<metadata>
Created by potrace 1.15, written by Peter Selinger 2001-2017
</metadata>
<g transform="translate(0.000000,512.000000) scale(0.100000,-0.100000)"
fill="#ffffff" stroke="none">
<path d="M1050 4941 c-251 -77 -353 -442 -223 -800 33 -93 126 -234 196 -296
l52 -48 6 199 c9 285 45 437 145 607 45 77 131 172 185 204 16 10 29 22 29 28
0 17 -86 64 -165 90 -75 25 -172 32 -225 16z"/>
<path d="M2521 4930 c-1 -8 6 -58 14 -110 35 -226 30 -434 -15 -628 -20 -82
-96 -292 -107 -292 -21 0 -130 81 -167 123 -96 113 -132 240 -124 434 3 62 2
113 -2 113 -12 0 -74 -88 -102 -145 -51 -103 -98 -285 -98 -381 0 -19 -4 -34
-9 -34 -16 0 -90 91 -121 149 -26 47 -53 115 -77 191 -13 41 -65 -141 -83
-290 -36 -299 35 -615 186 -827 25 -35 48 -62 51 -60 2 3 -4 42 -13 88 -21
104 -14 261 16 367 17 63 84 212 93 212 2 0 4 -39 4 -87 1 -104 21 -192 67
-288 56 -116 56 -116 99 -53 41 60 72 141 88 235 9 52 14 62 25 52 38 -32 104
-230 104 -314 0 -14 4 -25 8 -25 20 0 74 71 105 139 l34 73 19 -68 c21 -75 26
-264 11 -339 l-9 -40 37 50 c263 358 287 1157 49 1640 -37 77 -83 140 -83 115z"/>
<path d="M3190 4825 c0 -2 11 -37 24 -77 74 -220 45 -590 -78 -1023 -19 -66
-33 -121 -32 -122 7 -7 134 132 164 179 136 213 200 430 189 637 -9 155 -41
241 -123 324 -42 43 -144 101 -144 82z"/>
<path d="M4711 4065 c-244 -257 -385 -498 -426 -729 -19 -111 -19 -181 0 -287
17 -95 34 -144 98 -279 55 -117 74 -179 87 -289 19 -154 -25 -312 -111 -406
-136 -148 -294 -103 -344 97 -35 139 -28 271 31 618 64 376 67 565 13 732 -22
68 -77 178 -89 178 -4 0 -14 -36 -23 -80 -28 -146 -90 -244 -172 -276 -55 -21
-99 -13 -154 26 -61 45 -99 118 -126 245 l-7 30 -50 -55 c-111 -120 -123 -204
-55 -383 70 -187 54 -273 -76 -393 -78 -72 -122 -94 -193 -94 -53 0 -59 2 -99
43 -54 54 -75 119 -75 238 0 104 20 215 59 332 17 48 26 87 22 87 -5 0 -37
-33 -73 -72 -294 -333 -448 -719 -465 -1168 -18 -498 138 -1000 433 -1392 56
-75 213 -242 221 -235 2 3 -16 33 -41 69 -95 135 -176 332 -213 515 -25 126
-25 444 0 563 34 156 100 323 172 430 l36 55 -6 -49 c-12 -88 -7 -279 9 -355
52 -250 214 -363 340 -237 113 113 166 359 152 714 -4 117 -3 171 4 167 19
-12 110 -154 150 -234 22 -43 52 -119 67 -167 25 -82 27 -102 27 -264 0 -160
-3 -184 -28 -274 -30 -111 -88 -265 -140 -371 -19 -38 -34 -71 -33 -72 9 -8
151 66 225 116 213 146 405 353 497 537 l33 66 15 -28 c25 -50 68 -176 87
-259 71 -307 40 -613 -87 -854 -25 -47 -56 -100 -69 -118 -26 -34 -29 -43 -15
-43 12 0 120 132 180 222 117 175 203 369 341 774 165 480 162 766 -15 1509
-80 337 -102 454 -116 608 -17 197 8 357 81 515 21 45 35 82 30 82 -4 0 -53
-47 -109 -105z"/>
<path d="M1157 3550 c28 -422 -15 -758 -120 -929 -149 -242 -379 -127 -452
224 -20 96 -23 303 -6 424 7 45 10 85 8 87 -2 2 -29 -33 -59 -78 -159 -237
-266 -543 -308 -878 -14 -120 -12 -396 5 -521 34 -260 108 -472 228 -651 46
-70 78 -102 64 -63 -21 53 -39 250 -40 425 -1 227 21 383 79 559 31 95 100
238 110 229 2 -2 -3 -56 -12 -119 -20 -146 -20 -387 1 -501 17 -99 54 -220 98
-327 l31 -73 19 23 c32 40 75 134 104 226 26 84 27 99 28 296 0 114 1 207 2
207 0 0 24 -36 52 -80 57 -88 153 -277 226 -445 27 -60 52 -114 57 -120 5 -5
30 13 63 45 56 55 122 167 146 248 7 23 15 42 19 42 9 0 43 -118 67 -230 14
-67 18 -130 18 -297 0 -117 3 -213 6 -213 10 0 142 150 176 200 212 314 283
776 189 1231 -25 118 -70 260 -102 320 l-18 34 -8 -85 c-17 -210 -135 -439
-322 -625 -91 -90 -209 -175 -243 -175 -7 0 8 42 37 103 265 560 257 1019 -25
1436 -35 53 -78 112 -95 131 l-30 35 7 -115z"/>
</g>
</svg>
