<?xml version="1.0" standalone="no"?>
<!DOCTYPE svg PUBLIC "-//W3C//DTD SVG 20010904//EN"
 "http://www.w3.org/TR/2001/REC-SVG-20010904/DTD/svg10.dtd">
<svg version="1.0" xmlns="http://www.w3.org/2000/svg"
 width="512.000000pt" height="512.000000pt" viewBox="0 0 512.000000 512.000000"
 preserveAspectRatio="xMidYMid meet">
<metadata>
Created by potrace 1.15, written by Peter Selinger 2001-2017
</metadata>
<g transform="translate(0.000000,512.000000) scale(0.100000,-0.100000)"
fill="#ffffff" stroke="none">
<path d="M2265 4895 c-277 -51 -526 -176 -705 -355 -98 -97 -173 -206 -254
-367 -257 -516 -320 -1028 -163 -1328 41 -79 146 -184 217 -217 68 -32 162
-57 245 -65 35 -3 68 -8 73 -12 6 -4 -2 -50 -19 -116 -25 -99 -28 -127 -29
-281 -1 -366 69 -842 171 -1159 142 -444 319 -691 564 -785 50 -20 79 -23 175
-23 100 0 124 3 182 26 131 51 237 142 338 291 209 311 351 859 390 1508 13
211 6 306 -34 450 -13 49 -21 88 -18 88 4 0 51 7 104 15 274 41 432 179 500
433 24 92 28 301 9 427 -32 207 -104 423 -215 649 -181 366 -357 555 -655 701
-94 46 -173 74 -308 106 -116 28 -445 36 -568 14z m-428 -1249 c218 -58 360
-268 326 -484 -32 -206 -193 -353 -403 -369 -305 -23 -540 286 -436 572 29 80
65 134 125 187 107 94 254 129 388 94z m1616 -1 c128 -33 225 -113 284 -233
37 -74 38 -79 38 -186 0 -105 -2 -115 -33 -181 -78 -165 -245 -265 -422 -252
-208 16 -365 159 -402 367 -52 296 241 562 535 485z m-776 -871 c195 -40 370
-185 469 -389 77 -160 98 -292 83 -546 -21 -378 -97 -745 -202 -973 -135 -292
-359 -431 -587 -365 -74 22 -128 57 -206 134 -71 71 -87 94 -142 205 -130 264
-206 631 -219 1055 -4 153 -2 207 11 277 31 166 101 302 211 413 167 169 367
234 582 189z"/>
<path d="M1659 3297 c-61 -41 -76 -105 -39 -165 54 -89 193 -71 220 27 14 54
-5 109 -49 138 -43 29 -89 29 -132 0z"/>
<path d="M3302 3300 c-93 -57 -66 -205 40 -225 68 -13 148 48 148 113 0 67
-62 132 -125 132 -16 0 -45 -9 -63 -20z"/>
<path d="M2440 2596 c-73 -20 -140 -58 -201 -114 -55 -51 -119 -137 -119 -160
0 -9 111 -12 436 -12 l435 0 -23 42 c-32 58 -119 150 -178 188 -100 64 -240
86 -350 56z"/>
<path d="M2280 861 c0 -18 90 -127 124 -150 117 -78 236 -64 336 38 30 32 63
72 73 89 l18 32 -275 0 c-157 0 -276 -4 -276 -9z"/>
</g>
</svg>
