<?xml version="1.0" standalone="no"?>
<!DOCTYPE svg PUBLIC "-//W3C//DTD SVG 20010904//EN"
 "http://www.w3.org/TR/2001/REC-SVG-20010904/DTD/svg10.dtd">
<svg version="1.0" xmlns="http://www.w3.org/2000/svg"
 width="512.000000pt" height="512.000000pt" viewBox="0 0 512.000000 512.000000"
 preserveAspectRatio="xMidYMid meet">
<metadata>
Created by potrace 1.15, written by Peter Selinger 2001-2017
</metadata>
<g transform="translate(0.000000,512.000000) scale(0.100000,-0.100000)"
fill="#ffffff" stroke="none">
<path d="M1955 4896 c-166 -52 -193 -156 -90 -341 38 -68 118 -296 107 -306
-7 -6 -154 -44 -160 -41 -2 1 -20 50 -41 110 -43 126 -79 193 -133 245 -34 32
-45 37 -87 37 -143 0 -351 -181 -351 -306 0 -83 87 -182 222 -254 l58 -31 -41
-80 -40 -80 -37 22 c-181 107 -310 159 -396 159 -47 0 -58 -4 -85 -30 -55 -55
-110 -207 -111 -303 0 -52 25 -103 64 -126 41 -26 138 -51 196 -51 25 0 62 -3
83 -6 l37 -7 0 -86 0 -86 -147 -1 c-230 -1 -256 -21 -257 -202 l-1 -93 37 -34
c62 -57 179 -78 403 -73 l154 3 7 -83 c3 -46 3 -86 -1 -90 -9 -10 -367 -9
-437 1 l-58 8 0 -46 c0 -25 6 -58 14 -74 23 -44 88 -97 152 -122 l59 -24 600
-3 c678 -3 651 -6 725 74 57 61 81 121 126 307 21 86 41 157 44 157 3 0 25
-64 49 -142 58 -188 89 -257 146 -317 80 -85 49 -82 715 -79 l585 3 65 31
c115 54 180 130 180 210 0 29 -3 35 -16 30 -9 -3 -47 -11 -86 -17 -73 -11
-391 -9 -403 3 -4 4 -4 44 -1 90 l7 83 154 -3 c224 -5 341 16 403 73 l37 34
-1 93 c-1 181 -27 201 -256 202 l-148 1 0 86 0 86 38 7 c20 3 57 6 82 6 58 0
155 25 196 51 39 23 64 74 64 126 -1 97 -56 248 -113 304 -30 30 -33 31 -101
27 -84 -6 -158 -34 -309 -119 -60 -33 -109 -59 -110 -57 -1 2 -19 38 -39 80
l-37 77 57 31 c135 72 222 172 222 254 0 123 -208 306 -346 306 -48 0 -57 -4
-92 -37 -54 -53 -90 -119 -134 -247 -21 -61 -41 -110 -45 -109 -5 1 -39 10
-78 19 -38 9 -73 19 -77 23 -13 12 72 245 119 326 40 69 47 89 51 145 4 86
-17 121 -96 158 -52 25 -68 27 -177 27 -112 0 -123 -2 -166 -27 -127 -74 -200
-234 -228 -500 -6 -54 -11 -192 -11 -308 l0 -210 -89 0 -88 0 -6 263 c-5 281
-17 381 -63 518 -42 129 -132 234 -222 259 -50 14 -198 12 -247 -4z"/>
<path d="M2523 2454 c-38 -39 -84 -73 -128 -95 l-69 -34 -261 -5 -260 -5 91
-75 c49 -41 268 -221 486 -400 l396 -325 -177 -6 c-97 -4 -279 -7 -406 -8
-193 -1 -227 -3 -215 -14 26 -24 2161 -1330 2165 -1325 3 3 -157 246 -355 541
l-360 537 37 -5 c61 -8 506 -45 509 -42 2 2 -168 255 -377 562 l-380 560 -192
5 c-188 5 -193 6 -252 35 -35 17 -88 57 -126 95 l-66 65 -60 -61z"/>
</g>
</svg>
