<?xml version="1.0" standalone="no"?>
<!DOCTYPE svg PUBLIC "-//W3C//DTD SVG 20010904//EN"
 "http://www.w3.org/TR/2001/REC-SVG-20010904/DTD/svg10.dtd">
<svg version="1.0" xmlns="http://www.w3.org/2000/svg"
 width="512.000000pt" height="512.000000pt" viewBox="0 0 512.000000 512.000000"
 preserveAspectRatio="xMidYMid meet">
<metadata>
Created by potrace 1.15, written by Peter Selinger 2001-2017
</metadata>
<g transform="translate(0.000000,512.000000) scale(0.100000,-0.100000)"
fill="#ffffff" stroke="none">
<path d="M2660 2980 l0 -1842 68 6 c251 25 472 102 599 209 60 51 128 136 145
183 6 19 17 34 22 34 6 0 45 -12 88 -26 l77 -25 -16 -37 c-26 -63 -97 -165
-154 -220 -172 -169 -412 -264 -757 -297 l-72 -8 0 -328 0 -329 23 4 c12 3 49
8 82 11 33 4 95 15 137 26 709 178 1242 869 1394 1804 21 133 30 524 15 681
-103 1073 -759 1892 -1593 1989 l-58 6 0 -1841z m805 -196 c171 -85 245 -283
167 -448 -37 -78 -91 -131 -171 -169 -168 -79 -361 -6 -446 168 -25 51 -30 72
-30 140 0 98 30 170 98 239 105 104 257 132 382 70z"/>
<path d="M3278 2631 c-47 -15 -85 -49 -102 -91 -21 -54 -20 -85 5 -136 54
-113 218 -120 279 -12 41 74 17 182 -49 221 -35 20 -98 29 -133 18z"/>
<path d="M2375 4803 c-289 -35 -471 -93 -674 -211 -510 -298 -835 -888 -956
-1737 -32 -228 -38 -477 -14 -553 25 -76 90 -123 250 -182 142 -52 204 -105
228 -195 6 -22 49 -361 96 -754 65 -543 89 -719 101 -732 36 -40 161 -77 347
-104 121 -18 600 -39 675 -30 l52 6 0 205 0 204 -85 0 -85 0 0 120 0 120 -80
0 -80 0 0 -120 0 -120 -90 0 -90 0 0 120 0 120 -75 0 -75 0 0 -120 0 -120 -90
0 -90 0 0 120 0 120 -90 0 -90 0 0 90 0 90 90 0 90 0 0 120 0 120 90 0 90 0 0
-120 0 -120 75 0 75 0 0 120 0 120 90 0 90 0 0 -120 0 -120 80 0 80 0 0 120 0
120 85 0 85 0 0 160 c0 104 -4 160 -10 160 -6 0 -91 -20 -190 -45 -99 -25
-184 -45 -189 -45 -6 0 44 87 111 192 67 106 157 249 200 318 l78 125 0 1282
0 1283 -37 -1 c-21 -1 -51 -4 -68 -6z m-358 -1974 c102 -14 201 -46 228 -73
60 -60 83 -380 36 -499 -48 -123 -123 -184 -289 -237 -123 -40 -201 -50 -298
-39 -266 29 -439 275 -460 654 l-7 112 29 20 c56 39 151 61 334 77 71 6 343
-3 427 -15z"/>
</g>
</svg>
