<?xml version="1.0" standalone="no"?>
<!DOCTYPE svg PUBLIC "-//W3C//DTD SVG 20010904//EN"
 "http://www.w3.org/TR/2001/REC-SVG-20010904/DTD/svg10.dtd">
<svg version="1.0" xmlns="http://www.w3.org/2000/svg"
 width="512.000000pt" height="512.000000pt" viewBox="0 0 512.000000 512.000000"
 preserveAspectRatio="xMidYMid meet">
<metadata>
Created by potrace 1.15, written by Peter Selinger 2001-2017
</metadata>
<g transform="translate(0.000000,512.000000) scale(0.100000,-0.100000)"
fill="#ffffff" stroke="none">
<path d="M2550 4870 c-184 -683 -181 -675 -563 -1410 -41 -80 -90 -188 -108
-240 -32 -89 -34 -104 -34 -225 0 -108 4 -143 23 -205 94 -302 347 -503 653
-518 174 -8 304 25 439 113 101 65 183 155 243 265 102 188 113 410 31 618
-31 78 -108 234 -169 342 -212 377 -323 653 -435 1075 -64 242 -64 243 -80
185z m-20 -846 c-12 -71 -46 -244 -75 -384 -84 -400 -90 -474 -45 -593 30 -80
111 -165 192 -203 56 -26 74 -29 163 -29 89 0 106 3 156 28 57 28 132 91 161
137 15 24 16 24 11 -25 -6 -70 -38 -171 -70 -228 -47 -80 -139 -164 -228 -208
-155 -76 -310 -76 -465 2 -235 118 -347 384 -264 627 14 42 78 178 142 302
159 307 241 475 293 601 24 59 45 106 47 104 2 -1 -7 -60 -18 -131z"/>
<path d="M555 2588 c-157 -436 -354 -1013 -348 -1018 4 -5 175 -68 378 -140
358 -127 482 -172 780 -279 390 -140 623 -221 633 -221 8 0 12 18 12 46 0 61
25 154 62 234 43 91 157 203 256 250 50 24 71 40 68 50 -10 36 -235 521 -242
523 -5 1 -49 -114 -99 -255 -49 -142 -92 -258 -95 -258 -3 0 -76 156 -162 347
-86 191 -160 349 -165 350 -5 2 -49 -112 -98 -252 -50 -140 -93 -255 -96 -255
-3 0 -77 158 -164 350 -87 193 -161 350 -164 350 -3 0 -49 -121 -101 -270 -52
-148 -97 -270 -100 -270 -3 0 -79 164 -170 365 -91 200 -169 365 -173 365 -4
0 -10 -6 -12 -12z"/>
<path d="M4390 2235 c-91 -201 -167 -365 -170 -365 -3 0 -48 122 -100 270 -52
149 -97 270 -100 270 -4 0 -78 -157 -165 -350 -87 -192 -161 -350 -164 -350
-3 0 -46 115 -95 255 -50 140 -93 255 -97 255 -4 0 -78 -157 -165 -350 -88
-192 -161 -350 -164 -350 -3 0 -45 115 -94 255 -49 141 -92 258 -96 260 -4 2
-78 -152 -165 -343 l-157 -347 -81 -1 c-225 -4 -388 -171 -391 -399 -1 -116
29 -191 108 -271 82 -82 147 -108 271 -109 80 0 97 4 155 31 85 41 152 109
193 195 28 59 37 70 72 83 22 8 270 96 550 196 281 100 540 192 578 206 155
56 217 78 506 180 167 60 305 113 307 118 5 15 -351 1019 -362 1023 -5 1 -83
-162 -174 -362z m-1731 -1143 c46 -34 71 -81 71 -134 0 -100 -71 -170 -170
-170 -125 1 -203 138 -141 249 49 85 163 112 240 55z"/>
</g>
</svg>
