<?xml version="1.0" standalone="no"?>
<!DOCTYPE svg PUBLIC "-//W3C//DTD SVG 20010904//EN"
 "http://www.w3.org/TR/2001/REC-SVG-20010904/DTD/svg10.dtd">
<svg version="1.0" xmlns="http://www.w3.org/2000/svg"
 width="512.000000pt" height="512.000000pt" viewBox="0 0 512.000000 512.000000"
 preserveAspectRatio="xMidYMid meet">
<metadata>
Created by potrace 1.15, written by Peter Selinger 2001-2017
</metadata>
<g transform="translate(0.000000,512.000000) scale(0.100000,-0.100000)"
fill="#ffffff" stroke="none">
<path d="M2547 4760 c-48 -4 -90 -10 -94 -14 -4 -3 -9 -80 -11 -171 l-5 -165
172 0 171 0 0 180 0 180 -72 -1 c-40 -1 -112 -5 -161 -9z"/>
<path d="M1088 4088 c-225 -83 -408 -155 -408 -158 0 -4 188 -120 418 -258
l418 -250 939 31 c517 17 943 35 946 40 3 4 9 128 13 275 3 147 9 313 12 370
l7 102 -969 -1 -969 0 -407 -151z"/>
<path d="M2448 3283 l-48 -4 0 -145 0 -144 148 0 c81 0 171 -3 200 -6 l52 -7
0 157 0 156 -152 -2 c-84 -1 -174 -3 -200 -5z"/>
<path d="M1860 2517 l0 -324 422 -6 c232 -4 687 -7 1012 -7 l591 1 249 142
c137 78 250 147 250 152 0 6 -123 77 -273 159 l-275 148 -970 29 c-534 16
-979 29 -988 29 -17 0 -18 -22 -18 -323z"/>
<path d="M2369 2008 c-2 -7 -48 -1595 -49 -1670 l0 -88 261 0 261 0 -6 73 c-3
39 -8 367 -11 727 -3 360 -8 724 -11 808 l-6 152 -219 0 c-121 0 -219 -1 -220
-2z"/>
</g>
</svg>
