<?xml version="1.0" standalone="no"?>
<!DOCTYPE svg PUBLIC "-//W3C//DTD SVG 20010904//EN"
 "http://www.w3.org/TR/2001/REC-SVG-20010904/DTD/svg10.dtd">
<svg version="1.0" xmlns="http://www.w3.org/2000/svg"
 width="512.000000pt" height="512.000000pt" viewBox="0 0 512.000000 512.000000"
 preserveAspectRatio="xMidYMid meet">
<metadata>
Created by potrace 1.15, written by Peter Selinger 2001-2017
</metadata>
<g transform="translate(0.000000,512.000000) scale(0.100000,-0.100000)"
fill="#ffffff" stroke="none">
<path d="M170 4126 l0 -804 61 -169 c70 -192 155 -387 176 -404 37 -31 199 -3
258 45 l25 21 -96 240 c-53 132 -98 247 -101 256 -3 11 15 23 74 46 43 17 81
28 85 25 5 -6 148 -363 216 -539 14 -36 22 -44 50 -49 18 -4 59 -1 90 5 66 13
202 77 202 94 -1 7 -45 122 -99 257 l-98 245 80 32 c44 18 82 31 84 30 1 -2
54 -131 116 -287 112 -280 114 -284 147 -293 66 -17 242 32 280 77 9 11 -16
82 -115 331 -70 175 -123 320 -118 324 21 19 145 63 153 55 4 -5 52 -119 105
-254 263 -662 436 -1092 454 -1128 43 -84 126 -113 208 -71 60 32 86 77 80
144 -3 36 -98 285 -329 865 -344 863 -425 1067 -430 1088 -2 8 27 25 75 43 43
17 80 29 81 27 2 -1 27 -64 56 -138 29 -74 58 -141 64 -147 17 -19 230 -70
346 -83 127 -15 317 -8 387 14 32 10 69 32 93 55 34 32 40 44 40 80 0 44 -23
110 -43 123 -7 4 -37 8 -67 8 -84 0 -229 27 -338 61 -267 85 -539 255 -789
493 l-91 86 -686 0 -686 0 0 -804z"/>
<path d="M3147 3959 c-82 -11 -194 -47 -258 -83 -144 -81 -266 -264 -314 -470
-82 -352 12 -833 225 -1161 69 -106 197 -231 275 -269 183 -90 295 21 239 237
-8 33 -25 78 -35 100 -11 21 -18 41 -16 44 3 3 37 -26 76 -65 197 -193 202
-450 13 -654 -62 -66 -139 -117 -238 -154 -102 -39 -258 -45 -389 -14 -413 95
-747 498 -915 1104 -16 60 -32 111 -34 113 -17 17 -40 -243 -41 -457 0 -310
35 -539 125 -813 209 -633 689 -1131 1194 -1238 109 -23 282 -25 377 -5 126
27 260 96 355 183 41 38 124 133 124 143 0 3 -43 6 -95 7 -52 1 -114 7 -137
13 -280 70 -548 343 -566 573 -2 37 -2 67 0 67 3 0 22 -7 43 -16 58 -24 298
-83 414 -101 129 -21 439 -23 556 -5 268 43 474 138 620 286 171 173 221 384
150 630 -49 169 -122 296 -286 499 -119 145 -158 220 -166 316 -8 96 15 160
81 227 89 89 236 124 389 92 37 -8 67 -11 67 -7 0 17 -210 204 -284 252 -113
75 -176 99 -268 105 -65 4 -84 1 -123 -18 -89 -43 -128 -125 -127 -270 2 -204
86 -409 282 -690 79 -112 103 -174 104 -271 1 -67 -2 -81 -29 -124 -60 -96
-176 -149 -325 -148 -154 1 -262 55 -401 200 -191 200 -295 441 -306 708 -12
290 104 453 223 312 29 -34 85 -143 103 -200 7 -20 16 -35 21 -32 12 8 58 207
70 308 13 106 0 254 -31 349 -56 171 -192 307 -361 362 -118 38 -264 51 -381
35z"/>
</g>
</svg>
