<?xml version="1.0" standalone="no"?>
<!DOCTYPE svg PUBLIC "-//W3C//DTD SVG 20010904//EN"
 "http://www.w3.org/TR/2001/REC-SVG-20010904/DTD/svg10.dtd">
<svg version="1.0" xmlns="http://www.w3.org/2000/svg"
 width="512.000000pt" height="512.000000pt" viewBox="0 0 512.000000 512.000000"
 preserveAspectRatio="xMidYMid meet">
<metadata>
Created by potrace 1.15, written by Peter Selinger 2001-2017
</metadata>
<g transform="translate(0.000000,512.000000) scale(0.100000,-0.100000)"
fill="#ffffff" stroke="none">
<path d="M1111 4872 c69 -120 63 -205 -16 -238 -90 -37 -331 1 -545 86 -98 39
-249 118 -303 159 -60 47 -67 40 -43 -41 44 -152 215 -337 440 -477 382 -239
794 -306 1029 -168 152 89 70 307 -203 538 -114 97 -318 209 -379 209 -18 0
-16 -7 20 -68z"/>
<path d="M2050 4361 c0 -6 8 -16 19 -23 10 -7 54 -46 97 -86 307 -284 453
-604 373 -817 -82 -219 -328 -288 -586 -164 -185 89 -356 265 -488 505 l-52
93 5 -122 c5 -140 -10 -214 -54 -267 -84 -99 -254 -93 -419 15 -70 46 -207
180 -252 246 -69 100 -125 231 -171 399 l-9 35 -32 -70 c-79 -172 -118 -374
-101 -531 21 -201 89 -333 260 -504 122 -123 227 -206 460 -365 461 -314 609
-481 667 -750 62 -292 -121 -407 -427 -268 -242 110 -500 353 -648 610 -62
107 -48 60 25 -89 82 -166 204 -383 311 -553 393 -623 874 -1080 1397 -1326
179 -84 426 -155 628 -180 136 -16 422 -6 548 20 284 58 543 177 742 340 294
239 487 552 570 918 18 84 22 128 21 303 0 151 -4 229 -17 297 -180 957 -1105
1752 -2646 2274 -216 73 -221 74 -221 60z m1498 -1371 c347 -37 617 -163 838
-392 81 -84 108 -120 142 -190 80 -164 88 -264 25 -306 -82 -53 -306 16 -498
153 -132 94 -255 237 -255 298 0 25 -17 21 -24 -5 -3 -13 -9 -55 -12 -93 -14
-149 51 -307 246 -605 192 -292 246 -423 238 -570 -5 -87 -29 -148 -89 -227
-36 -48 -168 -167 -176 -160 -1 2 6 22 17 45 80 165 61 423 -43 606 -73 126
-202 248 -332 311 -136 67 -346 110 -495 103 l-65 -3 80 -56 c142 -100 283
-239 363 -359 168 -251 217 -558 122 -759 -107 -226 -318 -253 -518 -67 -71
66 -162 183 -202 259 -42 80 -48 64 -29 -88 23 -190 90 -352 184 -446 48 -49
49 -50 20 -43 -62 15 -202 67 -270 101 -191 96 -394 273 -508 445 -312 468
-298 1074 34 1519 67 89 156 186 164 178 2 -2 8 -31 14 -63 40 -218 194 -329
526 -380 432 -66 457 -71 558 -122 38 -20 71 -34 73 -31 8 8 -50 186 -83 252
-86 172 -191 268 -438 400 -158 85 -185 101 -240 141 -30 21 -51 42 -47 46 13
12 138 56 223 77 152 38 296 48 457 31z"/>
<path d="M2369 1993 c137 -81 354 -350 408 -504 35 -102 17 -132 -63 -102 -77
28 -75 29 -63 -5 28 -81 188 -206 311 -243 122 -37 209 -18 263 59 26 38 30
52 30 105 -1 129 -74 256 -232 407 -201 192 -460 320 -648 320 l-70 0 64 -37z"/>
</g>
</svg>
