<?xml version="1.0" standalone="no"?>
<!DOCTYPE svg PUBLIC "-//W3C//DTD SVG 20010904//EN"
 "http://www.w3.org/TR/2001/REC-SVG-20010904/DTD/svg10.dtd">
<svg version="1.0" xmlns="http://www.w3.org/2000/svg"
 width="512.000000pt" height="512.000000pt" viewBox="0 0 512.000000 512.000000"
 preserveAspectRatio="xMidYMid meet">
<metadata>
Created by potrace 1.15, written by Peter Selinger 2001-2017
</metadata>
<g transform="translate(0.000000,512.000000) scale(0.100000,-0.100000)"
fill="#ffffff" stroke="none">
<path d="M3002 4748 c-71 -189 -205 -541 -298 -783 -92 -242 -168 -442 -170
-443 -1 -2 -132 104 -291 236 -206 172 -289 235 -291 223 -1 -9 18 -179 43
-378 25 -199 45 -366 45 -373 0 -23 -203 133 -356 275 -330 306 -654 762 -902
1267 l-77 158 -262 0 -263 0 0 -598 0 -598 68 -65 c276 -270 709 -520 1383
-799 l106 -44 -161 -63 c-88 -34 -305 -117 -481 -183 -176 -67 -347 -132 -380
-145 -33 -13 -150 -58 -260 -100 -110 -42 -204 -80 -208 -84 -4 -4 29 -11 75
-14 46 -4 333 -25 638 -47 305 -22 564 -41 576 -43 19 -2 18 -7 -25 -73 -25
-39 -65 -99 -87 -135 -23 -35 -126 -194 -228 -353 -103 -159 -185 -291 -182
-293 4 -4 330 154 986 478 l175 86 7 -96 c4 -53 19 -359 34 -681 14 -322 28
-587 30 -589 7 -7 7 -6 154 314 148 322 404 879 471 1023 22 46 39 89 39 95 0
7 11 -1 23 -18 12 -16 47 -61 78 -100 71 -90 542 -696 551 -709 4 -6 9 -8 11
-6 3 3 -6 172 -19 375 -13 204 -23 387 -24 408 l0 38 33 -23 c66 -47 235 -198
346 -309 343 -343 613 -762 802 -1246 l64 -163 83 0 82 0 0 753 0 754 -122
119 c-68 66 -158 148 -201 183 -137 111 -346 244 -529 336 -98 49 -172 92
-165 96 7 3 153 68 325 144 171 76 312 142 312 145 0 4 -84 21 -187 38 -414
70 -705 120 -708 124 -4 4 39 49 330 353 610 635 785 820 777 823 -4 1 -213
-61 -462 -139 -250 -77 -572 -177 -715 -221 -143 -44 -279 -87 -302 -94 l-43
-13 0 27 c-1 65 -108 1483 -112 1488 -3 2 -64 -150 -136 -338z m-272 -1628
c390 -47 747 -269 816 -509 20 -66 15 -161 -11 -215 -63 -131 -254 -231 -492
-257 -415 -44 -895 167 -1037 458 -30 60 -46 153 -27 153 6 0 99 -23 206 -51
l194 -52 -40 -59 c-23 -33 -39 -61 -37 -62 1 -1 102 -17 223 -35 121 -18 318
-48 438 -65 119 -18 217 -30 217 -27 -1 7 -4 10 -212 151 l-167 113 77 73 c56
54 74 76 64 82 -7 5 -159 65 -337 133 -178 68 -318 127 -312 130 18 10 157 38
207 42 96 7 149 7 230 -3z"/>
</g>
</svg>
