<?xml version="1.0" standalone="no"?>
<!DOCTYPE svg PUBLIC "-//W3C//DTD SVG 20010904//EN"
 "http://www.w3.org/TR/2001/REC-SVG-20010904/DTD/svg10.dtd">
<svg version="1.0" xmlns="http://www.w3.org/2000/svg"
 width="512.000000pt" height="512.000000pt" viewBox="0 0 512.000000 512.000000"
 preserveAspectRatio="xMidYMid meet">
<metadata>
Created by potrace 1.15, written by Peter Selinger 2001-2017
</metadata>
<g transform="translate(0.000000,512.000000) scale(0.100000,-0.100000)"
fill="#ffffff" stroke="none">
<path d="M582 4903 c2 -5 557 -560 1234 -1236 l1230 -1227 29 142 c15 79 30
148 32 154 5 13 350 142 357 133 1 -2 64 -164 139 -359 75 -195 246 -642 381
-993 135 -350 246 -639 246 -642 0 -6 -53 14 -1067 404 -502 193 -917 351
-923 351 -14 0 -16 -8 55 195 l59 171 173 34 c95 19 173 37 173 40 0 3 -569
574 -1265 1270 l-1265 1265 0 -140 0 -140 457 -457 458 -458 -116 0 c-126 0
-257 26 -355 70 -120 54 -266 172 -351 283 -53 69 -63 64 -63 -30 -1 -270 141
-490 440 -685 30 -19 142 -79 249 -132 106 -54 229 -120 273 -147 240 -149
413 -325 479 -490 31 -78 31 -180 1 -239 -33 -62 -54 -83 -119 -116 -48 -24
-72 -29 -153 -32 -194 -8 -381 76 -600 269 -49 44 -91 79 -94 79 -2 0 2 -28
10 -62 33 -147 111 -324 206 -470 278 -425 821 -817 1454 -1051 707 -262 1416
-297 1899 -96 157 65 303 179 385 299 243 357 281 960 105 1635 -119 455 -356
907 -642 1224 -232 257 -536 450 -863 546 -18 6 -6 -11 46 -61 86 -84 106
-129 79 -180 -20 -37 -86 -76 -165 -95 -33 -9 -109 -14 -193 -14 -128 0 -158
-5 -122 -19 42 -16 191 -124 244 -176 152 -153 171 -292 55 -419 -129 -144
-298 -128 -467 44 -97 98 -196 279 -226 410 -6 28 -22 122 -36 210 -14 88 -35
198 -46 245 -26 106 -85 231 -135 289 -111 128 -306 191 -588 191 l-128 0 74
-69 c89 -83 164 -190 203 -286 22 -54 30 -91 33 -163 4 -89 -9 -192 -29 -223
-6 -10 -133 111 -496 474 l-488 487 -133 0 c-74 0 -132 -3 -130 -7z"/>
<path d="M3315 2634 c-22 -8 -43 -18 -47 -22 -5 -5 -37 -149 -73 -321 -35
-173 -66 -315 -67 -316 -2 -2 -145 -32 -318 -67 l-315 -64 -17 -34 c-32 -67
-31 -68 67 -106 504 -197 1368 -524 1373 -520 3 3 -2 25 -12 48 -9 24 -134
349 -278 723 -144 374 -264 683 -267 686 -3 4 -24 0 -46 -7z"/>
</g>
</svg>
