<?xml version="1.0" standalone="no"?>
<!DOCTYPE svg PUBLIC "-//W3C//DTD SVG 20010904//EN"
 "http://www.w3.org/TR/2001/REC-SVG-20010904/DTD/svg10.dtd">
<svg version="1.0" xmlns="http://www.w3.org/2000/svg"
 width="512.000000pt" height="512.000000pt" viewBox="0 0 512.000000 512.000000"
 preserveAspectRatio="xMidYMid meet">
<metadata>
Created by potrace 1.15, written by Peter Selinger 2001-2017
</metadata>
<g transform="translate(0.000000,512.000000) scale(0.100000,-0.100000)"
fill="#ffffff" stroke="none">
<path d="M2363 4950 c-294 -20 -636 -112 -898 -242 -706 -351 -1186 -1015
-1306 -1803 -27 -175 -30 -481 -6 -650 141 -1011 868 -1811 1843 -2030 344
-77 724 -77 1064 0 787 178 1432 741 1713 1496 187 500 200 1064 37 1573 -336
1047 -1343 1729 -2447 1656z m352 -199 c28 -6 27 -7 -22 -18 -142 -33 -412
-155 -569 -258 l-83 -54 -238 -4 c-233 -4 -390 -22 -501 -58 -58 -19 -45 -3
45 56 242 157 599 289 878 324 50 6 101 13 115 15 43 6 344 4 375 -3z m512
-157 l52 -7 -72 -47 c-91 -59 -201 -147 -297 -237 l-76 -71 -129 43 c-72 23
-183 55 -248 70 l-118 28 43 24 c24 14 89 44 144 68 246 105 502 152 701 129z
m425 -153 c15 -17 35 -56 44 -87 22 -78 15 -296 -16 -451 l-22 -111 -126 83
c-131 86 -343 206 -438 247 -29 12 -54 26 -54 29 0 4 37 38 83 76 274 231 450
302 529 214z m-1980 -326 c-65 -63 -145 -146 -178 -185 -54 -65 -62 -71 -89
-66 -16 3 -84 16 -150 30 -66 14 -178 31 -250 38 l-130 13 70 46 c186 123 427
202 697 228 168 16 165 26 30 -104z m569 75 c129 -24 189 -38 341 -82 l106
-31 -102 -121 c-56 -67 -120 -145 -141 -174 -22 -29 -49 -54 -60 -56 -11 -2
-51 -10 -90 -16 -38 -7 -110 -26 -158 -42 l-88 -29 -112 45 c-62 24 -154 59
-204 76 l-93 32 19 27 c30 41 258 260 344 329 44 35 88 62 101 62 12 0 74 -9
137 -20z m1720 -41 c128 -190 211 -456 235 -762 l6 -88 -125 128 c-69 71 -153
151 -187 178 -70 57 -67 34 -26 230 14 66 31 177 38 248 6 70 13 127 14 127 2
0 22 -28 45 -61z m-948 -207 c67 -32 172 -87 232 -121 107 -62 341 -217 351
-232 4 -7 -98 -306 -115 -337 -6 -10 -23 5 -60 52 -169 212 -467 383 -717 412
l-54 7 37 46 c45 56 197 231 201 231 1 0 57 -26 125 -58z m1394 -237 c167
-267 276 -593 313 -930 11 -103 13 -336 3 -385 -6 -31 -8 -27 -33 56 -52 172
-139 357 -249 530 l-51 81 0 184 c0 228 -20 405 -66 574 l-5 20 16 -20 c9 -11
42 -60 72 -110z m-3220 5 l112 -22 -70 -104 c-87 -130 -192 -313 -244 -426
-22 -48 -43 -86 -48 -85 -17 5 -143 159 -206 253 -71 105 -108 187 -117 258
-8 70 32 117 123 142 72 21 309 12 450 -16z m525 -152 l117 -42 -97 -90 c-201
-191 -308 -383 -360 -650 l-17 -87 -83 70 c-45 38 -105 90 -133 115 l-50 45
65 135 c74 157 174 327 275 473 l71 102 47 -14 c27 -8 101 -33 165 -57z m2224
-270 c146 -149 244 -271 244 -302 0 -65 -50 -303 -101 -478 l-31 -106 -82 70
c-44 39 -128 108 -186 154 l-106 83 -12 69 c-6 38 -23 107 -38 152 l-26 83 51
127 c27 70 64 169 82 219 l31 91 27 -19 c14 -11 80 -75 147 -143z m-3283 -193
c23 -27 78 -90 123 -140 l81 -90 -24 -70 c-32 -93 -88 -295 -103 -370 l-12
-60 -48 95 c-126 253 -191 535 -175 758 l7 93 55 -83 c31 -46 74 -105 96 -133z
m-224 -577 c43 -110 120 -258 185 -362 l56 -88 0 -194 c0 -202 15 -358 49
-499 11 -44 18 -82 16 -84 -7 -6 -98 142 -156 254 -105 202 -179 420 -220 650
-23 132 -37 431 -24 531 l7 59 28 -95 c15 -52 41 -130 59 -172z m3950 173 c74
-146 128 -294 162 -446 23 -102 37 -365 21 -405 l-9 -25 -16 32 c-30 58 -163
228 -249 318 l-85 90 38 115 c21 63 52 175 70 248 18 72 34 132 35 132 2 0 17
-27 33 -59z m-3189 -119 c58 -48 120 -98 137 -112 28 -22 33 -35 43 -95 6 -38
27 -118 47 -177 l35 -107 -50 -128 c-28 -70 -62 -163 -77 -205 l-27 -78 -38
30 c-59 47 -261 261 -325 345 l-58 75 7 58 c11 93 52 280 92 416 l37 125 36
-30 c20 -17 83 -70 141 -117z m2683 -280 c53 -46 97 -87 97 -91 0 -4 -39 -85
-88 -181 -89 -179 -171 -315 -269 -452 l-55 -76 -44 13 c-98 29 -304 108 -302
116 2 4 31 32 64 62 155 138 259 285 328 464 29 75 43 128 72 281 5 23 5 23
52 -14 26 -21 91 -76 145 -122z m332 -329 c144 -167 232 -318 242 -419 7 -68
-13 -105 -74 -135 -45 -22 -60 -24 -213 -24 -133 0 -188 5 -282 24 l-116 23
83 126 c86 131 206 343 247 438 12 29 26 54 30 54 4 0 41 -39 83 -87z m-2474
-257 c70 -63 157 -125 239 -169 87 -48 261 -105 365 -120 l84 -12 -67 -81
c-37 -44 -92 -109 -123 -144 l-56 -64 -174 87 c-178 88 -324 175 -461 274
l-76 55 14 47 c7 26 32 97 54 157 22 60 42 115 45 122 3 8 23 -9 53 -45 27
-32 73 -80 103 -107z m-578 -175 l83 -71 -18 -73 c-27 -103 -55 -277 -64 -386
l-7 -94 -28 34 c-37 45 -131 226 -162 315 -38 106 -66 233 -82 374 -26 215
-32 209 90 82 57 -60 142 -141 188 -181z m1959 -90 c68 -26 165 -63 215 -81
l93 -33 -29 -36 c-46 -57 -238 -240 -331 -315 l-85 -68 -60 6 c-91 9 -279 50
-418 91 l-126 37 87 102 c48 55 116 138 151 184 35 46 73 84 85 87 113 22 178
39 216 55 25 10 53 18 62 19 10 1 73 -21 140 -48z m-1329 -349 c71 -39 153
-81 183 -94 29 -12 54 -26 54 -30 0 -9 -128 -119 -204 -175 -130 -96 -254
-153 -332 -153 -51 0 -97 48 -120 125 -23 80 -15 296 16 451 l23 112 126 -83
c69 -46 184 -115 254 -153z m2022 133 c72 -14 188 -32 258 -38 l128 -12 -80
-53 c-128 -85 -279 -147 -451 -186 -82 -19 -286 -46 -346 -46 l-45 0 119 115
c65 63 145 146 178 185 50 60 63 71 84 67 14 -2 84 -17 155 -32z m-1211 -449
l130 -32 -106 -52 c-262 -127 -555 -191 -772 -167 l-69 7 44 26 c78 45 222
157 314 244 l89 85 121 -40 c66 -21 178 -54 249 -71z m1191 -22 c-54 -42 -212
-133 -310 -180 -183 -87 -368 -146 -585 -185 -118 -22 -422 -36 -515 -24 l-60
7 81 24 c169 48 387 149 540 249 l81 53 249 5 c244 5 339 15 469 51 67 18 74
18 50 0z"/>
</g>
</svg>
