<?xml version="1.0" standalone="no"?>
<!DOCTYPE svg PUBLIC "-//W3C//DTD SVG 20010904//EN"
 "http://www.w3.org/TR/2001/REC-SVG-20010904/DTD/svg10.dtd">
<svg version="1.0" xmlns="http://www.w3.org/2000/svg"
 width="512.000000pt" height="512.000000pt" viewBox="0 0 512.000000 512.000000"
 preserveAspectRatio="xMidYMid meet">
<metadata>
Created by potrace 1.15, written by Peter Selinger 2001-2017
</metadata>
<g transform="translate(0.000000,512.000000) scale(0.100000,-0.100000)"
fill="#ffffff" stroke="none">
<path d="M3761 4503 c-7 -16 -16 -54 -18 -85 -8 -87 0 -95 182 -168 242 -97
313 -152 300 -230 l-6 -38 -36 24 c-46 31 -153 64 -207 64 -22 0 -66 -7 -96
-15 -76 -20 -146 -18 -199 5 -24 11 -45 20 -46 20 -12 0 13 -45 42 -75 56 -58
87 -69 203 -75 115 -6 280 -51 280 -77 0 -18 -35 -52 -66 -63 -41 -16 -70 -12
-249 30 -93 22 -348 80 -565 130 -217 50 -428 98 -468 107 -61 14 -89 28 -175
90 l-102 73 -87 -87 c-49 -48 -88 -90 -88 -94 0 -4 127 -48 283 -99 155 -50
347 -114 427 -140 l145 -48 -100 -2 c-55 -1 -317 -7 -582 -13 l-481 -12 -152
63 -151 63 -204 -118 c-112 -65 -201 -121 -197 -124 4 -3 394 -34 867 -68 473
-34 879 -65 901 -69 l42 -7 -264 -275 c-145 -151 -269 -283 -274 -292 -10 -17
16 -18 488 -18 l499 0 114 91 c63 51 170 137 239 192 181 146 253 203 267 211
8 4 21 -11 37 -43 30 -59 97 -118 143 -127 84 -16 177 24 282 122 55 50 64 56
85 46 40 -18 61 12 72 106 3 34 11 65 15 68 40 24 -35 45 -189 51 -104 5 -138
10 -154 23 l-21 16 20 45 c11 25 34 57 52 72 27 23 42 27 90 27 59 0 135 -21
209 -59 22 -11 44 -21 48 -21 12 0 -4 233 -21 294 -35 133 -80 185 -185 217
-97 29 -243 25 -313 -10 l-48 -23 -43 40 c-80 74 -194 117 -376 143 l-93 13
-18 41 c-9 22 -21 57 -24 78 -9 44 -17 47 -34 10z"/>
<path d="M1869 3921 c-13 -11 -22 -21 -19 -23 12 -10 151 -68 163 -68 7 0 37
25 67 55 l54 55 -121 0 c-104 0 -124 -3 -144 -19z"/>
<path d="M4666 3701 c-9 -14 83 -73 108 -69 10 2 25 13 33 25 14 21 14 23 -13
34 -45 17 -120 23 -128 10z"/>
<path d="M1445 3490 l-29 -30 120 0 120 0 29 30 29 30 -120 0 -120 0 -29 -30z"/>
<path d="M1026 3307 c-31 -40 -56 -76 -56 -80 0 -4 36 -7 79 -7 78 0 79 1 110
35 l30 35 203 0 202 0 -34 -35 -34 -35 85 0 84 0 78 76 c42 41 77 77 77 80 0
2 -173 4 -384 4 l-384 0 -56 -73z"/>
<path d="M990 2937 c-135 -155 -368 -422 -519 -595 -150 -172 -271 -315 -269
-317 2 -3 56 6 120 18 l115 22 486 567 c266 311 488 571 491 577 5 8 -21 11
-86 10 l-93 0 -245 -282z"/>
<path d="M1990 2234 c-283 -300 -577 -611 -652 -692 -145 -155 -135 -148 -266
-182 -38 -10 -46 -17 -62 -55 -67 -156 -180 -574 -166 -611 9 -24 70 -12 122
26 l42 30 7 -28 c9 -37 23 -52 49 -52 17 0 45 48 166 286 80 156 156 295 170
308 14 13 129 102 255 198 127 96 470 357 763 581 293 224 541 412 550 418 13
8 68 -3 232 -46 118 -31 223 -59 234 -63 15 -6 -37 -59 -285 -294 l-304 -286
-60 58 -60 58 -85 -100 c-187 -221 -406 -548 -383 -572 15 -15 71 -4 120 24
29 17 55 30 57 30 3 0 6 -15 8 -32 6 -64 30 -50 207 124 91 91 202 191 246
223 44 32 335 247 647 479 439 325 565 423 555 432 -6 6 -115 73 -240 148
l-228 136 -562 0 -562 0 -515 -546z"/>
</g>
</svg>
