<?xml version="1.0" standalone="no"?>
<!DOCTYPE svg PUBLIC "-//W3C//DTD SVG 20010904//EN"
 "http://www.w3.org/TR/2001/REC-SVG-20010904/DTD/svg10.dtd">
<svg version="1.0" xmlns="http://www.w3.org/2000/svg"
 width="512.000000pt" height="512.000000pt" viewBox="0 0 512.000000 512.000000"
 preserveAspectRatio="xMidYMid meet">
<metadata>
Created by potrace 1.15, written by Peter Selinger 2001-2017
</metadata>
<g transform="translate(0.000000,512.000000) scale(0.100000,-0.100000)"
fill="#ffffff" stroke="none">
<path d="M4525 4123 c-226 -212 -411 -389 -413 -393 -1 -4 57 -108 131 -231
74 -123 214 -359 312 -524 98 -165 216 -365 263 -444 133 -222 122 -307 122
940 0 571 -1 1039 -3 1039 -1 0 -187 -174 -412 -387z"/>
<path d="M180 3368 l0 -1137 47 -7 c43 -6 371 1 379 8 1 2 122 304 267 671
l264 667 -361 352 c-198 193 -414 404 -478 467 l-118 116 0 -1137z"/>
<path d="M2783 3385 c-103 -35 -312 -111 -463 -170 -151 -59 -294 -114 -317
-122 -52 -18 -49 -28 34 -102 72 -64 196 -125 287 -141 98 -18 232 -8 336 25
100 32 157 60 263 128 43 27 79 48 81 46 1 -2 17 -25 35 -51 24 -37 91 -90
299 -240 147 -105 330 -238 407 -293 77 -56 216 -156 309 -224 93 -67 174
-120 180 -118 6 3 109 69 229 148 164 107 217 147 214 160 -3 9 -121 212 -262
450 -142 239 -276 464 -298 502 -22 37 -42 67 -44 67 -5 0 -187 -112 -253
-155 -19 -13 -65 -42 -103 -64 l-67 -41 -78 39 c-159 80 -343 149 -529 200
l-72 19 -188 -63z"/>
<path d="M1251 3398 c-5 -13 -91 -230 -191 -483 -100 -253 -197 -499 -216
-546 -19 -48 -34 -91 -34 -96 0 -11 147 -125 164 -127 6 0 69 64 140 144 71
80 146 165 168 189 l39 44 82 -6 c172 -14 277 -79 329 -204 l22 -53 65 0 c208
0 355 -124 377 -316 7 -56 23 -84 50 -84 28 0 109 -48 146 -87 49 -51 87 -137
102 -230 6 -42 17 -78 23 -80 6 -2 32 27 58 64 27 37 50 70 51 72 2 2 152
-103 334 -233 368 -263 348 -254 429 -196 45 33 65 81 59 144 l-3 39 -370 265
c-203 145 -378 270 -388 277 -16 11 -14 18 35 89 28 42 56 76 60 76 8 0 107
-70 628 -442 129 -92 244 -168 254 -168 11 0 38 9 61 20 54 26 85 80 85 147
l0 50 -252 179 c-139 98 -354 250 -478 338 -124 87 -233 166 -242 175 -17 15
-15 20 29 82 l47 66 205 -145 c113 -80 258 -182 321 -227 63 -45 195 -139 294
-208 l178 -126 37 15 c80 33 111 73 119 155 l4 47 -93 69 c-52 38 -156 114
-232 169 -240 172 -704 506 -760 548 l-27 20 -68 -34 c-162 -81 -267 -109
-427 -117 -92 -5 -125 -2 -195 16 -197 49 -346 151 -478 325 -96 127 -82 146
192 251 113 44 202 82 198 86 -6 5 -845 70 -900 69 -14 0 -26 -9 -31 -22z"/>
<path d="M1152 2077 l-241 -276 15 -52 c19 -63 61 -106 112 -114 20 -3 47 -8
59 -11 17 -3 63 44 260 267 261 296 253 283 211 367 -25 50 -66 77 -134 88
l-40 6 -242 -275z"/>
<path d="M1703 1953 c-67 -76 -186 -212 -267 -303 -160 -182 -165 -192 -123
-264 31 -56 67 -79 129 -84 l53 -4 264 298 c145 165 265 304 268 310 9 24 -20
99 -51 130 -31 31 -87 54 -132 54 -14 0 -59 -43 -141 -137z"/>
<path d="M1899 1458 c-122 -139 -231 -263 -242 -275 -18 -20 -19 -26 -7 -68
23 -81 65 -117 150 -130 l45 -6 235 266 c129 147 236 276 238 286 5 28 -17 91
-42 117 -28 31 -62 48 -112 57 l-42 6 -223 -253z"/>
<path d="M2170 1093 c-203 -232 -205 -234 -175 -306 27 -64 97 -104 167 -95
19 2 76 60 219 222 l192 219 -12 46 c-7 25 -19 57 -27 69 -20 30 -89 61 -136
62 -36 0 -43 -7 -228 -217z"/>
<path d="M2723 1243 c4 -15 11 -58 17 -96 l12 -67 -41 -46 c-23 -26 -41 -50
-41 -54 0 -4 60 -50 134 -104 l135 -96 55 24 c71 32 96 70 96 147 l0 55 -186
132 c-168 120 -186 130 -181 105z"/>
</g>
</svg>
