<?xml version="1.0" standalone="no"?>
<!DOCTYPE svg PUBLIC "-//W3C//DTD SVG 20010904//EN"
 "http://www.w3.org/TR/2001/REC-SVG-20010904/DTD/svg10.dtd">
<svg version="1.0" xmlns="http://www.w3.org/2000/svg"
 width="512.000000pt" height="512.000000pt" viewBox="0 0 512.000000 512.000000"
 preserveAspectRatio="xMidYMid meet">
<metadata>
Created by potrace 1.15, written by Peter Selinger 2001-2017
</metadata>
<g transform="translate(0.000000,512.000000) scale(0.100000,-0.100000)"
fill="#ffffff" stroke="none">
<path d="M2491 4728 c-41 -95 -109 -253 -152 -351 -43 -98 -81 -187 -84 -197
-6 -19 -1 -20 109 -20 l116 0 0 -585 0 -585 -22 -4 c-13 -2 -59 -9 -103 -16
-44 -7 -124 -27 -177 -45 l-98 -32 0 398 0 399 111 0 c63 0 109 4 107 9 -32
90 -315 730 -322 728 -8 -3 -46 -89 -246 -552 l-77 -180 113 -3 114 -3 0 -560
0 -560 133 70 c176 92 349 151 443 151 l24 0 0 -555 c0 -468 2 -555 14 -555 8
0 42 9 77 19 483 144 943 163 1253 50 216 -79 383 -234 436 -407 27 -88 27
-221 -1 -304 -60 -180 -223 -315 -446 -370 -70 -17 -116 -21 -223 -20 -303 3
-626 107 -1008 326 -425 244 -615 333 -856 402 -336 97 -630 83 -878 -42 l-46
-23 -64 89 c-34 50 -88 137 -119 195 -31 58 -58 108 -61 111 -8 7 -89 -188
-143 -346 -90 -264 -151 -537 -180 -814 -16 -156 -20 -356 -7 -356 5 0 21 14
38 31 16 17 72 68 124 113 279 239 560 399 904 516 76 26 135 49 130 52 -5 3
-34 13 -64 23 -85 27 -244 112 -331 177 -44 32 -79 62 -79 68 0 16 158 60 262
72 168 20 403 -22 629 -112 110 -44 376 -174 469 -230 402 -239 691 -362 993
-422 152 -30 423 -32 542 -4 176 40 314 114 430 231 65 64 90 99 128 175 61
122 81 212 74 345 -16 336 -268 619 -650 729 -166 48 -257 60 -477 60 -216 0
-331 -12 -552 -57 l-118 -24 0 429 0 429 38 -6 c141 -24 277 -71 434 -150 59
-30 110 -55 113 -55 3 0 5 250 5 555 l0 555 110 0 c61 0 110 4 110 9 0 4 -42
104 -93 222 -52 118 -122 280 -157 362 -35 81 -67 147 -70 147 -4 0 -28 -48
-53 -107 -25 -60 -96 -222 -156 -362 -61 -140 -111 -258 -111 -263 0 -4 52 -8
115 -8 l115 0 0 -400 c0 -220 -1 -400 -3 -400 -2 0 -36 11 -75 24 -78 27 -255
66 -296 66 l-26 0 0 590 0 589 109 3 109 3 -157 364 c-87 201 -162 366 -167
368 -5 2 -42 -75 -83 -169z"/>
<path d="M1315 4505 c-256 -69 -489 -257 -692 -560 -195 -291 -347 -703 -399
-1081 -24 -177 -24 -489 0 -639 19 -122 61 -291 85 -345 l15 -35 7 100 c18
238 85 425 196 546 142 153 291 121 400 -85 18 -33 40 -85 50 -113 9 -29 20
-53 25 -53 4 0 8 20 8 46 0 140 77 323 179 425 140 139 289 146 425 19 35 -33
66 -60 70 -60 3 0 6 144 6 319 l0 320 -55 25 c-33 15 -80 49 -113 83 -200 202
-241 593 -108 1026 l24 77 -37 -1 c-20 0 -58 -6 -86 -14z"/>
<path d="M3710 4512 c0 -5 9 -35 20 -66 31 -91 69 -292 76 -406 20 -320 -99
-605 -293 -704 l-53 -26 0 -322 0 -321 53 50 c93 88 189 119 284 94 150 -41
289 -228 323 -437 7 -38 15 -85 19 -104 l7 -35 18 55 c50 150 142 267 229 291
126 35 274 -96 355 -312 29 -80 62 -257 62 -339 0 -38 4 -71 9 -74 10 -7 67
192 87 305 69 396 28 815 -121 1249 -47 137 -176 400 -255 520 -161 243 -358
429 -552 520 -112 53 -268 88 -268 62z"/>
</g>
</svg>
