<?xml version="1.0" standalone="no"?>
<!DOCTYPE svg PUBLIC "-//W3C//DTD SVG 20010904//EN"
 "http://www.w3.org/TR/2001/REC-SVG-20010904/DTD/svg10.dtd">
<svg version="1.0" xmlns="http://www.w3.org/2000/svg"
 width="512.000000pt" height="512.000000pt" viewBox="0 0 512.000000 512.000000"
 preserveAspectRatio="xMidYMid meet">
<metadata>
Created by potrace 1.15, written by Peter Selinger 2001-2017
</metadata>
<g transform="translate(0.000000,512.000000) scale(0.100000,-0.100000)"
fill="#ffffff" stroke="none">
<path d="M2542 4214 c-40 -30 -72 -59 -72 -64 0 -16 163 -181 244 -247 161
-129 459 -316 819 -513 65 -36 114 -66 109 -68 -14 -4 -562 184 -742 255 -322
127 -553 254 -672 371 l-57 56 -53 -37 c-29 -20 -64 -46 -78 -57 l-25 -19 70
-71 c92 -93 224 -181 415 -274 267 -131 549 -235 1305 -479 284 -92 463 -159
495 -185 l20 -17 -24 -52 c-46 -98 -142 -168 -264 -194 l-54 -11 20 -21 c27
-28 42 -70 42 -112 0 -19 4 -36 9 -39 17 -11 126 25 204 67 137 73 214 169
252 313 40 152 5 220 -176 341 -93 63 -212 131 -564 323 -607 332 -928 545
-1093 725 l-58 63 -72 -54z"/>
<path d="M1431 3994 c-44 -37 -43 -85 4 -150 37 -51 143 -211 269 -404 67
-104 262 -337 272 -327 3 2 -29 71 -70 153 -41 82 -107 226 -146 319 -131 308
-176 386 -242 421 -38 20 -52 18 -87 -12z"/>
<path d="M1110 3790 c-56 -56 12 -201 232 -492 127 -167 154 -216 258 -473
161 -398 242 -564 348 -715 61 -86 133 -170 147 -170 6 0 28 22 49 50 60 79
186 166 289 199 20 7 37 15 37 18 0 3 -18 42 -41 86 -68 136 -125 206 -539
656 -235 256 -284 319 -415 527 -123 197 -175 267 -226 304 -51 36 -108 41
-139 10z"/>
<path d="M1016 3449 c-3 -8 -89 -471 -191 -1029 -102 -558 -190 -1038 -196
-1066 l-10 -51 -197 -53 c-108 -30 -198 -54 -199 -54 -6 -4 32 -116 40 -116
23 0 483 122 491 131 6 5 89 483 186 1062 l176 1053 -41 62 c-51 76 -53 78
-59 61z"/>
<path d="M1237 3008 c-9 -55 -16 -102 -14 -104 1 -1 21 0 44 3 39 5 43 8 58
51 l15 46 -35 53 c-19 29 -39 53 -43 53 -4 0 -15 -46 -25 -102z"/>
<path d="M2780 2923 c0 -109 12 -153 53 -200 36 -41 133 -91 230 -119 l65 -18
16 -106 c23 -145 54 -258 76 -270 10 -5 61 -7 118 -3 l100 6 6 81 c18 213 68
332 193 454 l84 82 -28 11 c-232 92 -479 141 -825 163 l-88 6 0 -87z"/>
<path d="M2395 2838 c-82 -6 -152 -11 -154 -13 -2 -2 40 -55 94 -117 145 -168
190 -231 253 -355 l57 -113 137 0 c122 0 143 3 183 22 25 12 44 27 42 33 -3 5
-10 43 -17 83 -12 63 -17 75 -38 83 -188 71 -320 205 -339 344 -5 43 -7 45
-37 43 -17 0 -98 -5 -181 -10z"/>
<path d="M1276 2736 c-64 -9 -81 -15 -87 -31 -16 -40 -101 -587 -93 -595 27
-26 694 -105 694 -82 0 3 -22 40 -50 83 -69 108 -157 289 -231 479 l-64 160
-45 -1 c-25 -1 -81 -7 -124 -13z"/>
<path d="M3801 2669 c-124 -83 -183 -207 -183 -389 -1 -135 15 -212 52 -253
27 -31 31 -32 107 -32 60 1 87 6 118 22 47 25 96 75 120 121 34 69 57 238 36
270 -5 9 -10 -6 -14 -40 -12 -121 -79 -233 -134 -226 -22 2 -33 13 -51 48 -21
40 -23 55 -19 140 3 63 12 113 26 150 22 60 71 120 95 120 9 0 16 6 16 14 0
14 -84 96 -99 96 -5 0 -36 -18 -70 -41z"/>
<path d="M595 2615 c-163 -42 -288 -93 -334 -136 l-24 -23 44 -39 c43 -39 290
-167 321 -167 18 0 18 -1 63 244 15 76 25 139 23 141 -2 2 -43 -7 -93 -20z"/>
<path d="M4263 2357 c-28 -19 -32 -29 -38 -84 -4 -34 -3 -68 1 -75 18 -29 397
-554 407 -565 9 -8 43 1 139 39 l127 49 -23 62 c-13 34 -29 74 -35 89 l-10 27
-70 -29 c-38 -17 -74 -30 -79 -30 -5 0 -89 121 -188 270 -98 148 -183 269
-189 269 -5 0 -24 -10 -42 -22z"/>
<path d="M2669 2060 c-216 -25 -336 -87 -424 -220 -82 -124 -128 -283 -159
-553 l-16 -139 121 -141 c67 -78 127 -143 134 -145 14 -3 155 64 155 73 0 3
-47 64 -104 135 l-104 129 19 105 c33 184 86 301 187 408 l46 49 141 -6 c88
-4 166 -3 210 4 183 30 290 152 226 257 -16 26 -27 32 -67 37 -92 12 -289 16
-365 7z"/>
<path d="M3341 2024 c-33 -23 -51 -74 -51 -142 0 -47 6 -67 28 -103 71 -110
203 -197 395 -259 l67 -22 176 122 c96 67 177 120 178 119 2 -2 85 -114 186
-249 101 -135 184 -247 186 -249 3 -3 375 118 383 125 5 5 -30 126 -40 138 -4
4 -62 -13 -129 -38 -67 -25 -127 -46 -134 -46 -6 0 -101 126 -211 280 -110
154 -203 280 -207 280 -4 0 -94 -62 -200 -138 -106 -76 -199 -141 -205 -146
-19 -11 -108 70 -218 199 -122 142 -155 163 -204 129z"/>
<path d="M1055 1916 c-10 -43 -35 -202 -35 -218 0 -16 11 -18 93 -18 153 0
461 19 652 41 279 31 273 28 207 92 l-38 37 -94 0 c-192 0 -483 30 -708 73
-71 14 -72 14 -77 -7z"/>
<path d="M390 1623 c-47 -13 -86 -26 -88 -28 -8 -7 22 -107 33 -111 5 -2 41 4
80 14 l69 18 13 60 c7 32 12 62 13 67 0 11 -29 7 -120 -20z"/>
<path d="M2582 1563 c-18 -47 -34 -104 -30 -107 1 -1 89 -75 195 -164 l192
-162 61 70 c33 39 60 72 60 74 0 3 -65 59 -145 127 -137 115 -146 124 -140
151 l7 28 -74 0 c-40 0 -82 3 -94 6 -16 4 -23 -1 -32 -23z"/>
</g>
</svg>
