<?xml version="1.0" standalone="no"?>
<!DOCTYPE svg PUBLIC "-//W3C//DTD SVG 20010904//EN"
 "http://www.w3.org/TR/2001/REC-SVG-20010904/DTD/svg10.dtd">
<svg version="1.0" xmlns="http://www.w3.org/2000/svg"
 width="512.000000pt" height="512.000000pt" viewBox="0 0 512.000000 512.000000"
 preserveAspectRatio="xMidYMid meet">
<metadata>
Created by potrace 1.15, written by Peter Selinger 2001-2017
</metadata>
<g transform="translate(0.000000,512.000000) scale(0.100000,-0.100000)"
fill="#ffffff" stroke="none">
<path d="M2540 4784 c-473 -58 -958 -367 -1309 -833 -104 -139 -231 -345 -219
-357 2 -2 20 10 40 26 l36 30 48 -75 47 -75 43 75 c57 101 118 177 204 259 63
59 210 166 229 166 11 0 63 -93 86 -154 l22 -59 43 64 c54 80 196 222 273 272
32 21 94 57 138 79 88 44 87 44 111 -19 l12 -32 78 84 c44 46 109 107 146 135
63 47 228 140 250 140 10 0 56 -97 67 -142 7 -26 9 -24 93 61 48 48 124 112
169 141 l83 55 -63 31 c-83 42 -218 89 -311 109 -78 16 -254 26 -316 19z"/>
<path d="M3965 4566 c-250 -81 -477 -289 -479 -437 -1 -32 5 -53 18 -67 22
-25 97 -52 143 -52 96 0 214 120 313 319 40 80 90 216 90 245 0 20 0 20 -85
-8z"/>
<path d="M3248 4431 c-94 -63 -223 -197 -276 -287 -77 -131 -93 -254 -37 -301
36 -31 153 -33 203 -3 73 44 153 224 187 414 17 98 20 226 6 226 -5 0 -43 -22
-83 -49z"/>
<path d="M2645 4211 c-72 -59 -128 -122 -182 -201 -61 -90 -70 -118 -77 -240
-3 -63 -9 -127 -12 -143 -6 -24 -2 -29 32 -43 33 -14 49 -15 104 -6 57 9 69
16 102 52 69 77 115 238 125 436 6 108 -1 204 -15 204 -4 0 -38 -27 -77 -59z"/>
<path d="M2131 3945 c-125 -99 -246 -271 -286 -409 -24 -81 -17 -178 13 -209
19 -19 33 -22 95 -22 84 0 111 13 157 76 60 83 98 233 106 419 3 63 2 135 -3
159 l-8 43 -74 -57z"/>
<path d="M3890 3944 c-19 -19 -68 -51 -107 -71 -70 -35 -75 -36 -158 -31 -49
4 -85 2 -85 -3 0 -5 33 -24 73 -43 39 -18 103 -51 141 -74 42 -26 80 -42 100
-42 83 0 279 72 380 140 l60 39 -65 30 c-62 29 -198 72 -269 85 -32 5 -40 2
-70 -30z"/>
<path d="M1523 3688 c-175 -184 -278 -447 -232 -589 17 -52 43 -69 105 -69
133 0 194 74 225 273 20 124 -3 447 -31 447 -4 0 -34 -28 -67 -62z"/>
<path d="M3221 3695 c-32 -23 -65 -36 -133 -50 -50 -10 -75 -96 -43 -143 24
-34 93 -70 170 -88 96 -22 310 -15 412 15 93 27 153 51 153 62 0 15 -111 88
-204 133 -108 53 -202 85 -271 91 -42 4 -56 1 -84 -20z"/>
<path d="M4061 3549 c-30 -10 -56 -21 -59 -23 -2 -3 5 -20 17 -39 11 -19 21
-37 21 -39 0 -9 -106 -76 -178 -112 -141 -71 -326 -116 -480 -116 l-62 0 30
-60 c16 -33 30 -64 30 -69 0 -12 -152 -76 -241 -100 -95 -26 -251 -43 -329
-34 l-61 6 34 -69 c36 -71 64 -160 54 -170 -13 -13 -169 -46 -249 -53 -86 -7
-223 0 -285 13 l-33 7 24 -53 c14 -29 31 -77 40 -105 l15 -53 -37 -9 c-203
-55 -348 -61 -532 -24 l-32 6 26 -52 c28 -55 63 -188 52 -198 -23 -23 -240
-28 -363 -8 -198 32 -388 123 -510 242 -40 39 -73 67 -73 62 0 -6 23 -72 51
-147 103 -275 253 -572 449 -888 51 -82 99 -160 107 -174 14 -24 6 -41 -161
-365 -153 -296 -173 -342 -160 -352 33 -24 267 -124 395 -168 134 -46 311 -94
424 -115 223 -41 517 -59 746 -45 l127 7 6 81 c18 214 95 385 267 593 33 39
59 73 59 76 0 3 -39 8 -87 12 -266 20 -488 64 -636 126 -199 83 -359 237 -431
416 -45 112 -45 109 32 128 37 9 75 19 85 22 11 4 17 0 17 -10 0 -33 52 -143
93 -197 57 -77 127 -133 222 -179 166 -81 319 -110 740 -140 149 -11 284 -22
300 -24 17 -3 152 -2 301 3 259 7 273 8 320 32 42 21 54 33 82 90 92 183 79
444 -44 861 -4 14 8 17 83 22 181 14 293 38 293 64 0 9 -18 69 -39 133 -72
214 -152 347 -299 501 l-95 98 12 144 c19 243 13 467 -13 465 -6 0 -35 -9 -65
-20z"/>
<path d="M2660 3451 c-38 -28 -98 -44 -174 -46 -73 -3 -86 -11 -86 -56 0 -20
19 -42 90 -101 115 -97 168 -113 370 -113 134 0 270 19 270 37 0 35 -248 222
-363 273 -68 30 -74 30 -107 6z"/>
<path d="M992 3318 c-114 -153 -185 -387 -152 -508 16 -61 35 -80 79 -80 124
0 180 123 168 365 -6 110 -30 252 -46 268 -5 5 -27 -15 -49 -45z"/>
<path d="M2185 3210 c-33 -37 -118 -71 -194 -77 -77 -6 -82 -12 -57 -61 37
-72 191 -163 341 -203 88 -23 335 -39 335 -22 0 24 -72 116 -160 203 -86 87
-208 180 -236 180 -6 0 -19 -9 -29 -20z"/>
<path d="M1655 2959 c-45 -47 -119 -85 -182 -95 -28 -4 -43 -11 -43 -21 0 -26
97 -111 168 -147 120 -60 228 -87 380 -93 100 -4 132 -3 132 6 0 37 -161 220
-260 296 -51 38 -141 95 -151 95 -3 0 -23 -19 -44 -41z"/>
<path d="M1178 2695 c-23 -38 -85 -93 -121 -109 -20 -8 68 -81 151 -124 42
-22 115 -52 161 -66 81 -26 231 -46 231 -32 0 17 -89 135 -153 202 -66 71
-178 155 -222 167 -16 5 -26 -3 -47 -38z"/>
<path d="M556 2543 c-91 -58 -166 -111 -166 -117 0 -6 22 -43 48 -83 l48 -72
184 119 c102 66 189 121 194 123 5 2 6 15 3 29 -5 18 -15 27 -36 31 -17 4 -48
22 -69 41 l-39 36 -167 -107z"/>
</g>
</svg>
