<?xml version="1.0" standalone="no"?>
<!DOCTYPE svg PUBLIC "-//W3C//DTD SVG 20010904//EN"
 "http://www.w3.org/TR/2001/REC-SVG-20010904/DTD/svg10.dtd">
<svg version="1.0" xmlns="http://www.w3.org/2000/svg"
 width="512.000000pt" height="512.000000pt" viewBox="0 0 512.000000 512.000000"
 preserveAspectRatio="xMidYMid meet">
<metadata>
Created by potrace 1.15, written by Peter Selinger 2001-2017
</metadata>
<g transform="translate(0.000000,512.000000) scale(0.100000,-0.100000)"
fill="#ffffff" stroke="none">
<path d="M210 4736 l0 -204 113 -38 112 -39 122 -241 122 -242 86 -383 c47
-211 88 -391 90 -400 4 -10 -7 -21 -35 -33 -285 -126 -338 -554 -93 -753 26
-21 67 -57 92 -79 82 -74 122 -89 236 -89 84 0 107 4 147 23 90 45 124 89 228
297 128 259 -30 580 -315 637 -33 7 -61 12 -62 13 -1 0 -38 163 -82 361 -76
340 -81 369 -87 522 -4 89 -4 162 0 162 11 0 250 -136 379 -216 130 -81 411
-275 464 -321 l33 -28 21 -272 20 -271 -20 -124 c-45 -264 -81 -673 -81 -906
l0 -99 -62 -17 c-277 -77 -410 -394 -275 -652 14 -27 28 -67 32 -88 17 -101
107 -207 208 -245 139 -51 310 -2 385 111 15 22 57 73 93 113 70 78 101 132
124 222 52 199 -51 415 -241 509 -64 32 -74 41 -74 63 0 14 5 118 10 231 16
328 45 581 97 854 25 129 30 145 75 213 l48 74 121 -107 c372 -330 504 -469
756 -795 l82 -106 1 -139 2 -139 -50 -110 c-85 -188 -165 -432 -223 -676 l-22
-97 -63 -5 c-182 -14 -348 -176 -385 -372 -18 -100 9 -241 60 -313 11 -16 30
-54 41 -85 26 -70 97 -150 164 -185 46 -24 62 -27 151 -27 130 0 157 14 298
157 89 90 116 124 145 187 36 74 37 79 37 192 0 113 -1 116 -38 192 -41 84
-110 161 -177 198 -22 12 -40 25 -40 28 0 4 16 69 35 145 65 256 160 519 251
698 l29 57 91 -137 c189 -285 365 -596 473 -840 l51 -114 -33 -41 c-78 -97
-107 -179 -107 -298 0 -317 297 -528 606 -430 16 5 53 12 81 16 73 8 134 36
189 87 66 61 96 126 102 221 6 98 -9 153 -62 226 -23 31 -54 78 -70 105 -85
146 -225 226 -394 226 -43 0 -92 -4 -109 -9 -28 -8 -33 -7 -39 12 -15 52 -188
395 -272 542 -176 309 -414 659 -662 973 -66 85 -128 164 -136 178 l-16 24 50
0 c118 0 605 -218 957 -428 61 -36 115 -69 122 -74 9 -7 1 -25 -26 -68 -54
-83 -75 -166 -69 -277 3 -76 9 -100 40 -164 42 -90 109 -161 196 -207 34 -18
65 -39 69 -45 16 -26 89 -77 133 -92 59 -21 168 -21 231 0 68 23 159 108 190
177 17 40 24 74 25 138 1 47 7 114 14 148 13 75 6 155 -23 232 -77 211 -305
336 -520 286 l-69 -16 -101 64 c-353 221 -751 412 -1087 521 -30 10 -131 56
-224 102 l-170 83 -99 132 c-173 230 -390 488 -560 666 -38 40 -67 76 -63 79
3 4 75 14 158 23 142 15 162 15 322 -2 190 -20 409 -50 562 -78 95 -18 337
-70 341 -74 1 -1 -5 -26 -14 -55 -11 -38 -14 -82 -11 -150 3 -82 8 -106 35
-164 40 -84 126 -176 196 -211 213 -103 272 -120 371 -105 74 12 127 39 180
92 58 58 88 124 97 216 5 42 13 101 18 131 12 64 5 144 -20 216 -93 273 -426
388 -672 231 l-49 -30 -156 37 c-274 64 -558 109 -927 146 -173 17 -243 30
-525 97 l-325 77 -124 106 c-68 58 -191 158 -274 223 l-151 117 -413 0 -413 0
0 -204z m3754 -1000 c123 -52 103 -237 -29 -262 -49 -9 -80 1 -123 41 -35 31
-37 37 -37 93 0 65 13 88 70 123 36 22 74 24 119 5z m-2844 -1051 c36 -19 67
-61 75 -105 4 -26 0 -47 -17 -79 -68 -132 -258 -88 -258 59 0 104 109 172 200
125z m3517 -762 c46 -22 73 -67 73 -123 0 -79 -60 -140 -137 -140 -41 0 -95
32 -117 69 -39 67 -14 156 54 192 43 23 81 24 127 2z m-2840 -483 c82 -50 83
-182 1 -233 -72 -46 -166 -18 -200 61 -27 60 -18 105 32 154 33 34 43 38 86
38 31 0 61 -7 81 -20z m2680 -729 c76 -35 104 -117 63 -188 -28 -50 -66 -73
-120 -73 -133 0 -190 172 -84 247 51 36 84 39 141 14z m-1650 -21 c61 -37 84
-127 47 -189 -21 -35 -81 -71 -119 -71 -15 0 -44 9 -65 21 -124 70 -77 259 65
259 22 0 54 -9 72 -20z"/>
</g>
</svg>
