<?xml version="1.0" standalone="no"?>
<!DOCTYPE svg PUBLIC "-//W3C//DTD SVG 20010904//EN"
 "http://www.w3.org/TR/2001/REC-SVG-20010904/DTD/svg10.dtd">
<svg version="1.0" xmlns="http://www.w3.org/2000/svg"
 width="512.000000pt" height="512.000000pt" viewBox="0 0 512.000000 512.000000"
 preserveAspectRatio="xMidYMid meet">
<metadata>
Created by potrace 1.15, written by Peter Selinger 2001-2017
</metadata>
<g transform="translate(0.000000,512.000000) scale(0.100000,-0.100000)"
fill="#ffffff" stroke="none">
<path d="M180 3786 c0 -1043 2 -1154 16 -1160 9 -3 46 -6 82 -6 84 0 153 30
217 95 63 63 89 123 89 205 -1 57 -7 77 -52 170 -75 155 -103 247 -109 360 -5
110 10 151 68 182 39 21 112 23 149 5 51 -25 60 -65 58 -247 -3 -160 -2 -167
22 -214 36 -70 80 -91 190 -91 99 0 138 17 182 80 56 80 60 253 12 439 -13 48
-13 68 -4 98 34 116 197 171 320 108 96 -49 125 -169 125 -510 -1 -276 -15
-363 -112 -699 -29 -101 -35 -135 -30 -182 11 -123 97 -243 216 -302 122 -60
269 -40 373 52 87 76 135 201 125 328 -4 54 -15 93 -45 160 -86 190 -117 339
-109 517 7 171 23 208 103 247 79 38 160 5 206 -85 16 -31 23 -68 28 -147 5
-96 9 -111 33 -143 84 -110 282 -138 396 -56 73 53 93 104 120 303 12 88 31
121 79 138 81 27 193 -26 248 -119 44 -72 62 -156 84 -378 28 -288 17 -686
-30 -1084 -35 -295 -108 -690 -155 -841 -67 -213 -71 -372 -12 -485 24 -46
105 -123 162 -152 67 -34 171 -41 246 -17 111 36 192 105 236 202 22 47 25 67
24 166 -2 166 -17 279 -91 662 -21 110 -46 259 -54 330 -41 341 -65 1391 -39
1692 13 144 43 221 117 301 150 161 339 139 392 -45 23 -78 14 -184 -27 -348
-59 -234 -43 -380 49 -437 50 -31 157 -32 223 -1 101 46 169 137 169 226 0 35
-10 65 -41 123 -34 65 -40 87 -40 137 -1 149 147 307 240 256 36 -20 67 -87
101 -223 40 -158 54 -278 47 -416 -7 -145 -31 -236 -100 -387 -70 -150 -90
-219 -90 -313 -1 -121 41 -193 144 -246 62 -32 163 -40 192 -15 16 12 17 126
17 1467 l0 1454 -2380 0 -2380 0 0 -1154z m657 -133 c31 -53 33 -93 18 -284
l-8 -107 46 -45 46 -46 -32 6 c-65 12 -108 42 -129 90 -20 45 -20 49 -4 168
12 92 14 134 6 174 -5 30 -10 67 -10 83 0 25 2 28 20 18 11 -6 32 -32 47 -57z
m844 -278 c11 -49 23 -148 26 -220 8 -191 -14 -333 -88 -556 -24 -73 -29 -105
-25 -142 7 -65 58 -157 124 -223 62 -62 51 -71 -36 -28 -157 78 -211 257 -141
466 42 127 76 277 90 394 11 92 7 382 -6 474 -9 61 34 -64 56 -165z m763 -170
c34 -45 69 -69 168 -114 l83 -39 -44 -12 c-95 -25 -203 27 -252 122 -19 37
-24 102 -12 148 6 22 8 20 19 -23 7 -26 24 -63 38 -82z m1676 -62 c14 -39 32
-79 40 -88 37 -44 102 -39 181 14 24 17 45 28 47 26 12 -12 -38 -82 -75 -105
-120 -77 -239 -26 -258 110 -7 54 9 123 28 117 7 -2 23 -35 37 -74z m750 -259
c0 -147 -4 -167 -65 -369 -36 -119 -38 -222 -6 -322 22 -71 22 -113 -2 -113
-27 0 -86 52 -106 93 -41 85 -22 198 69 416 49 118 66 195 85 395 11 112 25
57 25 -100z m-1491 -799 c1 -268 -14 -440 -73 -864 -20 -140 -44 -322 -53
-405 l-16 -151 26 -80 c42 -125 34 -149 -33 -102 -121 82 -131 176 -54 497 48
198 79 350 103 510 33 221 48 385 78 830 7 106 8 111 14 60 4 -30 7 -163 8
-295z"/>
</g>
</svg>
