<?xml version="1.0" standalone="no"?>
<!DOCTYPE svg PUBLIC "-//W3C//DTD SVG 20010904//EN"
 "http://www.w3.org/TR/2001/REC-SVG-20010904/DTD/svg10.dtd">
<svg version="1.0" xmlns="http://www.w3.org/2000/svg"
 width="512.000000pt" height="512.000000pt" viewBox="0 0 512.000000 512.000000"
 preserveAspectRatio="xMidYMid meet">
<metadata>
Created by potrace 1.15, written by Peter Selinger 2001-2017
</metadata>
<g transform="translate(0.000000,512.000000) scale(0.100000,-0.100000)"
fill="#ffffff" stroke="none">
<path d="M130 4744 l0 -236 38 -47 c179 -215 1137 -1369 1147 -1380 11 -11 20
-5 56 35 23 27 177 183 341 347 l299 298 -28 23 c-16 13 -345 287 -732 610
l-704 586 -208 0 -209 0 0 -236z"/>
<path d="M4280 4905 c-902 -154 -2323 -1244 -3287 -2520 -398 -527 -678 -1058
-784 -1485 -19 -80 -23 -121 -23 -260 -1 -150 1 -170 22 -223 64 -158 183
-234 384 -245 359 -18 899 199 1507 605 208 139 549 397 550 416 1 12 -122
157 -133 157 -5 0 -34 -21 -64 -47 -79 -68 -383 -297 -488 -368 -168 -113
-329 -208 -469 -276 -168 -81 -264 -114 -377 -130 -74 -10 -92 -9 -135 5 -100
33 -128 82 -128 221 1 86 5 113 34 195 113 327 404 779 819 1270 108 128 671
722 726 765 14 12 94 86 178 166 224 214 370 338 618 523 569 426 1025 635
1232 567 47 -16 94 -69 109 -123 45 -167 -90 -509 -363 -918 -104 -155 -278
-389 -396 -535 -45 -55 -82 -102 -82 -106 0 -8 150 -129 160 -129 9 0 241 296
337 430 33 47 98 144 145 215 276 426 436 767 521 1105 27 110 31 142 31 270
1 127 -2 153 -23 214 -43 124 -133 206 -266 241 -72 18 -247 19 -355 0z"/>
<path d="M2649 2946 c-164 -153 -427 -419 -572 -578 l-88 -97 626 -752 c344
-413 624 -753 622 -756 -15 -14 -162 -33 -268 -33 -153 -1 -282 23 -401 75
-45 19 -84 33 -86 30 -10 -10 157 -202 237 -272 445 -387 1014 -518 1493 -343
654 239 904 1007 563 1727 -88 186 -180 316 -349 493 -78 82 -175 165 -183
156 -2 -2 7 -26 20 -53 67 -132 107 -301 107 -448 0 -73 -24 -252 -35 -264 -6
-5 -52 33 -854 704 -366 305 -668 555 -672 555 -3 0 -75 -65 -160 -144z"/>
</g>
</svg>
