<?xml version="1.0" standalone="no"?>
<!DOCTYPE svg PUBLIC "-//W3C//DTD SVG 20010904//EN"
 "http://www.w3.org/TR/2001/REC-SVG-20010904/DTD/svg10.dtd">
<svg version="1.0" xmlns="http://www.w3.org/2000/svg"
 width="512.000000pt" height="512.000000pt" viewBox="0 0 512.000000 512.000000"
 preserveAspectRatio="xMidYMid meet">
<metadata>
Created by potrace 1.15, written by Peter Selinger 2001-2017
</metadata>
<g transform="translate(0.000000,512.000000) scale(0.100000,-0.100000)"
fill="#ffffff" stroke="none">
<path d="M2017 4886 c-3 -7 -9 -49 -12 -93 l-7 -80 43 -7 c24 -3 251 -31 504
-61 253 -30 554 -66 669 -79 115 -14 212 -24 214 -22 2 3 7 33 12 68 4 35 11
75 15 91 6 21 4 27 -9 27 -9 0 -184 20 -389 45 -205 24 -509 60 -677 80 -168
19 -317 37 -332 39 -16 3 -28 0 -31 -8z"/>
<path d="M4580 4843 c-113 -30 -209 -58 -213 -62 -5 -5 1 -36 12 -69 12 -34
21 -73 21 -87 0 -14 3 -25 6 -25 3 0 104 27 225 60 121 33 222 60 226 60 8 0
-1 53 -22 123 -12 41 -21 57 -33 56 -9 0 -109 -25 -222 -56z"/>
<path d="M3830 4861 c-137 -45 -220 -157 -220 -297 0 -39 7 -91 16 -117 20
-60 84 -131 148 -165 45 -24 62 -27 146 -27 84 0 101 3 145 27 66 35 108 80
141 152 23 52 26 67 22 140 -10 177 -119 286 -293 292 -44 2 -91 0 -105 -5z"/>
<path d="M3324 4232 c-88 -65 -188 -139 -224 -165 -224 -161 -365 -269 -362
-279 5 -19 97 -138 107 -138 6 0 48 29 95 64 47 34 209 154 360 265 151 112
279 207 284 212 6 5 0 20 -16 36 -14 16 -39 49 -56 76 l-30 47 -158 -118z"/>
<path d="M4180 4154 c-19 -13 -54 -31 -77 -40 -24 -9 -43 -21 -43 -26 0 -5 75
-139 166 -296 92 -158 178 -306 191 -329 14 -24 29 -43 35 -43 7 0 132 69 157
86 2 2 -30 61 -71 131 -41 70 -128 221 -194 335 -65 114 -121 207 -124 207 -3
0 -21 -11 -40 -25z"/>
<path d="M1197 4129 l-48 -44 -10 -115 c-13 -132 -5 -389 15 -530 8 -52 13
-96 12 -97 -1 -2 -29 2 -62 7 -32 6 -105 10 -160 10 l-101 0 -7 72 c-9 86 -52
264 -72 296 -29 45 -95 51 -141 13 l-22 -19 15 -142 c14 -137 40 -291 63 -376
10 -36 16 -42 53 -54 97 -29 170 -39 296 -40 l132 0 -5 -52 c-19 -191 -45
-952 -45 -1298 0 -234 12 -589 26 -807 l7 -101 65 -22 c96 -31 181 -37 236
-16 l45 17 8 67 c14 115 8 719 -10 980 -9 134 -17 257 -17 273 l0 29 81 0
c144 0 288 46 341 108 22 27 27 51 51 253 38 315 49 486 45 702 -3 187 -3 189
-28 209 -19 16 -35 19 -68 15 -24 -3 -50 -11 -57 -18 -14 -15 -79 -238 -120
-411 -34 -146 -64 -333 -72 -450 l-6 -98 -84 0 -83 0 4 373 c4 368 -3 664 -24
1012 -10 166 -13 181 -35 211 -37 48 -81 76 -129 81 -38 5 -46 1 -89 -38z"/>
<path d="M3640 4058 c-17 -46 -78 -207 -135 -358 -57 -151 -165 -436 -239
-633 -75 -197 -136 -360 -136 -361 0 -7 172 -68 177 -63 3 3 52 131 110 284
58 153 176 467 263 698 87 231 161 427 165 436 5 13 -4 19 -41 28 -26 7 -64
21 -85 31 -21 11 -40 20 -43 20 -2 0 -18 -37 -36 -82z"/>
<path d="M4330 2784 l0 -236 -27 7 c-15 3 -30 11 -33 16 -3 5 -14 66 -24 136
-9 70 -19 129 -22 132 -5 5 -174 -16 -180 -22 -5 -4 52 -407 58 -412 2 -1 53
-13 113 -27 l110 -24 3 -102 3 -102 -1169 0 c-1077 0 -1171 -1 -1183 -17 -23
-27 -146 -81 -227 -99 -43 -9 -83 -18 -91 -20 -11 -4 -13 -22 -8 -92 29 -394
33 -832 11 -1081 -6 -69 -10 -77 -46 -113 -22 -22 -65 -52 -97 -66 -49 -24
-68 -27 -156 -26 -115 0 -187 17 -304 71 l-80 38 -5 45 c-17 141 -29 501 -30
902 l-1 458 -347 0 -348 0 0 -950 0 -950 2310 0 2310 0 0 950 0 950 -175 0
-175 0 0 190 0 189 38 9 c20 6 73 18 117 28 l79 19 24 124 c13 67 22 125 19
127 -8 8 -159 35 -170 31 -7 -3 -18 -32 -25 -65 -10 -48 -17 -61 -35 -66 -47
-13 -47 -14 -47 139 l0 145 -95 0 -95 0 0 -236z"/>
</g>
</svg>
