<?xml version="1.0" standalone="no"?>
<!DOCTYPE svg PUBLIC "-//W3C//DTD SVG 20010904//EN"
 "http://www.w3.org/TR/2001/REC-SVG-20010904/DTD/svg10.dtd">
<svg version="1.0" xmlns="http://www.w3.org/2000/svg"
 width="512.000000pt" height="512.000000pt" viewBox="0 0 512.000000 512.000000"
 preserveAspectRatio="xMidYMid meet">
<metadata>
Created by potrace 1.15, written by Peter Selinger 2001-2017
</metadata>
<g transform="translate(0.000000,512.000000) scale(0.100000,-0.100000)"
fill="#ffffff" stroke="none">
<path d="M3570 4944 c-95 -20 -216 -84 -284 -149 -32 -30 -60 -55 -63 -55 -2
0 -19 11 -37 25 -55 42 -139 75 -223 86 -241 35 -464 -110 -513 -332 -14 -64
-9 -229 8 -271 l12 -28 635 0 c349 0 635 -2 635 -5 0 -3 97 -406 215 -896 118
-490 215 -895 215 -900 0 -5 -163 -9 -375 -9 -206 0 -375 -4 -375 -8 0 -4 -22
-200 -50 -435 -27 -235 -50 -437 -50 -448 0 -21 3 -22 88 -16 107 7 185 27
278 73 207 102 337 300 361 547 l6 67 44 0 c110 0 253 56 326 129 l28 27 51
-25 c102 -50 224 -28 295 53 43 48 56 96 51 178 -7 90 -40 141 -118 181 -47
24 -66 28 -124 26 l-69 -2 -12 41 c-29 98 -118 199 -218 248 l-54 27 23 41
c50 89 67 225 43 338 -25 117 -101 221 -206 280 -53 30 -53 30 -53 79 0 27 4
49 9 49 19 0 135 116 167 167 19 28 46 87 61 130 24 69 27 92 27 208 -1 114
-4 139 -26 202 -35 99 -70 155 -138 223 -138 138 -376 200 -590 154z"/>
<path d="M900 4720 c-180 -34 -305 -154 -349 -334 -17 -68 -15 -201 2 -259 33
-105 119 -201 229 -256 79 -40 154 -54 262 -49 76 3 102 9 158 35 84 40 156
106 196 181 27 52 37 81 56 165 6 26 9 27 69 27 141 1 229 92 229 237 1 202
-254 306 -404 166 l-26 -25 -60 37 c-105 65 -254 96 -362 75z"/>
<path d="M1429 3315 l-176 -725 343 0 342 0 6 -42 c3 -24 49 -416 101 -873 53
-456 98 -840 101 -852 l4 -23 453 0 452 0 84 723 c46 397 92 800 104 894 l20
173 342 2 342 3 -113 470 c-63 259 -141 584 -175 723 l-61 252 -997 0 -997 0
-175 -725z m643 -143 c147 -103 268 -189 268 -192 0 -7 -749 -74 -755 -68 -2
2 21 121 52 265 l57 262 55 -40 c31 -23 176 -125 323 -227z m1494 -12 c29
-134 51 -246 49 -248 -6 -6 -755 61 -755 68 0 3 145 107 323 231 237 166 323
222 326 210 2 -9 27 -126 57 -261z m-821 -546 c77 -102 146 -193 153 -203 11
-17 6 -24 -58 -71 -63 -47 -72 -51 -83 -36 -7 8 -43 58 -82 110 -38 53 -72 95
-75 95 -3 0 -36 -43 -75 -95 -100 -137 -88 -131 -167 -72 -44 32 -65 54 -60
62 18 30 298 396 302 396 3 0 68 -84 145 -186z"/>
<path d="M4619 3916 c-93 -33 -139 -100 -139 -202 1 -133 82 -214 215 -214
105 0 184 55 211 147 52 178 -112 332 -287 269z"/>
<path d="M4531 3324 c-37 -31 -61 -79 -61 -121 0 -41 36 -106 70 -126 33 -20
110 -24 150 -9 91 36 114 173 41 246 -27 27 -39 31 -99 34 -63 4 -71 2 -101
-24z"/>
<path d="M397 3220 c-92 -24 -169 -88 -209 -175 -17 -38 -22 -69 -22 -130 -1
-134 58 -229 174 -284 46 -21 69 -26 140 -25 56 0 98 6 123 17 l37 16 0 -32
c1 -148 106 -331 241 -418 220 -141 556 -109 738 70 48 46 101 123 101 146 0
3 -155 5 -345 5 -190 0 -345 2 -345 5 0 3 43 183 95 399 52 217 95 397 95 400
0 11 -73 6 -143 -9 -91 -19 -181 -61 -246 -114 -30 -24 -57 -39 -59 -33 -2 6
-19 31 -38 56 -65 85 -222 135 -337 106z"/>
<path d="M353 2389 c-104 -31 -135 -163 -59 -247 31 -33 39 -36 97 -39 106 -6
162 43 162 143 0 59 -17 92 -64 125 -30 22 -94 30 -136 18z"/>
<path d="M1720 2053 c-105 -36 -168 -105 -195 -212 -20 -77 -13 -161 18 -223
l22 -43 -42 -58 c-57 -79 -83 -165 -83 -276 0 -130 27 -212 97 -298 40 -50
102 -95 164 -119 24 -10 45 -18 46 -19 1 0 -4 -19 -12 -40 -20 -56 -18 -142 4
-190 55 -122 211 -169 339 -103 46 24 94 80 107 126 6 22 5 22 -94 22 l-100 0
-6 32 c-3 18 -39 326 -80 683 -41 358 -77 669 -80 693 -6 38 -9 42 -33 42 -15
-1 -47 -8 -72 -17z"/>
<path d="M3249 928 l-35 -303 -261 -5 -262 -5 17 -35 c25 -54 120 -143 183
-173 76 -35 129 -47 224 -47 93 0 150 12 217 44 41 20 48 21 48 7 1 -29 41
-105 73 -139 18 -19 55 -46 82 -60 74 -40 236 -40 310 0 110 58 159 144 160
278 0 73 -4 93 -28 142 -34 69 -91 121 -166 149 -46 17 -72 20 -143 17 l-87
-4 -6 55 c-20 171 -95 290 -224 355 -28 14 -54 26 -59 26 -4 0 -24 -136 -43
-302z"/>
<path d="M4762 1153 c-107 -53 -67 -233 53 -233 40 0 92 26 111 55 22 33 21
107 -1 141 -18 28 -71 54 -107 54 -13 0 -38 -8 -56 -17z"/>
<path d="M556 949 c-68 -11 -134 -55 -171 -113 -26 -42 -30 -61 -33 -130 -3
-73 0 -87 25 -136 36 -71 95 -115 173 -132 l60 -12 0 -48 c0 -103 72 -178 180
-186 138 -10 224 66 224 198 0 94 -36 151 -116 184 -36 15 -36 16 -26 53 14
52 5 141 -21 190 -50 99 -169 152 -295 132z"/>
<path d="M4575 795 c-22 -8 -50 -26 -62 -40 -19 -22 -25 -24 -50 -14 -77 29
-195 0 -246 -60 -81 -97 -46 -261 67 -312 52 -24 129 -24 181 0 46 20 102 79
111 116 5 20 12 25 40 25 93 0 158 60 158 145 0 111 -95 178 -199 140z"/>
<path d="M1245 778 c-67 -23 -101 -85 -93 -163 3 -23 14 -54 24 -68 57 -79
205 -74 256 7 15 24 18 45 16 93 -3 53 -8 67 -33 93 -43 45 -108 60 -170 38z"/>
</g>
</svg>
