<?xml version="1.0" standalone="no"?>
<!DOCTYPE svg PUBLIC "-//W3C//DTD SVG 20010904//EN"
 "http://www.w3.org/TR/2001/REC-SVG-20010904/DTD/svg10.dtd">
<svg version="1.0" xmlns="http://www.w3.org/2000/svg"
 width="512.000000pt" height="512.000000pt" viewBox="0 0 512.000000 512.000000"
 preserveAspectRatio="xMidYMid meet">
<metadata>
Created by potrace 1.15, written by Peter Selinger 2001-2017
</metadata>
<g transform="translate(0.000000,512.000000) scale(0.100000,-0.100000)"
fill="#ffffff" stroke="none">
<path d="M1696 4951 c5 -5 208 -168 452 -363 l443 -354 352 -17 c194 -10 367
-20 385 -23 l32 -5 0 -87 0 -87 -747 42 c-630 35 -1902 94 -2023 93 -54 -1
-29 -10 250 -93 140 -42 572 -171 960 -287 388 -115 776 -231 862 -257 86 -26
154 -51 151 -56 -5 -8 -1938 -2423 -1953 -2440 -4 -4 -38 30 -76 77 -38 48
-72 86 -75 86 -3 0 -50 -87 -104 -193 -54 -105 -165 -324 -247 -484 -82 -161
-146 -293 -141 -293 5 0 49 33 98 73 50 40 311 253 580 473 270 220 787 642
1150 939 l659 538 241 -53 c132 -29 245 -56 251 -59 7 -3 -69 -89 -176 -201
l-188 -194 -53 45 c-30 25 -59 49 -66 52 -7 5 -113 -142 -298 -414 -157 -231
-284 -423 -282 -426 3 -2 252 145 553 328 1045 633 1250 757 1494 904 135 81
251 153 259 160 17 16 61 2 -579 180 -289 80 -533 149 -544 153 -15 6 54 67
385 337 222 181 444 362 492 402 77 64 91 72 115 66 52 -15 165 -7 222 15 160
63 316 265 382 497 31 109 33 369 4 455 -44 130 -106 216 -195 268 -35 20 -61
27 -125 30 -127 6 -210 -29 -324 -140 -116 -112 -191 -261 -228 -452 l-17 -85
-76 28 c-42 16 -267 99 -501 186 -234 86 -535 197 -670 247 -135 50 -431 160
-659 244 -228 85 -419 154 -425 154 -6 0 -6 -3 0 -9z"/>
</g>
</svg>
