<?xml version="1.0" standalone="no"?>
<!DOCTYPE svg PUBLIC "-//W3C//DTD SVG 20010904//EN"
 "http://www.w3.org/TR/2001/REC-SVG-20010904/DTD/svg10.dtd">
<svg version="1.0" xmlns="http://www.w3.org/2000/svg"
 width="512.000000pt" height="512.000000pt" viewBox="0 0 512.000000 512.000000"
 preserveAspectRatio="xMidYMid meet">
<metadata>
Created by potrace 1.15, written by Peter Selinger 2001-2017
</metadata>
<g transform="translate(0.000000,512.000000) scale(0.100000,-0.100000)"
fill="#ffffff" stroke="none">
<path d="M2948 4714 c-64 -34 -75 -113 -25 -171 71 -83 531 -589 545 -600 43
-34 146 3 166 60 20 57 1 84 -265 379 -141 156 -273 298 -293 316 -41 36 -83
41 -128 16z"/>
<path d="M1633 4142 c-131 -120 -376 -341 -544 -492 -167 -151 -324 -293 -349
-316 -25 -23 -148 -135 -275 -249 -126 -114 -231 -211 -233 -215 -2 -7 785
-885 1017 -1135 102 -110 236 -258 248 -274 10 -14 15 -12 45 15 35 32 239
218 573 519 110 99 229 207 265 240 36 33 108 98 160 145 52 47 124 112 160
145 36 33 154 140 263 239 l197 178 0 67 c-1 171 -72 326 -230 498 -20 21 -39
43 -43 49 -4 7 71 82 183 183 105 95 190 176 190 181 0 4 -3 10 -8 12 -4 2
-49 50 -101 108 -168 187 -293 320 -301 320 -4 0 -45 -34 -91 -76 -46 -43
-104 -95 -129 -118 -25 -23 -71 -65 -103 -94 l-58 -54 -92 95 c-107 109 -149
143 -232 184 -65 33 -128 49 -216 56 l-56 5 -240 -216z m239 -489 c73 -82 147
-164 165 -183 l32 -35 28 26 c210 191 342 309 346 309 2 0 46 -46 97 -102 l92
-102 -39 -35 c-172 -156 -235 -213 -281 -256 l-52 -50 81 -90 c45 -49 121
-133 170 -186 l87 -96 -99 -89 c-55 -49 -104 -90 -108 -92 -5 -2 -82 78 -171
178 -89 99 -166 180 -171 180 -5 0 -221 -192 -481 -427 l-471 -427 -64 70
c-35 38 -77 85 -93 105 l-29 36 282 256 c155 140 291 263 302 274 11 10 65 58
120 108 55 49 123 111 150 137 28 25 61 55 74 66 l25 19 -119 129 c-65 71
-141 152 -167 181 -26 28 -48 56 -48 61 0 11 187 182 200 182 5 0 69 -66 142
-147z"/>
<path d="M3675 3724 c-45 -100 -103 -257 -126 -345 -17 -64 -23 -113 -23 -205
-1 -118 0 -122 28 -163 47 -67 122 -94 203 -72 144 39 171 228 74 528 -36 109
-109 295 -121 307 -5 5 -20 -15 -35 -50z"/>
<path d="M3720 2734 c0 -5 -11 -99 -25 -209 -14 -110 -25 -210 -25 -221 0 -19
7 -22 53 -27 28 -2 53 -4 53 -3 5 4 -44 458 -50 463 -3 3 -6 2 -6 -3z"/>
<path d="M3133 2583 c3 -5 64 -147 137 -318 73 -170 135 -316 140 -324 6 -11
20 9 50 69 l42 83 -19 26 c-10 14 -90 126 -178 249 -87 122 -163 222 -167 222
-5 0 -7 -3 -5 -7z"/>
<path d="M4130 2348 c-96 -128 -179 -240 -184 -250 -6 -13 1 -38 28 -93 20
-42 41 -73 45 -71 5 3 39 72 76 153 37 82 101 221 142 311 41 89 73 167 71
172 -2 5 -82 -95 -178 -222z"/>
<path d="M2710 2157 c78 -61 620 -467 624 -467 6 0 59 171 54 174 -15 10 -676
306 -683 306 -6 0 -3 -6 5 -13z"/>
<path d="M4375 1997 c-181 -77 -331 -141 -332 -142 -3 -1 46 -167 51 -172 2
-2 93 60 202 138 110 78 244 174 299 212 151 107 151 107 129 106 -11 -1 -167
-64 -349 -142z"/>
<path d="M3687 2068 c-61 -80 -143 -274 -189 -447 -28 -103 -31 -132 -32 -261
-1 -129 2 -151 22 -203 39 -96 110 -133 242 -125 120 7 180 49 211 147 21 66
23 262 4 369 -29 161 -95 344 -171 471 -51 85 -57 89 -87 49z"/>
<path d="M2910 1625 c-179 -19 -336 -34 -350 -35 -23 -1 -23 -2 -5 -10 17 -8
480 -66 676 -86 l67 -7 11 64 c6 35 14 74 17 87 6 21 3 22 -42 21 -27 -1 -195
-16 -374 -34z"/>
<path d="M4100 1648 c2 -28 30 -161 34 -165 8 -8 702 55 736 67 21 7 22 9 5 9
-11 1 -177 21 -370 46 -317 41 -405 50 -405 43z"/>
<path d="M3000 1224 c-157 -113 -292 -209 -300 -214 -8 -4 -12 -11 -10 -14 3
-3 139 52 303 122 l297 126 0 93 c0 51 -1 93 -2 93 -2 -1 -131 -93 -288 -206z"/>
<path d="M4135 1319 l0 -92 91 -41 c50 -23 115 -52 145 -65 30 -13 117 -53
194 -88 76 -35 143 -62 148 -60 4 1 -14 19 -40 38 -26 20 -153 116 -281 213
-129 98 -239 179 -245 182 -9 3 -12 -22 -12 -87z"/>
<path d="M3221 814 c-61 -136 -110 -249 -107 -251 4 -4 254 323 286 374 12 19
10 27 -21 72 -19 28 -37 51 -40 51 -3 0 -56 -111 -118 -246z"/>
<path d="M4036 1001 c-21 -28 -36 -57 -33 -65 9 -23 279 -398 283 -393 4 4
-184 457 -205 495 -6 10 -18 0 -45 -37z"/>
<path d="M3650 837 c0 -33 41 -442 45 -446 5 -5 13 43 35 229 11 91 22 182 25
202 l5 36 -55 -1 c-47 -1 -55 -4 -55 -20z"/>
</g>
</svg>
