<?xml version="1.0" standalone="no"?>
<!DOCTYPE svg PUBLIC "-//W3C//DTD SVG 20010904//EN"
 "http://www.w3.org/TR/2001/REC-SVG-20010904/DTD/svg10.dtd">
<svg version="1.0" xmlns="http://www.w3.org/2000/svg"
 width="512.000000pt" height="512.000000pt" viewBox="0 0 512.000000 512.000000"
 preserveAspectRatio="xMidYMid meet">
<metadata>
Created by potrace 1.15, written by Peter Selinger 2001-2017
</metadata>
<g transform="translate(0.000000,512.000000) scale(0.100000,-0.100000)"
fill="#ffffff" stroke="none">
<path d="M1873 4870 c-134 -51 -296 -124 -698 -315 -442 -211 -722 -329 -950
-402 -16 -5 -29 -14 -28 -19 2 -12 135 -85 245 -135 61 -27 97 -38 111 -33 12
3 103 46 202 95 203 100 339 184 413 255 l51 49 55 -38 c31 -21 56 -44 56 -51
0 -20 -116 -125 -200 -181 -41 -27 -142 -84 -225 -126 -123 -64 -145 -79 -125
-83 95 -22 126 -26 216 -32 l102 -7 75 52 c97 67 179 139 235 206 l45 54 58
-29 c32 -16 60 -33 63 -38 7 -12 -38 -78 -92 -134 -25 -26 -43 -50 -41 -53 3
-3 46 15 95 39 132 64 230 148 332 281 25 33 48 64 52 68 4 4 32 -32 63 -80
30 -48 84 -117 119 -152 62 -62 63 -63 107 -57 24 3 59 6 77 6 l34 0 0 161 0
162 -46 49 c-54 57 -91 134 -104 214 -10 60 -10 62 11 157 l12 58 -34 35 c-74
78 -133 83 -286 24z"/>
<path d="M3015 4891 c-16 -10 -43 -32 -59 -50 -29 -30 -29 -31 -17 -88 21 -95
21 -97 11 -157 -13 -80 -50 -157 -104 -214 l-46 -49 0 -162 0 -161 34 0 c18 0
53 -3 77 -6 44 -6 45 -5 109 60 35 36 87 101 115 144 27 44 53 81 57 83 3 2
29 -25 56 -61 103 -136 203 -221 336 -286 49 -24 92 -42 94 -39 3 2 -21 32
-52 65 -31 34 -63 74 -71 90 -17 33 -15 35 61 73 l51 26 45 -54 c56 -67 138
-139 235 -206 l75 -52 102 7 c90 6 121 10 216 32 20 4 -2 19 -125 83 -83 42
-184 99 -225 126 -84 56 -200 161 -200 181 0 7 25 30 56 51 l55 38 51 -49 c74
-71 210 -155 413 -255 99 -49 190 -92 202 -95 14 -5 50 6 111 33 108 49 243
123 245 135 1 4 -59 29 -133 56 -240 84 -457 178 -920 400 -637 305 -772 353
-855 301z"/>
<path d="M2455 4861 c-87 -40 -135 -120 -135 -223 1 -142 97 -238 240 -238
144 0 240 96 240 240 0 104 -53 187 -142 224 -52 22 -153 20 -203 -3z"/>
<path d="M2480 4130 l0 -125 40 -13 c32 -10 48 -10 80 0 l40 13 0 125 0 125
-80 0 -80 0 0 -125z"/>
<path d="M2158 3840 c-225 -47 -379 -135 -443 -251 -27 -49 -30 -65 -33 -165
-5 -144 12 -189 106 -274 54 -50 103 -79 296 -175 254 -125 430 -224 576 -320
52 -35 125 -78 162 -96 76 -37 84 -35 119 32 31 62 26 123 -18 198 -75 128
-199 231 -438 366 -138 78 -254 122 -346 132 l-56 6 -12 51 c-6 28 -14 61 -17
73 -5 19 4 27 77 64 174 87 297 182 330 254 23 51 25 111 3 119 -33 13 -222 4
-306 -14z"/>
<path d="M2653 3854 c-19 -8 -15 -73 6 -119 33 -72 156 -167 330 -254 73 -37
82 -45 77 -64 -3 -12 -11 -46 -17 -74 -12 -50 -14 -53 -43 -53 -56 0 -297 -73
-296 -90 0 -3 31 -25 68 -50 37 -25 100 -78 141 -118 l74 -72 77 33 c188 81
309 175 350 269 19 45 22 65 18 162 -3 101 -6 116 -33 165 -82 150 -332 259
-610 267 -71 2 -136 1 -142 -2z"/>
<path d="M2517 3562 l-37 -38 0 -92 0 -92 40 -20 40 -20 40 20 40 20 0 93 0
93 -38 37 c-21 20 -40 37 -43 37 -3 0 -22 -17 -42 -38z"/>
<path d="M2171 2744 c-17 -38 -13 -110 8 -152 39 -77 162 -171 396 -302 164
-92 270 -165 301 -206 73 -95 38 -192 -92 -254 -56 -27 -82 -50 -56 -50 5 0
43 -32 86 -72 l78 -72 104 52 c108 54 184 114 211 166 24 47 13 167 -22 235
-57 113 -164 197 -430 338 -82 44 -179 100 -214 126 -66 49 -245 159 -317 195
l-41 21 -12 -25z"/>
<path d="M2140 2299 c-85 -55 -172 -143 -205 -210 -35 -68 -46 -188 -22 -235
22 -43 96 -108 159 -140 250 -128 520 -255 602 -283 l99 -34 19 22 c10 13 18
38 18 57 0 29 -9 41 -77 100 -100 85 -197 148 -345 225 -124 64 -161 97 -177
155 -19 70 20 135 123 205 36 24 64 47 63 51 -2 6 -184 128 -191 128 -1 0 -31
-18 -66 -41z"/>
<path d="M2512 2099 l-33 -21 3 -76 3 -75 40 -14 c35 -13 44 -13 78 1 l37 16
0 74 c0 74 0 75 -34 95 -42 26 -53 26 -94 0z"/>
<path d="M2385 1353 c16 -70 83 -141 250 -265 202 -151 238 -194 237 -284 -1
-107 -91 -242 -308 -461 -72 -73 -130 -133 -127 -133 11 0 97 49 171 97 274
180 472 420 472 570 0 99 -40 149 -227 281 -56 40 -104 76 -108 81 -3 5 -49
24 -103 42 -53 18 -130 47 -171 66 -40 18 -78 33 -83 33 -6 0 -7 -12 -3 -27z"/>
<path d="M2210 1117 c-90 -67 -145 -123 -161 -164 -15 -39 -10 -119 9 -171 38
-99 143 -227 281 -341 l63 -52 24 22 c13 12 24 28 24 34 0 6 -19 34 -43 62
-69 81 -116 147 -138 198 -25 56 -28 139 -6 181 15 28 81 95 140 141 l28 22
-65 65 c-36 36 -66 66 -68 66 -2 0 -41 -29 -88 -63z"/>
<path d="M2512 922 l-32 -27 0 -122 0 -123 37 -42 c21 -24 39 -45 41 -48 2 -3
21 15 43 40 l38 45 1 127 0 127 -37 26 c-46 31 -50 31 -91 -3z"/>
</g>
</svg>
