<?xml version="1.0" standalone="no"?>
<!DOCTYPE svg PUBLIC "-//W3C//DTD SVG 20010904//EN"
 "http://www.w3.org/TR/2001/REC-SVG-20010904/DTD/svg10.dtd">
<svg version="1.0" xmlns="http://www.w3.org/2000/svg"
 width="512.000000pt" height="512.000000pt" viewBox="0 0 512.000000 512.000000"
 preserveAspectRatio="xMidYMid meet">
<metadata>
Created by potrace 1.15, written by Peter Selinger 2001-2017
</metadata>
<g transform="translate(0.000000,512.000000) scale(0.100000,-0.100000)"
fill="#ffffff" stroke="none">
<path d="M391 4926 c2 -2 641 -574 1419 -1270 l1415 -1266 754 0 c415 0 752 2
750 4 -2 2 -641 574 -1419 1270 l-1415 1266 -754 0 c-415 0 -752 -2 -750 -4z"/>
<path d="M250 4687 l0 -135 1407 -1259 c774 -692 1417 -1266 1430 -1276 l23
-18 0 134 0 135 -1407 1259 c-774 692 -1417 1266 -1430 1276 l-23 18 0 -134z"/>
<path d="M890 3573 l0 -181 223 -198 c122 -109 224 -201 227 -204 5 -6 2357
-2108 2393 -2138 16 -14 17 6 17 414 l0 430 -317 64 -318 64 -110 96 c-270
233 -2072 1795 -2092 1813 l-23 20 0 -180z"/>
<path d="M541 3210 c-106 -27 -195 -51 -197 -53 -8 -7 2865 -2572 2883 -2575
17 -3 421 93 430 102 2 2 -642 581 -1431 1287 -1128 1009 -1441 1284 -1463
1286 -15 1 -115 -21 -222 -47z"/>
<path d="M250 2877 l0 -125 1033 -923 c1249 -1118 1786 -1597 1810 -1617 16
-14 17 -8 17 111 l0 126 -233 208 c-129 114 -764 682 -1413 1262 -648 580
-1187 1061 -1196 1069 -17 14 -18 8 -18 -111z"/>
<path d="M3290 2097 l0 -112 320 -80 320 -80 0 -625 0 -625 -320 -80 -320 -80
0 -112 0 -113 790 0 790 0 0 113 0 112 -320 80 -320 80 0 625 0 625 320 80
320 80 0 112 0 113 -790 0 -790 0 0 -113z"/>
<path d="M4410 783 l0 -79 107 -26 c59 -15 109 -25 112 -23 2 2 -25 30 -60 62
-35 32 -85 78 -111 102 l-48 44 0 -80z"/>
</g>
</svg>
