<?xml version="1.0" standalone="no"?>
<!DOCTYPE svg PUBLIC "-//W3C//DTD SVG 20010904//EN"
 "http://www.w3.org/TR/2001/REC-SVG-20010904/DTD/svg10.dtd">
<svg version="1.0" xmlns="http://www.w3.org/2000/svg"
 width="512.000000pt" height="512.000000pt" viewBox="0 0 512.000000 512.000000"
 preserveAspectRatio="xMidYMid meet">
<metadata>
Created by potrace 1.15, written by Peter Selinger 2001-2017
</metadata>
<g transform="translate(0.000000,512.000000) scale(0.100000,-0.100000)"
fill="#ffffff" stroke="none">
<path d="M1791 4620 c-197 -120 -349 -260 -406 -373 -29 -59 -35 -80 -35 -136
0 -134 68 -216 279 -336 123 -70 201 -137 201 -173 0 -100 -112 -320 -251
-492 l-52 -64 69 -64 69 -63 43 48 c63 70 205 286 247 373 19 42 42 109 51
150 40 193 -29 306 -268 442 -145 82 -201 132 -200 177 2 82 160 236 365 356
l67 39 -41 75 c-22 42 -44 79 -48 84 -4 4 -45 -15 -90 -43z"/>
<path d="M2657 4295 c-200 -90 -355 -202 -398 -288 -17 -32 -20 -54 -17 -103
7 -106 67 -163 248 -235 204 -82 238 -106 220 -154 -20 -52 -96 -149 -189
-239 l-91 -89 42 -54 c24 -30 51 -64 60 -76 16 -21 18 -20 145 108 218 221
274 361 198 491 -32 55 -106 102 -246 160 -133 54 -185 80 -194 95 -17 26 100
113 253 188 55 26 113 53 130 59 l30 10 -31 86 c-21 57 -37 86 -47 85 -8 0
-59 -20 -113 -44z"/>
<path d="M3417 4202 c-63 -42 -117 -163 -117 -262 0 -76 66 -165 208 -277 l24
-19 -51 -246 c-28 -135 -51 -251 -51 -257 0 -14 139 -56 150 -45 4 5 55 100
114 212 l106 203 -40 52 c-22 29 -46 73 -55 96 -19 55 -19 150 0 224 20 75 20
74 -14 91 -16 9 -58 53 -94 99 -62 79 -129 147 -145 147 -4 0 -19 -8 -35 -18z"/>
<path d="M3979 4035 c-53 -29 -102 -131 -115 -239 -6 -47 -3 -60 22 -106 26
-48 174 -200 195 -200 15 0 11 -29 -41 -276 -27 -131 -50 -241 -50 -244 0 -3
32 -16 72 -29 64 -21 73 -22 83 -8 6 9 65 119 131 246 l119 229 80 27 c126 42
245 105 297 155 48 46 48 46 48 113 0 114 -56 226 -136 273 -52 31 -55 30
-167 -71 -171 -156 -231 -155 -361 8 -75 95 -119 137 -140 137 -6 -1 -23 -7
-37 -15z"/>
<path d="M805 3867 c-201 -106 -341 -220 -390 -317 -50 -98 -27 -213 58 -286
23 -20 107 -68 186 -106 79 -39 159 -85 178 -101 31 -27 34 -34 28 -66 -15
-82 -103 -216 -224 -343 l-69 -73 64 -70 64 -70 74 76 c190 196 300 402 281
528 -17 112 -81 174 -284 274 -165 81 -202 107 -194 138 15 54 157 165 329
256 49 25 90 47 92 48 8 6 -68 160 -80 162 -7 2 -58 -21 -113 -50z"/>
<path d="M3228 2933 c-43 -31 -76 -58 -74 -60 2 -2 48 -15 102 -28 55 -13 137
-35 183 -49 77 -23 86 -23 107 -9 17 11 24 24 23 47 -2 73 -7 77 -119 112 -57
18 -113 35 -124 38 -15 3 -45 -12 -98 -51z"/>
<path d="M3765 2743 c-350 -268 -669 -581 -812 -797 -55 -82 -168 -325 -217
-466 -79 -227 -95 -414 -46 -543 51 -135 155 -172 370 -131 349 66 713 284
909 545 78 103 146 243 165 339 27 133 39 344 32 535 -7 197 -32 468 -45 500
-6 16 -39 30 -127 58 -66 21 -121 37 -124 37 -3 0 -50 -35 -105 -77z"/>
<path d="M2525 2724 c-571 -56 -1090 -224 -1425 -462 -218 -155 -399 -382
-445 -559 -58 -223 51 -508 225 -587 30 -13 123 -38 205 -55 344 -69 736 -110
1234 -127 189 -7 194 -7 186 12 -15 36 -17 246 -2 327 12 71 12 78 -2 74 -9
-3 -55 -16 -103 -30 -256 -76 -618 -77 -953 -2 -119 27 -313 82 -334 94 -30
19 63 244 159 387 97 143 262 298 408 383 106 61 102 61 141 -25 19 -41 32
-76 30 -78 -2 -1 -32 -18 -65 -35 -89 -47 -216 -152 -294 -244 -66 -78 -170
-238 -170 -263 0 -7 43 -23 108 -38 314 -75 619 -84 872 -25 76 17 247 77 276
97 6 4 24 39 39 77 137 346 260 524 576 828 l170 165 -83 22 c-286 78 -463 92
-753 64z"/>
<path d="M4340 2073 c-1 -298 -29 -452 -115 -628 -68 -139 -157 -257 -287
-379 -56 -53 -97 -96 -92 -96 30 0 383 42 458 55 126 20 154 30 179 61 118
147 197 254 245 329 101 162 152 322 152 481 l0 73 -72 41 c-40 22 -162 85
-270 140 l-198 101 0 -178z"/>
<path d="M454 1219 c-287 -152 -279 -288 25 -440 302 -151 823 -258 1511 -311
215 -16 915 -16 1130 0 713 55 1212 160 1534 325 173 88 241 177 201 261 -17
35 -77 96 -94 96 -5 0 -50 -51 -100 -114 -55 -69 -104 -120 -123 -129 -94 -44
-511 -101 -903 -123 -104 -6 -130 -11 -195 -39 -249 -106 -508 -150 -645 -110
-78 22 -123 46 -164 87 l-34 33 -264 7 c-653 17 -1323 106 -1532 204 -89 42
-180 130 -229 222 -18 34 -39 62 -46 62 -7 0 -40 -14 -72 -31z"/>
</g>
</svg>
