<?xml version="1.0" standalone="no"?>
<!DOCTYPE svg PUBLIC "-//W3C//DTD SVG 20010904//EN"
 "http://www.w3.org/TR/2001/REC-SVG-20010904/DTD/svg10.dtd">
<svg version="1.0" xmlns="http://www.w3.org/2000/svg"
 width="512.000000pt" height="512.000000pt" viewBox="0 0 512.000000 512.000000"
 preserveAspectRatio="xMidYMid meet">
<metadata>
Created by potrace 1.15, written by Peter Selinger 2001-2017
</metadata>
<g transform="translate(0.000000,512.000000) scale(0.100000,-0.100000)"
fill="#ffffff" stroke="none">
<path d="M810 4871 c0 -79 0 -79 -30 -89 -47 -17 -116 -95 -140 -160 -54 -143
6 -318 133 -383 l37 -19 0 -113 0 -112 -46 -24 c-170 -90 -194 -360 -44 -495
22 -20 52 -41 66 -46 24 -9 24 -11 24 -129 l0 -119 -30 -12 c-44 -18 -103 -80
-131 -136 -31 -64 -37 -161 -15 -237 18 -63 95 -156 146 -177 l30 -12 0 -98 0
-98 -80 20 c-45 12 -82 19 -83 17 -2 -2 -101 -280 -221 -617 -194 -546 -218
-619 -218 -675 -1 -132 88 -223 229 -235 85 -7 144 12 199 62 42 39 51 58 158
336 62 162 135 352 162 421 l49 126 340 -94 c187 -52 340 -95 341 -96 2 -4
274 -1482 274 -1490 0 -4 273 -6 607 -5 l608 3 138 744 c76 410 139 746 140
748 6 5 655 183 668 183 9 0 67 -137 163 -388 82 -213 160 -408 174 -434 54
-103 187 -146 317 -101 59 20 127 85 145 137 28 84 16 127 -210 761 -117 330
-217 604 -221 609 -5 6 -32 3 -69 -7 -33 -9 -64 -17 -70 -17 -6 0 -10 37 -10
93 l0 92 36 20 c51 28 120 107 138 162 22 65 20 160 -5 228 -22 60 -88 134
-138 155 l-31 12 0 119 c0 118 0 120 25 129 40 15 109 85 135 136 32 64 39
173 16 242 -23 69 -75 133 -130 163 l-46 24 0 112 0 113 38 19 c126 65 186
240 132 383 -24 65 -93 143 -140 160 -30 10 -30 10 -30 89 l0 79 -95 0 -95 0
0 -79 c0 -73 -2 -80 -21 -86 -12 -4 -42 -26 -66 -48 -150 -138 -131 -385 38
-489 l49 -31 0 -113 c0 -106 -1 -113 -21 -119 -12 -4 -42 -26 -66 -48 -150
-138 -131 -385 38 -489 l49 -31 0 -117 c0 -115 0 -117 -25 -128 -46 -21 -112
-92 -136 -145 -32 -71 -33 -191 -2 -258 26 -59 83 -122 129 -144 l35 -16 -3
-121 -3 -122 -415 -105 -414 -106 -1 -130 c-1 -147 -16 -216 -71 -332 -86
-181 -248 -321 -449 -389 -70 -24 -96 -27 -215 -28 -115 -1 -146 2 -210 22
-215 67 -377 208 -471 407 -52 113 -72 212 -67 341 l4 104 -31 9 c-16 4 -204
52 -417 106 l-388 99 0 123 0 122 35 17 c45 21 102 84 128 143 31 67 30 187
-2 258 -24 53 -90 124 -136 145 -25 11 -25 13 -25 128 l0 117 49 31 c169 104
188 351 38 489 -24 22 -54 44 -66 48 -20 6 -21 13 -21 119 l0 113 49 31 c169
104 188 351 38 489 -24 22 -54 44 -66 48 -19 6 -21 13 -21 86 l0 79 -95 0 -95
0 0 -79z m128 -265 c40 -21 56 -58 53 -124 -1 -32 -53 -82 -84 -82 -37 0 -85
45 -93 85 -8 43 21 105 56 122 32 16 35 16 68 -1z m3364 -13 c24 -22 41 -78
33 -113 -8 -36 -58 -80 -92 -80 -14 0 -37 13 -54 29 -24 25 -29 38 -29 78 1
92 81 141 142 86z m-3364 -787 c62 -32 74 -126 23 -177 -38 -37 -79 -38 -114
-3 -51 51 -43 139 17 175 37 23 39 23 74 5z m3343 -2 c62 -32 74 -126 22 -178
-35 -35 -76 -34 -114 3 -23 24 -29 38 -29 73 1 51 18 86 51 104 31 17 34 17
70 -2z m-3328 -819 c28 -20 46 -82 36 -118 -29 -103 -151 -100 -174 4 -8 38
11 95 38 114 27 19 76 19 100 0z m3344 0 c33 -23 48 -83 33 -129 -14 -43 -43
-66 -86 -66 -84 0 -116 143 -45 197 22 17 72 16 98 -2z"/>
<path d="M2433 2566 c-192 -47 -356 -211 -408 -406 -19 -71 -19 -219 0 -290
26 -97 74 -181 146 -252 37 -38 72 -68 78 -68 7 0 11 32 11 95 l0 95 90 0 90
0 0 -139 0 -138 31 -7 c40 -8 163 -8 212 0 l37 7 0 138 0 139 90 0 89 0 3 -97
3 -98 65 65 c313 313 171 847 -255 955 -71 18 -209 18 -282 1z"/>
</g>
</svg>
