<?xml version="1.0" standalone="no"?>
<!DOCTYPE svg PUBLIC "-//W3C//DTD SVG 20010904//EN"
 "http://www.w3.org/TR/2001/REC-SVG-20010904/DTD/svg10.dtd">
<svg version="1.0" xmlns="http://www.w3.org/2000/svg"
 width="512.000000pt" height="512.000000pt" viewBox="0 0 512.000000 512.000000"
 preserveAspectRatio="xMidYMid meet">
<metadata>
Created by potrace 1.15, written by Peter Selinger 2001-2017
</metadata>
<g transform="translate(0.000000,512.000000) scale(0.100000,-0.100000)"
fill="#ffffff" stroke="none">
<path d="M2431 4988 c0 -73 10 -495 22 -938 l22 -805 155 -7 c85 -4 155 -6
156 -5 2 2 -73 1878 -75 1885 -1 1 -64 2 -141 2 l-140 0 1 -132z"/>
<path d="M2390 3064 c-357 -45 -645 -186 -895 -438 -135 -136 -221 -254 -295
-408 -47 -96 -51 -110 -58 -210 -36 -455 142 -893 488 -1203 184 -165 436
-288 680 -330 110 -19 340 -19 450 0 359 63 649 281 795 598 204 442 98 976
-262 1318 -141 134 -298 223 -489 276 -91 26 -113 28 -274 28 -197 0 -261 -13
-402 -80 -328 -155 -513 -498 -469 -865 57 -465 441 -801 888 -778 278 15 482
167 569 423 36 107 38 263 4 370 -61 196 -198 339 -385 401 -70 23 -92 26
-185 22 -95 -3 -112 -6 -172 -36 -232 -114 -287 -417 -108 -592 55 -54 122
-80 203 -80 99 0 157 46 165 131 l5 52 -89 -7 -90 -7 -17 36 c-42 88 -3 157
105 186 62 17 125 -7 184 -69 131 -136 84 -373 -91 -460 -73 -36 -146 -47
-226 -33 -207 37 -370 198 -414 409 -18 85 -18 129 0 217 77 363 479 532 853
360 205 -95 361 -277 428 -500 37 -124 40 -310 6 -430 -92 -319 -357 -535
-695 -565 -185 -16 -338 15 -522 105 -624 305 -791 1149 -325 1648 154 165
343 267 570 308 103 19 324 16 425 -5 542 -115 953 -531 1062 -1074 25 -123
24 -386 -1 -502 -54 -247 -166 -459 -335 -630 -100 -101 -181 -160 -307 -224
-197 -99 -374 -139 -609 -139 -248 0 -446 48 -680 163 -160 80 -282 164 -392
271 -168 164 -265 296 -360 494 -30 64 -57 114 -59 112 -2 -1 7 -50 20 -108
69 -300 211 -548 438 -764 251 -240 555 -375 910 -407 346 -31 673 53 967 249
391 260 642 691 669 1148 17 281 -27 517 -143 762 -76 161 -161 279 -300 419
-219 220 -474 358 -778 420 -71 14 -386 27 -457 18z"/>
</g>
</svg>
