<?xml version="1.0" standalone="no"?>
<!DOCTYPE svg PUBLIC "-//W3C//DTD SVG 20010904//EN"
 "http://www.w3.org/TR/2001/REC-SVG-20010904/DTD/svg10.dtd">
<svg version="1.0" xmlns="http://www.w3.org/2000/svg"
 width="512.000000pt" height="512.000000pt" viewBox="0 0 512.000000 512.000000"
 preserveAspectRatio="xMidYMid meet">
<metadata>
Created by potrace 1.15, written by Peter Selinger 2001-2017
</metadata>
<g transform="translate(0.000000,512.000000) scale(0.100000,-0.100000)"
fill="#ffffff" stroke="none">
<path d="M3195 4904 c4 -10 26 -68 47 -129 34 -97 39 -118 35 -180 -4 -74 -20
-112 -100 -248 -22 -37 -38 -69 -36 -71 2 -2 51 15 108 36 128 49 181 58 252
43 49 -9 84 -26 233 -111 44 -24 49 -25 42 -8 -5 10 -26 69 -47 129 -60 171
-53 228 51 400 28 48 49 89 47 92 -3 2 -49 -12 -104 -32 -54 -21 -125 -42
-159 -48 -77 -13 -132 3 -264 80 -52 31 -99 58 -104 61 -6 3 -6 -3 -1 -14z"/>
<path d="M1087 4678 c-42 -73 -77 -112 -115 -132 -22 -11 -170 -45 -201 -46
-3 0 10 -10 29 -22 161 -100 172 -114 195 -243 8 -49 17 -90 19 -92 2 -2 22
27 44 65 67 113 113 143 249 161 29 4 56 10 59 13 3 3 -23 23 -57 44 -125 76
-149 112 -165 254 -4 33 -10 60 -13 60 -4 0 -23 -28 -44 -62z"/>
<path d="M1887 4025 c-13 -316 -46 -374 -333 -585 l-88 -65 154 -7 c181 -9
244 -19 314 -51 74 -35 140 -99 246 -242 l95 -127 7 143 c17 329 46 385 293
569 84 63 121 96 109 97 -11 1 -93 7 -184 12 -279 17 -327 45 -517 299 -46 61
-85 112 -87 112 -2 0 -6 -70 -9 -155z"/>
<path d="M3800 3543 c0 -135 -22 -173 -155 -280 l-40 -32 70 -1 c141 -1 189
-25 272 -133 l48 -62 7 90 c5 49 13 104 18 121 12 35 72 99 139 147 l43 32
-94 6 c-52 4 -105 10 -118 14 -38 12 -84 53 -132 117 -23 31 -46 58 -50 58 -5
0 -8 -35 -8 -77z"/>
<path d="M1750 2759 c-104 -22 -302 -86 -481 -156 l-116 -45 -26 -116 c-14
-65 -78 -349 -142 -632 -212 -946 -228 -1020 -224 -1024 3 -3 61 9 129 25 233
56 445 95 655 120 110 13 443 12 540 -1 100 -14 258 -53 320 -80 26 -11 51
-20 56 -20 5 0 9 364 9 909 l0 908 -67 31 c-101 46 -140 60 -227 82 -107 27
-293 26 -426 -1z"/>
<path d="M3000 2665 c-8 -2 -90 -11 -182 -21 l-168 -18 0 -891 0 -892 83 14
c336 53 1019 21 1540 -73 48 -9 89 -15 91 -13 2 2 -18 101 -45 219 -120 532
-164 731 -249 1110 -50 223 -93 415 -96 427 -4 12 -17 24 -32 28 -103 26 -439
88 -542 100 -108 13 -355 19 -400 10z m544 -196 c105 -12 194 -24 199 -28 9
-9 48 -143 42 -149 -2 -2 -50 1 -107 8 -158 18 -515 24 -662 11 -71 -6 -131
-10 -132 -8 -2 1 -6 39 -10 84 l-7 81 84 9 c150 18 388 14 593 -8z m233 -616
l92 -6 10 -46 c5 -25 13 -63 16 -84 l7 -38 -43 8 c-57 10 -881 10 -936 0 l-43
-7 0 85 0 85 43 1 c23 1 103 5 177 9 139 8 515 5 677 -7z m-324 -345 c3 -13 9
-48 12 -79 l7 -56 -174 -6 c-95 -4 -225 -7 -289 -7 l-116 0 -7 53 c-3 28 -6
67 -6 85 l0 32 284 0 284 0 5 -22z m511 -10 c3 -18 8 -57 12 -85 l7 -53 -155
0 -155 0 -6 43 c-3 23 -9 61 -13 85 l-7 42 156 0 155 0 6 -32z m-194 -298
c107 -5 213 -12 236 -16 l41 -6 12 -95 c7 -52 11 -96 9 -97 -2 -2 -55 3 -118
10 -240 26 -495 37 -776 32 l-284 -5 0 83 0 84 53 1 c28 1 126 5 217 9 261 10
401 10 610 0z"/>
<path d="M705 2438 c-2 -7 -25 -101 -50 -208 -25 -107 -47 -205 -50 -218 l-6
-23 127 3 127 3 48 215 c27 118 49 221 49 228 0 9 -31 12 -120 12 -88 0 -122
-3 -125 -12z"/>
<path d="M4170 2438 c0 -7 70 -323 155 -703 86 -379 179 -795 207 -922 l52
-233 118 0 c65 0 118 3 118 8 -1 4 -92 423 -203 932 l-203 925 -122 3 c-94 2
-122 0 -122 -10z"/>
<path d="M555 1798 c-2 -7 -16 -67 -30 -133 -15 -66 -29 -128 -32 -137 -4 -17
7 -18 124 -18 l128 0 28 128 c15 70 30 137 33 150 6 22 6 22 -120 22 -93 0
-128 -3 -131 -12z"/>
<path d="M445 1318 c-2 -7 -41 -173 -85 -368 -45 -195 -84 -365 -87 -378 -5
-22 -5 -22 126 -22 72 0 131 2 131 4 0 2 38 174 85 382 47 208 85 382 85 386
0 14 -250 10 -255 -4z"/>
<path d="M1500 754 c-152 -19 -362 -57 -540 -99 -155 -37 -349 -91 -358 -100
-7 -7 561 -6 1276 2 l592 6 0 37 c0 36 -3 39 -52 60 -83 36 -156 60 -248 81
-114 28 -498 35 -670 13z"/>
<path d="M2795 694 c-154 -21 -145 -16 -145 -77 l0 -53 868 4 c477 3 876 8
886 12 39 14 -466 88 -784 115 -229 19 -682 18 -825 -1z"/>
<path d="M260 280 l0 -90 2300 0 2300 0 0 90 0 90 -2300 0 -2300 0 0 -90z"/>
</g>
</svg>
