<?xml version="1.0" standalone="no"?>
<!DOCTYPE svg PUBLIC "-//W3C//DTD SVG 20010904//EN"
 "http://www.w3.org/TR/2001/REC-SVG-20010904/DTD/svg10.dtd">
<svg version="1.0" xmlns="http://www.w3.org/2000/svg"
 width="512.000000pt" height="512.000000pt" viewBox="0 0 512.000000 512.000000"
 preserveAspectRatio="xMidYMid meet">
<metadata>
Created by potrace 1.15, written by Peter Selinger 2001-2017
</metadata>
<g transform="translate(0.000000,512.000000) scale(0.100000,-0.100000)"
fill="#ffffff" stroke="none">
<path d="M160 2560 l0 -2380 160 0 160 0 0 2380 0 2380 -160 0 -160 0 0 -2380z"/>
<path d="M1600 3540 c0 -770 3 -1400 8 -1400 4 0 23 5 42 10 44 13 194 14 238
1 l32 -10 0 1400 0 1399 -160 0 -160 0 0 -1400z"/>
<path d="M3200 3539 l0 -1400 22 7 c67 21 209 21 276 0 l22 -7 0 1400 0 1401
-160 0 -160 0 0 -1401z"/>
<path d="M4640 2560 l0 -2380 160 0 160 0 0 2380 0 2380 -160 0 -160 0 0
-2380z"/>
<path d="M2418 4481 c-103 -34 -214 -117 -283 -211 l-35 -48 0 -702 0 -702 34
-47 c76 -102 194 -187 300 -216 84 -23 218 -17 296 13 74 29 183 113 242 187
l48 59 0 706 0 706 -48 59 c-58 73 -168 158 -242 187 -79 30 -234 35 -312 9z"/>
<path d="M2315 2455 c-44 -7 -110 -23 -147 -34 l-68 -22 0 -175 0 -176 58 -63
c69 -76 125 -183 153 -296 30 -117 24 -280 -15 -394 -32 -94 -98 -204 -155
-260 l-41 -39 0 -408 0 -408 460 0 460 0 0 411 0 411 -53 57 c-226 244 -226
671 -1 919 l54 60 0 180 0 181 -82 25 c-46 13 -118 29 -161 35 -105 15 -363
12 -462 -4z"/>
<path d="M1642 1969 c-66 -26 -168 -119 -204 -186 -79 -145 -83 -338 -12 -499
29 -67 118 -162 186 -199 49 -28 61 -30 153 -30 85 0 107 4 148 24 77 38 152
113 192 194 l36 72 -190 3 -191 2 0 90 0 90 201 0 202 0 -6 59 c-3 33 -8 64
-12 70 -4 7 -72 11 -196 11 l-189 0 0 90 0 90 148 0 147 1 -47 43 c-73 67
-128 90 -228 93 -68 2 -96 -1 -138 -18z"/>
<path d="M3231 1968 c-30 -12 -76 -43 -105 -69 l-51 -48 143 -1 142 0 0 -90 0
-90 -189 0 -188 0 -7 -31 c-3 -17 -6 -49 -6 -70 l0 -39 195 0 195 0 0 -90 0
-90 -186 -2 -185 -3 35 -70 c43 -86 111 -156 185 -193 49 -24 68 -27 151 -27
85 0 101 3 153 29 102 52 183 156 221 285 20 70 21 218 1 296 -36 137 -139
263 -250 304 -75 28 -180 27 -254 -1z"/>
<path d="M1267 1062 c-30 -184 -47 -397 -54 -645 l-6 -237 106 0 107 0 0 416
0 416 -45 50 c-25 28 -53 64 -62 79 -10 16 -20 29 -23 29 -3 0 -14 -49 -23
-108z"/>
<path d="M3813 1137 c-6 -13 -34 -48 -62 -79 l-51 -56 0 -411 0 -411 105 0
105 0 0 138 c0 291 -52 842 -79 842 -4 0 -12 -10 -18 -23z"/>
<path d="M1600 541 l0 -361 160 0 160 0 0 358 0 359 -62 -13 c-60 -13 -167 -7
-235 12 l-23 6 0 -361z"/>
<path d="M3200 541 l0 -361 160 0 160 0 0 361 c0 327 -2 361 -16 355 -9 -3
-47 -11 -85 -17 -64 -11 -150 -3 -205 18 -12 4 -14 -51 -14 -356z"/>
</g>
</svg>
