<?xml version="1.0" standalone="no"?>
<!DOCTYPE svg PUBLIC "-//W3C//DTD SVG 20010904//EN"
 "http://www.w3.org/TR/2001/REC-SVG-20010904/DTD/svg10.dtd">
<svg version="1.0" xmlns="http://www.w3.org/2000/svg"
 width="512.000000pt" height="512.000000pt" viewBox="0 0 512.000000 512.000000"
 preserveAspectRatio="xMidYMid meet">
<metadata>
Created by potrace 1.15, written by Peter Selinger 2001-2017
</metadata>
<g transform="translate(0.000000,512.000000) scale(0.100000,-0.100000)"
fill="#ffffff" stroke="none">
<path d="M1082 4885 c6 -70 44 -127 113 -170 144 -89 318 27 275 183 l-11 42
-191 0 -190 0 4 -55z"/>
<path d="M2830 4933 c0 -5 15 -29 33 -54 128 -180 206 -491 178 -710 -23 -179
-80 -305 -189 -421 -112 -119 -278 -202 -482 -243 -134 -26 -131 -24 -64 -55
119 -54 179 -133 179 -235 -2 -171 -160 -263 -317 -184 -90 45 -135 94 -164
178 l-12 36 -11 -28 c-21 -55 -13 -147 17 -212 52 -108 190 -210 319 -235 294
-58 502 288 333 554 -17 26 -30 49 -28 50 2 1 23 11 48 21 107 44 207 112 296
200 109 108 180 219 220 344 l29 89 35 -5 c19 -3 80 -16 135 -31 323 -82 553
-261 649 -506 49 -122 56 -181 56 -434 0 -335 22 -487 106 -739 56 -167 69
-256 55 -372 -14 -111 -34 -179 -79 -264 -64 -124 -157 -196 -251 -197 l-45 0
45 28 c56 36 71 54 104 120 36 72 46 191 21 256 -20 53 -79 109 -144 138 -64
28 -209 36 -272 14 -24 -8 -46 -14 -48 -12 -7 7 50 162 74 204 14 23 39 58 56
78 l30 34 28 -43 c45 -72 121 -95 189 -59 122 66 72 286 -70 308 l-40 7 8 46
c13 76 7 231 -12 301 -54 207 -205 368 -394 424 -109 32 -314 15 -411 -34 -45
-23 -92 -73 -121 -130 -20 -37 -24 -60 -24 -135 0 -76 4 -98 26 -145 34 -72
70 -114 128 -148 61 -36 164 -38 227 -5 52 27 131 114 156 171 25 55 33 136
20 184 l-10 38 30 -16 c54 -28 118 -102 155 -180 31 -65 37 -88 41 -169 6
-116 -18 -204 -78 -287 -43 -61 -136 -130 -200 -149 l-37 -11 29 -92 c25 -76
29 -104 26 -172 -2 -67 -7 -87 -30 -121 -57 -86 -176 -108 -324 -58 -44 14
-94 35 -112 46 -18 10 -38 19 -43 19 -17 0 -98 -181 -120 -268 -11 -46 -19
-85 -17 -87 2 -2 30 5 62 16 81 28 177 34 276 20 119 -18 185 -45 240 -100
113 -113 140 -291 68 -447 l-22 -49 -6 75 c-6 91 -28 138 -87 190 -74 64 -138
84 -273 85 -132 0 -185 -17 -253 -83 -51 -49 -74 -96 -86 -174 -10 -60 -2
-162 14 -188 9 -14 3 -13 -125 20 -211 55 -309 119 -406 265 -148 222 -210
419 -201 639 6 146 23 208 77 269 88 100 219 99 286 -3 23 -35 26 -47 22 -100
-4 -51 -11 -70 -46 -121 l-42 -61 42 7 c142 22 269 156 298 315 36 198 -124
394 -333 408 l-72 5 -30 46 c-40 60 -94 91 -164 91 -110 0 -176 -69 -176 -185
0 -66 15 -113 53 -163 l24 -33 -35 -67 c-83 -159 -119 -361 -98 -551 10 -93
39 -224 66 -293 10 -25 -44 -33 -215 -33 -175 0 -264 18 -382 77 -165 83 -285
229 -458 558 -175 333 -267 443 -433 524 -50 25 -107 48 -125 51 l-32 7 0 -99
0 -99 55 -23 c119 -49 205 -158 363 -458 149 -282 216 -379 346 -500 123 -115
272 -188 441 -218 106 -18 336 -19 452 -2 l83 13 47 -71 c66 -99 119 -160 188
-215 122 -97 189 -125 462 -195 255 -65 405 -134 565 -257 274 -211 508 -298
798 -298 265 0 483 82 663 250 320 299 386 789 166 1235 -45 91 -74 133 -225
330 -222 289 -329 658 -309 1065 31 622 -313 1039 -956 1156 l-89 17 0 92 c0
175 -52 385 -133 540 l-42 80 -117 3 c-65 1 -118 -1 -118 -5z"/>
<path d="M810 4590 c-99 -17 -196 -78 -238 -150 -23 -39 -27 -56 -27 -130 0
-92 18 -142 67 -187 86 -80 233 -66 295 28 24 36 29 55 32 125 3 72 0 90 -22
138 -25 54 -25 56 -5 45 12 -6 40 -31 64 -55 95 -98 106 -264 29 -427 -93
-198 -348 -260 -499 -122 l-38 35 6 -33 c19 -97 106 -211 192 -253 149 -73
386 -21 520 112 l54 54 0 -29 c0 -51 -27 -173 -55 -246 -77 -206 -250 -378
-440 -438 -107 -34 -279 -30 -395 8 -47 15 -102 36 -123 46 l-37 19 0 -109 0
-110 63 -19 c116 -36 182 -46 307 -45 230 1 419 76 583 232 56 53 58 54 84 40
15 -8 55 -41 89 -75 69 -69 126 -171 145 -261 22 -109 -2 -251 -55 -318 -15
-19 -15 -17 -16 30 0 59 -34 138 -76 177 -53 50 -120 72 -214 73 -77 0 -92 -3
-152 -33 -160 -79 -238 -251 -174 -387 37 -81 111 -136 230 -170 47 -14 78
-16 150 -10 264 20 439 160 497 395 18 74 16 230 -5 310 -38 150 -138 305
-256 394 -37 28 -64 56 -63 65 1 9 17 57 37 108 20 50 43 132 53 180 l16 89
61 -22 c137 -49 273 -38 421 35 87 43 185 132 231 209 72 121 87 263 41 412
-55 178 -150 263 -297 263 -84 0 -142 -25 -198 -87 -75 -81 -108 -188 -100
-325 9 -145 60 -235 162 -281 l61 -28 -59 -17 c-84 -25 -172 -16 -233 21 -69
43 -100 88 -124 179 -42 162 -175 389 -271 466 -84 66 -212 98 -318 79z"/>
<path d="M2394 4001 c-93 -57 -124 -193 -59 -261 60 -62 129 -63 196 -3 90 81
81 228 -16 269 -46 19 -84 18 -121 -5z"/>
<path d="M2852 2540 c-35 -21 -62 -72 -62 -115 0 -14 9 -44 21 -66 37 -73 148
-101 235 -59 100 49 97 191 -6 242 -50 25 -145 24 -188 -2z"/>
</g>
</svg>
