<?xml version="1.0" standalone="no"?>
<!DOCTYPE svg PUBLIC "-//W3C//DTD SVG 20010904//EN"
 "http://www.w3.org/TR/2001/REC-SVG-20010904/DTD/svg10.dtd">
<svg version="1.0" xmlns="http://www.w3.org/2000/svg"
 width="512.000000pt" height="512.000000pt" viewBox="0 0 512.000000 512.000000"
 preserveAspectRatio="xMidYMid meet">
<metadata>
Created by potrace 1.15, written by Peter Selinger 2001-2017
</metadata>
<g transform="translate(0.000000,512.000000) scale(0.100000,-0.100000)"
fill="#ffffff" stroke="none">
<path d="M979 4873 c-19 -64 -16 -216 4 -269 14 -38 14 -46 0 -85 -10 -30 -14
-73 -12 -134 2 -61 -1 -98 -10 -114 l-13 -23 -19 28 c-30 46 -58 130 -69 207
-6 39 -16 75 -23 79 -6 4 -48 8 -91 8 l-79 0 6 -87 c4 -60 15 -114 35 -170
l28 -81 -100 -7 c-81 -5 -286 -32 -293 -39 0 0 8 -43 20 -94 13 -61 25 -91 32
-88 23 8 225 38 236 34 6 -2 -8 -17 -32 -33 -60 -39 -141 -117 -201 -193 -52
-65 -210 -294 -205 -298 25 -23 152 -102 158 -98 5 3 50 66 100 140 50 74 113
159 140 187 l49 52 -35 -59 c-150 -254 -176 -601 -51 -677 149 -91 398 168
486 504 17 66 19 69 19 31 1 -55 -13 -130 -57 -312 -41 -173 -43 -167 44 -178
28 -3 56 -9 63 -13 6 -4 15 -43 19 -87 l7 -79 193 4 c193 4 194 4 181 -16 -8
-14 -28 -23 -57 -27 -61 -8 -122 -37 -169 -80 -39 -35 -42 -36 -121 -36 -48 0
-101 -7 -128 -16 -54 -18 -114 -54 -114 -69 0 -5 26 -39 58 -74 l58 -64 29 15
c17 9 49 19 71 22 41 7 42 7 48 -28 9 -48 50 -93 96 -107 37 -11 38 -12 28
-43 -6 -17 -24 -48 -41 -70 l-30 -38 66 -66 66 -66 30 28 c56 53 111 183 111
262 0 22 12 47 40 80 48 58 70 104 77 154 4 26 14 44 33 59 l28 20 6 -22 c16
-60 0 -183 -35 -263 l-18 -42 86 -41 c47 -23 87 -40 89 -38 2 2 16 37 30 78
18 52 28 103 31 172 3 53 8 97 10 97 3 0 31 -6 62 -14 84 -21 187 -28 269 -17
41 5 75 11 78 13 2 2 -4 43 -13 91 -14 77 -18 87 -37 88 -19 0 -19 1 4 11 92
42 213 106 313 168 l118 72 -27 47 c-44 74 -69 111 -76 111 -3 0 -74 -41 -157
-90 -131 -78 -261 -146 -261 -136 0 2 18 16 41 30 62 42 196 174 245 242 124
174 148 341 58 401 -47 30 -162 24 -251 -14 -129 -55 -274 -167 -372 -288
l-33 -40 20 40 c28 55 92 145 191 270 46 58 82 107 80 109 -41 35 -153 105
-159 99 -4 -4 -56 -73 -116 -153 -122 -161 -172 -240 -200 -315 l-19 -50 -3
39 -3 39 -67 -7 c-37 -3 -80 -6 -96 -6 l-29 0 7 -67 c5 -63 35 -204 51 -245 6
-15 3 -17 -23 -12 -16 3 -94 1 -172 -6 -78 -6 -145 -9 -148 -6 -3 4 8 66 26
139 17 72 36 161 43 197 14 80 15 270 1 328 -9 39 -8 42 6 30 16 -14 78 -79
129 -137 l30 -34 72 58 c39 32 70 61 69 65 -7 18 -165 192 -200 221 l-39 31
53 25 c80 36 248 136 248 146 0 7 -74 141 -86 156 -2 2 -52 -24 -111 -57 -59
-33 -135 -71 -168 -85 -54 -23 -60 -24 -64 -9 -2 10 10 27 30 42 67 50 118
110 135 158 15 40 25 53 61 72 85 45 193 165 181 201 -2 6 -39 26 -83 45 -71
32 -79 34 -88 19 -5 -10 -22 -31 -38 -49 -21 -23 -31 -28 -42 -21 -8 6 -26 19
-41 29 -19 13 -46 20 -83 20 l-55 1 5 60 c3 33 6 66 8 74 3 9 -20 23 -63 41
-110 46 -103 47 -119 -7z"/>
<path d="M3496 4813 l-60 -65 162 -157 c89 -86 162 -162 162 -169 0 -6 -29 11
-65 38 -92 69 -176 114 -285 151 -115 39 -252 46 -307 16 -52 -28 -73 -63 -73
-121 1 -141 169 -325 404 -441 60 -30 133 -60 163 -66 78 -18 46 -31 -91 -36
-128 -6 -197 7 -333 62 -48 19 -89 32 -91 28 -1 -5 -18 -42 -36 -83 -40 -89
-43 -85 79 -129 136 -49 226 -63 380 -59 92 2 131 0 122 -7 -18 -14 -171 -129
-175 -131 -6 -4 101 -154 109 -154 13 0 183 136 247 198 63 61 63 61 72 36 6
-14 10 -29 10 -33 0 -11 111 -285 119 -294 11 -11 171 53 171 69 0 7 -16 50
-36 96 -19 45 -51 127 -69 181 l-34 97 37 -19 c26 -13 41 -30 51 -57 18 -51
85 -121 143 -150 26 -13 48 -30 48 -37 0 -13 85 -153 118 -195 l19 -24 69 58
c38 32 71 59 73 60 1 2 -15 28 -38 60 l-41 57 35 38 c19 22 35 46 35 54 0 20
2 19 61 -11 28 -14 52 -24 54 -22 14 18 85 147 85 155 0 16 -155 83 -219 95
-31 6 -65 15 -76 21 -11 6 -40 22 -64 36 -34 19 -63 25 -125 29 -66 3 -88 9
-118 29 -21 14 -38 29 -38 33 0 24 272 47 387 33 l72 -9 11 65 c6 36 13 78 16
92 4 24 1 27 -33 33 -80 14 -290 18 -367 7 -44 -6 -81 -10 -83 -7 -2 2 3 43
12 91 8 48 15 132 15 186 l0 99 -82 0 c-46 0 -88 -4 -94 -8 -6 -4 -11 -25 -10
-47 0 -22 -1 -69 -2 -105 l-2 -65 -51 80 c-36 56 -97 125 -206 233 -85 83
-160 152 -166 151 -7 0 -39 -30 -71 -66z"/>
<path d="M3339 3177 l-57 -72 63 -67 c56 -59 135 -191 122 -204 -13 -13 -66
11 -81 37 -22 36 -93 86 -154 106 -26 9 -63 28 -82 43 -71 56 -258 150 -297
150 -5 0 -19 -33 -30 -72 -12 -40 -25 -80 -28 -90 -5 -11 0 -18 17 -23 13 -4
49 -18 80 -32 l57 -25 -14 -29 c-8 -15 -15 -44 -15 -64 0 -34 -1 -35 -37 -35
-21 1 -57 5 -80 9 l-43 8 -11 -41 c-6 -22 -17 -63 -25 -90 -8 -27 -12 -51 -10
-53 1 -2 42 -8 91 -15 65 -8 111 -8 180 1 56 6 103 7 117 2 54 -20 126 -22
191 -6 44 11 72 13 83 7 14 -8 10 -14 -29 -36 -25 -15 -101 -50 -169 -78 -68
-27 -126 -53 -130 -57 -6 -6 47 -149 62 -164 6 -6 217 70 280 101 3 1 11 -33
18 -76 11 -72 48 -202 58 -202 5 0 156 60 165 66 4 2 -1 29 -12 58 -10 30 -22
81 -25 113 l-7 58 45 -60 c94 -126 212 -214 412 -306 l94 -43 35 -105 c49
-144 76 -260 82 -356 l6 -80 -24 55 c-122 280 -312 479 -475 496 -102 11 -156
-54 -155 -185 2 -176 99 -390 253 -554 66 -71 63 -74 -32 -26 -107 54 -214
152 -318 289 -30 38 -58 70 -63 70 -11 0 -147 -99 -147 -107 0 -4 34 -48 76
-100 126 -154 243 -252 389 -325 64 -32 170 -71 220 -81 35 -6 -86 -27 -175
-30 l-85 -2 -7 -60 c-4 -33 -9 -75 -12 -94 l-5 -34 137 6 c75 3 148 9 163 12
l25 7 -12 -99 c-7 -54 -14 -121 -16 -149 l-5 -51 93 -9 93 -9 6 55 c11 106 36
261 47 291 10 28 12 29 26 15 11 -11 15 -31 13 -69 -1 -34 5 -77 18 -115 17
-51 19 -70 11 -104 -14 -62 -12 -143 5 -216 12 -52 37 -115 51 -131 4 -4 164
89 164 95 0 3 -7 18 -14 33 -8 15 -18 50 -21 77 l-7 49 59 0 c45 0 65 5 92 24
l34 24 36 -39 c20 -21 43 -50 52 -64 l16 -24 81 49 81 49 -17 29 c-27 47 -149
173 -196 203 -24 15 -52 43 -62 63 -38 72 -108 133 -170 150 -17 4 -31 19 -40
40 l-14 33 48 -6 c80 -12 144 -34 207 -71 l59 -36 18 23 c10 13 35 47 55 76
37 53 37 54 18 69 -41 31 -181 94 -237 105 -32 7 -58 16 -58 20 0 5 11 34 24
66 28 67 52 170 61 265 l7 67 -95 0 -96 0 -10 38 c-5 20 -34 132 -64 247 -39
150 -52 215 -45 228 5 9 6 22 3 27 -4 6 -93 53 -198 105 -106 52 -205 106
-222 120 -30 26 -30 26 35 -4 36 -17 106 -42 155 -57 80 -25 107 -28 240 -28
143 -1 153 0 207 26 66 31 98 73 98 131 0 148 -252 315 -560 371 l-75 14 75 2
c126 3 211 0 314 -11 54 -6 100 -8 102 -6 2 2 7 44 10 94 l7 90 -189 13 c-104
7 -227 11 -274 8 -64 -4 -78 -2 -55 5 17 5 31 11 33 12 5 5 -39 159 -48 169
-20 21 -208 -64 -305 -137 l-60 -45 -34 60 c-30 55 -164 209 -180 208 -3 -1
-31 -33 -62 -73z"/>
<path d="M705 1994 c-80 -60 -77 -56 -60 -97 23 -54 20 -77 -9 -77 -36 0 -77
-18 -107 -46 l-26 -25 -62 57 -61 56 -54 -41 c-97 -75 -96 -71 -35 -136 52
-56 189 -155 213 -155 7 0 26 -20 44 -45 35 -50 121 -111 169 -121 33 -7 61
-29 49 -41 -12 -12 -175 35 -263 77 l-88 41 -15 -22 c-8 -12 -30 -48 -48 -80
l-33 -58 43 -25 c64 -37 191 -86 284 -109 l83 -20 -14 -28 c-33 -62 -57 -183
-59 -285 0 -56 2 -105 6 -109 4 -4 47 -4 97 0 l89 7 -5 36 c-2 21 11 -9 31
-64 19 -56 69 -170 110 -253 l76 -151 83 41 c45 23 83 42 85 44 1 1 -38 85
-87 186 -109 222 -126 279 -50 164 64 -98 203 -238 284 -287 82 -50 155 -72
212 -65 178 20 151 304 -52 566 -53 70 -167 179 -218 210 -21 13 -36 25 -34
28 9 8 131 -29 187 -57 31 -15 113 -69 183 -119 69 -50 128 -91 131 -91 6 0
105 127 108 139 4 13 -277 211 -350 246 l-62 29 0 83 0 83 -77 0 c-43 -1 -111
-7 -151 -14 -65 -11 -72 -11 -67 3 16 40 45 218 45 276 l0 65 -90 0 c-49 0
-90 -3 -90 -7 0 -73 -56 -343 -75 -361 -2 -3 -15 8 -28 24 -20 22 -26 43 -30
99 -3 42 -14 90 -27 120 -13 28 -29 93 -36 145 -14 92 -55 201 -79 207 -5 1
-37 -18 -70 -43z"/>
</g>
</svg>
