<?xml version="1.0" standalone="no"?>
<!DOCTYPE svg PUBLIC "-//W3C//DTD SVG 20010904//EN"
 "http://www.w3.org/TR/2001/REC-SVG-20010904/DTD/svg10.dtd">
<svg version="1.0" xmlns="http://www.w3.org/2000/svg"
 width="512.000000pt" height="512.000000pt" viewBox="0 0 512.000000 512.000000"
 preserveAspectRatio="xMidYMid meet">
<metadata>
Created by potrace 1.15, written by Peter Selinger 2001-2017
</metadata>
<g transform="translate(0.000000,512.000000) scale(0.100000,-0.100000)"
fill="#ffffff" stroke="none">
<path d="M530 4863 c0 -3 26 -33 58 -67 215 -230 366 -650 438 -1216 24 -185
29 -663 10 -860 -24 -255 -69 -493 -133 -702 l-26 -87 27 -63 c72 -167 232
-426 366 -593 92 -114 294 -321 430 -438 204 -177 553 -420 847 -591 l133 -77
112 62 c674 373 1112 743 1404 1189 64 98 166 286 204 377 l22 52 -41 128
c-157 488 -203 1146 -121 1709 74 506 226 897 438 1126 37 39 50 59 37 55 -30
-9 -350 -73 -505 -101 -164 -30 -361 -59 -580 -86 -91 -12 -167 -24 -171 -28
-3 -4 -41 -74 -84 -157 -83 -160 -353 -678 -516 -988 -55 -104 -99 -194 -99
-200 0 -7 101 -57 225 -112 166 -74 224 -104 220 -114 -6 -15 -66 -115 -480
-796 -147 -242 -349 -574 -448 -737 -99 -164 -182 -297 -183 -295 -2 2 24 111
250 1036 81 327 146 599 146 605 -1 13 -206 106 -233 106 -10 0 -162 -40 -339
-90 -177 -49 -324 -88 -326 -86 -2 3 122 111 276 241 l280 236 217 650 c120
358 216 652 214 654 -2 2 -94 6 -204 10 -548 17 -957 61 -1420 151 -113 22
-396 87 -432 99 -7 2 -13 2 -13 -2z"/>
</g>
</svg>
