<?xml version="1.0" standalone="no"?>
<!DOCTYPE svg PUBLIC "-//W3C//DTD SVG 20010904//EN"
 "http://www.w3.org/TR/2001/REC-SVG-20010904/DTD/svg10.dtd">
<svg version="1.0" xmlns="http://www.w3.org/2000/svg"
 width="512.000000pt" height="512.000000pt" viewBox="0 0 512.000000 512.000000"
 preserveAspectRatio="xMidYMid meet">
<metadata>
Created by potrace 1.15, written by Peter Selinger 2001-2017
</metadata>
<g transform="translate(0.000000,512.000000) scale(0.100000,-0.100000)"
fill="#ffffff" stroke="none">
<path d="M455 4880 c-6 -10 -2 -241 11 -630 12 -362 52 -809 104 -1145 199
-1290 636 -2158 1319 -2616 162 -110 312 -184 495 -245 l138 -46 76 17 c43 9
138 37 212 62 604 204 1061 663 1360 1368 101 237 218 646 280 975 103 552
160 1254 160 1983 l0 287 -2074 0 c-1412 0 -2077 -3 -2081 -10z m3960 -282
c-3 -51 -7 -212 -10 -358 -12 -658 -76 -1254 -186 -1758 -176 -801 -457 -1336
-899 -1707 -110 -92 -332 -220 -493 -284 -96 -38 -255 -83 -292 -83 -76 1
-377 135 -525 235 -503 337 -861 911 -1089 1742 -113 409 -197 937 -236 1470
-13 189 -35 666 -35 788 l0 47 1885 0 1884 0 -4 -92z"/>
<path d="M830 4448 c0 -35 5 -160 10 -278 50 -1068 256 -1956 603 -2598 28
-50 54 -92 59 -92 4 0 65 48 136 107 70 59 170 143 222 187 52 44 96 83 98 87
4 10 -22 60 -248 475 -110 201 -200 369 -200 373 0 4 51 22 113 40 325 97 765
236 785 249 10 7 -21 62 -119 218 -405 642 -566 897 -703 1116 l-111 178 -322
0 -323 0 0 -62z"/>
<path d="M2660 4050 c127 -253 232 -460 235 -460 2 0 199 63 437 141 238 77
534 173 656 213 123 39 227 78 232 86 4 8 10 120 12 248 l4 232 -903 0 -903 0
230 -460z"/>
<path d="M3830 3708 c-201 -66 -469 -154 -597 -195 -127 -42 -237 -79 -245
-84 -16 -10 74 -193 330 -678 l165 -314 266 7 c146 4 269 10 273 14 10 11 73
327 102 512 58 375 102 862 79 859 -5 0 -172 -55 -373 -121z"/>
<path d="M2951 2709 c-79 -26 -146 -51 -149 -54 -5 -4 115 -267 536 -1174 70
-151 132 -276 137 -277 12 -4 44 41 131 182 123 200 224 426 314 701 28 87 53
164 56 172 3 11 -47 13 -298 10 l-302 -4 -130 244 c-72 135 -135 246 -141 247
-5 1 -75 -20 -154 -47z"/>
<path d="M1985 2674 c-60 -19 -134 -42 -162 -50 -29 -9 -53 -19 -53 -23 0 -5
24 -53 54 -107 148 -274 312 -575 338 -620 l29 -52 -296 -247 c-162 -135 -295
-249 -295 -252 0 -3 26 -42 58 -87 82 -116 317 -349 433 -429 151 -104 392
-217 464 -217 45 0 254 74 356 126 186 95 415 275 394 308 -5 9 -107 154 -226
323 -119 170 -366 522 -549 783 -402 572 -407 580 -423 579 -7 0 -61 -16 -122
-35z"/>
</g>
</svg>
