<?xml version="1.0" standalone="no"?>
<!DOCTYPE svg PUBLIC "-//W3C//DTD SVG 20010904//EN"
 "http://www.w3.org/TR/2001/REC-SVG-20010904/DTD/svg10.dtd">
<svg version="1.0" xmlns="http://www.w3.org/2000/svg"
 width="512.000000pt" height="512.000000pt" viewBox="0 0 512.000000 512.000000"
 preserveAspectRatio="xMidYMid meet">
<metadata>
Created by potrace 1.15, written by Peter Selinger 2001-2017
</metadata>
<g transform="translate(0.000000,512.000000) scale(0.100000,-0.100000)"
fill="#ffffff" stroke="none">
<path d="M1279 4691 c-157 -177 -249 -424 -249 -667 0 -88 21 -228 45 -296 8
-23 13 -44 11 -45 -1 -2 -45 25 -96 59 -103 69 -280 237 -357 338 -110 145
-199 322 -254 510 l-22 74 -14 -39 c-52 -145 -79 -390 -63 -569 19 -213 64
-377 156 -561 136 -273 377 -523 634 -656 l45 -23 -70 -14 c-99 -19 -247 -10
-360 23 -156 45 -283 125 -418 260 l-69 70 6 -40 c13 -71 75 -243 122 -338 59
-118 119 -203 213 -300 126 -131 244 -204 408 -253 76 -23 107 -27 225 -28 76
-1 138 -4 138 -8 0 -21 -55 -149 -81 -190 -52 -81 -147 -161 -235 -198 -72
-31 -88 -34 -186 -34 -60 -1 -108 -4 -108 -8 0 -8 90 -67 170 -111 248 -136
519 -124 689 29 29 26 53 45 55 43 2 -2 35 -56 73 -120 82 -136 217 -335 297
-434 31 -38 56 -73 56 -76 0 -3 -50 -32 -110 -63 -60 -32 -110 -59 -110 -62 0
-3 18 -32 40 -64 75 -110 196 -255 301 -359 169 -168 406 -359 432 -348 7 3
60 44 120 92 145 117 318 285 419 406 83 101 177 228 178 241 0 4 -49 33 -109
65 l-109 58 94 125 c117 153 209 289 298 438 l68 113 47 -44 c102 -96 199
-131 356 -131 98 0 121 4 209 34 98 33 240 110 285 154 l23 23 -71 -5 c-252
-18 -461 140 -541 408 l-7 25 126 0 c84 0 149 6 196 17 362 88 654 407 771
842 13 50 22 91 20 93 -2 2 -30 -24 -62 -57 -167 -176 -382 -281 -604 -296
-108 -8 -279 16 -233 33 6 2 49 27 95 55 253 154 435 352 571 623 157 315 198
692 112 1041 -24 93 -45 141 -45 100 0 -10 -16 -66 -36 -125 -89 -266 -248
-499 -468 -684 -83 -70 -204 -152 -212 -144 -3 3 1 27 10 54 46 143 48 404 2
556 -33 112 -72 198 -126 278 -49 73 -128 169 -139 169 -4 0 -1 -35 7 -77 21
-122 11 -325 -22 -437 -55 -184 -124 -302 -255 -439 -93 -96 -177 -157 -295
-213 -70 -33 -89 -38 -204 -46 -164 -12 -788 -12 -961 1 -125 9 -140 12 -210
47 -290 142 -483 388 -557 709 -22 96 -25 300 -5 388 7 32 11 61 8 63 -3 3
-29 -22 -58 -55z m175 -1281 c673 -108 1584 -108 2254 0 67 11 128 20 134 20
23 0 -18 -367 -64 -565 -52 -230 -140 -499 -218 -670 -13 -27 -36 -78 -51
-112 -91 -203 -278 -511 -446 -735 -146 -195 -230 -293 -396 -463 l-88 -90
-107 110 c-237 245 -473 555 -646 847 -85 144 -237 464 -295 619 -117 314
-186 631 -215 987 -4 46 -2 72 4 72 6 0 66 -9 134 -20z"/>
</g>
</svg>
