<?xml version="1.0" standalone="no"?>
<!DOCTYPE svg PUBLIC "-//W3C//DTD SVG 20010904//EN"
 "http://www.w3.org/TR/2001/REC-SVG-20010904/DTD/svg10.dtd">
<svg version="1.0" xmlns="http://www.w3.org/2000/svg"
 width="512.000000pt" height="512.000000pt" viewBox="0 0 512.000000 512.000000"
 preserveAspectRatio="xMidYMid meet">
<metadata>
Created by potrace 1.15, written by Peter Selinger 2001-2017
</metadata>
<g transform="translate(0.000000,512.000000) scale(0.100000,-0.100000)"
fill="#ffffff" stroke="none">
<path d="M1008 4850 c-60 -50 -193 -268 -174 -287 3 -3 704 -84 1558 -179 854
-95 1572 -175 1594 -178 l42 -5 17 47 c27 72 63 140 112 215 25 37 44 70 42
72 -5 4 61 -3 -1641 185 -795 88 -1462 160 -1480 160 -22 0 -45 -10 -70 -30z"/>
<path d="M4394 4491 c-66 -40 -174 -204 -219 -331 l-15 -44 202 -563 c111
-310 205 -563 209 -563 8 0 43 177 66 335 26 177 26 659 -1 800 -43 231 -123
385 -199 385 -7 0 -26 -8 -43 -19z"/>
<path d="M840 4389 c0 -25 365 -1028 372 -1021 8 9 43 189 63 327 19 130 33
631 18 646 -5 5 -90 18 -189 29 -98 11 -198 22 -221 25 -31 5 -43 3 -43 -6z"/>
<path d="M1456 4218 c13 -236 -31 -645 -100 -919 -19 -74 -33 -135 -33 -135 6
-6 3127 -347 3131 -343 4 3 -9 48 -28 100 -38 101 -99 271 -281 779 -64 179
-121 330 -126 336 -5 6 -37 14 -72 17 -34 3 -262 29 -507 56 -1071 121 -1964
221 -1977 221 -11 0 -13 -19 -7 -112z"/>
<path d="M1280 2707 l0 -302 1203 -133 c661 -73 1210 -133 1221 -133 10 1 60
34 110 75 50 40 192 155 316 255 213 171 245 201 222 201 -6 0 -698 77 -1538
170 -840 94 -1529 170 -1531 170 -2 0 -3 -136 -3 -303z"/>
<path d="M990 2825 c-360 -291 -405 -328 -408 -336 -2 -5 5 -9 15 -9 10 0 133
-13 273 -29 140 -16 256 -28 258 -26 1 1 1 116 0 255 l-3 254 -135 -109z"/>
<path d="M4205 2332 c-149 -119 -296 -237 -327 -262 l-57 -45 0 -852 c-1 -469
3 -853 7 -853 5 0 76 54 158 121 82 67 223 181 314 254 91 73 172 142 180 152
13 16 15 128 12 861 -2 463 -6 842 -10 842 -4 0 -129 -98 -277 -218z"/>
<path d="M460 1466 c0 -747 2 -876 14 -876 8 0 717 -79 1577 -175 859 -96
1576 -175 1592 -175 l30 0 -6 332 c-4 182 -7 575 -7 872 l0 541 -1567 173
c-863 96 -1583 176 -1600 179 l-33 5 0 -876z m1681 479 c67 -35 91 -134 45
-180 l-25 -25 19 -112 c11 -62 20 -118 20 -124 0 -7 -24 -7 -77 -1 -43 5 -80
10 -81 12 -2 2 1 58 7 124 11 120 11 120 -13 146 -45 48 -42 125 6 159 28 20
61 20 99 1z"/>
</g>
</svg>
