<?xml version="1.0" standalone="no"?>
<!DOCTYPE svg PUBLIC "-//W3C//DTD SVG 20010904//EN"
 "http://www.w3.org/TR/2001/REC-SVG-20010904/DTD/svg10.dtd">
<svg version="1.0" xmlns="http://www.w3.org/2000/svg"
 width="512.000000pt" height="512.000000pt" viewBox="0 0 512.000000 512.000000"
 preserveAspectRatio="xMidYMid meet">
<metadata>
Created by potrace 1.15, written by Peter Selinger 2001-2017
</metadata>
<g transform="translate(0.000000,512.000000) scale(0.100000,-0.100000)"
fill="#ffffff" stroke="none">
<path d="M377 4918 c-3 -18 -18 -115 -33 -216 l-28 -183 50 -50 c135 -139 348
-295 579 -424 111 -62 117 -66 75 -60 -83 12 -370 84 -463 116 -50 18 -136 52
-191 76 -54 24 -100 43 -102 43 -7 0 -4 -262 2 -317 l7 -51 91 -30 c136 -46
275 -78 431 -102 202 -31 200 -31 129 -46 -110 -23 -327 -44 -467 -45 -107 0
-137 -3 -137 -14 0 -33 106 -315 119 -315 3 0 68 9 144 20 132 20 351 71 446
104 67 24 69 19 10 -23 -94 -67 -269 -170 -396 -233 l-123 -61 89 -96 c49 -53
116 -122 149 -154 l59 -58 77 46 c43 25 79 45 81 43 1 -2 -10 -48 -26 -103
l-28 -100 22 -23 c19 -21 85 -70 219 -165 46 -32 39 -34 126 47 l42 40 0 -102
0 -102 58 -28 c108 -54 153 -65 270 -60 101 4 157 17 263 62 14 6 16 0 12 -46
-10 -141 -7 -134 -76 -157 -34 -11 -174 -50 -312 -86 -425 -111 -583 -159
-678 -207 -105 -52 -167 -123 -167 -191 l0 -34 169 -34 170 -33 -102 -53 c-56
-30 -130 -68 -164 -85 -72 -37 -74 -42 -44 -134 31 -94 50 -134 64 -134 6 0
95 34 197 75 101 40 186 73 187 72 1 -2 -56 -79 -128 -172 -71 -93 -129 -174
-129 -181 0 -12 196 -204 208 -203 4 0 92 100 196 222 104 122 187 215 184
207 -3 -8 -43 -147 -88 -308 -97 -341 -106 -294 68 -373 95 -43 116 -49 126
-38 7 8 100 157 207 333 106 175 195 314 197 308 2 -8 -101 -613 -124 -723 -5
-26 -4 -26 95 -42 55 -10 147 -17 205 -17 l104 0 52 218 c29 119 69 287 90
372 l37 155 16 -55 c8 -30 52 -188 98 -350 45 -162 83 -296 84 -298 3 -3 170
64 262 104 24 11 43 26 43 34 0 9 -24 137 -54 285 -30 149 -53 271 -53 272 1
1 78 -95 171 -213 l168 -214 37 22 c85 51 168 108 190 132 l24 26 -82 171
c-46 93 -82 172 -80 174 2 2 67 -32 144 -75 77 -44 145 -79 151 -80 26 -1 54
47 54 91 0 110 -92 207 -566 601 -104 87 -225 191 -268 231 l-80 73 66 105
c36 57 69 112 74 122 9 15 17 9 63 -47 93 -116 213 -199 341 -237 87 -27 219
-29 310 -7 l55 14 -3 104 -4 104 60 -52 c32 -28 65 -58 72 -67 7 -8 18 -15 24
-15 13 0 142 88 196 133 l33 28 -25 72 c-15 40 -30 81 -34 91 -9 22 -13 24 98
-28 l77 -35 73 49 c40 27 116 89 168 139 l95 91 -40 32 c-99 81 -385 329 -385
333 0 3 23 -6 52 -21 59 -30 400 -167 438 -177 24 -6 30 2 97 126 40 73 75
139 78 148 5 13 -6 18 -52 28 -84 16 -261 76 -386 129 -59 25 -106 46 -104 48
1 1 67 -2 147 -7 98 -7 187 -6 275 1 204 17 194 12 232 104 49 116 87 226 80
232 -3 3 -48 -4 -99 -15 -142 -33 -317 -51 -478 -51 l-145 1 130 48 c216 80
397 179 547 300 44 35 56 50 52 66 -2 11 -15 82 -28 158 -13 75 -25 140 -28
143 -3 3 -44 -25 -89 -62 -174 -141 -369 -246 -588 -318 -175 -57 -316 -85
-631 -126 -261 -34 -392 -59 -478 -90 -124 -46 -217 -107 -281 -184 l-33 -41
-73 0 -73 0 -27 80 c-51 155 -137 265 -286 365 -115 76 -200 117 -474 224
-492 194 -677 280 -880 414 -186 121 -400 311 -517 459 -18 23 -36 42 -39 42
-4 1 -9 -14 -12 -31z m2501 -2286 c-24 -111 -45 -202 -48 -202 -6 0 -218 393
-215 398 1 1 21 -5 45 -13 59 -21 165 -19 215 4 22 10 41 17 43 16 1 -1 -17
-93 -40 -203z"/>
</g>
</svg>
