<?xml version="1.0" standalone="no"?>
<!DOCTYPE svg PUBLIC "-//W3C//DTD SVG 20010904//EN"
 "http://www.w3.org/TR/2001/REC-SVG-20010904/DTD/svg10.dtd">
<svg version="1.0" xmlns="http://www.w3.org/2000/svg"
 width="512.000000pt" height="512.000000pt" viewBox="0 0 512.000000 512.000000"
 preserveAspectRatio="xMidYMid meet">
<metadata>
Created by potrace 1.15, written by Peter Selinger 2001-2017
</metadata>
<g transform="translate(0.000000,512.000000) scale(0.100000,-0.100000)"
fill="#ffffff" stroke="none">
<path d="M1163 4967 c7 -18 935 -1446 955 -1470 9 -9 17 -16 18 -14 2 2 -138
338 -310 748 l-313 744 -178 3 c-147 2 -176 0 -172 -11z"/>
<path d="M1710 4969 c0 -11 603 -1448 626 -1489 7 -14 13 -20 14 -15 0 6 -68
349 -152 763 l-153 752 -167 0 c-113 0 -168 -4 -168 -11z"/>
<path d="M2230 4968 c0 -23 291 -1453 300 -1473 5 -12 9 291 9 733 l1 752
-155 0 c-115 0 -155 -3 -155 -12z"/>
<path d="M2721 4223 c0 -417 2 -753 5 -748 6 14 304 1478 304 1493 0 9 -38 12
-155 12 l-155 0 1 -757z"/>
<path d="M3062 4233 c-84 -412 -152 -752 -152 -758 1 -5 7 1 14 15 10 18 590
1394 623 1478 4 9 -33 12 -164 12 l-168 0 -153 -747z"/>
<path d="M3427 4228 c-272 -650 -324 -780 -303 -757 10 11 969 1485 973 1496
4 10 -33 13 -175 13 l-179 0 -316 -752z"/>
<path d="M2422 3260 c-215 -57 -411 -232 -491 -439 -157 -408 70 -860 490
-978 91 -25 311 -25 394 1 206 63 371 203 459 390 53 111 69 185 69 311 0 131
-19 217 -73 330 -93 193 -263 331 -476 385 -103 27 -270 26 -372 0z"/>
<path d="M2905 1630 c11 -50 285 -1402 285 -1411 0 -5 72 -9 160 -9 90 0 160
4 160 9 0 15 -590 1415 -601 1426 -7 7 -8 2 -4 -15z"/>
<path d="M2077 1544 c-35 -55 -242 -373 -460 -707 -219 -334 -397 -612 -397
-618 0 -5 67 -9 165 -9 146 0 165 2 174 18 24 46 590 1406 587 1410 -3 2 -34
-40 -69 -94z"/>
<path d="M2326 1599 c-310 -738 -569 -1358 -573 -1371 -5 -17 7 -18 150 -18
140 0 156 2 161 18 15 49 285 1396 281 1400 -3 3 -11 -10 -19 -29z"/>
<path d="M2530 1627 c0 -8 -281 -1384 -286 -1399 -5 -17 6 -18 145 -18 l151 0
0 710 c0 391 -2 710 -5 710 -3 0 -5 -2 -5 -3z"/>
<path d="M3120 1619 c0 -8 132 -327 293 -709 l293 -695 168 -3 c133 -2 167 0
163 10 -4 11 -902 1395 -913 1407 -2 2 -4 -2 -4 -10z"/>
<path d="M2721 913 l-1 -703 145 0 c80 0 145 4 145 9 0 17 -271 1347 -280
1371 -5 15 -9 -255 -9 -677z"/>
</g>
</svg>
