<?xml version="1.0" encoding="UTF-8" standalone="no"?>
<svg
   xmlns:dc="http://purl.org/dc/elements/1.1/"
   xmlns:cc="http://creativecommons.org/ns#"
   xmlns:rdf="http://www.w3.org/1999/02/22-rdf-syntax-ns#"
   xmlns:svg="http://www.w3.org/2000/svg"
   xmlns="http://www.w3.org/2000/svg"
   xmlns:sodipodi="http://sodipodi.sourceforge.net/DTD/sodipodi-0.dtd"
   xmlns:inkscape="http://www.inkscape.org/namespaces/inkscape"
   version="1.0"
   width="512.000000pt"
   height="512.000000pt"
   viewBox="0 0 512.000000 512.000000"
   preserveAspectRatio="xMidYMid meet"
   id="svg6596"
   sodipodi:docname="lightning-lure.svg"
   inkscape:version="0.92.4 (5da689c313, 2019-01-14)">
  <defs
     id="defs6600" />
  <sodipodi:namedview
     pagecolor="#ffffff"
     bordercolor="#666666"
     borderopacity="1"
     objecttolerance="10"
     gridtolerance="10"
     guidetolerance="10"
     inkscape:pageopacity="0"
     inkscape:pageshadow="2"
     inkscape:window-width="1850"
     inkscape:window-height="1016"
     id="namedview6598"
     showgrid="false"
     inkscape:pagecheckerboard="true"
     inkscape:zoom="0.69140625"
     inkscape:cx="-105.42671"
     inkscape:cy="190.13186"
     inkscape:window-x="70"
     inkscape:window-y="27"
     inkscape:window-maximized="1"
     inkscape:current-layer="svg6596" />
  <metadata
     id="metadata6568">
Created by potrace 1.15, written by Peter Selinger 2001-2017
<rdf:RDF>
  <cc:Work
     rdf:about="">
    <dc:format>image/svg+xml</dc:format>
    <dc:type
       rdf:resource="http://purl.org/dc/dcmitype/StillImage" />
    <dc:title></dc:title>
  </cc:Work>
</rdf:RDF>
</metadata>
  <path
     style="fill:#ffffff;fill-opacity:1;fill-rule:evenodd;stroke:none;stroke-width:1px;stroke-linecap:butt;stroke-linejoin:miter;stroke-opacity:1"
     d="m 621.79688,28.925781 -192.47266,3.740235 -293.10156,279.914064 206.58789,3.0664 -188.35987,225.06588 c -0.61208,3.03921 -0.67344,1.31844 -0.57373,4.07674 0.0886,4.0918 0.17704,8.18359 0.26563,12.27539 0.0301,1.34054 0.59725,2.61284 1.57422,3.53125 l 45.36132,42.69336 c 0.029,0.0284 0.0583,0.0564 0.0879,0.084 0,0 13.15422,11.31858 7.13281,29.38281 -6.26466,18.79397 -19.81759,21.24322 -25.27344,21.67969 -5.92071,0.47365 -9.29194,-0.038 -13.94141,-4.6875 -4.08826,-4.08828 -8.43359,-14.95899 -8.43359,-14.95899 -0.072,-0.20119 -0.1568,-0.39755 -0.25391,-0.58789 -0.9088,-1.78278 -0.74717,-1.82649 -0.5371,-2.36328 0.21006,-0.5368 3.45312,-3.94727 3.45312,-3.94727 l 0.40922,-7.13822 -7.14555,-0.25045 c 0,0 -4.75743,4.44128 -6.02929,7.69141 -1.2151,3.10502 -0.79206,6.849 0.73242,10.0918 -0.002,-0.007 -0.0469,-0.13086 -0.0469,-0.13086 l 0.25391,0.58789 c -0.0761,-0.14922 -0.13579,-0.30548 -0.20703,-0.45703 0.12299,0.38357 3.73351,11.53622 10.73047,18.5332 6.55753,6.55751 14.39155,8.17962 21.8125,7.58594 7.8858,-0.63086 26.3542,-5.65632 33.96484,-28.48828 7.85392,-23.56173 -9.94336,-39.99219 -9.94336,-39.99219 L 164.0957,554.75 163.8976,544.33498 c -0.0158,-1.81087 347.79213,-277.83886 347.79213,-277.83886 l -182.28153,1.92185 z"
     transform="scale(0.74999998)"
     id="path7164"
     inkscape:connector-curvature="0"
     sodipodi:nodetypes="ccccccccccscscccccccccccccscccccc" />
</svg>
