<?xml version="1.0" standalone="no"?>
<!DOCTYPE svg PUBLIC "-//W3C//DTD SVG 20010904//EN"
 "http://www.w3.org/TR/2001/REC-SVG-20010904/DTD/svg10.dtd">
<svg version="1.0" xmlns="http://www.w3.org/2000/svg"
 width="512.000000pt" height="512.000000pt" viewBox="0 0 512.000000 512.000000"
 preserveAspectRatio="xMidYMid meet">
<metadata>
Created by potrace 1.15, written by Peter Selinger 2001-2017
</metadata>
<g transform="translate(0.000000,512.000000) scale(0.100000,-0.100000)"
fill="#ffffff" stroke="none">
<path d="M2530 4915 c-84 -15 -189 -44 -206 -57 -6 -5 -51 -79 -99 -166 -265
-474 -511 -849 -769 -1172 -113 -142 -122 -152 -378 -425 -103 -110 -221 -243
-263 -295 -83 -103 -232 -322 -261 -382 -16 -35 -16 -39 1 -85 12 -33 41 -70
89 -119 116 -115 213 -172 696 -412 528 -262 792 -436 1050 -694 79 -78 227
-255 250 -298 11 -20 25 -20 996 -20 l985 0 -6 23 c-55 181 -158 350 -302 493
-223 221 -537 357 -883 380 -110 8 -249 -8 -395 -46 -168 -43 -288 -39 -460
17 -227 73 -397 201 -473 357 -38 76 -74 200 -98 331 -24 136 -24 431 0 570
54 316 166 599 339 858 208 311 440 521 730 662 145 70 270 104 415 112 61 3
112 9 111 12 -1 11 -128 112 -210 167 -150 101 -285 157 -453 189 -96 18 -303
18 -406 0z"/>
<path d="M3370 4355 c-177 -36 -400 -159 -579 -321 -30 -27 -93 -94 -141 -150
-243 -282 -407 -630 -466 -989 -49 -292 -3 -687 96 -836 71 -109 245 -213 420
-254 126 -29 280 -14 296 29 3 9 -2 59 -13 113 -23 123 -25 440 -4 548 98 494
451 825 1029 966 116 28 295 59 343 59 21 0 40 3 42 8 7 10 -80 230 -127 322
-64 126 -126 211 -225 310 -109 108 -193 158 -317 190 -91 23 -252 26 -354 5z"/>
<path d="M400 2093 c-38 -104 -70 -226 -72 -269 -4 -99 140 -271 339 -406 133
-89 395 -195 528 -213 51 -6 51 -6 63 28 7 19 28 50 47 70 l35 36 88 -51 c435
-255 755 -570 898 -885 l33 -73 1150 0 1149 0 7 41 c4 22 4 85 0 140 l-7 99
-1048 0 -1047 0 -46 69 c-106 160 -214 282 -363 410 -231 200 -434 325 -934
575 -387 194 -484 248 -593 328 -64 48 -177 162 -177 180 0 4 -4 8 -9 8 -5 0
-23 -39 -41 -87z"/>
</g>
</svg>
