<?xml version="1.0" standalone="no"?>
<!DOCTYPE svg PUBLIC "-//W3C//DTD SVG 20010904//EN"
 "http://www.w3.org/TR/2001/REC-SVG-20010904/DTD/svg10.dtd">
<svg version="1.0" xmlns="http://www.w3.org/2000/svg"
 width="512.000000pt" height="512.000000pt" viewBox="0 0 512.000000 512.000000"
 preserveAspectRatio="xMidYMid meet">
<metadata>
Created by potrace 1.15, written by Peter Selinger 2001-2017
</metadata>
<g transform="translate(0.000000,512.000000) scale(0.100000,-0.100000)"
fill="#ffffff" stroke="none">
<path d="M2265 4983 c-258 -24 -596 -88 -860 -164 -861 -247 -1322 -676 -1220
-1133 93 -421 682 -743 1521 -831 1055 -111 2201 195 2798 747 51 46 73 62 61
43 -53 -84 -140 -190 -230 -281 -355 -358 -864 -580 -1625 -708 -113 -19 -250
-40 -305 -46 -55 -7 -101 -13 -103 -15 -11 -10 229 -14 398 -6 851 43 1562
269 1926 614 107 101 162 172 214 277 165 329 89 639 -213 878 -291 230 -804
392 -1367 433 -199 14 -598 7 -785 -15 -657 -77 -1266 -286 -1670 -574 -76
-55 -229 -187 -276 -240 l-42 -47 37 70 c77 144 198 277 368 410 320 249 763
440 1276 550 85 18 156 36 159 39 4 3 0 5 -8 4 -8 -1 -32 -3 -54 -5z m973
-428 c557 -58 943 -249 1002 -496 13 -53 9 -124 -9 -170 l-10 -27 -143 72
c-285 143 -683 249 -1113 298 -170 19 -641 16 -805 -5 -422 -54 -766 -175
-1049 -370 l-74 -50 7 29 c14 57 80 158 143 220 243 240 790 441 1343 493 181
17 185 18 378 19 106 1 244 -4 330 -13z m-448 -509 c107 -8 245 -22 305 -31
246 -36 541 -112 726 -185 104 -42 257 -114 272 -129 11 -11 -81 -90 -169
-145 l-70 -43 -73 28 c-377 150 -1013 202 -1501 123 -145 -24 -333 -72 -455
-116 -122 -45 -303 -132 -369 -177 l-43 -30 -54 28 c-93 47 -162 97 -217 154
-28 31 -52 60 -52 65 0 14 133 113 225 168 288 170 666 273 1080 294 82 4 161
8 175 8 14 1 113 -5 220 -12z m138 -546 c193 -10 455 -48 606 -88 l70 -18 -60
-21 c-531 -191 -1214 -246 -1758 -142 -55 10 -103 22 -108 27 -5 5 25 24 69
44 256 117 536 179 908 201 28 2 57 4 65 5 8 1 102 -3 208 -8z"/>
<path d="M864 2767 c161 -139 459 -323 658 -405 183 -76 412 -138 613 -166
181 -25 230 -28 465 -35 l225 -6 -130 -32 c-317 -79 -677 -116 -910 -95 -269
25 -466 74 -658 164 -59 28 -110 49 -113 46 -8 -9 88 -120 153 -177 101 -89
175 -139 293 -200 119 -60 186 -85 327 -121 731 -183 1781 182 2465 857 60 59
106 108 104 110 -2 3 -30 -9 -62 -25 -256 -128 -612 -221 -1030 -268 -195 -21
-636 -30 -820 -15 -431 35 -757 96 -1128 212 -136 43 -363 135 -433 175 -64
37 -73 28 -19 -19z"/>
<path d="M3100 1708 c-232 -102 -438 -165 -680 -208 -221 -39 -500 -41 -695
-6 -121 22 -296 79 -391 126 -43 22 -79 38 -81 36 -2 -1 3 -21 11 -43 77 -219
269 -364 538 -408 384 -62 861 78 1233 363 92 70 231 204 209 201 -5 -1 -70
-28 -144 -61z"/>
<path d="M2526 1104 c-176 -61 -442 -100 -606 -89 -121 8 -267 37 -349 70 -36
14 -67 25 -70 25 -11 0 50 -57 124 -115 185 -144 336 -208 520 -222 214 -15
389 106 474 330 13 34 2 35 -93 1z"/>
<path d="M1390 941 c0 -5 18 -63 41 -128 55 -159 171 -394 261 -528 l74 -110
196 -3 c151 -2 198 1 206 11 6 7 35 73 65 147 30 74 71 168 91 209 21 40 36
75 34 77 -2 2 -22 -2 -44 -8 -70 -20 -238 -15 -339 11 -168 43 -439 194 -539
300 -30 31 -46 39 -46 22z"/>
</g>
</svg>
