<?xml version="1.0" standalone="no"?>
<!DOCTYPE svg PUBLIC "-//W3C//DTD SVG 20010904//EN"
 "http://www.w3.org/TR/2001/REC-SVG-20010904/DTD/svg10.dtd">
<svg version="1.0" xmlns="http://www.w3.org/2000/svg"
 width="512.000000pt" height="512.000000pt" viewBox="0 0 512.000000 512.000000"
 preserveAspectRatio="xMidYMid meet">
<metadata>
Created by potrace 1.15, written by Peter Selinger 2001-2017
</metadata>
<g transform="translate(0.000000,512.000000) scale(0.100000,-0.100000)"
fill="#ffffff" stroke="none">
<path d="M2565 4864 c-85 -18 -49 0 -649 -324 l-489 -264 -112 -151 c-299
-403 -437 -598 -456 -640 -28 -64 -28 -171 1 -230 47 -96 155 -118 285 -56
l70 33 195 259 c213 283 240 309 385 379 236 114 542 124 727 23 148 -81 219
-200 219 -368 -1 -106 -27 -195 -111 -380 -82 -180 -117 -288 -129 -397 -23
-203 53 -357 213 -432 100 -47 84 -67 165 205 111 371 150 437 456 759 200
211 261 314 272 458 l6 72 31 0 c17 0 257 -16 534 -36 276 -20 504 -35 505
-33 2 2 1 256 -1 565 l-4 561 -757 6 c-1072 10 -1272 8 -1356 -9z"/>
<path d="M2072 3839 c-112 -19 -239 -74 -325 -141 -29 -23 -384 -475 -421
-536 -5 -8 6 -19 36 -32 78 -35 153 -23 234 38 47 37 54 39 106 34 65 -5 99
10 149 65 40 44 101 163 124 243 24 79 74 164 149 252 36 43 66 80 66 83 0 7
-55 4 -118 -6z"/>
<path d="M1725 2916 c-49 -23 -348 -161 -664 -307 -491 -226 -577 -269 -599
-297 -54 -70 -68 -33 414 -1076 331 -717 445 -954 465 -969 15 -10 47 -21 72
-24 38 -5 60 2 148 42 666 304 1220 562 1243 578 31 22 56 72 56 113 0 15 -21
72 -46 128 -59 129 -624 1355 -673 1461 -21 44 -64 137 -96 208 -72 158 -100
187 -178 186 -39 0 -74 -11 -142 -43z"/>
</g>
</svg>
