<?xml version="1.0" standalone="no"?>
<!DOCTYPE svg PUBLIC "-//W3C//DTD SVG 20010904//EN"
 "http://www.w3.org/TR/2001/REC-SVG-20010904/DTD/svg10.dtd">
<svg version="1.0" xmlns="http://www.w3.org/2000/svg"
 width="512.000000pt" height="512.000000pt" viewBox="0 0 512.000000 512.000000"
 preserveAspectRatio="xMidYMid meet">
<metadata>
Created by potrace 1.15, written by Peter Selinger 2001-2017
</metadata>
<g transform="translate(0.000000,512.000000) scale(0.100000,-0.100000)"
fill="#ffffff" stroke="none">
<path d="M2275 4919 c-684 -86 -1302 -466 -1677 -1029 -88 -132 -226 -412
-271 -550 -147 -444 -164 -895 -52 -1340 144 -571 486 -1055 980 -1385 129
-86 409 -223 550 -269 272 -88 474 -120 750 -120 377 0 704 75 1040 239 274
134 500 302 697 519 313 344 505 735 590 1199 30 166 33 571 5 742 -102 615
-408 1144 -868 1502 -336 261 -712 422 -1133 484 -142 20 -474 25 -611 8z
m441 -189 c149 -12 320 -40 403 -66 7 -2 -179 -133 -415 -290 -236 -157 -436
-292 -444 -301 -13 -13 -13 -15 5 -9 48 14 168 26 265 26 l105 0 368 245 368
245 115 -55 c64 -30 150 -76 192 -102 255 -156 513 -402 666 -633 92 -139 99
-152 79 -146 -45 13 -1025 207 -1029 203 -2 -2 27 -27 65 -56 39 -28 105 -85
148 -125 l79 -74 426 -86 c235 -47 429 -86 432 -86 11 0 93 -247 120 -363 46
-197 65 -466 47 -657 -12 -129 -56 -369 -70 -383 -4 -4 -138 188 -297 427
-159 240 -293 436 -298 436 -4 0 -5 -12 -2 -26 14 -54 25 -173 26 -263 l0 -94
246 -367 246 -368 -70 -140 c-143 -287 -335 -528 -572 -719 -93 -75 -289 -207
-296 -200 -2 2 44 234 101 517 90 449 106 539 92 519 -51 -69 -126 -159 -178
-214 l-67 -70 -87 -430 c-58 -289 -91 -434 -101 -442 -25 -19 -252 -90 -374
-117 -300 -66 -693 -59 -983 17 l-49 13 441 293 c243 162 439 296 437 299 -3
2 -42 -1 -88 -7 -46 -6 -131 -13 -190 -14 l-107 -3 -365 -243 -364 -243 -102
46 c-271 125 -543 335 -745 576 -79 94 -219 304 -206 308 6 2 238 -42 516 -98
279 -56 509 -100 511 -97 2 2 -27 27 -65 56 -39 28 -105 85 -148 125 l-78 73
-420 84 c-276 55 -425 89 -436 100 -23 23 -97 252 -124 387 -63 308 -60 639 9
924 l22 93 297 -445 c168 -252 297 -436 297 -424 0 12 -5 45 -10 75 -6 29 -13
109 -15 178 -3 68 -9 129 -12 135 -4 6 -112 170 -241 364 l-234 353 17 42 c25
63 119 239 171 320 171 264 399 487 682 666 29 18 55 31 58 29 3 -3 -40 -230
-96 -503 -55 -274 -100 -507 -100 -518 0 -14 17 2 52 49 28 38 85 105 127 149
l76 80 84 425 c46 234 89 430 95 436 16 17 196 78 316 107 232 57 446 75 676
57z"/>
<path d="M2320 3894 c-41 -7 -106 -23 -145 -35 -58 -17 -67 -23 -53 -32 9 -7
131 -73 271 -147 l255 -135 -127 -6 c-69 -3 -143 -9 -163 -14 -34 -6 -53 1
-245 105 l-208 112 -40 -21 c-109 -58 -289 -222 -383 -349 -60 -80 -139 -222
-125 -222 7 0 429 125 527 156 12 4 -5 -21 -42 -62 -34 -38 -78 -93 -99 -123
l-38 -53 -215 -65 c-118 -36 -218 -70 -222 -76 -14 -23 -39 -186 -45 -292 -3
-63 0 -151 6 -205 14 -110 49 -267 61 -275 10 -6 20 10 172 293 l115 212 1
-89 c0 -49 6 -123 12 -163 l12 -74 -106 -196 c-58 -108 -106 -202 -106 -209 0
-6 25 -49 55 -95 104 -156 284 -325 438 -409 37 -20 67 -34 67 -31 0 5 -108
369 -166 560 -3 10 31 -18 76 -62 44 -45 101 -93 125 -109 37 -23 46 -35 59
-83 9 -30 39 -133 68 -228 l53 -172 35 -10 c180 -50 459 -59 635 -20 55 12
103 25 107 29 6 5 -115 73 -517 288 l-59 32 114 -6 c63 -2 144 0 180 5 56 8
69 7 95 -8 17 -9 75 -41 130 -70 55 -29 142 -75 193 -102 l92 -50 68 40 c149
88 265 191 369 324 63 79 129 186 120 194 -2 2 -154 -41 -337 -96 -184 -55
-335 -98 -337 -96 -2 2 15 15 39 29 48 28 156 129 209 194 34 42 35 43 274
114 132 40 245 77 252 83 6 6 21 56 33 111 27 123 37 345 21 465 -12 94 -39
211 -51 223 -4 5 -50 -72 -103 -170 -183 -342 -252 -467 -243 -441 16 53 27
194 21 284 l-7 102 122 226 121 226 -28 47 c-67 116 -144 213 -237 300 -101
94 -307 235 -323 220 -4 -4 49 -187 166 -577 l20 -65 -27 35 c-49 63 -115 131
-177 180 l-60 48 -70 236 -70 236 -40 11 c-144 40 -423 51 -575 23z"/>
</g>
</svg>
