<?xml version="1.0" standalone="no"?>
<!DOCTYPE svg PUBLIC "-//W3C//DTD SVG 20010904//EN"
 "http://www.w3.org/TR/2001/REC-SVG-20010904/DTD/svg10.dtd">
<svg version="1.0" xmlns="http://www.w3.org/2000/svg"
 width="512.000000pt" height="512.000000pt" viewBox="0 0 512.000000 512.000000"
 preserveAspectRatio="xMidYMid meet">
<metadata>
Created by potrace 1.15, written by Peter Selinger 2001-2017
</metadata>
<g transform="translate(0.000000,512.000000) scale(0.100000,-0.100000)"
fill="#ffffff" stroke="none">
<path d="M1473 4647 c-430 -133 -784 -244 -786 -247 -3 -3 -69 -243 -147 -535
-77 -291 -143 -538 -146 -547 -3 -10 -1 -18 5 -18 6 0 137 56 291 124 231 102
280 121 284 107 11 -35 166 -735 163 -737 -1 -1 -76 65 -167 147 -91 82 -172
154 -181 159 -13 8 -43 -21 -158 -152 -78 -89 -140 -164 -139 -168 4 -10 1402
-1360 1409 -1360 3 0 41 150 84 333 43 182 81 340 85 351 4 12 115 -307 325
-935 175 -525 321 -958 326 -963 6 -7 1595 247 1605 257 2 1 51 214 109 472
58 259 160 709 225 1000 66 292 120 540 120 552 0 11 -90 180 -201 374 -111
195 -299 527 -420 739 -159 282 -226 390 -246 402 -253 147 -1618 888 -1635
887 -13 0 -375 -110 -805 -242z m184 -324 c-18 -27 -78 -110 -131 -186 l-97
-139 -14 -306 c-8 -169 -15 -329 -15 -357 -1 -49 -2 -49 -34 55 -114 368 -229
751 -225 754 6 6 533 225 542 226 5 0 -7 -21 -26 -47z m808 -1666 l550 -756
220 -71 c121 -39 348 -114 505 -166 l285 -94 -510 6 -510 6 -27 26 c-15 15
-265 304 -557 642 l-531 614 0 291 c1 230 3 287 13 274 7 -9 260 -356 562
-772z"/>
<path d="M801 1803 c37 -47 1391 -1524 1394 -1521 2 2 -8 151 -23 331 -21 246
-31 331 -42 341 -19 18 -1327 866 -1336 866 -3 0 0 -8 7 -17z"/>
</g>
</svg>
