<?xml version="1.0" standalone="no"?>
<!DOCTYPE svg PUBLIC "-//W3C//DTD SVG 20010904//EN"
 "http://www.w3.org/TR/2001/REC-SVG-20010904/DTD/svg10.dtd">
<svg version="1.0" xmlns="http://www.w3.org/2000/svg"
 width="512.000000pt" height="512.000000pt" viewBox="0 0 512.000000 512.000000"
 preserveAspectRatio="xMidYMid meet">
<metadata>
Created by potrace 1.15, written by Peter Selinger 2001-2017
</metadata>
<g transform="translate(0.000000,512.000000) scale(0.100000,-0.100000)"
fill="#ffffff" stroke="none">
<path d="M2450 4934 c-397 -51 -756 -252 -1116 -626 -504 -525 -913 -1378
-1008 -2103 -20 -148 -20 -233 -1 -358 87 -578 639 -1098 1510 -1425 254 -95
442 -144 750 -198 149 -26 180 -28 440 -29 315 0 389 9 589 72 584 185 897
689 961 1551 7 93 7 94 -13 83 -12 -6 -25 -17 -29 -24 -4 -7 -35 -35 -68 -63
-303 -257 -803 -395 -1288 -355 -780 64 -1429 433 -1844 1049 -148 220 -201
469 -131 622 51 112 116 150 421 244 557 173 1025 244 1546 233 367 -7 660
-50 1005 -147 60 -17 111 -28 114 -25 11 10 -164 365 -196 397 -5 5 -36 -7
-70 -27 -274 -163 -620 -3 -674 312 -22 134 24 281 118 374 24 24 44 47 44 51
0 4 -31 32 -68 62 -201 159 -415 264 -642 311 -75 16 -284 27 -350 19z m-33
-326 c251 -93 369 -386 248 -616 -49 -94 -123 -166 -215 -211 -72 -35 -79 -36
-185 -36 -106 0 -113 1 -185 36 -98 48 -171 120 -219 219 -33 68 -36 84 -39
174 -5 138 25 221 117 319 65 70 164 123 261 141 48 9 160 -4 217 -26z"/>
<path d="M2172 4441 c-61 -21 -123 -76 -155 -136 -31 -59 -30 -173 3 -238 48
-96 133 -147 245 -147 160 0 269 108 269 265 0 86 -26 145 -89 204 -73 67
-173 87 -273 52z"/>
<path d="M3711 4449 c-117 -36 -191 -137 -191 -261 0 -100 48 -184 137 -239
33 -21 51 -24 128 -24 103 0 143 15 200 73 56 58 70 96 70 192 0 74 -3 91 -27
130 -32 55 -60 81 -116 110 -49 26 -149 35 -201 19z"/>
<path d="M3076 3429 c6 -8 116 -147 244 -309 349 -442 382 -482 390 -473 10
11 240 662 240 678 0 32 -434 98 -730 111 -132 6 -153 5 -144 -7z"/>
<path d="M2685 3419 c-224 -25 -716 -116 -736 -137 -7 -7 66 -98 366 -467 66
-81 133 -164 149 -186 17 -22 33 -36 37 -32 4 5 73 134 154 288 81 154 178
340 216 413 l70 132 -88 -1 c-48 -1 -124 -6 -168 -10z"/>
<path d="M4016 3308 c13 -21 452 -568 482 -600 14 -15 27 -26 29 -24 7 7 -64
287 -104 410 l-38 120 -60 18 c-33 10 -109 32 -170 49 -60 17 -118 33 -129 36
-14 4 -16 2 -10 -9z"/>
<path d="M1650 3198 c-85 -28 -156 -51 -158 -53 -1 -1 41 -75 94 -164 54 -89
100 -158 104 -154 10 12 122 402 118 412 -2 5 -73 -13 -158 -41z"/>
<path d="M1859 2677 c-30 -29 -99 -92 -152 -141 -53 -49 -97 -96 -97 -104 0
-37 407 -408 427 -388 5 5 -30 230 -99 629 -6 31 -13 57 -17 57 -3 -1 -31 -24
-62 -53z"/>
<path d="M4091 2148 c-51 -200 -94 -371 -97 -380 -9 -29 15 -22 142 42 148 73
266 166 356 279 38 47 68 89 67 95 0 6 -22 29 -48 51 -26 22 -109 93 -184 158
-75 64 -137 117 -140 117 -2 0 -45 -163 -96 -362z"/>
<path d="M2549 2280 c-107 -101 -231 -219 -276 -261 -58 -56 -78 -81 -70 -88
47 -38 313 -152 462 -198 84 -25 287 -74 292 -69 3 3 -194 755 -205 781 -8 17
-33 -3 -203 -165z"/>
<path d="M3503 2429 c-11 -19 -72 -131 -136 -249 -64 -118 -154 -285 -200
-370 -47 -85 -82 -158 -78 -162 4 -4 79 -11 166 -14 119 -5 196 -2 300 10 120
14 328 55 339 67 2 2 -80 172 -183 378 l-188 374 -20 -34z"/>
</g>
</svg>
