<?xml version="1.0" standalone="no"?>
<!DOCTYPE svg PUBLIC "-//W3C//DTD SVG 20010904//EN"
 "http://www.w3.org/TR/2001/REC-SVG-20010904/DTD/svg10.dtd">
<svg version="1.0" xmlns="http://www.w3.org/2000/svg"
 width="512.000000pt" height="512.000000pt" viewBox="0 0 512.000000 512.000000"
 preserveAspectRatio="xMidYMid meet">
<metadata>
Created by potrace 1.15, written by Peter Selinger 2001-2017
</metadata>
<g transform="translate(0.000000,512.000000) scale(0.100000,-0.100000)"
fill="#ffffff" stroke="none">
<path d="M1240 4880 c-208 -44 -383 -262 -431 -537 -18 -102 -6 -307 25 -424
45 -170 80 -245 167 -350 28 -33 48 -63 44 -67 -3 -4 -52 -14 -108 -23 -128
-21 -200 -48 -276 -104 -180 -132 -286 -388 -336 -805 -16 -141 -40 -753 -30
-770 4 -6 89 -10 209 -10 l203 0 6 -67 c3 -38 27 -401 52 -808 26 -407 48
-746 50 -752 4 -10 126 -13 569 -13 l564 0 6 62 c3 35 26 394 51 798 26 404
48 745 51 758 4 22 5 22 216 22 l211 0 -7 243 c-19 692 -88 1036 -258 1292
-74 111 -198 221 -294 261 l-34 14 25 50 c105 208 127 509 53 740 -36 115 -97
219 -174 300 -124 129 -251 189 -414 195 -52 2 -115 0 -140 -5z m244 -211
c307 -115 427 -565 250 -937 -19 -40 -64 -108 -99 -152 -36 -43 -66 -84 -67
-91 -2 -8 34 -19 107 -34 134 -27 213 -63 284 -129 201 -191 292 -525 317
-1169 l7 -177 -207 0 c-169 0 -206 -2 -206 -14 0 -8 -23 -361 -50 -786 -28
-425 -50 -785 -50 -801 l0 -29 -220 0 -220 0 0 2170 0 2170 50 0 c27 0 74 -9
104 -21z"/>
<path d="M3705 4879 c-136 -32 -270 -115 -358 -224 -61 -76 -131 -216 -159
-320 -18 -67 -21 -106 -21 -240 0 -140 4 -172 27 -259 14 -55 40 -129 56 -165
35 -74 41 -63 -61 -121 -174 -98 -315 -313 -388 -592 -64 -241 -90 -470 -98
-865 l-6 -303 211 0 c195 0 212 -1 213 -17 0 -10 24 -378 52 -818 l52 -800
566 -3 567 -2 5 52 c4 29 27 388 52 798 26 410 48 755 51 768 4 22 5 22 209
22 l205 0 0 183 c0 217 -15 477 -35 641 -69 540 -250 806 -585 861 -158 26
-149 15 -86 93 132 166 201 384 200 632 -1 160 -21 248 -85 380 -52 105 -163
222 -249 262 -98 45 -233 60 -335 37z m145 -2359 l0 -2170 -220 0 c-169 0
-220 3 -221 13 0 6 -24 372 -52 812 l-52 800 -204 3 -204 2 6 218 c15 533 99
878 263 1076 85 103 179 153 344 183 47 9 90 18 97 22 7 4 -14 37 -57 90 -129
157 -179 291 -187 501 -5 106 -2 139 15 208 32 127 75 207 151 283 88 87 171
127 269 128 l52 1 0 -2170z"/>
</g>
</svg>
