<?xml version="1.0" standalone="no"?>
<!DOCTYPE svg PUBLIC "-//W3C//DTD SVG 20010904//EN"
 "http://www.w3.org/TR/2001/REC-SVG-20010904/DTD/svg10.dtd">
<svg version="1.0" xmlns="http://www.w3.org/2000/svg"
 width="512.000000pt" height="512.000000pt" viewBox="0 0 512.000000 512.000000"
 preserveAspectRatio="xMidYMid meet">
<metadata>
Created by potrace 1.15, written by Peter Selinger 2001-2017
</metadata>
<g transform="translate(0.000000,512.000000) scale(0.100000,-0.100000)"
fill="#ffffff" stroke="none">
<path d="M2000 5118 c0 -2 -71 -372 -158 -822 -139 -720 -160 -820 -178 -827
-10 -5 -389 -79 -842 -166 l-822 -157 0 -38 c0 -45 -24 -38 260 -78 l215 -30
825 2 825 3 3 905 c2 861 1 912 -18 1050 -11 80 -20 149 -20 153 0 6 -90 11
-90 5z"/>
<path d="M2535 5108 c-2 -7 -56 -285 -119 -618 l-116 -605 0 -526 0 -526 -61
-7 c-34 -3 -301 -6 -593 -7 l-531 0 -555 -107 -555 -108 -3 -42 c-3 -36 0 -42
20 -47 13 -3 292 -57 621 -120 l598 -115 529 0 530 0 2 -547 3 -548 115 -593
115 -592 47 0 c27 0 48 4 48 9 0 5 50 266 110 579 l110 570 0 561 0 561 528 0
527 0 608 117 607 117 0 48 c0 26 -3 48 -6 48 -3 0 -259 50 -569 110 l-564
110 -566 0 -565 0 0 559 0 559 -110 570 c-60 313 -110 576 -110 586 0 12 -10
16 -45 16 -28 0 -47 -5 -50 -12z"/>
<path d="M3060 5113 c0 -4 -9 -73 -20 -153 -19 -138 -20 -189 -18 -1050 l3
-905 828 -3 828 -2 212 30 c117 16 215 30 220 30 4 0 7 20 7 45 0 38 -3 45
-22 50 -13 3 -374 72 -803 155 -429 82 -791 153 -804 157 -24 8 -29 32 -182
828 -87 451 -158 821 -159 823 0 6 -90 1 -90 -5z"/>
<path d="M200 2069 c-107 -15 -196 -28 -197 -29 -6 0 -3 -80 3 -80 17 0 1669
-321 1673 -326 3 -2 75 -370 161 -817 l156 -812 47 -3 c45 -3 46 -2 52 30 33
195 35 249 35 1160 l0 908 -867 -1 -868 -1 -195 -29z"/>
<path d="M3020 1192 c0 -911 2 -965 35 -1160 6 -32 7 -33 52 -30 l47 3 156
812 c86 447 158 815 161 817 3 3 374 77 825 164 l819 158 3 45 3 45 -198 27
-198 27 -852 0 -853 0 0 -908z"/>
</g>
</svg>
