<?xml version="1.0" standalone="no"?>
<!DOCTYPE svg PUBLIC "-//W3C//DTD SVG 20010904//EN"
 "http://www.w3.org/TR/2001/REC-SVG-20010904/DTD/svg10.dtd">
<svg version="1.0" xmlns="http://www.w3.org/2000/svg"
 width="512.000000pt" height="512.000000pt" viewBox="0 0 512.000000 512.000000"
 preserveAspectRatio="xMidYMid meet">
<metadata>
Created by potrace 1.15, written by Peter Selinger 2001-2017
</metadata>
<g transform="translate(0.000000,512.000000) scale(0.100000,-0.100000)"
fill="#ffffff" stroke="none">
<path d="M1056 4931 c5 -4 61 -43 124 -86 147 -100 447 -309 480 -335 16 -12
-8 -5 -65 19 -339 145 -762 271 -1140 341 -93 17 -181 33 -193 36 -38 8 -17
-12 56 -52 64 -36 115 -66 447 -269 221 -135 724 -462 750 -487 6 -6 -17 3
-50 20 -87 43 -370 153 -515 200 -201 65 -560 157 -560 143 0 -4 44 -34 98
-66 395 -236 888 -594 1231 -894 79 -69 158 -138 175 -153 l31 -27 -40 -33
c-344 -283 -727 -692 -1031 -1098 -155 -206 -404 -593 -391 -606 4 -4 46 29
94 73 91 82 335 290 553 473 69 58 116 93 105 78 -11 -14 -67 -88 -124 -163
-263 -348 -491 -741 -671 -1155 -110 -254 -228 -575 -215 -588 3 -3 7 -3 8 -1
88 109 240 286 404 470 204 229 215 245 414 550 198 305 368 550 479 694 155
200 359 410 500 517 73 54 245 158 263 158 5 0 -28 -41 -74 -91 -108 -118
-189 -213 -363 -429 -354 -437 -517 -642 -508 -639 5 2 85 76 178 164 263 249
392 366 619 561 177 152 453 374 465 374 15 0 251 -288 420 -514 378 -506 690
-1018 1010 -1657 50 -100 93 -180 95 -178 5 5 -40 266 -76 443 -36 176 -124
525 -173 685 -19 63 -31 110 -27 105 5 -5 102 -142 217 -304 114 -162 209
-297 211 -299 44 -57 -238 663 -333 852 -14 26 -22 47 -20 47 13 0 380 -542
562 -830 135 -213 261 -422 384 -635 98 -171 115 -195 106 -155 -189 871 -491
1626 -895 2236 l-53 79 114 -115 c224 -226 508 -534 728 -788 63 -72 117 -132
122 -132 10 0 -56 144 -183 400 -285 574 -621 1083 -974 1474 l-94 104 152 95
c296 185 650 389 980 566 54 29 96 55 94 58 -12 12 -465 -87 -717 -157 -79
-22 -145 -38 -147 -36 -4 4 179 137 427 309 102 70 186 132 188 137 9 25 -805
-271 -947 -344 -62 -33 -43 -14 44 43 98 63 437 271 550 338 156 91 366 213
465 268 58 32 107 60 109 62 57 43 -571 -150 -919 -283 -314 -119 -538 -217
-792 -345 l-180 -91 -56 41 c-526 378 -1127 648 -1785 801 -138 32 -157 35
-141 21z"/>
</g>
</svg>
