<?xml version="1.0" standalone="no"?>
<!DOCTYPE svg PUBLIC "-//W3C//DTD SVG 20010904//EN"
 "http://www.w3.org/TR/2001/REC-SVG-20010904/DTD/svg10.dtd">
<svg version="1.0" xmlns="http://www.w3.org/2000/svg"
 width="512.000000pt" height="512.000000pt" viewBox="0 0 512.000000 512.000000"
 preserveAspectRatio="xMidYMid meet">
<metadata>
Created by potrace 1.15, written by Peter Selinger 2001-2017
</metadata>
<g transform="translate(0.000000,512.000000) scale(0.100000,-0.100000)"
fill="#ffffff" stroke="none">
<path d="M2408 4907 c-290 -123 -436 -555 -310 -920 37 -107 76 -173 165 -278
38 -44 67 -82 65 -84 -1 -1 -52 -13 -113 -25 -131 -26 -217 -63 -280 -122
-232 -213 -354 -669 -372 -1385 l-6 -253 216 0 216 0 5 -32 c3 -18 28 -352 56
-743 28 -390 53 -738 56 -772 l6 -61 87 -16 c228 -43 524 -43 753 0 l87 16 5
42 c3 22 26 356 51 741 25 385 48 728 51 763 l6 62 204 0 204 0 0 228 c-1 853
-142 1333 -436 1479 -56 27 -102 40 -204 57 l-131 22 76 95 c124 155 178 282
194 452 29 312 -107 613 -325 718 -62 30 -80 33 -169 36 -87 3 -107 1 -157
-20z"/>
<path d="M3950 4690 l0 -210 -205 0 -205 0 0 -255 0 -255 205 0 205 0 0 -205
0 -205 255 0 255 0 0 205 0 205 210 0 210 0 0 255 0 255 -210 0 -210 0 0 210
0 210 -255 0 -255 0 0 -210z"/>
<path d="M520 4340 l0 -150 -150 0 -150 0 0 -185 0 -185 150 0 150 0 0 -155 0
-155 190 0 190 0 0 155 0 155 150 0 150 0 0 185 0 185 -150 0 -150 0 0 150 0
150 -190 0 -190 0 0 -150z"/>
<path d="M920 3020 l0 -110 -110 0 -110 0 0 -135 0 -135 110 0 110 0 0 -110 0
-110 135 0 135 0 0 110 0 110 110 0 110 0 0 135 0 135 -110 0 -110 0 0 110 0
110 -135 0 -135 0 0 -110z"/>
<path d="M4470 2390 l0 -110 -110 0 -110 0 0 -135 0 -135 110 0 110 0 0 -105
0 -105 135 0 135 0 0 105 0 105 110 0 110 0 0 135 0 135 -110 0 -110 0 0 110
0 110 -135 0 -135 0 0 -110z"/>
<path d="M1400 1435 l0 -75 -75 0 -75 0 0 -95 0 -95 75 0 75 0 0 -75 0 -75 95
0 95 0 0 75 0 75 75 0 75 0 0 95 0 95 -75 0 -75 0 0 75 0 75 -95 0 -95 0 0
-75z"/>
<path d="M3700 975 l0 -75 -75 0 -75 0 0 -95 0 -95 75 0 75 0 0 -75 0 -75 95
0 95 0 0 75 0 75 75 0 75 0 0 95 0 95 -75 0 -75 0 0 75 0 75 -95 0 -95 0 0
-75z"/>
<path d="M490 735 l0 -75 -75 0 -75 0 0 -95 0 -95 75 0 75 0 0 -75 0 -75 95 0
95 0 0 75 0 75 75 0 75 0 0 95 0 95 -75 0 -75 0 0 75 0 75 -95 0 -95 0 0 -75z"/>
</g>
</svg>
