<?xml version="1.0" standalone="no"?>
<!DOCTYPE svg PUBLIC "-//W3C//DTD SVG 20010904//EN"
 "http://www.w3.org/TR/2001/REC-SVG-20010904/DTD/svg10.dtd">
<svg version="1.0" xmlns="http://www.w3.org/2000/svg"
 width="512.000000pt" height="512.000000pt" viewBox="0 0 512.000000 512.000000"
 preserveAspectRatio="xMidYMid meet">
<metadata>
Created by potrace 1.15, written by Peter Selinger 2001-2017
</metadata>
<g transform="translate(0.000000,512.000000) scale(0.100000,-0.100000)"
fill="#ffffff" stroke="none">
<path d="M285 4718 c-3 -7 -4 -380 -3 -828 l3 -815 63 -3 62 -3 0 -884 0 -885
230 0 230 0 0 -480 0 -480 805 0 805 0 0 130 0 130 950 0 950 0 0 340 0 340
270 0 270 0 0 860 0 860 -195 0 -195 0 0 865 0 865 -650 0 -650 0 0 -150 0
-150 -520 0 -520 0 0 150 0 150 -950 0 c-751 0 -952 -3 -955 -12z m1715 -483
l0 -295 -270 0 -270 0 0 -620 0 -620 -325 0 -325 0 0 -100 0 -100 325 0 325 0
0 -400 0 -400 155 0 155 0 0 -330 0 -330 -165 0 -165 0 0 -100 0 -100 265 0
265 0 0 430 0 430 155 0 155 0 0 -580 0 -580 -605 0 -605 0 0 780 0 780 -100
0 -100 0 0 -305 0 -305 -130 0 -130 0 0 790 0 790 245 0 245 0 0 475 0 475
-100 0 -100 0 0 -380 0 -380 -210 0 -210 0 0 635 0 635 760 0 760 0 0 -295z
m2330 -470 l0 -765 -150 0 -150 0 0 505 0 506 -97 -3 -98 -3 0 -595 0 -595
448 -3 447 -2 0 -670 0 -670 -175 0 -175 0 0 340 0 340 -400 0 -400 0 0 -405
0 -405 -235 0 -235 0 0 -95 0 -95 330 0 330 0 0 405 0 405 205 0 205 0 0 -585
0 -585 -850 0 -850 0 0 455 0 455 315 0 315 0 0 590 0 590 -450 0 -450 0 0
-380 0 -380 100 0 100 0 0 280 0 280 250 0 250 0 0 -395 0 -395 -625 0 -625 0
0 925 0 925 465 0 465 0 0 -205 0 -205 -270 0 -270 0 0 -95 0 -95 660 0 660 0
0 -335 0 -335 100 0 100 0 0 430 0 430 -395 0 -395 0 0 305 0 305 -295 0 -295
0 0 145 0 145 520 0 520 0 0 -285 0 -285 100 0 100 0 0 435 0 435 450 0 450 0
0 -765z"/>
</g>
</svg>
