<?xml version="1.0" standalone="no"?>
<!DOCTYPE svg PUBLIC "-//W3C//DTD SVG 20010904//EN"
 "http://www.w3.org/TR/2001/REC-SVG-20010904/DTD/svg10.dtd">
<svg version="1.0" xmlns="http://www.w3.org/2000/svg"
 width="512.000000pt" height="512.000000pt" viewBox="0 0 512.000000 512.000000"
 preserveAspectRatio="xMidYMid meet">
<metadata>
Created by potrace 1.15, written by Peter Selinger 2001-2017
</metadata>
<g transform="translate(0.000000,512.000000) scale(0.100000,-0.100000)"
fill="#ffffff" stroke="none">
<path d="M2801 4729 c-62 -115 -111 -212 -109 -214 2 -2 66 -21 143 -42 l140
-38 145 -283 c80 -155 148 -282 151 -282 6 0 122 309 122 327 0 6 -39 144 -87
306 l-88 295 -147 71 c-81 39 -149 71 -151 71 -3 0 -56 -95 -119 -211z"/>
<path d="M2143 4508 c-5 -7 -103 -185 -218 -395 -141 -262 -205 -388 -201
-400 4 -10 100 -244 213 -521 l206 -502 -117 -175 c-64 -96 -116 -180 -116
-185 0 -6 34 -127 75 -268 42 -141 78 -266 81 -277 3 -11 -82 69 -188 178
l-193 198 -174 45 c-95 25 -177 42 -181 37 -14 -15 -142 -493 -138 -511 3 -10
133 -198 288 -418 156 -219 376 -529 488 -689 113 -159 227 -319 252 -355 l46
-65 200 -6 c109 -4 375 -9 591 -13 l392 -6 356 326 c195 180 355 330 355 334
0 8 26 11 -363 -44 l-308 -44 -77 -53 c-42 -29 -105 -72 -139 -96 l-62 -44 75
166 74 167 -103 399 -103 400 -89 48 c-206 109 -471 254 -478 260 -4 4 13 56
38 116 25 60 42 112 38 116 -5 5 -49 29 -98 55 -50 25 -94 49 -98 53 -4 4 78
13 183 20 105 8 193 12 195 9 2 -2 -9 -61 -24 -131 -15 -70 -25 -130 -21 -132
4 -3 107 -39 229 -81 l221 -76 391 201 391 200 91 -69 c51 -38 93 -65 95 -60
2 5 -20 91 -48 193 l-52 184 -195 96 -195 97 -144 -138 -144 -139 -235 119
-236 118 -102 1 c-56 1 -129 4 -162 8 l-60 6 100 69 c161 111 145 79 145 298
l0 189 -100 212 c-54 116 -97 213 -95 215 2 2 81 -66 174 -152 94 -86 174
-156 178 -156 28 -1 280 45 288 52 6 5 6 15 -1 26 -6 9 -109 188 -229 397
-120 209 -219 382 -221 384 -5 5 -707 221 -720 221 -6 0 -16 -6 -21 -12z"/>
<path d="M3920 4150 c-35 -121 -67 -224 -70 -230 -3 -5 -104 -41 -224 -78
-119 -38 -216 -73 -215 -78 1 -5 102 -38 224 -73 l222 -64 21 -66 c11 -36 44
-139 72 -229 29 -90 54 -162 56 -159 2 2 34 105 70 228 36 123 68 227 72 230
9 8 425 139 440 139 7 0 12 3 12 8 0 4 -102 36 -226 72 -124 35 -229 67 -233
70 -4 3 -38 102 -75 220 -37 118 -71 218 -75 223 -4 4 -36 -92 -71 -213z"/>
<path d="M1410 3457 c-80 -46 -227 -130 -327 -187 -101 -57 -183 -109 -183
-115 0 -13 197 -686 202 -690 15 -11 592 -155 599 -148 18 18 229 369 229 380
0 7 -45 116 -100 241 -55 125 -137 311 -182 415 -46 103 -85 187 -88 187 -3 0
-70 -38 -150 -83z"/>
<path d="M3252 3341 c-112 -27 -205 -50 -206 -52 -2 -2 -7 -92 -11 -199 l-7
-195 194 -100 194 -99 167 144 c92 80 167 150 167 156 0 5 -58 95 -129 200
-83 123 -135 190 -147 191 -11 1 -110 -20 -222 -46z"/>
<path d="M3670 1969 c-195 -106 -358 -194 -362 -198 -4 -3 42 -195 101 -426
93 -363 110 -420 127 -422 10 -1 205 23 433 55 l413 57 94 264 94 263 -31 37
c-18 20 -52 59 -78 86 -25 28 -126 138 -222 245 -97 107 -185 203 -196 212
-18 17 -33 10 -373 -173z"/>
<path d="M925 1341 c-27 -94 -51 -174 -54 -179 -3 -4 -84 -32 -178 -62 -95
-30 -173 -57 -173 -60 0 -3 80 -27 179 -54 l178 -49 48 -151 c63 -201 65 -205
74 -186 4 8 27 85 51 170 24 85 48 160 54 166 6 6 86 35 179 64 92 30 164 57
160 61 -5 3 -85 27 -179 53 l-171 48 -53 166 c-28 92 -55 171 -60 175 -4 4
-29 -69 -55 -162z"/>
<path d="M1587 860 c-9 -19 -72 -165 -141 -325 -69 -159 -124 -291 -122 -293
6 -5 344 -21 453 -22 l91 0 43 83 42 83 -164 237 c-90 130 -169 245 -176 254
-10 16 -13 14 -26 -17z"/>
</g>
</svg>
