<?xml version="1.0" standalone="no"?>
<!DOCTYPE svg PUBLIC "-//W3C//DTD SVG 20010904//EN"
 "http://www.w3.org/TR/2001/REC-SVG-20010904/DTD/svg10.dtd">
<svg version="1.0" xmlns="http://www.w3.org/2000/svg"
 width="512.000000pt" height="512.000000pt" viewBox="0 0 512.000000 512.000000"
 preserveAspectRatio="xMidYMid meet">
<metadata>
Created by potrace 1.15, written by Peter Selinger 2001-2017
</metadata>
<g transform="translate(0.000000,512.000000) scale(0.100000,-0.100000)"
fill="#ffffff" stroke="none">
<path d="M1050 4650 l0 -150 963 0 962 0 47 88 c26 48 63 115 83 150 l35 62
-1045 0 -1045 0 0 -150z"/>
<path d="M1088 4258 c5 -87 -27 -172 -199 -536 -287 -605 -398 -915 -458
-1269 -130 -763 95 -1429 677 -2010 l123 -123 1328 0 1327 0 140 143 c162 164
237 255 345 421 97 146 155 259 215 412 94 240 134 464 134 747 0 499 -121
911 -500 1702 -89 185 -153 335 -170 398 -7 26 -16 47 -20 47 -18 0 -745 -348
-744 -356 0 -5 135 -78 300 -162 164 -84 302 -157 307 -161 4 -4 -68 -169
-159 -367 -92 -197 -172 -373 -180 -390 l-13 -31 305 -94 c167 -52 303 -97
302 -100 -3 -6 -372 -339 -1013 -913 -220 -198 -418 -375 -439 -395 -21 -20
-37 -31 -34 -26 3 6 146 256 317 558 171 301 311 551 311 556 0 10 -67 15
-365 32 -110 6 -201 12 -203 14 -2 2 103 215 232 474 130 259 236 474 236 479
0 4 -163 68 -363 141 l-364 134 165 296 c90 163 182 329 204 369 l40 72 -894
0 -893 0 3 -62z"/>
</g>
</svg>
