<?xml version="1.0" standalone="no"?>
<!DOCTYPE svg PUBLIC "-//W3C//DTD SVG 20010904//EN"
 "http://www.w3.org/TR/2001/REC-SVG-20010904/DTD/svg10.dtd">
<svg version="1.0" xmlns="http://www.w3.org/2000/svg"
 width="512.000000pt" height="512.000000pt" viewBox="0 0 512.000000 512.000000"
 preserveAspectRatio="xMidYMid meet">
<metadata>
Created by potrace 1.15, written by Peter Selinger 2001-2017
</metadata>
<g transform="translate(0.000000,512.000000) scale(0.100000,-0.100000)"
fill="#ffffff" stroke="none">
<path d="M2445 4939 c-508 -33 -995 -345 -1332 -852 -206 -311 -346 -690 -409
-1111 -21 -141 -30 -533 -15 -693 38 -398 149 -769 329 -1093 l57 -103 100
-40 c55 -21 168 -59 250 -82 776 -223 1736 -203 2465 50 58 20 113 39 122 42
34 10 181 294 253 486 82 224 142 491 166 742 15 152 6 554 -15 691 -91 602
-331 1102 -705 1469 -364 358 -793 525 -1266 494z m403 -214 c290 -57 541
-192 753 -404 219 -220 349 -466 405 -766 25 -134 26 -393 1 -518 -125 -626
-619 -1095 -1244 -1178 -112 -15 -372 -6 -473 16 -289 63 -530 194 -735 400
-205 204 -339 450 -401 735 -26 120 -27 449 -1 569 99 457 375 817 785 1021
138 68 323 124 482 144 73 9 348 -3 428 -19z m-1083 -2956 c108 -20 184 -75
236 -171 31 -58 34 -70 34 -148 0 -71 -4 -94 -26 -141 -55 -116 -152 -181
-279 -187 -99 -5 -172 22 -238 86 -74 72 -97 128 -97 237 0 73 4 98 23 136 49
100 141 172 240 189 26 4 47 8 48 9 0 0 27 -4 59 -10z m1730 -28 c60 -26 132
-95 163 -156 37 -73 42 -179 11 -260 -30 -79 -106 -155 -186 -185 -79 -30
-186 -25 -258 12 -60 31 -130 103 -156 162 -77 174 21 380 210 441 58 19 156
13 216 -14z"/>
<path d="M2255 4265 l-44 -95 -48 -1 c-26 0 -70 -4 -96 -8 -54 -9 -57 -6 -127
97 -19 29 -39 52 -43 52 -13 0 -226 -154 -227 -163 0 -4 25 -42 55 -82 30 -41
55 -82 55 -90 0 -9 -11 -38 -25 -65 -14 -27 -25 -56 -25 -65 0 -37 -35 -52
-134 -60 -62 -4 -96 -11 -96 -18 1 -32 28 -268 31 -272 3 -2 36 0 74 5 39 5
89 9 113 10 41 0 44 -2 91 -66 l49 -67 -48 -107 -48 -108 129 -57 c71 -32 130
-56 132 -54 2 2 23 48 47 101 23 54 48 102 54 107 6 4 45 11 88 15 l76 7 69
-96 c37 -52 73 -93 79 -91 6 3 44 28 83 57 39 28 73 50 74 48 2 -2 14 -22 26
-43 l22 -39 -98 -98 -98 -97 -120 69 c-66 38 -123 65 -126 61 -10 -10 -129
-226 -129 -233 0 -4 50 -35 111 -70 61 -35 113 -69 116 -75 2 -6 -7 -56 -20
-110 -14 -54 -28 -111 -31 -126 l-6 -28 -140 0 -140 0 0 -140 0 -140 139 0
139 0 12 -49 11 -49 75 -11 c175 -26 418 -9 590 41 l71 20 -25 62 c-91 224 75
468 318 467 97 0 167 -30 247 -104 l31 -29 51 68 c112 153 197 358 227 546 18
114 17 370 -2 388 -9 9 -29 -19 -80 -109 -45 -79 -74 -119 -82 -116 -7 3 -67
19 -133 37 l-119 33 0 137 0 138 -140 0 -139 0 -3 -137 -3 -138 -120 -32 c-66
-18 -125 -33 -132 -33 -6 0 -39 49 -73 110 -34 60 -65 112 -69 114 -3 2 -46
-18 -94 -45 l-88 -50 -19 23 c-11 13 -19 26 -20 30 0 4 17 42 37 83 42 84 34
79 167 94 49 6 90 12 91 13 1 2 -4 57 -11 123 -7 66 -13 128 -13 138 -1 17 -8
18 -78 12 -43 -3 -90 -8 -104 -11 -24 -5 -33 3 -83 76 -31 45 -56 86 -56 90 0
5 16 46 36 90 19 45 34 86 32 91 -3 9 -96 54 -216 104 l-33 14 -44 -94z m-12
-358 c84 -36 137 -114 137 -202 0 -123 -95 -215 -220 -215 -190 0 -283 240
-143 372 57 55 155 74 226 45z"/>
<path d="M1280 811 c0 -25 373 -361 386 -348 6 5 -64 259 -73 267 -4 4 -51 18
-103 30 -52 13 -121 31 -152 41 -32 9 -58 14 -58 10z"/>
<path d="M3685 766 c-66 -18 -125 -34 -131 -37 -9 -4 -77 -239 -71 -246 5 -5
137 104 200 165 112 108 151 152 137 151 -8 -1 -69 -16 -135 -33z"/>
<path d="M1840 518 c26 -96 50 -180 54 -186 14 -24 337 -134 351 -120 3 3 -6
101 -20 217 -14 117 -25 214 -25 216 0 3 -19 5 -42 5 -24 0 -92 7 -153 15 -60
8 -133 18 -161 21 l-52 7 48 -175z"/>
<path d="M3172 669 c-74 -9 -135 -19 -137 -21 -7 -7 -47 -399 -42 -405 9 -8
244 81 264 100 1 2 21 72 43 157 23 85 44 163 46 173 6 21 7 21 -174 -4z"/>
<path d="M2577 633 l-198 -3 5 -28 c3 -15 15 -115 27 -223 l22 -197 64 -5 c59
-4 291 8 300 16 4 4 53 399 53 430 0 13 -8 17 -37 15 -21 -2 -127 -4 -236 -5z"/>
</g>
</svg>
