<?xml version="1.0" standalone="no"?>
<!DOCTYPE svg PUBLIC "-//W3C//DTD SVG 20010904//EN"
 "http://www.w3.org/TR/2001/REC-SVG-20010904/DTD/svg10.dtd">
<svg version="1.0" xmlns="http://www.w3.org/2000/svg"
 width="512.000000pt" height="512.000000pt" viewBox="0 0 512.000000 512.000000"
 preserveAspectRatio="xMidYMid meet">
<metadata>
Created by potrace 1.15, written by Peter Selinger 2001-2017
</metadata>
<g transform="translate(0.000000,512.000000) scale(0.100000,-0.100000)"
fill="#ffffff" stroke="none">
<path d="M3065 4284 c-163 -34 -261 -71 -413 -158 -152 -87 -252 -159 -596
-430 -379 -300 -581 -432 -811 -531 -211 -91 -467 -125 -670 -90 -169 30 -167
30 -90 -12 180 -98 379 -171 540 -200 125 -22 319 -21 423 1 286 61 476 173
918 540 125 104 277 225 338 268 195 137 380 218 566 248 201 31 444 -21 703
-151 66 -33 122 -58 124 -55 7 7 -168 205 -242 274 -155 145 -346 256 -493
287 -67 14 -246 19 -297 9z"/>
<path d="M3380 3604 c-201 -39 -411 -152 -666 -356 -50 -40 -180 -145 -290
-233 -541 -435 -877 -587 -1297 -587 -256 0 -523 73 -795 219 -57 30 -106 53
-108 50 -7 -7 228 -299 354 -440 247 -275 482 -470 697 -577 148 -74 245 -101
392 -107 303 -14 550 121 1013 553 177 165 329 285 473 372 329 199 652 200
1010 6 196 -108 359 -236 610 -483 103 -101 187 -181 187 -176 0 4 -67 143
-149 309 -286 580 -512 932 -745 1161 -200 197 -369 284 -566 290 -52 2 -106
1 -120 -1z"/>
<path d="M3630 2304 c-97 -21 -154 -41 -251 -90 -151 -75 -276 -165 -588 -422
-473 -390 -691 -517 -976 -568 -234 -41 -493 18 -728 168 -26 17 -50 29 -52
26 -8 -7 97 -129 202 -234 181 -183 369 -307 548 -364 99 -32 275 -39 382 -15
230 51 410 164 818 515 315 270 470 383 640 465 300 145 601 143 903 -6 57
-28 105 -50 106 -48 7 7 -126 165 -214 256 -262 268 -526 374 -790 317z"/>
</g>
</svg>
