<?xml version="1.0" standalone="no"?>
<!DOCTYPE svg PUBLIC "-//W3C//DTD SVG 20010904//EN"
 "http://www.w3.org/TR/2001/REC-SVG-20010904/DTD/svg10.dtd">
<svg version="1.0" xmlns="http://www.w3.org/2000/svg"
 width="512.000000pt" height="512.000000pt" viewBox="0 0 512.000000 512.000000"
 preserveAspectRatio="xMidYMid meet">
<metadata>
Created by potrace 1.15, written by Peter Selinger 2001-2017
</metadata>
<g transform="translate(0.000000,512.000000) scale(0.100000,-0.100000)"
fill="#ffffff" stroke="none">
<path d="M1107 4905 c-252 -87 -426 -348 -453 -680 -12 -154 29 -380 95 -517
27 -57 27 -57 6 -62 -39 -10 -169 -102 -217 -154 -91 -97 -158 -214 -212 -370
-88 -253 -136 -640 -136 -1104 l0 -178 209 0 209 0 6 -47 c3 -27 26 -383 51
-793 26 -410 48 -755 51 -767 l4 -23 585 0 c322 0 585 3 586 8 0 4 24 369 52
812 l52 805 213 3 212 2 0 103 c-1 187 -19 554 -35 693 -61 522 -228 857 -494
991 l-57 28 28 60 c70 153 102 350 87 531 -24 285 -168 524 -379 630 -84 42
-144 54 -275 53 -100 0 -132 -4 -188 -24z m355 -197 c268 -125 374 -530 231
-878 -33 -81 -82 -159 -144 -231 -27 -31 -49 -59 -49 -62 0 -4 17 -9 38 -13
128 -22 194 -39 251 -67 113 -54 215 -175 281 -334 l32 -76 -61 -471 c-34
-259 -64 -486 -66 -503 l-6 -33 -69 0 c-39 0 -70 3 -70 8 0 24 -120 946 -124
949 -6 7 -11 -27 -106 -817 -50 -410 -92 -749 -93 -753 -1 -4 -47 340 -101
765 -55 425 -102 782 -106 793 -10 27 -8 39 -100 -740 -45 -379 -85 -698 -88
-708 -4 -10 -50 305 -101 699 -89 678 -107 800 -111 764 0 -8 -27 -226 -59
-485 l-57 -470 -81 -3 -80 -3 -16 118 c-8 65 -37 287 -63 493 l-47 376 38 89
c104 245 231 354 462 396 59 10 108 21 110 23 2 1 -28 42 -67 89 -78 95 -137
209 -166 322 -25 97 -26 315 -1 405 42 156 138 290 250 346 78 40 94 43 192
41 74 -2 100 -7 147 -29z"/>
<path d="M3581 4904 c-165 -56 -289 -178 -376 -367 -57 -127 -70 -200 -69
-397 1 -195 14 -264 77 -410 l33 -76 -45 -22 c-166 -81 -312 -263 -394 -490
-91 -253 -128 -532 -143 -1060 l-6 -242 214 0 214 0 47 -752 c27 -414 51 -781
54 -816 l6 -62 586 2 586 3 62 805 c34 443 62 808 62 813 1 4 91 7 201 7 l200
0 0 183 c-1 801 -124 1273 -395 1515 -32 28 -85 65 -119 83 -33 17 -62 33 -63
34 -2 1 12 37 30 81 205 488 24 1041 -382 1173 -98 32 -279 30 -380 -5z m1049
-2079 c36 -188 60 -447 60 -667 l0 -118 -115 0 c-103 0 -115 2 -115 18 0 19
106 855 117 917 l6 40 14 -45 c7 -25 22 -90 33 -145z m-1610 -321 c33 -247 60
-452 60 -456 0 -5 -50 -8 -111 -8 l-111 0 6 168 c12 293 32 485 73 675 9 42
18 76 20 73 2 -2 31 -205 63 -452z m419 6 c29 -223 71 -551 93 -730 23 -179
43 -327 45 -329 2 -2 5 -2 7 0 2 2 43 333 91 734 49 402 91 733 94 737 4 4 51
-342 105 -770 54 -427 100 -779 102 -781 7 -8 14 42 104 784 51 418 96 763 99
767 4 4 33 -207 65 -470 l59 -477 -57 -745 c-31 -410 -59 -764 -62 -788 l-5
-42 -402 0 -402 0 -53 827 -53 827 53 438 c29 240 56 434 59 430 3 -4 30 -189
58 -412z"/>
</g>
</svg>
