<?xml version="1.0" standalone="no"?>
<!DOCTYPE svg PUBLIC "-//W3C//DTD SVG 20010904//EN"
 "http://www.w3.org/TR/2001/REC-SVG-20010904/DTD/svg10.dtd">
<svg version="1.0" xmlns="http://www.w3.org/2000/svg"
 width="512.000000pt" height="512.000000pt" viewBox="0 0 512.000000 512.000000"
 preserveAspectRatio="xMidYMid meet">
<metadata>
Created by potrace 1.15, written by Peter Selinger 2001-2017
</metadata>
<g transform="translate(0.000000,512.000000) scale(0.100000,-0.100000)"
fill="#ffffff" stroke="none">
<path d="M4029 4736 c-9 -9 -461 -86 -564 -97 -124 -12 -192 -8 -455 26 -102
13 -225 29 -273 35 l-88 11 -124 -124 c-196 -197 -353 -305 -566 -388 -110
-43 -113 -45 -132 -89 -201 -462 -370 -684 -647 -852 -41 -25 -96 -54 -122
-66 -33 -14 -49 -28 -52 -44 -3 -13 -15 -84 -26 -158 -75 -466 -251 -902 -483
-1200 -28 -36 -93 -108 -144 -160 l-92 -95 54 -110 c97 -196 133 -364 142
-662 l6 -192 136 6 c211 9 343 -14 603 -103 73 -25 168 -57 211 -71 l77 -26
128 124 c330 321 698 558 1154 743 189 77 347 127 649 206 32 9 40 18 77 92
205 412 546 661 1052 768 187 40 264 60 287 75 l23 16 -24 47 c-34 67 -73 193
-91 292 -10 55 -19 200 -25 410 -13 436 -30 568 -94 715 -29 66 -165 275 -179
275 -5 0 -50 -21 -100 -46 -368 -186 -506 -407 -533 -852 l-7 -107 169 0 c159
0 257 -11 293 -34 12 -8 11 -20 -7 -82 -12 -40 -24 -74 -26 -76 -2 -2 -43 3
-91 12 -109 19 -205 19 -315 1 -193 -31 -386 -123 -508 -239 l-42 -41 -61 59
-60 60 53 49 c101 92 296 208 390 231 25 6 27 11 32 83 14 169 36 341 55 414
28 108 85 237 141 316 90 128 271 275 438 357 34 17 62 34 62 38 0 5 -20 34
-43 65 -109 142 -189 283 -203 359 -5 26 -11 33 -28 33 -13 0 -25 -2 -27 -4z
m-766 -521 c37 -10 67 -24 67 -30 0 -42 -79 -244 -156 -398 -157 -314 -392
-575 -697 -771 -48 -31 -107 -66 -131 -78 l-44 -21 5 -216 c3 -158 1 -245 -10
-326 -9 -60 -14 -111 -13 -113 2 -1 20 4 42 12 21 7 83 21 138 31 244 44 503
-8 826 -166 80 -39 147 -72 149 -75 3 -2 -13 -37 -35 -78 l-39 -74 -88 45
c-429 215 -731 248 -1006 108 -45 -22 -52 -32 -94 -117 -67 -138 -119 -212
-215 -308 -101 -100 -192 -162 -350 -237 -104 -50 -116 -59 -172 -126 -109
-132 -176 -295 -187 -460 l-6 -87 -85 0 -85 0 6 97 c9 135 43 256 107 382 17
35 30 65 28 66 -2 2 -48 -3 -103 -11 -55 -7 -171 -17 -257 -20 l-158 -7 0 86
0 87 93 0 c126 0 337 25 476 56 468 104 748 371 841 800 18 79 23 144 26 319
3 126 1 226 -4 234 -8 11 -17 10 -54 -7 -50 -22 -217 -75 -319 -102 l-66 -17
-17 71 c-9 39 -16 76 -16 82 0 6 28 19 63 28 262 72 466 157 665 280 344 213
603 550 748 974 22 61 44 110 49 109 6 -2 40 -12 78 -22z"/>
</g>
</svg>
