<?xml version="1.0" standalone="no"?>
<!DOCTYPE svg PUBLIC "-//W3C//DTD SVG 20010904//EN"
 "http://www.w3.org/TR/2001/REC-SVG-20010904/DTD/svg10.dtd">
<svg version="1.0" xmlns="http://www.w3.org/2000/svg"
 width="512.000000pt" height="512.000000pt" viewBox="0 0 512.000000 512.000000"
 preserveAspectRatio="xMidYMid meet">
<metadata>
Created by potrace 1.15, written by Peter Selinger 2001-2017
</metadata>
<g transform="translate(0.000000,512.000000) scale(0.100000,-0.100000)"
fill="#ffffff" stroke="none">
<path d="M1831 4896 c3 -3 43 -13 90 -22 264 -49 461 -115 704 -234 297 -145
524 -309 771 -555 88 -88 191 -198 228 -245 368 -464 568 -1005 512 -1386 -15
-99 -21 -124 -29 -113 -2 2 -18 38 -36 79 -60 139 -186 351 -290 490 -388 517
-931 917 -1566 1153 -225 84 -565 164 -810 191 -178 20 -301 29 -294 22 3 -3
46 -13 95 -21 331 -57 703 -204 994 -393 546 -355 990 -914 1161 -1461 43
-139 60 -244 66 -407 l6 -161 -24 -6 c-31 -9 -203 -9 -261 -1 -44 6 -45 7 -96
99 -307 551 -813 1021 -1419 1320 -340 168 -683 274 -1082 335 -109 17 -419
38 -351 24 14 -3 81 -17 149 -30 269 -55 514 -148 786 -299 211 -117 461 -311
651 -507 429 -441 690 -970 711 -1440 6 -121 5 -128 -13 -128 -56 0 -293 34
-389 55 -60 14 -117 25 -125 25 -22 -1 236 -110 378 -160 139 -49 132 -36 91
-145 -70 -188 -267 -349 -493 -404 -122 -30 -313 -43 -461 -30 -100 8 -366 54
-440 75 -14 4 -17 3 -10 -4 13 -13 268 -119 415 -172 170 -61 414 -125 595
-156 296 -50 590 -35 781 42 214 85 357 233 428 441 13 38 27 88 30 110 l7 40
117 6 c414 20 690 206 788 534 l28 92 63 11 c96 16 190 48 278 93 97 50 222
170 278 267 168 290 132 729 -97 1195 -216 437 -543 812 -996 1136 -385 276
-856 478 -1349 579 -166 33 -587 82 -570 66z m1451 -3229 c43 -13 80 -26 84
-29 8 -9 -50 -117 -86 -159 -21 -25 -30 -30 -33 -19 -2 8 -23 66 -45 128 -38
108 -39 113 -18 108 11 -4 56 -17 98 -29z"/>
</g>
</svg>
