<?xml version="1.0" standalone="no"?>
<!DOCTYPE svg PUBLIC "-//W3C//DTD SVG 20010904//EN"
 "http://www.w3.org/TR/2001/REC-SVG-20010904/DTD/svg10.dtd">
<svg version="1.0" xmlns="http://www.w3.org/2000/svg"
 width="512.000000pt" height="512.000000pt" viewBox="0 0 512.000000 512.000000"
 preserveAspectRatio="xMidYMid meet">
<metadata>
Created by potrace 1.15, written by Peter Selinger 2001-2017
</metadata>
<g transform="translate(0.000000,512.000000) scale(0.100000,-0.100000)"
fill="#ffffff" stroke="none">
<path d="M2080 4901 c-63 -10 -152 -28 -197 -39 -80 -21 -271 -86 -280 -96 -3
-3 82 -188 188 -413 105 -224 218 -463 250 -531 l58 -122 128 63 c70 35 143
70 161 77 17 7 32 15 32 19 0 3 11 74 25 156 13 83 49 305 79 495 31 190 58
360 61 378 l6 32 -198 -1 c-134 -1 -235 -6 -313 -18z"/>
<path d="M2687 4408 c-42 -264 -76 -483 -73 -485 2 -2 52 7 112 21 132 30 259
52 380 65 l91 10 289 177 c159 97 313 192 342 209 l53 33 -28 20 c-108 76
-375 211 -566 286 -155 61 -452 146 -512 146 -6 0 -45 -217 -88 -482z"/>
<path d="M1333 4621 c-235 -152 -438 -352 -594 -584 l-59 -88 113 -96 c61 -54
193 -167 291 -253 99 -85 234 -202 300 -259 67 -57 130 -112 142 -123 21 -19
21 -19 77 51 82 100 240 252 330 316 17 12 5 41 -176 426 -303 643 -315 669
-324 669 -5 0 -50 -27 -100 -59z"/>
<path d="M3015 3819 c-629 -89 -1089 -354 -1377 -793 -213 -326 -335 -715
-377 -1211 -16 -175 -13 -583 4 -785 23 -263 89 -714 121 -822 5 -17 69 -18
1170 -18 640 0 1164 3 1164 6 0 22 -69 224 -105 309 -86 199 -186 355 -348
539 -276 315 -319 385 -341 547 -10 72 14 201 59 311 5 13 -2 19 -32 27 -67
19 -186 24 -273 12 -47 -7 -94 -13 -105 -14 -16 -2 -22 9 -36 68 -26 106 -28
101 49 113 283 47 504 1 678 -140 149 -120 270 -324 329 -553 10 -38 22 -74
26 -79 27 -31 884 -120 901 -93 3 6 9 31 13 56 26 185 124 478 244 735 28 60
48 112 46 117 -3 4 -45 38 -93 74 -475 359 -1056 939 -1505 1502 -92 114 -83
110 -212 92z m-149 -472 c97 -25 170 -114 181 -221 5 -44 1 -64 -20 -110 -45
-97 -121 -149 -222 -150 -226 -2 -330 277 -162 433 27 24 116 60 152 61 11 0
43 -6 71 -13z"/>
<path d="M566 3743 c-47 -95 -114 -260 -155 -387 -39 -120 -106 -376 -99 -381
2 -1 44 -16 93 -33 50 -16 256 -89 458 -161 202 -72 373 -131 380 -131 7 0 23
28 36 63 13 34 55 123 93 198 37 74 68 139 67 145 0 5 -128 119 -285 254 -157
135 -344 296 -416 358 -71 61 -134 114 -139 117 -4 3 -19 -16 -33 -42z"/>
<path d="M276 2767 c-16 -88 -36 -368 -36 -507 l0 -156 123 -23 c67 -13 257
-50 422 -82 164 -32 302 -55 305 -51 4 4 14 61 23 127 9 66 32 184 50 261 l33
141 -321 113 c-176 62 -381 134 -456 161 l-137 48 -6 -32z"/>
<path d="M244 1898 c3 -13 7 -63 11 -113 6 -94 17 -197 36 -328 10 -66 15 -78
33 -82 11 -2 184 -6 383 -8 l362 -4 3 196 c2 108 2 198 1 200 -1 2 -67 16
-145 32 -433 84 -666 129 -676 129 -8 0 -11 -9 -8 -22z"/>
<path d="M340 1178 c0 -39 102 -484 113 -494 4 -4 650 66 655 71 3 3 0 53 -6
112 -7 60 -15 155 -18 211 -4 61 -12 105 -18 107 -6 2 -172 5 -368 8 -345 3
-358 3 -358 -15z"/>
<path d="M783 540 c-145 -16 -267 -30 -272 -32 -5 -1 14 -74 42 -160 l51 -158
298 0 c293 0 298 0 298 20 0 11 -11 82 -25 158 -14 75 -27 152 -30 170 -6 31
-7 32 -53 31 -26 -1 -165 -14 -309 -29z"/>
</g>
</svg>
