<?xml version="1.0" standalone="no"?>
<!DOCTYPE svg PUBLIC "-//W3C//DTD SVG 20010904//EN"
 "http://www.w3.org/TR/2001/REC-SVG-20010904/DTD/svg10.dtd">
<svg version="1.0" xmlns="http://www.w3.org/2000/svg"
 width="512.000000pt" height="512.000000pt" viewBox="0 0 512.000000 512.000000"
 preserveAspectRatio="xMidYMid meet">
<metadata>
Created by potrace 1.15, written by Peter Selinger 2001-2017
</metadata>
<g transform="translate(0.000000,512.000000) scale(0.100000,-0.100000)"
fill="#ffffff" stroke="none">
<path d="M2255 4945 c-331 -44 -648 -153 -931 -322 -561 -335 -973 -903 -1113
-1538 -50 -229 -67 -550 -41 -790 114 -1042 906 -1902 1929 -2095 163 -31 270
-40 461 -40 279 0 505 36 760 120 758 249 1361 888 1561 1654 66 253 84 416
76 689 -8 306 -60 567 -162 823 -331 823 -1066 1390 -1945 1500 -140 17 -457
17 -595 -1z m215 -564 l0 -428 -65 -7 c-214 -22 -515 -144 -703 -286 -94 -71
-233 -213 -291 -298 -120 -178 -195 -398 -210 -617 l-6 -90 -409 -3 -409 -2 6
109 c46 803 470 1434 1202 1791 284 139 544 218 830 253 17 2 36 5 43 6 9 1
12 -91 12 -428z m370 304 c319 -245 543 -904 601 -1765 12 -189 7 -730 -7
-767 -9 -21 -17 -17 -179 85 l-170 107 -6 280 c-5 212 -12 316 -29 430 -62
421 -187 713 -355 834 l-45 32 0 441 0 440 67 -37 c37 -20 92 -56 123 -80z
m-1514 -2257 c179 -109 470 -189 803 -223 176 -17 500 -20 684 -5 l125 10 181
-112 182 -113 -46 -7 c-259 -38 -1083 -47 -1360 -15 -330 39 -533 78 -780 149
-304 88 -577 224 -679 337 l-19 21 420 0 421 0 68 -42z"/>
</g>
</svg>
