<?xml version="1.0" standalone="no"?>
<!DOCTYPE svg PUBLIC "-//W3C//DTD SVG 20010904//EN"
 "http://www.w3.org/TR/2001/REC-SVG-20010904/DTD/svg10.dtd">
<svg version="1.0" xmlns="http://www.w3.org/2000/svg"
 width="512.000000pt" height="512.000000pt" viewBox="0 0 512.000000 512.000000"
 preserveAspectRatio="xMidYMid meet">
<metadata>
Created by potrace 1.15, written by Peter Selinger 2001-2017
</metadata>
<g transform="translate(0.000000,512.000000) scale(0.100000,-0.100000)"
fill="#ffffff" stroke="none">
<path d="M2545 4837 c-407 -325 -752 -845 -875 -1320 -44 -168 -60 -276 -67
-444 -6 -158 -2 -178 31 -129 8 13 53 57 98 97 46 40 86 79 90 88 3 9 18 70
33 136 102 449 317 918 668 1453 66 100 118 184 116 187 -2 2 -45 -29 -94 -68z"/>
<path d="M679 4728 c205 -308 412 -692 524 -973 43 -107 53 -124 93 -155 25
-19 74 -66 109 -103 35 -37 65 -64 68 -60 2 4 12 41 22 81 l17 73 -28 77
c-136 377 -381 763 -647 1019 -95 91 -237 203 -258 203 -5 0 41 -73 100 -162z"/>
<path d="M4515 4688 c-237 -240 -409 -532 -524 -893 -44 -137 -93 -361 -111
-508 l-11 -87 42 -55 c23 -30 43 -55 45 -55 2 0 20 32 40 72 20 39 57 105 83
147 41 67 51 92 76 211 58 274 168 623 279 880 21 47 73 154 116 238 44 83 76
152 73 152 -4 0 -52 -46 -108 -102z"/>
<path d="M3586 4720 c-112 -38 -249 -107 -345 -173 -90 -62 -242 -205 -321
-302 -173 -211 -313 -505 -369 -772 l-19 -88 51 -47 c28 -26 51 -47 52 -45 0
1 16 43 34 92 94 255 233 509 400 733 113 151 377 420 531 542 58 45 107 84
109 86 14 12 -46 -1 -123 -26z"/>
<path d="M170 3835 c0 -3 69 -39 153 -81 380 -190 613 -349 822 -558 128 -129
190 -208 256 -331 23 -42 43 -75 44 -73 2 2 -1 26 -5 53 -5 28 -9 118 -9 200
l-1 151 -65 81 c-243 304 -638 507 -1077 553 -108 11 -118 12 -118 5z"/>
<path d="M4750 3545 c-172 -34 -325 -119 -461 -254 -83 -83 -103 -110 -146
-198 -28 -55 -57 -126 -64 -157 l-12 -57 44 -45 c43 -44 146 -114 168 -114 6
0 11 18 11 43 0 66 35 190 75 265 68 130 181 242 405 405 69 49 136 99 149
109 l24 18 -64 -1 c-35 0 -93 -7 -129 -14z"/>
<path d="M3190 3534 c0 -4 67 -75 148 -158 81 -83 166 -173 189 -201 109 -134
221 -329 260 -452 9 -29 19 -52 22 -51 98 47 130 65 130 76 1 7 -20 50 -45 95
-172 303 -409 553 -631 666 -63 32 -73 36 -73 25z"/>
<path d="M2360 3225 c-199 -41 -367 -141 -537 -318 -250 -263 -415 -617 -439
-945 l-6 -77 86 158 c105 195 139 252 237 397 227 336 474 567 732 684 54 25
76 40 71 49 -42 72 -43 73 -144 52z"/>
<path d="M2733 3070 l-43 -37 61 -53 c134 -117 283 -321 374 -513 49 -104 125
-317 125 -352 0 -28 15 -14 62 61 l48 74 -31 93 c-89 268 -276 554 -457 697
-94 74 -91 73 -139 30z"/>
<path d="M2434 2945 l-51 -23 -8 -135 -7 -136 129 -128 c71 -70 147 -156 169
-190 21 -35 42 -63 45 -63 3 0 12 113 19 252 l13 252 -44 39 c-42 38 -135 106
-189 140 -23 14 -29 13 -76 -8z"/>
<path d="M1203 2700 c-168 -60 -330 -166 -478 -314 -163 -163 -286 -360 -365
-581 -48 -136 -91 -327 -67 -294 2 2 45 65 97 139 338 489 582 736 868 879 45
23 82 43 82 46 0 2 -12 36 -26 74 -29 79 -31 80 -111 51z"/>
<path d="M1970 2559 c-45 -59 -52 -74 -40 -81 324 -190 460 -338 695 -758 47
-85 91 -159 97 -165 13 -13 3 122 -17 215 -77 367 -285 665 -565 809 -117 60
-108 61 -170 -20z"/>
<path d="M4016 2584 c-259 -111 -497 -354 -669 -684 -30 -58 -76 -158 -102
-223 -46 -119 -119 -356 -111 -364 2 -2 88 113 190 256 387 539 500 662 852
917 l29 22 -21 28 c-50 69 -92 80 -168 48z"/>
<path d="M4227 2315 c-37 -25 -67 -48 -67 -50 0 -3 34 -73 75 -155 125 -249
224 -491 390 -950 43 -118 82 -219 88 -225 11 -12 3 120 -19 303 -27 228 -93
494 -173 698 -63 160 -199 424 -219 424 -4 0 -38 -20 -75 -45z"/>
<path d="M1729 2169 c-9 -13 -38 -67 -64 -119 -58 -116 -153 -291 -211 -386
l-43 -70 9 -125 c5 -68 10 -133 10 -143 0 -18 6 -19 88 -13 48 4 128 17 177
29 l90 23 2 50 c2 28 -7 214 -20 415 -21 344 -23 363 -38 339z"/>
<path d="M3924 2058 c-49 -51 -118 -128 -153 -172 -74 -90 -74 -88 28 -127 58
-21 210 -45 233 -36 9 3 26 58 43 136 l29 132 -39 79 c-22 44 -42 80 -46 80
-3 0 -46 -42 -95 -92z"/>
<path d="M2326 1863 c-2 -10 -7 -90 -11 -178 -3 -88 -8 -178 -11 -200 l-5 -40
58 -22 c32 -12 75 -25 96 -29 44 -7 147 4 147 16 0 5 -24 50 -53 102 -29 51
-88 155 -131 231 -42 75 -79 137 -81 137 -2 0 -6 -8 -9 -17z"/>
<path d="M3645 1627 c-8 -21 -125 -537 -125 -550 0 -28 326 -124 347 -103 6 6
132 540 133 562 0 7 -27 15 -67 19 -85 9 -164 30 -231 60 -38 17 -54 21 -57
12z"/>
<path d="M2285 1123 c-5 -76 -8 -185 -9 -243 l-1 -104 65 -19 c36 -10 115 -21
176 -24 l112 -6 6 59 c3 33 8 115 11 184 3 69 8 156 11 193 l6 68 -98 -6 c-92
-6 -195 6 -255 30 -15 6 -18 -9 -24 -132z"/>
<path d="M1705 1169 c-38 -11 -114 -22 -167 -26 -54 -3 -98 -7 -98 -8 0 -36
42 -640 44 -643 8 -8 273 17 316 30 39 12 45 17 43 38 -1 14 -10 161 -19 328
-15 262 -20 302 -33 301 -9 0 -47 -9 -86 -20z"/>
<path d="M3475 887 c-3 -6 -30 -122 -60 -257 -31 -135 -58 -253 -61 -262 -4
-14 10 -22 78 -42 82 -25 270 -68 275 -63 6 7 124 530 120 534 -2 2 -32 8 -65
13 -68 11 -171 42 -238 70 -33 15 -46 16 -49 7z"/>
<path d="M2257 583 c-3 -10 -8 -92 -12 -183 -3 -91 -8 -177 -11 -192 l-6 -28
185 0 185 0 5 53 c4 28 9 114 13 190 l6 137 -83 0 c-74 1 -194 17 -256 35 -15
5 -22 2 -26 -12z"/>
<path d="M1795 344 c-27 -8 -107 -17 -177 -21 -144 -7 -135 1 -122 -97 l7 -46
185 0 185 0 -7 31 c-3 17 -6 58 -6 90 0 33 -3 59 -7 58 -5 0 -30 -7 -58 -15z"/>
</g>
</svg>
