<?xml version="1.0" standalone="no"?>
<!DOCTYPE svg PUBLIC "-//W3C//DTD SVG 20010904//EN"
 "http://www.w3.org/TR/2001/REC-SVG-20010904/DTD/svg10.dtd">
<svg version="1.0" xmlns="http://www.w3.org/2000/svg"
 width="512.000000pt" height="512.000000pt" viewBox="0 0 512.000000 512.000000"
 preserveAspectRatio="xMidYMid meet">
<metadata>
Created by potrace 1.15, written by Peter Selinger 2001-2017
</metadata>
<g transform="translate(0.000000,512.000000) scale(0.100000,-0.100000)"
fill="#ffffff" stroke="none">
<path d="M2508 4938 c-33 -167 -284 -1318 -288 -1318 -3 1 -129 167 -280 370
-151 203 -278 369 -282 370 -4 0 -5 -15 -2 -32 4 -30 74 -841 74 -860 0 -4
-108 46 -241 113 -133 66 -243 118 -245 116 -2 -2 45 -112 105 -245 60 -133
108 -242 106 -242 -1 0 -148 29 -325 65 -178 36 -327 64 -332 63 -4 -2 118
-158 272 -347 155 -189 280 -345 278 -347 -2 -2 -121 19 -263 46 -228 43 -281
50 -264 37 2 -2 80 -61 172 -130 l168 -125 75 -7 c41 -4 145 -5 232 -3 194 6
426 -6 539 -27 223 -42 402 -144 519 -296 25 -32 48 -59 52 -59 4 0 26 27 49
59 80 113 217 207 380 260 156 51 277 63 630 62 l311 -1 174 132 c95 72 175
133 177 135 18 14 -31 7 -204 -27 -110 -21 -200 -38 -201 -37 -1 1 89 180 201
397 118 229 199 396 192 398 -7 1 -138 -40 -292 -92 -154 -52 -281 -93 -283
-91 -2 2 38 170 88 374 51 204 90 375 88 381 -2 6 -129 -122 -283 -284 -154
-162 -280 -294 -281 -293 -1 1 11 225 27 497 32 557 33 588 20 574 -7 -7 -168
-344 -408 -854 -36 -76 -47 -91 -52 -75 -4 11 -93 323 -197 692 -104 370 -192
673 -195 673 -4 0 -9 -10 -11 -22z"/>
<path d="M855 2262 c-246 -170 -350 -244 -353 -251 -1 -3 64 -30 145 -58 82
-28 546 -191 1033 -362 487 -171 890 -311 896 -311 10 0 554 190 1404 491 124
44 323 114 444 157 120 42 218 82 218 87 0 6 -91 74 -201 152 l-200 142 -58
-11 c-34 -6 -233 -11 -483 -12 -395 -2 -432 -4 -528 -25 -129 -27 -194 -51
-268 -100 -104 -67 -163 -142 -250 -316 l-77 -156 -36 63 c-21 35 -47 89 -60
121 -35 87 -90 165 -162 231 -158 147 -386 195 -844 181 -198 -6 -498 5 -536
20 -8 3 -46 -16 -84 -43z"/>
<path d="M243 1800 c-23 -65 -29 -92 -20 -95 7 -3 435 -153 952 -334 l940
-329 3 -91 3 -91 462 2 462 3 3 98 c2 59 7 97 13 97 6 0 250 84 542 186 293
102 709 247 924 322 275 96 393 141 393 152 0 29 -55 170 -67 170 -7 0 -126
-40 -265 -89 -139 -49 -597 -209 -1018 -356 -421 -148 -767 -269 -769 -271 -2
-2 4 -24 13 -50 9 -26 16 -51 16 -56 0 -4 -117 -8 -260 -8 -143 0 -260 4 -260
8 0 5 7 30 16 56 9 26 15 48 13 50 -2 2 -348 123 -769 271 -421 147 -879 307
-1018 356 -140 49 -259 89 -266 89 -6 0 -26 -41 -43 -90z"/>
</g>
</svg>
