<?xml version="1.0" standalone="no"?>
<!DOCTYPE svg PUBLIC "-//W3C//DTD SVG 20010904//EN"
 "http://www.w3.org/TR/2001/REC-SVG-20010904/DTD/svg10.dtd">
<svg version="1.0" xmlns="http://www.w3.org/2000/svg"
 width="512.000000pt" height="512.000000pt" viewBox="0 0 512.000000 512.000000"
 preserveAspectRatio="xMidYMid meet">
<metadata>
Created by potrace 1.15, written by Peter Selinger 2001-2017
</metadata>
<g transform="translate(0.000000,512.000000) scale(0.100000,-0.100000)"
fill="#ffffff" stroke="none">
<path d="M1190 4866 c635 -319 1105 -800 1330 -1359 27 -67 53 -122 56 -122 4
0 18 32 31 70 35 104 152 335 234 460 259 398 671 750 1134 971 l110 53 -195
0 c-212 1 -226 -2 -395 -69 -369 -146 -650 -399 -807 -725 l-38 -80 6 80 c25
343 154 622 353 764 l44 31 -514 -1 c-486 0 -513 -1 -489 -17 45 -30 132 -116
170 -168 52 -69 102 -173 134 -274 31 -96 66 -289 66 -358 l0 -47 -48 95
c-177 349 -444 572 -871 729 l-111 41 -172 0 -173 -1 145 -73z"/>
<path d="M4902 4735 c-79 -1005 -287 -1967 -562 -2600 -287 -659 -642 -1047
-1080 -1179 -115 -34 -195 -46 -325 -46 l-110 -1 61 -57 c152 -145 404 -329
612 -447 113 -63 285 -138 427 -186 l100 -34 450 0 450 0 3 159 c1 88 -2 164
-7 169 -5 5 -26 0 -51 -13 -24 -12 -86 -33 -138 -46 -216 -55 -478 -16 -922
135 l-175 59 115 1 c148 1 347 25 479 56 256 62 472 196 647 402 l54 64 0 224
c0 123 -4 226 -8 229 -5 3 -33 -29 -63 -71 -72 -101 -226 -246 -349 -327 -190
-127 -475 -246 -743 -311 -55 -14 -102 -24 -103 -22 -2 1 41 29 94 62 317 198
582 462 778 777 152 243 293 580 373 892 21 78 21 102 21 1173 0 601 -4 1093
-8 1093 -5 0 -14 -70 -20 -155z"/>
<path d="M180 3483 l0 -922 54 -164 c216 -652 567 -1123 1072 -1438 116 -72
114 -70 79 -63 -16 3 -86 21 -155 41 -393 109 -672 256 -882 466 -57 56 -114
119 -128 140 -14 20 -28 37 -32 37 -5 0 -8 -103 -8 -228 l0 -229 108 -105
c150 -146 280 -227 462 -286 145 -48 379 -81 580 -83 l115 -1 -130 -43 c-200
-67 -389 -122 -505 -147 -84 -18 -138 -22 -270 -22 -160 -1 -168 0 -258 32
-51 17 -95 32 -98 32 -2 0 -4 -72 -4 -160 l0 -160 413 0 c409 0 414 0 497 25
339 98 725 324 1058 620 l90 80 -147 7 c-240 11 -425 72 -621 203 -361 243
-667 724 -895 1410 -106 318 -182 616 -255 1001 -39 211 -103 634 -116 774 -3
41 -10 82 -15 90 -5 8 -9 -400 -9 -907z"/>
<path d="M1320 2703 l0 -889 128 -69 c70 -38 147 -80 172 -93 25 -13 68 -37
95 -52 28 -15 86 -47 130 -70 44 -23 123 -66 175 -95 277 -152 508 -275 517
-275 5 0 190 97 409 216 219 119 487 264 594 321 107 58 201 110 208 115 9 8
12 199 12 894 l0 884 -100 0 -100 0 0 -828 0 -829 -117 -63 c-65 -35 -140 -75
-168 -90 -27 -15 -180 -99 -340 -185 -159 -87 -314 -171 -343 -187 l-53 -29
-87 47 c-48 25 -277 149 -509 276 l-423 230 -2 826 -3 827 -97 3 -98 3 0 -888z"/>
<path d="M1690 2825 l0 -755 38 -23 c34 -22 260 -150 569 -323 72 -41 134 -74
137 -74 3 0 6 335 6 744 l0 744 -32 19 c-18 11 -182 111 -364 221 -183 111
-337 202 -343 202 -8 0 -11 -210 -11 -755z"/>
<path d="M2994 3356 l-369 -224 -3 -746 c-1 -410 1 -746 5 -746 3 0 174 95
380 211 l373 211 0 759 c0 418 -4 759 -8 759 -4 0 -174 -101 -378 -224z"/>
</g>
</svg>
