<?xml version="1.0" standalone="no"?>
<!DOCTYPE svg PUBLIC "-//W3C//DTD SVG 20010904//EN"
 "http://www.w3.org/TR/2001/REC-SVG-20010904/DTD/svg10.dtd">
<svg version="1.0" xmlns="http://www.w3.org/2000/svg"
 width="512.000000pt" height="512.000000pt" viewBox="0 0 512.000000 512.000000"
 preserveAspectRatio="xMidYMid meet">
<metadata>
Created by potrace 1.15, written by Peter Selinger 2001-2017
</metadata>
<g transform="translate(0.000000,512.000000) scale(0.100000,-0.100000)"
fill="#ffffff" stroke="none">
<path d="M2650 4903 c0 -5 14 -242 30 -528 16 -286 30 -537 30 -558 0 -24 4
-36 10 -32 6 4 67 92 136 196 104 157 157 252 305 550 98 198 179 364 179 370
0 5 -135 9 -345 9 -190 0 -345 -3 -345 -7z"/>
<path d="M3304 4423 c-205 -418 -313 -657 -300 -670 2 -2 113 65 247 148 227
142 270 173 619 458 206 169 439 358 517 421 78 63 142 118 143 123 0 4 -222
7 -493 7 l-493 0 -240 -487z"/>
<path d="M4790 4896 c0 -7 -43 -49 -96 -92 -214 -175 -351 -287 -545 -444
-111 -91 -293 -246 -403 -344 -111 -99 -292 -260 -403 -359 -112 -100 -201
-183 -198 -185 2 -2 104 24 227 58 123 34 273 75 333 91 122 34 137 39 660
239 204 78 397 152 430 164 33 13 78 30 100 39 l40 15 3 416 2 416 -75 0 c-57
0 -75 -3 -75 -14z"/>
<path d="M1166 4884 c-228 -55 -418 -270 -498 -563 -17 -61 -21 -106 -22 -231
-1 -174 18 -273 74 -396 30 -66 31 -84 5 -84 -7 0 -47 -23 -88 -50 -214 -143
-336 -377 -402 -770 -40 -239 -47 -327 -52 -747 l-5 -403 199 0 199 0 43 -668
c23 -367 45 -695 48 -729 l6 -63 613 0 612 0 6 38 c3 20 20 237 38 481 l32
444 -90 82 c-49 46 -90 82 -92 80 -2 -2 -72 -899 -72 -928 0 -4 -195 -6 -432
-5 l-433 3 -47 700 c-26 385 -47 715 -47 733 l-1 32 -196 0 -196 0 6 232 c20
692 92 1024 266 1232 85 102 174 146 342 171 56 9 103 17 105 19 2 2 -25 39
-59 82 -139 176 -178 277 -185 479 -5 112 -2 143 16 215 67 262 242 429 452
433 69 1 83 -2 152 -36 186 -92 309 -327 308 -592 0 -153 -35 -274 -115 -400
-21 -31 -36 -58 -34 -60 5 -5 260 73 268 82 16 17 49 123 64 203 32 167 14
366 -48 530 -47 126 -89 193 -186 291 -92 94 -182 146 -288 168 -71 15 -194
13 -266 -5z"/>
<path d="M4750 3820 c-96 -38 -330 -129 -520 -202 -330 -127 -362 -142 -692
-318 -191 -102 -344 -188 -340 -191 4 -3 225 -18 492 -32 l485 -27 345 45
c190 25 362 47 383 51 l37 6 0 369 c0 203 -3 369 -7 368 -5 0 -87 -31 -183
-69z"/>
<path d="M2390 3560 l-385 -16 -325 -97 c-179 -54 -419 -125 -535 -159 -115
-34 -211 -63 -213 -64 -7 -4 53 -229 100 -374 172 -531 464 -1000 869 -1395
168 -164 463 -405 496 -405 10 0 40 59 163 320 155 328 271 638 339 905 69
267 109 630 96 860 -6 115 -31 370 -41 418 l-6 27 -86 -1 c-48 -1 -260 -9
-472 -19z"/>
<path d="M4520 2919 l-365 -49 -510 -169 c-280 -92 -509 -172 -507 -177 2 -5
216 -84 475 -177 l472 -167 415 -55 c228 -30 421 -55 428 -55 9 0 12 97 12
450 l0 450 -27 -1 c-16 -1 -192 -24 -393 -50z"/>
<path d="M3040 1983 c0 -5 235 -160 522 -346 446 -290 542 -348 667 -405 80
-36 272 -123 426 -193 l280 -127 3 486 c1 267 1 486 0 488 -2 1 -176 25 -388
53 l-385 51 -562 0 c-310 0 -563 -3 -563 -7z"/>
<path d="M2982 1420 c3 -9 192 -229 453 -526 70 -80 173 -171 459 -408 l369
-306 339 0 338 0 0 269 0 268 -177 81 c-98 44 -307 139 -464 210 l-286 130
-509 146 c-280 80 -513 146 -517 146 -5 0 -7 -4 -5 -10z"/>
<path d="M2720 1031 c0 -5 27 -70 60 -143 56 -125 73 -149 271 -408 115 -151
216 -281 223 -288 9 -9 90 -12 361 -10 l350 3 -294 244 c-330 274 -331 274
-496 361 -66 35 -181 95 -255 135 -199 106 -220 116 -220 106z"/>
<path d="M2490 829 c0 -8 -7 -131 -15 -274 -8 -143 -15 -286 -15 -317 l0 -58
295 0 c162 0 295 3 295 8 0 4 -81 111 -179 239 -114 149 -207 258 -257 305
-125 114 -124 113 -124 97z"/>
</g>
</svg>
