<?xml version="1.0" standalone="no"?>
<!DOCTYPE svg PUBLIC "-//W3C//DTD SVG 20010904//EN"
 "http://www.w3.org/TR/2001/REC-SVG-20010904/DTD/svg10.dtd">
<svg version="1.0" xmlns="http://www.w3.org/2000/svg"
 width="512.000000pt" height="512.000000pt" viewBox="0 0 512.000000 512.000000"
 preserveAspectRatio="xMidYMid meet">
<metadata>
Created by potrace 1.15, written by Peter Selinger 2001-2017
</metadata>
<g transform="translate(0.000000,512.000000) scale(0.100000,-0.100000)"
fill="#ffffff" stroke="none">
<path d="M2420 4946 c-159 -45 -339 -166 -545 -364 -105 -102 -132 -123 -242
-186 -178 -102 -247 -199 -273 -382 -18 -130 17 -240 133 -417 115 -176 236
-287 312 -287 114 0 290 224 370 470 23 69 29 109 33 212 4 111 2 136 -18 200
-12 40 -33 94 -46 120 l-24 47 52 68 c135 172 184 207 308 221 161 17 266 -24
395 -153 44 -44 97 -105 117 -135 132 -202 186 -418 144 -575 -59 -223 -290
-470 -701 -750 -570 -390 -898 -722 -1089 -1103 -98 -195 -139 -364 -138 -568
3 -605 401 -1088 979 -1189 110 -19 382 -20 533 -1 780 98 1209 530 1187 1196
-5 167 -18 225 -81 355 -106 222 -329 410 -588 497 -162 54 -370 50 -533 -10
-246 -90 -459 -322 -571 -620 -13 -34 -24 -67 -24 -72 0 -5 48 39 108 98 104
106 160 148 272 209 229 123 485 143 676 54 78 -36 175 -130 217 -208 62 -117
87 -333 52 -465 -60 -232 -263 -424 -545 -518 -201 -66 -481 -93 -605 -56
-185 55 -324 193 -411 407 -57 140 -72 357 -35 502 79 306 359 645 776 941
311 220 410 300 561 451 172 172 261 290 340 450 67 138 94 246 94 380 -1 241
-61 455 -193 675 -47 80 -88 131 -172 216 -165 167 -304 246 -508 289 -82 18
-255 18 -317 1z"/>
</g>
</svg>
