<?xml version="1.0" standalone="no"?>
<!DOCTYPE svg PUBLIC "-//W3C//DTD SVG 20010904//EN"
 "http://www.w3.org/TR/2001/REC-SVG-20010904/DTD/svg10.dtd">
<svg version="1.0" xmlns="http://www.w3.org/2000/svg"
 width="512.000000pt" height="512.000000pt" viewBox="0 0 512.000000 512.000000"
 preserveAspectRatio="xMidYMid meet">
<metadata>
Created by potrace 1.15, written by Peter Selinger 2001-2017
</metadata>
<g transform="translate(0.000000,512.000000) scale(0.100000,-0.100000)"
fill="#ffffff" stroke="none">
<path d="M567 4763 c-9 -183 -21 -683 -16 -683 2 0 33 9 69 21 75 23 199 27
276 8 115 -28 248 -115 315 -205 176 -238 156 -530 -50 -734 -75 -75 -128
-107 -236 -146 -59 -21 -227 -24 -289 -6 -22 6 -42 10 -44 7 -7 -7 17 -198 48
-387 133 -798 389 -1265 852 -1553 47 -30 214 -118 370 -196 155 -78 319 -164
363 -192 114 -72 233 -174 306 -262 l63 -76 24 33 c58 78 214 218 318 287 62
41 230 133 389 211 290 143 433 229 568 345 291 248 495 649 611 1204 28 132
72 410 82 520 7 70 6 74 -12 67 -42 -17 -143 -27 -201 -22 -140 14 -265 76
-364 178 -162 170 -197 432 -86 642 66 125 216 245 352 281 88 23 217 21 294
-5 35 -11 65 -19 67 -17 3 2 0 159 -6 348 -5 189 -10 364 -10 389 0 75 0 75
-146 46 -277 -54 -514 -87 -854 -121 -961 -93 -2029 -49 -2903 120 -70 14
-131 25 -136 25 -4 0 -11 -57 -14 -127z m3035 -314 c-5 -13 -65 -215 -132
-449 -68 -234 -124 -426 -125 -427 -3 -5 -150 39 -159 47 -6 6 64 275 100 379
3 8 -1 11 -10 8 -13 -5 -450 -329 -747 -553 l-96 -73 -52 72 c-28 39 -47 74
-43 78 4 3 228 171 497 371 270 201 553 413 630 470 77 58 141 104 143 103 1
-1 -1 -13 -6 -26z m-1695 -221 c175 -127 346 -251 379 -275 92 -65 91 -61 38
-134 -26 -35 -48 -66 -50 -68 -1 -2 -77 51 -168 118 -91 67 -169 121 -173 121
-5 0 69 -232 164 -516 117 -349 168 -516 160 -519 -7 -3 -44 -16 -83 -29 l-72
-24 -30 91 c-41 126 -483 1437 -489 1454 -3 7 -3 13 0 13 4 0 149 -104 324
-232z m1388 -992 c916 -692 964 -730 926 -722 -18 3 -235 6 -482 6 l-449 0 0
90 0 90 208 2 209 3 -266 201 c-146 110 -334 252 -418 315 -84 63 -152 117
-153 120 0 3 23 36 51 73 l51 67 31 -24 c18 -13 149 -112 292 -221z m-1501
-200 c25 -36 46 -68 46 -73 -1 -4 -80 -64 -178 -133 l-177 -125 528 -3 527 -2
0 -90 0 -90 -807 1 c-751 0 -806 1 -785 16 13 9 196 139 405 289 210 150 385
273 389 274 3 0 27 -29 52 -64z m1222 -168 c40 -13 74 -28 74 -33 0 -6 -54
-179 -119 -385 -66 -206 -172 -541 -237 -745 -64 -203 -120 -373 -123 -377 -3
-4 -74 203 -157 460 l-151 467 80 27 c44 15 83 25 87 23 4 -3 11 -17 14 -32
19 -78 121 -372 126 -366 4 5 76 227 161 495 85 268 158 488 162 488 5 0 42
-10 83 -22z"/>
</g>
</svg>
