<?xml version="1.0" encoding="UTF-8" standalone="no"?>
<!-- Created with Inkscape (http://www.inkscape.org/) -->

<svg
   xmlns:dc="http://purl.org/dc/elements/1.1/"
   xmlns:cc="http://creativecommons.org/ns#"
   xmlns:rdf="http://www.w3.org/1999/02/22-rdf-syntax-ns#"
   xmlns:svg="http://www.w3.org/2000/svg"
   xmlns="http://www.w3.org/2000/svg"
   xmlns:sodipodi="http://sodipodi.sourceforge.net/DTD/sodipodi-0.dtd"
   xmlns:inkscape="http://www.inkscape.org/namespaces/inkscape"
   width="67.73333mm"
   height="67.73333mm"
   viewBox="0 0 67.73333 67.73333"
   version="1.1"
   id="svg5936"
   inkscape:version="0.92.4 (5da689c313, 2019-01-14)"
   sodipodi:docname="protection-from-evil-and-good.svg">
  <defs
     id="defs5930" />
  <sodipodi:namedview
     id="base"
     pagecolor="#ffffff"
     bordercolor="#666666"
     borderopacity="1.0"
     inkscape:pageopacity="0.0"
     inkscape:pageshadow="2"
     inkscape:zoom="2.8"
     inkscape:cx="64.33483"
     inkscape:cy="145.29912"
     inkscape:document-units="mm"
     inkscape:current-layer="layer1"
     showgrid="false"
     inkscape:pagecheckerboard="true"
     inkscape:window-width="1850"
     inkscape:window-height="1016"
     inkscape:window-x="70"
     inkscape:window-y="27"
     inkscape:window-maximized="1" />
  <metadata
     id="metadata5933">
    <rdf:RDF>
      <cc:Work
         rdf:about="">
        <dc:format>image/svg+xml</dc:format>
        <dc:type
           rdf:resource="http://purl.org/dc/dcmitype/StillImage" />
        <dc:title></dc:title>
      </cc:Work>
    </rdf:RDF>
  </metadata>
  <g
     inkscape:label="Layer 1"
     inkscape:groupmode="layer"
     id="layer1"
     transform="translate(3.6285696,-90.020241)">
    <path
       style="fill:#ffffff;fill-opacity:1;fill-rule:evenodd;stroke:none;stroke-width:1.16590011;stroke-linecap:butt;stroke-linejoin:miter;stroke-miterlimit:4;stroke-dasharray:none;stroke-opacity:1"
       d="m 6.1370688,94.253866 c 0,0 -2.4271128,5.223508 -2.6858073,16.135734 -0.023667,0.99826 -0.027737,1.95234 -0.016023,2.86691 0.1464527,11.43465 1.1748198,17.68418 3.4798469,23.0397 1.0899877,3.25671 2.7547431,5.71724 4.3247346,7.73355 1.134443,1.45694 2.342301,2.56205 3.542536,3.71945 2.429997,2.34326 14.950247,8.01563 14.950247,8.01563 0,0 12.509102,-5.68398 14.950252,-8.01563 1.285799,-1.22812 2.644039,-2.58557 3.549498,-3.72781 1.585672,-2.00033 3.229353,-4.47243 4.317768,-7.72379 2.305449,-5.35582 3.348875,-11.60529 3.480547,-23.0411 0.01166,-1.01213 0.0059,-1.95601 -0.01672,-2.87665 -0.267911,-10.905256 -2.685112,-16.125994 -2.685112,-16.125994 -4.006462,0.807281 -8.637944,2.041517 -12.878779,2.611288 -4.516739,0.60683 -5.86938,0.521704 -10.717458,0.521693 -4.847927,0 -7.639273,-0.17494 -10.716761,-0.521693 -4.209453,-0.474313 -8.992046,-1.587083 -12.8787743,-2.611288 z m 17.9620302,6.683864 1.002999,0.68121 c 0,0 -0.341433,0.50072 -0.661006,1.20569 -0.319571,0.70495 -0.582566,1.59915 -0.500104,2.24839 0.06564,0.51678 0.18592,0.58008 0.528663,0.68468 0.342742,0.10453 0.935569,0.0963 1.574848,0.0654 0.639277,-0.0308 1.32383,-0.0839 1.984404,0.10794 0.66057,0.19179 1.279983,0.7844 1.403503,1.65565 0.152142,1.07317 0.231419,3.47485 0.283486,5.88843 l 9.558434,-0.34826 c 0.557796,-2.89202 3.011211,-5.0951 5.969234,-5.0951 3.371772,0 6.091822,2.86202 6.091822,6.34467 0,3.48262 -2.72005,6.34674 -6.091822,6.34674 -1.285839,0 -2.47509,-0.41841 -3.456163,-1.12698 l -4.49608,7.01682 4.716878,2.56808 c 0.449764,-0.83935 0.828867,-1.56787 0.828867,-1.56787 l 1.079615,0.55513 c 0,0 -0.52975,1.0315 -1.129766,2.13207 -0.300008,0.55029 -0.618008,1.11831 -0.899914,1.59018 -0.281902,0.47184 -0.467495,0.80326 -0.742496,1.07195 -0.66352,0.64829 -1.152313,0.90001 -1.574149,0.97373 -0.421834,0.0736 -0.881125,0.0181 -1.310864,-0.179 -0.407612,-0.18687 -0.685912,-0.50325 -0.845586,-0.82121 -0.159666,-0.31797 -0.229221,-0.62705 -0.160198,-0.96886 0.09703,-0.48052 0.324647,-0.84901 0.621299,-1.05037 0.296656,-0.20117 0.610102,-0.21104 0.729266,-0.21104 v 1.21404 c -0.06095,0 -0.04951,0.004 -0.04737,0.002 0.0021,-0.001 -0.05956,0.0168 -0.113534,0.28418 0.0093,-0.0457 0.003,0.079 0.05572,0.18388 0.05272,0.10506 0.136466,0.20082 0.268167,0.2612 0.235484,0.10795 0.391702,0.12183 0.594833,0.0863 0.203128,-0.0355 0.350357,-0.0712 0.934738,-0.6422 -7.62e-4,7.4e-4 0.279805,-0.38085 0.547471,-0.82887 0.179759,-0.30089 0.379834,-0.65501 0.581597,-1.01691 l -4.792105,-2.6106 -4.59568,7.17215 c 1.506178,1.15981 2.485208,3.01759 2.485208,5.10274 0,3.48266 -2.719358,6.34466 -6.091127,6.34466 -3.371769,0 -6.089037,-2.862 -6.089037,-6.34466 0,-2.40455 1.295745,-4.51311 3.207505,-5.58892 l -3.89428,-7.03213 -3.272979,1.82629 -1.002999,4.88196 -1.189669,-0.24448 0.95285,-4.64097 -4.661853,-1.69047 0.413039,-1.1423 4.896584,1.77405 3.275762,-1.82769 -3.559249,-6.42685 c -0.959014,0.65887 -2.105792,1.04689 -3.341935,1.04689 -3.371772,0 -6.0890363,-2.86203 -6.0890363,-6.34467 0,-3.48264 2.7172643,-6.34675 6.0890363,-6.34675 3.147944,0 5.726274,2.49718 6.054908,5.66277 l 8.278219,-0.3016 c -0.05486,-2.4303 -0.144588,-4.89493 -0.267466,-5.76168 -0.07096,-0.50051 -0.191377,-0.55853 -0.541897,-0.66031 -0.350524,-0.1018 -0.946213,-0.0915 -1.587383,-0.0606 -0.641179,0.0309 -1.328074,0.083 -1.987889,-0.11843 -0.659814,-0.20139 -1.267357,-0.81058 -1.379123,-1.69046 -0.134076,-1.05557 0.235416,-2.09867 0.600405,-2.90383 0.364988,-0.80513 0.763394,-1.38677 0.763394,-1.38677 z m 21.144461,8.30817 c -2.262729,0 -4.168833,1.61845 -4.714093,3.83577 l 5.561769,-0.20268 -3.649802,5.6962 c 0.794042,0.5866 1.759846,0.93195 2.802126,0.93195 2.684958,0 4.877779,-2.27517 4.877779,-5.13061 0,-2.85547 -2.192821,-5.13063 -4.877779,-5.13063 z m -31.077629,0.12887 c -2.684958,0 -4.8749895,2.27515 -4.8749895,5.13061 0,2.85545 2.1900315,5.13131 4.8749895,5.13131 1.020625,0 1.969022,-0.33059 2.754067,-0.89504 l -2.127192,-3.84134 -0.479212,-0.86369 4.689715,-0.17065 c -0.299298,-2.5475 -2.35675,-4.4912 -4.837378,-4.4912 z m 29.647661,4.80184 -3.442237,0.12538 c -3.39e-4,0.025 -0.0035,0.0493 -0.0035,0.0746 0,1.2837 0.445093,2.44812 1.176434,3.34332 z m -4.657676,0.16927 -9.415646,0.34269 c 0.04724,2.6259 0.05781,4.95787 0.05781,4.95787 l -1.213352,0.007 c 0,0 -0.01305,-2.31502 -0.05991,-4.92166 l -8.292846,0.30159 c -0.123555,1.54298 -0.777345,2.93568 -1.778233,3.97091 l 3.674876,6.63233 3.773782,-2.1056 0.592045,1.06081 -3.777262,2.10838 3.954878,7.1387 c 0.557037,-0.17564 1.147509,-0.27233 1.760124,-0.27233 0.922834,0 1.792976,0.22079 2.575753,0.60388 l 4.556682,-7.11432 -4.682055,-2.55068 0.582295,-1.06639 4.757279,2.59039 4.644443,-7.25223 c -1.059345,-1.14488 -1.712066,-2.69812 -1.712066,-4.40205 0,-0.0105 0.0014,-0.0204 0.0014,-0.0307 z m -20.142854,0.73344 -2.680236,0.0975 1.501014,2.70949 c 0.638886,-0.76588 1.066504,-1.73268 1.179222,-2.80701 z m 9.41913,19.70474 c -0.397993,0 -0.783404,0.0553 -1.154145,0.14976 l 1.503803,2.71435 1.569969,-2.45177 c -0.589781,-0.26517 -1.238521,-0.41234 -1.919627,-0.41234 z m -2.294362,0.60179 c -1.533604,0.85939 -2.581326,2.55463 -2.581326,4.52882 0,2.85546 2.19073,5.13131 4.875688,5.13131 2.684959,0 4.87499,-2.27585 4.87499,-5.13131 0,-1.67593 -0.75754,-3.14742 -1.923806,-4.08095 l -2.680237,4.18404 z"
       id="path6015"
       inkscape:connector-curvature="0" />
  </g>
</svg>
