<?xml version="1.0" standalone="no"?>
<!DOCTYPE svg PUBLIC "-//W3C//DTD SVG 20010904//EN"
 "http://www.w3.org/TR/2001/REC-SVG-20010904/DTD/svg10.dtd">
<svg version="1.0" xmlns="http://www.w3.org/2000/svg"
 width="512.000000pt" height="512.000000pt" viewBox="0 0 512.000000 512.000000"
 preserveAspectRatio="xMidYMid meet">
<metadata>
Created by potrace 1.15, written by Peter Selinger 2001-2017
</metadata>
<g transform="translate(0.000000,512.000000) scale(0.100000,-0.100000)"
fill="#ffffff" stroke="none">
<path d="M1060 4578 c0 -6 13 -61 30 -122 16 -61 42 -174 57 -251 25 -129 27
-160 27 -390 1 -235 -1 -258 -26 -375 -15 -69 -52 -208 -82 -310 -113 -381
-139 -525 -139 -765 -1 -227 29 -433 99 -683 l28 -102 303 0 c245 0 303 3 303
13 0 8 -11 51 -25 96 -78 262 -116 583 -95 816 14 167 41 292 128 596 109 381
117 428 117 714 -1 270 -9 332 -77 608 l-41 167 -303 0 c-225 0 -304 -3 -304
-12z"/>
<path d="M2260 4578 c0 -6 13 -61 30 -122 16 -61 42 -174 57 -251 25 -129 27
-160 27 -390 1 -235 -1 -258 -26 -375 -15 -69 -52 -208 -82 -310 -113 -381
-139 -525 -139 -765 -1 -227 29 -433 99 -683 l28 -102 303 0 c245 0 303 3 303
13 0 8 -11 51 -25 96 -78 262 -116 583 -95 816 14 167 41 292 128 596 109 381
117 428 117 714 -1 270 -9 332 -77 608 l-41 167 -303 0 c-225 0 -304 -3 -304
-12z"/>
<path d="M3460 4578 c0 -6 13 -61 30 -122 16 -61 42 -174 57 -251 25 -129 27
-160 27 -390 1 -235 -1 -258 -26 -375 -15 -69 -52 -208 -82 -310 -113 -381
-139 -525 -139 -765 -1 -227 29 -433 99 -683 l28 -102 303 0 c245 0 303 3 303
13 0 8 -11 51 -25 96 -78 262 -116 583 -95 816 14 167 41 292 128 596 109 381
117 428 117 714 -1 270 -9 332 -77 608 l-41 167 -303 0 c-225 0 -304 -3 -304
-12z"/>
<path d="M695 1423 c-67 -36 -156 -134 -212 -233 l-27 -47 -109 -6 c-117 -5
-149 -18 -174 -68 -13 -27 -18 -153 -15 -381 l2 -158 2400 0 2400 0 0 250 c0
345 -2 349 -190 358 l-109 5 -38 65 c-48 81 -144 187 -194 212 -49 26 -94 25
-165 -1 -70 -26 -119 -73 -201 -194 -92 -134 -127 -170 -195 -204 -70 -35
-120 -39 -191 -15 -66 22 -123 78 -208 201 -93 136 -144 186 -215 212 -70 27
-119 26 -190 0 -70 -26 -119 -73 -201 -194 -92 -134 -127 -170 -195 -204 -70
-35 -120 -39 -191 -15 -66 22 -123 78 -208 201 -93 136 -144 186 -215 212 -70
27 -119 26 -190 0 -70 -26 -119 -73 -201 -194 -92 -134 -127 -170 -195 -204
-70 -35 -120 -39 -191 -15 -66 22 -123 78 -208 201 -41 59 -93 127 -117 150
-73 72 -190 102 -257 66z"/>
</g>
</svg>
