<?xml version="1.0" standalone="no"?>
<!DOCTYPE svg PUBLIC "-//W3C//DTD SVG 20010904//EN"
 "http://www.w3.org/TR/2001/REC-SVG-20010904/DTD/svg10.dtd">
<svg version="1.0" xmlns="http://www.w3.org/2000/svg"
 width="512.000000pt" height="512.000000pt" viewBox="0 0 512.000000 512.000000"
 preserveAspectRatio="xMidYMid meet">
<metadata>
Created by potrace 1.15, written by Peter Selinger 2001-2017
</metadata>
<g transform="translate(0.000000,512.000000) scale(0.100000,-0.100000)"
fill="#ffffff" stroke="none">
<path d="M2300 4945 c-241 -33 -454 -86 -640 -162 l-95 -39 -50 38 c-163 124
-378 183 -578 159 -532 -65 -858 -575 -691 -1081 26 -78 101 -215 133 -244 18
-17 18 -20 -20 -108 -85 -195 -145 -412 -180 -653 -19 -131 -17 -481 4 -626
163 -1109 1032 -1944 2146 -2060 142 -15 446 -7 591 16 195 30 441 101 600
173 139 63 168 78 264 135 659 394 1084 1059 1166 1825 16 142 8 470 -14 602
-47 279 -132 535 -255 765 -359 673 -1008 1130 -1776 1250 -142 22 -473 28
-605 10z m540 -200 c323 -43 653 -163 910 -332 l65 -43 -90 0 c-49 0 -470 -11
-935 -25 -465 -14 -872 -25 -906 -25 l-60 0 -18 58 c-10 31 -36 91 -58 132
-36 68 -38 75 -23 87 25 18 255 90 362 113 231 50 533 64 753 35z m-1666 -15
c265 -67 454 -295 472 -567 13 -197 -74 -399 -223 -518 -183 -145 -417 -184
-623 -103 -174 68 -304 204 -370 388 -20 55 -24 84 -24 195 -1 117 2 137 26
203 33 88 57 129 117 201 150 179 399 259 625 201z m2998 -669 c51 -55 108
-119 125 -143 l32 -44 -197 38 c-108 21 -406 81 -662 132 l-465 94 170 2 c94
2 285 6 425 10 140 3 305 7 367 8 l111 2 94 -99z m-1830 -16 c266 -47 544 -96
618 -109 74 -14 421 -75 770 -136 349 -61 658 -116 687 -121 l51 -10 40 -77
c52 -100 122 -262 114 -262 -4 0 -288 41 -631 90 -344 50 -630 89 -635 87 -6
-2 18 -18 54 -34 232 -107 1327 -627 1333 -633 10 -9 34 -347 25 -355 -6 -6
-47 11 -213 90 -117 56 -570 270 -730 345 -44 21 -129 61 -190 90 -60 29 -141
67 -180 85 -38 18 -113 53 -165 78 -176 83 -484 229 -640 302 -85 40 -231 109
-324 154 -93 44 -170 81 -172 81 -1 0 -73 34 -159 75 -87 41 -161 75 -166 75
-17 0 -19 21 -5 82 8 34 17 91 21 126 4 34 9 62 11 62 2 0 221 -38 486 -85z
m-272 -643 c52 -41 140 -109 195 -152 81 -64 331 -257 625 -485 168 -130 635
-493 680 -528 30 -24 142 -111 249 -193 106 -82 211 -162 231 -179 21 -16 60
-47 86 -67 80 -62 358 -279 363 -284 11 -10 -216 -348 -246 -367 -4 -3 -60 38
-123 92 -155 130 -692 584 -1090 920 -179 151 -336 284 -349 295 -56 49 -1
-27 245 -336 142 -178 351 -440 465 -583 113 -143 284 -357 378 -475 l171
-215 -22 -18 c-50 -39 -276 -186 -327 -212 -30 -15 -57 -23 -60 -18 -3 5 -55
79 -115 164 -255 359 -380 535 -506 714 -73 105 -188 267 -254 360 -143 203
-281 399 -561 795 -115 162 -229 324 -255 360 -26 36 -111 157 -190 269 l-143
203 59 53 c32 29 77 77 98 107 l40 55 130 -101 c72 -55 174 -134 226 -174z
m-1402 -18 c17 -8 48 -21 68 -29 26 -11 34 -19 30 -32 -3 -10 -66 -335 -140
-723 -75 -388 -139 -716 -142 -730 -6 -23 -8 -21 -21 20 -62 197 -93 381 -100
595 -7 195 6 352 43 525 25 121 94 339 126 403 l19 38 42 -26 c23 -15 57 -33
75 -41z m734 -282 c53 -136 140 -357 193 -492 53 -135 131 -335 175 -445 43
-110 103 -263 133 -340 285 -726 407 -1036 498 -1265 l77 -195 -41 -3 c-78 -7
-392 44 -477 76 -23 9 -46 74 -280 781 -140 424 -258 771 -263 771 -5 0 -6
-24 -3 -52 3 -29 8 -251 11 -493 3 -242 8 -518 11 -614 l7 -173 -29 18 c-130
83 -324 234 -388 303 l-30 31 -12 912 c-7 502 -14 1018 -16 1146 l-3 232 47 0
c66 0 191 19 236 35 20 7 42 14 47 14 6 0 54 -111 107 -247z m2453 -522 c481
-248 860 -440 866 -440 9 0 -26 -148 -57 -243 -18 -55 -29 -75 -37 -69 -7 5
-129 96 -272 202 -143 106 -377 280 -520 386 -143 107 -363 271 -490 365 -126
94 -232 173 -235 176 -5 6 318 -158 745 -377z m-3034 -737 c11 -351 18 -642
16 -647 -4 -12 -84 100 -158 223 l-66 110 27 143 c127 677 155 817 159 813 2
-3 12 -292 22 -642z m1679 -308 c200 -297 442 -656 537 -797 95 -141 176 -263
178 -270 4 -11 -22 -21 -102 -41 -96 -24 -257 -58 -259 -54 0 1 -44 103 -96
227 -53 124 -214 500 -358 835 -284 661 -286 665 -272 650 5 -5 172 -253 372
-550z"/>
</g>
</svg>
