<?xml version="1.0" standalone="no"?>
<!DOCTYPE svg PUBLIC "-//W3C//DTD SVG 20010904//EN"
 "http://www.w3.org/TR/2001/REC-SVG-20010904/DTD/svg10.dtd">
<svg version="1.0" xmlns="http://www.w3.org/2000/svg"
 width="512.000000pt" height="512.000000pt" viewBox="0 0 512.000000 512.000000"
 preserveAspectRatio="xMidYMid meet">
<metadata>
Created by potrace 1.15, written by Peter Selinger 2001-2017
</metadata>
<g transform="translate(0.000000,512.000000) scale(0.100000,-0.100000)"
fill="#ffffff" stroke="none">
<path d="M1740 4485 l0 -355 -402 -2 -403 -3 -3 -407 -2 -408 -355 0 -355 0 0
-805 0 -805 355 0 355 0 0 -400 0 -400 405 0 405 0 0 -360 0 -360 805 0 805 0
0 360 0 360 410 0 410 0 0 400 0 400 355 0 355 0 0 805 0 805 -355 0 -355 0 0
410 0 410 -410 0 -410 0 0 355 0 355 -805 0 -805 0 0 -355z m1420 -600 l0
-765 765 0 765 0 0 -610 0 -610 -765 0 -765 0 0 -760 0 -760 -610 0 -610 0 0
760 0 760 -765 0 -765 0 0 610 0 610 765 0 765 0 0 765 0 765 610 0 610 0 0
-765z"/>
</g>
</svg>
