<?xml version="1.0" standalone="no"?>
<!DOCTYPE svg PUBLIC "-//W3C//DTD SVG 20010904//EN"
 "http://www.w3.org/TR/2001/REC-SVG-20010904/DTD/svg10.dtd">
<svg version="1.0" xmlns="http://www.w3.org/2000/svg"
 width="512.000000pt" height="512.000000pt" viewBox="0 0 512.000000 512.000000"
 preserveAspectRatio="xMidYMid meet">
<metadata>
Created by potrace 1.15, written by Peter Selinger 2001-2017
</metadata>
<g transform="translate(0.000000,512.000000) scale(0.100000,-0.100000)"
fill="#ffffff" stroke="none">
<path d="M2449 4648 c-74 -117 -136 -216 -138 -221 -6 -15 272 -948 280 -939
4 4 69 215 144 470 l137 462 -102 163 c-57 89 -119 188 -139 220 -20 31 -39
57 -42 57 -3 0 -66 -95 -140 -212z"/>
<path d="M1236 4448 c-3 -29 -8 -147 -12 -263 l-7 -210 348 -330 c191 -181
351 -331 356 -333 5 -2 9 2 9 10 -1 7 -51 222 -113 476 l-112 464 -225 119
c-124 65 -228 119 -231 119 -4 0 -9 -24 -13 -52z"/>
<path d="M3685 4384 c-121 -63 -223 -118 -227 -122 -9 -9 -238 -955 -233 -960
2 -2 164 149 360 335 l357 338 -6 150 c-10 256 -18 375 -25 375 -3 0 -105 -52
-226 -116z"/>
<path d="M382 3450 c-78 -4 -144 -9 -147 -11 -2 -3 50 -108 116 -235 l121
-229 471 -113 c260 -62 476 -112 481 -112 10 0 -39 55 -193 215 -263 274 -447
468 -454 481 -9 15 -130 17 -395 4z"/>
<path d="M4062 3109 c-183 -193 -331 -354 -328 -356 4 -4 154 31 719 167 114
27 213 50 220 50 6 0 67 105 134 233 l121 232 -36 6 c-21 4 -140 10 -267 14
l-230 6 -333 -352z"/>
<path d="M2360 3258 c-97 -13 -264 -73 -355 -125 -289 -166 -486 -467 -588
-898 -28 -114 -57 -333 -57 -420 l0 -50 57 -30 c116 -61 261 -164 325 -234
147 -159 181 -316 102 -472 l-23 -46 22 -20 c26 -23 120 -81 152 -93 21 -8 25
-2 60 78 20 48 39 89 41 91 2 2 39 -11 83 -29 l79 -33 -35 -81 c-19 -45 -35
-85 -36 -90 -2 -10 126 -38 229 -51 l54 -6 0 105 0 106 90 0 90 0 0 -106 0
-106 53 7 c81 10 213 36 227 45 11 7 6 27 -20 94 -18 48 -31 88 -29 89 23 17
151 58 158 51 5 -5 22 -42 37 -83 16 -40 34 -76 41 -78 12 -5 108 50 152 87
l24 20 -34 67 c-31 61 -34 75 -34 152 0 75 4 94 29 146 57 117 216 250 443
371 l93 49 0 57 c0 142 -56 447 -112 607 -105 302 -293 554 -513 691 -100 62
-276 125 -389 140 -89 12 -329 11 -416 -2z m-452 -969 c210 -53 381 -203 448
-392 8 -22 13 -42 11 -43 -2 -2 -36 12 -75 32 -94 47 -161 64 -253 64 -114 0
-184 -26 -290 -109 -26 -21 -27 -21 -51 -2 -13 11 -37 43 -53 73 -56 100 -33
225 66 355 39 53 40 53 82 47 23 -4 75 -15 115 -25z m1578 -36 c85 -124 105
-234 60 -328 -13 -27 -37 -62 -53 -78 l-30 -28 -39 32 c-80 64 -151 92 -244
97 -110 6 -176 -9 -282 -61 l-85 -42 9 35 c25 88 107 214 176 267 121 93 185
120 387 166 44 10 59 1 101 -60z m-869 -670 c56 -117 123 -302 123 -338 0 -8
-19 -25 -42 -37 -36 -19 -58 -23 -143 -22 -83 0 -109 4 -152 23 l-51 23 43
129 c43 126 141 349 155 349 4 0 34 -57 67 -127z"/>
<path d="M1681 643 l-91 -148 48 -42 c132 -118 387 -219 649 -258 119 -17 370
-20 493 -4 260 32 543 145 718 286 l24 19 -88 145 c-48 79 -88 145 -89 147 -3
3 -165 -89 -165 -94 0 -2 11 -32 25 -66 13 -35 26 -69 27 -76 2 -8 -26 -24
-72 -42 -41 -17 -77 -30 -80 -30 -3 0 -18 34 -35 75 -16 41 -34 75 -40 75 -5
0 -35 -7 -65 -15 -42 -11 -256 -45 -286 -45 -2 0 -4 -47 -4 -105 l0 -105 -90
0 -90 0 0 105 0 104 -32 5 c-18 3 -69 10 -113 17 -44 6 -105 17 -136 25 -31 8
-63 14 -71 14 -8 0 -28 -33 -48 -79 l-33 -79 -56 25 c-31 14 -68 30 -82 36
l-26 10 33 73 c19 40 34 75 34 78 0 3 -24 18 -52 32 -29 15 -65 35 -80 45 -14
11 -28 19 -31 19 -3 0 -46 -66 -96 -147z"/>
</g>
</svg>
