<?xml version="1.0" standalone="no"?>
<!DOCTYPE svg PUBLIC "-//W3C//DTD SVG 20010904//EN"
 "http://www.w3.org/TR/2001/REC-SVG-20010904/DTD/svg10.dtd">
<svg version="1.0" xmlns="http://www.w3.org/2000/svg"
 width="512.000000pt" height="512.000000pt" viewBox="0 0 512.000000 512.000000"
 preserveAspectRatio="xMidYMid meet">
<metadata>
Created by potrace 1.15, written by Peter Selinger 2001-2017
</metadata>
<g transform="translate(0.000000,512.000000) scale(0.100000,-0.100000)"
fill="#ffffff" stroke="none">
<path d="M2552 4189 l3 -64 190 -6 c105 -4 245 -10 313 -14 l122 -7 0 65 0 65
-62 6 c-35 3 -177 9 -316 12 l-253 7 3 -64z"/>
<path d="M2270 4233 c-96 -10 -268 -37 -376 -59 -120 -24 -314 -80 -314 -90 0
-7 51 -94 55 -94 2 0 45 11 97 25 124 33 294 61 479 80 84 8 156 15 160 15 10
0 12 54 3 99 -7 33 -10 34 -104 24z"/>
<path d="M3352 4139 l3 -63 130 -29 c72 -16 162 -41 201 -56 l72 -28 98 22 99
22 -61 31 c-110 55 -305 115 -512 157 l-33 7 3 -63z"/>
<path d="M1340 3981 c-130 -78 -200 -160 -200 -233 0 -45 50 -129 102 -171 43
-35 177 -113 182 -106 1 2 15 27 31 54 15 28 45 74 66 102 l39 52 -42 22 c-78
39 -117 80 -118 121 0 10 16 35 35 57 19 21 35 41 35 44 0 10 -54 97 -60 97
-3 0 -34 -18 -70 -39z"/>
<path d="M3883 3818 c-24 -5 -43 -13 -43 -18 0 -19 -107 -81 -191 -111 l-86
-31 13 -54 c7 -30 16 -88 19 -129 4 -41 11 -75 15 -75 23 0 196 67 275 107
169 84 254 169 263 263 4 46 4 47 -28 54 -46 9 -187 6 -237 -6z"/>
<path d="M1832 3679 c-88 -44 -187 -153 -246 -272 -41 -81 -46 -100 -46 -157
0 -79 15 -187 35 -255 16 -56 75 -159 89 -157 6 1 17 39 27 84 47 236 182 511
330 672 51 56 52 59 34 73 -67 51 -137 55 -223 12z"/>
<path d="M3305 3605 c-60 -12 -250 -32 -474 -51 l-63 -6 -29 -63 c-29 -64 -58
-200 -45 -212 16 -16 440 25 650 63 l88 16 -6 77 c-10 110 -27 191 -40 190 -6
-1 -42 -7 -81 -14z"/>
<path d="M1005 3525 c-21 -49 -19 -121 6 -171 27 -57 129 -151 219 -203 40
-23 75 -40 77 -37 2 2 15 46 28 97 20 80 22 96 10 104 -8 6 -54 33 -102 60
-54 31 -114 76 -156 118 l-68 67 -14 -35z"/>
<path d="M2157 3495 c-74 -73 -153 -172 -144 -181 10 -10 253 -34 376 -36
l124 -3 14 80 c7 44 22 106 32 138 l20 57 -118 0 c-65 0 -145 3 -177 6 l-59 6
-68 -67z"/>
<path d="M4135 3463 c-38 -29 -112 -75 -163 -101 -68 -34 -91 -51 -86 -62 18
-47 27 -171 17 -226 -6 -33 -9 -61 -7 -63 2 -2 50 19 106 47 188 94 283 193
282 296 0 53 -27 118 -60 147 -18 16 -23 13 -89 -38z"/>
<path d="M3610 3224 c-115 -33 -352 -80 -478 -95 -98 -12 -105 -14 -126 -43
-34 -46 -46 -90 -46 -174 l0 -75 103 7 c135 9 307 32 442 58 92 17 115 26 141
50 40 38 80 112 88 163 9 54 -5 129 -24 132 -8 1 -53 -10 -100 -23z"/>
<path d="M883 3128 c-55 -110 -26 -228 81 -324 79 -72 285 -190 300 -173 2 2
6 73 10 157 6 124 5 152 -7 152 -28 0 -219 123 -281 180 -35 33 -66 60 -70 60
-3 0 -18 -24 -33 -52z"/>
<path d="M4369 3124 c-34 -46 -116 -119 -168 -150 -27 -16 -27 -16 -27 -129
l1 -114 25 16 c153 98 239 212 240 314 0 47 -16 109 -29 109 -4 0 -23 -21 -42
-46z"/>
<path d="M1897 3074 c-13 -44 -27 -95 -31 -115 l-6 -36 72 -13 c40 -7 79 -15
86 -17 8 -4 12 5 12 24 0 40 28 131 51 169 10 17 19 34 19 36 0 3 -26 8 -57
11 -32 4 -72 9 -90 13 l-31 6 -25 -78z"/>
<path d="M2275 3059 c-71 -78 -99 -183 -52 -194 32 -7 259 -23 423 -30 l142
-7 5 114 c2 62 8 123 12 136 l7 22 -250 0 -250 0 -37 -41z"/>
<path d="M681 2843 c-20 -72 -5 -160 40 -233 l22 -35 23 69 c30 86 30 91 0
127 -13 15 -32 46 -42 68 -11 22 -22 41 -26 41 -4 0 -12 -17 -17 -37z"/>
<path d="M3945 2849 c-111 -46 -415 -122 -568 -144 -40 -5 -51 -12 -68 -38
-20 -33 -25 -97 -12 -171 l6 -38 51 6 c125 16 420 92 540 139 l60 23 27 74
c26 70 39 171 22 169 -5 0 -30 -9 -58 -20z"/>
<path d="M1445 2789 c-3 -30 -5 -172 -3 -316 3 -247 4 -263 24 -290 43 -58
109 -65 177 -19 l32 22 -2 150 c-2 82 -5 185 -9 229 -5 80 -5 80 -43 102 -59
34 -99 71 -136 126 l-33 49 -7 -53z"/>
<path d="M4468 2743 c-14 -15 -15 -33 -7 -123 5 -58 10 -131 11 -163 l3 -58
27 42 c55 84 57 196 5 282 -22 36 -24 37 -39 20z"/>
<path d="M1840 2607 l0 -145 33 -6 c54 -10 267 -36 291 -36 22 0 23 2 15 43
-13 66 -10 118 10 175 21 61 41 51 -154 81 -71 11 -145 23 -162 27 l-33 7 0
-146z"/>
<path d="M2975 2668 c-77 -5 -237 -6 -357 -3 l-216 6 -23 -33 c-31 -42 -38
-146 -16 -201 l16 -37 168 0 c159 0 402 12 524 26 l56 6 -1 124 c-1 68 -3 123
-6 122 -3 0 -68 -5 -145 -10z"/>
<path d="M909 2533 c-12 -38 -24 -73 -26 -79 -8 -22 328 -214 374 -214 14 0
17 80 5 158 -7 43 -7 43 -92 81 -47 20 -116 56 -154 79 -37 23 -72 42 -76 42
-5 0 -18 -30 -31 -67z"/>
<path d="M4161 2534 c-68 -34 -181 -82 -251 -105 l-128 -43 -17 -108 c-16
-102 -14 -177 5 -207 9 -15 132 17 290 76 167 62 187 75 206 135 15 49 31 263
23 299 -3 12 -31 1 -128 -47z"/>
<path d="M4720 2477 c-14 -7 -33 -29 -43 -48 -14 -30 -16 -45 -8 -80 6 -24 11
-67 11 -96 l0 -52 46 16 c31 11 65 14 105 10 l59 -5 0 46 c-1 51 -14 120 -32
165 -19 49 -86 70 -138 44z"/>
<path d="M590 2465 c-18 -21 -40 -96 -40 -135 0 -65 37 -164 85 -228 38 -50
139 -142 157 -142 3 0 8 32 10 71 4 55 13 87 40 139 l35 68 -78 57 c-43 31
-105 85 -138 120 -45 47 -63 60 -71 50z"/>
<path d="M3430 2305 c-63 -13 -187 -32 -274 -42 l-159 -18 -26 -39 c-23 -35
-26 -50 -26 -125 0 -129 -6 -123 127 -116 127 8 334 29 451 46 72 11 77 13 71
33 -4 11 -7 81 -7 154 0 154 18 142 -157 107z"/>
<path d="M1848 2209 c-3 -41 -12 -88 -21 -106 l-17 -32 37 -10 c21 -5 58 -13
84 -16 l45 -7 -4 66 c-2 36 1 87 7 112 7 26 11 48 9 49 -2 2 -33 6 -69 10
l-66 7 -5 -73z"/>
<path d="M2159 2219 c-17 -29 -18 -165 -2 -195 11 -19 29 -22 195 -37 101 -9
237 -20 303 -23 l120 -7 0 109 c0 60 3 121 8 137 l7 27 -182 0 c-101 0 -240 3
-309 7 -126 6 -127 6 -140 -18z"/>
<path d="M4485 2184 c-62 -48 -217 -139 -271 -160 -44 -17 -54 -33 -54 -92 0
-28 18 -121 25 -130 6 -7 196 94 273 145 l82 54 0 110 c0 60 -2 109 -4 109 -2
0 -25 -16 -51 -36z"/>
<path d="M1016 2131 c-23 -26 -45 -87 -46 -129 0 -18 7 -64 16 -101 l15 -69
127 -50 c107 -42 287 -102 305 -102 3 0 3 39 0 88 -4 71 -2 98 15 147 15 44
17 62 9 67 -7 4 -58 23 -114 43 -84 29 -165 61 -299 121 -5 3 -18 -4 -28 -15z"/>
<path d="M4747 2033 c-48 -34 -139 -145 -210 -254 -31 -48 -85 -123 -121 -167
-36 -45 -66 -83 -66 -86 0 -3 21 -49 46 -102 l46 -96 25 24 c48 44 177 203
229 283 68 105 118 207 149 302 l25 76 -22 24 c-28 30 -55 29 -101 -4z"/>
<path d="M3874 1910 c-126 -35 -345 -75 -492 -91 -99 -11 -112 -15 -119 -33
-11 -35 -6 -111 11 -163 l17 -50 117 18 c162 25 335 62 482 106 69 20 127 37
128 39 2 1 -3 34 -12 73 -9 38 -16 84 -16 100 0 17 -3 31 -7 30 -5 0 -54 -13
-109 -29z"/>
<path d="M1630 1898 c-11 -18 -23 -48 -26 -66 -8 -42 10 -135 34 -176 17 -30
23 -32 148 -53 153 -26 432 -58 440 -51 3 3 0 27 -7 52 -11 44 -8 135 6 196
l6 25 -130 18 c-118 16 -383 67 -431 82 -15 5 -25 -2 -40 -27z"/>
<path d="M2399 1755 c-24 -54 -21 -119 8 -180 15 -32 20 -34 82 -41 62 -7 609
11 618 20 2 2 -3 38 -11 80 -9 41 -16 93 -16 116 l0 40 -202 0 c-112 0 -260 3
-330 7 l-128 6 -21 -48z"/>
<path d="M960 1425 c-123 -25 -276 -96 -363 -169 -29 -23 -29 -23 -17 -82 7
-32 23 -82 37 -111 l25 -52 64 49 c82 63 171 112 259 141 60 21 90 24 202 24
l132 0 20 55 c11 30 32 71 46 89 13 19 23 36 21 38 -2 2 -38 10 -80 18 -94 18
-257 18 -346 0z"/>
<path d="M4115 1314 c-49 -41 -131 -104 -182 -138 l-92 -62 52 -87 c29 -47 57
-87 63 -87 14 0 239 163 308 223 l49 43 -44 89 c-24 49 -48 90 -54 92 -5 1
-50 -32 -100 -73z"/>
<path d="M1533 1298 c-42 -43 -63 -83 -63 -117 0 -14 36 -36 133 -85 72 -36
201 -108 285 -160 l152 -94 6 26 c3 15 14 54 25 87 11 33 22 69 25 80 4 17
-21 35 -158 117 -152 90 -337 188 -356 188 -4 0 -27 -19 -49 -42z"/>
<path d="M397 1003 c-49 -110 -60 -220 -32 -328 15 -58 59 -148 93 -193 l17
-22 42 63 c23 34 53 69 67 77 31 16 32 20 5 72 -12 23 -24 69 -27 102 -4 50
-13 72 -49 126 -24 36 -52 86 -61 113 -9 26 -20 47 -23 47 -3 0 -18 -26 -32
-57z"/>
<path d="M3615 980 c-94 -53 -257 -125 -389 -171 -60 -21 -113 -44 -118 -51
-4 -7 -8 -53 -8 -101 0 -70 3 -89 16 -94 58 -22 682 244 678 291 -2 19 -92
166 -102 166 -4 0 -38 -18 -77 -40z"/>
<path d="M2233 928 c-12 -23 -17 -57 -17 -112 l-1 -80 90 -48 c186 -98 359
-151 533 -163 l103 -8 -7 39 c-4 22 -8 69 -8 107 l0 67 -47 0 c-61 0 -176 22
-259 50 -71 24 -235 101 -317 149 l-52 31 -18 -32z"/>
<path d="M687 469 c-39 -23 -61 -114 -37 -158 23 -44 118 -51 154 -12 41 45
36 124 -10 160 -28 22 -78 27 -107 10z"/>
</g>
</svg>
