<?xml version="1.0" standalone="no"?>
<!DOCTYPE svg PUBLIC "-//W3C//DTD SVG 20010904//EN"
 "http://www.w3.org/TR/2001/REC-SVG-20010904/DTD/svg10.dtd">
<svg version="1.0" xmlns="http://www.w3.org/2000/svg"
 width="512.000000pt" height="512.000000pt" viewBox="0 0 512.000000 512.000000"
 preserveAspectRatio="xMidYMid meet">
<metadata>
Created by potrace 1.15, written by Peter Selinger 2001-2017
</metadata>
<g transform="translate(0.000000,512.000000) scale(0.100000,-0.100000)"
fill="#ffffff" stroke="none">
<path d="M3079 4915 c-59 -92 -470 -766 -475 -780 -4 -8 -9 -15 -13 -15 -4 0
-121 128 -260 285 -139 157 -257 285 -263 285 -6 0 -7 -16 -4 -37 3 -21 8
-236 12 -478 3 -242 9 -457 13 -478 6 -37 10 -29 101 182 52 121 97 218 100
216 3 -2 53 -157 110 -344 58 -187 108 -341 112 -341 4 0 55 59 114 130 59 72
108 129 110 127 2 -2 11 -131 20 -288 8 -156 17 -285 19 -288 4 -3 390 305
678 540 48 39 89 70 91 68 2 -2 -97 -195 -221 -429 -124 -234 -228 -432 -230
-440 -3 -11 22 -27 94 -59 54 -24 158 -71 231 -104 l133 -60 -188 -75 c-103
-41 -189 -76 -191 -78 -3 -1 137 -225 580 -932 50 -79 89 -145 87 -146 -2 -2
-29 13 -59 33 -113 75 -676 438 -698 450 -12 6 -22 8 -22 4 0 -4 11 -80 25
-168 13 -88 25 -163 25 -168 0 -4 -97 101 -216 233 -119 133 -220 237 -224
233 -4 -4 -71 -161 -150 -348 -78 -187 -145 -343 -149 -347 -3 -4 -33 179 -66
407 -33 228 -64 415 -68 415 -5 0 -48 -25 -95 -57 -48 -31 -137 -89 -199 -129
l-112 -73 6 229 6 230 -44 -5 c-85 -10 -741 -56 -745 -52 -4 3 196 102 609
300 92 44 167 83 167 86 0 4 -196 71 -436 151 l-436 146 134 61 c73 34 169 78
212 97 44 20 77 38 74 41 -5 5 -1145 -104 -1168 -112 -10 -3 3 -14 35 -29 28
-13 196 -95 375 -182 179 -87 357 -173 397 -192 39 -19 70 -38 67 -42 -3 -5
-684 -484 -768 -540 -6 -4 -8 -9 -6 -11 3 -3 208 -15 455 -26 248 -12 460 -23
472 -24 20 -2 4 -32 -147 -282 -94 -154 -166 -281 -162 -283 5 -1 107 43 228
99 120 56 246 114 279 129 l61 27 -93 -526 c-51 -289 -92 -535 -90 -546 2 -20
46 31 607 708 85 103 157 187 160 187 3 0 18 -84 32 -187 15 -104 54 -377 87
-608 34 -231 64 -433 69 -450 7 -26 31 38 173 467 90 274 167 497 170 498 5 0
783 -697 891 -798 15 -14 31 -23 34 -19 5 4 -107 405 -222 799 -4 12 47 -9
168 -71 547 -280 1173 -590 1176 -583 1 5 -86 166 -194 358 -407 721 -574
1017 -574 1019 0 1 622 -73 753 -90 27 -3 47 -2 45 3 -1 4 -64 64 -138 133
-75 68 -241 220 -368 338 -128 117 -232 215 -230 216 2 2 650 261 767 306 13
5 21 12 18 15 -3 3 -212 52 -464 108 -252 56 -456 107 -454 112 2 5 98 117
213 248 114 131 206 241 204 243 -4 4 -84 -17 -485 -128 -57 -16 -107 -27
-109 -24 -3 2 62 175 143 382 81 208 177 452 212 542 35 90 62 168 61 172 -2
5 -118 -90 -258 -212 -140 -122 -336 -292 -435 -377 -99 -86 -197 -172 -218
-192 -59 -54 -67 -56 -67 -19 0 17 7 282 16 588 8 306 14 581 12 611 l-3 55
-26 -40z"/>
<path d="M180 4725 l0 -214 62 -73 c100 -117 143 -163 333 -356 407 -415 926
-865 1342 -1165 108 -78 113 -83 107 -112 -8 -44 13 -159 42 -228 78 -184 240
-336 424 -397 54 -18 83 -21 170 -18 92 3 111 6 151 30 56 33 105 87 133 147
29 62 30 220 2 301 -69 201 -262 388 -455 442 -36 10 -89 18 -118 18 l-52 0
-93 123 c-434 576 -1109 1293 -1564 1660 l-71 57 -207 0 -206 0 0 -215z"/>
</g>
</svg>
