<?xml version="1.0" standalone="no"?>
<!DOCTYPE svg PUBLIC "-//W3C//DTD SVG 20010904//EN"
 "http://www.w3.org/TR/2001/REC-SVG-20010904/DTD/svg10.dtd">
<svg version="1.0" xmlns="http://www.w3.org/2000/svg"
 width="512.000000pt" height="512.000000pt" viewBox="0 0 512.000000 512.000000"
 preserveAspectRatio="xMidYMid meet">
<metadata>
Created by potrace 1.15, written by Peter Selinger 2001-2017
</metadata>
<g transform="translate(0.000000,512.000000) scale(0.100000,-0.100000)"
fill="#ffffff" stroke="none">
<path d="M2390 4910 c-217 -23 -417 -79 -601 -171 -231 -115 -496 -349 -638
-563 -183 -276 -275 -559 -287 -886 -15 -389 92 -741 323 -1062 83 -116 281
-303 410 -388 396 -261 852 -348 1312 -249 632 137 1133 636 1275 1271 84 376
41 757 -124 1103 -235 491 -716 850 -1243 929 -129 20 -322 27 -427 16z m455
-219 c113 -25 227 -63 319 -107 l71 -34 -85 0 c-135 0 -213 -47 -263 -160 -15
-34 -20 -65 -20 -125 2 -328 360 -686 688 -687 124 -1 208 44 258 137 19 34
22 57 22 146 0 121 2 121 59 -4 54 -117 95 -253 118 -382 17 -101 19 -147 15
-290 -3 -103 -12 -200 -22 -245 -96 -429 -348 -779 -721 -999 -176 -103 -394
-170 -642 -195 l-53 -5 71 35 c128 64 217 173 262 319 17 54 22 96 22 185 1
445 -331 941 -819 1222 -267 154 -583 204 -791 127 -80 -30 -172 -96 -218
-156 -49 -63 -54 -54 -31 56 98 484 453 910 903 1085 115 45 186 65 307 87
135 25 417 20 550 -10z"/>
<path d="M1148 1870 c-66 -67 -113 -156 -123 -230 -19 -135 81 -297 247 -403
501 -321 1481 -393 2189 -161 307 101 506 241 580 409 30 68 30 173 0 240 -26
60 -93 148 -138 182 l-33 25 -62 -58 c-157 -144 -378 -285 -564 -358 -411
-160 -818 -180 -1232 -60 -256 74 -511 216 -706 393 -48 45 -91 81 -94 81 -3
0 -32 -27 -64 -60z"/>
<path d="M4196 1313 c-217 -232 -671 -402 -1241 -465 -160 -17 -713 -18 -855
0 -594 74 -1014 239 -1246 491 l-41 45 -43 -45 c-59 -61 -117 -153 -136 -213
-21 -72 -19 -188 5 -258 117 -341 696 -616 1466 -700 160 -17 701 -17 860 0
620 68 1090 240 1345 492 104 102 151 196 158 311 8 143 -42 264 -154 370
l-49 46 -69 -74z"/>
</g>
</svg>
