<?xml version="1.0" standalone="no"?>
<!DOCTYPE svg PUBLIC "-//W3C//DTD SVG 20010904//EN"
 "http://www.w3.org/TR/2001/REC-SVG-20010904/DTD/svg10.dtd">
<svg version="1.0" xmlns="http://www.w3.org/2000/svg"
 width="512.000000pt" height="512.000000pt" viewBox="0 0 512.000000 512.000000"
 preserveAspectRatio="xMidYMid meet">
<metadata>
Created by potrace 1.15, written by Peter Selinger 2001-2017
</metadata>
<g transform="translate(0.000000,512.000000) scale(0.100000,-0.100000)"
fill="#ffffff" stroke="none">
<path d="M4466 4750 l-489 -229 -353 -352 c-194 -194 -355 -351 -357 -349 -2
3 -59 75 -127 160 -67 85 -127 155 -132 155 -6 0 -81 -204 -167 -453 l-157
-453 -369 -369 c-204 -204 -372 -370 -375 -370 -3 1 -61 73 -130 160 -69 88
-129 159 -134 157 -4 -1 -75 -196 -157 -432 l-149 -430 105 -105 105 -105
1278 1278 1277 1277 60 -60 60 -60 -1272 -1273 c-700 -699 -1273 -1276 -1273
-1282 0 -6 47 -57 105 -115 l105 -104 378 378 c209 208 385 382 393 386 8 4
195 70 416 146 222 77 402 142 400 146 -1 4 -63 55 -137 113 -74 59 -139 111
-145 116 -6 6 139 158 389 408 l398 398 414 144 c228 79 413 147 411 151 -1 3
-71 61 -154 128 -127 101 -151 125 -144 139 17 31 431 922 431 926 0 3 -3 5
-7 4 -5 0 -228 -103 -497 -229z"/>
<path d="M430 2254 l0 -205 121 2 121 2 688 -688 689 -689 -6 -118 -6 -118
206 0 207 0 0 200 0 200 -113 0 -112 0 -692 693 -693 692 -2 115 -3 115 -202
3 -203 2 0 -206z"/>
<path d="M707 882 c-240 -240 -437 -442 -437 -447 0 -13 162 -175 175 -175 6
0 208 198 450 440 l440 440 -90 90 c-49 49 -92 90 -95 90 -3 0 -202 -197 -443
-438z"/>
</g>
</svg>
