<?xml version="1.0" standalone="no"?>
<!DOCTYPE svg PUBLIC "-//W3C//DTD SVG 20010904//EN"
 "http://www.w3.org/TR/2001/REC-SVG-20010904/DTD/svg10.dtd">
<svg version="1.0" xmlns="http://www.w3.org/2000/svg"
 width="512.000000pt" height="512.000000pt" viewBox="0 0 512.000000 512.000000"
 preserveAspectRatio="xMidYMid meet">
<metadata>
Created by potrace 1.15, written by Peter Selinger 2001-2017
</metadata>
<g transform="translate(0.000000,512.000000) scale(0.100000,-0.100000)"
fill="#ffffff" stroke="none">
<path d="M2310 4924 c-228 -29 -398 -82 -625 -194 -168 -84 -277 -156 -420
-280 -90 -77 -214 -212 -267 -288 l-30 -43 172 -297 c94 -163 175 -300 179
-305 4 -4 30 -3 57 2 80 15 187 -2 271 -45 136 -69 230 -198 253 -351 32 -203
-94 -411 -294 -487 l-76 -29 0 -872 0 -871 171 -254 c94 -140 185 -276 202
-302 18 -26 35 -48 40 -48 4 0 7 263 7 585 l0 585 610 0 610 0 0 -585 c0 -322
3 -585 8 -585 4 0 98 136 210 303 l202 302 0 872 0 872 -47 14 c-179 53 -307
210 -328 404 -20 174 91 366 260 449 83 40 191 58 269 43 27 -5 53 -6 57 -2 4
5 85 142 179 306 l172 298 -28 41 c-48 68 -176 209 -255 279 -262 232 -550
379 -884 453 -94 21 -267 46 -320 46 -13 0 -15 -158 -15 -1515 l0 -1515 -90 0
-90 0 0 1515 0 1515 -27 -1 c-16 -1 -75 -7 -133 -15z"/>
<path d="M4125 3723 c-71 -124 -139 -241 -149 -259 l-19 -33 53 -58 c231 -252
121 -644 -212 -752 l-38 -13 0 -724 c0 -398 2 -724 5 -724 13 0 205 334 327
570 258 498 400 895 423 1190 15 176 -29 475 -100 687 -35 104 -142 343 -154
343 -3 0 -64 -102 -136 -227z"/>
<path d="M795 3826 c-167 -354 -230 -751 -170 -1065 68 -354 283 -849 622
-1430 47 -80 91 -153 99 -161 12 -12 14 91 14 712 l0 727 -47 15 c-130 39
-244 142 -292 265 -67 169 -33 356 89 485 27 29 50 55 50 58 0 13 -290 503
-299 506 -7 2 -36 -48 -66 -112z"/>
<path d="M2130 740 l0 -510 430 0 430 0 0 510 0 510 -430 0 -430 0 0 -510z"/>
</g>
</svg>
