<?xml version="1.0" standalone="no"?>
<!DOCTYPE svg PUBLIC "-//W3C//DTD SVG 20010904//EN"
 "http://www.w3.org/TR/2001/REC-SVG-20010904/DTD/svg10.dtd">
<svg version="1.0" xmlns="http://www.w3.org/2000/svg"
 width="512.000000pt" height="512.000000pt" viewBox="0 0 512.000000 512.000000"
 preserveAspectRatio="xMidYMid meet">
<metadata>
Created by potrace 1.15, written by Peter Selinger 2001-2017
</metadata>
<g transform="translate(0.000000,512.000000) scale(0.100000,-0.100000)"
fill="#ffffff" stroke="none">
<path d="M2156 4828 c-12 -122 -44 -171 -158 -243 -27 -17 -48 -33 -48 -37 0
-3 28 -9 63 -13 133 -14 183 -44 248 -148 40 -64 38 -61 43 -56 2 2 10 42 16
88 6 47 18 97 25 111 17 33 63 74 135 120 l54 35 -49 8 c-180 28 -199 38 -266
142 -23 36 -45 65 -49 65 -4 0 -11 -33 -14 -72z"/>
<path d="M2690 4304 c-217 -97 -504 -224 -637 -282 l-241 -107 -173 -225
c-250 -327 -252 -330 -246 -336 7 -8 797 -224 816 -224 9 0 162 105 341 234
l325 233 50 -46 c28 -25 81 -73 118 -106 l69 -59 -25 -22 c-14 -12 -46 -30
-72 -39 -43 -17 -50 -17 -121 -1 -110 24 -111 23 -58 -41 77 -95 88 -145 60
-268 -8 -33 -13 -61 -11 -63 2 -2 35 22 75 52 41 32 86 58 107 62 31 6 97 -2
188 -22 29 -7 29 -7 -23 58 -28 36 -56 77 -62 92 -11 30 -14 119 -4 129 4 4
28 -11 53 -33 l47 -39 230 210 c126 116 249 230 273 254 l44 43 -358 361
c-197 199 -361 361 -364 361 -3 -1 -184 -80 -401 -176z"/>
<path d="M959 4033 c64 -150 63 -188 -6 -341 -58 -128 -62 -124 60 -66 107 51
161 60 232 39 32 -9 94 -34 137 -56 43 -22 78 -35 78 -30 0 4 -19 48 -42 97
-39 81 -43 96 -43 169 0 75 3 86 48 179 26 54 46 101 44 103 -2 2 -52 -17
-111 -43 -153 -65 -217 -61 -373 27 -29 16 -57 29 -62 29 -5 0 12 -48 38 -107z"/>
<path d="M4364 3699 c-6 -8 -28 -45 -49 -84 -50 -90 -116 -157 -175 -174 -25
-7 -87 -21 -139 -30 l-95 -17 50 -28 c79 -45 174 -110 174 -119 0 -5 -66 -85
-147 -179 -82 -94 -201 -231 -266 -306 -72 -84 -115 -142 -112 -152 2 -8 16
-60 31 -115 14 -55 29 -103 32 -107 8 -7 881 -92 887 -86 2 2 -43 188 -100
413 l-103 410 33 32 c38 36 101 57 222 75 45 7 83 14 83 18 0 3 -47 32 -103
65 -145 86 -167 122 -204 349 -6 38 -10 46 -19 35z"/>
<path d="M576 2398 c-32 -147 -60 -246 -80 -286 -36 -72 -107 -129 -240 -195
-65 -32 -116 -60 -114 -62 2 -2 57 -16 123 -30 226 -50 274 -88 380 -295 31
-62 59 -110 61 -107 3 3 16 56 30 118 50 221 92 275 296 379 110 56 128 70 86
70 -45 0 -238 55 -291 83 -71 37 -124 106 -192 250 -26 54 -48 97 -51 97 -2 0
-6 -10 -8 -22z"/>
<path d="M2912 2307 c-11 -12 -46 -37 -76 -56 -63 -38 -110 -42 -213 -17 -35
8 -63 12 -63 9 0 -2 20 -30 44 -61 24 -32 51 -71 60 -89 17 -34 22 -108 8
-117 -5 -3 -44 16 -88 42 l-79 47 -60 122 c-33 67 -63 125 -66 128 -4 3 -69
-31 -144 -76 l-138 -81 -203 63 c-112 34 -206 60 -209 58 -5 -5 -95 -608 -95
-637 0 -16 557 -627 571 -627 4 0 190 171 413 379 320 299 404 382 394 391 -7
7 -59 40 -116 74 -56 35 -100 66 -97 71 11 18 77 40 122 40 27 0 73 -6 103
-14 30 -8 57 -13 58 -11 2 2 -19 33 -47 69 -67 88 -75 122 -56 222 8 44 15 82
15 87 0 14 -17 7 -38 -16z"/>
<path d="M4626 1907 c-16 -29 -49 -80 -72 -114 -55 -78 -110 -106 -251 -130
-57 -10 -103 -20 -103 -23 0 -3 24 -18 53 -33 87 -46 160 -100 184 -136 27
-40 46 -103 65 -216 l13 -80 49 84 c91 158 145 196 311 221 44 6 86 14 94 16
8 3 -21 25 -67 51 -161 91 -192 133 -220 298 -10 57 -20 106 -23 109 -2 3 -17
-18 -33 -47z"/>
<path d="M1410 1420 c-77 -85 -110 -99 -230 -100 l-85 0 77 -72 c87 -83 98
-108 98 -230 0 -43 3 -78 8 -77 4 0 30 28 57 62 72 88 98 100 222 107 l103 5
-60 48 c-94 75 -111 108 -119 227 l-6 101 -65 -71z"/>
<path d="M3416 1149 c-166 -182 -212 -227 -222 -218 -8 6 -32 38 -54 71 -46
69 -51 115 -25 223 8 32 13 61 11 63 -2 2 -19 -10 -37 -26 -105 -92 -161 -107
-288 -77 -35 9 -65 14 -67 12 -2 -2 17 -27 41 -57 25 -30 52 -69 60 -86 19
-40 19 -111 0 -189 -8 -32 -13 -60 -11 -62 1 -2 29 18 62 43 96 76 142 87 255
63 l51 -11 -46 -47 -45 -46 124 -284 c69 -156 126 -285 128 -287 4 -4 1359
-26 1363 -22 1 2 -47 141 -107 308 -61 168 -136 377 -168 464 l-58 160 -369
118 c-203 65 -373 117 -379 117 -5 0 -104 -104 -219 -230z"/>
<path d="M745 1260 c-77 -54 -206 -145 -287 -202 -82 -56 -148 -108 -148 -115
0 -16 157 -673 162 -678 2 -2 197 34 433 80 237 47 431 85 433 85 15 0 -28 53
-197 238 l-199 218 -21 221 c-11 121 -21 228 -21 237 0 9 -3 16 -7 15 -5 0
-71 -45 -148 -99z"/>
</g>
</svg>
