<?xml version="1.0" standalone="no"?>
<!DOCTYPE svg PUBLIC "-//W3C//DTD SVG 20010904//EN"
 "http://www.w3.org/TR/2001/REC-SVG-20010904/DTD/svg10.dtd">
<svg version="1.0" xmlns="http://www.w3.org/2000/svg"
 width="512.000000pt" height="512.000000pt" viewBox="0 0 512.000000 512.000000"
 preserveAspectRatio="xMidYMid meet">
<metadata>
Created by potrace 1.15, written by Peter Selinger 2001-2017
</metadata>
<g transform="translate(0.000000,512.000000) scale(0.100000,-0.100000)"
fill="#ffffff" stroke="none">
<path d="M2075 4735 c-159 -63 -303 -119 -319 -125 -16 -5 -26 -13 -23 -17 6
-5 364 -31 455 -32 l32 -1 0 -144 c0 -79 5 -157 11 -175 13 -38 54 -61 107
-61 21 0 222 34 447 75 225 41 410 73 412 71 2 -2 -64 -50 -147 -107 -83 -57
-208 -144 -278 -192 -155 -107 -182 -136 -182 -193 0 -57 43 -103 125 -133 59
-22 333 -52 1075 -117 102 -9 192 -18 200 -21 8 -2 -172 -76 -400 -162 -228
-87 -428 -164 -445 -170 -143 -57 -142 -255 3 -400 69 -69 92 -81 417 -231
301 -138 478 -220 530 -244 l30 -15 -50 -1 c-255 -4 -929 -32 -964 -40 -147
-35 -179 -129 -88 -257 16 -23 181 -188 366 -366 480 -463 660 -641 631 -625
-218 127 -1212 658 -1264 676 -57 20 -84 23 -139 19 -101 -7 -153 -52 -163
-142 -5 -45 7 -85 110 -387 63 -186 114 -338 112 -338 -1 0 -128 133 -281 295
-285 301 -341 349 -430 374 -59 16 -135 13 -175 -7 -57 -28 -65 -59 -95 -362
-15 -151 -30 -288 -34 -303 -5 -22 -22 25 -80 225 -139 478 -140 481 -253 537
-47 24 -74 31 -120 31 -94 0 -105 -10 -196 -182 -44 -84 -110 -209 -147 -278
l-67 -125 6 90 c23 404 29 615 18 653 -17 56 -62 92 -115 92 -50 0 -68 -10
-244 -141 -74 -56 -136 -99 -137 -97 -2 1 -36 110 -76 240 -40 131 -75 236
-78 234 -6 -6 18 -614 26 -657 l7 -36 169 45 c114 30 170 41 175 34 4 -6 19
-226 35 -489 15 -263 31 -491 35 -507 6 -28 18 -16 295 298 159 179 291 325
292 323 2 -2 123 -217 268 -477 145 -261 268 -476 273 -477 4 -2 57 189 117
424 60 236 112 433 115 439 5 9 205 -149 969 -769 62 -51 118 -94 123 -95 15
-6 12 20 -65 484 -41 247 -73 450 -71 452 2 3 441 -172 976 -387 534 -216 976
-390 981 -389 8 3 -50 79 -417 543 -482 609 -805 1021 -805 1025 0 3 91 21
203 39 111 18 369 59 572 92 204 33 376 62 384 65 7 2 -293 208 -667 457
l-681 452 67 27 c37 15 164 68 282 118 339 145 553 236 713 302 81 34 147 64
147 67 0 3 -159 51 -353 105 -193 55 -451 127 -572 162 -121 34 -296 83 -390
109 -93 26 -176 51 -183 55 -9 4 52 64 184 181 474 418 534 472 531 476 -2 2
-332 -46 -732 -107 -477 -72 -731 -107 -735 -100 -4 6 -15 100 -25 210 -15
171 -20 200 -34 199 -9 0 -146 -52 -306 -114z"/>
<path d="M1475 4154 c165 -82 267 -156 396 -284 237 -235 359 -495 361 -770 1
-137 -17 -220 -72 -335 -94 -195 -273 -334 -513 -398 -69 -18 -109 -21 -257
-22 -161 0 -184 2 -285 29 -195 50 -328 112 -490 226 -122 85 -286 253 -355
362 -30 48 -58 87 -62 87 -12 2 32 -142 78 -249 115 -275 353 -550 635 -733
231 -151 509 -256 762 -287 142 -18 368 -9 487 20 183 44 344 127 462 238 123
116 191 229 244 407 25 81 27 106 28 250 0 143 -3 172 -27 266 -81 314 -268
604 -532 825 -203 169 -415 284 -663 360 -99 30 -262 65 -296 64 -6 -1 39 -26
99 -56z"/>
</g>
</svg>
