<?xml version="1.0" standalone="no"?>
<!DOCTYPE svg PUBLIC "-//W3C//DTD SVG 20010904//EN"
 "http://www.w3.org/TR/2001/REC-SVG-20010904/DTD/svg10.dtd">
<svg version="1.0" xmlns="http://www.w3.org/2000/svg"
 width="512.000000pt" height="512.000000pt" viewBox="0 0 512.000000 512.000000"
 preserveAspectRatio="xMidYMid meet">
<metadata>
Created by potrace 1.15, written by Peter Selinger 2001-2017
</metadata>
<g transform="translate(0.000000,512.000000) scale(0.100000,-0.100000)"
fill="#ffffff" stroke="none">
<path d="M1195 4871 c-184 -53 -351 -211 -431 -409 -51 -127 -59 -176 -59
-362 0 -195 9 -245 73 -404 19 -50 31 -91 26 -93 -6 -2 -39 -20 -74 -41 -72
-41 -180 -143 -227 -213 -119 -175 -199 -430 -238 -765 -14 -115 -34 -539 -35
-716 l0 -68 213 -2 212 -3 52 -800 c28 -440 52 -808 52 -817 1 -17 95 -18
1825 -18 l1823 0 6 68 c3 37 27 406 53 820 l48 752 209 0 210 0 -6 328 c-6
318 -18 478 -52 652 -80 423 -225 671 -467 800 l-57 30 35 75 c62 133 79 226
78 420 0 143 -4 183 -22 250 -73 265 -255 460 -487 521 -41 11 -301 14 -1375
13 -1224 0 -1330 -2 -1385 -18z m2708 -186 c86 -22 135 -51 203 -119 115 -116
169 -264 168 -466 -2 -207 -60 -370 -188 -525 -36 -44 -66 -82 -66 -85 0 -3
50 -15 111 -27 147 -28 224 -66 309 -152 136 -137 221 -368 265 -716 15 -124
35 -419 35 -537 l0 -68 -205 0 c-165 0 -205 -3 -205 -13 0 -8 -22 -362 -50
-788 -27 -426 -50 -789 -50 -806 l0 -33 -1645 0 -1645 0 0 28 c0 15 -23 373
-50 797 -27 424 -50 780 -50 793 l0 22 -207 0 -206 0 7 187 c17 464 66 735
172 951 44 91 68 126 123 182 85 87 161 124 309 153 59 11 109 22 111 23 2 2
-27 41 -64 86 -77 94 -135 206 -166 323 -29 107 -32 309 -5 404 54 197 184
341 347 385 82 22 2557 23 2642 1z"/>
<path d="M1700 4515 c0 -3 15 -33 33 -67 18 -35 38 -78 45 -95 l11 -33 796 0
796 0 11 33 c6 17 26 61 45 96 18 35 33 65 33 67 0 2 -398 4 -885 4 -487 0
-885 -2 -885 -5z"/>
<path d="M1815 4063 c-3 -43 -9 -88 -12 -100 l-5 -23 787 0 787 0 -5 23 c-3
12 -9 57 -13 100 l-7 77 -762 0 -763 0 -7 -77z"/>
<path d="M1729 3728 c-7 -18 -35 -61 -61 -96 -26 -35 -48 -65 -48 -68 0 -2
434 -4 965 -4 531 0 965 3 965 6 0 3 -15 24 -34 46 -19 22 -47 64 -63 94 l-28
54 -841 0 -842 0 -13 -32z"/>
<path d="M1973 3317 c34 -35 71 -80 82 -100 l20 -37 506 0 507 0 46 64 c25 35
65 80 88 100 l43 36 -677 0 -677 0 62 -63z"/>
<path d="M2162 2988 c3 -7 15 -52 28 -100 l23 -88 372 0 373 0 20 83 c12 46
24 91 28 100 6 16 -26 17 -421 17 -338 0 -426 -3 -423 -12z"/>
<path d="M2244 2583 c3 -21 8 -64 12 -95 l6 -58 323 0 323 0 7 68 c3 37 9 79
11 95 l6 27 -347 0 -347 0 6 -37z"/>
<path d="M2270 2188 c0 -35 3 -80 6 -100 l7 -38 302 0 302 0 7 61 c3 34 6 79
6 100 l0 39 -315 0 -315 0 0 -62z"/>
<path d="M1856 1793 c-3 -42 -6 -87 -6 -100 l0 -23 736 0 737 0 -6 68 c-4 37
-7 82 -7 100 l0 32 -724 0 -723 0 -7 -77z"/>
<path d="M1839 1488 c-1 -2 -4 -47 -8 -101 l-6 -97 758 0 757 0 0 69 c0 38 -3
83 -6 100 l-6 31 -744 0 c-409 0 -744 -1 -745 -2z"/>
<path d="M1810 1071 c0 -21 -3 -66 -6 -100 l-7 -61 788 0 788 0 -7 53 c-3 28
-6 73 -6 100 l0 47 -775 0 -775 0 0 -39z"/>
<path d="M1786 693 c-3 -21 -6 -66 -6 -100 l0 -63 805 0 805 0 0 54 c0 29 -3
74 -6 100 l-7 46 -792 0 -792 0 -7 -37z"/>
</g>
</svg>
