<?xml version="1.0" standalone="no"?>
<!DOCTYPE svg PUBLIC "-//W3C//DTD SVG 20010904//EN"
 "http://www.w3.org/TR/2001/REC-SVG-20010904/DTD/svg10.dtd">
<svg version="1.0" xmlns="http://www.w3.org/2000/svg"
 width="512.000000pt" height="512.000000pt" viewBox="0 0 512.000000 512.000000"
 preserveAspectRatio="xMidYMid meet">
<metadata>
Created by potrace 1.15, written by Peter Selinger 2001-2017
</metadata>
<g transform="translate(0.000000,512.000000) scale(0.100000,-0.100000)"
fill="#ffffff" stroke="none">
<path d="M2300 4925 c-112 -21 -195 -49 -298 -100 -497 -242 -881 -833 -1032
-1585 -162 -808 -26 -1684 357 -2305 202 -326 489 -585 765 -689 179 -67 375
-91 538 -66 292 45 520 169 756 412 111 113 172 192 254 323 226 361 365 783
422 1280 16 140 16 565 0 715 -84 775 -386 1405 -850 1771 -136 108 -324 199
-482 234 -103 23 -334 28 -430 10z m-1038 -2461 c172 -148 340 -217 528 -218
153 0 287 49 426 155 l68 52 58 -63 58 -64 -33 -28 c-93 -82 -216 -151 -344
-194 -116 -39 -303 -45 -428 -14 -98 24 -245 89 -322 141 -48 32 -83 61 -157
127 l-38 34 58 59 c32 32 62 59 65 59 4 0 31 -21 61 -46z m2652 -13 c50 -50
57 -62 45 -73 -40 -38 -140 -119 -182 -147 -77 -52 -224 -117 -322 -141 -125
-31 -312 -25 -428 14 -128 43 -251 112 -344 194 l-32 28 58 63 58 64 68 -52
c293 -225 630 -207 938 51 38 32 72 58 76 58 4 0 33 -27 65 -59z m-1254 -1065
c289 -44 511 -205 590 -428 11 -31 22 -73 26 -95 l6 -39 -99 -23 c-237 -55
-348 -65 -663 -65 -314 0 -431 12 -662 65 -94 21 -98 23 -98 49 0 15 9 56 21
91 78 239 299 401 614 449 81 12 164 11 265 -4z"/>
</g>
</svg>
