<?xml version="1.0" standalone="no"?>
<!DOCTYPE svg PUBLIC "-//W3C//DTD SVG 20010904//EN"
 "http://www.w3.org/TR/2001/REC-SVG-20010904/DTD/svg10.dtd">
<svg version="1.0" xmlns="http://www.w3.org/2000/svg"
 width="512.000000pt" height="512.000000pt" viewBox="0 0 512.000000 512.000000"
 preserveAspectRatio="xMidYMid meet">
<metadata>
Created by potrace 1.15, written by Peter Selinger 2001-2017
</metadata>
<g transform="translate(0.000000,512.000000) scale(0.100000,-0.100000)"
fill="#ffffff" stroke="none">
<path d="M2350 4855 c-95 -17 -230 -55 -230 -65 0 -19 536 -254 830 -365 288
-108 934 -313 948 -300 15 14 -146 192 -271 300 -259 224 -570 380 -856 429
-114 19 -316 20 -421 1z"/>
<path d="M1810 4706 c-77 -29 -192 -89 -276 -144 -104 -69 -249 -192 -249
-212 0 -36 830 -272 1810 -513 l330 -82 333 -3 333 -3 15 36 c8 21 14 53 12
73 l-3 35 -135 34 c-661 163 -1375 425 -1970 723 -77 39 -145 70 -152 69 -7 0
-29 -6 -48 -13z"/>
<path d="M1135 4063 c-27 -71 -67 -166 -91 -213 -23 -47 -56 -124 -73 -172
-28 -81 -29 -88 -12 -88 10 0 99 9 197 20 394 43 1041 91 1409 106 94 3 185 9
204 13 30 6 23 9 -65 30 -398 95 -1117 295 -1356 377 -86 30 -158 54 -161 54
-2 0 -26 -57 -52 -127z"/>
<path d="M3270 3569 c-629 -15 -1300 -53 -1845 -105 -257 -24 -630 -66 -635
-71 -14 -13 -11 -175 4 -225 24 -80 22 -78 99 -68 494 70 1267 104 2043 89
425 -8 1132 -33 1263 -44 l64 -6 -6 138 c-6 142 -21 212 -57 271 l-20 32 -297
-2 c-164 0 -440 -5 -613 -9z"/>
<path d="M1390 3022 c0 -5 20 -46 45 -91 129 -233 258 -383 355 -412 106 -32
319 60 450 195 l44 46 -96 0 c-239 0 -528 95 -772 255 -14 10 -26 13 -26 7z"/>
<path d="M3670 2994 c-90 -57 -268 -140 -372 -173 -130 -41 -250 -61 -366 -61
l-96 0 44 -46 c95 -98 263 -189 366 -200 49 -5 69 -3 108 15 60 26 144 111
222 226 68 99 156 254 152 266 -2 4 -28 -8 -58 -27z"/>
<path d="M4036 2879 c-10 -57 -35 -173 -57 -258 -21 -85 -39 -156 -39 -158 0
-1 38 -3 85 -3 l84 0 5 33 c30 205 41 267 63 360 14 60 23 111 20 113 -2 3
-36 8 -74 11 l-69 6 -18 -104z"/>
<path d="M902 2930 c-29 -4 -56 -10 -58 -13 -3 -3 7 -52 23 -108 l28 -104 95
-21 c52 -12 96 -20 98 -19 2 2 -4 29 -14 61 -9 31 -22 92 -28 133 l-12 76 -39
1 c-22 1 -64 -2 -93 -6z"/>
<path d="M675 2598 c-54 -133 -176 -369 -245 -477 -38 -58 -55 -93 -47 -96 6
-2 37 -11 67 -21 71 -22 145 -59 192 -95 l36 -29 35 42 c19 24 59 81 90 128
l54 85 -14 80 c-18 94 -112 456 -123 468 -4 4 -24 -34 -45 -85z"/>
<path d="M985 2443 c18 -182 45 -310 89 -414 l15 -37 138 -26 c649 -123 1333
-180 2310 -193 l471 -6 11 39 c21 75 50 230 56 299 3 39 8 95 11 126 l5 56
-493 -5 c-977 -10 -1743 53 -2477 203 -68 14 -128 25 -133 25 -6 0 -7 -27 -3
-67z"/>
<path d="M1160 1798 c0 -2 18 -49 41 -103 50 -124 101 -275 129 -385 12 -47
23 -86 24 -88 2 -1 54 9 117 22 584 126 1288 186 1989 171 195 -5 375 -9 399
-9 l45 -1 22 90 c13 49 22 90 21 92 -2 1 -218 7 -482 13 -1029 23 -1497 63
-2272 197 -18 3 -33 4 -33 1z"/>
<path d="M2742 1233 c-50 -5 -50 -1 7 -126 l37 -80 54 74 c29 41 64 89 78 107
l24 32 -78 -2 c-44 -1 -98 -3 -122 -5z"/>
<path d="M3512 1054 c-51 -103 -91 -188 -89 -190 2 -2 41 1 88 8 l84 11 70
170 c39 94 72 174 73 179 2 4 -27 8 -65 8 l-68 0 -93 -186z"/>
<path d="M3904 1183 c-9 -21 -47 -113 -85 -204 -38 -91 -69 -172 -69 -180 0
-26 100 -222 155 -303 29 -45 73 -100 97 -124 l44 -43 55 93 c52 88 151 202
214 246 l30 20 -30 23 c-124 96 -252 253 -335 410 -28 54 -53 99 -56 99 -3 0
-12 -17 -20 -37z"/>
<path d="M2350 1204 c-8 -1 -46 -6 -83 -9 l-68 -7 19 -31 c11 -18 45 -76 76
-130 32 -54 60 -97 62 -94 5 5 74 256 74 270 0 7 -50 8 -80 1z"/>
<path d="M1530 1081 c-41 -7 -76 -15 -77 -16 -2 -1 12 -37 31 -81 l33 -79 79
-17 c43 -9 80 -16 81 -15 1 1 -15 52 -35 112 l-37 110 -75 -14z"/>
<path d="M2017 970 c-41 -135 -41 -137 -20 -143 10 -3 56 -9 102 -12 l83 -7
-53 99 c-90 167 -82 162 -112 63z"/>
<path d="M2557 906 l-36 -106 95 0 95 0 -52 98 c-29 53 -55 101 -59 105 -4 5
-24 -39 -43 -97z"/>
<path d="M3008 994 c-15 -24 -69 -176 -65 -181 10 -10 137 9 137 21 -1 22 -67
169 -72 160z"/>
<path d="M1603 698 c37 -96 76 -179 96 -206 52 -70 201 -158 346 -205 169 -54
139 -59 315 45 210 124 430 273 430 293 0 4 -57 4 -127 0 -229 -12 -677 19
-940 65 -133 24 -126 23 -120 8z"/>
<path d="M3450 690 c-25 -4 -121 -16 -215 -25 l-170 -18 -85 -83 c-121 -118
-166 -151 -450 -333 l-35 -22 150 5 c286 9 532 83 700 209 74 56 93 81 133
182 34 84 37 96 25 94 -5 -1 -28 -5 -53 -9z"/>
</g>
</svg>
