<?xml version="1.0" standalone="no"?>
<!DOCTYPE svg PUBLIC "-//W3C//DTD SVG 20010904//EN"
 "http://www.w3.org/TR/2001/REC-SVG-20010904/DTD/svg10.dtd">
<svg version="1.0" xmlns="http://www.w3.org/2000/svg"
 width="512.000000pt" height="512.000000pt" viewBox="0 0 512.000000 512.000000"
 preserveAspectRatio="xMidYMid meet">
<metadata>
Created by potrace 1.15, written by Peter Selinger 2001-2017
</metadata>
<g transform="translate(0.000000,512.000000) scale(0.100000,-0.100000)"
fill="#ffffff" stroke="none">
<path d="M2410 4012 l0 -818 -57 -18 c-326 -102 -445 -492 -235 -769 38 -50
170 -147 201 -147 13 0 22 16 35 61 24 87 76 161 145 207 75 50 132 65 224 60
62 -3 87 -10 145 -39 l71 -36 10 26 c48 119 38 278 -23 399 -54 107 -176 208
-288 239 l-58 16 0 819 0 818 -85 0 -85 0 0 -818z"/>
<path d="M3484 3717 c-66 -56 -228 -191 -359 -301 l-237 -199 60 -60 60 -60
249 206 c136 113 263 219 280 234 30 25 35 38 53 138 12 61 23 118 26 128 3 9
2 17 -3 17 -4 -1 -62 -47 -129 -103z"/>
<path d="M3762 3773 c-27 -126 -29 -116 30 -139 29 -12 190 -78 356 -148 167
-70 305 -126 307 -124 2 2 17 37 33 78 l30 75 -46 21 c-86 40 -680 284 -690
284 -6 0 -15 -21 -20 -47z"/>
<path d="M1475 3541 c4 -57 10 -112 13 -122 7 -19 452 -371 463 -366 4 1 30
30 58 64 l51 61 -227 178 c-215 167 -303 237 -347 273 -18 16 -18 13 -11 -88z"/>
<path d="M1040 3472 c-146 -87 -300 -178 -342 -202 -44 -26 -78 -51 -77 -60 0
-15 72 -135 80 -135 2 0 145 83 317 184 l313 183 -7 87 c-3 47 -9 89 -13 93
-3 4 -126 -64 -271 -150z"/>
<path d="M3596 3080 c-285 -44 -520 -80 -522 -82 -2 -2 9 -39 23 -82 l26 -78
56 6 c31 4 160 22 286 42 127 19 304 46 395 60 91 13 177 27 191 30 22 4 31
18 57 88 18 46 32 86 32 90 0 8 33 13 -544 -74z"/>
<path d="M1243 3094 c3 -10 13 -55 23 -100 l17 -80 273 -112 c150 -62 280
-115 287 -118 11 -4 15 12 20 69 4 41 9 81 12 89 4 11 -68 43 -302 137 -169
68 -314 126 -322 129 -9 3 -12 -1 -8 -14z"/>
<path d="M4269 3063 c-6 -15 -21 -56 -35 -91 l-24 -63 208 -304 c114 -167 211
-304 217 -305 17 0 135 85 131 95 -7 19 -467 684 -476 690 -6 4 -15 -6 -21
-22z"/>
<path d="M836 2545 c-142 -278 -256 -508 -254 -510 1 -1 36 -19 75 -39 l72
-36 14 28 c8 15 103 202 212 415 l197 388 -22 117 c-13 64 -26 123 -30 131 -5
8 -102 -174 -264 -494z"/>
<path d="M3127 2657 c-3 -45 -4 -84 -1 -86 4 -4 612 -70 649 -71 15 0 30 20
59 75 22 41 37 77 35 80 -3 2 -154 20 -335 40 -181 19 -345 37 -365 40 l-36 5
-6 -83z"/>
<path d="M3971 2515 c-22 -42 -41 -81 -41 -86 0 -5 69 -107 153 -227 85 -119
267 -379 407 -577 139 -198 264 -375 277 -393 l25 -33 66 47 c37 26 68 48 70
49 3 3 -883 1262 -903 1283 -10 11 -20 -1 -54 -63z"/>
<path d="M1845 2469 c-16 -5 -158 -43 -314 -84 -157 -42 -287 -78 -290 -80 -6
-7 87 -145 98 -145 5 0 145 36 312 80 166 44 308 80 316 80 19 0 17 8 -24 87
-39 75 -45 78 -98 62z"/>
<path d="M2615 2424 c-147 -76 -163 -273 -29 -362 110 -73 245 -38 305 79 37
74 17 191 -42 246 -56 51 -172 70 -234 37z"/>
<path d="M3050 2401 c-8 -21 -9 -39 -1 -67 6 -22 12 -50 13 -63 3 -20 50 -50
311 -193 170 -93 314 -167 321 -165 24 9 109 118 100 127 -5 4 -81 48 -169 95
-88 48 -182 100 -210 115 -225 123 -333 180 -342 180 -6 0 -16 -13 -23 -29z"/>
<path d="M1039 2137 c-30 -45 -234 -342 -453 -661 -218 -318 -395 -580 -394
-581 34 -25 129 -85 136 -85 5 0 85 111 179 248 603 878 694 1014 689 1028 -9
25 -86 134 -94 134 -4 -1 -32 -38 -63 -83z"/>
<path d="M2044 2097 c-47 -51 -172 -178 -276 -283 l-189 -191 83 -36 83 -36
213 212 c117 117 240 242 273 278 l59 67 -79 40 -79 41 -88 -92z"/>
<path d="M2953 1977 c-4 -8 -27 -26 -50 -42 -24 -15 -43 -30 -43 -34 0 -3 31
-23 69 -43 l69 -38 7 -85 c4 -47 11 -87 16 -91 5 -3 9 -2 9 3 0 4 13 56 29
115 l29 108 -50 60 c-52 61 -70 71 -85 47z"/>
<path d="M2566 1845 c-14 -105 -12 -108 62 -162 107 -79 133 -96 138 -90 3 3
-17 36 -43 74 -27 37 -52 74 -57 80 -4 7 2 34 13 59 12 26 21 50 21 54 0 4
-15 10 -32 13 -18 3 -47 9 -64 12 -31 7 -31 6 -38 -40z"/>
<path d="M3792 1790 c-51 -60 -70 -90 -67 -105 3 -11 34 -234 70 -495 36 -261
68 -488 71 -503 6 -27 7 -28 52 -21 93 13 117 20 115 35 -34 266 -156 1139
-162 1153 -6 17 -18 8 -79 -64z"/>
<path d="M1550 1459 c0 -11 198 -602 331 -990 l61 -177 79 26 c43 15 79 29 79
32 0 3 -78 237 -174 520 l-174 515 -93 42 c-104 46 -109 48 -109 32z"/>
</g>
</svg>
