<?xml version="1.0" standalone="no"?>
<!DOCTYPE svg PUBLIC "-//W3C//DTD SVG 20010904//EN"
 "http://www.w3.org/TR/2001/REC-SVG-20010904/DTD/svg10.dtd">
<svg version="1.0" xmlns="http://www.w3.org/2000/svg"
 width="512.000000pt" height="512.000000pt" viewBox="0 0 512.000000 512.000000"
 preserveAspectRatio="xMidYMid meet">
<metadata>
Created by potrace 1.15, written by Peter Selinger 2001-2017
</metadata>
<g transform="translate(0.000000,512.000000) scale(0.100000,-0.100000)"
fill="#ffffff" stroke="none">
<path d="M847 4640 c-13 -35 -187 -869 -187 -896 0 -16 19 -115 42 -221 36
-167 44 -192 62 -197 41 -11 153 -6 206 10 60 18 124 73 135 115 5 21 -219
1107 -244 1179 -6 18 -10 21 -14 10z"/>
<path d="M1516 4579 c-9 -41 -43 -201 -75 -356 l-59 -282 87 -308 87 -308 43
2 c70 3 144 45 172 97 l23 45 -123 578 c-68 318 -127 584 -131 592 -5 9 -14
-12 -24 -60z"/>
<path d="M2210 4642 c0 -5 -34 -165 -75 -356 l-75 -348 151 -294 c83 -162 155
-294 161 -294 37 0 98 75 98 122 1 36 -244 1178 -252 1178 -5 0 -8 -4 -8 -8z"/>
<path d="M2772 4072 c-67 -317 -123 -587 -122 -600 0 -47 61 -122 98 -122 6 0
78 132 161 294 l151 294 -77 356 c-42 196 -79 356 -82 356 -3 0 -61 -260 -129
-578z"/>
<path d="M3576 4633 c-3 -10 -60 -272 -126 -582 -81 -373 -120 -575 -116 -595
12 -64 102 -125 188 -129 l42 -2 87 308 87 308 -74 351 c-41 193 -76 353 -78
355 -2 3 -7 -4 -10 -14z"/>
<path d="M4257 4628 c-48 -191 -246 -1159 -242 -1177 11 -42 75 -97 135 -115
53 -16 165 -21 206 -10 18 5 26 30 62 197 23 106 42 205 42 221 0 36 -180 888
-190 899 -4 5 -10 -2 -13 -15z"/>
<path d="M181 3968 l-1 -648 26 0 c14 0 45 5 69 11 l43 11 17 76 c9 43 25 114
35 160 l18 83 -99 467 c-55 257 -101 472 -104 477 -2 6 -4 -281 -4 -637z"/>
<path d="M4833 4135 l-101 -475 34 -155 c19 -86 34 -158 34 -159 0 -6 89 -26
114 -26 l26 0 0 645 c0 355 -1 645 -3 645 -2 0 -49 -214 -104 -475z"/>
<path d="M414 2973 l-111 -516 68 -320 c38 -176 69 -321 69 -323 0 -2 34 -4
75 -4 86 0 165 15 216 41 47 24 105 89 114 129 5 24 -34 224 -151 771 -88 407
-161 739 -164 739 -3 0 -55 -232 -116 -517z"/>
<path d="M1336 3480 c-3 -8 -42 -177 -86 -375 l-81 -360 117 -468 117 -467 36
6 c100 17 191 84 213 155 11 38 1 91 -142 757 -169 791 -165 774 -174 752z"/>
<path d="M2147 3475 c-10 -32 -157 -719 -157 -732 0 -6 27 -76 59 -155 33 -79
115 -276 181 -438 67 -162 123 -296 124 -297 1 -1 19 9 39 23 42 28 77 89 77
134 0 29 -291 1406 -309 1460 -7 23 -8 24 -14 5z"/>
<path d="M2957 3469 c-3 -13 -74 -341 -157 -729 -110 -511 -151 -717 -147
-747 5 -48 40 -99 84 -125 l29 -17 127 307 c69 169 152 369 183 444 l57 138
-78 362 c-43 200 -81 369 -85 377 -5 10 -9 7 -13 -10z"/>
<path d="M3770 3485 c0 -5 -70 -334 -155 -730 -85 -397 -155 -734 -155 -749 0
-38 34 -101 69 -126 40 -27 107 -56 152 -64 l36 -6 117 466 117 467 -82 366
c-45 201 -86 370 -90 376 -5 5 -9 5 -9 0z"/>
<path d="M4426 2752 c-118 -553 -157 -747 -151 -771 8 -39 65 -105 109 -128
54 -28 128 -43 214 -43 45 0 82 2 82 4 0 2 31 147 69 323 l68 320 -111 516
c-61 285 -113 517 -116 517 -3 0 -76 -332 -164 -738z"/>
<path d="M922 1393 c-106 -494 -192 -913 -192 -931 0 -142 168 -252 385 -252
224 0 394 107 395 250 0 39 -381 1830 -390 1830 -3 0 -92 -404 -198 -897z"/>
<path d="M1882 1393 c-106 -494 -192 -913 -192 -931 0 -142 168 -252 385 -252
224 0 394 107 395 250 0 39 -381 1830 -390 1830 -3 0 -92 -404 -198 -897z"/>
<path d="M2842 1393 c-106 -494 -192 -913 -192 -931 0 -142 168 -252 385 -252
224 0 394 107 395 250 0 39 -381 1830 -390 1830 -3 0 -92 -404 -198 -897z"/>
<path d="M3802 1393 c-106 -494 -192 -913 -192 -931 0 -142 168 -252 385 -252
224 0 394 107 395 250 0 39 -381 1830 -390 1830 -3 0 -92 -404 -198 -897z"/>
<path d="M181 1208 l-1 -998 30 0 c49 0 132 21 182 46 99 50 157 126 158 205
0 27 -325 1572 -363 1724 -2 11 -5 -429 -6 -977z"/>
<path d="M4752 1347 c-100 -468 -182 -867 -182 -885 0 -45 25 -101 63 -140 57
-60 187 -112 277 -112 l30 0 0 995 c0 547 -1 995 -2 995 -2 0 -85 -384 -186
-853z"/>
</g>
</svg>
