<?xml version="1.0" standalone="no"?>
<!DOCTYPE svg PUBLIC "-//W3C//DTD SVG 20010904//EN"
 "http://www.w3.org/TR/2001/REC-SVG-20010904/DTD/svg10.dtd">
<svg version="1.0" xmlns="http://www.w3.org/2000/svg"
 width="512.000000pt" height="512.000000pt" viewBox="0 0 512.000000 512.000000"
 preserveAspectRatio="xMidYMid meet">
<metadata>
Created by potrace 1.15, written by Peter Selinger 2001-2017
</metadata>
<g transform="translate(0.000000,512.000000) scale(0.100000,-0.100000)"
fill="#ffffff" stroke="none">
<path d="M1960 4871 c-63 -10 -155 -29 -204 -41 -344 -86 -645 -305 -752 -545
-24 -55 -46 -163 -35 -169 3 -1 56 1 116 6 119 10 281 -2 394 -28 112 -26 219
-90 278 -168 27 -36 73 -141 73 -166 0 -6 -22 6 -48 25 -66 47 -161 90 -257
117 -70 19 -104 22 -285 22 -221 0 -304 -11 -464 -60 -211 -66 -365 -194 -456
-379 -62 -127 -82 -216 -82 -365 1 -513 381 -925 827 -897 50 3 122 15 162 25
l72 20 15 -42 c9 -22 33 -97 55 -166 113 -351 238 -488 477 -521 196 -27 287
-101 334 -269 11 -41 32 -160 45 -265 14 -104 32 -211 41 -237 64 -196 308
-375 669 -491 61 -19 129 -38 153 -42 l43 -7 -45 89 c-61 123 -111 248 -146
370 -43 150 -53 215 -54 338 -1 129 23 220 76 297 190 272 249 378 308 555 83
250 76 470 -22 671 -138 282 -426 469 -807 523 -228 32 -527 -35 -650 -146
-66 -60 -84 -105 -78 -189 7 -107 60 -208 181 -347 31 -35 54 -65 52 -66 -7
-7 -157 67 -213 105 -79 54 -159 141 -188 204 -31 69 -49 184 -40 264 21 198
235 382 559 480 208 63 402 71 591 25 535 -132 847 -382 951 -761 24 -89 29
-289 10 -398 -39 -226 -144 -470 -313 -731 -30 -46 -51 -87 -46 -91 14 -13
135 -49 243 -71 86 -18 138 -22 290 -22 161 0 200 3 300 25 448 98 755 356
788 662 35 323 -138 639 -423 772 -135 63 -283 71 -381 21 -54 -27 -133 -107
-164 -166 l-19 -36 -1 41 c-1 121 104 287 208 331 52 22 136 18 180 -7 26 -16
37 -18 43 -9 13 21 22 259 16 424 -27 745 -383 1192 -1107 1391 -264 73 -515
104 -890 109 -224 4 -283 2 -380 -14z"/>
</g>
</svg>
