<?xml version="1.0" standalone="no"?>
<!DOCTYPE svg PUBLIC "-//W3C//DTD SVG 20010904//EN"
 "http://www.w3.org/TR/2001/REC-SVG-20010904/DTD/svg10.dtd">
<svg version="1.0" xmlns="http://www.w3.org/2000/svg"
 width="512.000000pt" height="512.000000pt" viewBox="0 0 512.000000 512.000000"
 preserveAspectRatio="xMidYMid meet">
<metadata>
Created by potrace 1.15, written by Peter Selinger 2001-2017
</metadata>
<g transform="translate(0.000000,512.000000) scale(0.100000,-0.100000)"
fill="#ffffff" stroke="none">
<path d="M1367 4788 c95 -123 455 -568 463 -573 16 -10 91 38 136 87 87 94
186 266 161 279 -13 7 -752 219 -763 219 -4 0 -2 -6 3 -12z"/>
<path d="M3362 4690 c-205 -59 -375 -109 -377 -112 -15 -15 98 -199 169 -276
45 -49 120 -97 136 -87 8 5 368 450 463 573 6 8 5 12 -4 11 -8 -1 -182 -50
-387 -109z"/>
<path d="M916 4556 c-109 -164 -267 -308 -452 -414 l-81 -46 -36 -90 c-78
-201 -110 -396 -111 -671 0 -214 14 -333 59 -515 41 -163 134 -394 160 -395 6
0 18 34 28 75 9 41 27 115 38 164 35 148 68 209 132 243 72 37 167 2 235 -87
20 -27 41 -48 45 -47 4 1 22 36 40 77 89 204 210 312 352 314 49 1 73 -5 129
-33 61 -30 72 -32 90 -21 75 47 267 120 317 120 10 0 19 4 19 10 0 8 -51 71
-183 226 l-28 33 20 113 c10 62 18 113 17 114 0 0 -64 36 -141 79 -77 43 -193
111 -258 152 -66 40 -122 73 -126 73 -4 0 -1 -28 6 -62 21 -92 20 -269 0 -348
-22 -82 -76 -198 -123 -262 l-36 -49 -57 47 c-31 26 -60 51 -64 55 -5 3 8 29
28 57 19 28 48 79 63 114 24 57 26 75 27 193 0 94 -5 153 -19 213 -11 45 -22
82 -26 82 -3 0 -45 -36 -92 -79 -168 -154 -263 -215 -359 -230 l-49 -8 0 87
c0 87 0 88 28 93 72 16 284 186 466 375 l39 41 116 -78 c211 -141 577 -361
600 -361 8 0 31 105 31 142 0 10 -44 40 -117 80 -240 130 -437 272 -588 425
l-83 84 -56 -85z"/>
<path d="M4080 4572 c-143 -150 -362 -310 -603 -440 -73 -40 -117 -70 -117
-80 0 -37 23 -142 31 -142 23 0 389 220 600 361 l116 78 39 -41 c182 -189 394
-359 467 -375 27 -5 27 -6 27 -93 l0 -87 -49 8 c-96 15 -191 76 -359 230 -47
43 -89 79 -92 79 -15 0 -43 -155 -47 -262 -7 -143 14 -221 82 -324 25 -37 42
-70 38 -74 -5 -4 -34 -28 -65 -54 l-57 -47 -32 43 c-44 60 -105 191 -126 268
-20 79 -21 256 0 348 7 34 10 62 6 62 -4 0 -60 -33 -126 -73 -65 -41 -181
-109 -258 -152 -77 -43 -141 -79 -141 -79 -1 -1 7 -52 17 -114 l20 -113 -28
-33 c-132 -155 -183 -218 -183 -226 0 -6 9 -10 19 -10 50 0 242 -73 317 -120
18 -11 29 -9 90 21 56 28 80 34 129 33 142 -2 263 -110 352 -314 18 -41 36
-76 40 -77 4 -1 25 20 45 47 91 119 218 135 292 37 34 -45 61 -123 96 -287 17
-73 34 -138 39 -143 18 -18 97 153 145 313 58 197 80 357 80 595 -1 275 -33
470 -111 671 l-36 90 -81 46 c-185 106 -343 250 -452 414 -31 46 -57 84 -58
84 -1 0 -31 -31 -66 -68z"/>
<path d="M2372 4507 l-83 -22 -32 -60 c-76 -142 -210 -300 -286 -340 -36 -18
-31 2 -80 -298 l-40 -238 165 -200 c91 -109 167 -199 169 -199 2 0 43 50 91
110 l87 110 54 0 54 0 -3 61 -3 61 -80 23 c-87 25 -322 121 -330 136 -9 14 65
151 78 146 7 -3 60 -26 119 -50 135 -58 240 -87 308 -87 68 0 173 29 308 87
59 24 112 47 119 50 13 5 87 -132 78 -146 -8 -15 -243 -111 -330 -136 l-80
-23 -3 -61 -3 -61 54 0 54 0 87 -110 c48 -60 89 -110 91 -110 2 0 78 90 169
199 l165 200 -40 238 c-21 131 -41 247 -44 259 -2 11 -27 35 -54 52 -85 56
-207 205 -274 337 l-25 51 -79 18 c-43 10 -84 21 -90 23 -10 4 -13 -36 -13
-181 l0 -186 -90 0 -90 0 0 185 c0 102 -3 185 -7 184 -5 0 -45 -11 -91 -22z"/>
<path d="M2373 3111 c-35 -44 -63 -82 -63 -85 0 -3 17 -17 37 -31 37 -24 42
-25 213 -25 171 0 176 1 213 25 20 14 37 28 37 31 0 3 -28 41 -62 85 l-63 79
-125 0 -125 0 -62 -79z"/>
<path d="M1862 3055 c-122 -31 -234 -86 -288 -141 -39 -38 -44 -49 -44 -88 0
-158 100 -457 261 -778 45 -90 60 -143 215 -761 l166 -665 -92 -136 c-50 -75
-93 -143 -96 -151 -4 -10 35 0 127 30 73 25 138 45 144 45 6 0 54 -38 107 -85
53 -47 99 -85 102 -85 3 0 6 92 6 205 l0 205 -159 638 c-152 612 -159 642
-164 762 -8 188 -48 355 -102 418 l-24 29 59 58 c69 68 69 68 132 -29 63 -98
97 -227 114 -438 l6 -78 228 0 228 0 6 78 c17 211 51 340 114 438 63 97 63 97
132 29 l59 -58 -24 -29 c-54 -63 -94 -230 -102 -418 -5 -120 -12 -150 -164
-762 l-159 -638 0 -205 c0 -113 3 -205 6 -205 3 0 49 38 102 85 53 47 101 85
107 85 6 0 71 -20 144 -45 92 -30 131 -40 127 -30 -3 8 -46 76 -96 151 l-92
136 166 665 c155 618 170 671 215 761 161 321 261 620 261 778 0 40 -5 50 -46
90 -25 24 -79 60 -120 80 -73 35 -243 84 -292 84 -19 0 -51 -26 -127 -102
-174 -176 -202 -188 -445 -188 -243 0 -271 12 -445 188 -116 117 -108 115
-253 77z"/>
<path d="M1425 2282 c-142 -78 -235 -171 -235 -235 0 -48 30 -178 71 -304 94
-290 228 -532 402 -725 43 -49 78 -91 76 -93 -2 -2 -114 -47 -249 -101 -135
-53 -249 -100 -253 -104 -4 -4 60 -9 143 -12 83 -3 154 -8 157 -12 3 -3 -15
-54 -41 -112 -25 -59 -45 -108 -44 -110 2 -1 64 15 138 37 74 21 142 38 150
39 9 0 36 -20 60 -45 24 -25 47 -45 51 -45 3 0 35 44 72 99 l65 98 -153 614
-154 614 -79 165 c-44 91 -88 186 -98 212 -10 27 -21 48 -24 48 -3 0 -27 -13
-55 -28z"/>
<path d="M3616 2262 c-10 -26 -54 -121 -98 -212 l-79 -165 -154 -614 -153
-614 65 -98 c37 -55 69 -99 72 -99 4 0 27 20 51 45 24 25 51 45 60 45 8 -1 76
-18 150 -39 74 -22 136 -38 138 -37 1 2 -19 51 -44 110 -26 58 -44 109 -41
112 3 4 74 9 157 12 83 3 147 8 143 12 -4 4 -118 51 -253 104 -135 54 -247 99
-249 101 -2 2 33 44 76 93 174 193 308 435 402 725 41 126 71 256 71 304 0 48
-60 121 -150 183 -47 32 -133 80 -142 80 -2 0 -12 -21 -22 -48z"/>
<path d="M2352 1818 c3 -7 49 -192 104 -410 54 -219 101 -398 104 -398 3 0 50
179 104 398 55 218 101 403 104 410 3 9 -43 12 -208 12 -165 0 -211 -3 -208
-12z"/>
</g>
</svg>
