<?xml version="1.0" standalone="no"?>
<!DOCTYPE svg PUBLIC "-//W3C//DTD SVG 20010904//EN"
 "http://www.w3.org/TR/2001/REC-SVG-20010904/DTD/svg10.dtd">
<svg version="1.0" xmlns="http://www.w3.org/2000/svg"
 width="512.000000pt" height="512.000000pt" viewBox="0 0 512.000000 512.000000"
 preserveAspectRatio="xMidYMid meet">
<metadata>
Created by potrace 1.15, written by Peter Selinger 2001-2017
</metadata>
<g transform="translate(0.000000,512.000000) scale(0.100000,-0.100000)"
fill="#ffffff" stroke="none">
<path d="M815 4647 l-610 -293 -3 -112 -3 -111 178 85 c98 48 210 101 248 119
39 18 216 103 395 189 178 86 320 152 315 147 -6 -5 -217 -166 -470 -358 -253
-192 -506 -385 -562 -428 l-103 -78 0 -568 c0 -313 2 -569 5 -569 3 0 135 47
293 104 158 57 433 157 612 221 179 64 341 124 360 132 34 15 29 17 -275 63
-301 45 -308 47 -260 58 83 19 1739 422 1753 427 7 3 11 1 8 -3 -2 -4 -565
-412 -1250 -907 l-1245 -900 -1 -224 c0 -203 1 -223 17 -217 9 4 205 109 437
235 676 367 2670 1448 2801 1518 200 108 247 135 242 139 -2 2 -174 -34 -382
-81 -207 -47 -380 -85 -384 -85 -3 0 129 84 294 186 165 102 416 258 558 346
l257 161 303 114 c166 63 370 139 452 170 83 30 154 59 158 63 4 4 6 52 5 108
l-3 101 -260 -98 c-633 -239 -573 -220 -1125 -354 -283 -69 -516 -124 -517
-123 -1 1 90 64 203 140 204 137 212 141 952 502 l747 364 3 55 3 55 -115 0
-114 0 -544 -264 c-299 -145 -579 -276 -623 -291 -44 -15 -338 -117 -654 -226
-316 -110 -576 -197 -578 -195 -3 2 6 11 19 19 45 28 253 160 303 192 28 18
300 191 605 385 305 193 562 358 570 366 12 12 -44 14 -399 14 l-413 0 -916
-461 c-505 -254 -912 -457 -907 -452 12 12 763 598 997 777 86 67 157 124 157
129 1 4 -207 7 -461 7 l-463 -1 -610 -292z"/>
<path d="M4655 3519 c-160 -94 -375 -222 -480 -284 -289 -171 -592 -349 -1000
-590 -744 -439 -860 -507 -864 -511 -14 -13 13 -10 74 6 440 116 1358 350
1361 347 18 -18 -364 -223 -1401 -752 -643 -328 -1249 -637 -1345 -686 -96
-49 -164 -80 -150 -68 28 24 737 652 872 773 49 43 87 81 84 83 -2 3 -365
-176 -805 -397 l-801 -402 0 -429 0 -429 170 0 171 0 597 403 597 403 665 268
c759 306 718 290 705 278 -11 -10 -189 -143 -464 -347 -96 -71 -169 -131 -164
-132 6 -2 239 66 518 152 279 86 509 154 511 152 2 -1 -465 -261 -1037 -577
-572 -316 -1034 -576 -1027 -577 7 -2 636 220 1398 492 761 271 1386 492 1388
491 1 -2 -169 -124 -379 -272 -210 -147 -377 -270 -372 -271 5 -2 281 74 613
168 333 94 665 187 738 207 l132 36 0 543 c0 299 -2 543 -5 543 -7 0 -1346
-500 -1360 -507 -7 -4 -7 -3 0 4 7 7 560 451 684 550 2 2 2 5 -1 8 -4 5 -924
-315 -1197 -416 -29 -11 -55 -18 -58 -16 -2 2 182 125 409 273 227 147 483
314 568 369 197 129 661 429 679 440 7 4 2 -12 -12 -36 -171 -293 -206 -354
-202 -357 2 -2 114 38 249 89 l246 93 0 528 c0 290 -3 528 -8 528 -4 0 -138
-77 -297 -171z"/>
</g>
</svg>
