<?xml version="1.0" standalone="no"?>
<!DOCTYPE svg PUBLIC "-//W3C//DTD SVG 20010904//EN"
 "http://www.w3.org/TR/2001/REC-SVG-20010904/DTD/svg10.dtd">
<svg version="1.0" xmlns="http://www.w3.org/2000/svg"
 width="512.000000pt" height="512.000000pt" viewBox="0 0 512.000000 512.000000"
 preserveAspectRatio="xMidYMid meet">
<metadata>
Created by potrace 1.15, written by Peter Selinger 2001-2017
</metadata>
<g transform="translate(0.000000,512.000000) scale(0.100000,-0.100000)"
fill="#ffffff" stroke="none">
<path d="M2696 4795 c-96 -307 -241 -502 -414 -555 -35 -11 -85 -20 -111 -20
-60 0 -169 39 -240 86 -77 51 -223 201 -300 309 -70 99 -71 99 -36 -50 22 -94
31 -324 16 -411 -36 -203 -162 -339 -348 -374 -129 -25 -369 27 -558 120 -45
22 -85 40 -90 40 -5 0 16 -26 46 -57 298 -308 393 -603 258 -806 -38 -58 -126
-127 -212 -168 -108 -50 -336 -99 -464 -99 -24 0 -43 -4 -43 -10 0 -5 7 -10
16 -10 37 0 234 -74 326 -122 226 -118 342 -271 341 -449 -1 -179 -127 -367
-371 -551 -50 -38 -92 -71 -92 -72 0 -2 46 8 102 21 145 34 360 42 460 18 149
-35 264 -126 309 -243 27 -70 36 -212 20 -309 -18 -102 -74 -261 -136 -384
-30 -60 -53 -109 -50 -109 3 0 52 46 109 103 157 155 313 259 456 301 69 21
192 22 248 2 203 -72 321 -317 348 -724 4 -56 8 -101 11 -99 2 3 17 54 33 114
75 287 191 489 331 580 101 65 183 78 290 47 139 -41 314 -197 453 -407 43
-65 80 -116 82 -115 1 2 -8 39 -21 83 -54 189 -71 430 -40 564 58 245 234 368
490 341 144 -15 262 -52 427 -136 49 -24 93 -44 99 -44 5 0 -27 37 -71 82
-150 153 -247 297 -295 443 -34 101 -33 222 4 297 86 178 319 284 671 307 63
4 108 10 100 13 -8 4 -58 19 -110 34 -52 15 -153 55 -225 89 -192 93 -298 195
-345 336 -56 165 13 353 196 531 83 81 197 171 271 215 24 14 42 27 39 30 -2
2 -35 -5 -74 -16 -126 -38 -255 -62 -367 -68 -312 -16 -495 98 -536 336 -24
136 27 353 135 570 30 61 51 111 47 111 -4 0 -18 -12 -32 -26 -88 -96 -264
-231 -374 -287 -209 -105 -414 -85 -539 55 -98 108 -163 295 -189 538 l-13
125 -38 -120z m124 -810 c126 -148 160 -175 219 -175 14 0 115 18 223 38 173
34 198 36 203 23 2 -9 22 -113 44 -231 29 -153 46 -219 58 -231 10 -9 61 -31
113 -48 123 -42 324 -113 328 -117 2 -1 -31 -100 -72 -218 -42 -119 -76 -225
-76 -236 0 -12 67 -97 154 -198 l153 -178 -169 -145 c-106 -89 -175 -156 -184
-175 -12 -28 -9 -54 26 -240 22 -115 40 -216 40 -225 0 -12 -23 -19 -97 -33
-314 -55 -320 -57 -361 -95 -35 -32 -46 -57 -107 -231 -37 -107 -69 -197 -71
-199 -2 -2 -88 27 -193 64 l-189 67 -71 -13 c-71 -13 -71 -14 -225 -145 l-154
-133 -121 143 -121 143 -95 31 -96 32 -181 -35 c-100 -19 -183 -33 -183 -32
-1 1 -16 80 -33 176 l-32 174 -53 56 c-29 31 -62 69 -72 85 -22 33 -39 41
-220 103 -71 25 -132 47 -134 49 -2 1 22 75 53 163 l56 161 -20 99 c-11 54
-20 109 -20 121 0 20 -95 139 -202 256 l-28 30 135 115 c127 108 136 117 151
168 8 29 26 77 38 105 l23 53 -32 174 c-18 96 -30 177 -26 180 3 4 87 21 186
39 169 30 182 34 215 65 19 17 51 44 71 59 34 24 42 42 99 206 34 99 66 180
71 180 4 0 18 -4 31 -10 13 -5 95 -35 183 -66 l160 -56 70 12 70 12 155 133
c144 123 156 131 170 115 8 -10 71 -84 140 -165z"/>
<path d="M2305 3714 c-310 -56 -573 -217 -763 -469 -95 -125 -201 -372 -214
-495 l-3 -35 384 -53 c250 -35 386 -51 390 -44 3 6 30 107 60 226 51 208 54
216 78 216 13 0 108 -9 210 -20 102 -12 188 -20 192 -18 5 2 -89 673 -98 706
-3 8 -168 -2 -236 -14z"/>
<path d="M2730 3691 c0 -23 99 -693 103 -696 1 -1 86 -10 190 -21 103 -10 192
-21 198 -25 10 -6 -73 -132 -309 -469 -44 -63 -77 -118 -73 -122 10 -12 714
-357 734 -361 13 -3 72 150 96 245 83 335 21 680 -172 968 -65 96 -221 251
-316 315 -126 83 -284 151 -418 180 -29 6 -33 4 -33 -14z"/>
<path d="M2346 2858 c-3 -7 -29 -109 -60 -226 -30 -117 -56 -215 -58 -217 -2
-2 -208 25 -458 61 -250 35 -456 64 -457 64 -8 0 -1 -127 11 -200 42 -261 165
-493 357 -676 208 -197 444 -301 753 -329 55 -6 68 -4 64 7 -3 7 -47 139 -98
293 l-93 281 149 214 c324 464 466 671 463 674 -2 2 -114 15 -249 30 -135 14
-262 29 -282 32 -27 4 -39 2 -42 -8z"/>
<path d="M2655 2108 c-38 -56 -89 -129 -111 -162 l-41 -59 90 -270 90 -269 41
5 c187 26 419 142 592 294 62 54 164 173 164 189 0 5 -26 21 -58 36 -31 15
-200 97 -374 182 -175 86 -319 156 -320 156 -2 0 -34 -46 -73 -102z"/>
</g>
</svg>
