<?xml version="1.0" standalone="no"?>
<!DOCTYPE svg PUBLIC "-//W3C//DTD SVG 20010904//EN"
 "http://www.w3.org/TR/2001/REC-SVG-20010904/DTD/svg10.dtd">
<svg version="1.0" xmlns="http://www.w3.org/2000/svg"
 width="512.000000pt" height="512.000000pt" viewBox="0 0 512.000000 512.000000"
 preserveAspectRatio="xMidYMid meet">
<metadata>
Created by potrace 1.15, written by Peter Selinger 2001-2017
</metadata>
<g transform="translate(0.000000,512.000000) scale(0.100000,-0.100000)"
fill="#ffffff" stroke="none">
<path d="M180 3901 l0 -1039 52 -47 c150 -133 483 -317 740 -409 261 -94 450
-128 587 -107 88 13 443 131 541 180 121 60 196 136 220 220 15 55 7 298 -10
314 -3 3 -39 -1 -80 -9 -93 -16 -188 -17 -301 -3 l-88 11 -57 -31 c-31 -18
-57 -31 -58 -29 -9 11 -76 137 -76 141 0 3 35 27 79 52 139 83 270 210 395
384 46 64 57 86 52 106 l-6 24 -68 -34 c-90 -45 -160 -59 -268 -53 -82 4 -233
44 -257 67 -4 4 2 32 14 62 11 30 25 64 29 76 l9 21 88 -30 c163 -57 279 -38
389 64 49 45 106 123 143 196 l22 43 -127 147 c-69 81 -241 276 -381 435
l-255 287 -664 0 -664 0 0 -1039z m577 968 c148 -63 551 -268 689 -350 100
-60 124 -80 72 -60 -29 11 -209 34 -215 27 -3 -3 5 -31 18 -63 33 -85 33 -219
0 -286 -65 -133 -218 -136 -334 -8 -72 80 -107 178 -107 304 l0 79 -97 -7
c-138 -9 -271 -32 -317 -55 -22 -11 -41 -18 -42 -17 -7 8 192 487 203 487 7 0
65 -23 130 -51z"/>
<path d="M1064 4445 c-27 -65 -13 -162 31 -212 19 -23 27 -26 42 -17 55 33 48
188 -11 247 -26 26 -46 21 -62 -18z"/>
<path d="M2035 4913 c40 -62 189 -234 284 -327 l100 -100 103 32 c165 52 241
64 353 59 60 -2 122 -12 156 -23 l56 -19 -26 -81 -26 -82 -40 16 c-55 21 -199
20 -304 -2 -83 -18 -292 -85 -338 -110 -24 -12 -24 -12 47 -94 l71 -81 -37
-80 -36 -80 40 -49 c101 -120 269 -264 442 -378 236 -155 432 -241 581 -251
171 -12 255 65 294 272 9 43 16 80 18 81 1 1 25 -2 52 -7 28 -5 65 -11 83 -14
29 -5 32 -9 26 -33 -3 -15 -7 -36 -9 -47 -3 -16 3 -24 28 -34 372 -148 578
-200 830 -208 l157 -6 0 397 0 396 -62 -48 c-85 -66 -245 -181 -257 -184 -5
-2 -30 26 -55 62 l-47 65 28 22 c16 12 75 57 133 99 58 42 140 106 183 141
l77 65 0 329 0 329 -1461 0 -1461 0 17 -27z m1065 -699 c132 -31 299 -133 420
-258 l55 -56 -57 -57 -57 -56 -78 68 c-229 201 -410 252 -551 158 -36 -25 -90
-84 -112 -122 -6 -11 -22 -6 -79 25 -39 22 -71 43 -71 48 0 16 72 106 121 150
113 102 255 137 409 100z"/>
<path d="M2215 3364 c-10 -15 -51 -65 -92 -111 -41 -47 -72 -87 -69 -90 9 -9
208 15 220 27 9 9 -20 177 -34 193 -4 4 -15 -4 -25 -19z"/>
<path d="M3830 3263 c-25 -38 -45 -71 -45 -74 0 -3 43 -41 95 -84 269 -223
502 -499 642 -763 23 -42 66 -114 96 -160 220 -335 328 -794 282 -1207 -15
-135 -16 -138 -83 -206 -244 -246 -639 -419 -1137 -496 -164 -25 -502 -25
-620 0 -96 21 -140 38 -191 73 -75 52 -81 71 -114 374 l-8 65 -47 -53 c-131
-146 -269 -378 -315 -529 l-6 -23 1280 0 1281 0 0 1461 0 1462 -50 -7 c-71
-10 -284 11 -424 40 -132 28 -384 107 -509 160 -45 19 -82 34 -82 34 -1 0 -21
-30 -45 -67z"/>
<path d="M180 2375 l0 -254 158 -118 c271 -201 821 -605 963 -706 122 -87 159
-108 159 -92 0 3 16 58 35 121 20 64 62 214 95 334 l59 217 -6 132 c-5 106 -9
131 -20 127 -34 -14 -177 -17 -261 -7 -319 39 -829 249 -1111 456 -34 25 -63
45 -66 45 -3 0 -5 -115 -5 -255z"/>
<path d="M4228 2313 c-19 -3 -45 -25 -80 -65 -62 -70 -97 -91 -154 -90 -49 0
-71 11 -139 64 -47 37 -53 40 -99 34 -61 -7 -68 -13 -113 -98 -59 -113 -105
-134 -204 -93 -84 35 -148 36 -221 3 -51 -24 -57 -30 -73 -77 -31 -94 -98
-125 -204 -96 -73 21 -177 16 -216 -9 -70 -46 -115 -153 -115 -272 0 -89 7
-107 68 -186 109 -141 178 -293 217 -478 14 -67 55 -389 55 -432 0 -41 139
-83 313 -94 l107 -7 0 85 c0 259 -68 624 -164 878 l-34 92 75 34 c42 19 77 33
78 32 6 -6 48 -114 77 -198 76 -223 126 -500 135 -742 3 -93 9 -168 12 -168
61 2 397 65 419 79 11 6 -34 277 -84 501 -36 160 -112 388 -168 498 -26 51
-44 97 -41 102 6 9 127 80 137 80 3 0 30 -53 61 -117 104 -219 167 -434 233
-798 20 -110 38 -202 40 -204 6 -7 65 15 163 60 l84 39 -7 123 c-22 371 -87
670 -190 862 l-43 82 72 45 73 46 51 -98 c107 -205 170 -460 202 -820 6 -69
12 -127 14 -129 5 -4 89 66 128 106 25 27 28 40 38 144 31 350 -67 761 -249
1044 -49 78 -178 235 -192 235 -4 0 -14 2 -22 3 -7 2 -25 2 -40 0z"/>
<path d="M180 1045 l0 -865 1011 2 1010 3 25 75 c62 187 193 406 359 598 54
62 94 117 89 121 -5 4 -169 104 -364 222 -337 203 -360 219 -454 311 -55 54
-100 97 -101 95 -2 -1 -19 -61 -39 -134 -57 -207 -116 -384 -141 -429 -27 -46
-71 -70 -107 -59 -46 14 -346 228 -980 697 l-308 227 0 -864z"/>
</g>
</svg>
