<?xml version="1.0" standalone="no"?>
<!DOCTYPE svg PUBLIC "-//W3C//DTD SVG 20010904//EN"
 "http://www.w3.org/TR/2001/REC-SVG-20010904/DTD/svg10.dtd">
<svg version="1.0" xmlns="http://www.w3.org/2000/svg"
 width="512.000000pt" height="512.000000pt" viewBox="0 0 512.000000 512.000000"
 preserveAspectRatio="xMidYMid meet">
<metadata>
Created by potrace 1.15, written by Peter Selinger 2001-2017
</metadata>
<g transform="translate(0.000000,512.000000) scale(0.100000,-0.100000)"
fill="#ffffff" stroke="none">
<path d="M170 4893 l0 -48 158 -65 159 -65 -19 -70 c-27 -106 -47 -219 -57
-333 -5 -57 -11 -105 -13 -107 -2 -2 -51 3 -108 10 -58 8 -108 15 -112 15 -5
0 -8 -144 -8 -320 0 -249 3 -320 13 -320 6 0 67 7 134 16 67 9 128 14 136 11
8 -3 18 -22 21 -42 11 -58 65 -209 111 -314 24 -53 42 -97 40 -99 -1 -1 -103
-44 -226 -95 l-224 -93 -3 -432 c-1 -238 0 -432 3 -432 3 0 34 22 68 48 34 27
186 145 337 262 151 118 293 229 314 247 22 18 45 33 51 33 6 0 46 -36 90 -81
44 -44 122 -112 172 -151 l93 -71 -21 -28 c-11 -16 -48 -64 -82 -108 -34 -43
-142 -182 -239 -307 -97 -126 -314 -407 -482 -624 l-306 -395 0 -378 0 -377
402 2 402 3 400 982 c320 784 404 981 416 976 47 -20 249 -74 333 -89 70 -13
97 -22 97 -32 0 -8 -54 -416 -120 -907 -66 -492 -120 -903 -120 -914 0 -21 1
-21 510 -21 486 0 510 1 510 18 0 10 -54 421 -120 913 -66 492 -119 900 -118
908 2 10 29 19 83 28 103 18 224 47 299 73 33 11 63 17 67 13 3 -5 122 -291
262 -638 141 -346 318 -783 394 -970 l138 -340 468 -3 467 -2 0 295 0 296
-492 635 c-657 847 -692 892 -727 940 l-29 40 86 66 c48 36 127 103 175 148
l88 82 95 -73 c53 -41 170 -130 259 -199 90 -69 245 -188 345 -265 100 -77
186 -142 191 -143 6 -2 8 171 7 454 l-3 457 -70 29 c-38 16 -164 68 -280 115
-115 47 -212 87 -214 89 -2 2 14 43 36 91 45 99 94 229 118 316 9 31 22 57 28
57 7 0 93 -11 192 -25 99 -14 183 -25 188 -25 4 0 7 155 7 345 0 285 -2 345
-14 345 -7 0 -80 -9 -161 -20 -81 -11 -151 -20 -155 -20 -4 0 -11 35 -14 78
-10 111 -34 254 -57 346 -11 43 -17 82 -12 86 4 5 99 45 211 90 183 75 202 85
202 106 l0 24 -568 0 -569 0 -74 -57 c-41 -31 -131 -100 -202 -155 -70 -54
-131 -98 -136 -98 -4 0 -13 11 -19 24 -6 13 -40 59 -75 103 l-65 80 39 51 40
52 -821 0 -822 0 29 -37 c48 -61 48 -60 -2 -115 -25 -28 -62 -76 -82 -108
l-37 -57 -129 101 c-70 56 -161 127 -200 158 l-72 57 -502 1 -503 0 0 -47z
m4189 -355 c29 -143 55 -358 42 -358 -6 0 -561 -74 -811 -108 l-57 -8 -6 90
c-4 50 -9 105 -13 122 -5 28 -3 33 17 39 21 7 481 195 709 289 47 20 88 36 91
36 4 0 16 -46 28 -102z m-3358 -39 c173 -72 344 -142 382 -157 66 -26 67 -28
61 -57 -4 -16 -10 -73 -13 -125 l-6 -96 -390 52 c-214 29 -400 53 -412 53 -21
1 -23 6 -23 51 0 58 23 222 46 324 18 77 21 86 33 86 4 0 149 -59 322 -131z
m524 -827 c19 -46 39 -90 46 -98 7 -8 10 -16 8 -18 -17 -16 -763 -316 -768
-309 -19 21 -92 199 -122 291 -24 76 -29 106 -20 111 6 4 57 13 114 20 56 7
224 30 372 51 149 21 285 38 303 37 32 -2 34 -6 67 -85z m2394 23 c227 -30
415 -55 417 -55 9 0 2 -32 -22 -106 -33 -101 -124 -304 -135 -304 -9 0 -107
40 -399 160 -69 28 -187 76 -263 107 -76 31 -136 59 -135 62 51 111 96 191
109 191 8 0 201 -25 428 -55z m-286 -697 l248 -191 -23 -25 c-60 -64 -269
-232 -289 -232 -3 0 -42 46 -86 103 -280 360 -433 557 -433 560 0 2 30 28 68
57 37 30 68 57 70 61 2 5 47 -26 100 -67 53 -42 209 -161 345 -266z m-1798
265 l85 -66 -27 -36 c-32 -42 -402 -519 -443 -571 l-27 -35 -59 40 c-64 44
-256 224 -252 236 2 4 64 55 138 112 74 58 216 169 315 246 99 77 181 141 183
141 1 0 40 -30 87 -67z m1085 -408 c40 -99 105 -259 145 -357 l72 -176 -71
-21 c-103 -30 -223 -58 -283 -66 l-52 -7 -5 34 c-13 74 -105 782 -103 785 2 1
43 14 92 28 49 15 92 29 95 31 6 7 12 -7 110 -251z m-597 200 c36 -6 37 -7 32
-38 -5 -29 -105 -775 -105 -782 0 -12 -217 36 -322 71 l-77 25 18 47 c11 26
76 187 145 357 70 171 131 322 137 336 l10 26 62 -18 c34 -10 79 -20 100 -24z"/>
</g>
</svg>
