<?xml version="1.0" standalone="no"?>
<!DOCTYPE svg PUBLIC "-//W3C//DTD SVG 20010904//EN"
 "http://www.w3.org/TR/2001/REC-SVG-20010904/DTD/svg10.dtd">
<svg version="1.0" xmlns="http://www.w3.org/2000/svg"
 width="512.000000pt" height="512.000000pt" viewBox="0 0 512.000000 512.000000"
 preserveAspectRatio="xMidYMid meet">
<metadata>
Created by potrace 1.15, written by Peter Selinger 2001-2017
</metadata>
<g transform="translate(0.000000,512.000000) scale(0.100000,-0.100000)"
fill="#ffffff" stroke="none">
<path d="M784 4948 c173 -179 167 -455 -12 -635 -62 -63 -128 -98 -223 -120
-140 -31 -295 17 -404 125 l-55 55 0 -509 c0 -482 1 -519 25 -703 13 -107 26
-196 29 -198 6 -6 9 13 92 497 43 250 80 458 84 462 3 4 61 -164 129 -375 68
-210 127 -386 131 -390 8 -9 17 132 26 440 l7 211 174 -150 c95 -83 176 -148
179 -146 3 3 -22 123 -54 267 -32 143 -57 261 -54 261 3 0 123 -61 268 -135
145 -75 264 -133 264 -130 0 4 -81 109 -180 233 l-179 227 87 6 c48 4 165 10
260 14 94 4 172 10 172 14 0 3 -17 14 -38 24 -20 10 -119 60 -220 110 l-183
93 268 58 c147 33 272 62 276 66 7 6 -66 21 -353 68 -103 18 -105 18 -80 34
14 9 126 75 250 147 l225 131 -481 0 -480 0 50 -52z"/>
<path d="M1850 4854 c-175 -91 -176 -92 -169 -98 2 -2 202 7 444 20 567 30
540 30 440 -6 -44 -16 -264 -92 -489 -170 -225 -77 -416 -145 -425 -150 -19
-10 -52 -2 314 -80 154 -34 378 -82 498 -108 120 -26 214 -48 210 -49 -4 -1
-235 -23 -513 -48 -278 -25 -518 -49 -535 -53 -25 -7 28 -32 430 -201 585
-247 592 -250 580 -251 -5 0 -234 29 -509 65 -274 36 -504 64 -510 62 -6 -2
191 -164 437 -361 246 -196 447 -358 447 -360 0 -2 -190 85 -422 194 -233 108
-424 194 -426 189 -2 -4 45 -85 104 -181 59 -95 158 -255 220 -356 l113 -182
-147 137 c-81 75 -176 164 -212 198 -139 130 -455 422 -498 460 -34 30 -44 35
-40 20 3 -11 103 -254 223 -540 292 -699 305 -729 302 -732 -2 -1 -153 194
-337 433 -184 239 -341 440 -348 447 -12 10 -14 5 -8 -28 15 -98 117 -969 114
-982 -2 -8 -75 145 -162 339 -230 509 -236 521 -241 516 -3 -2 -32 -261 -65
-574 -33 -313 -64 -582 -68 -598 -5 -22 -39 136 -132 622 -68 359 -127 652
-130 652 -3 0 -40 -107 -83 -239 l-77 -238 2 -539 3 -539 97 225 c89 206 97
221 102 190 9 -50 196 -1450 196 -1467 0 -7 3 -13 8 -13 4 0 59 385 122 855
63 470 118 855 121 855 3 0 16 -26 29 -57 13 -32 90 -213 170 -403 81 -190
261 -615 401 -945 140 -330 255 -592 257 -584 2 9 -51 456 -118 994 -66 538
-119 980 -117 981 3 3 264 -328 541 -685 321 -413 589 -751 593 -748 2 3 -129
328 -293 723 -163 396 -316 768 -341 829 -25 60 -49 118 -55 129 -8 14 -7 17
4 10 11 -7 1624 -1212 1656 -1237 7 -5 15 -8 17 -5 3 3 -196 270 -442 594
-561 739 -828 1092 -872 1150 l-34 46 34 -15 c239 -99 1831 -728 1835 -724 3
2 -192 159 -433 348 -241 188 -493 386 -559 438 -177 139 -366 288 -389 305
-15 11 -16 15 -5 16 12 0 791 -99 1763 -224 97 -12 177 -20 177 -16 0 3 -213
96 -472 205 -1294 543 -1342 564 -1317 569 13 3 155 23 314 45 777 108 1720
243 1724 246 6 7 -34 13 -264 45 -121 16 -452 61 -735 100 -283 39 -598 82
-700 95 -242 33 -324 45 -327 49 -1 1 244 105 545 230 301 126 551 232 556
237 6 5 -401 9 -975 9 l-984 0 -165 -86z"/>
</g>
</svg>
