<?xml version="1.0" standalone="no"?>
<!DOCTYPE svg PUBLIC "-//W3C//DTD SVG 20010904//EN"
 "http://www.w3.org/TR/2001/REC-SVG-20010904/DTD/svg10.dtd">
<svg version="1.0" xmlns="http://www.w3.org/2000/svg"
 width="512.000000pt" height="512.000000pt" viewBox="0 0 512.000000 512.000000"
 preserveAspectRatio="xMidYMid meet">
<metadata>
Created by potrace 1.15, written by Peter Selinger 2001-2017
</metadata>
<g transform="translate(0.000000,512.000000) scale(0.100000,-0.100000)"
fill="#ffffff" stroke="none">
<path d="M1111 4719 c-106 -22 -247 -74 -330 -121 -273 -154 -475 -423 -553
-735 -18 -73 -22 -117 -23 -253 0 -182 11 -257 58 -390 138 -396 464 -673 875
-745 196 -34 565 0 545 50 -8 23 -643 1127 -726 1263 -27 45 -47 86 -43 90 4
4 349 8 767 10 543 2 759 6 759 14 0 23 -53 155 -93 232 -165 318 -480 539
-847 596 -105 16 -283 11 -389 -11z"/>
<path d="M3625 4724 c-170 -30 -291 -78 -432 -170 -144 -93 -273 -229 -361
-379 -43 -73 -95 -197 -107 -252 l-7 -33 770 0 771 0 -88 -152 c-48 -84 -130
-225 -180 -313 -418 -722 -523 -907 -518 -912 19 -18 177 -45 297 -50 385 -16
732 146 964 450 291 382 303 917 29 1325 -212 315 -569 504 -947 501 -61 0
-147 -7 -191 -15z"/>
<path d="M1210 3703 c0 -13 385 -673 392 -673 5 0 8 11 8 23 0 39 38 174 67
240 61 139 155 268 258 357 28 24 52 47 53 51 2 5 -172 9 -387 9 -215 0 -391
-3 -391 -7z"/>
<path d="M2371 3689 c-153 -40 -319 -146 -416 -267 -55 -68 -129 -214 -151
-297 -35 -136 -29 -313 16 -457 30 -95 30 -95 86 -62 145 84 286 213 374 340
70 101 136 244 167 361 20 77 27 130 30 251 6 176 16 163 -106 131z"/>
<path d="M2680 3603 c0 -312 110 -589 320 -802 83 -85 156 -142 242 -190 66
-37 62 -40 97 73 113 368 -55 766 -400 946 -68 35 -205 80 -246 80 -10 0 -13
-24 -13 -107z"/>
<path d="M3222 3649 c156 -140 266 -331 308 -534 9 -44 21 -79 25 -78 9 1 385
650 385 664 0 5 -164 9 -392 9 l-393 0 67 -61z"/>
<path d="M2350 2590 c-112 -23 -196 -52 -289 -100 -127 -64 -124 -58 -60 -125
92 -98 233 -182 363 -217 108 -28 263 -34 366 -14 106 22 235 77 309 131 68
51 161 143 161 160 0 15 -180 105 -267 134 -158 53 -418 67 -583 31z"/>
<path d="M1752 2258 c-138 -144 -232 -317 -284 -525 -20 -76 -23 -113 -22
-268 1 -160 4 -191 27 -277 91 -341 325 -621 633 -756 345 -151 742 -128 1063
63 259 154 443 402 522 703 27 100 37 330 19 439 -27 168 -90 335 -179 469
-40 60 -166 204 -179 204 -4 0 -20 -24 -36 -53 -29 -51 -187 -325 -529 -917
-93 -162 -180 -310 -192 -327 l-22 -33 -12 27 c-19 42 -732 1277 -746 1291
-10 11 -22 3 -63 -40z"/>
<path d="M2200 1983 c12 -21 101 -174 198 -341 96 -167 178 -299 183 -295 12
12 389 666 386 669 -1 2 -44 -10 -95 -26 -214 -67 -422 -65 -610 6 -35 13 -69
24 -74 24 -6 0 0 -17 12 -37z"/>
</g>
</svg>
