<?xml version="1.0" standalone="no"?>
<!DOCTYPE svg PUBLIC "-//W3C//DTD SVG 20010904//EN"
 "http://www.w3.org/TR/2001/REC-SVG-20010904/DTD/svg10.dtd">
<svg version="1.0" xmlns="http://www.w3.org/2000/svg"
 width="512.000000pt" height="512.000000pt" viewBox="0 0 512.000000 512.000000"
 preserveAspectRatio="xMidYMid meet">
<metadata>
Created by potrace 1.15, written by Peter Selinger 2001-2017
</metadata>
<g transform="translate(0.000000,512.000000) scale(0.100000,-0.100000)"
fill="#ffffff" stroke="none">
<path d="M598 4848 c-235 -470 -295 -974 -176 -1483 110 -472 407 -928 796
-1224 83 -63 219 -151 234 -151 8 0 15 39 22 136 l6 72 -97 68 c-127 90 -322
280 -417 405 -449 592 -533 1373 -220 2028 29 62 70 139 89 171 19 32 35 60
35 64 0 3 -51 6 -113 6 l-113 0 -46 -92z"/>
<path d="M1285 4880 c-260 -314 -391 -735 -356 -1138 32 -359 163 -669 396
-935 68 -78 198 -197 215 -197 4 0 19 43 35 95 l28 95 -81 84 c-181 189 -295
390 -356 631 -123 483 5 965 353 1327 l93 98 -138 0 -139 0 -50 -60z"/>
<path d="M3517 4863 c243 -241 385 -546 413 -887 32 -400 -111 -797 -389
-1082 l-60 -61 29 -99 c19 -66 33 -98 42 -96 7 1 63 54 125 117 216 222 358
487 425 799 19 86 22 132 22 311 0 179 -3 225 -22 312 -59 270 -172 510 -331
701 l-52 62 -140 0 -141 0 79 -77z"/>
<path d="M4180 4935 c0 -3 11 -23 24 -44 33 -51 118 -221 149 -296 242 -585
169 -1284 -190 -1820 -135 -200 -278 -349 -477 -496 -83 -61 -86 -65 -86 -104
0 -68 12 -175 20 -175 4 0 51 29 104 65 383 256 678 629 838 1059 151 409 169
908 48 1329 -39 134 -107 306 -163 409 l-42 78 -112 0 c-62 0 -113 -2 -113 -5z"/>
<path d="M2407 4910 c-235 -27 -453 -133 -623 -304 -95 -96 -151 -175 -210
-300 -73 -154 -89 -233 -89 -431 0 -145 3 -183 23 -257 46 -173 121 -319 221
-430 l54 -59 36 34 c20 19 53 46 73 62 l38 27 -44 52 c-143 168 -208 345 -209
571 -1 129 16 210 69 338 101 241 343 435 614 493 87 18 243 18 338 -2 132
-27 276 -97 386 -188 116 -95 223 -269 267 -432 32 -117 33 -328 1 -438 -29
-101 -98 -234 -162 -314 -46 -58 -48 -62 -30 -72 11 -6 46 -33 79 -60 l60 -50
62 83 c80 105 152 255 185 382 51 197 32 450 -49 649 -134 328 -440 576 -782
635 -93 16 -222 20 -308 11z"/>
<path d="M2430 4351 c-116 -38 -218 -136 -283 -271 -60 -126 -72 -181 -72
-325 1 -198 50 -329 181 -487 l64 -76 -57 -12 c-172 -34 -220 -53 -295 -119
-203 -179 -312 -594 -334 -1263 l-7 -208 196 0 c151 0 197 -3 198 -12 0 -7 24
-323 52 -703 l52 -690 422 -3 421 -2 5 42 c3 24 25 341 49 705 l42 663 189 0
189 0 -7 228 c-16 580 -60 846 -178 1077 -27 53 -62 101 -102 140 -94 94 -129
109 -362 152 l-43 8 60 75 c109 135 166 277 177 440 18 265 -113 529 -307 618
-43 20 -74 27 -140 29 -47 1 -96 -1 -110 -6z"/>
</g>
</svg>
