<?xml version="1.0" standalone="no"?>
<!DOCTYPE svg PUBLIC "-//W3C//DTD SVG 20010904//EN"
 "http://www.w3.org/TR/2001/REC-SVG-20010904/DTD/svg10.dtd">
<svg version="1.0" xmlns="http://www.w3.org/2000/svg"
 width="512.000000pt" height="512.000000pt" viewBox="0 0 512.000000 512.000000"
 preserveAspectRatio="xMidYMid meet">
<metadata>
Created by potrace 1.15, written by Peter Selinger 2001-2017
</metadata>
<g transform="translate(0.000000,512.000000) scale(0.100000,-0.100000)"
fill="#ffffff" stroke="none">
<path d="M841 4799 c-77 -31 -159 -149 -192 -278 l-13 -51 -56 0 c-206 0 -351
-155 -389 -417 -64 -430 188 -1170 651 -1916 44 -71 82 -127 84 -124 2 2 -14
48 -36 103 -240 588 -376 1165 -342 1445 24 194 86 286 207 312 125 26 316
-57 530 -228 l73 -58 -56 -34 c-156 -93 -202 -209 -152 -374 21 -71 148 -329
161 -329 3 0 9 33 11 73 8 101 39 174 123 286 40 53 83 116 96 141 l23 43 68
-74 c187 -201 426 -506 620 -789 58 -85 126 -183 149 -217 24 -35 70 -101 102
-147 l59 -84 -34 -44 c-19 -25 -45 -71 -58 -104 -59 -150 -122 -232 -220 -289
l-35 -20 75 -3 c103 -4 248 14 317 40 76 28 134 82 142 133 l6 39 95 -115
c448 -541 943 -921 1335 -1024 135 -35 310 -39 389 -9 10 4 16 1 16 -7 0 -8 7
-66 14 -130 17 -140 10 -187 -39 -282 -19 -37 -31 -67 -27 -67 5 0 62 35 128
78 213 140 281 247 228 358 -16 34 -117 134 -135 134 -5 0 12 27 40 59 104
126 145 257 144 461 -1 229 -58 442 -188 705 -107 216 -239 409 -397 579 -17
18 -16 21 27 68 131 146 174 285 132 428 -58 197 -312 384 -697 513 -74 25
-153 49 -175 53 l-40 7 67 -71 c81 -86 129 -181 163 -319 13 -54 34 -143 47
-198 14 -55 28 -107 32 -117 5 -11 -14 -5 -66 22 -297 156 -721 183 -904 57
-63 -44 -89 -94 -88 -172 1 -153 159 -316 409 -421 83 -35 141 -48 68 -15
-124 57 -210 229 -182 363 15 71 76 130 148 148 65 15 161 7 235 -21 77 -28
243 -136 348 -226 288 -245 539 -637 632 -984 67 -251 51 -420 -49 -507 -45
-40 -70 -47 -175 -47 -66 0 -104 6 -172 29 -171 56 -392 199 -579 375 -46 43
-82 80 -79 82 3 2 34 19 70 36 37 19 104 68 155 113 50 44 137 122 194 172
l103 93 -143 18 c-195 24 -342 26 -394 3 -77 -33 -131 -103 -156 -200 -14 -57
-8 -61 -140 95 -119 142 -290 368 -407 539 -47 69 -131 190 -186 270 -538 779
-1070 1334 -1506 1570 -65 36 -120 68 -120 71 0 7 144 65 198 79 81 21 213 12
297 -20 26 -10 27 -9 14 7 -88 114 -314 291 -419 328 -47 17 -142 19 -179 4z"/>
<path d="M1060 1758 c109 -298 138 -590 76 -768 -76 -220 -241 -325 -506 -324
-63 0 -133 4 -155 7 l-40 7 27 -15 c43 -24 268 -83 382 -100 312 -46 511 19
589 194 26 57 34 196 18 284 -31 162 -131 381 -266 582 -135 201 -160 227
-125 133z"/>
</g>
</svg>
