<?xml version="1.0" standalone="no"?>
<!DOCTYPE svg PUBLIC "-//W3C//DTD SVG 20010904//EN"
 "http://www.w3.org/TR/2001/REC-SVG-20010904/DTD/svg10.dtd">
<svg version="1.0" xmlns="http://www.w3.org/2000/svg"
 width="512.000000pt" height="512.000000pt" viewBox="0 0 512.000000 512.000000"
 preserveAspectRatio="xMidYMid meet">
<metadata>
Created by potrace 1.15, written by Peter Selinger 2001-2017
</metadata>
<g transform="translate(0.000000,512.000000) scale(0.100000,-0.100000)"
fill="#ffffff" stroke="none">
<path d="M1405 4868 c40 -125 446 -843 541 -954 l33 -39 1 169 0 169 352 -591
c194 -326 356 -592 359 -592 4 0 33 65 65 145 32 80 59 144 60 142 2 -2 474
-842 581 -1034 19 -35 38 -63 42 -63 4 0 30 50 58 110 l50 110 234 -327 234
-328 125 -83 c248 -165 744 -450 768 -440 21 8 -118 626 -207 919 -76 251
-232 669 -251 669 -3 0 -39 -81 -80 -179 l-74 -179 -301 529 c-165 291 -303
529 -306 529 -3 0 -21 -45 -40 -100 -29 -86 -36 -98 -46 -83 -7 9 -138 232
-290 495 -153 263 -281 478 -284 478 -3 0 -25 -75 -49 -167 -24 -93 -45 -171
-47 -175 -2 -5 -131 147 -286 337 -154 190 -284 342 -288 337 -3 -4 -23 -59
-44 -122 -21 -63 -41 -119 -45 -123 -7 -8 -110 46 -620 328 -102 56 -200 110
-218 119 l-34 17 7 -23z"/>
<path d="M330 4801 c0 -11 7 -22 440 -636 454 -643 528 -749 706 -1002 89
-126 137 -203 130 -206 -7 -3 -38 -8 -69 -12 -32 -4 -57 -11 -57 -15 0 -8 125
-93 694 -474 119 -80 145 -102 130 -108 -11 -4 -79 -26 -151 -49 -73 -23 -133
-45 -133 -48 1 -3 65 -45 143 -92 157 -95 1220 -750 1226 -755 2 -2 -71 -39
-163 -83 -91 -44 -166 -82 -166 -85 0 -3 14 -12 30 -21 17 -9 30 -13 30 -10 0
4 26 -14 58 -38 104 -79 1136 -705 1257 -763 187 -89 320 -144 323 -135 4 13
-147 312 -248 491 -63 110 -211 326 -509 744 l-421 589 -63 -133 -63 -134 -21
35 c-11 19 -85 149 -163 289 -385 689 -416 744 -426 747 -5 2 -34 -60 -64
-137 l-56 -140 -239 403 c-131 221 -257 431 -280 467 l-40 65 -5 -99 -5 -98
-120 153 c-65 85 -168 217 -228 294 -117 152 -148 180 -392 355 -323 231 -718
474 -1013 623 -57 29 -72 32 -72 18z"/>
<path d="M244 3638 c29 -62 90 -192 136 -288 45 -96 87 -184 92 -194 10 -19 6
-19 -161 -13 -116 5 -170 3 -166 -3 4 -6 182 -157 396 -335 214 -178 390 -328
390 -332 0 -4 -74 -28 -165 -53 -91 -24 -166 -47 -166 -50 0 -3 275 -216 610
-474 335 -258 608 -472 605 -474 -3 -3 -95 -13 -206 -23 -184 -16 -220 -22
-208 -33 2 -2 60 -35 129 -73 211 -118 1325 -745 1328 -748 1 -1 -67 -28 -153
-60 -85 -32 -155 -61 -155 -65 0 -3 84 -25 188 -49 103 -23 362 -83 575 -132
379 -87 417 -94 417 -84 0 20 -206 410 -307 580 l-65 111 -334 204 c-184 113
-334 207 -334 210 1 3 68 36 151 74 82 38 157 75 165 81 13 9 -1 21 -83 72
-111 68 -136 84 -768 473 -253 155 -483 297 -512 314 l-52 31 156 50 c86 28
158 55 159 60 2 6 -202 147 -453 315 l-455 305 98 16 c55 9 120 19 147 23 26
4 47 11 47 15 0 19 -448 315 -680 448 -127 74 -394 213 -408 213 -6 0 13 -51
42 -112z"/>
</g>
</svg>
