<?xml version="1.0" standalone="no"?>
<!DOCTYPE svg PUBLIC "-//W3C//DTD SVG 20010904//EN"
 "http://www.w3.org/TR/2001/REC-SVG-20010904/DTD/svg10.dtd">
<svg version="1.0" xmlns="http://www.w3.org/2000/svg"
 width="512.000000pt" height="512.000000pt" viewBox="0 0 512.000000 512.000000"
 preserveAspectRatio="xMidYMid meet">
<metadata>
Created by potrace 1.15, written by Peter Selinger 2001-2017
</metadata>
<g transform="translate(0.000000,512.000000) scale(0.100000,-0.100000)"
fill="#ffffff" stroke="none">
<path d="M2940 4801 c-553 -71 -1107 -314 -1580 -695 -220 -177 -484 -433
-660 -641 -51 -60 -97 -114 -102 -120 -15 -16 7 35 63 146 149 299 380 644
556 830 36 38 62 69 58 69 -4 0 -45 -18 -91 -39 -346 -163 -708 -541 -908
-951 l-61 -125 -3 -329 -3 -329 72 94 c129 168 323 381 486 533 l71 67 -80
-157 c-191 -373 -388 -917 -518 -1433 l-30 -120 0 -726 0 -726 137 3 136 3 38
167 c172 761 431 1380 810 1938 147 215 143 211 109 99 -84 -283 -145 -656
-170 -1034 -11 -176 -12 -671 -1 -750 l6 -50 19 75 c73 300 227 651 413 941
75 118 273 392 279 387 1 -2 -13 -66 -32 -143 -78 -315 -109 -560 -109 -860 0
-286 27 -501 90 -718 l16 -57 291 0 291 0 -7 94 c-8 121 9 313 38 429 21 82
85 262 91 255 2 -2 8 -64 14 -138 13 -147 29 -237 40 -223 4 4 17 55 30 113
41 191 106 373 197 550 57 111 124 224 130 218 2 -2 -1 -29 -7 -59 -17 -93
-23 -473 -10 -605 20 -195 63 -405 127 -616 5 -17 35 -18 456 -18 l450 0 -6
23 c-3 12 -11 84 -17 160 -17 206 4 447 62 724 12 57 24 101 27 98 3 -3 11
-57 18 -120 36 -311 121 -573 262 -808 l47 -77 262 0 263 0 0 436 c0 267 -4
433 -9 429 -26 -15 -119 -318 -122 -395 -2 -38 -26 113 -51 315 -18 152 -22
233 -22 517 -1 221 -4 337 -11 335 -19 -6 -106 -122 -145 -193 -103 -185 -197
-607 -201 -899 l-1 -70 -13 55 c-8 30 -26 118 -39 195 -139 779 -80 1469 181
2102 14 34 -167 -54 -276 -134 -307 -227 -558 -620 -751 -1178 -104 -304 -194
-716 -233 -1071 l-14 -119 -9 80 c-16 141 -10 691 10 858 73 625 267 1163 592
1646 51 75 89 137 84 139 -4 2 -43 -11 -87 -27 -247 -96 -516 -344 -749 -692
-83 -125 -85 -119 -13 72 183 487 444 900 791 1255 76 77 138 144 138 149 0
12 -251 -4 -375 -25 -278 -45 -599 -177 -860 -353 -159 -107 -256 -186 -409
-335 -337 -328 -604 -704 -863 -1212 -82 -160 -84 -149 -16 63 131 408 329
795 576 1122 52 69 141 175 264 314 18 20 32 39 33 42 0 14 -220 -41 -323 -79
-538 -203 -939 -699 -1268 -1570 -30 -77 -55 -139 -57 -137 -6 6 77 308 124
450 194 587 475 1057 863 1446 493 493 1117 831 1985 1074 32 9 56 19 53 21
-16 16 -241 36 -452 39 -193 3 -269 0 -385 -14z m-1111 -808 c-127 -107 -327
-319 -471 -500 -175 -219 -402 -543 -513 -732 -27 -46 -51 -79 -53 -73 -5 15
81 266 133 387 209 489 504 802 875 931 36 12 67 23 69 23 3 1 -15 -16 -40
-36z m971 -1245 c-309 -636 -529 -1375 -655 -2202 -13 -87 -26 -160 -28 -162
-5 -6 -24 139 -37 281 -13 142 -13 407 1 560 54 638 266 1187 594 1542 63 68
216 203 230 203 2 0 -45 -100 -105 -222z"/>
<path d="M4449 3385 c-183 -50 -344 -220 -434 -459 -14 -36 -21 -66 -16 -66 6
0 13 5 16 10 12 20 182 128 270 173 159 79 329 123 548 142 42 4 77 9 77 12 0
13 -74 88 -121 124 -94 70 -228 95 -340 64z"/>
</g>
</svg>
