<?xml version="1.0" standalone="no"?>
<!DOCTYPE svg PUBLIC "-//W3C//DTD SVG 20010904//EN"
 "http://www.w3.org/TR/2001/REC-SVG-20010904/DTD/svg10.dtd">
<svg version="1.0" xmlns="http://www.w3.org/2000/svg"
 width="512.000000pt" height="512.000000pt" viewBox="0 0 512.000000 512.000000"
 preserveAspectRatio="xMidYMid meet">
<metadata>
Created by potrace 1.15, written by Peter Selinger 2001-2017
</metadata>
<g transform="translate(0.000000,512.000000) scale(0.100000,-0.100000)"
fill="#ffffff" stroke="none">
<path d="M2305 4894 c-770 -33 -1390 -155 -1780 -351 -81 -41 -223 -142 -261
-187 -90 -104 -111 -216 -60 -320 77 -158 311 -304 661 -411 66 -20 126 -38
133 -41 28 -9 0 15 -51 44 -71 40 -163 126 -188 175 -110 214 183 433 752 562
294 66 547 94 924 102 326 6 544 -4 801 -37 692 -90 1144 -304 1144 -541 0
-87 -85 -193 -211 -262 -53 -29 -79 -53 -46 -42 328 102 461 159 605 258 184
127 247 272 180 417 -138 302 -879 553 -1828 619 -157 11 -645 21 -775 15z"/>
<path d="M1470 3935 l0 -155 1085 0 1085 0 0 155 0 155 -1085 0 -1085 0 0
-155z"/>
<path d="M1510 2550 l0 -1050 100 0 100 0 0 1050 0 1050 -100 0 -100 0 0
-1050z"/>
<path d="M1908 3543 c20 -470 179 -820 429 -945 l72 -36 -65 -32 c-36 -17 -94
-59 -130 -92 -185 -173 -286 -455 -308 -855 l-4 -83 648 0 647 0 -4 73 c-14
276 -55 455 -144 636 -53 108 -70 133 -142 206 -59 59 -101 91 -150 115 l-67
33 49 23 c263 121 434 476 453 937 l3 77 -645 0 -645 0 3 -57z"/>
<path d="M3380 2550 l0 -1050 100 0 100 0 0 1050 0 1050 -100 0 -100 0 0
-1050z"/>
<path d="M876 1479 c-377 -117 -612 -267 -682 -435 -9 -21 -16 -64 -16 -95 0
-353 747 -645 1872 -731 211 -16 796 -16 1010 0 640 49 1160 162 1495 327 153
75 247 142 310 222 160 203 49 415 -309 588 -144 70 -446 176 -446 157 0 -4
27 -22 59 -39 78 -43 161 -120 189 -175 70 -142 -24 -280 -273 -403 -240 -118
-551 -193 -1020 -247 -152 -18 -859 -17 -1020 0 -394 43 -777 132 -982 228
-371 174 -429 401 -146 575 56 34 102 68 93 68 -3 0 -63 -18 -134 -40z"/>
<path d="M1470 1165 l0 -155 1085 0 1085 0 0 155 0 155 -1085 0 -1085 0 0
-155z"/>
</g>
</svg>
