<?xml version="1.0" standalone="no"?>
<!DOCTYPE svg PUBLIC "-//W3C//DTD SVG 20010904//EN"
 "http://www.w3.org/TR/2001/REC-SVG-20010904/DTD/svg10.dtd">
<svg version="1.0" xmlns="http://www.w3.org/2000/svg"
 width="512.000000pt" height="512.000000pt" viewBox="0 0 512.000000 512.000000"
 preserveAspectRatio="xMidYMid meet">
<metadata>
Created by potrace 1.15, written by Peter Selinger 2001-2017
</metadata>
<g transform="translate(0.000000,512.000000) scale(0.100000,-0.100000)"
fill="#ffffff" stroke="none">
<path d="M185 3992 c3 -499 8 -936 10 -972 3 -36 6 -333 7 -660 1 -327 4 -622
7 -656 l6 -60 165 27 c187 32 451 87 470 99 10 6 2 26 -32 82 -26 40 -78 136
-116 213 -312 626 -353 1249 -117 1771 148 325 456 617 780 737 94 35 234 73
325 88 94 16 381 16 480 0 200 -32 433 -108 625 -203 112 -56 325 -190 380
-239 11 -9 26 -19 32 -21 8 -2 52 82 113 212 98 210 176 357 232 434 15 22 27
40 26 41 -2 1 -767 5 -1701 8 l-1698 6 6 -907z"/>
<path d="M1847 4503 c-7 -6 46 -38 493 -303 124 -74 269 -160 323 -192 54 -32
103 -60 108 -61 10 -2 139 219 139 238 0 13 -92 67 -235 138 -125 62 -312 127
-430 151 -144 29 -381 46 -398 29z"/>
<path d="M1389 4395 c-185 -80 -382 -234 -503 -396 -104 -138 -189 -316 -232
-487 -38 -149 -39 -145 59 -169 297 -74 531 -250 650 -488 49 -99 64 -152 86
-300 38 -248 115 -405 283 -581 174 -181 391 -308 625 -365 74 -19 111 -22
238 -19 323 6 385 4 480 -20 138 -34 255 -97 334 -180 130 -136 191 -261 260
-534 25 -99 56 -190 81 -241 124 -257 366 -423 677 -465 59 -8 148 -11 245 -7
142 5 285 23 274 34 -3 3 -53 22 -113 42 -289 100 -533 264 -650 437 -112 165
-147 288 -162 574 -6 96 -17 210 -26 254 -61 292 -215 506 -450 621 -108 52
-224 82 -371 95 -227 20 -399 88 -517 206 -147 146 -219 311 -252 577 -8 67
-20 157 -25 200 -40 325 -342 782 -715 1083 -96 77 -204 154 -215 154 -3 -1
-30 -12 -61 -25z"/>
<path d="M610 3044 c1 -165 53 -425 125 -620 61 -164 167 -384 186 -384 15 0
218 125 219 134 0 6 -24 53 -54 105 -29 53 -147 263 -261 466 -114 204 -209
372 -211 374 -2 2 -4 -31 -4 -75z"/>
</g>
</svg>
