<?xml version="1.0" standalone="no"?>
<!DOCTYPE svg PUBLIC "-//W3C//DTD SVG 20010904//EN"
 "http://www.w3.org/TR/2001/REC-SVG-20010904/DTD/svg10.dtd">
<svg version="1.0" xmlns="http://www.w3.org/2000/svg"
 width="512.000000pt" height="512.000000pt" viewBox="0 0 512.000000 512.000000"
 preserveAspectRatio="xMidYMid meet">
<metadata>
Created by potrace 1.15, written by Peter Selinger 2001-2017
</metadata>
<g transform="translate(0.000000,512.000000) scale(0.100000,-0.100000)"
fill="#ffffff" stroke="none">
<path d="M3104 3968 c-32 -35 -244 -251 -471 -480 l-412 -417 -31 -103 c-18
-57 -51 -166 -75 -243 -24 -77 -71 -227 -104 -334 l-61 -193 51 -107 c28 -58
67 -141 87 -185 l36 -78 94 -44 c51 -24 100 -45 108 -46 9 -2 71 91 177 267
215 356 198 347 467 230 96 -42 232 -101 302 -131 l126 -54 104 65 104 65 19
196 c12 121 22 190 27 178 8 -20 98 -442 98 -460 0 -6 -23 -41 -51 -78 l-51
-68 40 -34 c47 -40 52 -53 88 -239 15 -77 30 -144 34 -148 4 -5 54 47 111 115
57 68 162 193 233 278 72 85 150 179 175 208 l45 52 66 0 67 0 104 -132 c57
-72 107 -136 111 -142 20 -30 13 23 -32 270 -44 240 -65 323 -197 774 l-148
505 -575 287 c-316 157 -582 287 -591 287 -9 1 -42 -27 -75 -61z m859 -758
l235 -330 6 -287 7 -288 -121 280 -120 280 -276 255 c-151 140 -296 274 -322
297 -26 23 -45 43 -42 43 3 1 86 18 185 39 99 21 187 39 196 40 11 1 98 -113
252 -329z"/>
<path d="M1197 3853 c-18 -32 -85 -150 -149 -263 l-115 -205 -22 -134 c-12
-74 -20 -135 -18 -137 2 -3 61 14 132 37 l127 41 56 -35 57 -35 138 -294 c76
-161 142 -297 148 -303 6 -6 33 -1 74 12 l65 21 54 -21 c46 -18 57 -28 76 -65
11 -25 22 -43 24 -41 2 2 48 146 101 319 l98 315 -7 164 c-4 91 -8 166 -9 168
-2 1 -93 6 -203 9 l-199 7 -127 101 c-70 55 -126 102 -124 103 2 2 68 -18 147
-43 l144 -46 205 36 c113 20 210 36 217 36 6 0 51 -25 100 -55 48 -31 107 -65
130 -77 l42 -22 178 184 c98 100 179 186 181 189 1 4 -19 15 -45 24 -47 17
-54 16 -433 -33 -212 -27 -397 -50 -411 -50 -15 0 -150 34 -300 75 -151 41
-279 75 -286 75 -7 0 -27 -26 -46 -57z"/>
<path d="M1080 2989 c-14 -4 -158 -51 -322 -104 -270 -87 -297 -98 -302 -120
-4 -14 -28 -130 -55 -257 -28 -128 -63 -295 -79 -371 -21 -97 -27 -139 -18
-142 12 -4 473 -55 494 -55 7 0 12 13 12 33 0 29 19 51 192 218 l192 186 -39
294 c-21 162 -41 301 -44 310 -5 12 -12 14 -31 8z"/>
<path d="M1476 2311 l-169 -57 -159 -153 c-89 -86 -157 -159 -154 -166 4 -12
197 -277 216 -298 4 -5 136 -13 295 -18 l287 -10 81 78 c45 42 83 82 84 88 2
5 -59 141 -135 300 -107 224 -143 290 -158 292 -10 1 -95 -24 -188 -56z"/>
<path d="M2552 1760 l-222 -370 2 -287 3 -288 489 -61 489 -62 221 98 c219 97
221 98 218 126 -5 36 -171 866 -174 870 -2 1 -75 34 -163 72 -433 189 -626
272 -633 272 -4 0 -107 -167 -230 -370z m732 -72 l159 -93 63 -240 c35 -132
64 -245 64 -252 0 -6 -59 -64 -131 -128 l-131 -116 -107 7 c-58 3 -155 9 -215
12 l-108 7 48 35 c37 26 301 220 323 236 7 6 28 400 22 409 -4 6 -47 59 -94
118 -48 59 -87 110 -87 113 0 2 8 0 18 -5 9 -6 89 -52 176 -103z"/>
<path d="M4368 1913 c-35 -43 -140 -167 -231 -276 -92 -109 -167 -206 -167
-215 0 -14 54 -29 318 -85 174 -37 324 -68 332 -67 8 0 73 33 143 74 l128 73
-222 284 c-121 156 -224 285 -228 287 -4 1 -37 -32 -73 -75z"/>
<path d="M621 1147 l-43 -143 64 -240 c56 -206 68 -239 85 -242 16 -2 894 106
900 112 1 1 5 62 9 137 l7 136 -315 161 -314 161 -159 30 c-87 17 -166 31
-175 31 -11 0 -27 -36 -59 -143z"/>
</g>
</svg>
