<?xml version="1.0" standalone="no"?>
<!DOCTYPE svg PUBLIC "-//W3C//DTD SVG 20010904//EN"
 "http://www.w3.org/TR/2001/REC-SVG-20010904/DTD/svg10.dtd">
<svg version="1.0" xmlns="http://www.w3.org/2000/svg"
 width="512.000000pt" height="512.000000pt" viewBox="0 0 512.000000 512.000000"
 preserveAspectRatio="xMidYMid meet">
<metadata>
Created by potrace 1.15, written by Peter Selinger 2001-2017
</metadata>
<g transform="translate(0.000000,512.000000) scale(0.100000,-0.100000)"
fill="#ffffff" stroke="none">
<path d="M2465 4153 c-127 -6 -366 -35 -487 -59 -215 -42 -490 -129 -668 -211
-41 -20 -94 -43 -117 -54 -23 -10 -79 -39 -124 -65 l-81 -47 5 -46 c3 -25 20
-230 38 -456 18 -225 33 -411 35 -413 5 -8 143 -39 148 -34 4 3 6 20 6 38 0
51 54 249 99 364 124 318 367 593 661 749 350 185 768 189 1123 10 301 -152
555 -437 682 -767 47 -123 81 -251 96 -367 14 -105 12 -104 94 -70 l30 12 38
479 c21 263 41 504 44 535 l5 55 -78 38 c-357 173 -782 282 -1199 306 -163 9
-219 10 -350 3z"/>
<path d="M4405 3213 c-22 -268 -27 -379 -19 -381 6 -2 98 20 204 47 107 28
195 49 197 47 4 -4 -319 -473 -399 -580 l-59 -79 -85 -1041 c-46 -573 -84
-1042 -84 -1043 0 -2 176 -3 390 -3 l390 0 0 1486 0 1486 -142 141 c-126 126
-331 297 -355 297 -5 0 -22 -170 -38 -377z"/>
<path d="M549 3397 c-110 -98 -230 -223 -312 -323 l-57 -71 0 -1412 0 -1411
365 0 c341 0 365 1 365 18 1 9 -39 507 -87 1107 l-87 1090 -78 108 c-43 59
-122 174 -175 255 -53 81 -108 165 -124 188 l-28 41 175 -45 c96 -25 177 -42
181 -38 6 5 -35 567 -42 574 -1 1 -45 -35 -96 -81z"/>
<path d="M3561 3148 c16 -95 27 -173 26 -175 -2 -1 -101 72 -222 162 -120 91
-220 163 -222 161 -2 -2 3 -113 12 -246 8 -134 14 -244 13 -245 -2 -2 -99 89
-216 201 -117 113 -217 202 -221 200 -4 -3 -48 -109 -97 -236 l-89 -231 -113
233 -114 233 -177 -184 -177 -184 -22 149 c-12 82 -28 186 -34 232 -7 45 -15
82 -18 82 -3 0 -74 -81 -159 -180 -85 -99 -157 -183 -161 -185 -4 -3 -22 54
-40 125 -18 72 -34 130 -37 130 -9 0 -53 -112 -78 -197 -38 -131 -56 -253 -58
-388 l-2 -122 -34 51 c-19 28 -34 52 -35 53 -4 6 -599 153 -603 149 -3 -3 31
-57 77 -120 295 -411 534 -636 677 -636 37 0 42 -3 52 -30 18 -54 118 -213
185 -297 73 -89 208 -208 303 -266 33 -20 65 -37 69 -37 5 0 22 51 38 113 27
102 194 606 277 835 l34 94 -30 24 c-51 41 -97 49 -275 48 -158 -2 -243 -14
-323 -49 -14 -6 -22 4 -47 59 -17 36 -30 68 -30 70 0 6 118 41 190 56 105 21
277 24 369 6 129 -26 242 -92 290 -170 l21 -33 -26 -59 c-63 -142 -218 -636
-325 -1033 -68 -255 -65 -335 13 -394 61 -47 112 -59 270 -65 265 -8 476 42
542 131 27 37 33 132 12 220 -9 38 -55 175 -102 305 -177 486 -224 646 -224
765 0 37 6 82 14 100 29 70 209 203 351 259 67 26 94 31 165 32 72 0 94 -4
145 -28 65 -29 135 -96 172 -163 l23 -40 -75 -13 -74 -13 -45 46 c-29 30 -58
50 -87 57 -90 24 -223 -23 -361 -129 -71 -55 -73 -58 -76 -105 -6 -99 45 -264
267 -859 6 -16 14 -13 71 29 136 99 289 278 365 426 l39 76 33 -16 c30 -14 37
-14 85 1 29 9 70 27 91 40 90 55 274 241 413 417 75 96 216 292 212 295 -2 2
-139 -32 -306 -74 l-303 -77 -40 -64 c-23 -36 -44 -68 -47 -72 -4 -4 -7 70 -7
165 -1 195 -22 331 -76 485 -33 92 -118 272 -129 272 -3 0 6 -77 21 -172z
m-1456 -817 c22 -10 49 -26 60 -34 19 -15 19 -16 2 -35 -33 -36 -115 -65 -166
-58 -43 6 -123 45 -136 67 -16 24 91 79 155 79 25 0 63 -9 85 -19z m1160 -1
c54 -25 78 -46 70 -59 -13 -22 -93 -61 -136 -67 -51 -7 -133 22 -166 58 -17
19 -17 20 2 35 70 53 161 67 230 33z"/>
<path d="M1136 1903 c3 -32 36 -431 73 -888 l67 -830 1262 -3 c1075 -2 1262 0
1262 12 0 8 29 374 65 815 36 441 65 813 65 826 l0 25 -62 -34 c-35 -19 -88
-39 -119 -46 l-56 -11 -68 -102 c-82 -122 -236 -279 -350 -356 l-80 -54 4
-123 c2 -97 -1 -134 -14 -175 -21 -62 -78 -128 -142 -164 -108 -60 -306 -98
-518 -99 -127 0 -162 3 -230 23 -97 27 -150 57 -199 112 -67 73 -81 117 -81
251 l0 116 -45 22 c-80 39 -226 148 -312 232 -91 90 -169 190 -238 306 -24 41
-51 76 -59 79 -56 19 -142 63 -179 90 -23 18 -44 33 -47 33 -3 0 -2 -26 1 -57z"/>
</g>
</svg>
