<?xml version="1.0" standalone="no"?>
<!DOCTYPE svg PUBLIC "-//W3C//DTD SVG 20010904//EN"
 "http://www.w3.org/TR/2001/REC-SVG-20010904/DTD/svg10.dtd">
<svg version="1.0" xmlns="http://www.w3.org/2000/svg"
 width="512.000000pt" height="512.000000pt" viewBox="0 0 512.000000 512.000000"
 preserveAspectRatio="xMidYMid meet">
<metadata>
Created by potrace 1.15, written by Peter Selinger 2001-2017
</metadata>
<g transform="translate(0.000000,512.000000) scale(0.100000,-0.100000)"
fill="#ffffff" stroke="none">
<path d="M160 4244 l0 -759 276 -890 c152 -489 276 -891 277 -891 5 -4 125
-68 207 -111 145 -76 675 -356 678 -358 2 -2 -69 -92 -157 -201 -99 -121 -157
-202 -152 -208 4 -6 70 -93 145 -193 l138 -182 127 -40 c69 -22 266 -84 436
-138 l310 -98 585 -2 c357 -1 575 2 560 7 -14 5 -119 27 -235 49 -549 104
-812 154 -945 180 -80 16 -283 55 -451 87 l-307 58 31 58 30 58 61 -5 c34 -3
466 -28 961 -56 495 -27 1178 -65 1518 -84 340 -19 641 -35 668 -35 l49 0 0
250 0 250 -27 0 c-24 0 -1040 -54 -2168 -115 -861 -47 -1009 -54 -1012 -51 -2
2 -1 33 3 68 l6 65 87 16 c47 9 372 70 721 136 349 66 838 158 1085 205 248
47 534 101 638 120 103 20 271 52 375 71 103 19 211 40 240 46 l52 10 0 260
c0 142 -2 259 -4 259 -2 0 -237 -72 -522 -161 -286 -88 -670 -207 -854 -264
-184 -57 -497 -154 -695 -215 -724 -224 -781 -242 -840 -260 -33 -10 -112 -34
-175 -54 -63 -19 -115 -34 -116 -33 -3 5 -33 132 -31 133 2 2 543 286 742 390
77 40 669 351 1315 691 l1175 618 3 333 c1 182 0 332 -4 332 -3 0 -67 -42
-142 -93 -109 -75 -2351 -1603 -2907 -1982 -71 -49 -154 -106 -184 -126 l-54
-37 -33 50 c-19 27 -34 54 -34 58 0 5 755 687 1678 1516 l1677 1508 3 258 2
258 -208 0 -207 0 -1535 -1708 -1535 -1709 -44 34 c-24 18 -48 33 -52 33 -5 0
-9 5 -9 11 0 6 80 129 178 273 99 143 606 886 1128 1651 523 765 953 1396 958
1403 6 9 -63 12 -332 12 l-339 0 -857 -1632 c-472 -898 -861 -1636 -864 -1640
-4 -4 -26 -2 -50 5 -39 10 -42 14 -37 37 3 14 230 745 504 1625 l497 1600
-239 3 c-132 1 -242 0 -245 -3 -4 -4 -611 -3213 -612 -3232 0 -2 -18 -3 -40
-3 l-40 0 0 40 c0 49 157 3049 164 3138 l5 62 -229 0 c-127 0 -230 -3 -230 -7
-1 -5 39 -731 87 -1615 48 -884 84 -1610 80 -1614 -4 -4 -24 -10 -44 -13 l-38
-6 -306 1623 c-169 893 -310 1626 -313 1629 -3 4 -6 -335 -6 -753z"/>
<path d="M368 1482 c-37 -40 -63 -80 -101 -158 -132 -263 -106 -574 69 -820
96 -136 273 -256 439 -300 152 -39 350 -27 491 30 87 35 214 113 214 131 0 5
-69 59 -153 120 -229 165 -377 275 -377 281 0 3 63 74 140 159 77 84 140 157
140 162 0 5 -78 47 -172 93 -95 46 -284 139 -419 206 l-246 123 -25 -27z"/>
</g>
</svg>
