<?xml version="1.0" standalone="no"?>
<!DOCTYPE svg PUBLIC "-//W3C//DTD SVG 20010904//EN"
 "http://www.w3.org/TR/2001/REC-SVG-20010904/DTD/svg10.dtd">
<svg version="1.0" xmlns="http://www.w3.org/2000/svg"
 width="512.000000pt" height="512.000000pt" viewBox="0 0 512.000000 512.000000"
 preserveAspectRatio="xMidYMid meet">
<metadata>
Created by potrace 1.15, written by Peter Selinger 2001-2017
</metadata>
<g transform="translate(0.000000,512.000000) scale(0.100000,-0.100000)"
fill="#ffffff" stroke="none">
<path d="M3480 4886 c-135 -29 -257 -56 -273 -59 -21 -6 -33 -20 -51 -60 -21
-45 -96 -201 -243 -503 l-40 -81 -503 178 c-372 132 -507 176 -516 168 -18
-14 -484 -587 -484 -594 0 -3 535 -5 1190 -5 l1190 0 0 505 c0 398 -3 505 -12
504 -7 0 -123 -24 -258 -53z"/>
<path d="M3930 4435 l0 -505 505 0 505 0 0 505 0 505 -505 0 -505 0 0 -505z"/>
<path d="M180 3433 l0 -318 59 -150 59 -150 153 -82 154 -82 933 0 932 -1 0
550 0 550 -1145 0 -1145 0 0 -317z"/>
<path d="M2650 3200 l0 -550 1145 0 1145 0 0 550 0 550 -1145 0 -1145 0 0
-550z"/>
<path d="M654 2438 c3 -18 28 -146 54 -285 48 -248 48 -252 28 -257 -12 -3
-133 -23 -271 -46 -137 -22 -258 -43 -267 -46 -16 -5 -18 -24 -18 -220 l0
-214 505 0 505 0 0 550 0 550 -271 0 -271 0 6 -32z"/>
<path d="M1370 1920 l0 -550 1191 0 c949 0 1190 3 1186 13 -3 6 -41 93 -85
192 -43 99 -96 221 -117 270 -38 92 -98 231 -208 482 l-62 143 -952 0 -953 0
0 -550z"/>
<path d="M180 685 l0 -505 998 0 997 0 148 498 c81 273 147 500 147 505 0 4
-515 7 -1145 7 l-1145 0 0 -505z"/>
<path d="M2650 906 l0 -284 33 -20 c17 -11 164 -110 326 -221 l294 -201 819 0
818 0 0 505 0 505 -1145 0 -1145 0 0 -284z"/>
</g>
</svg>
