<?xml version="1.0" standalone="no"?>
<!DOCTYPE svg PUBLIC "-//W3C//DTD SVG 20010904//EN"
 "http://www.w3.org/TR/2001/REC-SVG-20010904/DTD/svg10.dtd">
<svg version="1.0" xmlns="http://www.w3.org/2000/svg"
 width="512.000000pt" height="512.000000pt" viewBox="0 0 512.000000 512.000000"
 preserveAspectRatio="xMidYMid meet">
<metadata>
Created by potrace 1.15, written by Peter Selinger 2001-2017
</metadata>
<g transform="translate(0.000000,512.000000) scale(0.100000,-0.100000)"
fill="#ffffff" stroke="none">
<path d="M175 4703 c-13 -379 6 -796 51 -1108 71 -490 228 -948 472 -1375 227
-396 582 -854 1017 -1310 319 -334 397 -403 706 -623 l137 -97 958 0 c527 0
954 4 949 8 -6 5 -77 35 -160 67 -481 187 -942 412 -1370 670 -294 177 -673
449 -915 655 -229 195 -537 496 -737 720 -100 112 -296 361 -386 490 -6 8 63
-57 154 -146 203 -199 313 -297 499 -445 490 -390 1012 -716 1625 -1015 291
-141 429 -202 739 -325 353 -141 989 -350 1015 -335 4 3 8 197 7 432 l-1 427
-230 62 c-508 139 -884 274 -1420 511 -148 65 -552 266 -700 349 -349 195
-746 458 -1012 671 -158 127 -158 127 2 28 611 -380 1464 -724 2375 -958 305
-78 904 -206 966 -206 19 0 19 12 19 379 0 209 -3 382 -6 385 -3 3 -90 17
-195 31 -903 121 -1731 343 -2489 667 -154 66 -565 263 -565 272 0 2 44 -13
98 -35 53 -22 185 -69 292 -105 696 -232 1564 -383 2435 -424 121 -5 266 -12
323 -15 77 -4 102 -2 103 8 4 38 7 674 3 687 -3 13 -68 15 -506 15 -389 0
-554 5 -728 18 -615 49 -1098 125 -1585 252 -769 200 -1382 489 -1847 872 -43
34 -79 63 -82 63 -2 0 -7 -98 -11 -217z"/>
</g>
</svg>
