<?xml version="1.0" standalone="no"?>
<!DOCTYPE svg PUBLIC "-//W3C//DTD SVG 20010904//EN"
 "http://www.w3.org/TR/2001/REC-SVG-20010904/DTD/svg10.dtd">
<svg version="1.0" xmlns="http://www.w3.org/2000/svg"
 width="512.000000pt" height="512.000000pt" viewBox="0 0 512.000000 512.000000"
 preserveAspectRatio="xMidYMid meet">
<metadata>
Created by potrace 1.15, written by Peter Selinger 2001-2017
</metadata>
<g transform="translate(0.000000,512.000000) scale(0.100000,-0.100000)"
fill="#ffffff" stroke="none">
<path d="M2654 4860 c-67 -14 -137 -55 -193 -112 -181 -183 -190 -521 -19
-698 69 -72 125 -95 233 -95 80 0 97 3 148 29 104 53 192 166 231 295 23 79
21 232 -4 313 -58 187 -230 303 -396 268z"/>
<path d="M2291 3903 c-48 -9 -191 -64 -248 -95 -199 -108 -371 -245 -545 -436
-48 -53 -94 -110 -102 -127 -23 -48 -74 -231 -101 -366 -26 -128 -105 -597
-105 -626 0 -14 15 -15 142 -9 78 3 143 7 144 9 1 1 14 58 29 127 67 310 78
356 101 428 51 157 70 187 143 234 36 23 121 96 187 161 l122 118 -20 -93
c-58 -285 -108 -663 -108 -825 l0 -89 73 -149 c146 -297 316 -558 775 -1188
148 -202 305 -433 397 -582 38 -60 74 -116 81 -124 10 -11 38 8 163 109 l150
122 -41 82 c-187 374 -518 942 -801 1374 l-100 154 71 286 c200 806 282 1332
219 1416 -11 14 -18 14 -77 -5 -93 -29 -190 -35 -275 -15 -69 17 -180 71 -205
101 -12 15 -24 16 -69 8z"/>
<path d="M3050 3313 c0 -22 -62 -360 -80 -436 l-20 -89 41 -51 c59 -73 81 -91
194 -154 156 -89 650 -313 689 -313 10 0 97 267 96 296 0 5 -134 75 -297 154
-164 80 -338 165 -387 190 l-90 45 -46 135 c-48 141 -85 230 -94 230 -3 0 -6
-3 -6 -7z"/>
<path d="M1846 1923 c-51 -279 -66 -371 -81 -513 -19 -169 -21 -176 -112 -323
-91 -146 -175 -248 -380 -460 -69 -70 -123 -133 -121 -139 2 -6 69 -61 148
-123 114 -88 148 -110 160 -102 48 33 523 538 586 622 74 100 75 100 145 318
38 120 68 221 65 226 -3 4 -43 58 -88 119 -96 128 -190 277 -248 391 -23 45
-44 81 -49 81 -4 0 -16 -44 -25 -97z"/>
</g>
</svg>
