<?xml version="1.0" standalone="no"?>
<!DOCTYPE svg PUBLIC "-//W3C//DTD SVG 20010904//EN"
 "http://www.w3.org/TR/2001/REC-SVG-20010904/DTD/svg10.dtd">
<svg version="1.0" xmlns="http://www.w3.org/2000/svg"
 width="512.000000pt" height="512.000000pt" viewBox="0 0 512.000000 512.000000"
 preserveAspectRatio="xMidYMid meet">
<metadata>
Created by potrace 1.15, written by Peter Selinger 2001-2017
</metadata>
<g transform="translate(0.000000,512.000000) scale(0.100000,-0.100000)"
fill="#ffffff" stroke="none">
<path d="M2250 4950 c-669 -31 -1148 -131 -1435 -298 -107 -63 -220 -176 -262
-263 -52 -105 -60 -180 -39 -350 35 -287 135 -591 275 -838 l41 -73 -49 -54
c-80 -90 -106 -147 -106 -229 1 -85 22 -131 92 -196 94 -88 275 -167 500 -219
l123 -28 94 -99 94 -98 -80 -37 c-139 -65 -209 -129 -208 -190 2 -91 198 -155
550 -178 l155 -10 154 -157 154 -158 -34 -6 c-19 -4 -70 -12 -114 -19 -265
-39 -525 -102 -750 -183 -130 -46 -196 -78 -135 -64 49 11 237 37 340 48 58 5
278 13 490 16 l386 6 93 -119 c225 -288 381 -567 468 -834 l45 -140 100 0 100
0 -7 32 c-16 75 -106 331 -150 428 -82 178 -189 358 -321 536 l-53 72 42 -5
c451 -49 791 -147 935 -270 l33 -28 -25 -86 c-52 -177 -164 -428 -270 -601
l-44 -73 111 -3 c64 -1 115 2 120 7 6 6 34 54 62 108 l53 98 103 23 c301 65
501 159 575 271 53 80 69 225 38 344 -19 76 -77 191 -142 283 -55 77 -216 244
-275 284 l-37 25 0 117 c0 114 1 118 23 123 12 3 55 12 94 20 157 32 256 77
313 141 29 33 32 42 27 81 -11 101 -164 193 -418 253 l-96 23 -22 181 c-31
254 -52 532 -49 634 l3 86 55 13 c297 73 520 199 566 319 22 57 14 131 -20
189 -54 92 -221 216 -389 288 -40 17 -74 33 -76 34 -2 1 12 44 30 95 63 173
41 304 -72 423 -144 152 -434 247 -888 290 -190 18 -638 26 -871 15z m860
-210 c504 -52 809 -179 810 -338 0 -49 -47 -191 -65 -198 -6 -3 -72 11 -146
30 -576 150 -1247 163 -1784 33 l-90 -21 235 -12 c872 -44 1466 -222 1645
-493 l27 -41 -13 -117 c-7 -65 -13 -216 -14 -335 0 -215 0 -217 -20 -204 -154
99 -332 152 -599 176 -288 27 -762 -32 -1133 -139 -279 -80 -280 -79 14 -80
235 -1 469 -15 658 -42 100 -13 325 -55 379 -70 l41 -12 -110 -18 c-161 -27
-366 -82 -522 -140 -128 -47 -201 -82 -128 -62 50 13 688 10 795 -5 336 -46
554 -115 655 -207 22 -20 33 -34 24 -32 -103 32 -875 34 -1179 3 -266 -27
-498 -66 -712 -120 l-87 -22 -89 91 c-244 250 -432 466 -432 497 0 48 60 146
128 209 79 74 145 115 272 170 325 140 793 215 1470 235 l235 7 -70 19 c-263
69 -500 98 -805 98 -332 0 -555 -27 -865 -105 -199 -50 -323 -95 -495 -178
-69 -34 -129 -63 -134 -65 -16 -8 3 89 26 136 105 208 443 364 943 434 131 18
206 22 415 22 140 0 269 -4 285 -8 69 -17 3 13 -90 42 -224 69 -545 142 -785
177 -336 50 -671 44 -847 -15 l-58 -20 60 57 c150 141 366 248 715 352 187 56
595 110 834 112 67 0 129 4 140 8 41 16 -573 139 -782 157 -45 3 -81 8 -80 10
4 3 368 32 483 38 134 7 741 -3 845 -14z m455 -2503 c44 -8 117 -25 161 -37
l82 -22 6 -41 c5 -41 23 -246 29 -337 l2 -45 -110 55 c-106 53 -326 135 -346
128 -5 -2 26 -33 68 -69 100 -85 263 -239 263 -249 0 -4 -64 14 -142 41 -253
84 -533 129 -798 128 -168 0 -232 -11 -145 -23 155 -22 413 -109 620 -210 126
-61 239 -125 221 -126 -5 0 -61 9 -125 20 -172 29 -351 42 -585 44 l-209 1
-61 65 c-33 36 -152 158 -264 271 l-204 206 49 28 c142 80 485 158 833 189
104 9 578 -3 655 -17z"/>
</g>
</svg>
