<?xml version="1.0" standalone="no"?>
<!DOCTYPE svg PUBLIC "-//W3C//DTD SVG 20010904//EN"
 "http://www.w3.org/TR/2001/REC-SVG-20010904/DTD/svg10.dtd">
<svg version="1.0" xmlns="http://www.w3.org/2000/svg"
 width="512.000000pt" height="512.000000pt" viewBox="0 0 512.000000 512.000000"
 preserveAspectRatio="xMidYMid meet">
<metadata>
Created by potrace 1.15, written by Peter Selinger 2001-2017
</metadata>
<g transform="translate(0.000000,512.000000) scale(0.100000,-0.100000)"
fill="#ffffff" stroke="none">
<path d="M2479 4707 c-76 -58 -201 -238 -345 -497 -26 -47 -96 -174 -155 -283
-122 -222 -199 -345 -251 -397 -54 -55 -168 -88 -558 -160 -598 -111 -807
-171 -876 -253 -22 -26 -25 -38 -21 -74 13 -114 129 -266 517 -678 236 -249
337 -367 377 -440 26 -47 28 -57 26 -160 -1 -60 -22 -270 -47 -465 -81 -638
-84 -823 -11 -896 49 -49 182 -28 412 62 111 44 188 79 626 285 94 45 209 94
254 110 158 55 200 44 653 -173 487 -234 683 -308 811 -308 57 0 72 4 88 22
40 42 46 83 45 298 0 184 -5 243 -48 575 -55 425 -63 587 -32 645 38 71 127
176 343 402 337 354 473 516 529 633 59 121 43 161 -89 225 -106 50 -285 96
-649 165 -503 95 -612 123 -676 171 -45 35 -130 165 -248 383 -262 480 -338
608 -427 720 -100 126 -168 150 -248 88z"/>
</g>
</svg>
