<?xml version="1.0" standalone="no"?>
<!DOCTYPE svg PUBLIC "-//W3C//DTD SVG 20010904//EN"
 "http://www.w3.org/TR/2001/REC-SVG-20010904/DTD/svg10.dtd">
<svg version="1.0" xmlns="http://www.w3.org/2000/svg"
 width="512.000000pt" height="512.000000pt" viewBox="0 0 512.000000 512.000000"
 preserveAspectRatio="xMidYMid meet">
<metadata>
Created by potrace 1.15, written by Peter Selinger 2001-2017
</metadata>
<g transform="translate(0.000000,512.000000) scale(0.100000,-0.100000)"
fill="#ffffff" stroke="none">
<path d="M220 4974 c0 -4 67 -86 148 -183 81 -97 449 -534 817 -971 926 -1101
933 -1109 894 -1074 -202 183 -1343 1225 -1436 1311 -67 62 -127 113 -133 113
-5 0 146 -179 337 -397 191 -219 502 -576 692 -793 190 -217 405 -464 479
-548 74 -84 132 -155 131 -156 -2 -2 -116 -11 -254 -21 -137 -9 -252 -19 -253
-20 -2 -2 153 -108 344 -236 l348 -232 -129 -34 c-360 -94 -369 -96 -349 -104
10 -4 109 -18 218 -30 178 -20 197 -24 178 -37 -77 -51 -562 -415 -558 -419 2
-3 214 5 470 18 256 12 468 21 470 18 3 -2 -37 -150 -88 -329 -52 -179 -92
-327 -90 -329 1 -1 73 55 160 125 87 71 185 151 218 178 34 27 107 87 164 134
66 54 104 79 106 70 3 -7 28 -119 56 -248 28 -129 67 -310 87 -403 20 -92 40
-164 44 -160 4 5 47 130 96 278 l89 270 43 -160 c44 -161 60 -205 61 -175 1 8
13 123 28 254 l27 239 259 -241 c142 -133 263 -242 268 -242 4 0 6 10 3 22 -2
13 -30 181 -60 373 -31 193 -58 362 -61 376 l-5 25 303 -38 c167 -21 314 -37
327 -36 22 3 5 26 -154 208 -98 113 -186 214 -196 225 -18 21 -15 23 306 225
179 113 325 208 325 211 0 3 -174 12 -386 19 l-386 13 176 176 c97 97 176 179
176 183 0 4 -93 -34 -207 -84 -267 -116 -324 -140 -329 -136 -1 2 20 153 48
336 28 183 48 335 45 338 -3 3 -123 -86 -267 -198 -143 -111 -265 -204 -269
-206 -4 -1 -68 155 -142 348 -74 192 -136 350 -139 350 -3 0 -30 -91 -59 -202
-30 -112 -57 -210 -60 -219 -4 -12 -269 237 -1016 952 -555 533 -1013 969
-1018 969 -5 0 2 -15 15 -32 14 -18 215 -294 448 -613 233 -319 441 -605 464
-635 51 -70 144 -150 -893 770 -914 811 -931 826 -931 814z m3748 -3269 c-6
-6 -320 -125 -330 -125 -6 0 -7 43 -3 109 l7 110 -255 83 -256 83 241 91 241
91 179 -219 c99 -121 178 -221 176 -223z m-781 -145 c-5 -129 -11 -236 -12
-238 -4 -4 -378 109 -388 117 -4 4 11 65 34 137 l41 129 166 46 c92 25 167 45
168 45 0 -1 -4 -107 -9 -236z m395 -202 c103 -35 188 -66 188 -70 0 -4 -85
-50 -190 -103 l-190 -96 0 119 c0 66 -3 140 -6 166 -4 25 -3 46 2 46 5 0 93
-28 196 -62z"/>
</g>
</svg>
