<?xml version="1.0" standalone="no"?>
<!DOCTYPE svg PUBLIC "-//W3C//DTD SVG 20010904//EN"
 "http://www.w3.org/TR/2001/REC-SVG-20010904/DTD/svg10.dtd">
<svg version="1.0" xmlns="http://www.w3.org/2000/svg"
 width="512.000000pt" height="512.000000pt" viewBox="0 0 512.000000 512.000000"
 preserveAspectRatio="xMidYMid meet">
<metadata>
Created by potrace 1.15, written by Peter Selinger 2001-2017
</metadata>
<g transform="translate(0.000000,512.000000) scale(0.100000,-0.100000)"
fill="#ffffff" stroke="none">
<path d="M2260 4874 c-451 -58 -886 -253 -1230 -552 -435 -378 -705 -880 -785
-1457 -24 -172 -17 -530 15 -705 173 -976 927 -1728 1905 -1901 172 -30 481
-37 675 -15 779 91 1476 589 1820 1301 156 324 230 647 230 1007 0 544 -175
1045 -515 1473 -76 96 -252 273 -349 351 -268 217 -634 393 -957 463 -236 50
-575 65 -809 35z m590 -190 c605 -81 1150 -423 1495 -940 182 -272 307 -615
346 -954 16 -139 13 -397 -6 -525 -126 -864 -748 -1562 -1585 -1781 -248 -64
-591 -85 -836 -49 -474 69 -885 275 -1219 610 -345 345 -554 774 -615 1260
-19 147 -17 433 4 560 98 614 423 1131 926 1472 210 143 499 266 755 322 219
48 496 57 735 25z"/>
</g>
</svg>
