<?xml version="1.0" encoding="UTF-8" standalone="no"?>
<!-- Created with Inkscape (http://www.inkscape.org/) -->

<svg
   xmlns:dc="http://purl.org/dc/elements/1.1/"
   xmlns:cc="http://creativecommons.org/ns#"
   xmlns:rdf="http://www.w3.org/1999/02/22-rdf-syntax-ns#"
   xmlns:svg="http://www.w3.org/2000/svg"
   xmlns="http://www.w3.org/2000/svg"
   xmlns:sodipodi="http://sodipodi.sourceforge.net/DTD/sodipodi-0.dtd"
   xmlns:inkscape="http://www.inkscape.org/namespaces/inkscape"
   width="31.75mm"
   height="31.75mm"
   viewBox="0 0 31.75 31.75"
   version="1.1"
   id="svg4575"
   inkscape:version="0.92.4 (5da689c313, 2019-01-14)"
   sodipodi:docname="warlock.svg">
  <defs
     id="defs4569" />
  <sodipodi:namedview
     id="base"
     pagecolor="#ffffff"
     bordercolor="#666666"
     borderopacity="1.0"
     inkscape:pageopacity="0.0"
     inkscape:pageshadow="2"
     inkscape:zoom="3.959798"
     inkscape:cx="40.619858"
     inkscape:cy="45.291756"
     inkscape:document-units="mm"
     inkscape:current-layer="layer1"
     showgrid="false"
     inkscape:pagecheckerboard="true"
     inkscape:window-width="1850"
     inkscape:window-height="1016"
     inkscape:window-x="70"
     inkscape:window-y="27"
     inkscape:window-maximized="1" />
  <metadata
     id="metadata4572">
    <rdf:RDF>
      <cc:Work
         rdf:about="">
        <dc:format>image/svg+xml</dc:format>
        <dc:type
           rdf:resource="http://purl.org/dc/dcmitype/StillImage" />
        <dc:title></dc:title>
      </cc:Work>
    </rdf:RDF>
  </metadata>
  <g
     inkscape:label="Layer 1"
     inkscape:groupmode="layer"
     id="layer1"
     transform="translate(-103.56548,-56.607143)">
    <path
       style="fill:#fffffe;fill-opacity:1;stroke-width:0.26458332"
       d="m 119.37107,85.182143 c -0.0753,-0.218281 -0.39108,-1.647031 -0.70165,-3.175 -0.31056,-1.527969 -0.63125,-3.030905 -0.71263,-3.339858 -0.20885,-0.792888 1.20183,-1.294231 2.41121,-0.856916 l 0.84053,0.30394 -0.63172,2.938604 c -0.85614,3.982614 -1.03955,4.610721 -1.20574,4.12923 z m -4.42884,-1.600729 c -3.5e-4,-0.89896 0.54565,-5.329463 0.67733,-5.496384 0.0372,-0.04711 0.44657,0.110331 0.90979,0.349871 0.99321,0.513605 0.968,0.798037 -0.32831,3.704534 -1.04027,2.332437 -1.25839,2.582296 -1.25881,1.441979 z m 7.83114,-1.723487 c -0.66892,-1.412108 -1.21547,-2.640824 -1.21455,-2.73048 0.002,-0.214125 1.62648,-1.136596 1.76225,-1.000827 0.16139,0.161395 0.90433,6.062968 0.77902,6.188272 -0.0608,0.06078 -0.6578,-1.044858 -1.32672,-2.456965 z m -11.93445,-0.313805 c 0.10246,-0.254661 0.43215,-1.095335 0.73264,-1.868164 0.54448,-1.400373 2.3706,-3.337907 2.9608,-3.141438 0.72496,0.241333 0.30936,1.135328 -1.48862,3.202124 -1.89373,2.176861 -2.57973,2.739234 -2.20482,1.807478 z m 15.17792,-1.720069 c -2.04594,-2.288753 -2.12606,-2.412041 -1.9187,-2.952408 0.2666,-0.694752 0.76458,-0.486665 2.0007,0.836019 1.06237,1.136761 2.13746,3.529349 1.7569,3.909914 -0.0684,0.06844 -0.89594,-0.738651 -1.8389,-1.793525 z m -7.36455,-4.05061 c -0.36074,-0.355007 -1.19668,-0.633655 -1.69622,-0.669091 -0.10975,-0.307105 -0.41751,-0.557885 -1.18656,-1.268618 -0.76906,-0.710733 -1.86505,-1.502722 -2.43553,-1.759975 -1.20445,-0.543129 -1.29645,-0.794112 -0.37579,-1.025182 0.3638,-0.09131 0.66146,-0.342341 0.66146,-0.55785 0,-0.255964 0.26601,-0.391834 0.76716,-0.391834 0.44161,0 1.36483,-0.402204 2.17556,-0.947785 0.84029,-0.565472 1.23987,-0.735123 1.48316,-0.890553 0.068,0.203849 0.33353,0.40494 0.77848,0.1134 0.29762,-0.195005 0.35704,-0.22193 0.67405,-0.448139 0.38197,0.246247 0.32464,0.245993 0.61314,0.435019 0.55623,0.335956 0.71308,-0.0044 0.89866,-0.171163 0.36097,0.200745 0.54926,0.352474 1.2858,0.918651 1.20254,0.924392 1.70387,0.990573 2.45724,0.990573 0.28876,0 0.59493,0.182188 0.68038,0.404863 0.0855,0.222674 0.46867,0.575095 0.85159,0.783156 0.3935,0.213804 0.52367,0.383393 0.29936,0.390021 -0.53146,0.0157 -2.52382,1.505328 -3.27149,2.223249 -0.55031,0.528416 -0.77419,0.706077 -1.22999,1.20217 -0.82197,0.141742 -1.50675,0.321281 -1.84852,0.685083 -0.374,0.398107 -0.46868,0.490832 -0.75019,0.80774 -0.25789,-0.214612 -0.41913,-0.417672 -0.83175,-0.82373 v -3e-6 z m 1.95361,-1.74046 c 0.84167,-0.38349 1.55026,-1.841902 1.32703,-2.731303 -0.17593,-0.700976 -0.37133,-0.771888 -1.38144,-0.501334 -0.49175,0.131713 -0.58193,0.296324 -0.46907,0.856283 0.0769,0.381272 -0.0213,0.981094 -0.21804,1.332938 l -0.35775,0.639716 -0.3147,-0.588019 c -0.17309,-0.32341 -0.27727,-0.89855 -0.23151,-1.278088 0.0673,-0.558089 -0.0618,-0.738607 -0.67502,-0.943842 -0.57097,-0.191104 -0.81498,-0.164135 -0.98814,0.109206 -0.47147,0.744292 -0.24651,1.850414 0.53537,2.632289 0.8259,0.825901 1.67835,0.971033 2.77327,0.472154 z m -5.8752,-6.574336 c -0.48033,-0.113756 -0.90957,-0.250397 -0.95386,-0.303646 -0.16305,-0.195997 -0.94674,-2.702753 -0.86921,-2.780283 0.0441,-0.0441 0.84399,0.690462 1.77752,1.632368 1.69276,1.707939 1.69699,1.842672 0.0456,1.451561 z m 9.46464,-1.426763 c 0.94168,-0.963503 1.79344,-1.751824 1.89281,-1.751824 0.19179,0 -0.74296,2.649443 -1.04539,2.963019 -0.0981,0.101692 -0.7141,0.264935 -1.36895,0.362762 l -1.19062,0.177868 z m -5.40665,0.536925 c -0.46904,-0.342971 -0.47103,-0.451654 -0.0506,-2.749903 0.24078,-1.31605 0.43778,-2.822237 0.43778,-3.347082 0,-1.84288 0.42378,-0.925826 0.8734,1.890007 0.24979,1.564348 0.52059,3.089431 0.60178,3.389071 0.11046,0.407687 -0.0264,0.624104 -0.54394,0.859896 -0.84325,0.38421 -0.73068,0.387795 -1.31845,-0.04199 z"
       id="path4590"
       inkscape:connector-curvature="0"
       sodipodi:nodetypes="ccccccccccccscccscccscccccccccccssccccccsscccsccccccscsccccccccsccscccsscccsccsccccc" />
  </g>
</svg>
