<?xml version="1.0" encoding="UTF-8" standalone="no"?>
<!-- Created with Inkscape (http://www.inkscape.org/) -->

<svg
   xmlns:dc="http://purl.org/dc/elements/1.1/"
   xmlns:cc="http://creativecommons.org/ns#"
   xmlns:rdf="http://www.w3.org/1999/02/22-rdf-syntax-ns#"
   xmlns:svg="http://www.w3.org/2000/svg"
   xmlns="http://www.w3.org/2000/svg"
   xmlns:sodipodi="http://sodipodi.sourceforge.net/DTD/sodipodi-0.dtd"
   xmlns:inkscape="http://www.inkscape.org/namespaces/inkscape"
   width="31.75mm"
   height="31.75mm"
   viewBox="0 0 31.75 31.75"
   version="1.1"
   id="svg8"
   inkscape:version="0.92.4 (5da689c313, 2019-01-14)"
   sodipodi:docname="wizard.svg">
  <defs
     id="defs2" />
  <sodipodi:namedview
     id="base"
     pagecolor="#ffffff"
     bordercolor="#666666"
     borderopacity="1.0"
     inkscape:pageopacity="0.0"
     inkscape:pageshadow="2"
     inkscape:zoom="3.959798"
     inkscape:cx="-30.173656"
     inkscape:cy="63.712714"
     inkscape:document-units="mm"
     inkscape:current-layer="layer1"
     showgrid="false"
     showguides="false"
     inkscape:pagecheckerboard="true"
     inkscape:window-width="1850"
     inkscape:window-height="1016"
     inkscape:window-x="70"
     inkscape:window-y="27"
     inkscape:window-maximized="1" />
  <metadata
     id="metadata5">
    <rdf:RDF>
      <cc:Work
         rdf:about="">
        <dc:format>image/svg+xml</dc:format>
        <dc:type
           rdf:resource="http://purl.org/dc/dcmitype/StillImage" />
        <dc:title></dc:title>
      </cc:Work>
    </rdf:RDF>
  </metadata>
  <g
     inkscape:label="Layer 1"
     inkscape:groupmode="layer"
     id="layer1"
     transform="translate(-40.065491,-83.065475)">
    <path
       style="fill:#ffffff;fill-opacity:1;stroke-width:0.26458332"
       d="m 55.024175,112.72282 c 0.04695,-0.64164 0.31341,-1.47508 0.592137,-1.85209 0.970493,-1.31268 1.433389,-2.40606 1.061036,-2.50619 -0.18699,-0.0503 -0.914837,-0.22877 -1.617437,-0.39664 -0.7026,-0.16786 -1.712504,-0.60083 -2.244231,-0.96215 -1.168534,-0.79404 -1.790169,-0.83162 -2.165184,-0.1309 -0.154841,0.28932 -0.56081,0.59614 -0.902153,0.68181 -0.341344,0.0857 -0.758398,0.45815 -0.926788,0.82772 -0.337019,0.73968 -0.145902,0.98671 1.430394,1.8489 1.134709,0.62066 0.356117,0.77082 -1.104475,0.21301 -1.152131,-0.44 -1.216935,-0.43846 -1.695862,0.0405 -0.487551,0.48755 -0.435859,0.52459 2.474108,1.77291 1.634634,0.70123 3.150656,1.38044 3.368938,1.50936 0.218281,0.12892 0.677513,0.20876 1.020516,0.17741 0.537348,-0.0491 0.635452,-0.21843 0.709001,-1.22362 z m 3.178821,-5.83378 c 0.912027,-0.576 1.954291,-1.12157 2.316144,-1.21239 0.506855,-0.12721 0.913367,-0.69168 1.77051,-2.45846 0.611928,-1.26134 1.34641,-2.91616 1.632181,-3.677374 0.285771,-0.761218 0.630938,-1.452854 0.767039,-1.536969 0.491185,-0.303569 0.242561,-1.060747 -0.274757,-0.840611 -0.615833,0.262057 -1.154754,1.797393 -1.221716,1.859679 0.0069,-0.159184 0.904778,-2.120055 1.088453,-2.475237 0.47133,-0.911449 0.07287,-1.299415 -0.567009,-0.552085 -0.121779,0.142227 -0.671061,0.995393 -0.790815,1.135785 0.0043,-0.320266 0.354447,-0.644478 -2.33e-4,-0.752217 -0.529174,-0.160745 -1.95522,2.218173 -1.95522,3.283395 0,0.840764 -1.226083,3.696314 -1.47864,3.443754 -0.06608,-0.0661 0.173705,-0.7544 0.532858,-1.52959 0.709506,-1.5314 0.690434,-1.864533 -0.09499,-1.659141 -0.487148,0.127391 -0.842582,0.583501 -2.512381,3.223981 -0.565963,0.89497 -1.087533,1.31526 -2.293853,1.84842 -0.858733,0.37953 -1.561332,0.84054 -1.561332,1.02446 0,0.18392 -0.119062,0.3344 -0.264583,0.3344 -1.102941,0 1.697714,1.52939 2.881825,1.57371 0.202556,0.008 1.114487,-0.45748 2.026513,-1.03348 z m -2.064067,-3.10044 c 1.153302,-0.86069 1.089353,-1.24693 -0.122609,-0.74054 -1.171844,0.48962 -1.927912,1.12936 -1.927912,1.63127 0,0.4323 0.664438,0.14368 2.050521,-0.89073 z m 0.985638,-4.120521 c -0.09911,-0.3962 0.07619,-0.900111 0.524125,-1.506611 0.510496,-0.691204 0.673049,-1.231919 0.673049,-2.238819 0,-1.263036 -0.06895,-1.39227 -1.419528,-2.660576 -2.409057,-2.262307 -2.213232,-4.249223 0.400298,-4.06157 0.919364,0.06601 1.165163,0.189366 1.219183,0.611847 0.08765,0.685515 -0.188846,1.074552 -0.927557,1.305085 -0.454304,0.141777 -0.595313,0.08085 -0.595313,-0.257229 0,-0.285087 0.141479,-0.388722 0.396875,-0.290717 0.269952,0.10359 0.396875,-0.01428 0.396875,-0.368568 0,-0.588697 -0.762558,-0.710804 -1.27,-0.203363 -0.503097,0.503097 -0.385752,1.744021 0.194273,2.054441 1.307902,0.699968 2.629461,0.01891 2.943203,-1.516775 0.324671,-1.589174 -0.778033,-2.971832 -2.370109,-2.971832 -2.438226,0 -3.837729,1.870683 -3.192409,4.267219 0.220051,0.817205 0.558132,1.201805 1.696662,1.930113 0.782019,0.500252 1.500656,1.157838 1.596973,1.461303 0.100436,0.316447 -0.06575,1.247756 -0.389667,2.183753 -0.544918,1.574585 -0.541593,2.85761 0.0074,2.85761 0.145521,0 0.197568,-0.267889 0.115661,-0.595311 z M 52.236324,88.22485 c -0.649538,-0.691402 -1.445956,-0.900793 -1.257925,-0.330729 0.109959,0.333371 1.181326,0.981055 1.634775,0.988287 0.134507,0.0021 -0.03507,-0.293756 -0.37685,-0.657558 z m 9.57461,-0.181901 c 0.395151,-0.395151 0.474236,-0.613623 0.249273,-0.68861 -0.346856,-0.115619 -1.357216,0.66143 -1.357216,1.04381 0,0.401407 0.517122,0.23562 1.107943,-0.3552 z m -7.19336,-1.502209 c 0,-0.442794 -1.103823,-1.626297 -1.365798,-1.464388 -0.151194,0.09344 0.0497,0.492406 0.467563,0.928563 0.788866,0.823399 0.898235,0.888641 0.898235,0.535825 z m 2.645834,-1.528554 c 0,-0.627681 -0.108104,-0.896873 -0.330729,-0.823556 -0.375841,0.123775 -0.580064,1.100623 -0.353522,1.690982 0.254823,0.664057 0.684251,0.119671 0.684251,-0.867426 z m 3.023809,0.812515 c 0.228676,-0.228675 0.415774,-0.526332 0.415774,-0.661458 0,-0.462021 -0.467929,-0.246261 -0.901711,0.415774 -0.48085,0.733868 -0.162965,0.894587 0.485937,0.245684 z"
       id="path4548"
       inkscape:connector-curvature="0"
       sodipodi:nodetypes="ccccccccccccccccccccsscsccsscccccsscccscssccssscsscsssssssccsccccccscsssccsscsscscc" />
  </g>
</svg>
