<?xml version="1.0" encoding="UTF-8" standalone="no"?>
<!-- Created with Inkscape (http://www.inkscape.org/) -->

<svg
   xmlns:dc="http://purl.org/dc/elements/1.1/"
   xmlns:cc="http://creativecommons.org/ns#"
   xmlns:rdf="http://www.w3.org/1999/02/22-rdf-syntax-ns#"
   xmlns:svg="http://www.w3.org/2000/svg"
   xmlns="http://www.w3.org/2000/svg"
   xmlns:sodipodi="http://sodipodi.sourceforge.net/DTD/sodipodi-0.dtd"
   xmlns:inkscape="http://www.inkscape.org/namespaces/inkscape"
   width="33.866665mm"
   height="33.866665mm"
   viewBox="0 0 33.866665 33.866665"
   version="1.1"
   id="svg5103"
   inkscape:version="0.92.4 (5da689c313, 2019-01-14)"
   sodipodi:docname="enchantment.svg">
  <defs
     id="defs5097" />
  <sodipodi:namedview
     id="base"
     pagecolor="#ffffff"
     bordercolor="#666666"
     borderopacity="1.0"
     inkscape:pageopacity="0.0"
     inkscape:pageshadow="2"
     inkscape:zoom="3.959798"
     inkscape:cx="86.901217"
     inkscape:cy="56.065704"
     inkscape:document-units="mm"
     inkscape:current-layer="layer1"
     showgrid="false"
     inkscape:window-width="1850"
     inkscape:window-height="1016"
     inkscape:window-x="70"
     inkscape:window-y="27"
     inkscape:window-maximized="1" />
  <metadata
     id="metadata5100">
    <rdf:RDF>
      <cc:Work
         rdf:about="">
        <dc:format>image/svg+xml</dc:format>
        <dc:type
           rdf:resource="http://purl.org/dc/dcmitype/StillImage" />
        <dc:title></dc:title>
      </cc:Work>
    </rdf:RDF>
  </metadata>
  <g
     inkscape:label="Layer 1"
     inkscape:groupmode="layer"
     id="layer1"
     transform="translate(128.81429,-56.304764)">
    <path
       style="fill:#ffffff;stroke-width:0.26458332;fill-opacity:1"
       d="m -116.32596,85.091429 c -0.23419,-0.234188 -0.3175,-2.621651 -0.3175,-9.098679 v -8.781178 l -0.92986,-0.174444 c -0.51142,-0.09594 -1.63828,-0.09429 -2.50413,0.0037 -1.52235,0.172234 -1.58485,0.15488 -1.89518,-0.526235 -0.54779,-1.202269 0.14766,-1.601572 2.89072,-1.659735 l 2.30616,-0.0489 0.0811,-1.52945 c 0.0877,-1.65513 0.37179,-2.20921 1.13266,-2.20921 0.69553,0 1.03525,0.806146 1.03525,2.456633 v 1.433088 l 1.38289,-0.218605 c 2.31639,-0.366172 4.43794,0.144526 4.43794,1.068296 0,0.828876 -0.60919,1.058657 -2.79397,1.053857 -2.84411,-0.0063 -3.02686,0.08589 -3.02686,1.526083 0,1.163768 0.007,1.172579 0.58804,0.765442 1.63904,-1.148029 4.17446,0.205804 4.17446,2.229029 0,0.522986 0.0664,0.505673 1.0298,-0.268538 0.61552,-0.494653 1.45893,-0.885127 2.09655,-0.97065 0.90051,-0.120784 1.17297,-0.03686 1.74833,0.53849 0.98761,0.987616 0.91438,2.337188 -0.24782,4.566896 -0.60181,1.154587 -0.75767,1.627649 -0.44219,1.342143 0.73701,-0.666991 2.32625,-0.568634 3.08586,0.190982 1.38716,1.387153 1.01049,3.561409 -1.02094,5.89328 -2.45581,2.819006 -6.33452,2.908814 -7.47756,0.173133 -0.59066,-1.413652 -0.29394,-2.349626 1.59345,-5.026302 2.26118,-3.206788 3.13432,-4.738667 3.02239,-5.302655 -0.146,-0.735595 -2.80596,1.928858 -4.72988,4.737849 -0.89183,1.30211 -1.67391,2.315075 -1.73795,2.251034 -0.064,-0.06404 0.0849,-1.351859 0.33106,-2.861816 0.71041,-4.358275 0.75868,-5.491589 0.24234,-5.689725 -0.28946,-0.111076 -0.74789,0.131281 -1.34734,0.712291 l -0.9086,0.880653 v 6.112888 c 0,6.272266 -0.0746,6.747889 -1.05833,6.747889 -0.23284,0 -0.56621,-0.142875 -0.74084,-0.3175 z m 9.68366,-2.702634 c 1.49964,-0.785644 3.34735,-3.32594 2.70701,-3.72169 -0.1299,-0.08029 -0.31097,-0.02497 -0.40238,0.122925 -0.0914,0.147895 -0.45262,0.2689 -0.80272,0.2689 -0.70857,0 -1.27087,-0.789503 -1.02277,-1.436042 0.31462,-0.819896 -0.1344,-0.388856 -1.28924,1.237604 -1.82271,2.567066 -1.88729,2.739707 -1.25962,3.367374 0.63216,0.63216 1.1007,0.668591 2.06972,0.160929 z"
       id="path5116"
       inkscape:connector-curvature="0" />
  </g>
</svg>
