<?xml version="1.0" standalone="no"?>
<!DOCTYPE svg PUBLIC "-//W3C//DTD SVG 20010904//EN"
 "http://www.w3.org/TR/2001/REC-SVG-20010904/DTD/svg10.dtd">
<svg version="1.0" xmlns="http://www.w3.org/2000/svg"
 width="512.000000pt" height="512.000000pt" viewBox="0 0 512.000000 512.000000"
 preserveAspectRatio="xMidYMid meet">
<metadata>
Created by potrace 1.15, written by Peter Selinger 2001-2017
</metadata>
<g transform="translate(0.000000,512.000000) scale(0.100000,-0.100000)"
fill="#ffffff" stroke="none">
<path d="M170 4750 l0 -110 331 -164 c182 -91 333 -167 335 -169 2 -2 -28 -70
-67 -151 -39 -81 -69 -150 -66 -152 7 -7 1551 -243 1557 -238 3 3 -11 20 -30
37 -33 29 -682 616 -989 894 -80 72 -149 129 -153 125 -3 -4 -39 -77 -79 -162
-39 -85 -75 -159 -79 -163 -4 -5 -174 75 -379 177 -204 102 -373 186 -376 186
-3 0 -5 -49 -5 -110z"/>
<path d="M3400 4514 c-265 -32 -475 -91 -675 -191 -81 -41 -224 -134 -255
-168 l-21 -23 10 -363 c24 -817 88 -1305 232 -1789 183 -610 487 -1025 907
-1240 l83 -42 42 16 c54 21 208 126 286 194 235 208 451 585 599 1042 180 556
291 1359 304 2195 l3 189 -120 38 c-223 70 -497 125 -745 147 -157 15 -510 12
-650 -5z m530 -285 c178 -19 411 -79 580 -148 41 -17 76 -31 78 -31 6 0 1
-397 -8 -560 -45 -832 -180 -1453 -405 -1866 -62 -114 -181 -269 -258 -339
-68 -61 -167 -129 -238 -162 l-46 -21 -74 40 c-129 69 -181 109 -285 212 -117
118 -210 252 -288 417 -203 427 -305 1051 -306 1860 l0 235 35 41 c81 95 256
201 425 257 235 78 478 98 790 65z"/>
<path d="M3500 4060 c-171 -19 -347 -70 -470 -137 -74 -40 -180 -121 -180
-137 4 -216 24 -684 35 -811 78 -860 289 -1379 661 -1622 l85 -55 55 34 c152
91 309 300 418 555 179 419 295 1122 300 1807 l1 239 -70 24 c-247 85 -601
128 -835 103z"/>
<path d="M900 3335 l-12 -165 -32 0 c-17 0 -170 14 -341 30 -170 17 -318 30
-327 30 -16 0 -18 -11 -18 -98 l0 -97 346 -32 c190 -17 347 -33 350 -35 2 -2
-3 -78 -11 -168 -8 -90 -13 -165 -12 -166 1 -2 52 8 112 21 148 32 1161 245
1338 282 16 3 25 9 20 14 -4 4 -147 62 -318 129 -170 67 -359 141 -420 165
-60 24 -231 91 -378 149 -148 58 -272 106 -276 106 -5 0 -14 -74 -21 -165z"/>
<path d="M1052 2084 c22 -75 38 -137 36 -138 -2 -1 -187 -56 -413 -121 -226
-65 -431 -124 -457 -132 l-48 -14 0 -99 c0 -77 3 -100 13 -100 8 0 74 18 148
39 408 119 798 231 808 231 5 0 20 -33 31 -72 55 -190 71 -238 79 -238 4 0
135 82 289 183 155 100 351 227 437 282 85 55 224 145 307 200 l153 100 -340
6 c-187 3 -507 7 -711 8 l-371 1 39 -136z"/>
<path d="M2600 1330 c-69 -21 -276 -84 -460 -140 -646 -197 -854 -261 -859
-265 -2 -3 38 -68 89 -146 58 -86 90 -143 83 -147 -130 -82 -683 -457 -683
-464 0 -4 75 -8 168 -8 l167 0 233 156 c129 85 235 154 237 152 1 -2 42 -61
90 -133 49 -71 91 -134 95 -138 4 -5 210 236 457 535 546 661 527 638 517 638
-5 -1 -65 -18 -134 -40z"/>
</g>
</svg>
