<?xml version="1.0" standalone="no"?>
<!DOCTYPE svg PUBLIC "-//W3C//DTD SVG 20010904//EN"
 "http://www.w3.org/TR/2001/REC-SVG-20010904/DTD/svg10.dtd">
<svg version="1.0" xmlns="http://www.w3.org/2000/svg"
 width="512.000000pt" height="512.000000pt" viewBox="0 0 512.000000 512.000000"
 preserveAspectRatio="xMidYMid meet">
<metadata>
Created by potrace 1.15, written by Peter Selinger 2001-2017
</metadata>
<g transform="translate(0.000000,512.000000) scale(0.100000,-0.100000)"
fill="#ffffff" stroke="none">
<path d="M1056 4959 c-22 -5 -72 -25 -112 -44 -115 -56 -168 -144 -167 -280 1
-119 50 -227 168 -367 83 -99 180 -179 348 -283 186 -115 263 -174 371 -282
124 -123 166 -216 166 -363 0 -99 -22 -135 -100 -168 -47 -19 -67 -22 -135
-18 -131 8 -324 85 -500 201 -139 91 -179 140 -281 350 -58 118 -79 150 -134
206 -49 49 -80 72 -125 89 -115 44 -276 27 -349 -38 -40 -35 -66 -112 -66
-193 0 -190 105 -346 263 -394 29 -9 104 -23 167 -31 211 -27 285 -54 451
-165 112 -76 299 -258 348 -341 130 -223 133 -427 9 -658 -60 -113 -121 -193
-242 -318 -114 -118 -203 -184 -296 -220 -30 -12 -122 -36 -205 -53 -299 -61
-426 -144 -476 -311 -37 -122 -16 -211 75 -306 78 -82 132 -107 226 -107 88 1
113 12 212 92 74 60 121 119 258 328 109 165 225 286 317 331 49 25 70 29 138
29 67 0 89 -4 137 -28 74 -36 133 -103 155 -176 23 -74 22 -280 -1 -416 -35
-206 -112 -462 -211 -700 -31 -75 -55 -138 -53 -140 2 -2 30 35 63 82 336 484
646 858 814 983 119 87 193 100 298 51 124 -59 241 -206 361 -453 37 -76 70
-138 73 -138 3 0 -3 69 -12 153 -48 418 -33 538 75 591 33 16 46 17 102 8 112
-18 213 -76 413 -236 81 -66 172 -178 220 -275 21 -42 59 -135 84 -207 87
-250 136 -342 243 -451 88 -90 198 -139 334 -150 140 -11 234 36 287 145 25
50 28 68 28 152 0 86 -3 101 -33 161 -56 116 -220 251 -497 409 -268 153 -402
246 -510 354 -159 161 -178 300 -50 373 141 81 352 108 770 99 165 -4 336 -9
380 -11 95 -6 118 -15 -254 105 -489 157 -814 308 -962 447 -27 25 -66 74 -87
107 -37 61 -37 61 -37 171 1 101 3 116 33 186 68 158 157 246 343 340 115 57
240 91 439 118 290 39 493 141 572 288 96 178 72 351 -68 489 -132 131 -303
147 -484 47 -131 -73 -221 -180 -340 -403 -40 -74 -90 -161 -113 -195 -85
-125 -237 -242 -344 -265 -176 -38 -286 126 -340 510 -21 153 -22 673 -1 928
7 89 10 162 6 162 -5 0 -8 -7 -8 -16 0 -28 -118 -499 -165 -660 -100 -343
-212 -562 -340 -665 -59 -47 -150 -87 -231 -101 -63 -10 -80 -9 -138 6 -131
36 -289 131 -351 211 -80 106 -166 309 -241 568 -30 105 -73 232 -94 281 -95
216 -234 396 -347 452 -64 31 -175 41 -247 23z m1526 -1766 c63 -29 132 -94
163 -156 31 -63 31 -77 3 -77 -36 0 -83 -34 -101 -73 -21 -43 -21 -70 -2 -110
45 -93 173 -100 230 -14 17 27 22 79 11 114 -10 32 31 46 109 40 192 -14 302
-210 215 -384 -33 -66 -77 -106 -146 -132 l-43 -17 30 -45 c67 -103 96 -266
70 -391 -40 -189 -197 -353 -386 -403 -325 -84 -654 166 -656 499 l-1 84 -40
-14 c-123 -43 -251 6 -314 118 -37 69 -41 170 -7 233 50 94 126 140 233 140
64 0 82 -4 122 -27 54 -32 103 -88 119 -135 l11 -33 41 35 41 35 30 -31 c34
-35 82 -59 119 -59 23 0 23 -1 13 -49 -7 -39 -6 -62 6 -105 l15 -56 -34 0
c-93 0 -175 -89 -175 -190 0 -49 26 -113 59 -142 50 -46 141 -60 205 -33 72
30 127 127 114 200 l-6 32 55 -5 c76 -6 137 13 191 61 107 94 124 243 40 357
-60 82 -180 125 -277 98 -23 -7 -26 -4 -37 39 -25 90 -119 149 -202 124 -48
-14 -108 -64 -116 -97 -3 -13 -10 -24 -15 -24 -22 0 -101 87 -126 139 -24 49
-28 68 -28 146 0 70 5 100 21 136 40 85 119 156 209 186 57 19 179 11 237 -14z"/>
</g>
</svg>
