<?xml version="1.0" standalone="no"?>
<!DOCTYPE svg PUBLIC "-//W3C//DTD SVG 20010904//EN"
 "http://www.w3.org/TR/2001/REC-SVG-20010904/DTD/svg10.dtd">
<svg version="1.0" xmlns="http://www.w3.org/2000/svg"
 width="512.000000pt" height="512.000000pt" viewBox="0 0 512.000000 512.000000"
 preserveAspectRatio="xMidYMid meet">
<metadata>
Created by potrace 1.15, written by Peter Selinger 2001-2017
</metadata>
<g transform="translate(0.000000,512.000000) scale(0.100000,-0.100000)"
fill="#ffffff" stroke="none">
<path d="M1819 4928 c-70 -36 -128 -101 -148 -168 -8 -26 -11 -228 -11 -669
l0 -631 -638 0 -639 0 -64 -32 c-70 -36 -128 -101 -148 -168 -8 -26 -11 -238
-11 -706 l0 -669 24 -51 c32 -68 74 -115 133 -144 l48 -25 648 -3 647 -2 0
-638 0 -637 24 -51 c32 -68 74 -115 133 -144 l48 -25 684 -3 683 -2 52 23 c74
34 111 70 145 139 l31 61 0 639 0 638 638 0 639 0 61 31 c70 34 105 71 139
145 l24 52 -3 683 c-3 648 -4 686 -22 719 -37 68 -77 109 -138 139 l-61 31
-638 0 -638 0 -3 648 c-3 612 -4 649 -22 682 -37 68 -77 109 -138 139 l-61 31
-677 0 -677 0 -64 -32z m1041 -1623 l295 -295 -595 0 -595 0 295 295 c162 162
297 295 300 295 3 0 138 -133 300 -295z m0 -750 l295 -295 -595 0 -595 0 295
295 c162 162 297 295 300 295 3 0 138 -133 300 -295z m0 -750 l295 -295 -595
0 -595 0 295 295 c162 162 297 295 300 295 3 0 138 -133 300 -295z"/>
</g>
</svg>
