<?xml version="1.0" standalone="no"?>
<!DOCTYPE svg PUBLIC "-//W3C//DTD SVG 20010904//EN"
 "http://www.w3.org/TR/2001/REC-SVG-20010904/DTD/svg10.dtd">
<svg version="1.0" xmlns="http://www.w3.org/2000/svg"
 width="512.000000pt" height="512.000000pt" viewBox="0 0 512.000000 512.000000"
 preserveAspectRatio="xMidYMid meet">
<metadata>
Created by potrace 1.15, written by Peter Selinger 2001-2017
</metadata>
<g transform="translate(0.000000,512.000000) scale(0.100000,-0.100000)"
fill="#ffffff" stroke="none">
<path d="M2295 4929 c-269 -34 -509 -107 -760 -229 -346 -169 -623 -394 -849
-689 -247 -323 -420 -743 -471 -1150 -24 -184 -17 -535 14 -701 45 -247 114
-457 223 -675 87 -174 107 -193 58 -54 -38 111 -66 221 -91 360 -27 149 -37
491 -19 663 66 650 373 1292 840 1756 370 367 797 604 1275 705 l110 24 -130
-1 c-71 0 -161 -4 -200 -9z"/>
<path d="M2430 4403 c-281 -18 -614 -134 -870 -300 -174 -114 -363 -295 -482
-464 -381 -539 -452 -1207 -193 -1820 35 -84 104 -213 111 -207 2 3 -10 44
-26 92 -126 370 -118 818 21 1241 48 144 174 404 259 535 301 461 784 804
1275 905 44 9 81 18 84 21 4 4 -98 3 -179 -3z"/>
<path d="M2370 3960 c-232 -40 -444 -128 -636 -265 -92 -66 -228 -205 -302
-311 -109 -153 -196 -352 -238 -544 -27 -119 -27 -438 -1 -558 121 -561 536
-981 1090 -1103 118 -26 363 -36 478 -20 409 58 731 251 973 581 57 77 155
274 190 380 50 153 61 231 61 440 0 149 -4 214 -18 278 -122 567 -530 980
-1092 1107 -83 19 -422 29 -505 15z m190 -324 l0 -143 -82 -6 c-88 -6 -233
-44 -298 -77 -22 -11 -44 -20 -49 -20 -10 0 -141 211 -141 227 0 13 129 75
214 103 78 26 249 58 314 59 l42 1 0 -144z m555 14 c108 -53 267 -159 305
-205 13 -16 6 -26 -88 -116 l-101 -100 -83 63 c-85 65 -194 126 -260 148 -21
6 -38 14 -38 16 0 6 59 245 65 261 6 19 66 -1 200 -67z m-1318 -348 l92 -99
-56 -74 c-54 -71 -134 -223 -148 -281 -4 -16 -12 -28 -19 -28 -18 0 -247 58
-253 64 -9 9 39 140 85 230 45 89 184 284 202 286 3 0 47 -44 97 -98z m1896
-244 c63 -150 107 -332 107 -453 l0 -40 -149 3 -148 3 -6 75 c-8 91 -38 211
-72 288 l-25 57 47 29 c27 16 80 50 118 74 39 24 75 45 81 45 7 1 27 -36 47
-81z m-2115 -534 l60 -7 12 -81 c12 -88 60 -242 91 -294 10 -18 19 -35 19 -37
0 -3 -116 -76 -192 -119 l-47 -27 -29 58 c-65 127 -109 289 -126 456 l-6 57
78 0 c44 0 106 -3 140 -6z m2170 -308 c3 -4 -33 -104 -58 -161 -43 -93 -195
-318 -231 -341 -7 -4 -35 17 -67 52 -31 32 -76 80 -100 105 l-44 46 57 74 c57
73 121 190 144 260 l12 36 142 -35 c78 -19 143 -35 145 -36z m-1744 -390 c57
-46 209 -127 277 -147 22 -7 38 -17 36 -23 -3 -6 -17 -65 -32 -131 -15 -66
-31 -124 -35 -128 -8 -9 -135 35 -205 71 -81 42 -238 148 -270 181 l-29 31 94
95 c52 52 98 95 102 95 5 0 33 -20 62 -44z m1159 -323 c5 -8 -13 -22 -55 -42
-127 -60 -283 -102 -435 -116 l-73 -7 0 145 c0 160 -1 157 66 157 74 0 271 58
328 96 18 12 25 4 90 -104 39 -64 75 -122 79 -129z"/>
<path d="M4620 3777 c0 -3 11 -35 25 -71 94 -249 142 -601 124 -916 -14 -275
-51 -467 -139 -730 -314 -943 -1088 -1672 -1969 -1855 l-116 -24 115 0 c458
-2 996 193 1400 508 176 136 378 358 515 561 73 110 201 366 248 500 141 396
175 812 102 1241 -21 123 -76 317 -124 436 -64 162 -181 387 -181 350z"/>
<path d="M4160 3507 c0 -1 14 -42 30 -91 17 -49 43 -146 57 -215 25 -115 27
-146 27 -351 0 -169 -4 -250 -17 -325 -110 -631 -463 -1182 -972 -1518 -177
-116 -401 -215 -585 -257 -162 -36 -166 -40 -30 -35 176 7 314 33 495 91 479
157 875 509 1091 970 218 464 230 996 34 1489 -41 103 -130 269 -130 242z"/>
</g>
</svg>
