<?xml version="1.0" standalone="no"?>
<!DOCTYPE svg PUBLIC "-//W3C//DTD SVG 20010904//EN"
 "http://www.w3.org/TR/2001/REC-SVG-20010904/DTD/svg10.dtd">
<svg version="1.0" xmlns="http://www.w3.org/2000/svg"
 width="512.000000pt" height="512.000000pt" viewBox="0 0 512.000000 512.000000"
 preserveAspectRatio="xMidYMid meet">
<metadata>
Created by potrace 1.15, written by Peter Selinger 2001-2017
</metadata>
<g transform="translate(0.000000,512.000000) scale(0.100000,-0.100000)"
fill="#ffffff" stroke="none">
<path d="M2513 4286 c-37 -17 -53 -31 -53 -44 0 -19 145 -915 155 -958 4 -17
-4 -23 -48 -37 -28 -9 -53 -13 -55 -9 -1 4 -103 211 -227 460 l-224 452 -38 0
c-53 0 -131 -39 -175 -88 -21 -23 -38 -46 -38 -51 0 -5 96 -208 214 -450 l214
-441 -43 -30 -43 -30 -259 273 c-142 149 -275 290 -295 311 -35 39 -36 39 -69
25 -72 -29 -159 -140 -159 -202 0 -10 69 -91 153 -180 l152 -162 67 1 c73 2
69 4 83 -64 6 -28 13 -34 50 -44 37 -10 44 -16 48 -41 2 -16 -1 -46 -6 -67
l-11 -38 135 -144 c74 -78 137 -142 142 -140 4 1 17 -18 29 -43 21 -44 23 -45
68 -45 40 0 48 -4 58 -25 7 -14 12 -41 12 -60 0 -32 -5 -38 -50 -63 l-50 -27
0 -65 c0 -149 -128 -1145 -189 -1480 l-18 -100 25 -16 c24 -16 37 -15 219 9
l194 27 147 -44 c137 -41 158 -45 302 -51 l155 -6 53 54 53 54 -10 114 c-6 63
-11 122 -11 132 0 15 -11 17 -100 17 l-100 0 -1 58 c0 31 -8 287 -18 567 -10
281 -18 511 -17 511 1 1 35 -4 76 -12 122 -21 110 -36 110 136 0 83 -1 150 -2
150 -2 0 -35 -13 -75 -29 -139 -57 -261 -65 -356 -23 l-46 21 24 44 25 45 38
-14 c60 -21 159 -17 240 10 109 37 194 86 472 270 304 201 383 251 507 317
104 57 104 55 37 129 -47 51 -79 63 -166 58 -64 -3 -87 -10 -188 -59 -63 -31
-159 -83 -213 -117 l-98 -60 -43 26 c-24 15 -42 32 -40 37 2 6 48 217 104 470
55 253 102 471 105 484 5 21 3 23 -19 17 -13 -3 -31 -8 -39 -11 -8 -4 -51 26
-108 74 -52 44 -97 77 -100 73 -4 -4 -46 -186 -95 -406 l-88 -398 -50 7 c-28
3 -52 7 -53 9 -1 1 -35 210 -76 464 -41 255 -79 468 -86 475 -7 7 -46 13 -89
15 -65 2 -85 -1 -129 -22z m325 -2628 c7 -222 15 -456 19 -521 4 -75 2 -117
-4 -117 -6 0 -49 37 -97 83 l-86 82 0 100 c0 84 4 104 20 125 11 14 20 28 20
31 0 3 -25 26 -55 50 l-55 44 0 127 0 127 38 3 37 3 38 110 c31 92 43 114 70
132 18 12 35 22 38 22 3 1 11 -180 17 -401z"/>
<path d="M1270 724 c-379 -89 -423 -101 -686 -197 l-280 -102 -65 -123 c-35
-68 -65 -128 -67 -133 -2 -5 960 -9 2382 -9 1312 0 2386 4 2386 8 0 7 -237
143 -470 270 -25 13 -59 33 -75 43 -17 10 -121 40 -230 67 -167 41 -236 65
-419 141 -120 50 -223 91 -230 91 -12 -1 -45 -30 -251 -224 l-126 -119 -207
10 c-196 10 -213 12 -322 47 -63 20 -133 36 -155 36 -22 0 -119 -11 -215 -24
l-175 -24 -125 77 -125 78 -55 91 c-32 54 -61 92 -70 91 -8 0 -197 -43 -420
-95z"/>
</g>
</svg>
