<?xml version="1.0" standalone="no"?>
<!DOCTYPE svg PUBLIC "-//W3C//DTD SVG 20010904//EN"
 "http://www.w3.org/TR/2001/REC-SVG-20010904/DTD/svg10.dtd">
<svg version="1.0" xmlns="http://www.w3.org/2000/svg"
 width="512.000000pt" height="512.000000pt" viewBox="0 0 512.000000 512.000000"
 preserveAspectRatio="xMidYMid meet">
<metadata>
Created by potrace 1.15, written by Peter Selinger 2001-2017
</metadata>
<g transform="translate(0.000000,512.000000) scale(0.100000,-0.100000)"
fill="#ffffff" stroke="none">
<path d="M1716 3896 c-77 -29 -126 -82 -147 -160 -15 -53 1 -135 36 -188 67
-101 244 -118 342 -31 85 75 90 233 9 321 -53 59 -165 86 -240 58z"/>
<path d="M3360 3901 c-121 -37 -187 -147 -160 -266 44 -197 309 -242 415 -71
26 43 30 59 29 115 -1 104 -43 169 -134 210 -46 21 -105 25 -150 12z"/>
<path d="M2429 3266 c-122 -35 -202 -104 -389 -336 -180 -222 -295 -323 -448
-392 -37 -16 -93 -41 -124 -56 -112 -50 -159 -121 -166 -247 -5 -98 12 -174
68 -292 114 -243 350 -468 560 -532 386 -119 876 -121 1260 -6 168 50 269 113
391 243 219 232 291 560 167 754 -33 52 -58 70 -186 133 -162 79 -276 178
-457 395 -149 179 -245 269 -331 311 -64 30 -77 33 -184 36 -74 1 -131 -2
-161 -11z m-94 -452 c73 -73 118 -344 97 -576 -36 -381 -189 -609 -422 -626
-193 -13 -277 105 -240 336 36 222 225 601 391 786 82 91 137 116 174 80z
m563 -13 c111 -81 295 -371 389 -614 72 -187 94 -374 54 -462 -38 -84 -116
-121 -234 -112 -208 18 -353 209 -402 532 -46 306 23 685 125 685 15 0 45 -13
68 -29z"/>
<path d="M589 2903 c-178 -187 -303 -403 -360 -621 -41 -157 -36 -376 13 -526
111 -343 458 -669 828 -779 323 -96 670 -41 936 148 77 56 82 63 47 70 -287
63 -471 169 -651 377 -58 67 -82 88 -96 84 -35 -9 -186 14 -251 38 -233 88
-394 304 -451 603 -12 67 -15 123 -11 238 4 147 17 225 59 368 10 38 18 71 15
73 -2 2 -37 -31 -78 -73z"/>
<path d="M4477 2898 c90 -311 78 -617 -32 -840 -120 -242 -294 -371 -539 -398
-50 -6 -94 -14 -98 -18 -3 -4 -30 -36 -58 -72 -81 -101 -210 -206 -327 -264
-65 -33 -230 -88 -303 -101 -67 -12 -72 -15 -58 -32 24 -29 131 -96 224 -140
439 -208 952 -94 1325 293 216 224 311 444 311 719 1 245 -83 471 -265 716
-58 79 -184 219 -196 219 -5 0 3 -37 16 -82z"/>
</g>
</svg>
