<?xml version="1.0" standalone="no"?>
<!DOCTYPE svg PUBLIC "-//W3C//DTD SVG 20010904//EN"
 "http://www.w3.org/TR/2001/REC-SVG-20010904/DTD/svg10.dtd">
<svg version="1.0" xmlns="http://www.w3.org/2000/svg"
 width="512.000000pt" height="512.000000pt" viewBox="0 0 512.000000 512.000000"
 preserveAspectRatio="xMidYMid meet">
<metadata>
Created by potrace 1.15, written by Peter Selinger 2001-2017
</metadata>
<g transform="translate(0.000000,512.000000) scale(0.100000,-0.100000)"
fill="#ffffff" stroke="none">
<path d="M2270 4763 c-162 -9 -438 -68 -604 -127 -127 -45 -276 -108 -276
-117 0 -3 48 -9 108 -12 219 -13 515 -72 757 -152 703 -234 1299 -699 1696
-1325 236 -374 396 -805 460 -1245 35 -244 46 -585 23 -732 -3 -18 -1 -33 3
-33 14 0 108 157 171 285 327 658 330 1427 9 2105 -105 222 -256 437 -442 629
-202 208 -405 356 -667 485 -378 186 -787 266 -1238 239z"/>
<path d="M1095 3706 c-270 -52 -530 -155 -798 -316 -21 -12 -37 -24 -35 -25 2
-2 72 -31 156 -65 95 -39 161 -60 175 -57 12 3 83 21 157 40 229 59 231 58 96
-31 -64 -42 -115 -81 -113 -86 2 -6 50 -35 107 -67 l105 -57 80 44 c70 38 179
87 255 115 16 6 -6 -20 -57 -68 -45 -43 -98 -98 -118 -122 l-35 -43 130 -89
c170 -116 284 -204 452 -346 l136 -116 -102 -136 c-56 -75 -124 -167 -151
-206 -89 -126 -217 -298 -312 -417 -137 -174 -223 -228 -596 -378 -166 -66
-257 -107 -317 -139 -23 -13 -18 -15 84 -38 284 -64 440 -166 529 -346 38 -78
107 -298 107 -342 0 -79 40 -6 158 285 155 384 204 465 355 588 99 80 334 256
437 327 47 32 145 103 219 158 l134 100 26 -31 c14 -17 69 -81 122 -144 111
-131 217 -271 313 -413 38 -55 74 -106 81 -114 12 -12 32 4 130 100 116 113
117 114 100 69 -9 -25 -46 -106 -82 -180 l-65 -134 33 -61 c18 -33 45 -81 59
-107 14 -26 27 -48 30 -48 3 0 39 51 80 114 41 63 76 113 78 112 5 -5 -30
-163 -60 -268 l-30 -107 39 -93 c22 -51 51 -121 64 -155 13 -35 26 -63 29 -63
12 0 126 209 181 332 107 240 171 491 173 678 0 99 -3 122 -22 164 -88 194
-421 494 -810 731 l-62 38 34 41 c76 94 326 419 394 514 79 109 94 119 159
107 26 -5 55 -25 105 -72 37 -37 70 -64 72 -62 2 2 -1 40 -6 83 -16 137 -69
242 -155 314 -25 20 -68 58 -97 83 -101 91 -187 111 -301 68 -61 -23 -349
-229 -587 -420 -82 -66 -150 -119 -152 -119 -2 0 -27 38 -55 85 -178 290 -421
582 -591 708 -114 86 -129 91 -270 94 -74 1 -154 -3 -195 -11z"/>
</g>
</svg>
