<?xml version="1.0" standalone="no"?>
<!DOCTYPE svg PUBLIC "-//W3C//DTD SVG 20010904//EN"
 "http://www.w3.org/TR/2001/REC-SVG-20010904/DTD/svg10.dtd">
<svg version="1.0" xmlns="http://www.w3.org/2000/svg"
 width="512.000000pt" height="512.000000pt" viewBox="0 0 512.000000 512.000000"
 preserveAspectRatio="xMidYMid meet">
<metadata>
Created by potrace 1.15, written by Peter Selinger 2001-2017
</metadata>
<g transform="translate(0.000000,512.000000) scale(0.100000,-0.100000)"
fill="#ffffff" stroke="none">
<path d="M1105 4504 c-64 -21 -146 -75 -191 -128 -45 -53 -99 -163 -120 -246
-22 -85 -22 -254 0 -341 42 -163 136 -293 254 -351 59 -30 76 -33 152 -33 76
0 93 3 152 33 115 57 211 186 254 343 23 85 24 260 1 349 -42 160 -141 297
-258 354 -72 35 -172 43 -244 20z"/>
<path d="M3844 4511 c-151 -39 -281 -189 -331 -381 -21 -84 -21 -253 1 -341
42 -163 136 -293 254 -351 59 -29 76 -33 152 -33 110 0 177 29 258 113 310
316 154 974 -236 997 -37 2 -81 1 -98 -4z"/>
<path d="M769 3336 c-210 -86 -417 -288 -502 -491 -35 -83 -35 -88 -52 -460
-24 -521 -24 -522 49 -603 87 -96 205 -109 431 -48 271 73 483 148 878 310 75
31 148 61 161 66 l24 9 -24 117 c-13 65 -26 120 -29 122 -3 3 -58 -14 -122
-38 -209 -76 -465 -160 -598 -195 -225 -59 -437 -92 -421 -66 3 4 6 165 7 357
0 192 3 364 6 382 l5 32 82 0 82 0 -4 -290 c-3 -159 -2 -290 2 -290 20 0 241
56 356 91 201 60 555 180 566 192 2 2 -9 70 -26 152 -17 82 -29 149 -28 151 5
4 161 34 163 32 2 -3 48 -225 147 -711 27 -137 48 -250 46 -251 -1 -2 -58 1
-124 6 l-122 10 -238 -97 c-132 -53 -248 -100 -259 -104 -19 -8 -19 -9 5 -15
168 -41 449 -77 606 -77 261 -2 361 55 371 209 4 55 -8 130 -66 417 -116 582
-198 802 -354 959 -59 58 -154 118 -217 136 -25 7 -35 4 -59 -15 -75 -63 -202
-105 -321 -105 -95 0 -176 25 -279 84 -44 25 -81 46 -83 46 -2 0 -28 -11 -59
-24z"/>
<path d="M3550 3350 c-85 -24 -202 -108 -266 -191 -90 -117 -153 -262 -214
-493 -37 -139 -147 -683 -156 -771 -22 -209 115 -287 467 -264 128 8 489 63
517 78 9 5 -19 20 -75 41 -48 18 -162 64 -253 102 l-165 70 -125 -10 c-69 -5
-127 -8 -128 -6 -2 1 23 134 57 296 33 161 77 374 97 473 20 99 40 183 43 187
8 9 161 -22 161 -32 0 -9 -46 -236 -55 -272 -6 -24 -3 -27 47 -46 277 -102
672 -222 847 -257 l34 -7 -5 291 -4 291 82 0 83 0 6 -42 c3 -24 6 -201 8 -394
l2 -352 -35 5 c-254 34 -540 113 -943 259 -81 30 -151 54 -156 54 -9 0 -58
-237 -50 -243 18 -15 635 -255 759 -295 186 -61 404 -119 480 -128 118 -13
241 50 289 149 26 54 26 91 6 550 -17 375 -20 391 -87 517 -100 188 -303 370
-486 434 l-43 16 -77 -45 c-114 -67 -195 -89 -312 -82 -108 5 -180 28 -262 83
-28 19 -54 36 -57 38 -3 2 -17 0 -31 -4z"/>
<path d="M780 1580 c-31 -10 -100 -27 -154 -38 -54 -11 -100 -23 -103 -26 -3
-3 0 -177 6 -388 6 -211 11 -416 11 -455 l0 -73 579 0 578 0 6 148 c4 81 10
274 13 428 l7 281 -69 7 c-105 11 -337 50 -561 95 -111 23 -215 41 -230 40
-15 -1 -53 -9 -83 -19z"/>
<path d="M4020 1559 c-198 -41 -441 -83 -554 -95 l-69 -7 7 -226 c3 -124 9
-317 13 -428 l6 -203 577 0 577 0 7 253 c3 138 9 345 13 459 l6 207 -24 5
c-13 2 -82 19 -154 36 -71 18 -150 34 -175 35 -25 2 -127 -14 -230 -36z"/>
</g>
</svg>
