<?xml version="1.0" standalone="no"?>
<!DOCTYPE svg PUBLIC "-//W3C//DTD SVG 20010904//EN"
 "http://www.w3.org/TR/2001/REC-SVG-20010904/DTD/svg10.dtd">
<svg version="1.0" xmlns="http://www.w3.org/2000/svg"
 width="512.000000pt" height="512.000000pt" viewBox="0 0 512.000000 512.000000"
 preserveAspectRatio="xMidYMid meet">
<metadata>
Created by potrace 1.15, written by Peter Selinger 2001-2017
</metadata>
<g transform="translate(0.000000,512.000000) scale(0.100000,-0.100000)"
fill="#ffffff" stroke="none">
<path d="M2315 4450 c-363 -36 -724 -175 -1055 -404 -219 -151 -492 -406 -671
-626 -131 -160 -353 -475 -375 -533 -6 -16 209 -224 380 -366 373 -310 826
-550 1238 -655 273 -70 362 -81 678 -81 267 0 295 2 443 28 664 117 1285 440
1895 986 45 40 82 78 82 83 0 5 -52 78 -116 163 -331 441 -683 781 -1057 1022
-303 194 -649 329 -955 373 -106 15 -378 21 -487 10z m470 -232 c333 -67 626
-293 770 -592 204 -425 128 -903 -195 -1240 -171 -178 -395 -292 -639 -327
-102 -14 -297 -6 -391 16 -316 76 -595 296 -734 580 -90 184 -122 340 -113
544 13 275 114 506 311 709 73 76 181 161 190 151 4 -4 178 -285 328 -529 37
-60 54 -96 46 -97 -24 -5 -560 -63 -575 -63 -8 0 -13 -4 -11 -9 2 -4 111 -103
243 -218 132 -116 410 -360 619 -542 208 -183 380 -330 382 -328 2 2 -94 204
-215 448 -120 244 -216 445 -212 446 3 1 137 18 296 38 160 21 292 39 293 40
4 3 -43 94 -198 385 -243 455 -320 600 -320 604 0 6 56 -2 125 -16z"/>
<path d="M216 2483 c16 -67 77 -221 123 -311 48 -92 127 -212 198 -299 l32
-39 -115 -172 c-63 -95 -114 -175 -114 -179 0 -10 142 -103 156 -103 5 0 55
70 112 156 l103 155 37 -31 c35 -29 222 -163 250 -179 9 -5 -12 -59 -78 -200
-49 -106 -90 -194 -90 -195 0 -4 152 -74 167 -78 7 -2 40 56 78 137 36 77 76
161 88 187 l22 46 90 -42 c50 -23 133 -58 186 -76 l96 -34 -68 -204 c-47 -140
-64 -204 -56 -207 46 -17 162 -55 168 -55 4 0 38 93 76 206 l68 206 30 -5 c17
-3 92 -17 168 -31 76 -14 157 -26 179 -26 l41 0 -6 -67 c-4 -38 -9 -134 -13
-214 l-7 -146 39 -6 c22 -4 64 -7 95 -7 56 0 57 0 62 33 3 17 9 112 13 209 l7
178 152 0 c84 0 179 3 211 6 l60 6 13 -158 c7 -88 15 -185 18 -218 l6 -59 96
8 c53 3 97 7 98 9 1 1 -7 98 -18 215 -10 118 -17 216 -15 219 3 2 62 15 133
28 70 13 160 32 199 42 l71 18 73 -221 c40 -121 74 -221 75 -223 3 -4 158 46
174 57 11 7 0 50 -59 225 -40 119 -71 218 -69 220 2 1 49 21 104 43 55 22 135
57 177 76 43 20 79 33 82 29 2 -4 45 -97 96 -207 51 -110 93 -201 94 -202 2
-3 165 73 172 80 6 6 -33 94 -135 310 l-60 127 73 49 c40 27 104 74 142 105
38 31 72 56 75 56 3 0 58 -79 122 -175 65 -96 121 -175 126 -175 5 0 43 23 85
50 l77 50 -29 43 c-30 44 -213 323 -226 345 -5 8 11 33 45 70 89 98 196 259
270 407 39 79 70 148 68 154 -3 7 -36 -15 -74 -47 -413 -347 -891 -622 -1350
-779 -797 -271 -1587 -219 -2330 154 -195 98 -404 227 -560 347 -85 65 -322
265 -354 300 -42 43 -54 45 -45 9z"/>
</g>
</svg>
