<?xml version="1.0" standalone="no"?>
<!DOCTYPE svg PUBLIC "-//W3C//DTD SVG 20010904//EN"
 "http://www.w3.org/TR/2001/REC-SVG-20010904/DTD/svg10.dtd">
<svg version="1.0" xmlns="http://www.w3.org/2000/svg"
 width="512.000000pt" height="512.000000pt" viewBox="0 0 512.000000 512.000000"
 preserveAspectRatio="xMidYMid meet">
<metadata>
Created by potrace 1.15, written by Peter Selinger 2001-2017
</metadata>
<g transform="translate(0.000000,512.000000) scale(0.100000,-0.100000)"
fill="#ffffff" stroke="none">
<path d="M1240 4925 c0 -9 48 -225 106 -480 l107 -462 129 -169 c72 -93 133
-170 138 -172 4 -2 36 15 70 37 34 22 71 43 81 46 24 8 24 17 -5 102 -31 90
-56 237 -56 324 l0 68 -281 358 c-155 197 -283 360 -285 362 -2 2 -4 -4 -4
-14z"/>
<path d="M2509 4930 c-240 -38 -428 -239 -505 -540 -28 -108 -25 -333 5 -445
24 -89 74 -202 120 -268 l29 -43 -56 -12 c-359 -77 -592 -431 -652 -994 -23
-216 -10 -582 28 -813 l17 -100 124 -3 124 -3 -7 516 c-6 397 -5 519 4 530 9
11 34 15 90 15 l77 0 6 -627 c7 -577 10 -679 47 -1258 22 -346 43 -649 46
-673 l5 -42 240 0 239 0 0 880 0 880 85 0 85 0 0 -880 0 -880 228 0 228 0 53
713 c56 736 69 1024 70 1590 l1 297 73 0 c118 0 109 49 101 -549 l-7 -512 129
3 129 3 17 105 c61 389 48 792 -37 1085 -69 236 -146 376 -285 515 -101 102
-179 151 -295 186 -33 10 -62 19 -64 20 -1 2 8 18 22 36 42 55 106 191 129
275 31 114 31 363 0 478 -97 352 -357 560 -643 515z"/>
<path d="M3865 4902 c-17 -20 -138 -173 -268 -339 l-237 -301 0 -95 c0 -117
-20 -237 -60 -353 -16 -49 -30 -92 -30 -95 0 -3 31 -27 69 -52 l69 -46 138
182 139 182 107 470 c60 258 107 473 106 477 -2 4 -17 -10 -33 -30z"/>
<path d="M640 4295 c0 -3 51 -90 114 -193 62 -103 165 -272 227 -376 l114
-189 193 -94 c107 -52 195 -93 196 -91 1 1 16 24 34 50 17 26 41 60 53 77 l22
30 -60 78 c-32 43 -104 136 -158 207 -54 71 -114 140 -134 153 -41 29 -570
343 -588 350 -7 3 -13 2 -13 -2z"/>
<path d="M4220 4142 c-146 -87 -284 -169 -307 -182 -32 -17 -80 -73 -196 -224
-85 -111 -160 -210 -167 -222 -12 -19 -8 -28 34 -87 26 -37 52 -70 58 -73 5
-4 96 35 202 86 l192 91 220 361 c245 404 248 408 236 408 -4 0 -127 -71 -272
-158z"/>
<path d="M290 3515 c0 -4 142 -118 462 -372 l66 -52 240 -31 c131 -16 251 -30
265 -30 23 0 28 8 51 78 29 85 30 92 17 92 -4 0 -107 48 -227 106 l-219 107
-320 53 c-343 58 -335 56 -335 49z"/>
<path d="M4505 3466 c-344 -58 -276 -36 -627 -205 -82 -39 -148 -73 -148 -77
0 -4 12 -40 28 -80 23 -62 31 -74 50 -74 41 0 503 60 515 67 7 4 64 48 127 98
63 50 179 142 258 204 78 62 142 115 142 117 0 7 -34 2 -345 -50z"/>
<path d="M485 2855 c-148 -30 -274 -54 -280 -55 -22 -2 36 -24 336 -131 432
-153 410 -146 549 -169 182 -29 167 -35 175 63 3 45 13 126 22 180 8 54 12
101 9 105 -9 9 -433 61 -491 61 -27 -1 -171 -25 -320 -54z"/>
<path d="M4053 2881 c-111 -15 -205 -30 -209 -33 -3 -4 1 -51 10 -105 9 -54
21 -133 25 -176 5 -43 11 -81 14 -84 3 -2 66 5 141 16 140 22 174 32 576 176
118 42 235 83 260 92 58 19 69 30 39 37 -140 33 -559 106 -601 105 -29 -1
-144 -14 -255 -28z"/>
<path d="M700 2179 c-124 -88 -290 -206 -370 -262 l-145 -102 190 -3 c105 -2
304 0 444 3 l253 7 99 87 99 86 -6 145 c-3 80 -9 148 -13 151 -7 7 -275 50
-306 49 -11 -1 -121 -73 -245 -161z"/>
<path d="M4020 2318 c-63 -10 -118 -22 -121 -26 -4 -4 -9 -74 -11 -157 l-4
-150 90 -81 90 -82 250 -7 c138 -3 338 -5 445 -3 l194 3 -94 66 c-52 36 -219
155 -372 263 -315 222 -273 207 -467 174z"/>
<path d="M693 1382 c-279 -314 -348 -393 -351 -403 -5 -12 -27 -18 403 101
l350 96 113 184 c61 101 112 188 112 192 0 4 -106 8 -235 8 l-234 0 -158 -178z"/>
<path d="M3810 1553 c0 -5 51 -91 114 -193 l113 -185 354 -97 c195 -53 365
-99 377 -103 15 -3 23 -2 20 4 -1 6 -115 139 -253 296 l-250 284 -237 1 c-131
0 -238 -3 -238 -7z"/>
<path d="M1398 1025 c-164 -83 -187 -98 -192 -122 -3 -16 -28 -163 -56 -328
-28 -165 -53 -310 -55 -322 -3 -13 -1 -23 4 -23 8 0 112 97 495 460 17 16 18
31 11 224 -4 113 -10 206 -14 205 -3 0 -90 -43 -193 -94z"/>
<path d="M3528 975 c-1 -80 -3 -173 -3 -207 l0 -63 215 -204 c295 -281 289
-275 295 -270 4 4 -93 603 -110 677 -4 17 -46 43 -195 117 -104 52 -192 95
-195 95 -3 0 -6 -65 -7 -145z"/>
</g>
</svg>
