<?xml version="1.0" standalone="no"?>
<!DOCTYPE svg PUBLIC "-//W3C//DTD SVG 20010904//EN"
 "http://www.w3.org/TR/2001/REC-SVG-20010904/DTD/svg10.dtd">
<svg version="1.0" xmlns="http://www.w3.org/2000/svg"
 width="512.000000pt" height="512.000000pt" viewBox="0 0 512.000000 512.000000"
 preserveAspectRatio="xMidYMid meet">
<metadata>
Created by potrace 1.15, written by Peter Selinger 2001-2017
</metadata>
<g transform="translate(0.000000,512.000000) scale(0.100000,-0.100000)"
fill="#ffffff" stroke="none">
<path d="M3147 4881 c-105 -194 -256 -369 -374 -434 -108 -58 -225 -69 -326
-30 -159 61 -345 260 -464 497 -20 39 -37 67 -39 61 -2 -5 -7 -78 -13 -160
-27 -386 -116 -683 -248 -825 -86 -93 -174 -113 -304 -70 -92 31 -166 75 -355
211 -92 66 -171 118 -175 117 -5 -2 32 -77 83 -168 111 -201 181 -349 210
-444 31 -100 31 -221 -1 -294 -28 -61 -112 -144 -201 -196 -142 -83 -393 -150
-613 -162 -130 -8 -133 -11 -49 -60 65 -38 295 -189 367 -242 231 -169 347
-320 347 -452 0 -181 -167 -343 -680 -660 -65 -40 -98 -66 -90 -71 7 -3 65 -9
128 -12 192 -10 406 -67 565 -150 95 -50 191 -140 224 -212 32 -67 39 -169 17
-255 -32 -128 -140 -316 -287 -500 -37 -46 -67 -86 -65 -88 2 -1 43 9 92 23
141 41 264 56 363 45 121 -14 199 -43 307 -116 l95 -64 162 0 162 0 -51 45
c-29 25 -83 82 -122 128 -278 330 -456 778 -527 1328 -22 167 -30 536 -16 704
56 639 278 1197 611 1534 114 115 201 178 335 241 134 64 211 81 354 81 243 0
450 -93 660 -295 280 -271 477 -670 580 -1171 173 -854 4 -1786 -428 -2350
-25 -33 -86 -102 -135 -152 l-89 -93 138 0 137 0 88 56 c217 137 435 153 750
55 35 -11 65 -19 66 -18 1 1 -29 40 -67 87 -91 113 -184 269 -227 382 -34 88
-36 100 -37 213 0 109 2 125 26 175 67 140 220 244 466 315 110 32 247 55 338
56 115 1 118 8 28 64 -507 317 -685 502 -671 697 13 176 225 387 660 659 48
30 88 57 88 62 0 4 -37 7 -82 7 -46 0 -126 7 -178 15 -402 61 -654 232 -677
459 -7 67 18 193 58 295 17 42 80 172 140 289 60 116 106 212 101 212 -5 0
-85 -54 -177 -120 -93 -66 -196 -136 -230 -154 -133 -75 -253 -95 -337 -58
-177 78 -307 426 -338 904 -6 90 -12 163 -13 164 -1 2 -28 -46 -60 -105z"/>
<path d="M2448 4035 c-205 -78 -340 -365 -299 -635 23 -151 68 -246 179 -374
l51 -60 -109 -22 c-130 -26 -200 -62 -264 -137 -157 -185 -238 -499 -266
-1027 -5 -107 -10 -216 -10 -242 l0 -48 182 -2 183 -3 47 -630 c26 -347 47
-640 47 -652 l1 -23 384 0 385 0 5 43 c3 23 21 292 41 597 19 305 38 581 41
613 l6 57 169 0 169 0 0 183 c0 506 -67 882 -189 1066 -81 122 -170 180 -316
206 -49 9 -100 19 -113 21 -21 4 -19 8 32 72 80 100 114 158 143 247 22 68 26
98 27 200 0 138 -15 211 -68 320 -43 88 -126 174 -203 211 -70 34 -193 43
-255 19z"/>
</g>
</svg>
