<?xml version="1.0" standalone="no"?>
<!DOCTYPE svg PUBLIC "-//W3C//DTD SVG 20010904//EN"
 "http://www.w3.org/TR/2001/REC-SVG-20010904/DTD/svg10.dtd">
<svg version="1.0" xmlns="http://www.w3.org/2000/svg"
 width="512.000000pt" height="512.000000pt" viewBox="0 0 512.000000 512.000000"
 preserveAspectRatio="xMidYMid meet">
<metadata>
Created by potrace 1.15, written by Peter Selinger 2001-2017
</metadata>
<g transform="translate(0.000000,512.000000) scale(0.100000,-0.100000)"
fill="#ffffff" stroke="none">
<path d="M2450 4819 c-343 -37 -656 -253 -809 -558 -90 -177 -95 -413 -14
-564 32 -57 99 -137 116 -137 7 1 30 24 52 52 22 29 103 115 180 193 214 216
449 396 742 566 104 60 422 216 508 249 33 13 64 27 69 31 12 11 -54 42 -177
83 -141 47 -259 73 -393 86 -121 11 -165 11 -274 -1z"/>
<path d="M3463 4532 c-40 -15 -73 -30 -73 -34 0 -11 331 -291 337 -285 3 4
-31 82 -76 174 -56 116 -87 169 -99 170 -9 1 -50 -11 -89 -25z"/>
<path d="M3043 4352 c-51 -26 -93 -49 -93 -53 0 -8 251 -219 261 -219 4 0 -1
35 -11 78 -48 213 -55 242 -60 241 -3 0 -47 -21 -97 -47z"/>
<path d="M3345 4288 c2 -7 20 -87 41 -178 20 -91 38 -166 39 -168 3 -4 229 78
238 87 4 4 -5 16 -20 28 -16 11 -86 70 -158 132 -128 109 -148 123 -140 99z"/>
<path d="M2593 4095 c-62 -41 -113 -78 -113 -82 0 -8 254 -156 277 -161 10 -3
12 3 9 20 -3 13 -13 75 -21 138 -19 132 -25 160 -34 160 -3 0 -57 -34 -118
-75z"/>
<path d="M2926 3949 c13 -83 25 -153 28 -156 3 -3 57 11 121 31 101 32 115 39
104 52 -18 21 -261 224 -269 224 -3 0 4 -68 16 -151z"/>
<path d="M3655 3844 c-161 -59 -601 -205 -750 -248 -66 -19 -219 -60 -340 -90
-189 -47 -291 -68 -602 -127 -29 -6 -53 -14 -53 -18 0 -12 92 -96 140 -128
211 -141 521 -206 825 -174 295 32 521 135 704 319 139 141 202 267 209 420 2
50 0 92 -4 91 -5 0 -63 -20 -129 -45z"/>
<path d="M2385 3848 c-11 -36 -37 -210 -31 -215 6 -6 270 53 295 67 10 5 0 15
-35 35 -27 16 -86 50 -132 77 -92 53 -91 53 -97 36z"/>
<path d="M2075 3670 c-59 -61 -106 -112 -104 -115 3 -2 48 3 99 13 l95 18 12
69 c7 39 15 82 17 98 3 15 2 27 -2 27 -5 0 -57 -50 -117 -110z"/>
<path d="M1775 3138 c-54 -169 -69 -319 -44 -427 34 -149 155 -284 310 -347
115 -47 177 -55 504 -64 341 -9 412 -20 453 -66 17 -19 20 -29 12 -44 -18 -34
-149 -145 -232 -197 l-83 -51 -94 9 c-105 10 -181 39 -263 102 l-47 36 -56
-71 c-30 -39 -55 -75 -55 -79 0 -12 113 -87 180 -118 l59 -28 -107 -51 -107
-52 395 0 395 0 40 27 c76 51 196 156 242 212 25 31 60 85 77 121 27 57 31 76
31 150 0 75 -4 93 -32 153 -47 98 -133 185 -236 236 -125 62 -195 72 -547 81
-300 8 -365 15 -428 49 -50 27 -65 111 -38 224 l14 58 -52 26 c-81 41 -147 86
-208 142 l-57 52 -26 -83z"/>
<path d="M3238 2788 c-32 -11 -58 -23 -58 -28 0 -4 24 -21 53 -38 28 -16 72
-46 95 -66 24 -20 50 -36 58 -36 22 0 133 -58 187 -97 46 -34 49 -35 67 -18
40 36 103 126 94 134 -40 36 -138 99 -206 131 -74 36 -89 40 -157 39 -48 0
-97 -8 -133 -21z"/>
<path d="M953 2400 l-41 -79 31 -20 c71 -43 298 -131 405 -155 39 -9 109 -16
155 -16 76 0 91 3 154 35 64 32 155 112 152 132 -1 5 -32 36 -69 71 l-68 63
-47 -50 c-38 -41 -55 -51 -91 -57 -85 -12 -266 35 -439 116 -48 22 -90 40 -93
40 -4 0 -26 -36 -49 -80z"/>
<path d="M1370 1360 l0 -150 1190 0 1190 0 0 150 0 150 -1190 0 -1190 0 0
-150z"/>
<path d="M1705 1008 c5 -25 125 -743 125 -752 0 -4 329 -6 730 -6 402 0 730 2
730 6 0 9 120 727 125 752 l5 22 -860 0 -860 0 5 -22z"/>
</g>
</svg>
