<?xml version="1.0" standalone="no"?>
<!DOCTYPE svg PUBLIC "-//W3C//DTD SVG 20010904//EN"
 "http://www.w3.org/TR/2001/REC-SVG-20010904/DTD/svg10.dtd">
<svg version="1.0" xmlns="http://www.w3.org/2000/svg"
 width="512.000000pt" height="512.000000pt" viewBox="0 0 512.000000 512.000000"
 preserveAspectRatio="xMidYMid meet">
<metadata>
Created by potrace 1.15, written by Peter Selinger 2001-2017
</metadata>
<g transform="translate(0.000000,512.000000) scale(0.100000,-0.100000)"
fill="#ffffff" stroke="none">
<path d="M277 4898 c26 -88 88 -224 144 -315 72 -116 260 -307 384 -388 188
-123 375 -209 788 -361 725 -266 961 -396 1233 -676 180 -186 312 -406 402
-672 23 -65 42 -120 44 -122 5 -4 239 183 277 221 l24 24 -26 101 c-72 275
-195 496 -386 694 -258 266 -508 402 -1258 682 -142 53 -305 117 -362 141
-430 184 -702 387 -869 650 l-45 73 -183 0 -183 0 16 -52z"/>
<path d="M840 4944 c0 -14 106 -138 164 -191 209 -192 410 -294 1048 -534 681
-256 936 -398 1214 -674 200 -200 333 -416 421 -687 21 -65 41 -117 45 -115
23 8 308 273 308 286 0 9 -9 58 -19 108 -98 472 -375 801 -886 1052 -196 97
-323 145 -775 296 -572 192 -769 274 -965 405 l-90 60 -232 0 c-128 0 -233 -3
-233 -6z"/>
<path d="M1670 4942 c0 -4 12 -13 28 -19 15 -6 77 -32 137 -58 61 -25 254 -95
430 -155 598 -203 748 -261 976 -377 245 -124 412 -245 571 -411 198 -209 328
-469 390 -781 l22 -114 85 7 c48 3 125 13 172 22 84 15 87 17 93 46 9 47 7
169 -5 254 -66 478 -468 927 -1129 1259 -294 148 -590 252 -876 310 -117 24
-137 25 -508 25 -212 0 -386 -4 -386 -8z"/>
<path d="M3156 4941 c5 -5 52 -26 104 -47 133 -53 394 -186 525 -268 548 -344
875 -760 956 -1216 8 -42 13 -137 13 -215 -1 -145 -20 -247 -75 -395 -53 -144
-159 -300 -281 -415 -199 -188 -438 -324 -1013 -575 -628 -275 -886 -408
-1180 -608 -196 -133 -277 -202 -456 -385 l-175 -181 -18 164 c-9 91 -19 166
-21 168 -8 8 -219 -81 -360 -150 -177 -88 -289 -154 -493 -290 l-163 -109 -32
20 c-50 31 -75 62 -88 113 -10 35 -10 53 -2 71 8 16 133 98 395 257 210 128
397 246 415 263 79 75 127 245 105 379 -6 40 -15 83 -18 96 -6 21 -1 20 101
-23 l108 -45 -5 83 c-10 151 -74 283 -174 358 -82 63 -175 104 -364 165 -402
128 -515 173 -664 264 -54 33 -100 60 -102 60 -2 0 -4 -72 -4 -160 l0 -159 72
-60 c130 -110 252 -172 478 -245 173 -56 187 -63 259 -135 102 -102 144 -224
116 -334 -8 -33 -23 -71 -33 -84 -10 -14 -205 -139 -433 -278 -309 -189 -418
-260 -428 -280 -7 -16 -16 -67 -19 -115 -10 -179 63 -306 220 -380 120 -57
114 -58 316 78 97 65 222 146 278 180 123 74 344 186 351 178 3 -3 17 -110 30
-238 14 -128 26 -234 28 -236 3 -3 390 389 535 542 84 88 279 238 445 344 256
161 488 279 1010 509 694 307 914 433 1140 658 249 247 364 510 395 908 45
558 -138 980 -585 1355 -175 147 -437 301 -655 385 l-95 37 -234 0 c-143 0
-231 -4 -225 -9z"/>
<path d="M190 4348 l0 -261 37 -74 c90 -181 250 -327 482 -443 135 -68 278
-122 596 -225 305 -99 467 -160 617 -235 432 -217 688 -530 806 -988 16 -62
31 -114 33 -117 4 -4 242 152 321 210 15 11 28 27 28 36 0 31 -60 218 -102
316 -160 374 -409 627 -818 832 -147 74 -329 149 -607 250 -657 239 -906 376
-1146 631 -72 76 -190 240 -218 303 -7 15 -16 27 -21 27 -4 0 -8 -118 -8 -262z"/>
<path d="M190 3536 l0 -194 75 -80 c117 -125 253 -209 455 -285 52 -19 221
-74 375 -122 462 -143 626 -222 812 -389 159 -143 292 -404 335 -659 11 -61
14 -66 33 -61 45 14 307 148 312 160 7 19 -25 167 -62 280 -105 320 -295 549
-600 722 -146 83 -307 147 -700 277 -203 67 -418 144 -477 169 -206 91 -363
193 -483 315 -33 34 -63 61 -67 61 -4 0 -8 -87 -8 -194z"/>
<path d="M190 2893 l0 -178 58 -47 c152 -123 297 -190 674 -312 351 -113 442
-159 559 -275 68 -68 94 -103 123 -164 40 -82 76 -229 76 -309 0 -27 4 -48 10
-48 17 0 274 69 330 88 l55 19 -2 55 c-4 122 -75 333 -153 453 -64 97 -116
153 -209 223 -152 114 -289 172 -691 293 -146 43 -306 94 -357 113 -134 50
-286 131 -381 203 -46 35 -85 63 -88 63 -2 0 -4 -80 -4 -177z"/>
</g>
</svg>
