<?xml version="1.0" standalone="no"?>
<!DOCTYPE svg PUBLIC "-//W3C//DTD SVG 20010904//EN"
 "http://www.w3.org/TR/2001/REC-SVG-20010904/DTD/svg10.dtd">
<svg version="1.0" xmlns="http://www.w3.org/2000/svg"
 width="512.000000pt" height="512.000000pt" viewBox="0 0 512.000000 512.000000"
 preserveAspectRatio="xMidYMid meet">
<metadata>
Created by potrace 1.15, written by Peter Selinger 2001-2017
</metadata>
<g transform="translate(0.000000,512.000000) scale(0.100000,-0.100000)"
fill="#ffffff" stroke="none">
<path d="M875 4918 c-3 -18 -41 -294 -86 -613 -98 -711 -128 -927 -374 -2692
-107 -772 -195 -1407 -195 -1413 0 -6 40 -10 100 -10 84 0 100 3 100 16 0 15
77 571 375 2709 30 215 104 748 164 1185 61 437 113 807 115 823 l6 27 -100 0
-99 0 -6 -32z"/>
<path d="M2084 4899 c-38 -29 -123 -106 -189 -173 -229 -230 -352 -464 -400
-761 -27 -162 -17 -437 21 -624 11 -52 -7 -33 -68 72 -138 236 -214 474 -236
738 -5 52 -11 87 -14 79 -4 -8 -31 -199 -62 -425 -31 -225 -102 -736 -158
-1135 l-101 -725 12 -107 c27 -254 135 -490 305 -666 l70 -72 -75 30 c-101 42
-241 120 -319 179 -36 27 -68 46 -71 43 -6 -8 -90 -604 -89 -638 0 -18 17 -29
93 -62 167 -73 374 -127 580 -153 100 -12 442 -8 482 5 49 17 -38 -27 -135
-68 -319 -136 -628 -168 -977 -100 -51 9 -95 16 -97 13 -2 -2 -7 -39 -11 -81
l-7 -78 1088 0 1089 0 115 29 c266 68 492 166 694 301 186 125 368 317 441
468 17 34 34 62 39 62 5 0 6 -53 3 -122 -12 -264 -97 -450 -294 -645 -46 -45
-83 -84 -83 -87 0 -4 167 -6 370 -6 l371 0 -6 33 c-3 17 -97 692 -209 1498
-202 1454 -203 1466 -236 1530 -125 248 -398 477 -621 523 -34 7 -59 15 -53
18 19 11 151 37 224 43 102 8 221 -14 317 -59 41 -20 78 -36 82 -36 4 0 -2 68
-14 152 l-22 152 -39 33 c-130 111 -338 227 -515 288 l-104 36 185 -5 c169 -4
296 -19 389 -46 19 -5 36 -8 39 -6 3 4 -21 199 -35 275 l-6 34 -186 -6 c-187
-6 -309 -21 -456 -58 -192 -48 -370 -121 -484 -198 -33 -23 -61 -39 -61 -35 0
3 23 35 50 69 127 160 335 316 572 430 73 35 145 67 161 70 15 4 27 11 27 16
0 5 -280 9 -659 9 l-658 0 -69 -51z m521 -311 c-54 -30 -167 -109 -231 -160
-174 -140 -271 -294 -296 -469 -14 -100 6 -216 57 -327 37 -79 105 -181 150
-222 l26 -25 -6 50 c-9 65 9 190 39 277 77 220 276 404 507 468 218 60 417 17
564 -122 l60 -58 -60 21 c-40 14 -96 23 -166 26 -116 6 -162 -4 -269 -57 -138
-69 -250 -261 -250 -428 l0 -64 31 27 c77 64 185 96 329 96 159 0 295 -46 377
-127 68 -68 78 -95 78 -206 0 -114 -13 -139 -40 -78 -21 48 -95 120 -153 149
-67 34 -168 54 -242 46 -85 -8 -181 -54 -209 -99 -30 -48 -37 -115 -17 -154
29 -57 70 -74 411 -171 259 -73 404 -157 526 -302 l41 -49 -34 14 c-157 65
-393 -23 -364 -137 3 -13 69 -124 147 -248 79 -123 173 -279 210 -347 172
-314 185 -545 42 -720 -39 -47 -133 -122 -195 -153 l-37 -19 40 83 c103 214
89 403 -42 550 -47 54 -123 113 -186 146 -23 11 -44 21 -47 21 -3 0 4 -26 15
-57 62 -183 82 -460 45 -647 -102 -518 -488 -774 -985 -655 l-92 23 96 26
c327 92 545 324 545 580 0 37 -6 88 -14 114 -14 47 -59 116 -76 116 -4 0 -13
-14 -19 -32 -38 -107 -190 -290 -329 -395 -146 -110 -368 -204 -549 -233 -96
-15 -303 -16 -378 -1 -155 31 -315 102 -425 186 -89 68 -93 78 -24 54 130 -45
226 -62 379 -66 168 -6 255 7 373 53 130 52 253 149 343 272 36 49 29 51 -39
17 -91 -46 -165 -60 -312 -60 -160 0 -244 20 -380 90 -144 75 -257 186 -336
329 l-38 70 66 -55 c204 -168 457 -249 650 -208 139 30 246 110 255 192 7 60
-1 88 -34 122 -46 46 -61 52 -228 95 -355 91 -517 166 -621 289 -30 36 -28 36
58 16 200 -46 350 -39 481 22 42 20 77 39 77 42 0 3 -24 20 -53 38 -276 167
-472 358 -527 515 -40 113 -22 272 43 391 l21 38 13 -84 c38 -266 165 -397
384 -397 144 0 220 34 253 112 29 69 18 100 -65 188 -280 299 -381 686 -268
1024 94 280 317 485 649 597 100 33 200 57 245 58 27 0 28 -1 10 -11z"/>
<path d="M4040 4933 c0 -10 148 -1080 328 -2378 l328 -2360 97 -3 c92 -3 97
-2 97 18 0 11 -47 361 -105 778 -58 416 -123 888 -145 1047 -22 160 -45 319
-50 355 -9 58 -192 1377 -300 2165 -22 160 -44 313 -48 340 l-7 50 -98 3 c-88
2 -97 1 -97 -15z"/>
</g>
</svg>
