<?xml version="1.0" standalone="no"?>
<!DOCTYPE svg PUBLIC "-//W3C//DTD SVG 20010904//EN"
 "http://www.w3.org/TR/2001/REC-SVG-20010904/DTD/svg10.dtd">
<svg version="1.0" xmlns="http://www.w3.org/2000/svg"
 width="512.000000pt" height="512.000000pt" viewBox="0 0 512.000000 512.000000"
 preserveAspectRatio="xMidYMid meet">
<metadata>
Created by potrace 1.15, written by Peter Selinger 2001-2017
</metadata>
<g transform="translate(0.000000,512.000000) scale(0.100000,-0.100000)"
fill="#ffffff" stroke="none">
<path d="M3740 4941 c-159 -43 -68 42 -1598 -1485 -771 -770 -1402 -1404
-1402 -1408 0 -5 33 -8 74 -8 145 0 299 -48 443 -138 l83 -51 87 77 c49 43
178 153 288 246 110 92 265 223 345 291 80 67 175 147 211 176 36 30 149 123
250 208 l184 155 -85 -95 c-47 -51 -125 -136 -175 -189 -49 -52 -121 -129
-159 -170 -39 -41 -100 -106 -136 -145 -223 -238 -514 -599 -578 -717 l-24
-43 67 -98 c153 -224 239 -470 252 -720 l6 -119 909 909 c819 819 906 909 891
921 -61 46 -51 49 -288 -69 l-219 -109 213 214 213 214 157 -96 c243 -148 272
-165 281 -156 4 5 13 25 19 44 14 46 78 129 119 157 18 12 54 30 80 39 26 10
49 19 50 20 2 1 -53 97 -122 212 -69 116 -126 214 -126 219 0 4 31 27 68 49
l68 41 54 -88 c30 -49 57 -89 60 -89 4 0 125 120 271 268 224 226 271 279 309
346 62 112 82 175 88 287 6 117 -14 215 -62 315 -63 130 -19 155 -402 -226
l-336 -335 286 383 c158 211 289 389 292 396 12 31 -212 206 -348 272 l-57 28
-269 -162 c-148 -89 -272 -162 -276 -162 -3 0 39 90 94 200 55 110 100 202
100 205 0 13 -191 2 -250 -14z"/>
<path d="M4300 2619 c-50 -20 -100 -84 -100 -129 0 -17 4 -20 23 -15 64 20
109 63 126 123 11 36 0 40 -49 21z"/>
<path d="M680 1854 c-202 -54 -402 -224 -478 -405 -43 -103 -56 -190 -49 -329
11 -232 119 -481 286 -662 l54 -59 18 40 c23 51 102 169 192 284 40 51 80 104
89 117 17 24 17 24 4 -16 -57 -170 -96 -374 -96 -505 l0 -76 58 -26 c138 -62
317 -75 460 -34 164 48 356 196 421 324 101 201 73 498 -73 786 -118 232 -292
420 -474 511 -121 61 -293 82 -412 50z m240 -211 c144 -34 315 -137 431 -259
161 -171 247 -379 236 -574 -10 -200 -110 -344 -287 -411 -38 -15 -86 -22
-155 -25 l-100 -4 60 18 c200 61 305 201 305 406 0 287 -213 561 -515 662 -72
24 -91 26 -190 22 -98 -4 -117 -8 -176 -36 -106 -51 -181 -143 -214 -265 l-14
-52 0 75 c-2 143 44 256 140 344 122 113 279 146 479 99z"/>
</g>
</svg>
