<?xml version="1.0" standalone="no"?>
<!DOCTYPE svg PUBLIC "-//W3C//DTD SVG 20010904//EN"
 "http://www.w3.org/TR/2001/REC-SVG-20010904/DTD/svg10.dtd">
<svg version="1.0" xmlns="http://www.w3.org/2000/svg"
 width="512.000000pt" height="512.000000pt" viewBox="0 0 512.000000 512.000000"
 preserveAspectRatio="xMidYMid meet">
<metadata>
Created by potrace 1.15, written by Peter Selinger 2001-2017
</metadata>
<g transform="translate(0.000000,512.000000) scale(0.100000,-0.100000)"
fill="#ffffff" stroke="none">
<path d="M2423 4890 c-160 -80 -267 -269 -280 -490 -11 -185 44 -350 167 -499
33 -41 57 -78 53 -81 -5 -4 -46 -15 -93 -24 -115 -22 -196 -63 -259 -132 -179
-196 -259 -527 -286 -1191 l-6 -153 184 0 185 0 6 -52 c3 -29 26 -334 52 -678
25 -344 47 -626 48 -627 1 -1 45 -10 96 -20 135 -24 448 -24 585 1 55 10 101
19 101 20 1 0 20 296 43 656 23 360 44 665 47 678 4 22 6 22 179 22 175 0 175
0 175 23 -3 201 -23 591 -35 687 -50 398 -162 635 -342 725 -29 14 -89 32
-135 41 -46 8 -96 18 -111 22 l-28 7 62 80 c114 148 160 274 160 445 0 249
-109 459 -281 539 -56 27 -77 31 -146 31 -70 0 -89 -4 -141 -30z"/>
<path d="M1829 4863 c-58 -39 -221 -187 -281 -254 -421 -475 -768 -1101 -1023
-1849 -206 -605 -325 -1251 -329 -1776 l-1 -182 40 -58 c111 -162 416 -306
885 -418 137 -33 200 -44 435 -80 522 -80 1289 -88 1865 -21 784 92 1375 310
1500 555 20 40 21 47 10 263 -28 588 -126 1106 -315 1673 -115 348 -215 588
-373 899 -262 516 -559 924 -859 1182 -67 57 -113 90 -113 79 0 -2 33 -53 74
-114 368 -552 603 -1478 666 -2632 19 -357 8 -1227 -18 -1399 l-7 -44 -85 -29
c-408 -138 -996 -205 -1555 -179 -368 18 -624 50 -873 111 -144 35 -322 94
-332 110 -16 26 -40 541 -40 860 0 1404 262 2595 717 3249 24 35 42 65 40 67
-2 2 -14 -4 -28 -13z"/>
</g>
</svg>
