<?xml version="1.0" standalone="no"?>
<!DOCTYPE svg PUBLIC "-//W3C//DTD SVG 20010904//EN"
 "http://www.w3.org/TR/2001/REC-SVG-20010904/DTD/svg10.dtd">
<svg version="1.0" xmlns="http://www.w3.org/2000/svg"
 width="512.000000pt" height="512.000000pt" viewBox="0 0 512.000000 512.000000"
 preserveAspectRatio="xMidYMid meet">
<metadata>
Created by potrace 1.15, written by Peter Selinger 2001-2017
</metadata>
<g transform="translate(0.000000,512.000000) scale(0.100000,-0.100000)"
fill="#ffffff" stroke="none">
<path d="M2068 4639 c-209 -10 -648 -66 -666 -84 -5 -5 95 -1 246 10 90 6 475
-12 617 -30 487 -60 887 -195 1267 -427 353 -217 664 -524 922 -913 147 -221
285 -480 389 -730 25 -60 62 -148 82 -195 l36 -85 -5 145 c-23 652 -253 1212
-662 1616 -424 418 -988 642 -1740 694 -165 11 -267 11 -486 -1z"/>
<path d="M2170 4262 c-327 -165 -576 -432 -726 -779 -55 -126 -104 -291 -126
-428 -18 -115 -15 -396 6 -527 55 -340 200 -642 422 -876 77 -81 81 -83 164
-108 157 -46 289 -64 467 -64 90 0 163 4 163 8 0 4 -14 67 -30 139 -185 804
-78 1616 325 2487 20 43 35 80 33 81 -21 20 -305 88 -438 105 -140 17 -156 15
-260 -38z"/>
<path d="M1687 4265 c-304 -61 -593 -167 -942 -345 -207 -106 -313 -169 -309
-185 202 -756 410 -1242 693 -1618 69 -92 228 -263 237 -254 3 3 -11 33 -30
68 -74 135 -147 351 -182 540 -22 115 -30 432 -15 556 33 265 126 532 265 758
93 153 273 356 405 456 l64 49 -34 -1 c-19 0 -87 -11 -152 -24z"/>
<path d="M3204 4023 c3 -10 10 -40 16 -68 5 -27 12 -60 15 -71 4 -20 0 -22
-58 -26 -158 -13 -266 -127 -267 -283 0 -198 180 -327 378 -269 l22 6 0 -178
c0 -532 -111 -1004 -345 -1477 -36 -72 -65 -132 -65 -134 0 -20 993 208 1022
234 33 29 139 203 188 306 125 265 179 550 159 850 l-8 127 -62 82 c-308 407
-630 712 -940 891 -54 32 -62 33 -55 10z"/>
<path d="M185 3495 c29 -302 39 -384 61 -517 133 -815 441 -1397 922 -1745
509 -369 1209 -454 2067 -253 328 77 761 235 1168 426 223 105 527 263 527
275 0 9 -87 4 -295 -17 -267 -28 -591 -97 -1200 -257 -566 -149 -810 -194
-1115 -204 -503 -16 -862 112 -1191 424 -361 344 -675 963 -889 1753 -47 172
-65 209 -55 115z"/>
<path d="M4442 2609 c-23 -233 -87 -448 -197 -666 -40 -79 -67 -143 -61 -143
6 0 29 5 51 10 92 21 332 51 490 61 93 6 171 12 173 14 8 7 -187 406 -273 560
-78 140 -158 276 -164 279 -4 3 -12 -49 -19 -115z"/>
<path d="M4793 1386 c-594 -366 -1261 -620 -1852 -706 -410 -59 -831 -52
-1231 20 -302 55 -619 155 -949 299 -52 22 -96 39 -98 37 -7 -7 99 -94 212
-175 399 -287 820 -448 1365 -523 127 -17 613 -17 740 0 636 87 1152 318 1571
702 121 111 334 369 317 385 -2 3 -36 -15 -75 -39z"/>
</g>
</svg>
