<?xml version="1.0" standalone="no"?>
<!DOCTYPE svg PUBLIC "-//W3C//DTD SVG 20010904//EN"
 "http://www.w3.org/TR/2001/REC-SVG-20010904/DTD/svg10.dtd">
<svg version="1.0" xmlns="http://www.w3.org/2000/svg"
 width="512.000000pt" height="512.000000pt" viewBox="0 0 512.000000 512.000000"
 preserveAspectRatio="xMidYMid meet">
<metadata>
Created by potrace 1.15, written by Peter Selinger 2001-2017
</metadata>
<g transform="translate(0.000000,512.000000) scale(0.100000,-0.100000)"
fill="#ffffff" stroke="none">
<path d="M3020 4901 c-213 -47 -398 -148 -550 -301 -155 -156 -261 -348 -310
-566 -14 -61 -26 -223 -22 -278 l3 -39 70 69 69 69 63 -63 62 -64 -118 -113
-119 -113 18 -63 c10 -35 30 -95 46 -134 15 -38 28 -71 28 -72 0 -14 -277 127
-378 193 -201 131 -301 231 -689 694 -109 130 -176 177 -286 200 -190 39 -375
-133 -353 -329 3 -31 20 -83 36 -116 32 -66 107 -144 430 -441 351 -323 550
-549 648 -733 24 -45 49 -81 57 -81 7 0 96 -22 197 -49 101 -27 202 -54 225
-60 41 -11 42 -12 57 -81 36 -157 2 -285 -109 -407 l-52 -57 -159 42 c-87 23
-171 44 -185 48 -24 5 -31 -1 -65 -52 -70 -106 -175 -202 -423 -389 -359 -271
-481 -497 -482 -893 0 -196 25 -287 107 -388 95 -118 296 -175 453 -128 75 22
153 100 175 173 23 80 20 173 -10 287 -20 77 -25 115 -21 172 14 238 284 473
544 473 100 0 166 -25 218 -82 67 -74 77 -105 160 -462 66 -285 165 -416 393
-518 236 -107 509 -84 626 52 45 54 59 97 54 169 -8 118 -83 222 -294 407 -82
72 -132 155 -166 280 -19 67 -22 103 -21 263 0 163 3 199 27 308 60 273 159
483 259 546 73 47 142 68 424 132 277 63 339 80 454 129 147 62 237 122 344
230 156 156 235 312 243 483 5 107 -10 161 -62 220 -67 76 -200 104 -324 67
-84 -25 -190 -104 -276 -205 -93 -109 -165 -164 -278 -213 -150 -64 -379 -101
-588 -95 l-105 3 33 20 32 19 0 158 0 158 90 0 90 0 0 -82 0 -82 51 49 c276
269 465 672 486 1035 l6 108 47 -34 c77 -55 211 -202 278 -304 99 -152 89
-144 97 -76 14 109 -13 260 -72 404 -12 31 206 -103 337 -207 29 -23 55 -40
57 -37 8 7 -26 104 -60 171 -42 86 -92 150 -158 205 l-58 49 37 -6 c86 -12
173 -38 260 -79 102 -47 111 -43 61 27 -107 150 -268 257 -470 310 -112 30
-299 33 -410 5 l-77 -18 -79 30 c-133 52 -204 64 -378 68 -129 3 -176 0 -245
-15z m-23 -567 c139 -110 90 -312 -84 -349 -68 -14 -163 37 -200 109 -9 17
-17 57 -17 88 -1 47 4 64 29 100 64 91 192 116 272 52z m438 -324 c38 -24 79
-86 90 -137 14 -68 -37 -163 -109 -200 -47 -24 -123 -22 -173 6 -141 80 -134
273 12 343 51 24 131 19 180 -12z m-791 -464 l30 -23 -94 -124 c-51 -68 -96
-128 -101 -132 -4 -5 -39 15 -77 44 l-70 52 101 133 101 133 40 -30 c23 -16
54 -40 70 -53z m262 -108 c40 -13 74 -27 74 -33 0 -5 -21 -75 -46 -155 l-46
-146 -82 26 c-44 15 -81 31 -81 36 0 23 91 294 98 294 5 0 42 -10 83 -22z"/>
<path d="M391 3041 c-40 -50 -107 -190 -125 -264 -23 -87 -39 -262 -33 -345 3
-41 8 -76 10 -79 3 -2 80 38 171 90 l166 95 88 -24 c48 -13 175 -47 282 -75
107 -29 380 -100 605 -160 226 -60 418 -109 427 -109 32 0 75 112 63 162 -6
24 -24 30 -298 102 -161 43 -357 95 -437 116 -80 22 -257 69 -395 105 -137 36
-257 68 -266 71 -9 2 -62 83 -119 179 -57 96 -104 175 -106 175 -1 0 -16 -17
-33 -39z"/>
<path d="M3236 1977 c-31 -71 -49 -127 -43 -134 6 -5 239 -68 672 -181 257
-67 284 -73 552 -102 154 -18 289 -30 299 -28 10 1 -74 43 -187 92 -112 48
-240 106 -284 127 -59 28 -194 68 -520 154 -242 64 -446 118 -453 120 -7 3
-22 -16 -36 -48z"/>
</g>
</svg>
