<?xml version="1.0" standalone="no"?>
<!DOCTYPE svg PUBLIC "-//W3C//DTD SVG 20010904//EN"
 "http://www.w3.org/TR/2001/REC-SVG-20010904/DTD/svg10.dtd">
<svg version="1.0" xmlns="http://www.w3.org/2000/svg"
 width="512.000000pt" height="512.000000pt" viewBox="0 0 512.000000 512.000000"
 preserveAspectRatio="xMidYMid meet">
<metadata>
Created by potrace 1.15, written by Peter Selinger 2001-2017
</metadata>
<g transform="translate(0.000000,512.000000) scale(0.100000,-0.100000)"
fill="#ffffff" stroke="none">
<path d="M4407 4903 c21 -127 -3 -294 -58 -407 -53 -107 -146 -213 -222 -253
-28 -14 -29 -13 -94 48 -350 327 -845 534 -1363 570 -245 17 -534 -14 -765
-82 -469 -138 -891 -431 -1180 -819 -337 -453 -487 -993 -434 -1558 16 -178
20 -177 68 14 23 93 64 243 90 334 26 91 58 217 70 280 66 343 240 688 482
955 356 394 818 625 1349 676 523 50 1062 -115 1474 -452 43 -35 87 -71 97
-79 19 -15 19 -18 -11 -120 -18 -57 -34 -108 -37 -112 -2 -5 -36 20 -75 54
-372 334 -799 491 -1288 475 -361 -12 -653 -106 -951 -305 -362 -242 -647
-644 -744 -1048 -16 -70 -16 -72 4 -113 12 -22 23 -41 25 -41 2 0 16 21 31 48
26 45 283 440 368 567 148 219 358 403 602 524 251 125 451 172 731 172 156 0
238 -10 394 -48 279 -67 556 -228 767 -445 l52 -53 -54 -114 -55 -113 -38 48
c-53 68 -174 183 -252 242 -252 188 -573 286 -885 269 -202 -11 -352 -50 -540
-141 -309 -149 -561 -425 -682 -745 -41 -110 -25 -106 115 30 70 69 165 158
212 198 47 40 101 89 120 109 167 174 403 296 650 337 132 23 348 16 460 -14
302 -79 533 -237 702 -479 l30 -43 -67 -105 c-91 -142 -247 -345 -347 -449
l-83 -87 -92 71 c-50 39 -94 71 -97 71 -3 0 -31 -34 -63 -76 -49 -66 -55 -78
-42 -88 87 -63 209 -162 209 -169 0 -4 -74 -104 -165 -220 -91 -117 -191 -245
-223 -285 -31 -41 -60 -79 -64 -86 -8 -14 137 -131 151 -122 9 6 340 428 425
542 l38 52 100 -76 c54 -43 107 -83 116 -89 16 -11 25 -4 75 61 31 41 57 78
57 83 -1 4 -46 42 -100 83 -55 41 -100 78 -100 81 0 13 76 104 110 132 46 39
102 66 160 77 60 11 102 -1 146 -42 l31 -29 84 58 c288 202 440 325 617 497
180 176 303 338 376 496 185 404 87 793 -302 1193 -58 59 -109 107 -114 107
-5 0 -6 -20 -1 -47z"/>
<path d="M2333 3292 c-44 -59 -109 -143 -143 -187 -34 -44 -101 -131 -148
-192 -47 -62 -89 -113 -92 -113 -3 0 -55 38 -115 85 -61 47 -113 84 -116 83
-4 -2 -33 -36 -64 -76 -49 -63 -55 -75 -42 -85 9 -7 56 -43 106 -81 105 -81
105 -74 2 -177 -98 -97 -200 -131 -289 -94 -20 9 -47 26 -59 37 l-23 22 -78
-54 c-252 -175 -559 -424 -677 -551 -230 -246 -353 -460 -396 -687 -15 -80 -6
-276 16 -357 63 -234 190 -425 444 -669 l40 -39 -6 119 c-7 148 10 238 69 357
52 103 158 214 241 253 l56 25 73 -59 c146 -118 345 -236 533 -317 293 -126
708 -193 1025 -165 497 43 900 206 1282 517 118 96 308 302 400 433 98 140
238 410 287 555 38 115 76 264 97 390 26 151 24 708 -2 682 -3 -3 -25 -81 -48
-173 -24 -93 -66 -243 -94 -334 -28 -91 -62 -214 -76 -275 -36 -162 -79 -283
-155 -441 -111 -230 -220 -383 -396 -559 -212 -212 -444 -364 -715 -468 -224
-86 -417 -125 -665 -134 -248 -9 -472 22 -700 96 -265 86 -467 197 -703 388
l-22 18 34 100 c18 55 41 119 51 143 l18 43 66 -64 c255 -244 619 -415 984
-462 854 -110 1658 384 1948 1196 l40 114 -27 57 c-15 32 -31 58 -35 58 -4 0
-26 -33 -49 -72 -88 -149 -350 -536 -414 -610 -126 -147 -295 -281 -467 -372
-281 -147 -554 -204 -886 -184 -342 21 -683 167 -948 407 -145 131 -137 101
-64 241 l64 121 58 -65 c277 -310 710 -483 1123 -447 329 29 621 161 853 386
110 106 188 210 256 337 45 85 45 86 33 137 -6 28 -15 50 -19 49 -5 -2 -66
-59 -136 -128 -178 -175 -337 -319 -411 -373 -96 -70 -259 -145 -391 -179
-105 -28 -132 -31 -281 -32 -183 -1 -269 12 -416 66 -194 70 -425 241 -533
396 l-23 33 54 82 c100 151 342 437 368 437 4 0 43 -28 86 -62 44 -33 84 -65
90 -70 8 -6 30 15 68 63 31 40 56 77 56 83 0 6 -50 49 -110 95 -61 46 -110 85
-110 88 0 2 20 29 45 61 153 194 415 535 415 541 -1 5 -116 96 -144 113 -6 4
-45 -38 -93 -100z"/>
</g>
</svg>
