<?xml version="1.0" standalone="no"?>
<!DOCTYPE svg PUBLIC "-//W3C//DTD SVG 20010904//EN"
 "http://www.w3.org/TR/2001/REC-SVG-20010904/DTD/svg10.dtd">
<svg version="1.0" xmlns="http://www.w3.org/2000/svg"
 width="512.000000pt" height="512.000000pt" viewBox="0 0 512.000000 512.000000"
 preserveAspectRatio="xMidYMid meet">
<metadata>
Created by potrace 1.15, written by Peter Selinger 2001-2017
</metadata>
<g transform="translate(0.000000,512.000000) scale(0.100000,-0.100000)"
fill="#ffffff" stroke="none">
<path d="M170 4687 l0 -273 351 -269 c192 -148 366 -280 385 -294 l35 -25 637
33 c350 18 669 35 707 38 l70 6 41 -149 c22 -82 40 -150 40 -151 -1 -1 -134
-14 -296 -29 -162 -15 -298 -30 -302 -33 -4 -3 76 -49 178 -101 101 -52 184
-97 183 -100 0 -3 -90 -75 -199 -160 -110 -85 -199 -158 -200 -162 0 -5 69 -5
153 -2 l152 6 -46 -48 c-25 -27 -112 -121 -194 -209 -291 -313 -492 -521 -498
-515 -2 3 -34 54 -72 114 -107 173 -208 384 -271 569 l-57 169 -371 -371 -371
-371 404 -404 405 -405 -48 -58 c-175 -213 -400 -436 -667 -659 -52 -44 -109
-91 -127 -104 -31 -23 -32 -26 -32 -95 0 -128 46 -254 123 -333 81 -84 184
-126 328 -137 l84 -6 41 58 c196 273 476 567 718 755 l90 69 418 -418 418
-418 365 365 c201 201 365 369 365 375 0 5 -60 29 -133 53 -153 49 -285 106
-439 192 -85 47 -273 165 -296 186 -4 3 196 198 528 514 293 280 330 315 338
318 4 1 26 -105 48 -235 l40 -238 428 -47 c236 -26 430 -49 432 -50 1 -2 66
-228 144 -503 78 -275 172 -606 209 -735 l67 -235 232 -3 232 -2 0 297 0 297
-251 575 c-138 317 -255 580 -260 585 -4 5 -229 12 -500 15 l-492 6 -68 235
-68 235 197 200 c684 692 1098 1294 1318 1915 33 93 114 365 114 382 0 4 -33
8 -74 8 -60 0 -103 -9 -220 -45 -447 -139 -862 -358 -1291 -681 -133 -100
-349 -278 -374 -307 -7 -10 -17 -17 -22 -17 -5 0 -9 70 -9 155 0 85 -3 155 -7
155 -5 0 -78 -95 -163 -210 -85 -116 -157 -210 -160 -210 -3 0 -29 91 -57 202
-29 110 -54 202 -55 203 -2 2 -275 24 -608 50 -333 26 -614 50 -625 55 -11 4
-61 73 -110 155 -50 81 -144 235 -210 344 l-121 196 -327 3 -327 2 0 -273z
m4480 -37 c0 -5 -24 -73 -54 -149 -55 -141 -149 -336 -233 -486 -92 -161 -295
-459 -418 -610 -150 -186 -293 -348 -461 -525 -50 -52 -126 -132 -169 -178
-43 -45 -80 -80 -83 -78 -2 3 -30 129 -62 281 -32 152 -60 278 -63 281 -2 3
-69 -43 -147 -101 -78 -58 -144 -104 -146 -102 -2 1 -26 86 -54 187 l-52 185
124 120 c543 528 1110 917 1618 1113 58 22 123 47 145 55 48 19 55 20 55 7z
m-2025 -1735 c37 -137 71 -253 74 -257 4 -5 67 37 141 92 89 66 137 95 141 87
3 -6 23 -97 44 -200 l39 -188 -35 -31 c-19 -17 -88 -83 -154 -147 -66 -64
-219 -210 -340 -326 -316 -301 -595 -578 -595 -590 1 -20 292 -223 455 -318
84 -48 276 -141 332 -161 l33 -11 -190 -190 -190 -190 -408 408 -408 408 -94
-68 c-303 -215 -596 -504 -829 -814 l-42 -57 -40 9 c-94 22 -162 78 -184 153
-8 27 -15 57 -15 67 0 10 57 66 133 130 329 281 611 577 774 812 l27 38 -395
395 -394 394 185 185 c102 102 188 185 191 185 3 0 14 -21 24 -47 70 -185 263
-513 424 -722 l19 -25 199 205 c197 202 233 240 513 539 393 419 483 511 490
498 4 -7 38 -125 75 -263z"/>
</g>
</svg>
