<?xml version="1.0" standalone="no"?>
<!DOCTYPE svg PUBLIC "-//W3C//DTD SVG 20010904//EN"
 "http://www.w3.org/TR/2001/REC-SVG-20010904/DTD/svg10.dtd">
<svg version="1.0" xmlns="http://www.w3.org/2000/svg"
 width="512.000000pt" height="512.000000pt" viewBox="0 0 512.000000 512.000000"
 preserveAspectRatio="xMidYMid meet">
<metadata>
Created by potrace 1.15, written by Peter Selinger 2001-2017
</metadata>
<g transform="translate(0.000000,512.000000) scale(0.100000,-0.100000)"
fill="#ffffff" stroke="none">
<path d="M2355 4820 c-376 -57 -631 -185 -718 -360 -29 -60 -30 -157 0 -222
135 -298 788 -459 1368 -338 299 62 528 206 581 364 21 61 14 139 -17 203 -71
147 -321 284 -619 338 -109 20 -496 30 -595 15z m570 -164 c239 -63 377 -167
392 -296 14 -119 -110 -237 -325 -309 -204 -69 -568 -69 -776 1 -146 48 -267
131 -307 210 -29 56 -26 135 7 184 40 59 81 91 179 139 162 80 298 105 550
101 156 -3 193 -7 280 -30z"/>
<path d="M756 4525 c-72 -30 -172 -116 -231 -200 -302 -422 -362 -1566 -134
-2504 152 -623 407 -1037 704 -1142 67 -24 225 -39 225 -21 0 5 -23 64 -51
129 -161 376 -339 879 -429 1218 -27 105 -50 197 -50 205 1 8 16 -21 34 -65
79 -194 239 -481 344 -620 240 -317 487 -455 722 -404 l51 11 -33 43 c-18 23
-70 91 -116 149 -191 247 -382 528 -520 766 -81 139 -176 320 -169 320 2 0 25
-31 50 -70 91 -135 182 -247 306 -370 244 -243 450 -351 641 -335 72 6 160 35
160 52 0 5 -38 42 -84 83 -206 183 -726 729 -726 762 0 4 36 -21 80 -57 178
-144 357 -247 520 -301 71 -23 103 -27 190 -28 93 0 111 3 160 26 72 35 111
67 90 75 -8 4 -85 41 -170 84 -564 282 -1064 717 -1278 1109 -92 168 -133 310
-133 461 0 109 12 178 56 316 45 139 52 206 28 253 -42 80 -128 100 -237 55z"/>
<path d="M4284 4541 c-28 -12 -72 -67 -80 -98 -12 -45 4 -125 51 -266 34 -102
48 -161 52 -222 30 -430 -363 -965 -1027 -1400 -154 -101 -244 -152 -428 -245
-134 -67 -143 -73 -128 -89 39 -43 157 -81 251 -81 76 0 233 47 350 105 125
61 292 173 400 268 l70 62 -45 -55 c-165 -203 -461 -513 -705 -737 l-110 -101
38 -17 c186 -78 417 -9 668 202 130 109 319 327 418 481 101 158 -26 -95 -160
-318 -128 -215 -321 -494 -504 -730 -70 -89 -124 -164 -122 -166 2 -3 32 -10
67 -16 76 -14 190 0 265 33 134 59 280 181 402 337 128 163 298 462 382 672
36 88 39 79 10 -33 -99 -395 -271 -893 -473 -1367 l-44 -105 56 -3 c143 -9
277 55 419 197 323 324 556 1088 591 1941 27 639 -61 1194 -237 1488 -52 89
-154 190 -231 231 -65 35 -155 50 -196 32z"/>
<path d="M4050 3767 c-197 -132 -508 -293 -706 -365 -297 -109 -504 -151 -774
-159 -327 -10 -578 40 -900 177 -145 62 -378 200 -519 307 -24 18 -46 32 -48
29 -2 -2 8 -36 23 -77 94 -266 346 -564 709 -840 165 -126 366 -249 584 -359
204 -103 173 -99 315 -31 344 166 675 390 925 626 167 157 337 383 405 538 29
67 60 171 55 186 -2 6 -33 -8 -69 -32z"/>
</g>
</svg>
