<?xml version="1.0" standalone="no"?>
<!DOCTYPE svg PUBLIC "-//W3C//DTD SVG 20010904//EN"
 "http://www.w3.org/TR/2001/REC-SVG-20010904/DTD/svg10.dtd">
<svg version="1.0" xmlns="http://www.w3.org/2000/svg"
 width="512.000000pt" height="512.000000pt" viewBox="0 0 512.000000 512.000000"
 preserveAspectRatio="xMidYMid meet">
<metadata>
Created by potrace 1.15, written by Peter Selinger 2001-2017
</metadata>
<g transform="translate(0.000000,512.000000) scale(0.100000,-0.100000)"
fill="#ffffff" stroke="none">
<path d="M1460 5055 c0 -2 71 -108 158 -234 86 -127 230 -337 319 -468 89
-131 211 -311 272 -400 l110 -162 -281 186 c-268 176 -308 201 -308 190 0 -2
74 -136 164 -298 90 -162 162 -295 161 -297 -2 -3 -1060 678 -1265 813 -175
116 -395 255 -402 255 -10 0 5 -29 140 -260 196 -337 519 -835 715 -1105 197
-270 421 -555 436 -555 3 0 312 306 686 681 l680 680 -40 35 c-22 20 -92 75
-155 123 -345 262 -703 483 -1139 703 -219 111 -251 125 -251 113z"/>
<path d="M4313 4732 l-593 -227 -1072 -1072 -1073 -1073 65 -65 c35 -36 69
-65 74 -65 6 0 487 476 1071 1058 l1060 1057 155 57 c85 31 256 95 378 142
171 65 223 81 219 68 -2 -9 -66 -181 -141 -382 l-137 -365 -1062 -1062 -1062
-1063 65 -65 c35 -36 69 -65 75 -65 5 0 492 483 1082 1073 l1072 1072 196 525
c109 289 210 560 226 603 25 68 27 77 11 76 -9 0 -284 -102 -609 -227z"/>
<path d="M2770 2935 c-1078 -1078 -1297 -1292 -1308 -1281 -7 7 -26 51 -42 97
-49 139 -39 263 31 403 l30 58 -154 154 c-85 85 -159 154 -164 154 -6 0 -28
-26 -50 -57 -222 -317 -226 -741 -11 -1067 l51 -78 -314 -314 -314 -314 -46 6
c-138 18 -261 -89 -261 -227 0 -100 51 -175 147 -215 101 -42 237 11 285 112
17 35 21 58 18 114 l-3 70 315 315 316 316 81 -54 c162 -107 315 -150 528
-151 121 0 153 4 237 27 53 14 130 43 170 63 76 38 188 112 188 124 0 11 -312
310 -324 310 -6 0 -24 -9 -41 -20 -79 -53 -261 -78 -366 -50 -48 13 -149 59
-149 69 0 3 583 589 1296 1302 l1297 1297 -68 63 c-37 35 -70 65 -74 67 -3 1
-589 -581 -1301 -1293z"/>
<path d="M3360 2374 l-685 -685 40 -36 c286 -253 782 -609 1201 -863 282 -171
701 -393 690 -365 -3 10 -141 276 -305 590 l-298 573 500 -335 c274 -184 502
-333 507 -331 4 2 -251 365 -567 807 -316 442 -572 805 -570 808 3 2 190 -89
417 -202 227 -113 414 -204 417 -201 6 6 -205 325 -337 511 -112 158 -310 415
-319 415 -3 0 -314 -309 -691 -686z"/>
</g>
</svg>
