<?xml version="1.0" standalone="no"?>
<!DOCTYPE svg PUBLIC "-//W3C//DTD SVG 20010904//EN"
 "http://www.w3.org/TR/2001/REC-SVG-20010904/DTD/svg10.dtd">
<svg version="1.0" xmlns="http://www.w3.org/2000/svg"
 width="512.000000pt" height="512.000000pt" viewBox="0 0 512.000000 512.000000"
 preserveAspectRatio="xMidYMid meet">
<metadata>
Created by potrace 1.15, written by Peter Selinger 2001-2017
</metadata>
<g transform="translate(0.000000,512.000000) scale(0.100000,-0.100000)"
fill="#ffffff" stroke="none">
<path d="M2750 4915 c0 -3 22 -38 48 -78 272 -406 455 -969 496 -1527 l6 -75
-54 145 c-154 418 -322 740 -534 1019 -92 123 -192 235 -200 227 -3 -3 11 -38
31 -79 176 -361 311 -841 362 -1282 36 -317 36 -736 0 -1020 -8 -66 -15 -124
-15 -130 -1 -5 -18 74 -40 178 -166 804 -437 1445 -857 2022 -29 40 -34 28
-12 -27 244 -619 330 -1321 248 -2011 -7 -54 -15 -94 -19 -90 -4 4 -17 60 -29
123 -56 288 -169 671 -286 960 -76 189 -195 440 -208 440 -5 0 -7 -7 -3 -15
11 -30 56 -276 73 -401 13 -100 17 -202 17 -449 0 -280 -2 -340 -23 -485 -12
-91 -25 -183 -28 -205 l-5 -40 174 -54 c95 -30 175 -56 177 -57 2 -2 -50 -59
-115 -126 -104 -107 -254 -295 -254 -319 0 -14 33 -27 246 -99 707 -238 1448
-387 2029 -407 246 -8 434 10 665 63 21 5 18 -1 -23 -39 -109 -103 -277 -167
-520 -197 -124 -16 -488 -8 -677 14 -470 56 -1083 198 -1703 395 -70 23 -130
41 -132 41 -15 0 -77 -237 -100 -381 l-5 -36 57 -22 c32 -13 193 -74 358 -136
165 -62 505 -190 755 -285 627 -237 655 -247 798 -277 115 -25 147 -28 332
-28 192 0 211 2 303 28 341 94 589 326 705 658 36 101 45 149 72 358 126 1000
63 2011 -175 2801 -92 306 -245 649 -383 858 l-35 52 -118 0 -119 0 42 -67
c53 -88 174 -329 231 -463 154 -362 260 -768 313 -1200 18 -155 39 -635 29
-685 -7 -36 -10 -27 -31 100 -106 623 -365 1211 -757 1725 -159 207 -232 277
-177 169 27 -53 116 -280 163 -419 239 -702 309 -1481 195 -2183 -25 -154 -36
-156 -37 -6 -1 123 -17 323 -41 525 -105 863 -431 1702 -943 2422 l-59 82
-104 0 c-57 0 -104 -2 -104 -5z"/>
<path d="M1652 4901 c2 -5 39 -37 82 -70 259 -198 518 -503 729 -856 46 -77
99 -170 118 -207 19 -38 37 -68 40 -68 8 0 -12 112 -45 259 -74 325 -189 621
-338 869 l-49 82 -271 0 c-159 0 -268 -4 -266 -9z"/>
<path d="M3425 4894 c11 -8 58 -37 104 -65 191 -114 408 -322 538 -517 31 -46
58 -81 60 -78 8 7 -66 234 -108 330 -43 100 -114 226 -167 298 l-36 48 -206 0
c-185 -1 -203 -2 -185 -16z"/>
<path d="M1234 1852 c-2 -181 -6 -245 -21 -317 -11 -49 -23 -89 -29 -89 -10 2
-544 172 -799 254 -82 27 -162 52 -178 56 l-28 6 3 -153 3 -153 440 -139 c242
-76 448 -141 458 -145 16 -6 14 -13 -16 -77 -49 -101 -121 -218 -192 -310 -33
-44 -64 -85 -68 -92 -5 -8 12 -18 55 -32 126 -39 423 -132 433 -135 6 -2 10
78 10 228 1 202 3 244 23 336 64 295 198 570 385 789 16 18 25 37 20 41 -6 6
-484 160 -496 160 -1 0 -3 -102 -3 -228z"/>
</g>
</svg>
