<?xml version="1.0" standalone="no"?>
<!DOCTYPE svg PUBLIC "-//W3C//DTD SVG 20010904//EN"
 "http://www.w3.org/TR/2001/REC-SVG-20010904/DTD/svg10.dtd">
<svg version="1.0" xmlns="http://www.w3.org/2000/svg"
 width="512.000000pt" height="512.000000pt" viewBox="0 0 512.000000 512.000000"
 preserveAspectRatio="xMidYMid meet">
<metadata>
Created by potrace 1.15, written by Peter Selinger 2001-2017
</metadata>
<g transform="translate(0.000000,512.000000) scale(0.100000,-0.100000)"
fill="#ffffff" stroke="none">
<path d="M3857 4856 c-8 -110 -40 -247 -88 -371 -82 -211 -197 -383 -365 -545
-312 -300 -718 -458 -1176 -460 -82 0 -270 21 -348 39 l-35 7 71 36 c379 194
593 490 611 848 3 63 3 113 0 110 -3 -3 -26 -46 -51 -95 -173 -345 -568 -591
-1091 -679 -324 -55 -816 -42 -1157 29 -38 8 -74 15 -79 15 -5 0 -9 -79 -9
-189 l0 -190 53 -10 c295 -60 740 -77 1042 -41 l100 13 65 -40 c225 -138 517
-202 865 -190 266 9 507 64 766 173 254 107 461 258 585 427 25 34 47 64 49
65 2 2 48 -10 102 -27 319 -99 520 -131 860 -138 138 -3 267 -3 287 1 l36 7 0
200 0 200 -42 -5 c-178 -22 -513 -13 -733 20 -86 13 -326 62 -332 68 -2 1 10
54 26 117 16 63 32 148 36 189 3 41 8 96 10 121 8 81 -27 379 -45 379 -4 0
-10 -38 -13 -84z"/>
<path d="M3150 3173 c-99 -46 -309 -117 -434 -147 -307 -74 -655 -85 -923 -30
-40 9 -78 14 -83 12 -5 -2 171 -212 390 -467 220 -256 398 -466 397 -467 -1
-1 -200 -45 -442 -98 -242 -53 -449 -100 -460 -105 -18 -7 -18 -8 5 -23 104
-65 2972 -1689 2976 -1685 3 2 -239 397 -537 876 -298 480 -539 874 -537 876
2 3 131 37 286 77 157 41 280 77 278 83 -2 6 -176 246 -386 535 -211 289 -395
542 -409 562 -14 21 -30 37 -36 37 -5 0 -44 -16 -85 -36z"/>
</g>
</svg>
