<?xml version="1.0" standalone="no"?>
<!DOCTYPE svg PUBLIC "-//W3C//DTD SVG 20010904//EN"
 "http://www.w3.org/TR/2001/REC-SVG-20010904/DTD/svg10.dtd">
<svg version="1.0" xmlns="http://www.w3.org/2000/svg"
 width="512.000000pt" height="512.000000pt" viewBox="0 0 512.000000 512.000000"
 preserveAspectRatio="xMidYMid meet">
<metadata>
Created by potrace 1.15, written by Peter Selinger 2001-2017
</metadata>
<g transform="translate(0.000000,512.000000) scale(0.100000,-0.100000)"
fill="#ffffff" stroke="none">
<path d="M2425 4924 c-398 -89 -713 -462 -753 -892 -11 -116 2 -294 28 -397
50 -198 139 -356 281 -496 280 -277 674 -344 1024 -175 382 184 608 618 556
1065 -36 307 -178 564 -406 733 -96 72 -147 99 -268 140 -84 28 -105 31 -242
34 -110 3 -169 -1 -220 -12z m-128 -1461 l123 -17 0 -89 0 -90 -62 7 c-67 7
-359 64 -366 71 -3 2 6 42 19 88 l23 84 70 -18 c38 -10 125 -26 193 -36z m924
-23 c28 -100 32 -94 -78 -119 -110 -24 -181 -37 -265 -46 l-58 -6 0 89 0 90
93 11 c50 7 128 20 172 30 115 27 115 27 136 -49z"/>
<path d="M1509 3309 c-286 -209 -514 -460 -694 -765 -209 -353 -343 -817 -376
-1307 -8 -125 -7 -158 5 -201 20 -67 64 -118 128 -150 l52 -26 933 0 933 0 0
620 c0 397 -4 620 -10 620 -21 0 -140 -49 -180 -75 -167 -105 -270 -319 -270
-560 l0 -85 -495 0 -495 0 0 90 0 90 60 0 c67 0 59 -11 80 109 28 157 118 390
221 575 62 113 181 297 202 314 9 8 31 -5 79 -45 l67 -55 -39 -51 c-73 -99
-189 -311 -252 -467 -50 -121 -85 -230 -112 -352 l-6 -28 260 0 260 0 0 28 c0
60 41 191 92 292 45 90 65 118 143 195 145 145 295 209 490 209 194 1 370 -81
517 -240 111 -120 171 -249 213 -457 l5 -27 284 0 285 0 -25 91 c-59 220 -217
556 -350 746 l-44 62 67 55 c36 30 69 53 73 51 4 -2 42 -57 85 -121 154 -231
288 -523 340 -745 15 -63 29 -120 31 -126 2 -8 22 -13 54 -13 l50 0 0 -90 0
-90 -510 0 -510 0 0 44 c0 75 -20 198 -45 272 -61 184 -198 328 -363 383 -34
12 -64 21 -67 21 -3 0 -5 -279 -5 -620 l0 -620 938 0 938 0 52 26 c62 31 103
76 127 139 17 43 17 58 6 183 -73 805 -270 1302 -706 1786 -97 107 -375 346
-404 346 -4 0 -24 -30 -45 -67 -116 -202 -272 -352 -474 -456 -509 -261 -1110
-83 -1425 424 -25 41 -50 86 -56 102 -6 15 -14 27 -19 27 -5 0 -46 -28 -93
-61z"/>
<path d="M1400 673 c0 -5 20 -111 45 -238 25 -126 45 -231 45 -232 0 -2 499
-3 1108 -3 l1109 0 37 213 c21 116 40 224 43 240 l6 27 -1197 0 c-658 0 -1196
-3 -1196 -7z"/>
</g>
</svg>
