<?xml version="1.0" standalone="no"?>
<!DOCTYPE svg PUBLIC "-//W3C//DTD SVG 20010904//EN"
 "http://www.w3.org/TR/2001/REC-SVG-20010904/DTD/svg10.dtd">
<svg version="1.0" xmlns="http://www.w3.org/2000/svg"
 width="512.000000pt" height="512.000000pt" viewBox="0 0 512.000000 512.000000"
 preserveAspectRatio="xMidYMid meet">
<metadata>
Created by potrace 1.15, written by Peter Selinger 2001-2017
</metadata>
<g transform="translate(0.000000,512.000000) scale(0.100000,-0.100000)"
fill="#ffffff" stroke="none">
<path d="M190 4506 l0 -434 1023 -884 c562 -487 1034 -896 1049 -909 l28 -24
-424 -890 c-234 -489 -424 -891 -422 -892 3 -3 2280 902 2298 913 3 2 -46
-148 -109 -333 -224 -657 -281 -828 -279 -830 1 -1 215 78 475 177 l472 178
335 -220 c184 -121 337 -218 340 -215 3 3 -51 178 -119 389 -69 210 -147 449
-173 530 -38 118 -50 145 -63 140 -9 -3 -140 -63 -291 -133 -151 -69 -276
-125 -278 -124 -1 1 168 375 376 831 209 456 376 830 371 832 -4 2 -444 -216
-979 -483 -535 -267 -973 -485 -974 -483 -2 2 163 269 366 593 203 325 372
596 375 602 3 7 -145 273 -328 590 -325 564 -482 837 -744 1291 l-128 222
-583 0 c-321 0 -584 -3 -584 -7 0 -7 1011 -1212 1715 -2044 l182 -216 -442
-702 c-243 -386 -446 -705 -450 -709 -5 -4 -5 -2 -2 4 11 19 547 1335 547
1342 0 4 -523 530 -1163 1170 l-1162 1162 -128 0 -127 0 0 -434z"/>
</g>
</svg>
