<?xml version="1.0" standalone="no"?>
<!DOCTYPE svg PUBLIC "-//W3C//DTD SVG 20010904//EN"
 "http://www.w3.org/TR/2001/REC-SVG-20010904/DTD/svg10.dtd">
<svg version="1.0" xmlns="http://www.w3.org/2000/svg"
 width="512.000000pt" height="512.000000pt" viewBox="0 0 512.000000 512.000000"
 preserveAspectRatio="xMidYMid meet">
<metadata>
Created by potrace 1.15, written by Peter Selinger 2001-2017
</metadata>
<g transform="translate(0.000000,512.000000) scale(0.100000,-0.100000)"
fill="#ffffff" stroke="none">
<path d="M2945 4909 c-305 -43 -588 -285 -698 -596 -29 -81 -31 -99 -32 -218
0 -71 4 -143 8 -158 7 -26 6 -28 -15 -21 -40 12 -409 199 -503 254 -49 29
-126 78 -170 109 -217 151 -547 365 -603 392 -213 102 -424 58 -541 -115 -66
-98 -82 -220 -43 -324 45 -117 117 -180 661 -570 288 -207 420 -338 500 -492
129 -247 104 -537 -67 -794 -67 -102 -169 -205 -397 -401 -240 -207 -332 -301
-413 -424 -139 -211 -189 -416 -179 -731 6 -184 18 -245 72 -356 105 -216 386
-336 616 -264 125 38 196 103 240 219 18 49 20 71 16 171 -4 98 -10 131 -41
223 -39 119 -45 179 -22 264 33 125 109 244 228 359 164 158 329 231 498 222
192 -11 262 -116 345 -518 121 -583 205 -735 481 -866 133 -64 234 -87 374
-88 183 -1 319 47 419 147 75 75 105 143 106 237 0 170 -102 322 -327 489
-182 134 -272 285 -328 549 -28 129 -38 401 -20 550 31 270 129 511 245 604
62 50 116 75 325 148 284 100 312 111 420 164 164 82 274 159 391 276 265 265
422 642 370 892 -46 218 -243 364 -443 328 -163 -30 -270 -134 -373 -364 -51
-113 -100 -189 -173 -268 -168 -181 -422 -287 -691 -288 l-64 0 59 38 c178
116 322 315 375 518 30 117 28 265 -4 362 -64 186 -201 303 -397 338 -84 15
-118 15 -205 3z m-684 -1314 c104 -36 197 -131 229 -230 7 -22 16 -44 20 -48
4 -4 30 8 59 27 95 64 217 83 315 50 59 -20 144 -97 176 -160 22 -43 25 -62
25 -149 0 -88 -3 -107 -27 -158 -67 -142 -206 -241 -537 -381 -175 -75 -243
-109 -284 -146 l-35 -30 -6 43 c-9 57 -47 136 -145 300 -165 278 -205 381
-205 532 1 122 24 190 90 264 84 94 209 126 325 86z"/>
</g>
</svg>
