<?xml version="1.0" standalone="no"?>
<!DOCTYPE svg PUBLIC "-//W3C//DTD SVG 20010904//EN"
 "http://www.w3.org/TR/2001/REC-SVG-20010904/DTD/svg10.dtd">
<svg version="1.0" xmlns="http://www.w3.org/2000/svg"
 width="512.000000pt" height="512.000000pt" viewBox="0 0 512.000000 512.000000"
 preserveAspectRatio="xMidYMid meet">
<metadata>
Created by potrace 1.15, written by Peter Selinger 2001-2017
</metadata>
<g transform="translate(0.000000,512.000000) scale(0.100000,-0.100000)"
fill="#ffffff" stroke="none">
<path d="M3767 4923 c-2 -5 -14 -50 -27 -101 l-23 -94 -73 73 -74 74 -67 -68
-68 -67 73 -73 73 -74 -84 -22 c-46 -13 -90 -26 -96 -31 -9 -5 -7 -28 10 -94
13 -47 27 -86 32 -86 4 0 48 11 97 25 49 14 91 25 94 25 2 0 -7 -43 -21 -96
-14 -52 -23 -97 -20 -100 10 -10 159 -45 171 -41 7 3 18 29 25 59 6 30 16 72
22 92 l10 38 76 -73 75 -73 64 69 64 70 -71 71 c-39 39 -67 74 -63 76 5 3 48
16 97 28 48 13 87 28 87 33 0 18 -42 162 -49 169 -4 5 -47 -4 -95 -18 -49 -14
-91 -22 -94 -19 -3 3 4 43 16 89 12 46 22 88 22 94 0 5 -38 19 -85 31 -96 24
-92 23 -98 14z"/>
<path d="M2005 4361 c-178 -44 -358 -310 -484 -715 -67 -215 -133 -586 -146
-816 -10 -179 22 -472 71 -639 8 -29 12 -57 7 -61 -17 -16 -144 -43 -153 -34
-17 17 -59 222 -76 369 -12 103 -15 184 -11 305 7 199 28 340 101 690 86 417
90 437 90 560 1 137 -13 171 -84 208 -85 42 -189 22 -262 -51 -158 -158 -250
-614 -265 -1317 -6 -284 2 -430 34 -605 25 -142 28 -133 -47 -161 -36 -13 -70
-24 -76 -24 -24 0 -70 256 -85 476 -13 191 -3 389 40 817 29 287 29 344 -4
394 -21 31 -66 53 -126 60 -78 9 -102 -21 -143 -179 -73 -283 -120 -883 -97
-1248 10 -155 20 -218 60 -390 19 -81 130 -673 150 -795 33 -206 45 -389 32
-489 -20 -152 -28 -164 -228 -388 -68 -76 -123 -140 -123 -143 0 -3 465 -5
1034 -5 l1033 0 98 140 c83 118 103 141 134 151 124 40 206 113 293 260 84
142 168 250 292 378 275 282 670 545 1008 671 61 23 88 49 88 88 0 95 -155
232 -313 277 -41 12 -85 16 -147 13 -83 -3 -94 -6 -192 -55 -56 -29 -177 -96
-268 -148 -336 -194 -465 -250 -605 -262 -160 -13 -359 86 -489 243 -208 252
-248 644 -135 1319 26 155 42 215 114 430 100 296 115 354 115 460 0 102 -25
159 -85 191 -47 26 -108 35 -150 25z"/>
<path d="M2800 3970 l-154 -150 39 -42 c22 -23 75 -78 117 -122 l77 -80 -52
-56 c-29 -30 -55 -56 -58 -58 -4 -2 -57 51 -119 118 -62 66 -118 120 -124 120
-6 0 -61 -51 -123 -113 l-112 -112 36 -190 c19 -104 37 -191 38 -193 1 -1 74
13 160 33 87 19 159 34 160 32 2 -5 33 -162 31 -164 0 -1 -72 -16 -159 -34
-120 -26 -157 -37 -157 -49 0 -19 68 -372 73 -376 6 -6 281 -104 292 -104 5 0
32 60 59 133 27 72 55 147 63 165 l14 33 33 -19 c18 -11 49 -25 69 -31 20 -7
37 -16 37 -19 -1 -4 -27 -77 -59 -162 -33 -85 -56 -158 -53 -161 12 -11 381
-141 390 -137 5 1 77 69 161 149 l151 146 -115 124 -114 123 52 55 c28 31 54
56 58 56 3 0 47 -45 98 -100 51 -55 104 -111 117 -125 l24 -25 115 115 c65 64
115 123 115 133 0 34 -63 352 -71 361 -5 6 -68 -3 -160 -23 -113 -24 -154 -29
-159 -21 -7 11 -19 82 -23 134 -2 17 17 24 156 54 l158 35 -6 36 c-3 20 -21
108 -38 196 l-32 160 -145 52 c-80 29 -147 52 -150 53 -3 0 -34 -76 -69 -170
-57 -151 -66 -168 -80 -156 -9 7 -41 23 -72 36 l-56 22 59 151 c32 83 58 156
58 163 0 7 -8 15 -17 19 -59 22 -371 135 -374 134 -2 0 -74 -67 -159 -149z
m420 -539 l135 -49 29 -152 29 -152 -104 -104 c-57 -57 -109 -104 -116 -104
-9 0 -261 88 -270 95 -2 1 -16 70 -31 153 l-29 152 106 105 c58 58 108 105
111 105 3 0 66 -22 140 -49z"/>
<path d="M4365 3594 c-33 -14 -70 -29 -82 -34 l-21 -9 35 -91 c20 -50 34 -93
31 -95 -2 -3 -46 3 -97 11 -51 9 -94 14 -97 12 -4 -4 -13 -55 -29 -154 l-5
-30 95 -13 c53 -8 97 -17 100 -20 2 -4 -23 -41 -56 -82 -32 -40 -58 -77 -56
-81 1 -3 33 -31 71 -62 l68 -56 66 81 66 81 36 -94 c25 -63 41 -92 51 -90 44
8 159 56 159 66 -1 6 -16 49 -34 96 -19 47 -32 86 -31 88 1 2 46 -5 99 -14 54
-9 99 -15 100 -13 8 8 33 180 27 183 -3 2 -46 9 -94 16 -48 8 -90 17 -93 22
-3 4 23 41 56 80 l62 73 -49 43 c-26 24 -60 52 -74 62 l-26 20 -63 -80 c-35
-44 -64 -79 -66 -77 -2 1 -19 43 -38 92 -19 49 -38 90 -43 92 -4 1 -35 -9 -68
-23z"/>
</g>
</svg>
