<?xml version="1.0" standalone="no"?>
<!DOCTYPE svg PUBLIC "-//W3C//DTD SVG 20010904//EN"
 "http://www.w3.org/TR/2001/REC-SVG-20010904/DTD/svg10.dtd">
<svg version="1.0" xmlns="http://www.w3.org/2000/svg"
 width="512.000000pt" height="512.000000pt" viewBox="0 0 512.000000 512.000000"
 preserveAspectRatio="xMidYMid meet">
<metadata>
Created by potrace 1.15, written by Peter Selinger 2001-2017
</metadata>
<g transform="translate(0.000000,512.000000) scale(0.100000,-0.100000)"
fill="#ffffff" stroke="none">
<path d="M1394 4903 c3 -10 46 -226 97 -481 l92 -462 -65 -68 c-74 -77 -143
-178 -195 -287 -19 -41 -36 -75 -37 -75 -62 10 -783 87 -786 83 -3 -2 3 -10
12 -17 10 -7 155 -149 324 -315 l306 -303 -1 -156 c-2 -179 15 -325 57 -484
l28 -107 -57 -73 c-31 -40 -125 -161 -208 -268 l-151 -195 342 -3 343 -3 55
-76 c94 -130 283 -310 430 -410 l45 -31 49 -413 c54 -462 56 -479 65 -479 3 0
87 136 185 303 99 166 190 318 202 338 l22 36 89 -19 c71 -15 120 -18 260 -15
l171 3 314 -364 c214 -249 314 -358 316 -345 1 10 -40 226 -91 480 l-94 462
34 33 c82 79 182 224 233 338 13 30 25 56 26 58 1 1 82 -6 180 -17 385 -43
574 -62 590 -59 12 2 -92 111 -324 338 l-342 335 0 67 c0 103 -28 296 -64 437
l-32 128 158 204 c219 283 302 391 310 404 6 9 -72 11 -325 8 -183 -2 -357 -5
-387 -6 l-55 -3 -69 92 c-72 98 -242 276 -319 334 -26 20 -48 46 -51 60 -3 14
-28 228 -57 475 -28 248 -54 453 -58 457 -3 4 -98 -147 -210 -335 l-203 -343
-87 18 c-94 20 -272 27 -366 15 l-61 -8 -314 366 c-173 200 -319 365 -323 365
-5 0 -6 -8 -3 -17z m1265 -959 c518 -143 977 -690 1102 -1311 30 -151 37 -403
15 -541 -38 -240 -130 -438 -270 -578 -45 -44 -97 -91 -116 -104 l-35 -25 21
30 c33 47 89 172 118 263 126 402 61 919 -172 1352 -176 329 -430 593 -723
753 -135 74 -333 136 -441 138 l-43 0 54 20 c131 46 331 48 490 3z m-325 -268
c289 -82 554 -289 751 -586 212 -319 319 -708 287 -1038 -34 -337 -174 -592
-407 -737 l-74 -46 -92 16 c-446 77 -858 440 -1083 954 -200 456 -204 945 -13
1303 39 72 46 79 97 102 52 23 135 49 190 60 66 12 257 -3 344 -28z"/>
</g>
</svg>
