<?xml version="1.0" standalone="no"?>
<!DOCTYPE svg PUBLIC "-//W3C//DTD SVG 20010904//EN"
 "http://www.w3.org/TR/2001/REC-SVG-20010904/DTD/svg10.dtd">
<svg version="1.0" xmlns="http://www.w3.org/2000/svg"
 width="512.000000pt" height="512.000000pt" viewBox="0 0 512.000000 512.000000"
 preserveAspectRatio="xMidYMid meet">
<metadata>
Created by potrace 1.15, written by Peter Selinger 2001-2017
</metadata>
<g transform="translate(0.000000,512.000000) scale(0.100000,-0.100000)"
fill="#ffffff" stroke="none">
<path d="M2411 4925 c-487 -75 -837 -401 -833 -777 1 -102 20 -187 66 -283 35
-74 117 -184 167 -223 l29 -23 0 -275 0 -274 120 0 120 0 0 280 0 280 90 0 90
0 0 -280 0 -280 125 0 125 0 0 280 0 280 90 0 90 0 0 -280 0 -280 125 0 125 0
0 280 0 280 90 0 90 0 0 -280 0 -280 120 0 120 0 0 265 0 265 59 58 c108 106
189 258 211 397 24 147 -23 329 -121 472 -129 187 -372 331 -654 389 -106 21
-332 26 -444 9z m-95 -528 c197 -100 224 -376 50 -507 -131 -99 -295 -85 -405
36 -63 69 -85 132 -79 224 9 118 81 216 192 260 71 28 172 23 242 -13z m801
11 c148 -57 229 -230 177 -381 -22 -64 -92 -140 -162 -174 -45 -22 -70 -27
-127 -27 -117 0 -212 60 -265 168 -26 53 -31 75 -31 135 0 84 21 139 77 200
85 95 210 125 331 79z"/>
<path d="M1333 3866 c-216 -175 -398 -405 -524 -661 -296 -602 -257 -1319 103
-1899 75 -120 275 -366 299 -366 4 0 10 13 14 30 8 37 71 134 118 181 20 20
59 52 86 70 28 18 51 34 51 36 0 2 -31 40 -70 84 -166 193 -275 409 -337 669
-37 158 -43 409 -14 580 35 204 115 414 222 580 76 117 234 292 333 368 l28
21 -45 52 c-55 63 -122 178 -149 258 -12 34 -24 61 -28 61 -5 0 -43 -29 -87
-64z"/>
<path d="M3765 3868 c-23 -75 -100 -201 -184 -298 -17 -19 -31 -38 -31 -41 0
-4 39 -44 86 -90 175 -171 313 -391 388 -621 59 -179 70 -258 71 -483 0 -174
-3 -214 -23 -304 -61 -270 -190 -524 -364 -715 -40 -44 -58 -71 -50 -74 27 -9
134 -105 167 -150 19 -26 44 -72 56 -102 12 -30 25 -59 29 -63 14 -16 211 218
307 365 474 722 397 1707 -184 2357 -65 74 -234 233 -252 239 -5 2 -12 -7 -16
-20z"/>
<path d="M1624 1121 c-95 -24 -179 -95 -225 -189 -20 -39 -24 -63 -24 -142 0
-84 3 -102 28 -152 16 -33 50 -77 81 -105 67 -61 137 -87 231 -86 138 1 247
69 307 191 28 57 33 76 33 142 -1 100 -26 169 -88 236 -67 74 -137 107 -236
110 -42 2 -90 0 -107 -5z"/>
<path d="M3294 1114 c-70 -22 -143 -79 -182 -144 -44 -73 -55 -121 -50 -207 6
-93 41 -166 112 -230 67 -61 137 -87 231 -86 139 1 247 69 307 191 29 58 33
77 33 142 0 46 -7 95 -19 128 -24 71 -108 162 -178 192 -68 30 -182 36 -254
14z"/>
<path d="M2484 859 c-63 -15 -145 -69 -186 -124 -80 -104 -91 -255 -28 -373
39 -74 83 -115 160 -151 79 -37 201 -37 281 1 79 36 133 89 171 165 28 57 32
75 31 141 -1 144 -67 253 -187 312 -70 34 -170 47 -242 29z"/>
</g>
</svg>
