<?xml version="1.0" standalone="no"?>
<!DOCTYPE svg PUBLIC "-//W3C//DTD SVG 20010904//EN"
 "http://www.w3.org/TR/2001/REC-SVG-20010904/DTD/svg10.dtd">
<svg version="1.0" xmlns="http://www.w3.org/2000/svg"
 width="512.000000pt" height="512.000000pt" viewBox="0 0 512.000000 512.000000"
 preserveAspectRatio="xMidYMid meet">
<metadata>
Created by potrace 1.15, written by Peter Selinger 2001-2017
</metadata>
<g transform="translate(0.000000,512.000000) scale(0.100000,-0.100000)"
fill="#ffffff" stroke="none">
<path d="M1775 4299 c-544 -46 -1066 -225 -1425 -489 -91 -66 -160 -128 -160
-143 0 -12 111 -127 123 -127 5 0 31 20 58 44 136 122 435 286 664 364 333
114 613 160 1011 169 498 11 949 -55 1494 -218 348 -105 690 -242 1062 -426
137 -67 251 -123 253 -123 5 0 97 162 93 164 -2 2 -79 42 -173 88 -695 349
-1370 575 -1980 662 -310 44 -737 59 -1020 35z"/>
<path d="M1670 3595 c-155 -22 -329 -61 -446 -100 -338 -113 -631 -333 -844
-633 -72 -102 -210 -333 -204 -344 4 -7 149 -88 158 -88 2 0 24 35 47 78 198
359 423 586 724 732 254 123 495 171 860 171 258 -1 464 -24 770 -88 267 -55
744 -199 1006 -303 56 -22 103 -39 104 -38 1 2 17 41 35 86 27 69 31 85 19 93
-24 15 -414 147 -633 215 -357 111 -564 159 -872 205 -186 27 -573 35 -724 14z"/>
<path d="M3615 2642 c-630 -316 -1230 -508 -1759 -562 -153 -16 -567 -7 -726
15 -166 23 -434 79 -679 141 -118 30 -219 53 -225 51 -5 -2 -20 -42 -32 -89
l-21 -86 156 -40 c86 -22 191 -48 234 -58 42 -10 77 -21 77 -25 0 -8 -201
-132 -313 -193 -37 -20 -67 -40 -67 -43 0 -12 158 6 245 28 50 12 143 43 208
69 64 26 117 45 117 43 0 -2 -26 -36 -57 -76 -77 -97 -221 -245 -305 -314 -38
-31 -67 -58 -64 -60 6 -6 194 50 349 104 130 45 234 92 309 139 21 13 38 22
38 19 0 -21 -213 -306 -343 -460 -47 -55 -82 -101 -77 -103 15 -6 189 76 261
123 136 88 192 133 388 318 46 43 85 76 87 74 13 -12 -35 -207 -90 -369 -35
-104 -60 -188 -56 -188 10 0 183 185 240 257 23 29 72 98 109 153 l68 99 6
-112 c4 -62 14 -152 22 -202 17 -97 100 -437 114 -470 8 -19 9 -19 15 5 25
106 86 570 86 661 0 31 3 71 6 88 6 31 7 30 65 -56 32 -49 91 -128 131 -176
108 -132 388 -401 402 -386 2 2 -21 47 -51 99 -114 195 -285 561 -270 576 2 2
48 -37 103 -87 214 -195 441 -377 636 -507 42 -29 82 -52 89 -52 6 0 -26 42
-73 93 -154 169 -290 341 -380 482 -75 118 -75 124 3 51 174 -161 333 -276
499 -360 109 -55 248 -112 256 -104 2 3 -22 23 -53 46 -85 59 -214 178 -300
273 -74 84 -228 299 -202 284 8 -5 52 -39 99 -75 228 -178 554 -370 763 -449
36 -14 35 0 -3 23 -60 35 -247 195 -323 276 -80 85 -178 211 -224 290 l-27 45
35 -27 c86 -69 302 -205 465 -296 273 -151 294 -162 307 -162 6 0 -20 28 -58
62 -212 189 -352 339 -430 463 l-38 59 39 -30 c71 -56 222 -141 334 -189 128
-54 309 -117 322 -113 5 2 -24 25 -64 52 -127 86 -245 184 -327 273 -44 48
-79 88 -78 90 2 1 43 -15 93 -36 49 -21 127 -51 174 -66 142 -45 380 -104 380
-94 0 5 -4 9 -9 9 -30 0 -451 304 -438 316 2 2 48 -5 103 -15 182 -35 588 -62
667 -44 37 8 33 10 -95 41 -191 48 -372 106 -453 146 l-70 35 125 0 c163 1
334 18 425 41 77 20 295 117 295 132 0 4 -19 5 -42 1 -24 -4 -162 -7 -308 -7
-216 -1 -279 3 -340 17 -135 31 -225 74 -304 147 l-41 38 -130 -66z"/>
</g>
</svg>
