<?xml version="1.0" standalone="no"?>
<!DOCTYPE svg PUBLIC "-//W3C//DTD SVG 20010904//EN"
 "http://www.w3.org/TR/2001/REC-SVG-20010904/DTD/svg10.dtd">
<svg version="1.0" xmlns="http://www.w3.org/2000/svg"
 width="512.000000pt" height="512.000000pt" viewBox="0 0 512.000000 512.000000"
 preserveAspectRatio="xMidYMid meet">
<metadata>
Created by potrace 1.15, written by Peter Selinger 2001-2017
</metadata>
<g transform="translate(0.000000,512.000000) scale(0.100000,-0.100000)"
fill="#ffffff" stroke="none">
<path d="M2290 4960 c-158 -43 -319 -144 -419 -265 -54 -64 -118 -195 -131
-264 -54 -292 113 -635 450 -925 161 -138 296 -232 533 -368 322 -185 508
-399 593 -683 24 -79 27 -107 28 -235 0 -166 -12 -224 -75 -359 -148 -318
-484 -511 -887 -511 -283 0 -528 165 -662 445 -53 111 -79 203 -87 310 -5 59
-2 78 15 112 25 48 88 105 153 138 160 82 404 69 484 -27 110 -131 -71 -320
-340 -354 -36 -4 -45 -8 -33 -15 36 -20 166 -39 271 -39 178 0 299 38 393 123
70 63 98 129 91 213 -10 135 -111 250 -292 335 -173 81 -361 99 -575 54 -537
-114 -878 -396 -992 -823 -29 -110 -36 -318 -14 -446 100 -585 579 -1059 1198
-1186 252 -52 556 -48 868 11 391 74 709 239 976 504 200 198 323 398 411 664
142 433 117 874 -72 1256 -88 178 -204 318 -414 501 -124 107 -167 150 -249
253 -148 184 -243 379 -272 563 -17 105 -8 291 19 392 22 84 92 240 143 319
17 26 28 50 25 54 -11 11 -147 -39 -208 -76 -177 -107 -294 -273 -355 -506
-23 -87 -27 -121 -28 -257 l-1 -157 -25 16 c-314 200 -531 449 -570 653 -29
154 6 278 109 380 81 81 185 125 345 145 58 8 52 17 -30 47 -87 31 -272 35
-374 8z"/>
<path d="M1412 4899 c-261 -46 -453 -213 -492 -428 -23 -128 18 -318 105 -491
232 -460 766 -795 1428 -894 50 -8 94 -12 96 -10 2 1 -48 27 -111 57 -479 226
-781 540 -963 1002 -96 244 -94 414 7 566 53 80 107 119 223 164 58 23 -193
52 -293 34z"/>
<path d="M1902 2966 c-46 -8 -85 -16 -88 -18 -2 -3 51 -11 118 -17 312 -32
569 -139 738 -310 119 -120 178 -230 200 -374 25 -168 -52 -313 -219 -410
-180 -106 -399 -129 -603 -64 -43 14 -78 21 -78 17 0 -16 119 -116 181 -153
110 -65 183 -82 344 -82 126 1 148 4 220 28 219 76 343 192 410 382 29 81 32
279 7 386 -36 151 -103 272 -209 376 -103 101 -242 175 -411 220 -87 23 -120
26 -312 29 -147 2 -241 -1 -298 -10z"/>
</g>
</svg>
