<?xml version="1.0" standalone="no"?>
<!DOCTYPE svg PUBLIC "-//W3C//DTD SVG 20010904//EN"
 "http://www.w3.org/TR/2001/REC-SVG-20010904/DTD/svg10.dtd">
<svg version="1.0" xmlns="http://www.w3.org/2000/svg"
 width="512.000000pt" height="512.000000pt" viewBox="0 0 512.000000 512.000000"
 preserveAspectRatio="xMidYMid meet">
<metadata>
Created by potrace 1.15, written by Peter Selinger 2001-2017
</metadata>
<g transform="translate(0.000000,512.000000) scale(0.100000,-0.100000)"
fill="#ffffff" stroke="none">
<path d="M343 4758 c84 -101 252 -300 372 -443 121 -143 264 -314 320 -380
324 -386 392 -466 505 -601 419 -498 549 -656 519 -629 -18 17 -38 35 -44 40
-24 21 -567 517 -759 694 -111 101 -221 203 -246 225 -25 23 -152 139 -282
259 -131 119 -240 217 -243 217 -12 0 -1 -15 73 -98 43 -48 208 -235 367 -417
1261 -1439 1174 -1345 1325 -1443 75 -50 149 -84 504 -235 131 -55 236 -122
318 -204 37 -37 67 -68 65 -69 -1 -1 -29 7 -62 19 -82 29 -284 31 -363 4 -131
-46 -148 -135 -43 -230 30 -27 36 -37 23 -37 -10 0 -42 -12 -70 -26 -126 -63
-140 -237 -29 -352 57 -59 62 -59 114 -2 25 28 68 62 94 76 55 27 157 54 209
54 34 0 33 -1 -28 -32 -125 -62 -218 -187 -229 -306 -11 -117 48 -211 167
-270 50 -24 65 -27 165 -27 104 0 121 4 205 39 11 4 25 -13 52 -62 104 -192
310 -329 533 -354 101 -12 249 5 360 40 l60 19 2 43 c1 23 4 53 7 67 9 33 82
111 127 133 l37 19 -36 -69 c-47 -91 -55 -170 -22 -205 59 -63 192 -72 295
-19 72 36 158 127 195 206 69 148 61 292 -23 393 l-24 29 24 71 c59 171 84
376 71 573 -24 358 -199 598 -462 634 l-73 11 8 36 c16 68 10 177 -12 238 -98
260 -564 312 -725 81 l-26 -36 -51 26 c-44 23 -64 27 -137 27 -77 0 -92 -3
-153 -33 -75 -37 -108 -77 -133 -158 -27 -91 -14 -181 42 -269 22 -35 18 -33
-31 19 -79 85 -170 213 -226 320 -55 104 -99 215 -99 250 l0 23 56 -29 c114
-57 258 -29 318 62 46 70 52 189 12 284 -22 53 -84 129 -132 162 -38 26 -42
33 -47 82 -12 111 -128 242 -215 242 -132 0 -208 -175 -141 -323 8 -18 7 -36
-5 -77 -9 -30 -16 -67 -16 -83 0 -30 0 -29 -37 19 -80 107 -121 151 -523 569
-83 86 -760 797 -967 1015 -39 41 -74 73 -76 70 -3 -3 80 -122 185 -265 648
-886 780 -1071 751 -1044 -15 14 -86 77 -158 140 -144 128 -1542 1367 -1619
1436 -26 24 -52 43 -58 43 -5 0 60 -82 145 -182z m3546 -2650 c23 -19 69 -49
103 -66 l60 -30 -148 5 c-116 4 -162 2 -208 -10 l-59 -16 41 42 c43 44 81 116
82 154 0 52 11 53 50 4 21 -26 56 -63 79 -83z m565 -380 c-17 -167 55 -325
185 -409 43 -28 43 -29 17 -29 -97 0 -189 58 -235 151 -27 54 -31 73 -31 140
0 50 6 94 17 121 17 44 42 88 49 88 3 0 2 -28 -2 -62z m-456 -57 c-55 -35 -91
-81 -112 -144 -31 -91 -11 -186 54 -259 l39 -45 -37 7 c-86 16 -146 72 -172
161 -14 47 -19 54 -55 66 -131 46 -292 18 -390 -68 -39 -35 -44 -25 -16 36 56
124 253 183 403 121 l57 -24 40 53 c54 71 142 123 210 125 21 0 18 -4 -21 -29z
m-547 -716 c17 -98 69 -169 154 -213 l40 -21 -48 -1 c-63 0 -104 18 -148 67
l-36 39 -34 -28 c-48 -40 -99 -52 -161 -38 -56 14 -53 21 12 39 64 19 117 77
165 186 34 77 40 86 43 60 1 -16 7 -57 13 -90z m961 -28 c40 -49 102 -85 179
-101 l62 -12 -32 -13 c-41 -18 -113 -16 -151 4 -24 12 -31 13 -34 3 -23 -73
-46 -116 -82 -153 -52 -54 -101 -79 -182 -95 -74 -15 -147 -3 -222 35 -50 26
-138 101 -105 90 83 -27 158 -37 245 -32 129 6 193 31 276 109 l64 60 -34 39
c-36 42 -56 97 -56 150 l1 34 21 -40 c11 -22 34 -57 50 -78z"/>
<path d="M2313 3996 c-25 -22 -28 -31 -27 -83 0 -72 28 -136 84 -197 67 -73
164 -106 220 -76 25 13 43 80 34 128 -10 56 -50 129 -97 176 -78 77 -161 98
-214 52z"/>
<path d="M1511 2008 c-70 -36 -86 -66 -86 -156 0 -69 4 -84 35 -141 44 -81
107 -152 183 -203 173 -117 371 -117 423 1 16 37 18 38 46 29 43 -15 126 -5
150 19 74 75 -12 243 -159 310 -46 21 -65 25 -113 20 -54 -5 -61 -3 -106 30
-142 103 -284 138 -373 91z"/>
</g>
</svg>
