<?xml version="1.0" standalone="no"?>
<!DOCTYPE svg PUBLIC "-//W3C//DTD SVG 20010904//EN"
 "http://www.w3.org/TR/2001/REC-SVG-20010904/DTD/svg10.dtd">
<svg version="1.0" xmlns="http://www.w3.org/2000/svg"
 width="512.000000pt" height="512.000000pt" viewBox="0 0 512.000000 512.000000"
 preserveAspectRatio="xMidYMid meet">
<metadata>
Created by potrace 1.15, written by Peter Selinger 2001-2017
</metadata>
<g transform="translate(0.000000,512.000000) scale(0.100000,-0.100000)"
fill="#ffffff" stroke="none">
<path d="M2537 4915 c-124 -34 -238 -150 -302 -306 -25 -63 -61 -216 -52 -225
2 -3 29 4 58 15 77 28 155 49 222 59 l57 9 0 -87 0 -86 -77 -17 c-42 -9 -117
-33 -165 -53 -101 -42 -101 -41 -67 -150 81 -263 281 -424 481 -385 154 31
288 162 352 346 13 39 27 85 31 103 l7 33 -96 44 c-60 29 -129 51 -186 63
l-90 17 0 88 c0 85 1 87 23 83 12 -3 54 -10 92 -17 39 -6 111 -27 161 -45 51
-19 95 -34 98 -34 3 0 3 19 0 43 -51 353 -290 573 -547 502z"/>
<path d="M2104 3724 c-117 -70 -132 -89 -512 -679 -39 -60 -76 -109 -82 -107
-7 2 -130 54 -274 117 -143 63 -285 119 -314 126 -122 26 -257 -44 -321 -166
-25 -48 -28 -132 -6 -179 36 -75 72 -96 545 -316 250 -117 469 -218 486 -226
l30 -13 185 244 c101 134 187 244 191 245 9 0 42 -73 73 -160 90 -253 38 -538
-143 -774 l-37 -48 -225 -3 c-246 -2 -353 -16 -492 -62 -323 -107 -363 -341
-102 -599 118 -116 212 -180 378 -259 434 -206 753 -292 1233 -331 160 -13
216 -21 293 -45 52 -16 263 -82 468 -146 205 -64 375 -113 378 -110 7 7 -202
517 -219 534 -7 6 -408 142 -892 302 -484 160 -885 293 -892 296 -14 5 36 165
51 165 6 0 168 -53 361 -117 l351 -116 356 119 356 120 23 -75 c13 -42 24 -80
24 -85 0 -5 -102 -43 -227 -85 -126 -42 -228 -80 -228 -86 0 -9 125 -52 712
-245 l228 -74 102 69 c143 96 294 248 339 339 37 77 49 162 29 220 -26 80
-128 162 -256 206 -139 48 -256 63 -504 65 l-235 2 -39 54 c-21 30 -59 96 -83
147 -105 219 -108 438 -8 685 17 43 34 79 37 80 4 1 81 -97 173 -218 92 -121
173 -227 181 -236 14 -16 30 -10 192 66 97 45 197 92 222 103 409 187 568 266
602 299 49 48 68 90 68 152 0 98 -53 179 -152 231 -55 30 -72 34 -133 34 -76
0 -46 11 -480 -177 l-170 -74 -47 71 c-25 39 -123 190 -217 336 -179 276 -227
335 -324 390 l-51 29 -82 -79 c-125 -120 -241 -171 -390 -171 -154 0 -279 57
-405 184 l-65 67 -60 -36z"/>
<path d="M1511 607 c-67 -156 -152 -369 -150 -372 2 -2 103 28 224 66 121 38
277 88 348 110 70 22 127 43 127 48 0 4 -25 13 -55 20 -82 18 -252 76 -371
126 l-105 44 -18 -42z"/>
</g>
</svg>
