<?xml version="1.0" standalone="no"?>
<!DOCTYPE svg PUBLIC "-//W3C//DTD SVG 20010904//EN"
 "http://www.w3.org/TR/2001/REC-SVG-20010904/DTD/svg10.dtd">
<svg version="1.0" xmlns="http://www.w3.org/2000/svg"
 width="512.000000pt" height="512.000000pt" viewBox="0 0 512.000000 512.000000"
 preserveAspectRatio="xMidYMid meet">
<metadata>
Created by potrace 1.15, written by Peter Selinger 2001-2017
</metadata>
<g transform="translate(0.000000,512.000000) scale(0.100000,-0.100000)"
fill="#ffffff" stroke="none">
<path d="M2315 4870 c-322 -59 -625 -252 -814 -517 -70 -98 -159 -273 -190
-376 -56 -184 -70 -414 -36 -609 93 -543 528 -977 1062 -1062 279 -44 565 -2
807 120 271 136 497 375 612 647 70 167 95 278 101 452 8 232 -25 411 -112
606 -85 188 -261 404 -427 522 -152 107 -355 191 -537 221 -128 22 -338 19
-466 -4z m92 -485 c-28 -85 -49 -156 -47 -158 5 -4 512 44 519 49 3 3 -13 74
-35 150 l-6 22 64 -18 63 -17 3 -96 3 -96 42 -5 c23 -3 77 -7 119 -10 l78 -4
-7 26 c-3 15 -14 55 -23 88 l-17 61 60 33 59 32 55 -53 c305 -299 411 -741
277 -1159 -13 -41 -28 -81 -33 -89 -6 -9 -58 -22 -138 -35 l-128 -22 -5 -160
-5 -160 -35 -30 c-50 -42 -111 -87 -114 -83 -1 2 -26 41 -55 87 -30 45 -54 82
-55 82 -8 0 -218 -59 -221 -62 -3 -2 9 -55 25 -118 23 -86 27 -115 18 -121
-55 -34 -374 -53 -498 -30 -202 39 -410 138 -543 261 l-51 47 67 7 c133 13
121 4 193 147 35 71 64 132 64 137 0 4 -94 54 -209 111 l-208 104 146 124 c80
68 147 127 149 131 3 11 -254 222 -270 222 -8 0 -67 -18 -133 -40 -65 -22
-120 -38 -123 -36 -2 2 4 42 12 88 50 266 189 496 403 669 93 74 83 89 112
-166 12 -99 24 -190 27 -203 5 -26 4 -28 286 280 84 92 156 167 160 167 3 1
-17 -69 -45 -154z"/>
<path d="M2783 3892 c-40 -26 -121 -78 -179 -116 l-108 -70 65 -59 c35 -33
108 -97 161 -144 l97 -84 107 30 c59 17 109 29 112 27 2 -3 -1 -62 -7 -132 -5
-71 -9 -129 -8 -130 1 -2 97 21 212 50 154 39 210 57 208 67 -1 14 -109 264
-138 318 l-15 30 -120 3 -120 3 105 88 c58 49 105 92 105 95 0 6 -369 73 -395
72 -5 0 -42 -22 -82 -48z"/>
<path d="M2390 3495 c-52 -23 -95 -44 -95 -47 0 -4 32 -29 70 -57 l70 -52 28
88 c15 48 26 93 25 99 -2 6 -43 -7 -98 -31z"/>
<path d="M1963 3425 c-35 -41 -63 -78 -63 -82 1 -11 368 -268 374 -262 2 2
-47 94 -110 204 -63 110 -114 203 -114 208 0 22 -32 -3 -87 -68z"/>
<path d="M2560 3288 c-39 -72 -69 -131 -68 -132 2 -1 26 -18 53 -38 154 -108
277 -189 281 -185 3 3 -17 36 -44 74 -27 37 -52 74 -56 80 -4 8 21 45 64 95
38 46 70 85 70 88 0 5 -21 19 -147 98 l-82 51 -71 -131z"/>
<path d="M535 3122 c-40 -25 -83 -106 -100 -191 -20 -92 -24 -674 -7 -776 31
-175 173 -574 297 -830 54 -113 143 -241 212 -307 58 -55 190 -146 269 -186
70 -34 71 -36 83 -86 22 -94 24 -167 6 -246 -28 -125 -30 -157 -10 -186 57
-87 312 -99 517 -24 241 88 338 286 325 660 -9 239 -47 407 -120 528 -37 62
-118 143 -235 237 -118 95 -125 106 -281 493 -74 185 -109 251 -181 339 -119
147 -234 158 -270 27 -36 -127 31 -450 155 -759 19 -48 35 -88 35 -91 0 -26
-164 59 -225 116 -162 154 -203 313 -224 860 -10 261 -20 313 -68 378 -46 61
-120 79 -178 44z"/>
<path d="M4455 3121 c-85 -52 -104 -115 -115 -380 -22 -491 -38 -599 -117
-756 -59 -116 -186 -222 -312 -260 -28 -9 -30 -17 32 150 97 265 141 449 142
595 0 88 -3 111 -21 140 -49 85 -120 76 -223 -29 -87 -89 -137 -180 -241 -440
-131 -327 -134 -332 -265 -437 -221 -175 -279 -272 -327 -544 -20 -117 -17
-439 5 -520 37 -137 113 -253 200 -303 161 -94 442 -126 564 -66 77 38 82 56
54 193 -25 120 -25 175 0 282 11 49 15 53 68 79 164 79 325 218 416 358 70
109 89 148 183 382 198 492 219 609 203 1095 -10 271 -18 322 -67 407 -41 70
-116 93 -179 54z"/>
</g>
</svg>
