<?xml version="1.0" standalone="no"?>
<!DOCTYPE svg PUBLIC "-//W3C//DTD SVG 20010904//EN"
 "http://www.w3.org/TR/2001/REC-SVG-20010904/DTD/svg10.dtd">
<svg version="1.0" xmlns="http://www.w3.org/2000/svg"
 width="512.000000pt" height="512.000000pt" viewBox="0 0 512.000000 512.000000"
 preserveAspectRatio="xMidYMid meet">
<metadata>
Created by potrace 1.15, written by Peter Selinger 2001-2017
</metadata>
<g transform="translate(0.000000,512.000000) scale(0.100000,-0.100000)"
fill="#ffffff" stroke="none">
<path d="M2355 4843 c-162 -107 -312 -193 -507 -290 -114 -57 -212 -103 -218
-103 -27 0 -47 -131 -57 -380 l-6 -156 174 -99 c145 -82 651 -388 712 -430 16
-11 10 -26 -72 -191 -121 -240 -211 -373 -384 -566 l-70 -77 -36 23 c-92 58
-406 224 -553 293 -182 84 -503 223 -560 242 -21 7 -38 17 -38 22 0 12 51 142
60 152 17 19 663 -277 955 -437 66 -36 123 -65 126 -64 13 6 108 126 171 218
36 52 91 144 123 204 47 87 55 110 44 117 -480 301 -859 508 -1159 632 -185
76 -176 75 -232 25 -117 -107 -293 -345 -418 -566 -57 -101 -56 -89 -26 -227
21 -93 21 -284 0 -383 -13 -62 -43 -147 -90 -258 -4 -8 90 -13 328 -17 329 -6
575 -21 838 -53 195 -23 382 -52 391 -61 16 -17 71 -223 91 -343 16 -98 21
-164 20 -305 -1 -99 -5 -207 -9 -240 l-8 -60 -620 0 c-341 0 -625 -3 -631 -7
-6 -4 -14 -55 -17 -115 -6 -105 -25 -194 -62 -298 l-18 -50 75 -150 c128 -255
266 -475 380 -608 l33 -38 155 69 c312 139 533 221 869 321 73 22 136 42 138
45 3 3 -9 55 -26 116 -96 345 -215 429 -527 375 -135 -24 -270 -60 -472 -127
-101 -33 -187 -57 -190 -53 -4 3 -19 40 -33 81 -18 51 -23 77 -15 80 6 2 99
34 206 70 554 186 813 190 1000 15 l52 -49 110 64 c118 69 293 188 304 206 4
7 26 68 50 137 109 326 278 601 567 925 l58 65 -118 235 -119 236 91 84 c130
120 179 161 280 236 138 102 379 250 390 238 8 -9 76 -150 73 -152 -2 -2 -34
-20 -73 -41 -145 -80 -391 -263 -494 -369 l-45 -46 74 -142 c128 -248 206
-374 291 -471 l34 -38 85 58 c47 32 139 96 205 142 208 145 701 453 827 517
25 13 49 27 52 32 14 23 -179 364 -291 515 -97 128 -258 291 -281 284 -9 -3
-51 -17 -92 -32 -116 -41 -290 -83 -392 -96 -87 -11 -365 -7 -413 6 -14 4 -42
-12 -94 -55 -149 -119 -286 -170 -456 -171 -220 0 -427 96 -684 317 -125 107
-254 241 -248 257 2 6 29 33 60 60 l57 50 114 -110 c262 -252 449 -367 641
-394 183 -25 356 61 544 269 l74 82 -59 63 c-142 150 -332 324 -544 498 -143
117 -373 289 -385 288 -5 0 -41 -21 -80 -46z"/>
<path d="M214 2249 c16 -207 73 -497 121 -612 18 -43 1 -41 210 -21 113 11
318 17 692 21 l533 5 0 143 c0 156 -10 253 -41 386 l-20 86 -182 22 c-352 42
-513 52 -916 58 l-404 6 7 -94z"/>
</g>
</svg>
