<?xml version="1.0" standalone="no"?>
<!DOCTYPE svg PUBLIC "-//W3C//DTD SVG 20010904//EN"
 "http://www.w3.org/TR/2001/REC-SVG-20010904/DTD/svg10.dtd">
<svg version="1.0" xmlns="http://www.w3.org/2000/svg"
 width="512.000000pt" height="512.000000pt" viewBox="0 0 512.000000 512.000000"
 preserveAspectRatio="xMidYMid meet">
<metadata>
Created by potrace 1.15, written by Peter Selinger 2001-2017
</metadata>
<g transform="translate(0.000000,512.000000) scale(0.100000,-0.100000)"
fill="#ffffff" stroke="none">
<path d="M3880 4804 c-168 -7 -339 -13 -380 -13 l-75 -1 -173 -191 c-96 -104
-178 -189 -183 -187 -5 2 -58 73 -117 158 l-109 155 -945 3 -946 2 -6 -202
c-4 -112 -15 -606 -26 -1098 -11 -492 -22 -971 -25 -1065 l-6 -170 262 -240
262 -240 116 -6 c64 -4 267 -7 452 -8 185 0 391 -4 457 -8 l122 -6 0 -82 0
-82 -472 4 -473 4 70 -65 c39 -36 75 -66 81 -66 6 0 312 -32 680 -70 981 -103
881 -97 1179 -76 142 9 261 14 265 9 5 -4 10 -43 12 -85 3 -78 3 -78 -22 -78
-14 0 -108 -7 -210 -15 -102 -8 -192 -15 -201 -15 -12 0 -18 -24 -28 -131 -6
-72 -11 -132 -9 -134 2 -1 136 -36 298 -79 162 -42 375 -97 472 -123 98 -25
179 -44 181 -42 1 2 1 455 -1 1005 l-4 1002 -126 57 c-70 31 -131 60 -135 64
-4 4 53 71 128 148 l135 141 0 879 c-1 483 -3 897 -7 921 l-6 42 -91 -1 c-50
-1 -228 -8 -396 -15z m-1078 -736 c2 -46 3 -84 3 -84 0 -1 -341 -5 -757 -9
l-758 -8 0 87 0 86 368 3 c202 1 541 3 754 5 l386 2 4 -82z m1202 36 c3 -26 6
-63 6 -84 l0 -37 -337 -6 c-186 -4 -397 -7 -469 -7 l-131 0 -2 85 -2 85 228 3
c125 1 334 3 464 5 l236 2 7 -46z m-804 -428 l0 -84 -207 -6 c-115 -3 -542 -9
-950 -12 l-743 -6 0 86 0 86 278 1 c244 2 1138 12 1495 17 l127 2 0 -84z m780
1 l0 -84 -257 -6 c-200 -6 -259 -4 -265 5 -4 7 -8 45 -8 85 l0 72 83 4 c45 1
164 4 265 5 l182 2 0 -83z m-2250 -422 l0 -85 -205 0 -205 0 0 88 0 87 205 -3
205 -3 0 -84z m2204 33 c3 -29 6 -67 6 -84 l0 -30 -532 -12 c-293 -7 -637 -15
-765 -19 l-231 -6 -4 86 -3 87 110 1 c61 1 313 7 560 13 248 7 540 14 651 14
l201 2 7 -52z m-1764 -53 l0 -85 -105 0 -105 0 0 85 0 85 105 0 105 0 0 -85z
m640 -368 l0 -84 -437 -6 c-240 -4 -584 -7 -765 -7 l-328 0 0 85 0 85 448 3
c246 1 590 3 765 5 l317 2 0 -83z m1150 -2 l0 -85 -445 0 -445 0 0 85 0 85
445 0 445 0 0 -85z m-1530 -455 l0 -90 -575 0 -575 0 0 90 0 90 575 0 575 0 0
-90z m1263 80 l247 0 0 -32 c0 -18 -3 -57 -6 -85 l-7 -53 -286 0 c-157 0 -451
3 -653 7 l-368 6 0 85 0 85 413 -6 c226 -4 523 -7 660 -7z m-2091 -482 c2 -46
2 -84 2 -86 -1 -2 -70 -6 -153 -9 l-151 -6 0 86 0 86 98 4 c53 1 120 4 149 5
l51 2 4 -82z m2340 0 c2 -46 2 -85 0 -88 -4 -5 -531 -25 -536 -19 -2 2 -6 41
-8 85 l-5 81 246 10 c135 5 258 10 273 11 26 2 26 2 30 -80z m-692 -31 l0 -84
-502 -6 c-277 -4 -614 -7 -750 -7 l-248 0 0 85 0 85 338 3 c185 1 523 3 750 5
l412 2 0 -83z m685 -378 c4 -44 5 -82 3 -85 -3 -2 -236 -6 -519 -9 -283 -3
-529 -8 -546 -10 l-33 -4 0 90 0 89 368 3 c202 1 446 3 543 5 l177 2 7 -81z"/>
<path d="M910 1828 l0 -115 177 -159 c98 -87 242 -216 320 -286 78 -71 144
-128 147 -128 2 0 17 36 31 81 l27 81 -23 23 c-13 12 -112 103 -219 200 -107
98 -244 224 -305 279 -60 56 -120 110 -132 120 l-23 19 0 -115z"/>
<path d="M1761 1209 c-25 -67 -44 -140 -38 -146 6 -5 1538 -144 1544 -139 1 0
4 33 8 73 7 70 7 72 -16 77 -13 3 -334 37 -714 76 -379 39 -709 73 -732 76
-38 6 -44 4 -52 -17z"/>
<path d="M3354 637 c-20 -54 -42 -143 -36 -148 4 -4 241 -64 527 -134 286 -70
526 -130 533 -132 9 -4 12 15 12 75 l0 80 -32 11 c-18 5 -175 47 -348 92 -173
45 -389 101 -480 125 -90 24 -166 44 -167 44 -2 0 -6 -6 -9 -13z"/>
</g>
</svg>
