<?xml version="1.0" standalone="no"?>
<!DOCTYPE svg PUBLIC "-//W3C//DTD SVG 20010904//EN"
 "http://www.w3.org/TR/2001/REC-SVG-20010904/DTD/svg10.dtd">
<svg version="1.0" xmlns="http://www.w3.org/2000/svg"
 width="512.000000pt" height="512.000000pt" viewBox="0 0 512.000000 512.000000"
 preserveAspectRatio="xMidYMid meet">
<metadata>
Created by potrace 1.15, written by Peter Selinger 2001-2017
</metadata>
<g transform="translate(0.000000,512.000000) scale(0.100000,-0.100000)"
fill="#ffffff" stroke="none">
<path d="M3760 4351 c0 -5 7 -26 16 -47 11 -26 15 -57 12 -98 -4 -57 -7 -62
-56 -107 -100 -91 -300 -139 -812 -194 -324 -34 -647 -87 -833 -135 -122 -31
-313 -98 -386 -135 l-44 -22 114 -6 c63 -4 186 -7 274 -7 581 0 1238 -84 1580
-201 131 -45 339 -150 418 -210 131 -100 242 -262 283 -414 22 -82 30 -284 15
-371 -83 -477 -583 -747 -1556 -843 -254 -26 -536 -41 -740 -41 -88 0 -211 -3
-274 -7 l-114 -6 39 -20 c198 -102 608 -200 1054 -252 380 -45 623 -78 702
-96 174 -38 286 -97 323 -170 19 -36 19 -97 -1 -155 -8 -25 -13 -49 -10 -52
16 -16 241 55 349 110 436 221 762 788 838 1458 16 141 6 451 -20 595 -111
636 -413 1119 -828 1329 -73 36 -175 74 -250 91 -74 17 -93 18 -93 6z"/>
<path d="M2469 3284 c-575 -59 -1347 -286 -2054 -602 -221 -99 -255 -115 -255
-122 0 -4 102 -53 227 -108 734 -325 1386 -525 1963 -603 221 -30 629 -37 800
-15 476 63 773 242 883 532 19 51 22 78 21 194 0 121 -3 142 -27 202 -112 288
-424 469 -907 528 -115 14 -496 11 -651 -6z"/>
</g>
</svg>
