<?xml version="1.0" standalone="no"?>
<!DOCTYPE svg PUBLIC "-//W3C//DTD SVG 20010904//EN"
 "http://www.w3.org/TR/2001/REC-SVG-20010904/DTD/svg10.dtd">
<svg version="1.0" xmlns="http://www.w3.org/2000/svg"
 width="512.000000pt" height="512.000000pt" viewBox="0 0 512.000000 512.000000"
 preserveAspectRatio="xMidYMid meet">
<metadata>
Created by potrace 1.15, written by Peter Selinger 2001-2017
</metadata>
<g transform="translate(0.000000,512.000000) scale(0.100000,-0.100000)"
fill="#ffffff" stroke="none">
<path d="M632 4648 c3 -51 7 -116 7 -144 l1 -50 -122 -49 c-68 -26 -127 -51
-132 -56 -8 -7 5 -12 134 -44 36 -9 81 -20 101 -26 l37 -9 7 -140 c4 -77 11
-140 15 -140 4 0 41 53 81 118 l73 119 134 -34 c74 -19 137 -32 139 -29 3 3
-32 49 -77 103 -45 54 -84 103 -87 110 -3 7 25 59 61 117 37 58 69 113 72 121
7 16 -29 5 -185 -59 -36 -14 -68 -26 -72 -26 -4 0 -47 47 -95 105 -49 58 -91
105 -94 105 -3 0 -2 -42 2 -92z"/>
<path d="M4111 4661 l-43 -78 -86 18 c-48 9 -89 16 -91 14 -2 -2 24 -34 58
-71 l61 -67 -19 -31 c-51 -86 -72 -126 -66 -126 4 0 42 16 85 35 l78 35 67
-67 c62 -64 66 -66 61 -38 -3 17 -8 58 -11 92 l-7 62 82 37 c44 20 77 40 73
44 -4 4 -37 13 -73 19 -104 19 -97 12 -105 106 -4 47 -10 87 -14 89 -4 3 -26
-30 -50 -73z"/>
<path d="M2105 4439 c39 -4 149 -15 245 -24 764 -72 1298 -199 1384 -330 35
-53 9 -130 -72 -218 -220 -235 -834 -431 -1652 -528 -242 -29 -733 -32 -901
-6 -107 16 -200 46 -207 65 -5 16 89 26 254 26 l151 1 76 65 c41 36 76 68 76
71 3 23 -440 25 -547 3 -135 -28 -182 -66 -182 -148 0 -114 89 -181 297 -223
120 -24 538 -24 768 1 441 47 886 135 1205 239 412 135 703 313 787 482 23 46
35 122 24 162 -41 150 -390 259 -1046 327 -197 21 -581 46 -664 45 l-66 -2 70
-8z"/>
<path d="M4160 3941 c0 -7 14 -66 30 -131 17 -65 30 -125 30 -132 0 -7 -52
-44 -115 -83 -63 -38 -114 -73 -115 -77 0 -3 35 -9 78 -12 210 -17 201 -15
209 -44 3 -15 18 -73 32 -129 14 -57 30 -103 35 -104 5 0 32 55 59 123 28 68
51 124 51 125 1 0 59 -3 130 -8 71 -6 135 -9 144 -7 9 2 -27 39 -91 93 -59 50
-107 93 -107 97 0 4 23 65 50 134 28 70 49 128 48 130 -2 1 -42 -21 -88 -50
-47 -28 -101 -62 -122 -74 l-36 -23 -64 54 c-124 104 -158 129 -158 118z"/>
<path d="M1960 3600 c-115 -24 -320 -109 -320 -132 0 -5 26 -7 58 -3 31 3 118
10 192 16 141 11 523 63 575 78 l30 8 -28 12 c-105 41 -362 52 -507 21z"/>
<path d="M2880 3243 c-145 -43 -328 -84 -540 -122 -359 -64 -589 -89 -893 -98
l-218 -6 -28 -56 c-42 -84 -94 -238 -87 -257 6 -15 74 -16 849 -11 463 3 912
10 997 16 220 15 423 32 438 36 35 12 -148 277 -309 449 -34 37 -69 70 -78 75
-9 4 -63 -7 -131 -26z"/>
<path d="M3260 3234 c0 -3 22 -31 48 -62 27 -31 63 -78 81 -103 30 -43 37 -47
159 -88 161 -55 354 -148 412 -201 43 -38 44 -40 26 -55 -108 -84 -569 -149
-1241 -175 -226 -9 -1578 -13 -1980 -6 l-60 1 -3 -82 -3 -82 148 -3 c81 -3
560 -4 1063 -3 743 2 958 5 1145 19 674 48 987 119 1081 242 35 46 44 126 20
173 -73 139 -345 281 -775 402 -109 30 -121 33 -121 23z"/>
<path d="M3469 2279 c-102 -15 -440 -39 -704 -49 -283 -12 -1563 -15 -1659 -4
l-59 7 6 -119 c25 -489 246 -996 574 -1315 118 -116 155 -147 243 -206 394
-264 861 -284 1217 -51 386 252 610 797 564 1370 -10 121 -37 295 -57 361 -6
19 -31 20 -125 6z m-591 -216 c37 -20 69 -38 71 -40 2 -1 -8 -25 -22 -52 -15
-27 -27 -53 -27 -58 0 -5 29 -27 65 -48 35 -20 63 -40 61 -44 -25 -50 -80
-131 -88 -131 -5 0 -37 16 -70 36 -67 38 -63 40 -99 -28 -10 -21 -22 -38 -25
-38 -3 0 -37 19 -75 41 l-69 42 30 53 30 54 -52 33 c-29 19 -61 38 -70 43 -16
9 -13 16 24 79 23 39 42 72 44 74 2 2 19 -6 38 -18 20 -11 51 -30 69 -41 l34
-20 27 50 c15 28 30 50 32 50 3 0 36 -17 72 -37z m-963 -268 c28 -16 51 -29
52 -30 2 -1 -11 -27 -27 -58 l-31 -56 70 -41 70 -42 -42 -68 c-23 -38 -46 -70
-51 -70 -4 0 -34 16 -66 35 -32 19 -60 35 -64 35 -3 0 -18 -22 -34 -49 l-28
-50 -72 40 c-40 22 -72 43 -72 46 0 3 12 26 26 50 14 25 23 50 21 57 -3 8 -32
28 -64 46 -32 19 -60 34 -61 36 -5 3 79 144 85 144 3 0 32 -16 64 -35 33 -19
63 -35 67 -35 4 0 21 22 37 50 27 46 31 49 50 36 11 -7 43 -25 70 -41z"/>
</g>
</svg>
