<?xml version="1.0" standalone="no"?>
<!DOCTYPE svg PUBLIC "-//W3C//DTD SVG 20010904//EN"
 "http://www.w3.org/TR/2001/REC-SVG-20010904/DTD/svg10.dtd">
<svg version="1.0" xmlns="http://www.w3.org/2000/svg"
 width="512.000000pt" height="512.000000pt" viewBox="0 0 512.000000 512.000000"
 preserveAspectRatio="xMidYMid meet">
<metadata>
Created by potrace 1.15, written by Peter Selinger 2001-2017
</metadata>
<g transform="translate(0.000000,512.000000) scale(0.100000,-0.100000)"
fill="#ffffff" stroke="none">
<path d="M830 4728 c-110 -139 -208 -288 -282 -432 l-61 -120 29 -24 c16 -13
63 -57 104 -96 41 -40 257 -243 480 -451 223 -209 441 -414 485 -457 l79 -77
-54 -59 c-30 -33 -58 -60 -61 -61 -4 0 -257 234 -564 522 -306 287 -560 523
-564 525 -11 4 -76 -198 -115 -358 -30 -122 -81 -420 -73 -425 6 -5 740 -377
934 -474 l222 -111 -22 -47 c-13 -27 -31 -62 -40 -80 l-17 -32 -253 128 c-138
71 -382 195 -542 275 l-290 147 -3 -158 c-2 -87 2 -213 8 -280 12 -133 37
-313 45 -321 2 -3 230 -23 506 -46 l501 -40 -6 -29 c-3 -16 -6 -50 -6 -76 0
-25 -4 -51 -8 -58 -6 -9 -118 -3 -477 26 -259 22 -471 38 -473 36 -5 -4 78
-282 111 -375 33 -88 75 -191 81 -197 1 -2 74 11 162 27 87 17 209 40 269 51
61 11 168 31 238 45 71 14 131 23 134 20 6 -6 32 -129 33 -153 0 -6 -8 -14
-17 -17 -18 -5 -335 -66 -583 -112 -74 -14 -141 -27 -148 -29 -9 -3 -5 -19 14
-57 45 -89 115 -209 177 -303 79 -119 90 -134 101 -135 9 0 98 49 404 222 105
60 196 107 201 103 5 -3 26 -35 47 -72 44 -79 58 -61 -136 -170 -74 -42 -193
-109 -263 -149 -71 -40 -134 -75 -140 -77 -7 -2 19 -39 58 -81 93 -104 324
-326 338 -326 10 1 150 161 169 193 3 7 11 56 18 109 15 131 53 266 97 352 46
89 164 210 245 251 32 17 58 34 58 38 0 5 -15 35 -34 67 -155 264 -233 637
-197 936 36 292 158 558 340 740 l71 70 -351 510 c-193 280 -468 681 -612 891
-144 210 -267 382 -273 382 -6 1 -48 -45 -94 -101z"/>
<path d="M3612 3939 l-613 -890 81 -86 c220 -232 331 -525 332 -878 1 -208
-25 -364 -94 -555 -26 -75 -94 -213 -135 -276 -13 -21 -11 -23 42 -50 124 -63
231 -192 280 -339 26 -76 55 -239 55 -307 0 -32 13 -52 95 -150 53 -62 101
-114 108 -116 24 -5 397 368 397 397 0 4 -130 81 -290 171 l-289 163 25 41
c14 23 33 56 41 74 9 17 20 32 23 32 6 0 205 -110 495 -274 55 -31 104 -56
110 -56 32 2 318 486 292 495 -7 2 -75 16 -152 30 -302 55 -584 111 -591 118
-9 8 16 156 27 163 5 3 66 -6 137 -20 70 -14 237 -46 372 -71 135 -25 257 -48
271 -51 25 -5 28 -1 78 130 52 139 131 395 131 427 0 16 -6 18 -42 14 -68 -9
-901 -75 -903 -72 -2 1 -5 41 -9 88 l-7 86 98 7 c381 27 895 74 903 82 19 19
51 320 57 537 3 119 3 217 0 217 -4 0 -251 -124 -550 -275 l-543 -274 -37 75
c-21 42 -35 79 -32 82 3 4 261 136 573 294 522 264 567 289 570 314 5 41 -36
284 -75 438 -33 134 -88 303 -102 318 -6 7 -108 -85 -336 -301 -44 -42 -116
-110 -160 -151 -44 -41 -116 -108 -160 -150 -127 -120 -376 -352 -423 -395
-24 -22 -49 -40 -54 -40 -6 0 -34 27 -63 60 l-52 60 589 553 589 553 -57 107
c-66 125 -136 237 -213 342 -77 106 -154 199 -166 199 -5 1 -286 -400 -623
-890z"/>
<path d="M2425 2192 c-112 -53 -207 -183 -251 -343 -28 -102 -24 -282 9 -384
49 -149 137 -263 243 -316 71 -34 198 -34 269 0 170 83 286 324 271 561 -10
163 -60 290 -154 392 -78 84 -150 118 -252 118 -62 0 -86 -5 -135 -28z"/>
<path d="M2895 1059 c-113 -94 -241 -137 -378 -126 -95 7 -185 44 -276 114
l-74 56 -69 -22 c-38 -12 -97 -41 -130 -65 -148 -101 -208 -275 -224 -653 l-7
-153 828 0 828 0 -7 173 c-17 419 -62 551 -224 659 -28 19 -173 69 -195 67 -7
0 -39 -23 -72 -50z"/>
</g>
</svg>
