<?xml version="1.0" standalone="no"?>
<!DOCTYPE svg PUBLIC "-//W3C//DTD SVG 20010904//EN"
 "http://www.w3.org/TR/2001/REC-SVG-20010904/DTD/svg10.dtd">
<svg version="1.0" xmlns="http://www.w3.org/2000/svg"
 width="512.000000pt" height="512.000000pt" viewBox="0 0 512.000000 512.000000"
 preserveAspectRatio="xMidYMid meet">
<metadata>
Created by potrace 1.15, written by Peter Selinger 2001-2017
</metadata>
<g transform="translate(0.000000,512.000000) scale(0.100000,-0.100000)"
fill="#ffffff" stroke="none">
<path d="M530 4933 c0 -5 46 -28 103 -53 415 -180 1010 -479 1425 -717 291
-166 329 -190 630 -390 525 -350 852 -619 1245 -1021 90 -92 236 -256 297
-332 l28 -35 -60 -75 c-544 -676 -1484 -1398 -2578 -1980 -96 -51 -197 -106
-225 -121 l-50 -29 209 0 209 0 86 47 c560 305 1176 718 1624 1089 93 76 185
153 205 169 l37 30 -45 -55 c-302 -372 -775 -828 -1228 -1183 l-124 -97 162 0
162 0 111 92 c737 607 1331 1304 1699 1996 l61 115 -32 63 c-351 678 -901
1332 -1626 1936 -168 139 -415 327 -612 466 l-131 92 -171 0 c-94 0 -171 -3
-171 -7 0 -5 42 -35 93 -68 334 -217 782 -554 1023 -770 6 -5 49 -44 95 -85
198 -176 487 -473 680 -700 l64 -75 -100 86 c-339 292 -793 615 -1258 893
-318 191 -552 317 -987 534 l-375 187 -237 3 c-131 2 -238 -1 -238 -5z"/>
<path d="M3445 4883 c371 -349 568 -575 769 -881 348 -532 536 -1170 512
-1733 -30 -707 -305 -1338 -849 -1946 l-128 -143 135 0 134 0 64 73 c126 142
251 312 405 553 45 70 -132 -377 -213 -538 l-44 -88 114 0 113 0 76 178 c214
502 338 1006 388 1577 19 205 16 692 -5 905 -53 543 -163 1012 -353 1495 -50
130 -226 499 -272 573 l-21 32 -111 0 c-87 0 -110 -3 -106 -13 3 -7 28 -53 56
-102 122 -210 271 -545 357 -799 19 -55 34 -102 34 -105 0 -2 -23 34 -51 80
-176 289 -382 550 -634 804 l-135 135 -147 0 -148 0 60 -57z"/>
<path d="M192 4023 l3 -98 90 -2 c750 -18 1521 -243 2215 -645 155 -90 350
-214 350 -223 0 -3 -39 15 -87 39 -127 63 -346 156 -508 214 -628 226 -1233
344 -1884 368 l-181 7 0 -100 0 -100 198 -6 c1068 -34 2138 -384 3070 -1005
78 -52 142 -96 142 -98 0 -6 -353 -237 -480 -314 -74 -45 -251 -139 -392 -210
-769 -384 -1543 -587 -2360 -617 l-178 -6 0 -99 0 -98 48 0 c26 0 125 5 220
10 800 47 1491 223 2245 573 42 20 77 35 77 32 0 -2 -38 -29 -85 -60 -732
-482 -1568 -766 -2332 -792 l-173 -6 0 -99 0 -98 58 0 c189 0 544 39 772 86
738 149 1445 477 2120 983 228 171 437 350 684 588 l140 133 -50 51 c-141 146
-451 418 -654 576 -456 354 -1005 660 -1500 835 -473 168 -1051 277 -1468 278
l-103 0 3 -97z"/>
<path d="M360 2360 l0 -400 115 0 115 0 0 400 0 400 -115 0 -115 0 0 -400z"/>
<path d="M770 2360 l0 -400 515 0 515 0 0 400 0 400 -515 0 -515 0 0 -400z"/>
<path d="M2000 2355 l0 -405 48 0 c302 1 711 104 982 248 100 53 270 156 270
164 0 9 -107 75 -220 136 -292 157 -698 262 -1011 262 l-69 0 0 -405z"/>
</g>
</svg>
