<?xml version="1.0" standalone="no"?>
<!DOCTYPE svg PUBLIC "-//W3C//DTD SVG 20010904//EN"
 "http://www.w3.org/TR/2001/REC-SVG-20010904/DTD/svg10.dtd">
<svg version="1.0" xmlns="http://www.w3.org/2000/svg"
 width="512.000000pt" height="512.000000pt" viewBox="0 0 512.000000 512.000000"
 preserveAspectRatio="xMidYMid meet">
<metadata>
Created by potrace 1.15, written by Peter Selinger 2001-2017
</metadata>
<g transform="translate(0.000000,512.000000) scale(0.100000,-0.100000)"
fill="#ffffff" stroke="none">
<path d="M3015 4660 c-258 -38 -653 -231 -960 -467 -84 -65 -252 -229 -305
-298 -74 -96 -170 -279 -170 -323 0 -17 223 -27 605 -27 301 1 392 4 490 18
163 25 282 51 397 89 93 30 97 33 103 65 16 86 -41 168 -282 414 l-193 196
152 6 c162 6 215 15 281 47 22 11 41 19 42 17 11 -24 89 -135 124 -176 96
-114 303 -248 410 -266 l38 -6 5 -102 c6 -117 31 -196 100 -312 53 -88 175
-210 253 -252 93 -49 202 -61 255 -28 22 14 40 73 40 133 0 180 -136 389 -309
475 -40 20 -82 37 -93 37 -14 0 -26 16 -45 58 -105 237 -150 303 -280 417 -94
83 -168 125 -220 125 -26 0 -44 11 -85 53 -98 97 -203 129 -353 107z"/>
<path d="M535 3953 c3 -21 9 -63 13 -94 l9 -56 -89 5 c-84 5 -91 3 -150 -27
-76 -38 -108 -61 -91 -68 40 -15 241 -160 242 -175 1 -3 -49 -51 -111 -105
l-112 -98 115 -3 c109 -3 203 7 280 30 34 10 40 18 117 180 l81 169 -20 65
c-34 110 -119 179 -257 209 l-33 7 6 -39z"/>
<path d="M890 3469 c-40 -78 -68 -144 -63 -148 4 -4 37 -28 73 -53 36 -26 85
-67 110 -92 24 -25 49 -46 56 -46 12 0 254 302 254 318 0 20 -301 162 -345
162 -8 0 -44 -60 -85 -141z"/>
<path d="M3105 3504 c-212 -79 -671 -133 -1022 -121 -90 4 -163 4 -163 2 0 -3
64 -37 143 -76 78 -39 143 -73 145 -74 12 -11 -81 -156 -149 -235 -199 -230
-355 -443 -421 -575 -31 -60 -80 -196 -74 -202 7 -7 207 48 301 84 204 77 363
182 526 346 84 84 108 115 114 143 8 45 -2 56 -68 78 -68 23 -85 20 -132 -19
l-43 -35 -47 58 -47 57 43 37 c24 21 52 41 61 44 10 3 23 27 32 58 30 102 115
185 257 250 109 50 116 51 125 24 19 -61 -9 -156 -85 -288 -37 -65 -38 -69
-22 -84 25 -23 33 -21 190 29 202 65 541 206 541 224 -1 13 -148 285 -156 287
-5 2 -27 -4 -49 -12z"/>
<path d="M1357 3245 c-75 -96 -137 -179 -137 -184 0 -12 149 -84 228 -111 73
-24 207 -56 272 -64 l45 -6 78 95 c42 52 77 99 77 103 0 5 -10 17 -21 28 -31
27 -69 113 -69 154 0 19 5 55 11 79 5 24 8 46 5 48 -2 2 -62 8 -132 13 -71 5
-149 12 -174 15 l-46 5 -137 -175z"/>
<path d="M3359 3080 c-115 -59 -349 -154 -514 -209 -93 -31 -176 -60 -182 -64
-7 -5 -13 -25 -13 -46 0 -40 -31 -92 -85 -141 -15 -14 -31 -33 -37 -44 -10
-18 -7 -18 58 -11 187 20 347 83 525 208 l106 74 -75 -299 -75 -298 -76 -62
c-95 -77 -211 -132 -321 -154 -68 -14 -119 -16 -270 -11 -245 8 -355 34 -470
112 l-35 23 -89 -29 c-99 -33 -273 -74 -355 -85 l-54 -7 6 109 c8 162 61 302
187 493 68 103 67 105 -9 116 -107 16 -318 99 -457 181 l-32 18 -53 -46 c-79
-67 -264 -247 -258 -251 2 -3 40 0 83 6 56 7 98 7 139 -1 61 -12 187 -65 187
-79 0 -5 -34 -42 -76 -83 -128 -126 -217 -256 -260 -378 -12 -37 -21 -68 -20
-70 2 -2 40 21 83 51 90 61 283 143 283 119 0 -5 -27 -83 -61 -173 -89 -239
-110 -327 -92 -376 8 -21 14 -17 104 62 l97 84 16 -132 c32 -254 38 -292 49
-320 l12 -27 134 150 c74 82 137 148 139 146 2 -3 -9 -67 -24 -143 -38 -188
-41 -390 -6 -501 12 -40 26 -70 31 -68 5 3 64 84 132 180 68 96 127 172 130
168 3 -4 20 -59 38 -122 60 -216 125 -313 227 -344 19 -6 22 -2 26 51 16 174
104 263 246 250 128 -11 216 -97 327 -316 20 -42 40 -70 45 -65 5 5 21 50 36
99 24 77 28 108 28 217 1 109 3 127 16 124 8 -3 35 -8 60 -12 25 -3 62 -13 84
-20 l39 -14 77 74 c93 89 174 131 291 152 92 16 141 12 208 -17 24 -11 46 -18
48 -16 11 11 13 167 4 251 -15 128 -43 237 -93 359 -22 54 -38 100 -35 103 7
8 149 8 195 0 l43 -8 -24 64 c-56 146 -128 259 -268 417 l-83 94 118 -6 c86
-5 139 -14 193 -32 42 -14 77 -24 79 -23 6 7 -84 185 -134 266 -53 86 -188
266 -219 294 -17 15 -22 14 -74 -12z"/>
<path d="M3853 2833 c-18 -2 -33 -6 -33 -9 0 -2 23 -50 51 -107 52 -102 121
-296 134 -373 5 -36 14 -46 65 -82 33 -23 63 -42 68 -42 5 0 17 9 27 20 28 31
169 118 240 149 l65 27 -103 125 c-193 231 -272 288 -410 294 -39 2 -87 1
-104 -2z"/>
<path d="M2859 2474 c-116 -40 -231 -61 -405 -74 l-131 -9 -80 -53 c-43 -29
-100 -64 -126 -78 -26 -14 -47 -28 -47 -32 0 -12 98 -37 190 -48 121 -14 313
-12 395 5 89 19 177 62 237 117 42 39 48 51 66 126 13 55 16 82 8 81 -6 -1
-54 -17 -107 -35z"/>
<path d="M4526 2275 c-160 -57 -309 -164 -348 -249 -20 -44 -23 -67 -22 -166
0 -109 22 -232 44 -245 4 -3 22 32 40 78 18 45 43 98 55 117 30 48 115 124
126 113 5 -5 39 -60 77 -123 37 -63 72 -115 77 -114 17 2 54 76 66 132 9 40
10 76 2 145 -6 51 -9 94 -7 96 1 2 60 -27 129 -64 70 -36 129 -64 132 -61 11
10 -50 167 -87 224 -41 64 -84 102 -143 127 -48 20 -59 19 -141 -10z"/>
<path d="M1101 1253 c-118 -70 -228 -203 -219 -265 7 -50 194 -83 333 -59 64
11 75 17 128 67 l58 54 -7 66 -7 67 -48 -50 -48 -51 -45 77 c-25 42 -49 88
-55 104 -6 15 -14 27 -18 27 -5 0 -37 -17 -72 -37z"/>
<path d="M3370 1191 c-72 -22 -188 -107 -162 -117 29 -13 112 -85 128 -114 10
-16 22 -30 27 -30 16 0 312 92 319 99 14 12 -75 134 -112 153 -36 19 -150 24
-200 9z"/>
<path d="M3590 840 l-185 -58 -3 -84 -3 -85 69 -31 c163 -75 299 -102 423 -84
74 11 197 47 212 62 12 11 -14 57 -65 117 -58 68 -232 223 -249 222 -8 0 -97
-27 -199 -59z"/>
<path d="M719 811 c-129 -46 -198 -100 -286 -224 l-33 -45 40 -16 c67 -27 191
-56 287 -68 150 -18 306 13 400 81 36 26 39 33 57 116 10 49 20 94 23 102 4
10 -14 13 -86 13 -97 0 -206 20 -279 51 -24 11 -44 19 -45 18 -1 0 -36 -12
-78 -28z"/>
</g>
</svg>
