<?xml version="1.0" standalone="no"?>
<!DOCTYPE svg PUBLIC "-//W3C//DTD SVG 20010904//EN"
 "http://www.w3.org/TR/2001/REC-SVG-20010904/DTD/svg10.dtd">
<svg version="1.0" xmlns="http://www.w3.org/2000/svg"
 width="512.000000pt" height="512.000000pt" viewBox="0 0 512.000000 512.000000"
 preserveAspectRatio="xMidYMid meet">
<metadata>
Created by potrace 1.15, written by Peter Selinger 2001-2017
</metadata>
<g transform="translate(0.000000,512.000000) scale(0.100000,-0.100000)"
fill="#ffffff" stroke="none">
<path d="M1279 4588 c-272 -154 -496 -283 -499 -285 -2 -2 119 -127 270 -277
l275 -272 380 -74 c209 -41 382 -75 383 -76 4 -3 -26 -156 -32 -161 -1 -2
-146 26 -322 61 -175 35 -321 63 -323 61 -2 -2 58 -186 132 -409 l135 -406
-76 -24 c-43 -13 -80 -21 -83 -18 -4 4 -75 214 -159 467 l-152 460 -224 225
c-123 123 -226 221 -229 218 -4 -4 5 -137 20 -296 l26 -289 -151 -544 c-83
-299 -169 -607 -191 -685 -21 -77 -39 -144 -39 -147 0 -4 127 -102 283 -218
155 -116 286 -215 291 -220 9 -8 -15 -49 -67 -113 l-23 -29 -223 167 c-123 92
-225 166 -227 164 -2 -3 55 -299 127 -659 l131 -654 370 -58 c204 -31 372 -56
373 -55 3 3 -142 375 -164 423 -5 11 -27 65 -48 120 l-40 101 72 27 c40 15 75
27 79 27 4 0 16 -20 27 -45 l20 -45 114 0 c95 0 188 12 564 75 248 41 464 75
481 75 17 0 233 -34 481 -75 366 -61 470 -75 558 -75 l109 0 23 121 23 120 36
-6 c87 -16 130 -27 130 -34 0 -4 -31 -164 -70 -356 -38 -192 -68 -350 -66
-353 10 -9 618 164 625 178 5 8 74 281 156 607 l147 592 -151 454 -152 455
-295 221 -294 221 -456 -76 c-362 -60 -458 -73 -464 -63 -7 10 -23 107 -25
143 0 6 203 44 450 85 l450 76 71 210 c80 235 64 218 171 184 l61 -20 -69
-207 c-55 -165 -66 -209 -56 -219 37 -36 453 -341 458 -335 3 4 34 237 68 517
35 281 65 518 67 527 4 14 -79 59 -443 241 l-448 224 -427 72 c-235 39 -435
71 -445 71 -14 0 -53 -69 -158 -281 -77 -154 -143 -283 -147 -285 -8 -5 -148
63 -148 71 0 3 59 123 131 266 71 144 129 262 127 264 -2 2 -801 135 -812 135
-2 0 -225 -127 -497 -282z m307 -2073 c330 -69 667 -140 749 -156 l150 -31
824 156 c453 86 826 155 827 153 9 -9 33 -152 27 -158 -5 -3 -82 -21 -172 -38
-90 -17 -166 -33 -169 -36 -3 -2 12 -21 33 -42 73 -74 99 -171 71 -268 -47
-160 -202 -281 -389 -305 -117 -14 -245 23 -307 91 -21 24 -30 29 -34 18 -2
-8 -22 -115 -45 -238 -22 -122 -42 -225 -44 -228 -6 -5 -1088 85 -1095 91 -2
3 -17 70 -33 148 -16 79 -34 167 -40 196 l-11 53 -43 -40 c-84 -78 -179 -106
-302 -91 -185 23 -341 144 -387 300 -20 67 -20 93 0 159 10 36 30 69 60 102
l45 48 -33 9 c-18 5 -97 22 -176 38 l-143 29 6 35 c13 68 27 130 30 130 1 0
272 -56 601 -125z"/>
<path d="M1437 2276 c-50 -18 -64 -31 -77 -72 -9 -26 -9 -43 1 -71 14 -42 79
-116 120 -137 l29 -14 0 154 c0 172 3 167 -73 140z"/>
<path d="M3610 2137 l0 -155 29 14 c43 22 108 97 121 141 23 74 -21 131 -113
148 l-37 7 0 -155z"/>
<path d="M2778 2210 l-297 -58 -216 46 c-118 25 -217 43 -220 40 -5 -4 101
-548 108 -555 5 -4 811 -72 815 -68 1 1 27 137 57 301 30 165 57 311 61 327 3
15 2 27 -3 26 -4 -1 -142 -27 -305 -59z"/>
<path d="M1690 2101 c0 -126 2 -142 16 -137 9 3 19 6 24 6 5 0 22 14 39 31 55
54 41 127 -38 204 l-41 39 0 -143z"/>
<path d="M3384 2198 c-23 -24 -47 -53 -53 -65 -16 -31 -14 -95 4 -119 14 -22
83 -60 91 -51 3 2 3 66 2 141 l-3 137 -41 -43z"/>
<path d="M1483 838 c7 -18 49 -122 92 -230 l80 -197 55 -9 c30 -5 269 -42 531
-82 l475 -73 410 112 c225 61 426 116 446 121 22 7 35 16 32 23 -2 7 12 91 31
186 19 96 35 176 35 178 0 2 -39 3 -87 3 -63 0 -222 -23 -555 -79 l-468 -78
-467 78 c-301 51 -496 79 -546 79 l-77 0 13 -32z"/>
</g>
</svg>
