<?xml version="1.0" standalone="no"?>
<!DOCTYPE svg PUBLIC "-//W3C//DTD SVG 20010904//EN"
 "http://www.w3.org/TR/2001/REC-SVG-20010904/DTD/svg10.dtd">
<svg version="1.0" xmlns="http://www.w3.org/2000/svg"
 width="512.000000pt" height="512.000000pt" viewBox="0 0 512.000000 512.000000"
 preserveAspectRatio="xMidYMid meet">
<metadata>
Created by potrace 1.15, written by Peter Selinger 2001-2017
</metadata>
<g transform="translate(0.000000,512.000000) scale(0.100000,-0.100000)"
fill="#ffffff" stroke="none">
<path d="M985 4466 c-349 -57 -644 -272 -779 -568 -57 -125 -86 -294 -69 -402
l8 -48 48 70 c90 132 264 275 423 348 185 86 358 125 554 125 172 0 301 -26
421 -86 276 -136 407 -386 343 -655 -20 -90 -93 -234 -150 -298 -25 -29 -44
-55 -41 -58 2 -3 31 17 63 44 275 229 393 536 324 844 -71 325 -335 578 -695
668 -112 28 -330 36 -450 16z"/>
<path d="M4843 3977 c-415 -825 -941 -1540 -1533 -2086 -300 -277 -666 -480
-985 -546 -113 -23 -297 -31 -392 -15 -161 26 -319 100 -413 193 -133 133
-200 314 -200 542 0 171 32 308 106 459 19 38 31 72 29 75 -3 3 -34 -10 -68
-28 -299 -162 -536 -474 -632 -832 -48 -181 -56 -380 -20 -535 70 -306 296
-613 570 -776 254 -152 525 -217 897 -218 402 0 843 94 1323 283 474 186 997
446 1300 646 l100 66 3 173 2 173 -34 -23 c-19 -13 -106 -71 -193 -130 -344
-232 -754 -453 -1092 -588 -134 -54 -527 -190 -548 -190 -4 0 80 44 187 98
569 287 1012 573 1558 1006 l122 98 0 274 c0 151 -3 274 -6 274 -4 0 -48 -42
-98 -93 -453 -463 -997 -852 -1726 -1236 -242 -127 -254 -128 -65 -6 582 376
1224 923 1778 1515 l117 125 0 230 c0 134 -4 225 -9 220 -5 -6 -48 -59 -96
-120 -229 -287 -560 -622 -1003 -1014 -139 -123 -265 -233 -280 -245 -15 -11
43 58 128 154 528 596 876 1042 1178 1512 l82 127 -2 301 -3 301 -82 -164z
m-1953 -3042 c0 -2 -10 -9 -22 -15 -22 -11 -22 -10 -4 4 21 17 26 19 26 11z"/>
</g>
</svg>
