<?xml version="1.0" standalone="no"?>
<!DOCTYPE svg PUBLIC "-//W3C//DTD SVG 20010904//EN"
 "http://www.w3.org/TR/2001/REC-SVG-20010904/DTD/svg10.dtd">
<svg version="1.0" xmlns="http://www.w3.org/2000/svg"
 width="512.000000pt" height="512.000000pt" viewBox="0 0 512.000000 512.000000"
 preserveAspectRatio="xMidYMid meet">
<metadata>
Created by potrace 1.15, written by Peter Selinger 2001-2017
</metadata>
<g transform="translate(0.000000,512.000000) scale(0.100000,-0.100000)"
fill="#ffffff" stroke="none">
<path d="M3865 4875 c-14 -126 -35 -233 -64 -321 -141 -440 -472 -789 -914
-965 -98 -40 -278 -88 -383 -104 -166 -25 -441 -19 -592 13 l-33 7 78 43 c365
202 574 512 573 854 l-1 93 -39 -84 c-179 -377 -638 -647 -1219 -717 -177 -21
-517 -21 -706 1 -134 15 -346 47 -400 61 l-25 6 2 -193 3 -193 88 -28 c273
-84 636 -98 1009 -37 l127 21 118 -60 c149 -75 232 -108 352 -138 178 -45 288
-57 496 -51 212 6 357 30 521 88 126 43 311 138 421 215 106 74 265 226 338
324 26 36 52 69 56 73 4 5 67 -9 140 -32 327 -99 667 -143 992 -126 l147 7 0
197 0 198 -215 -5 c-233 -5 -431 7 -615 39 -109 18 -268 54 -276 61 -2 2 5 32
16 66 11 34 27 101 37 149 30 153 20 479 -17 578 -6 14 -10 3 -15 -40z"/>
<path d="M4073 3299 c-187 -67 -422 -96 -638 -80 l-138 10 -68 -34 c-207 -105
-405 -168 -681 -217 -168 -30 -563 -33 -703 -5 -179 36 -362 96 -448 147 -20
12 -37 17 -37 11 0 -10 136 -318 570 -1291 l211 -475 152 -153 c218 -221 279
-272 323 -272 48 0 102 30 151 83 76 82 80 69 -74 220 -76 74 -164 158 -195
187 -32 29 -58 57 -58 62 0 5 26 36 58 68 l57 60 209 -202 c272 -263 246 -244
304 -223 51 20 184 144 197 185 6 20 -3 34 -66 93 -41 38 -128 123 -194 187
l-120 118 61 62 60 62 165 -159 c275 -266 278 -268 307 -265 35 4 115 46 155
82 19 16 45 50 58 75 l24 46 -95 92 c-52 51 -164 159 -248 241 l-154 149 61
61 61 61 67 -65 c38 -36 135 -130 218 -210 748 -725 815 -787 860 -796 82 -15
151 24 181 102 30 77 13 108 -134 254 -114 113 -1201 1163 -1330 1285 l-53 50
60 65 60 65 87 -85 c48 -47 99 -97 114 -112 32 -30 43 -30 215 4 382 74 646
259 574 401 -18 35 -72 87 -88 86 -9 -1 -53 -14 -98 -30z"/>
</g>
</svg>
