<?xml version="1.0" standalone="no"?>
<!DOCTYPE svg PUBLIC "-//W3C//DTD SVG 20010904//EN"
 "http://www.w3.org/TR/2001/REC-SVG-20010904/DTD/svg10.dtd">
<svg version="1.0" xmlns="http://www.w3.org/2000/svg"
 width="512.000000pt" height="512.000000pt" viewBox="0 0 512.000000 512.000000"
 preserveAspectRatio="xMidYMid meet">
<metadata>
Created by potrace 1.15, written by Peter Selinger 2001-2017
</metadata>
<g transform="translate(0.000000,512.000000) scale(0.100000,-0.100000)"
fill="#ffffff" stroke="none">
<path d="M1421 4896 l-81 -82 29 -55 c173 -318 -43 -798 -440 -977 -191 -87
-418 -87 -564 -1 l-37 22 -79 -79 -79 -78 112 -216 c61 -118 139 -269 173
-335 102 -195 314 -605 428 -825 625 -1209 1067 -2055 1075 -2058 10 -3 1483
859 1511 884 20 18 14 18 -514 59 -253 19 -480 38 -504 41 l-44 6 268 268
c148 148 267 271 265 273 -3 2 -207 19 -453 37 l-448 34 237 237 236 236 -63
7 c-35 3 -199 15 -364 26 -165 11 -320 23 -344 26 l-44 6 193 193 c107 107
192 196 190 199 -3 2 -140 13 -305 25 -165 12 -320 24 -344 27 l-44 6 173 173
c96 96 172 176 170 179 -3 2 -111 11 -240 20 -129 9 -255 19 -280 22 l-44 6
86 28 c315 101 601 391 703 713 22 70 23 71 29 37 3 -19 12 -129 21 -245 9
-115 18 -227 21 -249 l6 -39 173 173 172 172 7 -53 c3 -30 15 -175 26 -324 12
-148 23 -281 26 -294 5 -22 24 -6 198 168 l193 193 6 -49 c3 -26 18 -205 33
-398 15 -192 29 -352 31 -355 2 -2 109 101 238 230 l235 235 1 -40 c1 -82 64
-864 70 -869 4 -4 126 116 272 265 l265 272 6 -44 c3 -24 22 -260 42 -524 20
-264 38 -482 41 -485 2 -2 8 2 14 10 38 59 848 1438 851 1448 3 14 -25 31
-242 144 -163 85 -512 266 -885 461 -439 228 -478 249 -570 297 -49 26 -164
86 -255 133 -91 47 -454 236 -807 420 -354 184 -649 337 -656 340 -9 3 -47
-28 -96 -77z"/>
</g>
</svg>
