<?xml version="1.0" standalone="no"?>
<!DOCTYPE svg PUBLIC "-//W3C//DTD SVG 20010904//EN"
 "http://www.w3.org/TR/2001/REC-SVG-20010904/DTD/svg10.dtd">
<svg version="1.0" xmlns="http://www.w3.org/2000/svg"
 width="512.000000pt" height="512.000000pt" viewBox="0 0 512.000000 512.000000"
 preserveAspectRatio="xMidYMid meet">
<metadata>
Created by potrace 1.15, written by Peter Selinger 2001-2017
</metadata>
<g transform="translate(0.000000,512.000000) scale(0.100000,-0.100000)"
fill="#ffffff" stroke="none">
<path d="M2240 4780 c-172 -26 -221 -38 -385 -91 -256 -82 -501 -217 -720
-394 -107 -87 -155 -135 -134 -135 28 0 122 29 322 98 167 58 237 77 405 108
l204 37 88 -88 87 -87 143 82 143 83 156 -7 156 -7 32 -36 32 -37 138 28 c76
15 184 38 240 51 91 20 108 22 145 10 24 -7 178 -54 343 -104 165 -51 307 -94
315 -97 8 -3 -57 -35 -145 -71 -88 -36 -161 -67 -163 -68 -2 -2 15 -78 37
-170 23 -92 41 -171 41 -175 0 -4 -35 -30 -78 -57 l-78 -50 -49 246 c-26 135
-50 252 -53 259 -4 10 -20 12 -63 8 -33 -3 -85 -9 -118 -12 l-58 -6 -17 -126
c-9 -69 -18 -127 -19 -129 -2 -1 -55 -24 -118 -51 l-114 -48 0 -40 c1 -21 4
-98 9 -170 l8 -131 -48 -7 c-27 -4 -58 -10 -69 -12 -18 -4 -29 10 -74 90 -29
53 -55 96 -59 96 -4 0 -19 -34 -34 -76 l-27 -77 61 -114 61 -115 -85 -86
c-315 -324 -306 -313 -329 -380 l-21 -64 32 -90 32 -90 -33 -46 c-18 -26 -57
-77 -87 -115 l-55 -67 -36 27 c-34 26 -162 135 -334 286 l-78 68 -62 -35 c-34
-19 -93 -53 -131 -75 l-70 -40 -104 156 -104 155 -45 -6 c-25 -3 -68 -6 -95
-6 -41 0 -50 -3 -57 -22 -4 -13 -60 -169 -125 -348 l-117 -326 -85 -24 c-51
-14 -88 -20 -93 -14 -8 9 -253 339 -335 451 -21 29 -40 53 -43 53 -12 0 7
-259 27 -375 107 -623 467 -1163 1006 -1511 187 -121 458 -235 684 -288 205
-48 321 -59 563 -53 312 7 513 45 765 143 769 299 1309 989 1417 1808 19 150
19 407 0 566 -80 647 -437 1225 -979 1585 -286 190 -583 304 -921 355 -172 26
-478 26 -645 0z m1118 -1187 c23 -37 40 -73 38 -79 -3 -7 -35 -58 -72 -115
-59 -92 -68 -111 -77 -176 -5 -40 -13 -73 -16 -73 -3 0 -17 9 -29 19 l-24 18
22 209 c12 115 23 209 23 210 1 0 20 13 42 27 22 15 42 27 45 27 3 0 24 -30
48 -67z m-140 -499 c12 -3 16 -53 6 -89 -4 -17 -25 -24 -150 -46 l-144 -25 0
36 c0 34 3 36 97 86 82 44 103 51 137 47 23 -3 47 -6 54 -9z m-369 -290 c23
-7 23 -8 16 -93 -4 -47 -10 -92 -14 -98 -8 -16 -164 93 -158 111 2 6 12 34 22
63 l18 51 46 -14 c25 -8 57 -17 70 -20z m-214 -446 c2 -13 8 -53 13 -90 l9
-68 -98 0 c-109 0 -109 0 -109 87 l0 42 58 16 c31 9 68 20 82 25 37 13 39 12
45 -12z m561 -54 l173 -47 80 -97 c74 -92 77 -97 47 -88 -17 4 -116 31 -220
58 l-189 49 -57 -23 -58 -24 -96 104 -97 103 93 4 c51 1 106 4 122 5 16 1 107
-19 202 -44z m-788 -250 c81 -42 151 -80 155 -84 5 -4 -39 -15 -97 -24 l-105
-16 -128 59 c-70 32 -167 76 -215 96 -49 21 -88 40 -88 43 0 3 12 24 26 47
l27 42 139 -44 c97 -30 182 -66 286 -119z m787 -72 l48 -117 108 -65 c92 -55
109 -69 109 -90 0 -14 -9 -90 -20 -170 l-21 -145 -122 -117 c-67 -65 -124
-117 -127 -118 -3 0 -64 47 -135 105 -71 58 -133 104 -139 102 -6 -3 -69 -23
-141 -47 -113 -36 -142 -50 -219 -107 -49 -35 -92 -61 -97 -56 -4 4 -35 67
-67 138 l-59 130 27 80 c15 44 37 105 49 136 l21 55 98 30 c107 33 103 28 161
163 l23 55 32 -57 c18 -31 35 -59 38 -62 3 -4 63 9 133 27 l126 33 41 75 c46
85 78 140 82 140 1 0 24 -53 51 -118z m843 -381 c10 -6 2 -24 -34 -76 -46 -66
-47 -67 -60 -44 -20 37 -17 50 23 91 38 39 49 44 71 29z m-124 -248 c-16 -12
-78 -56 -140 -98 l-112 -77 -47 24 -47 24 112 84 c84 62 124 86 163 95 48 11
54 11 75 -9 l23 -21 -27 -22z m-768 -298 c-45 -40 -56 -43 -56 -16 0 11 -3 26
-6 35 -5 13 3 16 47 16 l54 -1 -39 -34z"/>
</g>
</svg>
