<?xml version="1.0" standalone="no"?>
<!DOCTYPE svg PUBLIC "-//W3C//DTD SVG 20010904//EN"
 "http://www.w3.org/TR/2001/REC-SVG-20010904/DTD/svg10.dtd">
<svg version="1.0" xmlns="http://www.w3.org/2000/svg"
 width="512.000000pt" height="512.000000pt" viewBox="0 0 512.000000 512.000000"
 preserveAspectRatio="xMidYMid meet">
<metadata>
Created by potrace 1.15, written by Peter Selinger 2001-2017
</metadata>
<g transform="translate(0.000000,512.000000) scale(0.100000,-0.100000)"
fill="#ffffff" stroke="none">
<path d="M4260 4834 c-63 -12 -150 -47 -203 -82 -73 -49 -175 -139 -222 -196
l-35 -43 30 -64 c16 -35 33 -79 36 -97 l6 -33 132 134 c103 105 145 140 195
165 72 36 88 37 183 18 148 -32 225 -94 324 -263 30 -51 59 -95 64 -98 7 -4
131 67 158 90 5 4 -96 174 -135 228 -59 80 -198 176 -316 216 -58 20 -172 33
-217 25z"/>
<path d="M995 4663 c-284 -19 -523 -105 -709 -256 -122 -99 -121 -96 -61 -158
78 -79 74 -79 164 -2 186 160 354 218 671 229 l145 5 175 -165 174 -166 79 0
79 0 -7 33 c-13 63 -47 116 -143 223 -223 247 -285 276 -567 257z"/>
<path d="M2324 4563 l-21 -4 22 -62 c35 -97 51 -202 35 -231 -16 -30 -61 -50
-92 -41 -31 10 -68 45 -68 65 0 29 -30 134 -56 198 -26 62 -26 62 -67 62 -44
0 -370 -30 -375 -35 -1 -1 27 -42 64 -91 118 -157 114 -136 114 -519 0 -644
-41 -1701 -89 -2305 -5 -58 -7 -107 -5 -109 2 -2 30 21 63 52 105 97 229 142
329 119 l42 -10 0 214 0 214 33 -20 c43 -27 69 -25 106 6 l31 26 0 -280 0
-280 44 -53 c55 -68 128 -190 179 -299 29 -62 41 -79 45 -65 6 26 -6 1326 -14
1515 l-7 144 32 -27 c43 -36 76 -35 112 4 l29 31 0 -53 c1 -30 5 -153 10 -274
5 -121 10 -476 10 -789 l0 -568 53 46 c83 73 177 134 239 156 62 22 160 26
204 10 15 -6 29 -8 31 -6 3 3 7 52 10 109 l6 105 31 -19 c40 -25 77 -24 110 2
l26 20 0 -183 0 -183 41 -50 c22 -28 44 -53 48 -58 10 -11 161 60 161 75 0 7
-11 155 -25 328 -14 173 -25 330 -25 348 l0 32 37 -20 c51 -27 69 -25 104 9
27 28 29 28 29 8 0 -48 49 -639 53 -643 2 -3 38 4 78 16 40 11 84 20 96 20 12
0 24 4 28 10 12 19 -131 1088 -236 1770 -84 547 -200 1217 -225 1302 -21 69
-59 140 -86 157 -39 25 -366 78 -576 93 -35 3 -41 1 -36 -12 52 -121 72 -217
79 -381 7 -140 1 -161 -53 -192 -28 -16 -37 -17 -61 -7 -16 6 -34 24 -40 38
-6 15 -15 97 -20 182 -6 85 -15 173 -22 195 -13 45 -52 127 -81 168 l-19 27
-222 -1 c-122 -1 -231 -4 -243 -6z m1236 -545 c45 -222 93 -519 160 -990 64
-448 65 -484 25 -518 -34 -28 -97 -2 -126 52 -5 10 -30 163 -55 340 -83 595
-149 991 -211 1266 l-5 23 35 -21 c48 -29 86 -23 112 16 l20 31 7 -26 c4 -14
21 -92 38 -173z m-1307 -658 c1 -491 -15 -935 -36 -980 -26 -55 -106 -51 -140
8 -19 32 -19 43 -8 290 13 294 16 928 5 1172 l-7 165 33 -32 c19 -19 44 -33
57 -33 23 0 72 42 74 64 1 6 6 -32 11 -84 5 -52 10 -309 11 -570z m516 305 c7
-66 15 -191 18 -278 l6 -158 -28 -29 c-36 -37 -73 -39 -113 -5 l-29 24 -6 154
c-6 136 -18 286 -31 385 l-5 33 26 -21 c36 -28 84 -26 113 5 13 14 27 22 31
18 3 -5 12 -62 18 -128z m530 -565 c6 -124 16 -420 22 -658 10 -415 10 -434
-8 -454 -10 -11 -30 -26 -45 -34 -25 -13 -32 -13 -58 1 -16 8 -34 24 -40 35
-7 13 -14 164 -20 393 -5 204 -12 437 -15 517 -10 256 -25 544 -31 590 -2 25
-1 40 3 34 16 -21 58 -44 80 -44 13 0 37 13 55 29 l33 29 7 -106 c3 -59 11
-208 17 -332z"/>
<path d="M4415 1755 c-21 -21 -37 -53 -45 -86 -14 -59 -9 -183 9 -217 11 -21
14 -21 39 -8 48 25 134 94 153 123 25 37 24 104 -1 153 -40 78 -101 93 -155
35z"/>
<path d="M1310 1762 c-28 -13 -36 -24 -38 -50 -4 -42 20 -80 83 -130 53 -41
144 -97 149 -91 10 12 26 106 26 152 0 70 -23 101 -92 122 -66 19 -85 19 -128
-3z"/>
<path d="M762 1730 c-63 -38 -106 -181 -82 -271 18 -67 102 -143 220 -201 142
-69 138 -69 133 -6 -31 368 -139 558 -271 478z"/>
<path d="M4765 1582 c-59 -14 -104 -85 -130 -207 -15 -68 -33 -385 -23 -385
15 0 126 55 182 90 81 51 133 108 142 156 11 60 -2 194 -24 244 -33 74 -92
116 -147 102z"/>
<path d="M2019 1462 c-139 -90 -329 -370 -449 -664 -13 -32 -27 -58 -32 -58
-5 0 -34 13 -66 29 -160 81 -349 132 -492 134 -98 1 -143 -16 -209 -82 -87
-87 -106 -199 -51 -308 51 -102 27 -95 470 -137 1328 -127 2721 -123 3547 10
l162 27 6 52 c28 222 -167 429 -525 560 -68 25 -84 27 -170 22 -52 -3 -129
-16 -170 -28 -96 -28 -279 -106 -378 -162 l-78 -43 -54 80 c-107 158 -240 266
-311 252 -118 -22 -318 -201 -491 -441 -44 -60 -83 -111 -88 -113 -4 -1 -15
28 -24 65 -49 194 -148 449 -227 585 -62 107 -103 158 -165 206 -49 37 -62 42
-108 42 -40 0 -62 -7 -97 -28z"/>
<path d="M269 1251 c-35 -36 -37 -68 -7 -130 42 -87 288 -303 308 -271 14 23
32 198 24 247 -9 63 -27 96 -67 127 -47 36 -110 56 -174 56 -47 0 -59 -4 -84
-29z"/>
</g>
</svg>
