<?xml version="1.0" standalone="no"?>
<!DOCTYPE svg PUBLIC "-//W3C//DTD SVG 20010904//EN"
 "http://www.w3.org/TR/2001/REC-SVG-20010904/DTD/svg10.dtd">
<svg version="1.0" xmlns="http://www.w3.org/2000/svg"
 width="512.000000pt" height="512.000000pt" viewBox="0 0 512.000000 512.000000"
 preserveAspectRatio="xMidYMid meet">
<metadata>
Created by potrace 1.15, written by Peter Selinger 2001-2017
</metadata>
<g transform="translate(0.000000,512.000000) scale(0.100000,-0.100000)"
fill="#ffffff" stroke="none">
<path d="M2418 4862 c-43 -88 -126 -203 -276 -381 -153 -184 -222 -291 -263
-408 -64 -188 -8 -381 165 -566 20 -21 36 -41 36 -44 0 -18 -69 -109 -111
-147 -54 -48 -119 -72 -175 -63 -247 40 -500 501 -531 969 -6 98 -6 100 -22
72 -380 -688 -482 -968 -468 -1274 6 -136 31 -238 85 -353 59 -125 58 -124
202 -152 251 -48 734 -115 836 -115 31 0 32 1 38 58 9 81 -8 194 -54 363 -22
81 -40 149 -40 152 0 3 42 -17 93 -45 236 -128 294 -172 353 -269 21 -33 40
-57 43 -54 3 4 9 108 13 233 7 248 24 344 74 429 29 51 82 113 95 113 5 0 9
-29 9 -66 0 -140 67 -328 135 -380 72 -55 183 -41 264 32 67 60 110 148 191
389 38 112 78 221 90 242 l20 38 -6 -55 c-7 -72 8 -226 47 -463 60 -368 36
-543 -92 -682 -21 -23 -39 -45 -39 -49 0 -4 26 -4 58 -1 31 3 127 12 212 20
239 24 561 75 755 120 75 17 107 44 150 125 48 93 58 153 54 315 -2 83 -4 224
-3 315 0 147 2 172 22 225 13 33 26 69 29 80 3 11 -57 -43 -133 -121 -177
-180 -242 -213 -413 -214 -66 0 -72 2 -66 18 4 9 15 51 26 92 112 434 -138
928 -643 1271 -33 23 -61 39 -63 37 -2 -1 3 -34 11 -73 16 -86 17 -208 1 -254
-19 -54 -52 -72 -132 -72 -59 0 -79 5 -143 36 -122 61 -233 187 -308 351 -37
81 -74 210 -74 256 0 15 -3 28 -7 28 -5 -1 -25 -35 -45 -78z"/>
<path d="M4326 4585 c5 -38 8 -149 7 -245 0 -193 -19 -351 -59 -511 -14 -55
-24 -103 -21 -105 7 -8 116 86 178 154 85 91 103 135 97 235 -7 103 -56 253
-133 409 -72 145 -79 151 -69 63z"/>
<path d="M749 2383 c5 -15 15 -45 24 -65 14 -34 11 -91 -59 -885 -41 -466 -74
-864 -74 -883 0 -35 2 -37 80 -75 44 -21 81 -37 83 -34 3 2 104 305 227 674
122 369 225 673 229 677 3 3 56 -25 116 -63 241 -152 558 -287 818 -349 44
-11 82 -22 85 -24 3 -3 30 -269 61 -591 l56 -585 165 0 165 0 56 585 c31 322
58 587 61 590 2 2 47 16 99 29 308 81 626 223 891 399 14 10 28 14 31 10 2 -4
105 -309 227 -678 123 -369 224 -672 227 -674 2 -3 39 13 83 34 78 38 80 40
80 75 0 19 -34 417 -74 883 l-75 848 19 42 c25 54 26 80 3 73 -49 -14 -258
-59 -423 -90 -298 -55 -607 -89 -994 -107 -356 -17 -902 6 -1321 57 -234 28
-758 120 -857 150 -14 4 -16 1 -9 -23z"/>
</g>
</svg>
