<?xml version="1.0" standalone="no"?>
<!DOCTYPE svg PUBLIC "-//W3C//DTD SVG 20010904//EN"
 "http://www.w3.org/TR/2001/REC-SVG-20010904/DTD/svg10.dtd">
<svg version="1.0" xmlns="http://www.w3.org/2000/svg"
 width="512.000000pt" height="512.000000pt" viewBox="0 0 512.000000 512.000000"
 preserveAspectRatio="xMidYMid meet">
<metadata>
Created by potrace 1.15, written by Peter Selinger 2001-2017
</metadata>
<g transform="translate(0.000000,512.000000) scale(0.100000,-0.100000)"
fill="#ffffff" stroke="none">
<path d="M1815 4913 c-16 -68 -276 -1050 -281 -1062 -3 -10 -111 92 -324 304
l-320 320 -90 -90 c-50 -50 -89 -95 -88 -102 2 -6 923 -934 2046 -2062 l2044
-2051 64 0 64 0 0 130 0 131 -1137 1140 c-626 628 -1137 1146 -1136 1152 2 7
68 257 147 557 l145 545 -92 93 -93 92 -82 -182 -81 -183 -1 269 0 269 -112
113 c-62 63 -117 114 -123 114 -6 0 -35 -41 -65 -90 -42 -68 -56 -85 -57 -68
-1 13 -7 88 -13 168 l-10 145 -187 187 c-103 104 -193 188 -199 188 -7 0 -15
-12 -19 -27z"/>
<path d="M4111 3998 c-45 -172 -84 -320 -87 -327 -3 -10 -63 43 -179 159
l-175 175 -75 -75 c-41 -41 -75 -79 -75 -85 0 -5 316 -325 703 -710 l702 -700
3 155 3 154 -102 102 -101 101 88 332 88 332 -350 350 c-192 192 -352 349
-355 349 -3 0 -43 -141 -88 -312z"/>
<path d="M673 3461 c-243 -64 -445 -120 -450 -124 -4 -4 31 -45 76 -91 l84
-84 236 4 236 5 -167 -68 c-92 -37 -168 -70 -168 -73 0 -3 89 -94 198 -202
l197 -197 148 -10 c82 -5 151 -11 153 -14 3 -2 -18 -19 -45 -38 -28 -19 -51
-37 -51 -40 0 -4 42 -10 93 -15 l92 -9 -78 -54 -78 -54 88 -89 c81 -82 91 -89
120 -84 63 9 892 231 901 241 3 3 -243 255 -548 560 -377 377 -561 555 -575
554 -11 0 -219 -53 -462 -118z"/>
<path d="M3430 3369 c-124 -33 -231 -62 -239 -65 -10 -3 29 -49 119 -139 l135
-135 65 -1 c36 -1 103 -4 150 -7 l85 -7 -82 -48 c-46 -27 -83 -54 -83 -61 0
-6 69 -80 153 -163 l152 -152 245 65 c135 36 247 68 250 70 8 8 -694 704 -710
703 -8 0 -116 -27 -240 -60z"/>
<path d="M1220 1954 c0 -7 -158 -612 -166 -633 -3 -10 -63 43 -179 159 l-175
175 -80 -80 -80 -80 663 -663 663 -663 151 3 152 3 -140 145 c-78 80 -170 175
-206 211 l-65 67 87 332 88 331 -69 70 c-37 38 -72 69 -76 69 -3 0 -31 -40
-60 -89 -29 -49 -54 -88 -55 -87 -2 1 -8 74 -14 162 l-11 159 -206 208 c-189
189 -222 219 -222 201z"/>
<path d="M3101 1403 c-6 -21 -29 -111 -52 -201 l-43 -163 -116 116 -117 117
-67 -63 c-36 -35 -66 -68 -66 -74 0 -5 49 -60 110 -120 60 -60 108 -110 107
-112 -2 -2 -141 -39 -350 -94 -21 -6 -37 -14 -35 -19 3 -9 423 -436 438 -445
5 -3 95 17 199 45 105 27 196 50 203 50 7 0 74 -61 148 -135 l135 -135 140 0
140 0 -207 208 -207 207 55 205 55 204 -99 99 -99 99 -41 -36 -40 -37 -6 28
c-3 15 -10 57 -16 93 -11 61 -15 69 -78 133 -37 37 -70 67 -74 67 -4 0 -12
-17 -17 -37z"/>
<path d="M480 1021 c-118 -32 -228 -61 -244 -65 -29 -7 -25 -12 245 -282 l274
-274 164 0 165 0 -78 -71 c-42 -39 -74 -74 -72 -77 7 -6 447 108 461 120 6 5
-127 145 -340 358 -193 193 -352 350 -355 349 -3 0 -102 -27 -220 -58z"/>
</g>
</svg>
