<?xml version="1.0" standalone="no"?>
<!DOCTYPE svg PUBLIC "-//W3C//DTD SVG 20010904//EN"
 "http://www.w3.org/TR/2001/REC-SVG-20010904/DTD/svg10.dtd">
<svg version="1.0" xmlns="http://www.w3.org/2000/svg"
 width="512.000000pt" height="512.000000pt" viewBox="0 0 512.000000 512.000000"
 preserveAspectRatio="xMidYMid meet">
<metadata>
Created by potrace 1.15, written by Peter Selinger 2001-2017
</metadata>
<g transform="translate(0.000000,512.000000) scale(0.100000,-0.100000)"
fill="#ffffff" stroke="none">
<path d="M2828 4865 c-61 -12 -120 -35 -173 -68 -11 -6 -234 -126 -496 -266
l-475 -254 -189 -260 c-105 -142 -226 -307 -269 -366 -107 -143 -126 -186
-126 -282 0 -137 58 -204 175 -204 47 0 75 8 130 33 65 31 76 41 146 135 335
446 335 446 455 513 192 107 461 147 649 95 299 -83 416 -314 312 -616 -11
-33 -42 -107 -69 -165 -108 -229 -142 -358 -136 -509 3 -86 8 -106 36 -164 19
-38 50 -81 73 -100 40 -35 134 -89 176 -101 24 -8 18 -23 114 304 82 283 155
398 439 695 58 60 122 130 142 155 79 99 127 217 129 318 2 51 2 52 33 52 17
0 257 -16 534 -36 276 -20 504 -35 506 -33 2 2 1 256 -2 565 l-5 561 -756 6
c-1037 9 -1272 8 -1353 -8z"/>
<path d="M2355 3843 c-105 -15 -220 -59 -311 -119 -60 -40 -85 -70 -304 -359
-78 -104 -147 -195 -152 -202 -14 -18 62 -53 117 -53 56 0 106 20 159 64 38
31 45 33 97 28 64 -5 98 9 147 59 40 41 93 143 127 244 32 96 73 165 154 262
34 39 61 74 61 77 0 6 -46 6 -95 -1z"/>
<path d="M1607 2872 c-37 -22 -73 -100 -88 -186 -43 -253 110 -606 263 -606
47 0 80 28 107 90 62 143 43 367 -45 542 -43 85 -83 131 -138 157 -51 25 -63
26 -99 3z"/>
<path d="M2400 1814 c-183 -35 -378 -158 -452 -285 -57 -95 -52 -146 16 -182
33 -17 58 -21 131 -21 165 0 341 79 472 210 59 59 75 83 88 127 19 65 11 95
-35 127 -25 18 -48 23 -113 25 -45 2 -93 1 -107 -1z"/>
<path d="M1375 846 c-109 -34 -159 -88 -159 -170 0 -61 20 -102 82 -168 216
-231 709 -237 739 -9 17 128 -165 296 -377 345 -78 19 -229 20 -285 2z"/>
</g>
</svg>
