<?xml version="1.0" standalone="no"?>
<!DOCTYPE svg PUBLIC "-//W3C//DTD SVG 20010904//EN"
 "http://www.w3.org/TR/2001/REC-SVG-20010904/DTD/svg10.dtd">
<svg version="1.0" xmlns="http://www.w3.org/2000/svg"
 width="512.000000pt" height="512.000000pt" viewBox="0 0 512.000000 512.000000"
 preserveAspectRatio="xMidYMid meet">
<metadata>
Created by potrace 1.15, written by Peter Selinger 2001-2017
</metadata>
<g transform="translate(0.000000,512.000000) scale(0.100000,-0.100000)"
fill="#ffffff" stroke="none">
<path d="M4005 4604 c-69 -36 -93 -76 -130 -225 -45 -178 -144 -489 -200 -630
-5 -14 34 -38 200 -123 l206 -107 57 51 c184 165 261 230 382 323 74 57 148
121 163 143 98 139 10 314 -158 314 -61 0 -119 -25 -174 -75 l-42 -38 12 29
c6 16 11 58 12 94 1 151 -98 260 -238 260 -35 0 -73 -7 -90 -16z"/>
<path d="M3176 3748 c-2 -7 -14 -53 -26 -103 -32 -129 -121 -376 -197 -545
-266 -596 -623 -1057 -948 -1222 l-60 -31 -580 -6 c-557 -6 -581 -6 -613 12
-134 77 -239 99 -342 73 -70 -18 -115 -47 -157 -103 -37 -49 -38 -126 -3 -197
41 -81 108 -126 410 -273 427 -209 482 -233 526 -233 53 0 279 -36 379 -59
311 -74 517 -202 684 -425 64 -85 69 -90 166 -139 184 -92 267 -119 380 -124
123 -6 188 14 265 84 99 89 153 229 190 498 99 716 509 1541 1035 2082 63 65
115 119 115 121 0 5 -551 274 -554 271 -2 -2 -20 -39 -40 -83 -67 -145 -172
-286 -214 -286 -41 0 29 220 115 363 19 32 34 60 32 61 -9 8 -191 97 -193 94
-1 -2 -13 -28 -25 -58 -38 -91 -177 -361 -222 -430 -51 -79 -107 -150 -120
-150 -18 0 -8 82 21 175 40 123 97 259 171 406 l59 119 -120 60 c-66 33 -122
60 -125 60 -3 0 -7 -6 -9 -12z"/>
</g>
</svg>
