<?xml version="1.0" standalone="no"?>
<!DOCTYPE svg PUBLIC "-//W3C//DTD SVG 20010904//EN"
 "http://www.w3.org/TR/2001/REC-SVG-20010904/DTD/svg10.dtd">
<svg version="1.0" xmlns="http://www.w3.org/2000/svg"
 width="512.000000pt" height="512.000000pt" viewBox="0 0 512.000000 512.000000"
 preserveAspectRatio="xMidYMid meet">
<metadata>
Created by potrace 1.15, written by Peter Selinger 2001-2017
</metadata>
<g transform="translate(0.000000,512.000000) scale(0.100000,-0.100000)"
fill="#ffffff" stroke="none">
<path d="M2484 4544 c-284 -228 -904 -564 -1426 -775 -134 -54 -158 -66 -158
-84 0 -31 52 -213 98 -340 190 -530 615 -1364 969 -1902 250 -382 485 -633
592 -633 113 0 353 260 615 664 346 533 764 1357 948 1871 46 127 98 309 98
340 0 18 -24 30 -157 84 -523 211 -1143 547 -1427 775 -38 31 -72 56 -76 56
-4 0 -38 -25 -76 -56z m155 -497 c42 -40 116 -97 164 -126 172 -104 481 -240
895 -396 l74 -27 -7 -72 c-13 -141 -119 -413 -315 -811 -311 -630 -682 -1230
-819 -1322 -44 -30 -98 -30 -142 0 -137 92 -508 692 -819 1322 -196 398 -302
670 -315 811 l-7 72 74 27 c436 164 786 322 938 423 41 28 102 78 135 111 33
34 61 61 64 61 2 0 38 -33 80 -73z"/>
<path d="M2510 3845 c-140 -108 -459 -261 -872 -420 -74 -28 -98 -42 -98 -55
0 -31 68 -217 138 -375 216 -493 676 -1306 851 -1505 l31 -35 35 40 c179 206
648 1040 864 1538 57 132 121 310 121 337 0 13 -24 27 -97 55 -415 159 -719
304 -869 417 -28 21 -53 38 -55 38 -2 0 -24 -16 -49 -35z"/>
<path d="M735 4256 l-500 -251 1 -95 c0 -109 23 -208 103 -440 80 -236 204
-530 222 -530 15 0 159 74 159 82 0 4 -21 54 -46 110 -62 137 -97 227 -150
383 -43 124 -109 364 -102 370 2 1 203 103 448 225 245 122 447 224 449 226 5
5 -70 163 -79 169 -3 2 -230 -110 -505 -249z"/>
<path d="M3838 4425 c-23 -46 -40 -86 -38 -89 3 -2 205 -104 450 -226 245
-122 446 -224 448 -225 2 -2 -10 -56 -27 -122 -50 -195 -153 -480 -240 -663
-17 -36 -31 -70 -31 -75 0 -10 141 -85 159 -85 18 0 142 294 222 530 80 232
103 331 103 440 l1 95 -503 253 -502 252 -42 -85z"/>
<path d="M1920 789 c-36 -28 -66 -56 -68 -63 -4 -18 171 -209 278 -303 176
-156 292 -213 430 -213 138 0 254 57 430 213 98 85 280 282 280 301 0 6 -32
36 -71 65 l-71 54 -41 -49 c-190 -226 -415 -394 -528 -394 -108 0 -337 168
-505 370 -32 39 -60 70 -64 70 -3 0 -34 -23 -70 -51z"/>
</g>
</svg>
