<?xml version="1.0" standalone="no"?>
<!DOCTYPE svg PUBLIC "-//W3C//DTD SVG 20010904//EN"
 "http://www.w3.org/TR/2001/REC-SVG-20010904/DTD/svg10.dtd">
<svg version="1.0" xmlns="http://www.w3.org/2000/svg"
 width="512.000000pt" height="512.000000pt" viewBox="0 0 512.000000 512.000000"
 preserveAspectRatio="xMidYMid meet">
<metadata>
Created by potrace 1.15, written by Peter Selinger 2001-2017
</metadata>
<g transform="translate(0.000000,512.000000) scale(0.100000,-0.100000)"
fill="#ffffff" stroke="none">
<path d="M540 4924 c0 -4 259 -330 576 -725 l576 -719 -63 -62 c-75 -75 -141
-163 -180 -240 l-29 -57 -157 76 c-87 41 -286 136 -443 210 -274 130 -344 163
-530 251 l-85 40 -3 -316 c-1 -173 0 -317 3 -320 5 -5 640 -115 1027 -178
l108 -18 -7 -40 c-4 -23 -8 -86 -8 -142 l0 -101 -335 -128 c-184 -70 -346
-134 -360 -141 -22 -11 -7 -13 110 -14 74 0 253 -3 398 -7 l263 -6 41 -80 c23
-44 59 -103 80 -131 21 -28 38 -53 38 -57 0 -4 -37 -42 -82 -85 -46 -42 -352
-336 -680 -653 l-598 -575 0 -268 0 -268 242 2 242 3 141 225 c77 124 311 497
519 830 209 333 383 609 387 614 4 5 29 -5 56 -22 67 -43 206 -107 278 -127
33 -10 61 -18 63 -20 1 -1 -50 -330 -113 -731 -63 -400 -115 -738 -115 -751
l0 -23 526 0 c515 0 525 0 519 19 -3 11 -96 347 -205 747 -205 747 -204 743
-158 744 9 0 56 13 104 29 48 16 92 27 98 24 6 -3 89 -95 184 -204 96 -109
177 -199 182 -199 4 0 -36 105 -90 233 -53 127 -100 241 -103 252 -5 16 12 37
82 102 l88 81 104 -83 c57 -45 466 -373 909 -729 442 -355 808 -646 812 -646
5 0 8 247 8 549 l0 549 -47 18 c-27 10 -230 88 -453 174 -223 86 -574 221
-780 300 l-376 145 27 80 c15 44 32 112 39 151 l11 72 97 30 c53 17 241 74
417 128 176 53 322 99 324 101 2 1 2 5 0 7 -2 2 -186 18 -409 36 -223 17 -415
33 -427 36 -16 3 -26 19 -43 71 -12 38 -35 98 -52 136 -17 37 -29 69 -27 71 2
1 139 72 304 156 165 84 546 278 848 432 l547 280 0 409 c0 238 -4 409 -9 409
-8 0 -288 -229 -1200 -983 -283 -235 -346 -287 -510 -421 l-121 -98 -76 71
c-42 39 -80 71 -85 71 -16 0 -11 16 66 202 41 100 72 184 69 187 -2 3 -71 -61
-152 -142 l-148 -148 -69 27 c-39 14 -106 34 -150 43 -67 15 -80 21 -78 37 1
10 47 279 102 597 56 318 101 585 101 593 0 12 -33 14 -204 14 l-203 0 3 -512
c3 -282 6 -557 8 -610 l3 -98 -37 0 c-101 0 -276 -51 -395 -115 l-81 -43 -424
689 -425 689 -202 0 c-112 0 -203 -3 -203 -6z"/>
</g>
</svg>
