<?xml version="1.0" standalone="no"?>
<!DOCTYPE svg PUBLIC "-//W3C//DTD SVG 20010904//EN"
 "http://www.w3.org/TR/2001/REC-SVG-20010904/DTD/svg10.dtd">
<svg version="1.0" xmlns="http://www.w3.org/2000/svg"
 width="512.000000pt" height="512.000000pt" viewBox="0 0 512.000000 512.000000"
 preserveAspectRatio="xMidYMid meet">
<metadata>
Created by potrace 1.15, written by Peter Selinger 2001-2017
</metadata>
<g transform="translate(0.000000,512.000000) scale(0.100000,-0.100000)"
fill="#ffffff" stroke="none">
<path d="M2495 4825 c-64 -39 -279 -134 -415 -182 -366 -130 -722 -203 -1098
-225 -207 -12 -410 -3 -533 23 -28 6 -53 9 -56 6 -7 -8 15 -459 32 -647 94
-1014 384 -1920 816 -2550 140 -205 348 -433 519 -570 224 -179 493 -322 736
-390 l72 -20 83 26 c554 173 1019 558 1366 1129 424 700 683 1704 722 2798 4
122 6 224 5 226 -2 2 -33 -2 -69 -9 -157 -30 -499 -28 -745 4 -158 21 -409 68
-565 107 -243 61 -576 181 -723 260 -41 21 -81 39 -90 39 -9 0 -35 -12 -57
-25z m388 -446 c103 -10 251 -37 377 -70 108 -29 253 -79 266 -92 6 -7 34
-109 62 -227 28 -118 106 -439 172 -713 66 -274 120 -500 120 -502 0 -3 -142
-5 -315 -5 -173 0 -315 -1 -315 -2 0 -2 9 -46 20 -98 55 -261 28 -551 -77
-803 -20 -48 -37 -86 -39 -84 -2 1 -40 108 -84 237 -45 129 -85 238 -89 242
-4 4 -49 -109 -101 -252 -51 -143 -96 -260 -99 -260 -3 0 -47 105 -98 232 -50
128 -95 234 -100 235 -4 2 -51 -105 -103 -236 l-95 -239 -94 265 c-52 145 -97
260 -101 256 -4 -4 -42 -109 -85 -233 -43 -124 -81 -229 -85 -233 -10 -12 -84
162 -114 268 -39 140 -49 230 -43 377 5 124 10 155 54 311 5 16 -15 17 -314
17 l-320 0 29 118 c15 64 44 182 63 262 19 80 85 353 147 608 l113 464 90 29
c362 121 773 166 1158 128z m-1913 -435 c50 -11 127 -17 231 -17 l155 -1 -17
-84 c-9 -45 -20 -86 -24 -90 -4 -4 -68 -6 -142 -4 l-136 2 7 -142 c30 -621
160 -1223 364 -1688 76 -173 142 -294 250 -458 l35 -53 -13 -120 c-7 -65 -16
-119 -19 -119 -11 1 -96 113 -166 219 -382 580 -608 1413 -632 2340 -6 236 -6
243 13 237 10 -3 53 -13 94 -22z m3370 -61 c0 -140 -19 -465 -35 -623 -82
-768 -296 -1434 -603 -1880 -77 -111 -170 -230 -180 -230 -4 0 -15 48 -24 108
l-15 107 37 55 c209 307 355 639 464 1051 91 345 145 717 171 1172 l6 107
-151 0 c-82 0 -150 4 -150 8 0 4 -8 46 -18 93 l-19 84 166 -3 c138 -3 180 0
251 16 47 11 88 21 93 21 4 1 7 -38 7 -86z m-2256 -2578 c38 -151 72 -275 76
-275 3 0 55 101 115 225 60 124 112 222 116 218 4 -4 46 -129 94 -278 48 -148
90 -274 95 -278 4 -5 40 92 79 215 40 123 82 255 95 293 l23 70 15 -35 c9 -19
54 -120 102 -224 47 -103 86 -192 86 -197 0 -22 20 -6 28 24 5 17 40 141 77
274 l69 243 34 -48 c46 -65 85 -144 112 -227 18 -56 24 -101 27 -220 l4 -150
-73 -51 c-273 -191 -506 -264 -769 -242 -192 17 -380 98 -591 257 l-48 35 0
102 c0 200 34 343 112 473 23 39 44 71 48 71 3 0 36 -124 74 -275z"/>
<path d="M1717 3542 c-4 -15 -29 -130 -56 -256 -28 -127 -48 -232 -45 -235 5
-6 737 58 744 65 8 9 -45 95 -98 160 -93 113 -237 204 -407 257 -133 41 -132
41 -138 9z"/>
<path d="M3335 3531 c-181 -69 -278 -126 -389 -231 -61 -57 -154 -176 -144
-185 5 -5 747 -69 752 -64 5 6 -106 519 -113 519 -3 0 -51 -18 -106 -39z"/>
<path d="M2518 2897 c-179 -234 -238 -314 -238 -324 0 -12 133 -113 148 -113
4 0 41 44 82 99 l75 98 73 -98 c41 -55 78 -99 83 -99 12 0 143 99 147 111 3 7
-295 409 -303 409 -2 0 -32 -37 -67 -83z"/>
</g>
</svg>
