<?xml version="1.0" encoding="UTF-8" standalone="no"?>
<!-- Created with Inkscape (http://www.inkscape.org/) -->

<svg
   xmlns:dc="http://purl.org/dc/elements/1.1/"
   xmlns:cc="http://creativecommons.org/ns#"
   xmlns:rdf="http://www.w3.org/1999/02/22-rdf-syntax-ns#"
   xmlns:svg="http://www.w3.org/2000/svg"
   xmlns="http://www.w3.org/2000/svg"
   xmlns:sodipodi="http://sodipodi.sourceforge.net/DTD/sodipodi-0.dtd"
   xmlns:inkscape="http://www.inkscape.org/namespaces/inkscape"
   width="67.73333mm"
   height="67.73333mm"
   viewBox="0 0 67.73333 67.73333"
   version="1.1"
   id="svg8"
   inkscape:version="0.92.4 (5da689c313, 2019-01-14)"
   sodipodi:docname="detect-magic.svg">
  <defs
     id="defs2" />
  <sodipodi:namedview
     id="base"
     pagecolor="#ffffff"
     bordercolor="#666666"
     borderopacity="1.0"
     inkscape:pageopacity="0.0"
     inkscape:pageshadow="2"
     inkscape:zoom="2.8"
     inkscape:cx="149.73662"
     inkscape:cy="123.17469"
     inkscape:document-units="mm"
     inkscape:current-layer="layer1"
     showgrid="false"
     inkscape:pagecheckerboard="true"
     inkscape:window-width="1850"
     inkscape:window-height="1016"
     inkscape:window-x="70"
     inkscape:window-y="27"
     inkscape:window-maximized="1" />
  <metadata
     id="metadata5">
    <rdf:RDF>
      <cc:Work
         rdf:about="">
        <dc:format>image/svg+xml</dc:format>
        <dc:type
           rdf:resource="http://purl.org/dc/dcmitype/StillImage" />
        <dc:title></dc:title>
      </cc:Work>
    </rdf:RDF>
  </metadata>
  <g
     inkscape:label="Layer 1"
     inkscape:groupmode="layer"
     id="layer1"
     transform="translate(76.199997,-49.954765)">
    <path
       style="fill:#ffffff;fill-opacity:1;stroke-width:0.26458332"
       d="m -56.450259,111.79613 c -0.252751,-1.41374 -0.460899,-2.94074 -0.239718,-3.64114 0.31792,-1.00674 1.003148,-2.10854 1.497946,-2.82785 0.494799,-0.71931 1.255686,-2.01259 1.690861,-2.87396 0.435175,-0.86137 1.042874,-1.79339 1.350441,-2.07116 0.307567,-0.27778 0.679705,-0.932619 0.826972,-1.455211 0.396144,-1.405752 0.894579,-1.907511 2.024526,-2.038024 1.36345,-0.157488 1.970812,0.360254 2.112827,1.801058 0.152125,1.543367 -0.713356,3.011857 -2.254133,3.824657 -1.237826,0.65298 -1.957741,1.58312 -2.153211,2.10456 -0.334087,0.89121 -2.784159,3.87742 -3.011293,4.29286 -0.390739,0.71469 -0.792704,1.40738 -1.845218,2.88421 z m 20.078696,-4.75038 c -1.032327,-1.81531 -2.809333,-6.6942 -2.224572,-7.977611 0.270846,-0.594445 0.482087,-0.694626 1.464649,-0.694626 2.12182,0 2.893819,1.653227 1.974506,4.228377 -0.47502,1.33061 -0.484826,1.52707 -0.118849,2.38125 0.219385,0.51205 0.460923,1.08134 0.536747,1.26509 0.145341,0.35222 0.408098,3.37699 0.131852,6.23265 -1.186754,-2.28464 -1.111205,-4.28663 -1.764333,-5.43513 z m 12.557198,-9.181153 c -2.302724,-1.487366 -3.250988,-3.365365 -2.313239,-4.581276 0.371944,-0.482272 1.616136,-0.662538 2.512973,-0.364093 0.642686,0.213871 1.87201,1.872637 2.442371,3.295565 0.195279,0.487181 0.810515,1.185872 1.37059,1.556512 0.558941,0.369889 0.837096,0.623805 1.05002,0.968097 0.374189,0.605053 0.80213,1.675908 1.438885,4.869078 -2.104774,-1.64301 -2.693341,-2.25951 -3.509785,-3.18704 -0.816445,-0.927526 -2.046953,-1.946542 -2.991815,-2.556843 z m -21.922622,-0.904004 c -0.875975,-0.159896 -1.656316,-0.496105 -2.038493,-0.878282 -0.340569,-0.340569 -0.803222,-0.619215 -1.028118,-0.619215 -0.224896,0 -0.4089,-0.119062 -0.4089,-0.264583 0,-0.145521 0.676936,-0.264584 1.504301,-0.264584 1.157783,0 1.638779,0.126336 2.088097,0.548447 1.051603,0.987931 5.164662,0.655806 9.081434,-0.788646 1.038819,-0.383102 1.835178,-0.859753 2.644234,-1.309503 0.55793,-0.310151 0.693891,-0.600982 1.651304,-1.292206 0.957411,-0.691224 1.820288,-1.4846 2.761824,-2.332828 1.558008,-1.403606 2.976386,-3.240251 3.294693,-4.907526 0.257233,-1.347385 0.363506,-5.088538 0.174546,-6.144633 -0.17012,-0.950782 -5.868149,-2.624339 -6.339353,-1.861917 -0.07994,0.129349 0.221924,0.994171 0.670814,1.921827 1.224769,2.531052 1.202833,5.922486 -0.05548,8.577394 -0.789895,1.6666 -2.22948,3.857982 -2.725899,4.527129 -0.509514,0.686798 -1.044716,0.972387 -1.452925,1.343287 -0.286272,0.260108 -1.438026,0.793303 -3.612031,1.317924 -1.972947,0.476099 -5.92266,-0.02503 -7.304314,-0.926748 -0.363803,-0.237432 -1.078177,-0.590812 -1.5875,-0.785291 -1.6563,-0.632439 -4.069881,-3.2732 -4.361834,-4.772398 -0.09849,-0.505735 -0.292128,-1.249993 -0.322981,-1.668134 -0.05452,-0.738896 -0.532126,-1.654719 -0.854731,-1.763856 -0.418288,-0.141506 -0.567136,-0.06469 -0.923367,0.83333 -0.607794,1.532175 -1.104733,3.115955 -1.888121,4.405018 -1.000964,1.647083 -0.766497,1.275135 -1.967716,2.175063 -0.298288,0.223471 -2.609594,1.449059 -3.159152,1.449059 -1.244595,0 -1.646445,-1.340128 -0.748545,-2.885315 0.479302,-0.824828 0.850523,-1.105636 1.84043,-1.392187 1.479454,-0.42826 2.33185,-1.392331 2.33185,-2.637346 0,-1.119042 -0.404626,-1.141772 -1.719791,-0.09661 -0.945195,0.751147 -1.128213,0.793671 -3.409819,0.792274 -1.326058,-7.94e-4 -2.82808,-0.117348 -3.337827,-0.258969 -1.223141,-0.33982 -2.772705,-2.266087 -4.634127,-5.760693 -0.438009,-0.822312 -0.194886,-1.916361 0.425861,-1.916361 0.40931,0 0.451425,-0.106125 0.251154,-0.632876 -0.148296,-0.390051 -0.135017,-1.344377 0.03461,-2.487246 0.241874,-1.62964 0.397579,-1.973841 1.284818,-2.840206 l 1.009589,-0.985838 -0.141603,1.05573 c -0.187843,1.400474 0.400722,4.83074 0.859034,5.006611 0.285171,0.109429 0.293067,0.241575 0.03909,0.654132 -0.281266,0.45688 -0.16444,0.65365 1.00464,1.692145 0.754062,0.669832 1.541933,1.148474 1.832256,1.113118 0.299519,-0.03647 0.764682,-0.54606 1.129183,-1.23702 0.804951,-1.525881 1.369026,-2.1323 1.983411,-2.1323 0.371455,0 0.475798,0.159898 0.412548,0.632198 -0.04656,0.34771 -0.200409,0.794194 -0.341877,0.992187 -0.141467,0.197996 -0.484511,0.808577 -0.762319,1.356849 -0.497344,0.981544 -0.497311,1.002755 0.0021,1.380649 0.847296,0.641131 1.516947,0.468366 2.226992,-0.57455 0.57854,-0.84976 0.661458,-1.255832 0.661458,-3.239336 0,-2.571819 0.452806,-3.644272 1.410351,-3.340359 0.389766,0.123706 0.577033,0.0247 0.702807,-0.371581 0.209404,-0.659775 0.928154,-0.719239 0.933164,-0.0772 0.002,0.254661 0.07389,0.725128 0.159789,1.045482 0.109783,0.409435 -0.03469,0.763125 -0.486348,1.190625 -0.968578,0.916779 -1.080969,1.45651 -0.341923,1.641999 0.342551,0.08597 0.790631,0.09192 0.995735,0.0132 0.330996,-0.127016 2.067095,-4.805786 2.192616,-5.90908 0.02688,-0.236301 0.142603,-0.650827 0.257154,-0.921168 0.114551,-0.270341 0.282971,-0.856752 0.374266,-1.303135 0.414554,-2.026941 1.244848,-0.454823 1.1069,2.095856 -0.04044,0.747738 0.03626,1.427375 0.170441,1.510304 0.134183,0.08293 0.6272,-0.392915 1.095595,-1.057432 0.708542,-1.005215 0.818321,-1.347875 0.653394,-2.039471 -0.109022,-0.457179 -0.224878,-1.128902 -0.257451,-1.492704 -0.03257,-0.363802 -0.139348,-0.972539 -0.237277,-1.352749 -0.120293,-0.467033 0.0031,-1.046401 0.380393,-1.785938 0.824097,-1.615363 1.152527,-1.407922 0.938285,0.592633 -0.117673,1.09882 -0.08227,1.748108 0.101518,1.861695 0.155216,0.09593 1.060106,-0.633581 2.010868,-1.621133 1.692685,-1.758184 1.877504,-2.133401 2.057363,-4.176799 0.05564,-0.632125 0.160462,-0.443563 0.514786,0.926042 l 0.444921,1.719791 -0.931614,1.533438 c -0.859689,1.415054 -1.006681,2.30302 -0.381235,2.30302 0.140282,0 0.322532,-0.208359 0.405,-0.46302 0.08247,-0.254662 1.340649,-1.69191 2.795955,-3.193885 2.375803,-2.45199 2.646111,-2.830257 2.647,-3.704166 0.0011,-1.110567 0.853377,-2.693095 1.45033,-2.693095 0.282387,0 0.400764,0.276283 0.400764,0.935351 0,0.842765 0.05066,0.908239 0.511773,0.661458 0.752626,-0.402794 0.792131,-0.361743 0.6276,0.652149 -0.204608,1.260843 0.27029,1.206721 1.547103,-0.176315 0.559729,-0.606297 1.017691,-1.150354 1.017691,-1.209017 0,-0.278023 3.07999,-3.509183 3.345129,-3.509312 0.345287,-1.68e-4 0.62362,0.59987 0.62362,1.344409 0,0.675972 0.340456,0.640427 1.743948,-0.182075 0.862711,-0.505583 1.267278,-0.614444 1.516089,-0.407948 0.186656,0.15491 0.608891,0.211174 0.938303,0.125031 0.329411,-0.08614 0.873881,-0.0095 1.209931,0.170373 0.473792,0.253566 0.742347,0.256703 1.195901,0.01397 0.321694,-0.172166 0.637035,-0.260893 0.700757,-0.19717 0.248285,0.248285 -0.227454,0.949352 -0.645578,0.951349 -0.242903,0.0012 -1.092668,0.187878 -1.888366,0.414929 -0.795697,0.227051 -1.661847,0.41282 -1.924777,0.41282 -0.265033,0 -0.588865,0.291454 -0.726731,0.654069 -0.152207,0.400336 -0.534567,0.717795 -0.985639,0.818342 -0.405329,0.09035 -0.963332,0.226477 -1.240007,0.302505 -0.406506,0.111705 -0.464214,0.04351 -0.300712,-0.355321 0.67751,-1.652656 0.327419,-1.897802 -0.799304,-0.559699 -0.60475,0.718203 -0.652221,0.873992 -0.288104,0.945442 0.635291,0.124661 0.533225,0.816555 -0.159356,1.080272 -0.327422,0.124673 -1.190625,0.721325 -1.918229,1.325893 -0.727605,0.604567 -1.643722,1.261095 -2.035818,1.458949 -0.694701,0.350553 -0.714963,0.338491 -0.79375,-0.472546 l -0.08085,-0.832281 -0.691798,0.727604 c -0.380489,0.400182 -0.775893,0.727604 -0.878673,0.727604 -0.102783,0 -0.930908,0.773906 -1.84028,1.719792 -0.909373,0.945885 -1.720353,1.719791 -1.802178,1.719791 -0.08182,0 -0.625025,0.47625 -1.207108,1.058334 -0.582084,0.582083 -1.310466,1.058333 -1.618626,1.058333 -0.308163,0 -0.560295,0.108948 -0.560295,0.242107 0,0.133158 -0.235339,0.520111 -0.522978,0.859895 -0.895424,1.05776 -3.033053,3.935934 -3.371829,4.539944 -0.201914,0.359997 -0.224255,0.609629 -0.05962,0.666133 0.325144,0.111591 2.83905,-0.741995 3.550277,-1.205479 0.287038,-0.187055 0.703757,-0.340834 0.926041,-0.34173 0.222282,-9e-4 0.745594,-0.179705 1.162916,-0.397351 0.417319,-0.217647 1.040434,-0.446798 1.384696,-0.509225 0.344263,-0.06243 0.776724,-0.21104 0.961025,-0.330253 0.184304,-0.119212 0.811345,-0.243992 1.393428,-0.277289 2.144623,-0.122677 2.639856,-0.225762 5.47593,-0.512318 2.907061,-0.293729 4.731057,-0.127876 6.521328,0.305185 1.684399,0.407451 4.550242,1.812362 5.310214,2.012814 0.765127,0.201812 5.444066,1.687293 6.046943,2.427636 -0.386599,0.344192 -0.993949,0.756608 -2.084623,1.283962 l -1.983044,0.958824 -0.467148,2.216176 c -0.544049,2.581008 -2.621655,5.501384 -3.531783,6.328992 -2.326149,2.115239 -4.097809,3.564307 -5.895109,4.372303 -1.236677,0.555962 -2.427552,1.144262 -2.645833,1.308571 -0.714642,0.53794 -2.789928,1.034865 -6.217708,1.488826 -3.012527,0.398965 -4.558345,0.433186 -6.18178,0.136856 z m 4.995409,-4.599858 c 0.48179,-0.247505 0.748855,-0.633982 1.048772,-0.992285 0.454673,-0.543187 0.103571,-0.926907 -1.663645,-1.821037 -1.671706,-0.845807 -2.132606,-0.740958 -2.840235,0.646109 -0.692162,1.356749 -0.662012,1.529389 0.342,1.958282 0.89716,0.383248 1.94578,0.808612 3.113108,0.208931 z m -6.662127,-1.244365 c 1.336123,-0.50223 1.274839,-1.071058 1.617948,-1.837773 0.138794,-0.310151 0.161775,-1.141359 -0.470036,-1.830782 -0.359024,-0.391762 -0.836195,-0.822885 -1.280837,-0.796203 -0.589826,0.03539 -0.952347,0.07128 -1.499391,0.709326 -0.593807,0.692583 -0.861115,1.398009 -0.86057,1.575648 0.0048,1.564684 1.951652,2.383226 2.492886,2.179784 z m 11.817248,-1.816147 c 0.988886,-0.558683 1.06344,-0.684517 1.136142,-1.917613 0.07441,-1.262078 0.0418,-1.333286 -0.74689,-1.630984 -1.105344,-0.417222 -1.328099,-0.291856 -2.30551,1.297527 -0.815323,1.325809 -0.825834,1.381837 -0.395796,2.109835 0.531971,0.900555 0.925487,0.924593 2.312054,0.141235 z m -14.527569,-2.595465 c 0.276872,-0.30594 0.83815,-0.729357 1.247285,-0.940929 0.615776,-0.318431 0.729793,-0.530199 0.662083,-1.229683 -0.06641,-0.686083 -0.277281,-0.94043 -1.121188,-1.35237 -0.346464,-0.169121 -1.039391,-0.507362 -1.039391,-0.507362 0,0 -0.491276,0.58847 -0.736915,0.882705 -0.619713,0.742315 -0.731011,1.107049 -0.699801,2.2933 0.03313,1.259297 0.09865,1.410594 0.610819,1.410594 0.315537,0 0.800236,-0.250314 1.077108,-0.556255 z m 10.401447,-0.389286 c 1.682864,-1.416034 1.638575,-4.108463 -0.09612,-5.843154 -0.823039,-0.823039 -0.940559,-0.859279 -2.291397,-0.706577 -2.772463,0.313404 -3.816165,1.349483 -3.732628,3.705365 0.02781,0.784405 0.179308,1.666742 0.336656,1.96075 0.874826,1.634625 4.273804,2.153931 5.783484,0.883616 z m 6.682867,-3.144663 c 0.655988,-1.439735 -1.382456,-2.781378 -2.80738,-1.847731 -0.374891,0.245638 -0.753051,0.731211 -0.840351,1.079045 -0.251797,1.003242 0.311865,1.419307 1.922804,1.419307 1.260615,0 1.463321,-0.07646 1.724927,-0.650621 z m -2.826147,-3.747984 c 0.663482,-0.663481 0.410483,-1.538347 -0.474202,-1.639784 -0.408982,-0.04689 -0.914997,0.05698 -1.124479,0.230835 -0.391836,0.325195 -0.517783,1.349117 -0.204486,1.662414 0.326543,0.326543 1.369805,0.179895 1.803167,-0.253465 z m -16.98446,14.389171 c -1.009458,-0.507265 -1.591399,-1.155375 -1.299507,-1.447266 0.172455,-0.172455 2.666706,1.150898 3.058115,1.622518 0.294892,0.355322 0.27271,0.41507 -0.148911,0.401103 -0.27248,-0.009 -0.996843,-0.268388 -1.609697,-0.576355 z M -68.262497,72.112725 c 0,-0.192632 0.226482,-0.794471 0.503293,-1.33742 0.352498,-0.691404 0.46097,-1.302718 0.362037,-2.040319 -0.08511,-0.634516 -0.03349,-1.053139 0.129858,-1.053139 0.623581,0 0.797726,1.977617 0.299898,3.405687 -0.310737,0.891383 -1.295086,1.670594 -1.295086,1.025191 z m 26.722915,-9.149689 c 0,-0.491037 0.319278,-1.102022 0.575876,-1.102022 0.367901,0 0.147979,1.128627 -0.245147,1.258095 -0.181901,0.05991 -0.330729,-0.01033 -0.330729,-0.156073 z"
       id="path907"
       inkscape:connector-curvature="0"
       sodipodi:nodetypes="cssscccscsscscsscccssscssscsscsssscsssscccscssccscsssssscssscssscsscscccccscccssscsccccccssscsccccscsscccscscsssccssssccccccsscccscccccscsscscsscscccccccssscscsssssccssssssssssssssssssssssscssssccsccccssssssssssscccssscssssscs" />
    <circle
       style="fill:#ffffff;fill-opacity:1;stroke:none;stroke-width:0.18237984;stroke-linecap:butt;stroke-miterlimit:4;stroke-dasharray:none;stroke-dashoffset:0;stroke-opacity:1"
       id="path911"
       cx="-42.191647"
       cy="83.379066"
       r="0.75" />
  </g>
</svg>
