<?xml version="1.0" standalone="no"?>
<!DOCTYPE svg PUBLIC "-//W3C//DTD SVG 20010904//EN"
 "http://www.w3.org/TR/2001/REC-SVG-20010904/DTD/svg10.dtd">
<svg version="1.0" xmlns="http://www.w3.org/2000/svg"
 width="512.000000pt" height="512.000000pt" viewBox="0 0 512.000000 512.000000"
 preserveAspectRatio="xMidYMid meet">
<metadata>
Created by potrace 1.15, written by Peter Selinger 2001-2017
</metadata>
<g transform="translate(0.000000,512.000000) scale(0.100000,-0.100000)"
fill="#ffffff" stroke="none">
<path d="M2326 4759 c-38 -5 -72 -11 -74 -14 -2 -2 4 -45 14 -95 18 -88 19
-90 44 -85 42 9 212 25 268 25 l52 0 0 44 c0 24 3 64 6 90 l7 46 -124 -1 c-68
-1 -155 -6 -193 -10z"/>
<path d="M2816 4738 c-7 -23 -28 -170 -24 -172 1 -1 39 -10 83 -20 44 -10 116
-31 159 -47 44 -16 80 -28 82 -26 10 11 74 149 74 159 0 20 -295 117 -358 118
-7 0 -14 -6 -16 -12z"/>
<path d="M1960 4655 c-119 -49 -240 -112 -240 -125 0 -5 21 -42 47 -83 l47
-75 114 59 c63 32 132 64 153 71 21 6 39 16 39 21 0 18 -41 162 -48 169 -4 3
-54 -13 -112 -37z"/>
<path d="M3310 4484 c-29 -42 -48 -79 -43 -84 4 -4 44 -38 88 -75 44 -38 96
-87 117 -109 l36 -40 57 45 c84 65 85 65 85 77 0 24 -208 215 -277 256 -8 4
-30 -21 -63 -70z"/>
<path d="M1534 4378 c-69 -74 -212 -274 -202 -283 10 -10 149 -85 157 -85 6 0
30 30 54 68 24 37 67 95 95 129 29 34 52 66 52 70 0 5 -28 37 -63 71 l-63 62
-30 -32z"/>
<path d="M3683 4094 l-81 -45 35 -77 c19 -42 48 -113 63 -157 15 -44 32 -80
36 -79 40 4 174 39 174 45 0 21 -76 222 -108 285 l-37 73 -82 -45z"/>
<path d="M1230 3828 c-27 -114 -46 -258 -37 -281 5 -14 21 -17 95 -17 l89 0 7
71 c3 39 16 114 27 166 11 52 19 96 17 98 -5 5 -158 55 -167 55 -5 0 -19 -42
-31 -92z"/>
<path d="M3804 3583 l-62 -4 4 -182 4 -182 89 -3 90 -3 3 103 c2 57 2 142 0
191 l-3 87 -32 -2 c-18 -1 -60 -3 -93 -5z"/>
<path d="M1190 3175 l0 -185 90 0 90 0 0 185 0 185 -90 0 -90 0 0 -185z"/>
<path d="M3750 2855 l0 -185 90 0 90 0 0 185 0 185 -90 0 -90 0 0 -185z"/>
<path d="M1190 2635 l0 -185 90 0 90 0 0 185 0 185 -90 0 -90 0 0 -185z"/>
<path d="M3750 2315 l0 -185 90 0 90 0 0 185 0 185 -90 0 -90 0 0 -185z"/>
<path d="M1190 2095 l0 -185 90 0 90 0 0 185 0 185 -90 0 -90 0 0 -185z"/>
<path d="M3040 2040 l0 -90 240 0 240 0 0 90 0 90 -240 0 -240 0 0 -90z"/>
<path d="M3750 1780 l0 -180 90 0 90 0 0 180 0 180 -90 0 -90 0 0 -180z"/>
<path d="M1190 1555 l0 -185 90 0 90 0 0 185 0 185 -90 0 -90 0 0 -185z"/>
<path d="M3750 1240 l0 -180 90 0 90 0 0 180 0 180 -90 0 -90 0 0 -180z"/>
<path d="M1190 1015 l0 -185 90 0 90 0 0 185 0 185 -90 0 -90 0 0 -185z"/>
<path d="M3750 700 l0 -180 90 0 90 0 0 180 0 180 -90 0 -90 0 0 -180z"/>
<path d="M1185 638 c-3 -13 -4 -81 -3 -153 l3 -130 198 -3 197 -2 0 90 0 90
-105 0 -105 0 0 65 0 65 -90 0 c-85 0 -90 -1 -95 -22z"/>
<path d="M1750 440 l0 -90 185 0 185 0 0 90 0 90 -185 0 -185 0 0 -90z"/>
<path d="M2290 440 l0 -90 185 0 185 0 0 90 0 90 -185 0 -185 0 0 -90z"/>
<path d="M2830 440 l0 -90 185 0 185 0 0 90 0 90 -185 0 -185 0 0 -90z"/>
<path d="M3370 440 l0 -90 185 0 185 0 0 90 0 90 -185 0 -185 0 0 -90z"/>
</g>
</svg>
