<?xml version="1.0" standalone="no"?>
<!DOCTYPE svg PUBLIC "-//W3C//DTD SVG 20010904//EN"
 "http://www.w3.org/TR/2001/REC-SVG-20010904/DTD/svg10.dtd">
<svg version="1.0" xmlns="http://www.w3.org/2000/svg"
 width="512.000000pt" height="512.000000pt" viewBox="0 0 512.000000 512.000000"
 preserveAspectRatio="xMidYMid meet">
<metadata>
Created by potrace 1.15, written by Peter Selinger 2001-2017
</metadata>
<g transform="translate(0.000000,512.000000) scale(0.100000,-0.100000)"
fill="#ffffff" stroke="none">
<path d="M2760 2550 l0 -2370 39 0 c68 0 213 30 321 66 530 179 974 755 1164
1512 126 502 124 1076 -4 1592 -150 602 -466 1093 -875 1359 -184 121 -352
179 -592 206 l-53 6 0 -2371z m1399 274 l34 -7 -6 -111 c-16 -286 -82 -438
-219 -505 -97 -48 -184 -57 -380 -41 -90 7 -263 15 -385 17 -123 3 -223 7
-223 9 0 2 11 34 25 71 94 249 243 420 440 505 156 67 229 78 475 73 113 -3
220 -8 239 -11z"/>
<path d="M1405 2845 c-5 -2 -46 -7 -89 -10 l-79 -7 6 -141 c4 -93 13 -168 26
-218 74 -284 213 -352 646 -315 106 9 275 17 375 17 l181 0 -7 22 c-3 12 -22
60 -41 107 -155 381 -424 552 -867 549 -77 0 -145 -2 -151 -4z"/>
</g>
</svg>
