<?xml version="1.0" standalone="no"?>
<!DOCTYPE svg PUBLIC "-//W3C//DTD SVG 20010904//EN"
 "http://www.w3.org/TR/2001/REC-SVG-20010904/DTD/svg10.dtd">
<svg version="1.0" xmlns="http://www.w3.org/2000/svg"
 width="512.000000pt" height="512.000000pt" viewBox="0 0 512.000000 512.000000"
 preserveAspectRatio="xMidYMid meet">
<metadata>
Created by potrace 1.15, written by Peter Selinger 2001-2017
</metadata>
<g transform="translate(0.000000,512.000000) scale(0.100000,-0.100000)"
fill="#ffffff" stroke="none">
<path d="M190 4762 l0 -177 1333 -1332 c1460 -1460 1376 -1383 1498 -1383 103
0 206 76 240 177 18 57 7 161 -23 208 -14 22 -619 635 -1344 1363 l-1319 1323
-192 -1 -193 0 0 -178z"/>
<path d="M4068 2927 c-37 -7 -70 -15 -74 -19 -7 -7 58 -142 80 -165 8 -9 29
-9 90 -1 57 8 100 8 162 0 195 -26 321 -118 382 -280 36 -97 42 -268 13 -409
-35 -167 -27 -170 -120 48 -45 107 -94 222 -109 256 -14 34 -28 60 -31 58 -2
-3 -24 -150 -47 -326 -24 -177 -45 -324 -47 -325 -2 -2 -34 40 -72 94 -38 53
-112 155 -165 227 l-95 130 -3 -75 c-2 -41 -6 -174 -10 -296 l-7 -220 -182 88
-183 88 49 67 c104 144 176 306 206 466 28 149 15 264 -44 373 -46 86 -124
149 -224 182 -115 38 -291 28 -438 -23 -76 -27 -199 -88 -199 -99 0 -6 30 -41
66 -77 l67 -67 64 29 c96 43 178 62 273 63 78 1 90 -2 140 -30 78 -44 110
-106 110 -214 0 -135 -50 -282 -147 -434 -223 -347 -614 -618 -893 -619 -134
-1 -202 39 -240 140 -35 94 -20 227 43 373 l34 78 -73 73 -72 72 -40 -79
c-175 -349 -132 -676 105 -801 208 -110 535 -45 831 164 35 25 65 43 68 41 2
-3 44 -87 93 -189 l89 -184 -42 -7 c-22 -3 -97 -7 -166 -7 -227 -2 -411 -13
-401 -25 5 -6 106 -81 224 -166 118 -85 214 -156 214 -157 -1 0 -149 -20 -329
-44 -181 -24 -328 -46 -328 -49 0 -3 106 -50 236 -105 129 -54 237 -102 239
-106 9 -14 -181 -44 -275 -44 -268 1 -435 128 -487 368 -15 70 -13 238 2 279
5 12 -13 27 -78 62 -46 25 -89 46 -94 46 -17 0 -34 -137 -34 -266 1 -341 169
-577 471 -661 104 -29 342 -24 485 9 581 136 1201 632 1547 1238 162 284 248
584 234 820 -11 211 -64 341 -185 460 -135 133 -256 180 -481 185 -77 2 -164
-1 -202 -8z"/>
</g>
</svg>
