<?xml version="1.0" standalone="no"?>
<!DOCTYPE svg PUBLIC "-//W3C//DTD SVG 20010904//EN"
 "http://www.w3.org/TR/2001/REC-SVG-20010904/DTD/svg10.dtd">
<svg version="1.0" xmlns="http://www.w3.org/2000/svg"
 width="512.000000pt" height="512.000000pt" viewBox="0 0 512.000000 512.000000"
 preserveAspectRatio="xMidYMid meet">
<metadata>
Created by potrace 1.15, written by Peter Selinger 2001-2017
</metadata>
<g transform="translate(0.000000,512.000000) scale(0.100000,-0.100000)"
fill="#ffffff" stroke="none">
<path d="M3999 4924 c-71 -77 -213 -165 -298 -184 -130 -30 -265 5 -473 122
-37 21 -71 38 -75 38 -4 0 40 -47 97 -103 149 -147 189 -211 190 -303 0 -80
-52 -180 -152 -289 -26 -29 -48 -56 -48 -59 0 -3 39 23 88 59 245 182 373 203
676 109 43 -14 81 -22 84 -19 3 3 -8 20 -24 38 -81 87 -134 188 -141 267 -7
71 14 144 73 262 45 90 46 108 3 62z"/>
<path d="M4855 4644 c-268 -224 -616 -454 -935 -620 l-55 -29 -7 -105 c-24
-388 -174 -716 -499 -1095 -326 -380 -909 -795 -1561 -1109 -418 -202 -799
-355 -1273 -512 l-280 -92 -3 -211 c-1 -116 -1 -211 0 -211 8 0 163 34 311 68
l169 39 -6 -29 c-18 -93 -142 -262 -240 -329 -20 -13 -36 -27 -36 -30 0 -3 37
5 82 18 265 77 391 43 625 -169 24 -21 47 -38 52 -38 5 0 2 21 -6 47 -8 27
-16 84 -16 128 -2 65 2 88 20 121 41 76 152 169 300 250 29 16 53 32 53 35 0
4 -33 -1 -73 -12 -190 -48 -345 -43 -464 16 -40 20 -73 39 -73 43 0 4 71 27
158 51 185 52 559 176 757 251 352 133 822 357 1090 520 66 40 134 81 151 92
l32 19 11 -64 c6 -35 11 -111 11 -168 0 -219 -75 -377 -287 -599 -52 -55 -92
-100 -89 -100 4 0 55 24 114 54 426 213 691 244 921 109 36 -21 110 -82 165
-135 56 -54 102 -98 103 -98 1 0 -21 37 -49 82 -114 184 -178 358 -178 486 0
166 91 345 291 572 44 50 79 93 77 95 -1 1 -43 -26 -91 -60 -115 -83 -251
-150 -357 -176 -146 -37 -292 -13 -422 70 l-60 38 114 85 c823 612 1316 1367
1482 2268 30 164 58 403 54 460 l-3 41 -80 -67z"/>
<path d="M2404 4393 c4 -9 7 -73 7 -142 1 -236 -44 -363 -197 -563 -24 -31
-44 -59 -44 -63 0 -3 26 13 58 37 191 145 281 178 507 187 l150 6 -75 39
c-108 56 -182 108 -229 163 -48 55 -122 200 -148 290 -10 35 -22 63 -27 63 -4
0 -5 -7 -2 -17z"/>
<path d="M1241 3898 c-136 -262 -291 -424 -487 -511 -107 -47 -215 -68 -382
-74 -84 -3 -150 -9 -145 -13 4 -4 40 -19 78 -34 137 -53 254 -126 340 -211
154 -152 216 -316 256 -680 6 -61 15 -116 19 -123 4 -9 19 22 39 78 129 369
252 525 434 550 69 10 171 -6 260 -41 27 -11 51 -18 53 -16 2 1 -40 39 -93 82
-105 87 -209 209 -249 293 -14 29 -35 88 -47 130 -20 71 -22 99 -21 375 0 163
0 297 -1 297 0 0 -25 -46 -54 -102z"/>
<path d="M3620 3883 c-134 -60 -415 -150 -570 -183 -30 -6 -101 -17 -158 -25
-57 -7 -105 -15 -106 -17 -1 -1 -9 -34 -19 -73 -122 -488 -938 -1134 -2242
-1774 -132 -65 -250 -122 -262 -125 -23 -7 -23 -9 -23 -212 0 -112 3 -204 6
-204 40 0 623 206 891 316 610 248 1148 537 1529 819 579 430 912 876 999
1338 9 48 15 104 13 126 l-3 39 -55 -25z"/>
<path d="M4661 2870 c-7 -25 -19 -72 -28 -105 -8 -33 -34 -98 -56 -145 -48
-102 -132 -190 -274 -290 -51 -36 -93 -68 -93 -71 0 -4 30 0 68 8 37 9 120 16
187 16 166 1 248 -25 420 -137 38 -24 71 -43 73 -41 2 1 -17 29 -41 62 -113
149 -184 285 -213 409 -9 38 -19 130 -23 204 -7 131 -7 134 -20 90z"/>
<path d="M2535 1039 c-67 -94 -211 -230 -307 -289 -127 -78 -317 -130 -535
-147 -46 -3 -83 -9 -83 -13 0 -4 24 -11 53 -14 28 -4 108 -18 177 -32 289 -57
408 -112 634 -293 49 -39 91 -69 93 -67 2 2 -12 50 -32 107 -48 138 -69 262
-61 364 8 107 55 277 121 438 16 37 -12 12 -60 -54z"/>
</g>
</svg>
