<?xml version="1.0" standalone="no"?>
<!DOCTYPE svg PUBLIC "-//W3C//DTD SVG 20010904//EN"
 "http://www.w3.org/TR/2001/REC-SVG-20010904/DTD/svg10.dtd">
<svg version="1.0" xmlns="http://www.w3.org/2000/svg"
 width="512.000000pt" height="512.000000pt" viewBox="0 0 512.000000 512.000000"
 preserveAspectRatio="xMidYMid meet">
<metadata>
Created by potrace 1.15, written by Peter Selinger 2001-2017
</metadata>
<g transform="translate(0.000000,512.000000) scale(0.100000,-0.100000)"
fill="#ffffff" stroke="none">
<path d="M2470 4823 c-161 -12 -400 -65 -400 -88 0 -6 11 -45 25 -85 14 -40
24 -74 22 -75 -2 -1 -1373 -480 -1767 -617 -96 -34 -176 -62 -177 -63 -6 -3
59 -185 66 -185 4 0 176 59 381 131 206 72 452 158 545 190 595 208 1150 403
1152 404 2 1 -8 35 -22 75 -14 40 -25 77 -25 81 0 30 398 46 512 21 l56 -13
-29 -81 c-16 -44 -28 -81 -27 -83 2 -1 224 -79 493 -173 270 -94 567 -198 660
-231 94 -32 339 -118 545 -190 205 -72 377 -131 381 -131 7 0 72 181 66 185
-1 1 -29 11 -62 23 -33 11 -150 51 -260 90 -264 92 -1577 551 -1591 556 -8 3
-2 32 17 87 17 46 26 86 21 91 -30 30 -401 93 -509 86 -15 -1 -48 -3 -73 -5z"/>
<path d="M2335 4254 c-115 -41 -289 -102 -385 -135 -96 -34 -294 -103 -440
-154 -146 -51 -440 -155 -654 -229 -215 -75 -392 -139 -395 -141 -2 -3 -2 -6
0 -8 11 -9 406 -284 416 -290 7 -4 43 -2 80 4 44 8 223 12 508 13 427 1 443 2
535 25 216 53 350 154 440 331 56 111 107 304 111 420 1 19 9 -14 19 -73 23
-137 71 -287 118 -368 49 -84 162 -196 237 -236 155 -81 349 -104 850 -101
198 1 328 -2 381 -10 l82 -13 173 122 c238 168 242 170 232 180 -7 7 -289 108
-1223 436 -195 68 -469 165 -608 214 -139 49 -256 89 -260 88 -4 0 -101 -34
-217 -75z"/>
<path d="M2529 3477 c-80 -104 -163 -173 -274 -229 -64 -33 -190 -74 -249 -83
-25 -4 -46 -11 -46 -15 0 -4 73 -137 161 -296 89 -159 180 -323 203 -365 l43
-75 -334 -83 c-183 -46 -333 -86 -333 -88 0 -3 67 -137 148 -298 l148 -292
-150 131 c-319 280 -441 384 -444 381 -2 -2 0 -10 5 -18 31 -53 1428 -1996
1430 -1990 2 5 -28 80 -66 168 -408 945 -519 1207 -508 1195 8 -8 117 -151
242 -318 219 -291 257 -338 241 -296 -98 249 -386 1007 -384 1009 2 1 131 24
288 50 157 27 286 49 288 51 2 1 -30 107 -72 235 -41 128 -74 235 -72 237 2 2
14 -14 27 -35 74 -121 871 -1315 875 -1311 2 3 -91 234 -207 514 -116 280
-237 572 -269 649 -81 196 -269 654 -286 693 -7 17 -12 32 -10 32 1 0 119
-171 262 -380 142 -209 262 -380 266 -380 5 0 -93 392 -205 824 l-13 50 -112
22 c-228 45 -381 131 -502 280 l-59 74 -32 -43z"/>
</g>
</svg>
