<?xml version="1.0" standalone="no"?>
<!DOCTYPE svg PUBLIC "-//W3C//DTD SVG 20010904//EN"
 "http://www.w3.org/TR/2001/REC-SVG-20010904/DTD/svg10.dtd">
<svg version="1.0" xmlns="http://www.w3.org/2000/svg"
 width="512.000000pt" height="512.000000pt" viewBox="0 0 512.000000 512.000000"
 preserveAspectRatio="xMidYMid meet">
<metadata>
Created by potrace 1.15, written by Peter Selinger 2001-2017
</metadata>
<g transform="translate(0.000000,512.000000) scale(0.100000,-0.100000)"
fill="#ffffff" stroke="none">
<path d="M1600 4676 l0 -265 -36 -38 c-304 -325 -533 -852 -595 -1373 -6 -52
-14 -117 -17 -145 l-7 -50 -90 -34 c-165 -61 -279 -82 -483 -88 l-182 -6 0
-93 0 -94 143 0 c78 0 185 -7 237 -15 114 -18 345 -90 371 -116 12 -12 19 -33
19 -55 0 -48 26 -224 50 -342 85 -410 272 -805 514 -1084 l76 -88 0 -295 0
-295 100 0 100 0 0 210 0 210 76 -51 c324 -218 724 -266 1094 -133 94 33 198
85 272 135 31 22 59 39 62 39 4 0 6 -92 6 -205 l0 -205 100 0 100 0 0 296 0
295 46 49 c300 317 521 835 590 1384 9 72 19 134 23 137 12 11 135 57 211 78
133 36 246 51 401 51 l149 0 0 94 0 93 -187 6 c-211 6 -326 27 -488 89 l-90
35 -12 109 c-62 571 -259 1061 -567 1416 l-76 88 0 260 0 260 -100 0 -100 0
-2 -174 -3 -175 -60 40 c-206 138 -439 209 -681 209 -250 0 -451 -57 -664
-189 l-95 -59 -3 174 -2 174 -100 0 -100 0 0 -264z m1121 -41 c195 -36 362
-115 527 -248 l63 -51 -3 -486 -3 -487 -42 -85 c-67 -135 -203 -268 -348 -341
-27 -13 -88 -37 -135 -53 -76 -25 -100 -28 -220 -28 -157 -1 -219 12 -344 75
-158 78 -283 194 -355 328 -58 109 -61 140 -60 631 l0 445 60 50 c79 67 233
157 331 195 173 66 363 85 529 55z m874 -644 c171 -268 300 -632 349 -987 l13
-91 -46 29 c-215 135 -361 313 -390 472 -6 35 -11 194 -11 379 0 364 -9 344
85 198z m-2016 -645 c-30 -82 -89 -163 -176 -247 -82 -77 -230 -185 -240 -175
-10 9 25 224 57 354 62 253 185 542 312 732 l63 94 3 -351 c2 -335 1 -354 -19
-407z m226 -481 c138 -26 235 -70 397 -178 92 -62 108 -76 108 -99 0 -30 -41
-68 -144 -133 -291 -185 -561 -209 -825 -75 -67 34 -216 139 -255 179 l-28 30
37 33 c239 212 467 290 710 243z m1690 5 c144 -23 294 -93 460 -214 l95 -69
-86 -67 c-137 -108 -292 -183 -447 -215 -217 -47 -449 26 -669 208 -42 34 -48
44 -48 75 1 32 8 43 56 82 206 169 419 236 639 200z m-759 -570 c227 -58 431
-216 527 -409 l42 -84 3 -468 3 -468 -75 -59 c-239 -191 -490 -272 -771 -250
-204 16 -433 116 -618 271 l-48 40 3 456 c3 448 3 457 26 512 89 222 323 411
572 464 99 21 243 19 336 -5z m-1488 -101 c42 -29 120 -96 173 -149 76 -77
105 -115 135 -176 l39 -78 3 -350 3 -350 -33 44 c-127 176 -248 434 -319 680
-42 146 -97 430 -84 430 3 0 41 -23 83 -51z m2697 -1 c-23 -179 -90 -434 -160
-608 -60 -148 -116 -258 -199 -385 l-71 -110 -3 75 c-2 41 -2 192 0 335 3 236
5 265 24 316 43 114 152 243 289 343 73 54 118 85 123 85 2 1 1 -23 -3 -51z"/>
<path d="M2446 4459 c-125 -30 -276 -151 -355 -286 -84 -141 -129 -340 -116
-508 27 -350 208 -611 471 -680 287 -75 575 147 666 513 31 122 31 320 0 444
-63 257 -228 452 -431 512 -59 17 -172 20 -235 5z"/>
<path d="M1635 2756 c-74 -33 -109 -94 -103 -178 7 -98 70 -158 166 -158 191
0 251 241 82 331 -40 22 -102 24 -145 5z"/>
<path d="M3333 2751 c-48 -22 -91 -80 -100 -134 -11 -67 33 -148 99 -183 35
-18 121 -18 157 1 128 66 126 252 -2 314 -53 26 -99 26 -154 2z"/>
</g>
</svg>
