<?xml version="1.0" standalone="no"?>
<!DOCTYPE svg PUBLIC "-//W3C//DTD SVG 20010904//EN"
 "http://www.w3.org/TR/2001/REC-SVG-20010904/DTD/svg10.dtd">
<svg version="1.0" xmlns="http://www.w3.org/2000/svg"
 width="512.000000pt" height="512.000000pt" viewBox="0 0 512.000000 512.000000"
 preserveAspectRatio="xMidYMid meet">
<metadata>
Created by potrace 1.15, written by Peter Selinger 2001-2017
</metadata>
<g transform="translate(0.000000,512.000000) scale(0.100000,-0.100000)"
fill="#ffffff" stroke="none">
<path d="M1080 4883 c-20 -78 -14 -298 10 -374 45 -146 182 -283 347 -348 90
-35 345 -72 598 -86 61 -4 116 -8 123 -11 8 -2 1 -19 -22 -48 -65 -85 -80
-143 -80 -301 0 -154 13 -222 67 -355 73 -178 194 -328 312 -386 75 -36 170
-44 242 -20 66 22 174 105 228 176 214 278 267 687 116 886 l-39 51 118 7
c144 8 401 40 495 62 147 34 284 121 357 226 74 106 98 180 98 307 0 92 -20
261 -30 261 -4 0 -10 -20 -13 -45 -22 -160 -175 -330 -361 -400 -91 -34 -124
-41 -331 -64 -507 -57 -999 -57 -1510 0 -220 24 -286 40 -392 90 -151 72 -281
233 -299 370 -4 27 -10 49 -14 49 -4 0 -13 -21 -20 -47z"/>
<path d="M1715 3933 c-575 -38 -1023 -191 -1283 -437 -87 -83 -128 -137 -176
-234 -90 -177 -101 -408 -31 -617 120 -356 468 -713 914 -935 126 -63 355
-153 460 -181 l84 -23 34 40 c48 57 102 169 114 243 30 171 -56 358 -197 427
-48 24 -63 26 -133 22 -88 -5 -140 -29 -218 -101 -24 -22 -46 -37 -49 -34 -3
3 -23 46 -45 97 -159 369 -133 678 69 813 23 14 27 13 83 -22 354 -224 640
-647 750 -1110 18 -74 48 -269 49 -312 0 -9 -33 -41 -72 -72 -85 -64 -230
-202 -316 -302 -83 -96 -202 -257 -202 -273 0 -8 56 -96 125 -197 69 -101 125
-186 125 -189 0 -2 -90 -55 -200 -118 -110 -62 -200 -116 -200 -120 0 -5 185
-8 410 -8 226 0 410 2 410 5 0 3 -23 33 -51 67 -103 129 -154 285 -131 403 45
220 240 369 503 382 182 10 323 -36 438 -142 181 -168 189 -427 18 -637 -24
-29 -46 -59 -51 -65 -6 -10 78 -13 406 -13 345 0 410 2 398 13 -13 12 -167
103 -332 196 l-57 32 131 193 c118 175 129 195 118 215 -6 13 -65 89 -129 169
-122 152 -306 337 -404 407 -52 37 -56 43 -57 82 0 59 36 263 66 366 105 369
325 713 594 929 25 20 78 59 119 87 l73 50 45 -30 c164 -113 199 -397 88 -703
-18 -51 -45 -116 -59 -145 l-27 -53 -45 42 c-200 185 -469 103 -538 -165 -39
-149 0 -306 107 -430 l34 -39 94 28 c117 34 348 126 454 179 96 48 272 159
358 224 290 221 495 499 569 775 31 116 31 300 0 411 -69 244 -246 438 -529
581 -251 126 -623 209 -1042 232 l-124 7 7 -34 c29 -147 30 -232 0 -395 -50
-282 -231 -564 -437 -682 -266 -152 -551 -54 -764 263 -163 243 -229 567 -166
823 5 21 3 22 -63 20 -38 -1 -91 -3 -119 -5z"/>
</g>
</svg>
