<?xml version="1.0" standalone="no"?>
<!DOCTYPE svg PUBLIC "-//W3C//DTD SVG 20010904//EN"
 "http://www.w3.org/TR/2001/REC-SVG-20010904/DTD/svg10.dtd">
<svg version="1.0" xmlns="http://www.w3.org/2000/svg"
 width="512.000000pt" height="512.000000pt" viewBox="0 0 512.000000 512.000000"
 preserveAspectRatio="xMidYMid meet">
<metadata>
Created by potrace 1.15, written by Peter Selinger 2001-2017
</metadata>
<g transform="translate(0.000000,512.000000) scale(0.100000,-0.100000)"
fill="#ffffff" stroke="none">
<path d="M4579 4882 c-152 -97 -391 -179 -642 -221 -222 -38 -348 -43 -1192
-51 -491 -5 -877 -13 -930 -19 -555 -68 -811 -197 -1064 -537 -161 -218 -262
-466 -307 -759 -22 -145 -15 -427 14 -560 67 -306 214 -548 426 -704 61 -45
220 -131 243 -131 7 0 50 24 96 54 322 211 756 284 1162 196 53 -12 99 -19
102 -17 11 12 23 158 17 222 -20 235 -82 404 -212 574 -167 219 -477 383 -771
408 l-75 6 45 14 c148 45 408 58 569 28 104 -19 262 -73 355 -123 l70 -37 115
57 c237 118 506 148 777 85 l102 -23 21 48 c64 148 47 332 -43 470 -49 75
-109 130 -202 184 l-80 46 60 -6 c33 -3 90 -15 127 -26 l67 -21 48 35 c109 77
203 108 331 107 153 0 262 -43 363 -141 31 -30 69 -80 84 -110 l28 -55 -44 36
c-104 83 -192 114 -308 107 -92 -6 -175 -37 -233 -85 -24 -19 -45 -39 -46 -44
-2 -5 12 -31 32 -58 46 -62 91 -158 112 -241 24 -90 24 -256 0 -335 l-18 -59
24 -19 c225 -178 355 -395 403 -672 7 -44 12 -81 10 -83 -1 -2 -21 31 -44 72
-62 113 -174 240 -277 314 -223 161 -520 204 -784 114 -91 -31 -200 -88 -200
-104 0 -5 8 -22 19 -36 75 -106 168 -351 195 -511 20 -116 20 -321 1 -416
l-13 -70 43 -45 c131 -138 236 -305 302 -479 28 -75 68 -234 77 -306 4 -27 9
-63 12 -80 4 -21 -6 -9 -35 42 -75 136 -144 228 -250 334 -164 163 -327 259
-539 317 -89 24 -112 26 -287 26 -209 0 -265 -8 -416 -64 -68 -24 -245 -114
-268 -136 -6 -6 16 -44 84 -149 144 -221 339 -419 550 -558 365 -240 808 -305
1205 -177 95 31 276 120 361 178 478 324 803 949 903 1742 52 408 45 943 -20
1420 -19 142 -70 452 -89 540 -33 155 -87 390 -103 453 l-17 68 -46 -29z"/>
<path d="M2983 3219 c-131 -17 -272 -67 -402 -144 -45 -26 -83 -50 -86 -55 -3
-4 16 -52 41 -105 165 -354 189 -679 68 -915 -18 -36 -37 -71 -42 -78 -8 -11
-29 -9 -118 15 -103 26 -120 28 -314 28 -231 -1 -308 -13 -499 -80 -267 -93
-538 -276 -718 -485 -41 -47 -138 -155 -217 -240 -177 -192 -187 -204 -322
-372 -169 -209 -170 -212 -154 -256 20 -56 75 -137 125 -186 84 -80 196 -121
362 -132 85 -6 93 -5 99 12 93 268 259 623 381 817 252 399 449 578 738 675
228 77 528 83 806 17 101 -23 94 -28 123 93 40 173 49 260 43 431 -8 231 -57
397 -161 548 l-36 52 58 51 c33 29 99 71 157 100 247 122 514 138 739 45 14
-6 17 -5 12 4 -13 20 -163 90 -259 121 -140 44 -284 58 -424 39z"/>
</g>
</svg>
