<?xml version="1.0" standalone="no"?>
<!DOCTYPE svg PUBLIC "-//W3C//DTD SVG 20010904//EN"
 "http://www.w3.org/TR/2001/REC-SVG-20010904/DTD/svg10.dtd">
<svg version="1.0" xmlns="http://www.w3.org/2000/svg"
 width="512.000000pt" height="512.000000pt" viewBox="0 0 512.000000 512.000000"
 preserveAspectRatio="xMidYMid meet">
<metadata>
Created by potrace 1.15, written by Peter Selinger 2001-2017
</metadata>
<g transform="translate(0.000000,512.000000) scale(0.100000,-0.100000)"
fill="#ffffff" stroke="none">
<path d="M2342 4846 c-21 -26 -303 -469 -300 -471 12 -9 186 -133 195 -139 7
-4 94 -2 193 4 l181 10 114 77 114 76 -24 41 c-14 22 -71 121 -127 218 -116
201 -94 184 -250 191 -58 3 -90 1 -96 -7z"/>
<path d="M621 4774 c-15 -91 -45 -181 -69 -207 -29 -33 -66 -46 -163 -57 -152
-18 -155 -20 -50 -41 208 -40 288 -123 292 -298 l1 -56 9 40 c5 22 13 66 19
97 24 124 94 173 315 223 43 9 17 20 -80 35 -109 16 -159 41 -192 97 -30 51
-53 138 -53 201 0 66 -15 49 -29 -34z"/>
<path d="M2930 4587 c0 -3 76 -137 170 -297 l169 -292 -107 -151 c-59 -82
-126 -171 -149 -197 l-42 -47 26 -39 c121 -182 236 -345 239 -341 3 3 -5 73
-16 156 l-21 152 212 465 c146 321 208 468 200 473 -6 4 -152 31 -324 60 -171
29 -322 55 -334 58 -13 3 -23 3 -23 0z"/>
<path d="M1627 4416 c-152 -46 -280 -85 -283 -88 -3 -3 17 -50 44 -104 l49
-97 -88 -141 c-48 -77 -86 -142 -84 -144 2 -3 72 1 155 8 84 6 153 10 155 8 1
-1 38 -75 82 -163 l80 -160 27 -415 27 -415 166 -160 c92 -88 171 -160 176
-160 6 0 42 132 81 293 39 160 73 292 76 292 3 -1 106 -145 229 -321 124 -176
228 -322 233 -325 4 -3 131 84 283 193 l276 198 -5 52 c-5 44 -18 69 -84 165
-43 62 -145 212 -227 333 -82 121 -151 213 -152 205 -2 -8 -19 -174 -38 -369
-19 -194 -36 -355 -37 -357 -2 -1 -181 171 -398 382 -441 430 -456 448 -580
694 -43 86 -92 179 -109 208 -25 42 -29 57 -21 72 6 11 65 103 131 206 66 102
119 187 117 189 -2 2 -128 -34 -281 -79z"/>
<path d="M3717 4258 c-8 -18 -63 -139 -122 -268 -59 -129 -116 -254 -126 -277
l-18 -42 159 -108 159 -108 152 -450 c84 -247 154 -456 157 -463 4 -11 -6 -12
-44 -7 -177 24 -226 76 -258 270 -12 78 -13 79 -20 40 -18 -95 -47 -200 -64
-228 -28 -49 -69 -66 -193 -83 -62 -8 -114 -16 -116 -18 -2 -1 36 -11 84 -20
106 -21 167 -46 212 -89 43 -41 61 -83 76 -182 7 -44 13 -65 14 -47 1 18 8 64
16 101 19 81 56 131 124 166 58 29 171 59 181 48 4 -4 22 -53 40 -108 26 -76
35 -95 41 -80 4 11 22 155 39 320 18 165 35 312 39 328 l6 27 224 -130 c123
-72 227 -129 231 -128 5 2 -235 826 -243 834 -1 1 -65 -13 -142 -32 -77 -18
-147 -33 -156 -34 -11 0 -20 21 -33 76 -10 41 -15 78 -12 81 3 3 133 37 288
75 155 38 284 70 285 72 2 2 -94 55 -214 119 -120 63 -267 143 -328 177 -85
48 -299 150 -412 197 -7 3 -18 -10 -26 -29z"/>
<path d="M2798 4172 l-118 -77 0 -52 0 -53 -85 0 -85 0 0 40 0 40 -54 0 c-29
0 -68 -3 -85 -6 -28 -6 -31 -10 -31 -45 0 -24 -5 -39 -12 -40 -7 0 -46 -4 -85
-8 l-73 -7 0 41 c0 22 -3 49 -6 60 -4 16 -200 165 -216 165 -3 0 -26 -34 -52
-75 l-47 -75 82 -162 c127 -253 203 -350 311 -401 94 -44 145 -48 240 -17 168
54 293 135 399 257 66 77 179 235 179 251 0 15 -130 242 -139 242 -3 0 -59
-35 -123 -78z m-156 -312 c76 -25 163 -78 163 -99 0 -8 -25 -36 -56 -63 l-56
-48 -54 23 c-151 67 -312 61 -395 -14 -20 -19 -21 -19 -83 37 l-62 57 26 27
c34 36 109 76 176 95 79 22 253 14 341 -15z"/>
<path d="M951 4130 c-123 -38 -224 -70 -226 -72 -4 -5 -37 -389 -33 -393 1 -1
31 -20 65 -42 l63 -39 -101 -125 c-56 -68 -156 -196 -223 -284 -164 -216 -153
-200 -135 -193 9 3 179 128 379 277 200 149 364 270 365 269 24 -27 84 -143
77 -147 -5 -3 -130 -81 -278 -173 l-270 -167 -28 -322 c-15 -177 -26 -323 -24
-324 2 -2 92 59 202 136 109 76 201 139 205 139 4 0 29 -52 56 -115 26 -64 52
-118 56 -121 9 -5 20 29 208 635 l119 383 53 54 53 54 -29 60 c-17 36 -35 60
-44 60 -9 0 -128 -9 -266 -20 -137 -11 -253 -20 -257 -20 -4 0 63 111 148 247
l156 247 -16 33 c-9 20 -23 33 -33 32 -10 0 -119 -31 -242 -69z"/>
<path d="M2545 3342 c-55 -19 -102 -37 -104 -39 -7 -6 182 -193 189 -188 4 2
10 42 14 87 3 46 9 104 13 131 3 26 2 47 -3 46 -5 0 -54 -17 -109 -37z"/>
<path d="M4390 2691 c0 -5 -18 -169 -40 -366 -22 -197 -40 -360 -40 -362 0
-20 43 41 115 161 46 78 97 159 112 181 l28 41 60 -8 c32 -4 81 -15 108 -24
26 -9 50 -14 53 -11 6 6 -83 208 -99 224 -12 12 -284 173 -292 173 -3 0 -5 -4
-5 -9z"/>
<path d="M2357 2533 c-3 -5 -31 -117 -63 -250 l-58 -242 -114 111 c-62 61
-115 108 -118 105 -4 -4 233 -394 252 -416 2 -2 96 39 208 91 l205 96 77 -136
c42 -76 77 -138 78 -139 4 -5 441 99 446 106 3 6 18 92 34 192 l29 182 -19
129 c-11 81 -22 127 -29 125 -6 -3 -127 -89 -270 -192 -143 -103 -269 -194
-281 -202 -21 -13 -27 -6 -184 217 -146 208 -179 246 -193 223z"/>
<path d="M705 2269 c-110 -77 -204 -144 -208 -148 -9 -9 -67 -224 -62 -230 2
-2 90 47 195 108 106 61 196 108 202 105 6 -4 62 -53 125 -110 63 -57 119
-104 124 -104 5 0 9 30 9 68 0 62 -7 81 -83 256 -45 104 -87 191 -92 192 -6 2
-100 -60 -210 -137z"/>
<path d="M1507 1806 c-125 -293 -227 -540 -227 -547 0 -25 83 -394 91 -402 4
-5 44 104 90 242 46 138 86 251 89 251 3 0 40 -98 82 -217 41 -120 80 -218 84
-220 21 -6 114 137 150 231 l37 98 32 -5 c83 -14 199 -52 235 -78 46 -34 57
-65 66 -194 8 -126 14 -132 35 -37 44 201 114 273 280 289 l74 7 -74 13 c-91
17 -140 41 -179 89 -34 41 -69 138 -78 219 -4 31 -11 52 -15 48 -5 -5 -18 -50
-28 -101 -11 -50 -27 -105 -36 -121 -22 -44 -73 -79 -141 -95 -56 -14 -164
-27 -164 -20 0 2 43 114 95 250 53 136 95 253 93 260 -4 17 -352 574 -358 574
-3 0 -108 -240 -233 -534z"/>
<path d="M3497 2168 c-3 -13 -20 -117 -38 -233 -18 -115 -36 -214 -40 -218 -3
-5 -87 -27 -185 -49 -99 -21 -186 -42 -194 -44 -8 -3 51 -44 144 -99 87 -51
163 -98 168 -103 5 -5 22 -118 38 -252 16 -134 31 -244 33 -246 2 -2 52 69
112 157 60 88 112 162 115 164 4 3 72 -93 150 -213 79 -119 144 -212 146 -207
2 6 19 147 39 315 19 168 37 314 40 325 3 14 -72 122 -255 368 -142 192 -260
351 -263 353 -3 3 -7 -5 -10 -18z"/>
<path d="M4473 1955 c-25 -126 -56 -193 -99 -217 -17 -10 -69 -23 -115 -28
-164 -21 -164 -21 -67 -41 118 -24 180 -53 227 -104 43 -47 59 -92 70 -195 l7
-65 7 62 c11 101 27 149 62 191 38 44 119 84 210 103 105 22 99 27 -53 53
-139 24 -189 85 -214 260 l-13 88 -22 -107z"/>
<path d="M3522 758 l-120 -183 -11 -145 c-7 -80 -13 -157 -16 -171 l-4 -27
507 -6 c279 -3 567 -7 641 -9 l134 -2 98 219 c55 120 98 221 95 223 -2 2 -81
-39 -176 -92 -94 -54 -172 -95 -174 -94 -5 8 -44 76 -80 142 l-37 68 -72 -66
-72 -65 -71 6 c-83 8 -78 14 -90 -116 -3 -41 -10 -81 -14 -88 -4 -9 -77 94
-204 287 -109 166 -202 301 -206 301 -4 0 -61 -82 -128 -182z"/>
<path d="M1781 708 l-124 -161 -49 138 c-26 76 -50 140 -52 142 -2 2 -48 -128
-101 -289 -54 -161 -100 -299 -103 -305 -3 -10 58 -13 287 -13 l291 0 -8 48
c-4 26 -7 172 -7 325 0 152 -2 277 -5 277 -3 0 -61 -73 -129 -162z"/>
<path d="M790 825 c0 -2 -27 -135 -60 -296 -33 -160 -60 -296 -60 -300 0 -5
149 -9 330 -9 182 0 330 4 330 8 0 10 -69 322 -75 339 -3 8 -40 -4 -114 -38
-61 -28 -115 -48 -120 -44 -5 3 -58 82 -117 175 -97 155 -114 179 -114 165z"/>
</g>
</svg>
