<?xml version="1.0" standalone="no"?>
<!DOCTYPE svg PUBLIC "-//W3C//DTD SVG 20010904//EN"
 "http://www.w3.org/TR/2001/REC-SVG-20010904/DTD/svg10.dtd">
<svg version="1.0" xmlns="http://www.w3.org/2000/svg"
 width="512.000000pt" height="512.000000pt" viewBox="0 0 512.000000 512.000000"
 preserveAspectRatio="xMidYMid meet">
<metadata>
Created by potrace 1.15, written by Peter Selinger 2001-2017
</metadata>
<g transform="translate(0.000000,512.000000) scale(0.100000,-0.100000)"
fill="#ffffff" stroke="none">
<path d="M1395 2901 c-346 -109 -631 -197 -633 -196 -2 2 40 78 94 169 53 92
95 168 93 170 -2 2 -74 -23 -159 -55 -85 -33 -251 -96 -367 -141 l-213 -81 0
-1088 c0 -820 3 -1089 12 -1089 6 0 54 23 107 51 53 29 132 71 176 94 384 203
600 319 603 320 2 2 27 103 56 226 l53 224 -188 5 -187 5 226 94 c186 77 265
117 437 219 116 68 215 130 222 136 9 8 313 1107 313 1132 0 8 -10 5 -645
-195z"/>
<path d="M3277 3018 c-25 -46 -74 -139 -110 -208 -35 -69 -115 -220 -176 -337
-61 -116 -111 -213 -111 -216 0 -7 63 -12 605 -57 l491 -40 283 35 c156 20
286 34 288 32 2 -2 -66 -44 -152 -93 -85 -49 -155 -92 -155 -96 0 -4 30 -27
68 -52 67 -44 68 -44 337 -95 149 -28 278 -51 288 -51 16 0 17 31 17 465 l0
465 -195 146 c-108 81 -198 144 -201 141 -5 -4 43 -243 63 -310 4 -16 2 -17
-14 -9 -30 16 -588 232 -599 232 -7 0 -4 -39 7 -107 10 -60 18 -115 19 -124 0
-12 -99 38 -346 172 -190 104 -349 189 -354 189 -5 0 -29 -37 -53 -82z"/>
<path d="M3325 1878 c-71 -77 -131 -146 -133 -153 -2 -7 73 -102 165 -211
l169 -198 344 -106 c233 -72 432 -125 613 -165 247 -55 265 -60 235 -71 -18
-6 -129 -40 -246 -74 -116 -35 -212 -66 -212 -70 0 -5 355 -113 623 -189 l67
-20 0 518 0 517 -317 58 -318 57 -155 104 -155 104 -232 21 c-347 30 -295 44
-448 -122z"/>
<path d="M1645 1711 c-110 -66 -208 -125 -217 -133 -13 -9 -39 -103 -91 -326
l-72 -313 -525 -277 -525 -277 -3 -92 -3 -93 2371 0 2370 0 0 119 0 118 -312
93 c-172 52 -393 117 -491 145 -97 29 -179 54 -182 57 -3 2 25 53 60 113 36
59 64 110 61 112 -2 3 -144 47 -315 99 l-312 95 -52 -57 c-29 -31 -58 -65 -64
-74 -11 -16 21 -57 260 -332 149 -172 279 -322 287 -332 10 -13 -8 -7 -60 19
-41 21 -138 68 -215 105 -205 98 -750 362 -752 364 -1 1 36 59 82 129 47 70
85 130 85 135 0 7 -197 147 -246 175 -7 4 -69 -54 -150 -141 -76 -81 -210
-223 -298 -317 -247 -261 -340 -360 -344 -365 -2 -2 49 103 113 235 65 132
123 254 131 271 16 38 54 27 -301 94 -148 28 -278 54 -289 58 -11 5 91 27 270
60 159 29 328 60 377 68 l87 17 68 140 c37 77 90 188 118 246 28 58 50 108 48
110 -2 3 -721 70 -759 71 -5 0 -100 -54 -210 -119z"/>
</g>
</svg>
