<?xml version="1.0" standalone="no"?>
<!DOCTYPE svg PUBLIC "-//W3C//DTD SVG 20010904//EN"
 "http://www.w3.org/TR/2001/REC-SVG-20010904/DTD/svg10.dtd">
<svg version="1.0" xmlns="http://www.w3.org/2000/svg"
 width="512.000000pt" height="512.000000pt" viewBox="0 0 512.000000 512.000000"
 preserveAspectRatio="xMidYMid meet">
<metadata>
Created by potrace 1.15, written by Peter Selinger 2001-2017
</metadata>
<g transform="translate(0.000000,512.000000) scale(0.100000,-0.100000)"
fill="#ffffff" stroke="none">
<path d="M4295 4666 c-224 -106 -224 -427 0 -532 72 -34 176 -33 250 2 173 81
221 314 94 458 -59 67 -126 96 -218 96 -59 0 -87 -6 -126 -24z"/>
<path d="M1272 3800 l-102 -71 0 -47 c0 -67 -30 -776 -33 -779 -2 -1 -16 166
-32 372 -16 206 -32 372 -36 369 -15 -9 -77 -217 -98 -325 -45 -234 -47 -340
-22 -1124 l6 -190 75 -6 c41 -4 139 -9 217 -12 l141 -5 -5 239 c-4 131 -4 239
-1 239 3 0 18 -19 33 -42 25 -38 31 -63 51 -223 13 -99 23 -187 24 -196 0 -15
33 -17 298 -23 265 -6 1439 7 1446 15 6 7 -150 1338 -157 1345 -11 11 -147
-16 -147 -29 0 -7 -9 -161 -20 -342 -20 -329 -20 -330 0 -444 11 -63 18 -116
17 -118 -2 -1 -21 59 -41 135 -42 149 -92 272 -111 272 -7 0 -44 7 -82 16
l-70 15 -7 212 c-3 117 -9 274 -13 350 l-6 137 -88 50 c-49 28 -93 50 -98 50
-7 0 -8 -143 -4 -397 l6 -398 48 -125 48 -125 7 -240 7 -240 -35 30 c-29 24
-37 39 -43 80 -3 28 -24 160 -45 295 -31 194 -46 333 -70 665 -16 231 -32 444
-36 473 l-5 52 -242 -2 -242 -3 -39 -279 -38 -280 126 -120 127 -121 -8 -290
-7 -290 -21 211 c-24 234 -13 201 -133 388 -37 57 -68 94 -73 89 -5 -5 -15
-26 -22 -47 -12 -35 -14 -8 -26 285 -6 178 -14 356 -18 395 l-5 70 -144 77
c-78 42 -145 77 -147 77 -2 0 -49 -32 -105 -70z"/>
<path d="M839 1747 c-62 -46 -177 -130 -254 -188 -77 -57 -202 -149 -277 -204
l-138 -100 0 -547 0 -548 2390 0 2390 0 0 124 0 124 -67 38 c-108 60 -377 243
-508 345 -243 189 -350 283 -750 660 -325 306 -365 342 -384 354 -18 11 -824
7 -854 -4 -15 -6 43 -48 255 -186 150 -98 276 -182 279 -187 7 -11 43 -417 38
-423 -2 -2 -58 73 -123 166 -105 150 -133 182 -235 272 -64 56 -180 159 -258
228 l-141 126 -472 7 c-260 4 -474 6 -475 4 -2 -2 76 -109 172 -238 96 -129
249 -335 340 -457 l164 -222 70 -173 c38 -94 68 -173 66 -174 -1 -1 -53 84
-114 189 -112 191 -114 194 -489 637 -394 467 -383 456 -470 459 -35 1 -54 -9
-155 -82z m2472 -474 c101 -109 249 -267 329 -352 l145 -155 -95 65 c-52 36
-151 104 -220 151 l-125 86 -77 138 c-43 77 -93 167 -113 202 -19 34 -33 62
-32 62 2 0 87 -89 188 -197z m-846 -243 c136 -162 235 -283 219 -269 -22 20
-485 428 -490 433 -1 1 -4 39 -7 86 -7 82 -6 84 12 65 10 -11 130 -153 266
-315z"/>
<path d="M3952 1381 c12 -31 390 -354 592 -505 150 -113 362 -256 378 -256 4
0 8 173 8 385 l0 385 -491 0 c-279 0 -489 -4 -487 -9z"/>
</g>
</svg>
