<?xml version="1.0" standalone="no"?>
<!DOCTYPE svg PUBLIC "-//W3C//DTD SVG 20010904//EN"
 "http://www.w3.org/TR/2001/REC-SVG-20010904/DTD/svg10.dtd">
<svg version="1.0" xmlns="http://www.w3.org/2000/svg"
 width="512.000000pt" height="512.000000pt" viewBox="0 0 512.000000 512.000000"
 preserveAspectRatio="xMidYMid meet">
<metadata>
Created by potrace 1.15, written by Peter Selinger 2001-2017
</metadata>
<g transform="translate(0.000000,512.000000) scale(0.100000,-0.100000)"
fill="#ffffff" stroke="none">
<path d="M255 4984 c225 -52 287 -69 387 -103 307 -104 572 -247 840 -455 274
-211 562 -533 773 -861 84 -130 96 -137 -125 71 -304 284 -588 511 -860 684
-150 96 -308 185 -316 177 -3 -2 19 -22 48 -42 217 -156 501 -444 718 -730
l83 -110 -94 91 c-473 457 -931 774 -1369 947 -63 25 -125 48 -138 52 l-22 6
2 -181 3 -181 116 -39 c275 -92 591 -278 854 -503 39 -33 129 -119 200 -191
242 -243 393 -442 564 -740 63 -108 117 -198 121 -201 4 -2 272 149 596 336
324 188 676 391 783 452 106 62 195 117 198 123 4 11 -110 217 -247 444 -173
289 -322 479 -510 647 -127 114 -248 198 -383 267 l-102 51 -240 3 c-132 2
-238 1 -235 -1 3 -3 40 -19 82 -36 375 -149 701 -420 945 -786 100 -150 171
-283 270 -505 27 -62 27 -62 -47 35 -176 229 -419 476 -650 660 -198 158 -383
276 -623 395 -182 91 -311 143 -487 197 l-125 38 -535 2 c-478 1 -529 0 -475
-13z m1624 -465 c211 -114 372 -232 522 -386 143 -145 232 -268 314 -432 54
-107 124 -291 111 -291 -3 0 -130 137 -302 325 -219 241 -421 462 -569 625
-177 193 -191 210 -180 210 4 0 51 -23 104 -51z"/>
<path d="M2925 2976 c-376 -216 -559 -327 -557 -337 2 -8 191 -339 420 -737
323 -559 421 -722 434 -718 14 3 1050 598 1100 631 16 10 -27 89 -406 744
-233 402 -425 734 -428 736 -2 2 -256 -141 -563 -319z"/>
<path d="M4090 2893 c-63 -36 -117 -67 -119 -69 -3 -3 170 -308 192 -337 11
-14 26 -8 135 54 l122 71 -32 56 c-98 173 -167 287 -174 289 -5 1 -61 -27
-124 -64z"/>
<path d="M1687 1506 c-461 -266 -842 -487 -847 -492 -9 -9 154 -310 185 -342
10 -12 158 70 859 475 465 268 846 492 846 496 0 12 -193 347 -200 347 -3 0
-382 -218 -843 -484z"/>
<path d="M4005 1429 c-352 -204 -703 -406 -780 -451 -77 -44 -143 -83 -147
-87 -10 -8 210 -391 224 -391 5 0 85 44 176 97 390 226 540 313 959 554 243
140 442 259 442 264 0 15 -214 378 -225 382 -5 1 -297 -164 -649 -368z"/>
<path d="M445 894 c-99 -57 -179 -109 -177 -115 3 -12 271 -479 283 -492 7 -9
368 192 369 205 0 7 -277 489 -288 500 -4 4 -88 -40 -187 -98z"/>
</g>
</svg>
