<?xml version="1.0" standalone="no"?>
<!DOCTYPE svg PUBLIC "-//W3C//DTD SVG 20010904//EN"
 "http://www.w3.org/TR/2001/REC-SVG-20010904/DTD/svg10.dtd">
<svg version="1.0" xmlns="http://www.w3.org/2000/svg"
 width="512.000000pt" height="512.000000pt" viewBox="0 0 512.000000 512.000000"
 preserveAspectRatio="xMidYMid meet">
<metadata>
Created by potrace 1.15, written by Peter Selinger 2001-2017
</metadata>
<g transform="translate(0.000000,512.000000) scale(0.100000,-0.100000)"
fill="#ffffff" stroke="none">
<path d="M170 4862 l0 -67 259 -215 c143 -118 260 -217 260 -220 0 -3 -35 -22
-77 -43 -108 -53 -250 -157 -354 -258 l-88 -85 0 -236 0 -235 128 -164 c70
-90 190 -245 267 -344 76 -99 165 -214 197 -255 l58 -75 -28 -14 c-210 -108
-474 -294 -584 -413 l-38 -40 0 -253 0 -253 64 -153 c80 -190 247 -590 253
-605 2 -7 -35 -15 -109 -22 -62 -7 -133 -18 -158 -25 l-45 -13 -3 -103 c-2
-95 -1 -102 15 -97 90 27 156 38 263 43 l125 6 110 -267 109 -266 104 0 c103
0 104 0 99 22 -3 13 -55 142 -115 288 l-111 265 31 25 c125 101 390 245 558
305 167 59 406 105 538 105 l57 -1 65 -85 c78 -103 141 -185 417 -542 l212
-272 -52 0 c-200 0 -665 -67 -701 -101 -6 -5 220 -9 541 -9 l551 0 28 48 c15
26 61 97 102 157 307 451 611 716 961 840 68 24 235 65 265 65 9 0 139 -102
287 -227 149 -126 275 -229 280 -231 5 -2 9 51 9 121 l0 125 -206 174 c-113
95 -226 189 -250 208 l-44 34 0 166 c0 381 78 725 236 1043 46 93 128 233 162
276 18 22 20 23 50 7 17 -9 36 -16 42 -16 6 0 10 39 10 108 l0 108 -49 22
c-48 21 -50 23 -75 99 -105 320 -126 700 -55 1001 32 135 101 299 160 384 16
21 19 45 19 127 l0 101 -1342 -1 c-739 -1 -1320 -5 -1293 -9 28 -5 327 -27
665 -50 338 -23 625 -43 637 -46 l22 -4 -25 -63 c-46 -117 -103 -308 -125
-415 -21 -109 -30 -333 -14 -381 6 -19 -71 17 -451 210 -253 129 -565 288
-695 353 l-237 120 -11 50 c-6 27 -17 92 -23 143 l-12 93 -94 0 -94 0 3 -85
c2 -47 3 -85 2 -85 -1 0 -76 38 -167 85 l-164 85 -296 0 -296 0 -34 -69 c-41
-80 -73 -172 -90 -255 l-12 -58 -228 191 -228 191 -74 0 -74 0 0 -68z m1497
-239 l141 -74 -54 -107 c-81 -163 -135 -340 -159 -524 l-6 -47 -316 262 -316
261 6 81 c9 122 56 254 135 382 l26 41 201 -100 c110 -56 264 -135 342 -175z
m2573 157 c233 -16 431 -30 440 -30 15 0 11 -12 -21 -77 -127 -251 -182 -605
-149 -944 9 -94 40 -276 57 -338 5 -20 -55 8 -435 200 -501 254 -455 219 -488
380 -26 131 -10 298 47 494 19 62 120 345 124 345 1 0 192 -13 425 -30z
m-2099 -398 c85 -44 339 -172 564 -287 226 -114 478 -241 560 -283 83 -42 152
-77 154 -79 2 -1 -33 -43 -77 -93 -203 -229 -313 -476 -361 -806 l-16 -112
-230 192 c-127 105 -393 327 -593 494 l-362 303 0 47 c0 139 37 326 90 457 24
61 111 245 115 245 1 0 71 -35 156 -78z m-763 -816 c-205 -207 -338 -404 -449
-664 l-15 -34 -54 70 c-30 39 -111 143 -180 232 -69 89 -195 252 -281 363
-130 168 -155 205 -147 220 5 10 41 54 78 97 122 138 316 278 479 345 l54 22
317 -265 318 -265 -120 -121z m2691 -162 c403 -205 570 -291 580 -300 1 -1
-25 -49 -60 -106 -215 -353 -326 -710 -362 -1167 l-12 -154 -528 439 -528 439
5 130 c14 355 145 661 376 878 39 37 73 67 76 67 4 0 207 -102 453 -226z
m-1730 -419 l562 -469 -43 -25 c-24 -14 -86 -54 -138 -90 -319 -215 -544 -467
-697 -779 -31 -61 -56 -112 -58 -112 -1 0 -34 42 -73 93 -39 50 -152 196 -250
322 -98 127 -269 348 -381 493 l-203 264 27 76 c89 251 230 466 447 685 l118
119 63 -54 c35 -29 317 -264 626 -523z m-1177 -762 c118 -153 254 -330 303
-393 49 -63 118 -153 154 -200 36 -47 91 -119 124 -160 64 -81 63 -88 -13 -89
-60 -2 -261 -47 -379 -85 -202 -66 -404 -165 -575 -283 -43 -30 -82 -50 -86
-46 -4 4 -56 125 -115 268 -59 143 -154 372 -211 509 -100 241 -103 250 -88
274 28 43 150 157 241 225 92 70 398 257 419 257 7 0 108 -125 226 -277z
m2452 -302 l545 -454 -97 -32 c-140 -47 -229 -87 -342 -154 -155 -92 -368
-276 -511 -441 -80 -92 -212 -268 -287 -383 -53 -80 -67 -96 -77 -85 -7 7
-175 223 -374 480 l-361 467 26 73 c116 321 360 622 683 841 94 64 234 146
243 144 4 -1 253 -206 552 -456z"/>
</g>
</svg>
