<?xml version="1.0" standalone="no"?>
<!DOCTYPE svg PUBLIC "-//W3C//DTD SVG 20010904//EN"
 "http://www.w3.org/TR/2001/REC-SVG-20010904/DTD/svg10.dtd">
<svg version="1.0" xmlns="http://www.w3.org/2000/svg"
 width="512.000000pt" height="512.000000pt" viewBox="0 0 512.000000 512.000000"
 preserveAspectRatio="xMidYMid meet">
<metadata>
Created by potrace 1.15, written by Peter Selinger 2001-2017
</metadata>
<g transform="translate(0.000000,512.000000) scale(0.100000,-0.100000)"
fill="#ffffff" stroke="none">
<path d="M1615 4549 c-535 -63 -1064 -451 -1279 -936 -57 -129 -83 -213 -107
-351 -30 -179 -29 -182 42 -260 129 -141 280 -406 375 -661 27 -72 53 -129 58
-128 4 1 22 30 40 62 117 223 267 416 458 590 135 123 252 205 393 275 192 96
359 143 553 156 89 6 102 9 97 23 -4 9 -17 57 -30 106 -45 169 -57 295 -62
682 l-5 361 -52 22 c-137 57 -316 79 -481 59z"/>
<path d="M2058 3104 c-374 -58 -772 -333 -1040 -719 -57 -82 -68 -105 -64
-128 8 -40 219 -470 312 -634 204 -363 421 -681 579 -851 l52 -56 64 23 c133
48 401 167 589 262 229 115 449 235 469 254 11 11 9 24 -14 81 -100 251 -128
570 -75 847 20 104 73 276 104 334 9 18 16 34 16 36 0 2 -48 7 -107 10 -69 3
-133 13 -176 27 l-69 21 -40 -27 c-108 -75 -218 -242 -281 -425 -5 -15 -13
-15 -84 -2 -43 8 -81 18 -85 22 -19 17 62 208 132 312 24 35 74 99 112 141
l68 77 -22 15 c-13 9 -51 43 -85 76 -70 68 -65 68 -163 4 -80 -53 -153 -120
-215 -199 -49 -61 -115 -186 -115 -217 0 -9 -4 -19 -9 -22 -10 -6 -159 18
-168 28 -9 9 24 110 59 181 67 134 192 272 323 358 122 81 113 65 74 130 -18
31 -38 57 -44 56 -5 -1 -49 -7 -97 -15z"/>
<path d="M3874 3071 c-312 -77 -581 -351 -719 -733 -67 -186 -93 -456 -62
-653 31 -194 97 -378 160 -442 30 -32 30 -33 11 -47 -17 -14 -259 -156 -345
-204 -261 -145 -720 -359 -923 -429 -55 -19 -104 -36 -108 -39 -11 -7 112
-184 128 -184 24 0 435 173 629 265 525 248 1054 545 1555 873 335 219 720
503 720 530 0 27 -80 284 -116 370 -140 338 -310 551 -517 647 -142 66 -273
80 -413 46z"/>
</g>
</svg>
