<?xml version="1.0" standalone="no"?>
<!DOCTYPE svg PUBLIC "-//W3C//DTD SVG 20010904//EN"
 "http://www.w3.org/TR/2001/REC-SVG-20010904/DTD/svg10.dtd">
<svg version="1.0" xmlns="http://www.w3.org/2000/svg"
 width="512.000000pt" height="512.000000pt" viewBox="0 0 512.000000 512.000000"
 preserveAspectRatio="xMidYMid meet">
<metadata>
Created by potrace 1.15, written by Peter Selinger 2001-2017
</metadata>
<g transform="translate(0.000000,512.000000) scale(0.100000,-0.100000)"
fill="#ffffff" stroke="none">
<path d="M2445 4119 c-253 -22 -475 -77 -970 -239 -474 -155 -604 -189 -795
-211 -169 -18 -309 7 -424 76 -32 19 -60 34 -62 33 -1 -2 73 -176 166 -388
103 -234 174 -385 182 -384 7 1 67 39 133 85 454 318 944 529 1410 608 205 35
346 44 565 38 229 -7 398 -28 597 -77 423 -104 805 -278 1243 -567 68 -45 128
-79 131 -75 4 4 51 108 104 232 54 124 125 286 158 360 62 142 117 271 117
276 0 1 -37 -14 -82 -35 -236 -109 -467 -143 -711 -106 -159 24 -293 61 -637
175 -435 146 -579 180 -834 200 -142 11 -148 11 -291 -1z"/>
<path d="M2479 3500 c-407 -65 -685 -461 -605 -860 58 -285 239 -485 516 -571
107 -33 291 -33 405 -1 247 71 428 251 507 502 30 96 32 288 5 390 -83 310
-356 531 -671 545 -56 2 -126 0 -157 -5z m248 -440 c62 -26 135 -101 166 -168
31 -68 30 -188 -2 -259 -28 -62 -102 -136 -169 -166 -66 -30 -188 -30 -254 0
-67 30 -141 104 -169 166 -32 71 -33 191 -2 259 25 55 94 133 137 155 92 48
201 53 293 13z"/>
<path d="M1860 3470 c-331 -90 -654 -239 -980 -453 -149 -97 -330 -230 -329
-242 0 -18 306 -222 484 -322 266 -149 553 -268 837 -347 91 -26 96 -22 44 32
-116 120 -197 276 -237 457 -22 98 -17 304 10 405 44 167 137 326 259 443 72
68 67 69 -88 27z"/>
<path d="M3210 3483 c0 -3 30 -38 68 -78 327 -350 331 -907 10 -1251 -33 -35
-59 -67 -56 -69 6 -7 187 45 318 90 244 84 536 228 777 381 140 89 299 200
308 213 5 8 -47 45 -250 181 -351 235 -741 420 -1083 513 -51 14 -92 23 -92
20z"/>
<path d="M521 2538 c-5 -13 -81 -189 -170 -392 -89 -203 -160 -370 -159 -372
2 -1 29 15 60 36 146 98 392 144 642 121 676 -64 1269 -481 1553 -1091 50
-106 114 -285 133 -373 15 -67 27 -80 35 -40 19 87 80 274 124 379 242 572
684 948 1221 1039 322 54 679 1 963 -141 38 -20 71 -33 73 -31 4 3 -51 129
-268 622 -38 87 -77 176 -85 197 -8 21 -19 38 -25 38 -5 0 -37 -19 -71 -43
-459 -318 -973 -534 -1466 -616 l-156 -26 -167 -288 c-161 -278 -167 -288
-181 -265 -22 35 -144 246 -237 408 -45 80 -84 146 -85 148 -1 1 -56 11 -121
22 -237 39 -541 126 -753 217 -223 95 -524 258 -724 391 -56 38 -108 72 -115
76 -7 5 -15 -1 -21 -16z"/>
</g>
</svg>
