<?xml version="1.0" standalone="no"?>
<!DOCTYPE svg PUBLIC "-//W3C//DTD SVG 20010904//EN"
 "http://www.w3.org/TR/2001/REC-SVG-20010904/DTD/svg10.dtd">
<svg version="1.0" xmlns="http://www.w3.org/2000/svg"
 width="512.000000pt" height="512.000000pt" viewBox="0 0 512.000000 512.000000"
 preserveAspectRatio="xMidYMid meet">
<metadata>
Created by potrace 1.15, written by Peter Selinger 2001-2017
</metadata>
<g transform="translate(0.000000,512.000000) scale(0.100000,-0.100000)"
fill="#ffffff" stroke="none">
<path d="M3125 4954 c-442 -46 -904 -166 -1299 -337 l-129 -56 -81 39 c-166
81 -354 78 -526 -10 -65 -33 -166 -138 -196 -204 -45 -98 -51 -203 -19 -297
l13 -35 -60 -50 c-88 -72 -284 -277 -355 -369 -170 -224 -252 -386 -282 -559
-44 -245 56 -513 241 -653 111 -84 214 -124 370 -143 80 -10 112 -10 209 5
242 35 463 132 1074 472 760 423 835 452 1495 563 753 127 988 199 1155 353
150 136 181 296 99 513 -64 173 -131 272 -271 403 -190 178 -416 280 -773 347
-61 11 -161 17 -355 19 -148 1 -288 1 -310 -1z m479 -190 c208 -12 467 -80
624 -165 203 -108 337 -253 418 -453 66 -161 56 -246 -38 -331 -106 -96 -326
-173 -678 -239 -74 -14 -268 -48 -431 -75 -163 -28 -356 -66 -430 -85 l-134
-34 -65 52 c-251 204 -577 418 -898 591 l-111 60 7 35 c13 66 6 182 -16 237
l-20 53 46 21 c403 181 937 315 1347 338 137 8 178 7 379 -5z m-2165 -300 c17
-4 31 -9 31 -13 -1 -10 -151 -91 -170 -91 -9 0 -20 3 -24 7 -4 4 -30 17 -59
29 l-52 22 30 13 c86 35 173 47 244 33z m237 -185 c13 -36 18 -99 8 -99 -13 0
-157 71 -152 75 13 13 114 64 122 62 5 -2 15 -19 22 -38z m-566 -49 c0 -9 -45
-40 -60 -40 -11 0 -13 29 -4 53 4 12 11 13 35 5 16 -5 29 -13 29 -18z m348
-156 l117 -56 -55 -27 c-48 -23 -68 -26 -155 -26 -86 0 -108 4 -155 26 l-55
25 80 57 c44 31 86 57 93 57 8 0 66 -25 130 -56z m353 -179 c80 -41 303 -171
444 -258 147 -92 464 -315 464 -327 0 -3 -93 -51 -207 -107 -191 -94 -323
-165 -652 -352 -202 -115 -486 -255 -618 -305 -247 -93 -391 -105 -560 -46
-122 43 -226 144 -279 270 -25 59 -27 77 -27 185 0 105 3 129 26 192 69 187
277 464 496 658 l105 93 31 -23 c191 -143 501 -136 685 16 20 16 37 29 39 29
1 0 25 -11 53 -25z"/>
<path d="M3135 3105 c-18 -17 -25 -35 -25 -64 0 -47 7 -55 140 -172 348 -307
600 -604 739 -871 111 -212 159 -394 168 -640 10 -278 -33 -542 -158 -967 -44
-152 -43 -183 10 -214 81 -48 125 -7 175 163 131 454 173 715 163 1020 -9 268
-53 449 -167 685 -134 278 -348 546 -687 861 -213 198 -247 224 -294 224 -29
0 -47 -7 -64 -25z"/>
</g>
</svg>
