<?xml version="1.0" standalone="no"?>
<!DOCTYPE svg PUBLIC "-//W3C//DTD SVG 20010904//EN"
 "http://www.w3.org/TR/2001/REC-SVG-20010904/DTD/svg10.dtd">
<svg version="1.0" xmlns="http://www.w3.org/2000/svg"
 width="512.000000pt" height="512.000000pt" viewBox="0 0 512.000000 512.000000"
 preserveAspectRatio="xMidYMid meet">
<metadata>
Created by potrace 1.15, written by Peter Selinger 2001-2017
</metadata>
<g transform="translate(0.000000,512.000000) scale(0.100000,-0.100000)"
fill="#ffffff" stroke="none">
<path d="M2480 4849 c-634 -481 -1330 -784 -2100 -914 -169 -28 -150 -13 -150
-113 0 -146 40 -331 126 -589 284 -851 798 -1826 1259 -2390 103 -126 330
-354 420 -420 107 -80 240 -149 343 -179 84 -24 106 -26 205 -21 243 10 444
122 717 396 337 339 672 844 1005 1516 203 410 326 707 455 1095 88 264 122
412 128 561 l4 117 -28 6 c-16 3 -70 12 -121 21 -481 81 -974 243 -1381 456
-244 127 -447 255 -699 441 -51 37 -98 68 -105 67 -7 0 -42 -23 -78 -50z m197
-262 c577 -406 1226 -685 1893 -812 47 -9 95 -18 107 -21 26 -5 26 -6 -17
-189 -48 -200 -166 -547 -267 -782 l-35 -83 -739 0 -739 0 0 240 c0 157 4 240
10 240 6 0 146 -34 312 -75 165 -42 305 -74 311 -72 11 3 -938 1112 -953 1112
-15 0 -964 -1109 -953 -1112 6 -2 146 30 311 72 166 41 306 75 312 75 6 0 10
-83 10 -240 l0 -240 -739 0 -738 0 -26 58 c-39 88 -161 406 -195 512 -36 109
-84 291 -107 399 -18 85 -18 85 57 95 66 9 367 80 493 116 353 102 701 249
1035 437 115 65 515 326 525 344 4 5 8 9 10 9 3 0 57 -37 122 -83z"/>
</g>
</svg>
