<?xml version="1.0" standalone="no"?>
<!DOCTYPE svg PUBLIC "-//W3C//DTD SVG 20010904//EN"
 "http://www.w3.org/TR/2001/REC-SVG-20010904/DTD/svg10.dtd">
<svg version="1.0" xmlns="http://www.w3.org/2000/svg"
 width="512.000000pt" height="512.000000pt" viewBox="0 0 512.000000 512.000000"
 preserveAspectRatio="xMidYMid meet">
<metadata>
Created by potrace 1.15, written by Peter Selinger 2001-2017
</metadata>
<g transform="translate(0.000000,512.000000) scale(0.100000,-0.100000)"
fill="#ffffff" stroke="none">
<path d="M4495 4865 c-465 -136 -765 -223 -765 -219 0 1 82 58 183 125 100 67
184 124 186 125 27 23 -156 -23 -359 -91 -151 -50 -423 -156 -570 -222 l-85
-38 -259 -270 c-344 -359 -388 -403 -380 -381 4 10 43 91 86 179 102 207 120
248 115 254 -15 14 -403 -243 -596 -395 -95 -74 -126 -104 -132 -127 -86 -359
-131 -544 -138 -560 -4 -11 -13 66 -21 195 -7 118 -15 219 -18 224 -7 12 -275
-257 -406 -409 -62 -71 -147 -175 -189 -231 -180 -237 -361 -563 -431 -774
-20 -58 -37 -105 -40 -105 -2 0 -63 40 -136 88 -73 48 -135 86 -137 83 -14
-14 122 -396 190 -529 21 -42 37 -81 35 -86 -2 -5 -75 13 -162 40 -88 27 -163
48 -168 47 -8 -3 97 -165 151 -234 65 -83 139 -158 206 -210 41 -31 75 -64 75
-74 0 -9 -14 -56 -30 -106 -39 -114 -100 -326 -139 -479 -26 -106 -91 -414
-91 -434 0 -7 158 -34 185 -32 5 0 24 73 41 163 42 207 90 396 153 601 27 89
59 196 72 237 96 324 302 792 484 1100 428 724 1016 1295 1750 1700 190 105
556 275 577 268 9 -3 46 -85 63 -137 5 -16 -14 -27 -128 -75 -248 -105 -523
-252 -757 -405 -291 -190 -646 -499 -868 -756 -260 -302 -460 -603 -646 -975
-88 -176 -229 -515 -242 -580 l-7 -30 104 6 c131 7 230 19 340 41 l87 17 12
160 c7 89 18 220 24 291 l11 130 59 -253 c33 -138 63 -257 66 -262 9 -14 247
90 307 135 2 1 -9 26 -23 56 -15 30 -58 119 -95 199 l-69 145 62 -65 c35 -36
103 -107 151 -158 l89 -93 45 37 c60 49 138 151 243 316 189 296 374 533 574
734 178 177 296 274 546 448 23 15 40 30 38 32 -2 1 -98 37 -213 78 l-210 76
150 -5 c83 -3 232 -8 332 -11 l183 -6 97 52 c96 52 233 140 233 151 0 3 -75
11 -167 17 -341 25 -347 14 57 108 l355 83 69 73 c159 169 300 398 342 558 25
94 23 220 -5 291 -39 102 -162 210 -236 208 -16 -1 -111 -25 -210 -54z"/>
<path d="M1057 1053 c-9 -15 -26 -85 -19 -79 7 8 32 86 27 86 -2 0 -6 -3 -8
-7z"/>
</g>
</svg>
