<?xml version="1.0" standalone="no"?>
<!DOCTYPE svg PUBLIC "-//W3C//DTD SVG 20010904//EN"
 "http://www.w3.org/TR/2001/REC-SVG-20010904/DTD/svg10.dtd">
<svg version="1.0" xmlns="http://www.w3.org/2000/svg"
 width="512.000000pt" height="512.000000pt" viewBox="0 0 512.000000 512.000000"
 preserveAspectRatio="xMidYMid meet">
<metadata>
Created by potrace 1.15, written by Peter Selinger 2001-2017
</metadata>
<g transform="translate(0.000000,512.000000) scale(0.100000,-0.100000)"
fill="#ffffff" stroke="none">
<path d="M3890 4923 c-247 -101 -312 -132 -391 -185 -93 -62 -173 -143 -209
-212 l-22 -41 -149 -23 c-706 -107 -1357 -468 -1771 -982 -318 -395 -536 -917
-614 -1468 -8 -59 -18 -109 -22 -112 -263 -207 -394 -366 -443 -537 -36 -128
-42 -237 -34 -685 l7 -428 1522 0 1521 0 64 198 c74 230 83 297 56 416 -23
104 -84 223 -204 395 -228 325 -337 623 -348 951 -10 284 47 502 180 693 22
31 38 59 36 61 -2 2 -27 15 -56 30 -66 33 -119 79 -154 134 -29 47 -66 179
-56 205 4 10 27 17 73 22 37 4 73 9 81 12 9 4 13 -4 13 -24 0 -50 29 -129 57
-157 30 -31 76 -52 143 -68 44 -10 48 -14 128 -137 144 -220 299 -365 475
-445 83 -38 135 -52 228 -62 l67 -7 21 -81 c25 -94 59 -148 119 -190 55 -39
157 -48 229 -21 63 24 126 84 154 148 22 47 24 66 24 197 0 199 -20 270 -109
384 -138 176 -247 386 -390 751 -152 386 -187 464 -250 552 -32 46 -78 101
-102 123 l-43 39 26 83 c33 109 114 279 191 402 34 54 62 100 62 102 0 9 -30
0 -110 -33z m-131 -1119 c17 -14 36 -44 43 -66 11 -36 9 -45 -11 -83 -52 -98
-179 -97 -226 2 -23 48 -12 98 30 140 29 29 40 33 83 33 40 0 57 -6 81 -26z
m721 -1178 c0 -12 -3 -50 -6 -84 -6 -56 -8 -60 -36 -66 -21 -4 -30 -13 -34
-35 -5 -26 -11 -29 -57 -35 -29 -3 -67 -6 -86 -6 l-34 0 7 51 c16 121 94 196
209 198 32 1 37 -2 37 -23z"/>
<path d="M1925 4763 c-232 -27 -431 -69 -709 -148 -125 -36 -235 -69 -244 -74
-12 -7 25 -22 134 -56 370 -117 514 -177 618 -258 65 -52 96 -87 74 -87 -7 0
-64 5 -127 11 -263 24 -613 -46 -871 -176 -109 -55 -230 -126 -230 -135 0 -4
35 -11 78 -15 155 -13 388 -46 447 -62 33 -9 92 -31 131 -48 l72 -33 93 95
c337 340 733 582 1210 738 142 47 373 105 417 105 123 1 -289 97 -573 135
-105 14 -431 19 -520 8z"/>
<path d="M1024 3665 c-168 -19 -326 -52 -464 -97 -124 -40 -325 -127 -315
-136 2 -3 62 -19 132 -37 230 -58 355 -123 462 -242 l59 -66 32 63 c69 138
203 335 312 461 26 31 48 59 48 63 0 10 -145 5 -266 -9z"/>
<path d="M605 3091 c-87 -23 -162 -53 -240 -95 -33 -19 -93 -50 -132 -71 -40
-20 -70 -41 -67 -46 3 -5 46 -9 95 -9 154 0 331 -36 433 -87 47 -24 50 -24 63
-7 7 10 13 22 13 27 0 5 28 69 61 143 42 92 58 139 51 146 -19 19 -201 19
-277 -1z"/>
<path d="M675 2725 c-22 -7 -80 -25 -130 -38 -49 -14 -116 -35 -147 -47 -56
-21 -214 -117 -206 -125 2 -3 44 -16 94 -30 156 -45 243 -93 302 -169 12 -16
24 -27 25 -25 2 2 16 56 32 119 15 63 43 160 62 214 18 55 33 104 33 108 0 11
-17 9 -65 -7z"/>
<path d="M470 2213 c-51 -8 -157 -46 -225 -80 -38 -19 -71 -36 -73 -38 -1 -1
15 -20 37 -42 53 -53 76 -130 67 -228 -3 -38 -9 -81 -12 -95 -5 -18 19 1 87
70 52 52 120 118 152 145 l57 50 19 107 18 106 -30 6 c-31 6 -55 6 -97 -1z"/>
</g>
</svg>
