<?xml version="1.0" standalone="no"?>
<!DOCTYPE svg PUBLIC "-//W3C//DTD SVG 20010904//EN"
 "http://www.w3.org/TR/2001/REC-SVG-20010904/DTD/svg10.dtd">
<svg version="1.0" xmlns="http://www.w3.org/2000/svg"
 width="512.000000pt" height="512.000000pt" viewBox="0 0 512.000000 512.000000"
 preserveAspectRatio="xMidYMid meet">
<metadata>
Created by potrace 1.15, written by Peter Selinger 2001-2017
</metadata>
<g transform="translate(0.000000,512.000000) scale(0.100000,-0.100000)"
fill="#ffffff" stroke="none">
<path d="M1726 4889 c-225 -29 -418 -88 -621 -189 -176 -88 -302 -177 -430
-305 -258 -257 -401 -543 -449 -902 -4 -24 -3 -43 1 -43 5 0 19 19 33 41 14
23 62 77 108 120 134 127 288 189 440 176 137 -11 251 -78 323 -190 62 -95 74
-148 74 -319 l0 -146 65 62 c108 104 204 146 330 146 96 0 163 -15 249 -57 96
-46 204 -150 247 -238 26 -54 29 -70 29 -156 0 -75 -4 -100 -18 -120 -63 -86
-114 -170 -126 -205 l-13 -42 -93 -4 c-78 -3 -102 -8 -156 -35 -82 -41 -141
-100 -182 -182 -30 -63 -32 -71 -33 -187 l-1 -121 -129 -125 c-71 -69 -167
-161 -214 -206 -47 -44 -83 -83 -80 -86 5 -4 821 103 828 109 2 2 -36 62 -83
134 -91 137 -118 195 -130 272 -19 127 80 239 212 239 29 0 33 -3 38 -37 13
-82 38 -161 71 -223 38 -68 126 -167 182 -202 39 -24 38 -36 -7 -133 -72 -155
-159 -204 -541 -305 -256 -68 -401 -141 -530 -270 -178 -177 -223 -395 -127
-610 60 -135 185 -252 332 -311 62 -25 98 -32 175 -36 158 -9 271 30 401 139
l70 59 37 -27 c20 -16 72 -63 114 -106 87 -89 81 -92 97 47 34 300 18 585 -47
865 l-18 75 -67 -101 c-144 -217 -326 -398 -539 -539 -32 -21 -58 -42 -58 -46
0 -5 20 -9 45 -9 77 0 245 -42 245 -61 0 -16 -104 -76 -160 -93 -71 -21 -114
-20 -193 4 -201 62 -328 274 -272 453 32 102 136 208 272 276 80 41 140 61
353 121 96 26 211 64 255 82 192 81 306 200 365 382 l16 49 95 -2 c85 -1 115
3 226 35 19 5 29 -6 78 -81 186 -284 159 -336 -244 -469 -122 -41 -225 -77
-228 -80 -3 -2 118 -126 268 -274 151 -149 275 -264 277 -257 2 8 -13 118 -33
245 -21 127 -36 233 -34 234 2 2 31 17 65 34 80 40 169 122 201 186 65 129 31
295 -101 487 -31 44 -56 83 -56 86 0 2 18 25 39 51 22 26 56 75 76 110 70 121
218 203 338 188 254 -34 403 -330 322 -640 -15 -58 -12 -86 6 -54 18 33 166
142 238 176 99 47 206 55 294 22 171 -64 280 -305 247 -548 -6 -46 -9 -87 -6
-89 10 -11 197 388 245 525 186 523 239 1055 150 1510 -88 454 -314 817 -656
1056 l-53 36 0 -137 c0 -329 -62 -606 -181 -806 -51 -86 -182 -219 -262 -266
-84 -49 -210 -89 -311 -97 l-87 -7 59 59 c68 68 100 139 109 243 5 59 11 73
53 129 72 97 95 173 94 307 0 123 -18 184 -77 272 -45 66 -56 66 -46 1 18
-113 -30 -261 -114 -353 l-42 -46 -65 32 c-55 28 -79 34 -152 37 -62 3 -100 0
-134 -12 -25 -8 -51 -13 -55 -10 -20 12 -58 104 -69 164 -19 104 10 230 75
329 32 48 33 52 12 45 -149 -45 -291 -217 -317 -386 -18 -115 14 -258 77 -352
25 -37 28 -50 28 -126 0 -47 4 -96 9 -110 l9 -24 -29 19 c-55 35 -155 128
-204 190 -255 321 -235 729 52 1013 75 74 163 142 235 179 29 16 53 33 53 38
0 15 -152 110 -247 156 -100 48 -260 102 -363 123 -172 35 -396 45 -554 25z"/>
</g>
</svg>
