<?xml version="1.0" standalone="no"?>
<!DOCTYPE svg PUBLIC "-//W3C//DTD SVG 20010904//EN"
 "http://www.w3.org/TR/2001/REC-SVG-20010904/DTD/svg10.dtd">
<svg version="1.0" xmlns="http://www.w3.org/2000/svg"
 width="512.000000pt" height="512.000000pt" viewBox="0 0 512.000000 512.000000"
 preserveAspectRatio="xMidYMid meet">
<metadata>
Created by potrace 1.15, written by Peter Selinger 2001-2017
</metadata>
<g transform="translate(0.000000,512.000000) scale(0.100000,-0.100000)"
fill="#ffffff" stroke="none">
<path d="M2601 4938 c-492 -37 -951 -187 -1331 -436 -120 -78 -154 -104 -308
-236 -273 -234 -518 -589 -666 -962 -55 -141 -102 -291 -93 -300 3 -3 20 8 38
24 119 102 391 289 614 422 559 334 1168 547 1780 624 138 18 346 36 390 35
l30 -1 -35 -10 c-684 -189 -1348 -614 -1930 -1234 -332 -355 -661 -810 -866
-1200 l-64 -121 0 -611 c0 -337 4 -612 8 -612 4 0 43 75 87 167 44 92 123 247
177 345 874 1604 2055 2673 3683 3333 205 83 520 197 675 245 58 17 109 35
113 39 16 16 -455 63 -801 81 -705 36 -1497 -29 -2127 -175 -126 -29 -382 -94
-411 -105 l-29 -10 25 20 c209 173 523 374 755 486 146 70 353 151 448 175 26
6 50 15 53 20 6 10 -56 10 -215 -3z"/>
<path d="M4618 4142 c-75 -65 -196 -170 -269 -234 -74 -63 -278 -240 -454
-393 -176 -152 -414 -359 -530 -458 -115 -100 -247 -215 -292 -254 -45 -40
-85 -73 -88 -73 -3 0 10 28 28 63 156 288 460 878 455 882 -3 3 -92 -55 -199
-128 -709 -484 -1293 -988 -1710 -1477 -411 -482 -719 -988 -936 -1540 -53
-135 -116 -320 -111 -326 2 -2 92 86 200 195 421 426 770 716 1240 1031 l66
45 46 140 c134 409 334 804 555 1098 117 157 131 168 78 62 -169 -340 -317
-929 -386 -1540 -11 -93 -18 -171 -16 -173 5 -5 263 171 390 266 210 158 493
418 677 622 309 342 586 741 880 1270 153 273 527 1024 516 1035 -2 3 -65 -49
-140 -113z"/>
<path d="M4401 3128 c-242 -528 -510 -963 -830 -1348 -138 -167 -158 -188
-340 -370 -251 -250 -482 -438 -802 -652 -282 -190 -421 -268 -829 -471 l-185
-92 329 -3 328 -2 83 45 c339 184 745 470 1015 714 299 270 538 553 721 853
27 45 49 77 49 71 0 -14 -62 -185 -101 -279 -52 -126 -189 -389 -264 -509
-171 -273 -369 -525 -607 -773 -44 -46 -78 -86 -75 -89 8 -7 76 19 272 107
326 145 567 282 786 447 492 369 793 827 950 1442 22 85 38 162 37 170 -2 10
-24 -12 -59 -59 -91 -123 -284 -355 -420 -505 -142 -156 -255 -268 -246 -244
13 38 67 243 91 344 58 248 105 562 125 835 15 199 24 450 17 450 -4 0 -24
-37 -45 -82z"/>
</g>
</svg>
