<?xml version="1.0" standalone="no"?>
<!DOCTYPE svg PUBLIC "-//W3C//DTD SVG 20010904//EN"
 "http://www.w3.org/TR/2001/REC-SVG-20010904/DTD/svg10.dtd">
<svg version="1.0" xmlns="http://www.w3.org/2000/svg"
 width="512.000000pt" height="512.000000pt" viewBox="0 0 512.000000 512.000000"
 preserveAspectRatio="xMidYMid meet">
<metadata>
Created by potrace 1.15, written by Peter Selinger 2001-2017
</metadata>
<g transform="translate(0.000000,512.000000) scale(0.100000,-0.100000)"
fill="#ffffff" stroke="none">
<path d="M1580 4729 c0 -55 25 -144 53 -192 55 -93 116 -129 349 -206 164 -55
302 -119 369 -172 22 -17 42 -30 44 -27 12 12 -108 174 -184 248 -95 94 -153
129 -339 204 -134 53 -190 85 -249 139 l-43 40 0 -34z"/>
<path d="M3092 4483 c-21 -93 -23 -133 -12 -190 20 -99 39 -124 257 -336 121
-118 192 -211 265 -352 l47 -90 1 125 c0 274 -64 405 -300 616 -66 58 -145
140 -177 182 -31 42 -60 81 -64 85 -4 5 -11 -13 -17 -40z"/>
<path d="M1270 4179 c-58 -5 -118 -14 -135 -18 -29 -8 -28 -9 30 -25 252 -71
454 -165 633 -295 68 -48 128 -93 133 -98 6 -6 -32 -2 -83 8 -148 28 -366 49
-515 49 -362 -1 -668 -91 -1008 -297 -101 -61 -245 -163 -245 -172 0 -4 60 5
132 20 295 59 498 79 793 79 258 1 400 -15 629 -66 191 -44 399 -116 589 -207
l109 -51 -35 -12 c-19 -7 -54 -24 -78 -40 -52 -32 -169 -150 -169 -169 0 -9
18 -16 48 -20 86 -12 196 -37 257 -57 159 -53 361 -169 506 -290 66 -55 259
-248 259 -259 0 -4 -17 -3 -37 2 -128 29 -386 -15 -475 -82 -22 -17 -22 -17
22 -29 156 -42 349 -168 526 -344 156 -157 243 -275 353 -485 98 -186 169
-287 277 -396 134 -134 244 -199 404 -237 96 -23 174 -20 282 11 262 75 433
277 501 591 30 138 29 423 -2 605 -47 284 -126 544 -236 780 -46 100 -182 352
-194 359 -3 2 -7 -46 -7 -107 -2 -174 -52 -303 -158 -407 l-46 -44 0 54 c-1
129 -34 298 -81 412 -54 132 -132 245 -287 418 l-67 74 -7 -87 c-10 -129 -29
-178 -104 -256 -63 -66 -63 -66 -64 -35 0 56 -39 188 -80 270 -100 205 -283
397 -550 576 -118 80 -386 221 -460 243 -23 7 -23 6 8 -31 134 -162 222 -299
270 -421 36 -89 65 -189 60 -203 -2 -5 -32 27 -68 72 -257 320 -611 527 -1025
599 -141 24 -440 33 -605 18z m3126 -1950 c180 -101 335 -337 380 -577 19
-104 15 -275 -10 -367 -54 -203 -194 -357 -358 -395 -334 -77 -695 288 -725
734 l-6 89 74 -62 c170 -144 369 -193 500 -126 50 26 107 93 130 153 53 141
26 379 -63 555 l-19 39 23 -7 c13 -4 46 -20 74 -36z"/>
<path d="M4056 4018 c-47 -81 -59 -121 -59 -193 0 -90 19 -136 134 -326 101
-168 139 -247 171 -356 14 -47 24 -69 29 -61 4 8 11 63 14 123 13 193 -23 337
-130 526 -65 114 -101 206 -111 278 -4 28 -10 51 -15 51 -4 0 -19 -19 -33 -42z"/>
<path d="M465 4030 c-144 -22 -200 -24 -282 -6 -35 7 -63 10 -63 7 0 -11 75
-99 105 -124 44 -36 83 -53 149 -67 70 -14 120 -9 321 33 130 28 170 32 303
32 83 0 152 1 152 3 0 9 -213 103 -265 117 -93 25 -277 28 -420 5z"/>
<path d="M1170 3233 c-52 -9 -158 -47 -223 -81 -87 -45 -274 -218 -255 -237 2
-2 30 6 63 17 92 31 216 22 425 -32 212 -54 353 -64 442 -31 31 12 76 37 101
56 43 33 137 147 137 166 0 23 -238 106 -379 133 -76 15 -248 20 -311 9z"/>
<path d="M1941 2680 c-70 -15 -171 -51 -171 -61 0 -5 13 -9 29 -9 77 0 184
-51 276 -130 88 -76 123 -93 203 -98 76 -5 176 14 255 47 l40 17 -73 57 c-87
69 -181 123 -268 154 -74 27 -219 38 -291 23z"/>
<path d="M1830 2244 c33 -76 121 -194 185 -247 82 -69 188 -115 401 -176 199
-56 225 -65 329 -118 75 -38 147 -89 208 -148 21 -20 41 -34 44 -32 5 6 -56
100 -126 192 -170 224 -351 338 -636 400 -181 39 -302 86 -377 146 -20 16 -39
29 -42 29 -3 0 4 -21 14 -46z"/>
</g>
</svg>
