<?xml version="1.0" standalone="no"?>
<!DOCTYPE svg PUBLIC "-//W3C//DTD SVG 20010904//EN"
 "http://www.w3.org/TR/2001/REC-SVG-20010904/DTD/svg10.dtd">
<svg version="1.0" xmlns="http://www.w3.org/2000/svg"
 width="512.000000pt" height="512.000000pt" viewBox="0 0 512.000000 512.000000"
 preserveAspectRatio="xMidYMid meet">
<metadata>
Created by potrace 1.15, written by Peter Selinger 2001-2017
</metadata>
<g transform="translate(0.000000,512.000000) scale(0.100000,-0.100000)"
fill="#ffffff" stroke="none">
<path d="M513 4479 c17 -1145 174 -1954 512 -2644 316 -645 817 -1174 1461
-1544 l92 -52 118 72 c641 389 1097 876 1414 1509 255 508 426 1165 495 1900
25 268 35 475 42 829 l6 333 -29 -6 c-261 -54 -821 -130 -1189 -160 -457 -38
-1140 -45 -1560 -16 -422 30 -962 101 -1334 176 l-34 7 6 -404z m659 97 c531
-68 759 -81 1388 -81 555 0 699 6 1130 51 202 20 658 82 739 100 l24 5 -6
-238 c-25 -906 -146 -1607 -383 -2216 -52 -134 -192 -415 -266 -537 -273 -446
-643 -821 -1102 -1114 l-119 -76 -46 26 c-381 221 -791 595 -1054 963 -191
267 -355 593 -474 946 -162 481 -265 1126 -288 1815 -3 91 -8 224 -11 296 l-5
131 135 -23 c75 -12 227 -34 338 -48z"/>
<path d="M2749 4127 c-195 -79 -317 -180 -383 -320 -54 -114 -60 -154 -61
-447 -1 -167 -6 -283 -14 -315 -31 -127 -146 -263 -258 -305 -252 -95 -415
171 -375 613 7 72 15 150 18 172 l5 40 -31 -35 c-189 -209 -293 -552 -277
-905 19 -404 178 -847 435 -1214 122 -173 288 -345 393 -405 l34 -20 -38 43
c-103 115 -176 266 -212 441 -19 90 -23 306 -7 385 l8 40 23 -45 c42 -82 99
-147 168 -193 99 -65 156 -81 270 -75 82 5 103 10 166 41 129 64 227 186 273
342 32 108 23 286 -22 410 -12 35 85 -66 133 -138 90 -135 146 -313 158 -502
14 -218 -57 -479 -170 -628 -20 -27 -35 -50 -33 -53 12 -11 164 111 264 210
126 126 192 212 264 342 252 455 260 949 25 1482 -20 45 -35 55 -35 23 0 -38
-51 -182 -86 -241 -42 -72 -82 -102 -144 -108 -174 -16 -391 302 -476 698 -26
119 -26 369 -1 460 18 65 72 186 103 228 24 32 7 29 -117 -21z"/>
</g>
</svg>
