<?xml version="1.0" standalone="no"?>
<!DOCTYPE svg PUBLIC "-//W3C//DTD SVG 20010904//EN"
 "http://www.w3.org/TR/2001/REC-SVG-20010904/DTD/svg10.dtd">
<svg version="1.0" xmlns="http://www.w3.org/2000/svg"
 width="512.000000pt" height="512.000000pt" viewBox="0 0 512.000000 512.000000"
 preserveAspectRatio="xMidYMid meet">
<metadata>
Created by potrace 1.15, written by Peter Selinger 2001-2017
</metadata>
<g transform="translate(0.000000,512.000000) scale(0.100000,-0.100000)"
fill="#ffffff" stroke="none">
<path d="M1330 5016 c0 -2 42 -30 93 -62 434 -272 792 -595 1157 -1044 l45
-55 -60 51 c-80 68 -224 173 -370 271 -542 362 -1211 615 -1900 717 -54 8
-101 13 -103 11 -7 -7 17 -158 54 -345 150 -755 465 -1438 928 -2010 l60 -75
-49 39 c-155 123 -238 198 -406 365 -249 250 -406 441 -587 718 -48 73 -90
132 -94 133 -5 0 -8 -70 -8 -155 l0 -156 81 -142 c189 -330 441 -685 693 -977
401 -462 940 -919 1424 -1204 45 -27 80 -51 78 -53 -7 -7 -498 235 -642 317
-328 185 -650 395 -919 598 -169 128 -464 375 -596 501 -54 50 -100 91 -103
91 -3 0 -6 -87 -6 -194 l0 -194 82 -75 c187 -168 506 -416 733 -569 1097 -739
2376 -1187 3798 -1329 120 -12 220 -19 224 -16 8 9 -32 373 -73 657 -225 1565
-838 2946 -1801 4060 l-99 115 -218 3 c-127 1 -216 -1 -214 -7 1 -5 50 -59
108 -121 130 -140 114 -123 181 -200 406 -473 778 -1028 1039 -1550 85 -170
170 -350 165 -350 -2 0 -16 21 -31 48 -52 90 -207 318 -308 452 -172 230 -342
427 -556 641 -301 302 -457 434 -845 716 -86 62 -350 228 -506 317 l-116 66
-166 0 c-92 0 -167 -2 -167 -4z m379 -1577 c265 -140 513 -305 767 -510 61
-50 116 -90 121 -89 10 2 154 140 408 391 l201 199 167 -168 167 -167 -120
-75 c-66 -41 -144 -90 -173 -108 -28 -18 -59 -37 -66 -41 -12 -7 2 -30 65
-107 498 -611 909 -1303 1193 -2008 40 -98 70 -181 67 -184 -7 -6 -207 73
-431 171 -561 245 -1154 607 -1690 1032 -77 61 -146 114 -153 119 -8 5 -48
-48 -130 -173 l-118 -180 -171 165 -171 164 304 304 304 304 -61 73 c-217 259
-412 551 -558 833 -50 98 -57 116 -44 116 3 0 58 -28 122 -61z"/>
</g>
</svg>
