<?xml version="1.0" standalone="no"?>
<!DOCTYPE svg PUBLIC "-//W3C//DTD SVG 20010904//EN"
 "http://www.w3.org/TR/2001/REC-SVG-20010904/DTD/svg10.dtd">
<svg version="1.0" xmlns="http://www.w3.org/2000/svg"
 width="512.000000pt" height="512.000000pt" viewBox="0 0 512.000000 512.000000"
 preserveAspectRatio="xMidYMid meet">
<metadata>
Created by potrace 1.15, written by Peter Selinger 2001-2017
</metadata>
<g transform="translate(0.000000,512.000000) scale(0.100000,-0.100000)"
fill="#ffffff" stroke="none">
<path d="M2585 4869 c-220 -49 -407 -93 -415 -97 -8 -4 329 -9 749 -12 l763
-5 -198 -124 c-228 -143 -209 -130 -203 -135 4 -5 66 8 514 104 99 21 181 37
182 36 1 0 -82 -61 -185 -133 -103 -73 -306 -216 -452 -319 -146 -103 -295
-208 -332 -233 -36 -25 -62 -47 -58 -49 5 -2 71 21 147 51 76 30 233 92 348
137 116 46 292 116 393 156 l183 73 -24 -32 c-84 -113 -626 -912 -634 -937 -3
-8 202 192 456 445 254 253 460 453 457 445 -25 -74 -356 -1253 -353 -1257 3
-2 49 58 103 134 308 434 598 839 606 848 6 6 7 5 4 -5 -14 -37 -83 -390 -76
-390 3 0 58 76 121 168 l114 169 5 -716 c4 -580 7 -708 17 -676 7 22 42 174
78 338 l65 299 0 904 0 904 -987 -1 -988 -1 -400 -89z"/>
<path d="M2469 4517 c-243 -101 -477 -354 -644 -700 -75 -153 -138 -339 -161
-470 -19 -110 -15 -260 11 -359 15 -58 23 -73 60 -103 24 -19 60 -57 80 -85
20 -27 41 -50 46 -50 32 0 365 234 374 263 6 19 26 329 21 334 -2 2 -32 -35
-66 -82 -34 -47 -64 -84 -67 -81 -8 8 26 154 49 209 12 28 34 72 49 97 15 24
26 46 24 49 -3 2 -52 -19 -110 -47 -58 -28 -105 -49 -105 -47 0 2 13 27 28 55
47 85 109 163 193 245 43 42 79 79 79 81 0 7 -117 -38 -202 -77 -49 -23 -91
-39 -93 -37 -2 2 14 33 37 68 49 78 156 187 258 262 73 53 77 57 93 119 17 61
101 332 113 364 8 20 0 19 -67 -8z"/>
<path d="M2729 3273 l-67 -4 -199 -222 -200 -222 -189 -127 c-168 -112 -195
-127 -241 -132 l-52 -5 -16 48 c-63 192 -293 352 -484 339 -143 -10 -207 -84
-198 -228 6 -122 72 -230 191 -315 88 -63 167 -95 246 -102 l67 -6 -54 -71
c-100 -132 -160 -285 -188 -472 -12 -86 -35 -415 -35 -512 l0 -33 107 3 108 3
1 190 c0 251 28 375 127 571 28 56 49 82 104 126 37 30 73 58 80 61 15 9 209
-73 298 -125 96 -57 172 -137 224 -237 46 -89 181 -389 181 -403 0 -5 -67 -93
-149 -196 l-149 -188 -41 -177 c-22 -98 -41 -182 -41 -187 0 -9 138 -56 144
-49 2 2 43 83 91 179 77 154 103 195 220 345 167 215 195 256 195 291 0 63
-37 164 -165 449 -15 33 -25 58 -22 55 3 -3 45 -53 93 -111 161 -192 188 -224
227 -268 34 -38 39 -48 34 -80 -42 -287 -70 -464 -78 -496 -9 -35 -5 -61 25
-180 20 -77 38 -150 42 -161 l6 -22 101 26 c56 14 103 26 104 27 1 0 -18 69
-43 153 l-44 152 39 77 c70 141 111 319 111 489 l0 81 -57 81 c-32 45 -103
146 -158 224 -273 387 -462 558 -682 617 l-63 17 93 77 c161 134 172 147 351
400 97 136 176 249 176 252 0 5 -43 4 -171 -2z"/>
<path d="M1180 2241 c-154 -47 -311 -223 -436 -485 -95 -202 -162 -450 -200
-741 -21 -162 -25 -549 -6 -680 17 -116 33 -178 43 -168 4 4 49 90 98 190 l90
182 -6 163 c-4 109 -2 198 7 268 14 112 19 112 40 0 12 -68 57 -180 71 -180 5
0 9 56 9 124 0 133 16 241 52 346 l22 65 9 -81 c9 -93 28 -175 41 -177 5 -1
37 52 72 118 62 116 64 122 64 195 0 221 74 574 164 782 l16 38 -50 25 c-52
26 -60 28 -100 16z"/>
</g>
</svg>
