<?xml version="1.0" standalone="no"?>
<!DOCTYPE svg PUBLIC "-//W3C//DTD SVG 20010904//EN"
 "http://www.w3.org/TR/2001/REC-SVG-20010904/DTD/svg10.dtd">
<svg version="1.0" xmlns="http://www.w3.org/2000/svg"
 width="512.000000pt" height="512.000000pt" viewBox="0 0 512.000000 512.000000"
 preserveAspectRatio="xMidYMid meet">
<metadata>
Created by potrace 1.15, written by Peter Selinger 2001-2017
</metadata>
<g transform="translate(0.000000,512.000000) scale(0.100000,-0.100000)"
fill="#ffffff" stroke="none">
<path d="M1560 4839 c-251 -28 -587 -93 -942 -184 -331 -84 -449 -118 -448
-130 0 -8 306 -98 475 -139 27 -7 24 -10 -44 -27 -83 -21 -381 -138 -381 -149
0 -12 155 -79 279 -120 133 -45 232 -63 293 -54 101 14 348 97 454 152 l39 20
-65 31 c-36 17 -54 29 -40 27 127 -24 388 -58 485 -63 292 -14 803 72 1434
244 l134 36 112 -36 c180 -58 304 -80 410 -74 117 7 392 83 545 150 l45 19
-45 20 c-72 32 -276 97 -390 125 -191 47 -325 33 -615 -66 l-118 -40 -86 24
c-400 111 -881 209 -1156 235 -126 11 -266 11 -375 -1z"/>
<path d="M3110 4273 c-203 -13 -926 -151 -905 -171 15 -15 402 -98 670 -143
169 -29 466 -32 625 -7 279 46 710 136 710 149 0 24 -654 151 -870 169 -112 9
-137 10 -230 3z"/>
<path d="M1425 3703 c-189 -12 -895 -147 -895 -171 0 -8 184 -52 361 -87 524
-102 680 -107 1099 -35 91 16 174 32 185 35 23 8 -33 -25 -128 -75 -37 -19
-67 -37 -67 -40 0 -3 43 -27 94 -55 52 -27 92 -53 88 -56 -4 -3 -59 -13 -122
-23 -191 -28 -627 -120 -643 -135 -16 -15 454 -115 728 -155 250 -36 425 -29
734 30 40 8 95 14 123 14 150 0 488 110 767 250 l76 37 170 6 c122 4 219 14
345 36 271 47 600 118 615 133 13 13 -474 115 -735 154 -155 23 -362 23 -532
0 l-137 -18 -101 41 c-124 51 -326 107 -417 116 -45 5 -98 1 -160 -9 -88 -16
-285 -76 -380 -117 l-45 -19 -160 35 c-288 65 -649 118 -767 113 -25 -1 -68
-3 -96 -5z"/>
<path d="M3255 2870 c-133 -20 -401 -78 -540 -116 -214 -60 -580 -176 -592
-188 -6 -5 272 -97 452 -150 l146 -42 -198 -13 c-214 -13 -394 -34 -708 -82
-319 -49 -895 -157 -895 -168 0 -15 572 -124 945 -180 600 -90 885 -99 1339
-41 83 11 156 20 161 20 6 -1 -62 -29 -151 -64 -171 -67 -294 -121 -294 -131
0 -13 326 -147 495 -204 256 -86 424 -118 565 -108 144 11 418 88 685 195 144
57 249 103 259 112 24 23 -502 222 -738 280 -65 16 -120 31 -122 33 -2 1 85
20 192 41 107 22 194 42 194 46 0 7 -383 83 -615 123 l-130 23 75 13 c212 36
625 144 932 245 157 51 156 47 37 90 -57 20 -133 45 -169 55 -36 11 -103 31
-150 46 -125 38 -367 99 -512 129 -284 59 -451 68 -663 36z"/>
<path d="M864 2846 c-71 -16 -163 -52 -289 -112 -90 -42 -220 -115 -237 -132
-18 -18 302 -186 442 -233 37 -12 103 -24 152 -26 76 -5 99 -2 175 22 103 32
231 90 373 170 l103 58 -24 18 c-46 35 -355 185 -434 211 -103 34 -183 41
-261 24z"/>
<path d="M1683 1650 c-53 -11 -204 -70 -298 -117 -104 -51 -235 -126 -235
-133 0 -4 60 -40 134 -81 l135 -74 -137 -6 c-75 -4 -173 -12 -217 -18 -244
-36 -735 -138 -735 -153 0 -11 466 -114 605 -134 28 -3 54 -9 58 -11 4 -3 -34
-19 -85 -37 -131 -46 -269 -107 -263 -116 8 -12 207 -94 320 -131 87 -29 113
-33 205 -33 97 0 115 3 235 43 125 42 295 114 295 125 0 6 -31 20 -177 80
l-102 42 117 12 c229 24 816 144 795 162 -8 7 -142 40 -323 79 -63 14 -80 21
-65 26 137 53 193 78 306 140 73 39 134 76 136 82 4 11 -193 122 -312 175
-167 75 -290 100 -392 78z"/>
<path d="M4100 904 c-100 -17 -160 -30 -264 -61 -154 -44 -309 -104 -299 -114
7 -7 153 -62 273 -102 l45 -15 -44 -1 c-132 -3 -878 -147 -858 -167 15 -16
464 -109 720 -151 140 -22 427 -22 567 1 318 51 711 134 711 151 0 13 -381
100 -570 130 l-45 7 115 33 c139 40 319 106 319 117 0 10 -50 31 -180 74 -215
72 -410 111 -490 98z"/>
</g>
</svg>
