<?xml version="1.0" standalone="no"?>
<!DOCTYPE svg PUBLIC "-//W3C//DTD SVG 20010904//EN"
 "http://www.w3.org/TR/2001/REC-SVG-20010904/DTD/svg10.dtd">
<svg version="1.0" xmlns="http://www.w3.org/2000/svg"
 width="512.000000pt" height="512.000000pt" viewBox="0 0 512.000000 512.000000"
 preserveAspectRatio="xMidYMid meet">
<metadata>
Created by potrace 1.15, written by Peter Selinger 2001-2017
</metadata>
<g transform="translate(0.000000,512.000000) scale(0.100000,-0.100000)"
fill="#ffffff" stroke="none">
<path d="M602 4780 c-186 -67 -322 -224 -396 -458 -24 -77 -26 -97 -26 -265 0
-150 3 -195 19 -252 25 -90 60 -166 105 -234 40 -58 43 -71 21 -71 -8 0 -44
-12 -80 -26 l-66 -26 3 -127 3 -126 55 -6 c269 -29 516 -259 643 -599 67 -179
82 -277 82 -520 0 -233 -15 -335 -72 -494 -126 -352 -385 -601 -645 -623 l-68
-6 1 -96 c0 -53 10 -224 22 -381 l22 -285 45 -3 45 -2 539 806 539 807 8 201
c12 294 34 405 100 506 41 63 75 85 129 85 39 0 57 -8 128 -59 46 -32 85 -57
87 -55 13 14 235 351 235 357 0 8 -25 27 -435 333 -261 194 -431 324 -458 348
-4 4 10 34 31 67 82 125 122 258 129 434 16 379 -175 700 -462 776 -75 20
-219 17 -283 -6z"/>
<path d="M4229 4786 c-171 -49 -323 -200 -399 -397 -44 -114 -60 -204 -60
-334 0 -184 46 -354 130 -480 31 -46 37 -62 27 -71 -17 -16 -257 -199 -347
-265 -264 -194 -540 -404 -540 -411 0 -6 222 -342 235 -357 2 -2 41 23 87 55
72 51 89 59 128 59 73 0 126 -53 168 -167 35 -93 52 -212 60 -423 l8 -201 540
-807 539 -807 45 2 45 3 22 295 c13 162 22 333 20 380 l-2 85 -65 7 c-131 14
-275 90 -390 207 -234 235 -354 608 -328 1026 31 524 346 961 723 1003 l60 7
3 126 3 127 -66 26 c-36 14 -72 26 -80 26 -21 0 -19 17 9 53 39 51 94 169 116
249 29 106 29 390 0 496 -60 218 -182 378 -350 460 -71 34 -81 37 -185 39 -68
1 -127 -3 -156 -11z"/>
<path d="M1484 4645 c4 -11 96 -262 203 -557 108 -296 201 -538 207 -537 15 0
459 303 463 316 3 8 -800 740 -860 783 -20 14 -20 14 -13 -5z"/>
<path d="M3373 4428 c-142 -128 -339 -305 -436 -392 -98 -88 -176 -164 -174
-170 4 -12 448 -315 463 -315 10 -1 417 1099 410 1107 -2 1 -120 -102 -263
-230z"/>
<path d="M2220 3564 c-36 -25 -71 -49 -79 -53 -10 -6 154 -258 671 -1032 376
-563 875 -1309 1108 -1657 232 -349 428 -636 434 -638 7 -3 65 -3 129 -2 l117
3 -662 990 c-364 545 -879 1314 -1144 1710 -265 396 -488 721 -495 722 -8 1
-43 -19 -79 -43z"/>
<path d="M2736 3499 l-75 -112 61 -91 c34 -50 62 -93 64 -94 1 -2 48 65 104
148 56 83 100 153 98 154 -34 26 -161 106 -168 106 -5 0 -43 -50 -84 -111z"/>
<path d="M180 2071 l0 -951 34 0 c53 0 148 33 208 73 179 119 317 367 363 650
19 119 19 336 0 457 -51 308 -218 579 -418 674 -46 23 -99 40 -132 43 l-55 6
0 -952z"/>
<path d="M4811 3000 c-187 -67 -342 -249 -425 -499 -49 -148 -66 -258 -66
-425 0 -244 52 -457 153 -632 111 -192 288 -324 434 -324 l33 0 0 950 0 950
-37 0 c-21 -1 -62 -10 -92 -20z"/>
<path d="M2298 2843 c-18 -26 -426 -635 -906 -1353 l-872 -1305 122 -3 c89 -2
125 1 134 10 6 7 131 191 276 408 502 749 1353 2024 1379 2065 l27 41 -59 88
c-32 48 -60 90 -62 93 -3 2 -20 -17 -39 -44z"/>
<path d="M1161 461 c-100 -148 -181 -272 -181 -275 0 -3 78 -6 174 -6 l174 0
6 93 c10 157 19 457 13 457 -3 0 -86 -121 -186 -269z"/>
<path d="M3774 548 c3 -101 9 -225 12 -275 l6 -93 174 0 c96 0 174 3 174 6 0
8 -362 544 -368 544 -2 0 -2 -82 2 -182z"/>
</g>
</svg>
