<?xml version="1.0" standalone="no"?>
<!DOCTYPE svg PUBLIC "-//W3C//DTD SVG 20010904//EN"
 "http://www.w3.org/TR/2001/REC-SVG-20010904/DTD/svg10.dtd">
<svg version="1.0" xmlns="http://www.w3.org/2000/svg"
 width="512.000000pt" height="512.000000pt" viewBox="0 0 512.000000 512.000000"
 preserveAspectRatio="xMidYMid meet">
<metadata>
Created by potrace 1.15, written by Peter Selinger 2001-2017
</metadata>
<g transform="translate(0.000000,512.000000) scale(0.100000,-0.100000)"
fill="#ffffff" stroke="none">
<path d="M2390 4915 c-543 -79 -1009 -454 -1309 -1054 -159 -316 -265 -709
-287 -1063 l-7 -103 36 46 c37 48 105 89 146 89 22 0 22 0 -7 -52 -95 -167
-96 -368 -2 -508 16 -25 26 -46 21 -48 -27 -9 -98 24 -142 65 -27 25 -49 44
-49 42 0 -2 7 -62 15 -133 81 -690 386 -1297 837 -1664 281 -229 599 -346 938
-346 222 0 400 41 606 138 621 295 1068 1014 1169 1881 7 60 11 112 9 114 -2
2 -23 -14 -46 -36 -38 -35 -130 -74 -143 -61 -2 2 9 24 26 48 43 66 69 158 69
249 0 91 -19 163 -66 249 -31 58 -32 62 -13 62 38 0 94 -31 136 -77 l43 -46 0
29 c0 59 -32 303 -55 424 -64 326 -194 658 -362 922 -224 352 -528 617 -855
747 -222 88 -482 120 -708 86z m490 -835 c143 -31 241 -65 385 -136 284 -139
528 -374 688 -665 33 -58 97 -203 97 -217 0 -4 -30 27 -67 68 -332 365 -662
579 -1033 669 -333 82 -645 57 -970 -76 -263 -108 -544 -315 -775 -571 -60
-66 -110 -120 -112 -118 -2 1 9 31 23 66 146 361 409 653 744 829 173 91 327
138 565 175 75 11 362 -4 455 -24z m-25 -493 c411 -92 786 -394 1095 -885 38
-59 77 -122 89 -140 12 -18 21 -45 21 -60 0 -16 -32 -79 -76 -152 -259 -431
-586 -738 -930 -874 -174 -69 -238 -80 -439 -81 -203 0 -259 10 -433 75 -343
130 -687 446 -931 857 -35 59 -75 119 -87 133 l-23 26 63 111 c315 552 744
911 1191 994 120 22 349 20 460 -4z m-1625 -1761 c144 -153 235 -233 380 -336
360 -253 761 -366 1140 -320 405 50 770 240 1106 575 61 60 132 135 158 165
59 68 56 50 -21 -110 -249 -525 -744 -861 -1334 -905 -93 -7 -282 8 -393 31
-540 112 -983 502 -1172 1029 l-14 40 42 -50 c23 -27 72 -81 108 -119z"/>
<path d="M2520 3434 c-14 -2 -52 -9 -85 -15 -343 -59 -678 -308 -947 -704 -41
-60 -88 -135 -105 -165 l-31 -55 69 -108 c109 -172 205 -293 331 -419 65 -65
122 -118 128 -118 6 0 -5 28 -24 63 -75 134 -107 263 -108 427 -2 230 82 429
251 598 207 207 519 295 796 226 l66 -17 -48 -16 c-166 -56 -282 -206 -283
-368 0 -29 -4 -33 -42 -44 -89 -24 -165 -66 -235 -133 -178 -168 -223 -410
-117 -633 90 -189 273 -303 486 -303 156 0 280 50 383 154 116 117 171 259
161 416 -3 47 -13 107 -22 134 l-17 49 29 21 c88 62 148 162 167 276 l12 73
37 -79 c48 -103 67 -173 76 -278 19 -208 -38 -420 -154 -583 -30 -43 2 -23 91
55 150 131 305 318 428 519 l57 93 -71 112 c-181 289 -369 491 -592 636 -127
83 -255 136 -402 168 -72 15 -240 26 -285 18z m252 -929 c70 -35 129 -94 164
-163 26 -51 29 -67 29 -152 0 -84 -3 -102 -28 -151 -33 -69 -99 -132 -175
-167 -83 -39 -192 -38 -279 2 -130 60 -203 176 -203 324 0 81 21 144 71 212
32 42 119 100 176 116 72 21 180 11 245 -21z"/>
</g>
</svg>
