<?xml version="1.0" standalone="no"?>
<!DOCTYPE svg PUBLIC "-//W3C//DTD SVG 20010904//EN"
 "http://www.w3.org/TR/2001/REC-SVG-20010904/DTD/svg10.dtd">
<svg version="1.0" xmlns="http://www.w3.org/2000/svg"
 width="512.000000pt" height="512.000000pt" viewBox="0 0 512.000000 512.000000"
 preserveAspectRatio="xMidYMid meet">
<metadata>
Created by potrace 1.15, written by Peter Selinger 2001-2017
</metadata>
<g transform="translate(0.000000,512.000000) scale(0.100000,-0.100000)"
fill="#ffffff" stroke="none">
<path d="M1167 4870 c-207 -35 -427 -160 -570 -323 -188 -217 -297 -488 -297
-739 1 -183 27 -315 91 -447 33 -67 58 -100 122 -165 162 -160 313 -220 767
-301 313 -57 415 -91 498 -169 67 -62 95 -153 82 -269 -21 -186 -112 -318
-275 -400 -75 -37 -126 -48 -228 -48 -99 1 -153 14 -238 56 -77 40 -179 145
-218 227 -34 72 -71 202 -71 252 0 69 -17 56 -34 -26 -58 -290 -40 -559 54
-795 132 -331 435 -572 810 -644 125 -24 365 -16 480 17 13 3 15 41 12 279
l-3 275 282 0 282 0 -7 37 c-3 21 -6 66 -6 101 l0 62 -275 0 -275 0 0 314 0
314 103 58 c56 31 167 95 246 141 79 46 145 83 146 81 1 -2 20 -34 42 -73 85
-150 236 -410 242 -417 4 -4 36 10 71 32 36 22 70 40 77 40 37 0 34 8 -185
382 -40 70 -71 131 -68 137 8 12 497 294 510 294 9 0 513 -287 525 -298 2 -2
-63 -116 -143 -254 -80 -138 -146 -254 -146 -259 0 -5 15 -15 33 -24 17 -8 53
-32 79 -51 l47 -36 40 67 c21 37 87 150 146 252 59 102 111 189 115 194 5 4
57 -20 117 -54 59 -35 168 -97 240 -139 l133 -76 0 -312 0 -313 -295 0 -295 0
0 -62 c0 -35 -3 -80 -6 -101 l-7 -37 302 0 301 0 0 -268 0 -269 -255 -146
c-140 -81 -259 -147 -264 -147 -5 0 -39 51 -74 113 -143 247 -210 362 -213
366 -2 2 -30 -15 -64 -37 -33 -23 -69 -44 -80 -47 -11 -4 -20 -11 -20 -16 0
-5 61 -116 136 -246 135 -234 136 -236 115 -252 -12 -9 -122 -74 -245 -144
l-225 -128 -128 74 c-70 41 -178 104 -240 139 l-111 65 119 209 c66 115 127
219 135 231 7 12 14 28 13 35 0 7 -38 31 -84 54 l-84 41 -110 -191 c-61 -105
-122 -210 -136 -234 l-25 -43 -68 37 c-37 21 -95 55 -130 76 -34 21 -68 38
-75 38 -6 0 -30 -28 -52 -61 -50 -76 -183 -203 -258 -248 -49 -29 -82 -43
-207 -87 -26 -9 222 -131 410 -202 643 -240 1340 -223 1830 45 307 167 558
453 703 802 200 478 206 1073 17 1641 -38 115 -139 362 -155 378 -2 2 -19 -20
-38 -50 -87 -136 -238 -218 -401 -218 -72 0 -194 33 -269 72 -82 43 -196 156
-230 229 -70 149 -63 259 27 457 51 110 83 218 92 308 l7 62 123 32 c69 18
126 31 128 29 1 -2 -14 -65 -34 -139 -25 -91 -33 -137 -26 -141 25 -15 170
-49 176 -42 4 4 22 64 40 133 18 69 35 129 38 134 2 4 51 -38 108 -95 l104
-104 65 65 c36 35 65 69 65 75 0 5 -45 55 -100 110 l-101 101 131 34 c72 19
136 37 142 41 8 5 5 31 -12 96 -12 48 -24 89 -25 91 -2 2 -65 -13 -140 -33
-75 -20 -139 -35 -141 -33 -2 2 12 64 32 137 19 74 32 137 27 141 -9 9 -173
53 -178 48 -2 -3 -30 -103 -65 -237 l-12 -44 -101 101 c-56 56 -106 102 -109
102 -4 0 -37 -30 -74 -66 l-66 -67 106 -106 106 -106 -112 -29 c-62 -16 -118
-31 -124 -33 -6 -2 -28 26 -50 63 -133 227 -463 371 -894 389 l-125 6 93 -25
c231 -62 371 -204 418 -426 53 -247 -63 -586 -264 -772 -65 -59 -122 -91 -219
-118 -188 -55 -340 -26 -420 78 -59 77 -66 164 -28 366 15 84 16 110 6 179
-14 101 -55 190 -116 256 -80 85 -164 121 -363 157 l-92 16 27 33 c16 18 46
54 68 80 l39 48 -49 44 c-28 24 -62 53 -77 63 l-26 20 -63 -75 c-35 -41 -66
-75 -69 -75 -3 0 -20 42 -39 94 l-33 94 -66 -23 c-37 -12 -79 -28 -94 -34
l-27 -10 34 -96 c19 -53 35 -97 35 -99 0 -2 -42 5 -92 15 -51 10 -98 18 -104
18 -15 1 -46 -181 -32 -190 5 -4 45 -12 87 -19 42 -7 82 -16 90 -20 9 -5 -5
-28 -54 -84 l-66 -76 33 -28 c18 -15 52 -44 75 -65 l41 -38 62 73 c35 40 66
77 70 81 4 5 23 -35 41 -87 19 -53 39 -96 45 -96 16 0 158 50 167 59 4 4 -8
52 -27 105 -30 82 -33 96 -18 92 9 -2 49 -10 89 -16 l71 -12 24 -51 c19 -43
23 -69 23 -152 0 -95 -2 -103 -34 -163 -89 -164 -285 -272 -493 -272 -215 0
-393 118 -515 340 -70 129 -94 211 -100 341 -6 119 8 185 58 279 69 128 233
257 409 323 23 8 -88 6 -143 -3z"/>
<path d="M3147 2180 c-47 -18 -147 -87 -147 -101 0 -8 135 -91 198 -123 l32
-17 0 131 c0 148 3 144 -83 110z"/>
<path d="M3410 2071 c0 -72 3 -131 8 -131 6 0 211 116 220 125 2 2 -12 17 -30
34 -31 30 -127 82 -175 96 l-23 6 0 -130z"/>
<path d="M2889 1878 c-13 -48 -8 -213 7 -227 8 -9 244 116 244 129 0 4 -207
128 -231 138 -5 2 -13 -16 -20 -40z"/>
<path d="M3620 1849 c-58 -32 -106 -63 -108 -67 -1 -4 37 -31 85 -59 117 -68
134 -76 141 -68 11 11 8 233 -3 244 -7 6 -46 -11 -115 -50z"/>
<path d="M3108 1554 c-65 -36 -118 -69 -118 -74 0 -5 26 -28 58 -52 55 -41
165 -89 177 -76 3 3 4 64 3 137 l-3 131 -117 -66z"/>
<path d="M3410 1484 l0 -135 23 6 c76 22 207 107 207 135 0 8 -209 130 -223
130 -4 0 -7 -61 -7 -136z"/>
<path d="M645 1153 c-49 -14 -91 -26 -92 -27 -2 -1 13 -62 33 -135 19 -74 33
-136 30 -138 -2 -3 -64 11 -137 31 -73 19 -134 34 -136 33 -8 -9 -50 -187 -45
-190 4 -2 67 -19 140 -37 l134 -33 -103 -103 -104 -104 72 -72 72 -72 100 104
c55 58 102 102 104 100 2 -3 18 -61 36 -130 17 -69 34 -130 36 -137 3 -9 29
-5 97 14 51 14 94 26 95 27 2 2 -62 245 -71 272 -2 6 60 -7 137 -27 78 -21
142 -37 143 -36 8 12 44 172 41 181 -3 7 -66 28 -140 46 l-135 34 106 104 105
103 -71 72 -72 72 -103 -103 -104 -103 -33 128 c-18 70 -36 133 -39 139 -4 8
-33 4 -96 -13z"/>
</g>
</svg>
