<?xml version="1.0" standalone="no"?>
<!DOCTYPE svg PUBLIC "-//W3C//DTD SVG 20010904//EN"
 "http://www.w3.org/TR/2001/REC-SVG-20010904/DTD/svg10.dtd">
<svg version="1.0" xmlns="http://www.w3.org/2000/svg"
 width="512.000000pt" height="512.000000pt" viewBox="0 0 512.000000 512.000000"
 preserveAspectRatio="xMidYMid meet">
<metadata>
Created by potrace 1.15, written by Peter Selinger 2001-2017
</metadata>
<g transform="translate(0.000000,512.000000) scale(0.100000,-0.100000)"
fill="#ffffff" stroke="none">
<path d="M2030 4925 c-376 -54 -684 -178 -940 -379 -83 -65 -309 -282 -377
-362 -160 -188 -346 -570 -418 -857 -112 -447 -123 -979 -29 -1545 49 -297 86
-396 188 -497 75 -74 165 -120 278 -142 152 -29 368 1 482 67 56 32 138 112
173 170 67 110 85 266 41 362 -60 130 -191 199 -311 164 -59 -17 -98 -52 -121
-108 -38 -91 6 -178 89 -178 24 0 25 -2 25 -67 0 -122 -8 -129 -111 -96 -75
24 -159 108 -180 178 -72 252 139 486 411 454 149 -18 277 -114 352 -267 39
-78 43 -91 46 -181 5 -119 -12 -193 -70 -311 -54 -109 -169 -227 -273 -282
-65 -34 -203 -77 -249 -78 -44 -1 200 -201 410 -335 476 -305 1013 -459 1538
-442 352 11 631 80 931 227 348 171 665 449 830 726 142 237 199 428 212 704
23 492 -182 973 -562 1321 -353 322 -865 507 -1274 460 -130 -16 -194 -35
-369 -115 -334 -151 -519 -311 -639 -551 -43 -84 -109 -308 -138 -464 -19
-107 -20 -327 0 -448 66 -407 322 -746 665 -881 139 -55 202 -66 365 -66 182
0 270 19 420 93 219 108 360 278 417 504 17 66 20 101 15 182 -15 290 -181
502 -426 546 -216 38 -441 -117 -441 -305 0 -59 28 -130 64 -165 30 -29 45
-35 91 -39 33 -3 55 -1 55 6 0 5 -9 12 -19 15 -24 6 -61 64 -61 95 0 93 123
154 206 103 91 -56 118 -161 67 -261 -110 -214 -429 -176 -539 65 -79 173 -41
361 104 505 107 107 243 160 412 160 100 0 186 -22 280 -70 224 -117 364 -347
386 -635 28 -371 -227 -750 -607 -901 -433 -171 -918 -66 -1255 274 -182 183
-308 422 -365 695 -27 126 -32 411 -10 548 l14 87 -77 78 c-147 151 -265 348
-322 539 -23 76 -27 110 -27 220 -1 143 15 225 72 363 54 132 200 345 287 422
204 179 337 259 529 316 114 34 295 39 386 11 78 -23 148 -73 182 -129 37 -59
40 -137 9 -217 -12 -30 -19 -57 -17 -59 10 -11 88 87 118 148 30 60 32 72 32
165 0 93 -2 105 -33 167 -63 128 -211 231 -402 279 -110 27 -378 35 -520 14z"/>
</g>
</svg>
