<?xml version="1.0" standalone="no"?>
<!DOCTYPE svg PUBLIC "-//W3C//DTD SVG 20010904//EN"
 "http://www.w3.org/TR/2001/REC-SVG-20010904/DTD/svg10.dtd">
<svg version="1.0" xmlns="http://www.w3.org/2000/svg"
 width="512.000000pt" height="512.000000pt" viewBox="0 0 512.000000 512.000000"
 preserveAspectRatio="xMidYMid meet">
<metadata>
Created by potrace 1.15, written by Peter Selinger 2001-2017
</metadata>
<g transform="translate(0.000000,512.000000) scale(0.100000,-0.100000)"
fill="#ffffff" stroke="none">
<path d="M2480 4080 l0 -159 -42 -11 c-24 -6 -60 -17 -80 -24 l-38 -14 0 104
0 104 -80 0 -80 0 0 -143 0 -142 -77 -47 -78 -46 -3 109 -3 109 -79 0 -80 0 0
-168 0 -169 -77 -56 -78 -56 -3 65 -3 64 -79 0 -80 0 0 -127 -1 -128 -79 -58
-80 -57 0 105 0 105 -80 0 -80 0 0 -159 0 -160 -74 -40 c-40 -23 -76 -41 -80
-41 -3 0 -6 18 -6 40 l0 40 -80 0 -80 0 0 -74 0 -73 -53 -7 c-28 -3 -64 -6
-79 -6 l-28 0 0 160 0 160 -240 0 -240 0 0 -1520 0 -1520 240 0 240 0 0 1280
0 1280 80 0 80 0 0 -1280 0 -1280 80 0 80 0 0 1303 0 1303 75 37 c42 20 78 37
80 37 3 0 5 -603 5 -1340 l0 -1340 80 0 80 0 0 1393 0 1392 78 53 77 53 3
-1446 2 -1445 80 0 80 0 0 720 0 720 80 0 80 0 0 -720 0 -720 80 0 80 0 0
1625 0 1624 75 51 c41 27 77 50 80 50 3 0 5 -322 5 -715 l0 -715 80 0 80 0 0
764 0 764 65 26 c36 14 72 26 80 26 13 0 15 -97 15 -790 l0 -790 80 0 80 0 0
790 c0 693 2 790 15 790 8 0 44 -12 80 -26 l65 -26 0 -764 0 -764 80 0 80 0 0
715 c0 393 2 715 5 715 3 0 39 -23 80 -50 l75 -51 0 -1624 0 -1625 80 0 80 0
0 720 0 720 80 0 80 0 0 -720 0 -720 80 0 80 0 2 1445 3 1446 77 -53 78 -53 0
-1392 0 -1393 80 0 80 0 0 1340 c0 737 2 1340 5 1340 2 0 38 -17 80 -37 l75
-37 0 -1303 0 -1303 80 0 80 0 0 1280 0 1280 80 0 80 0 0 -1280 0 -1280 240 0
240 0 0 1520 0 1520 -240 0 -240 0 0 -160 0 -160 -27 0 c-16 0 -52 3 -80 6
l-53 7 0 73 0 74 -80 0 -80 0 0 -40 c0 -22 -3 -40 -6 -40 -4 0 -40 18 -80 41
l-74 40 0 160 0 159 -80 0 -80 0 0 -105 0 -105 -80 57 -79 58 -1 128 0 127
-80 0 -79 0 -3 -64 -3 -65 -77 56 -78 56 0 169 0 168 -80 0 -79 0 -3 -110 -3
-110 -77 48 -78 47 0 143 0 142 -80 0 -80 0 0 -104 0 -104 -37 14 c-21 7 -57
18 -80 24 l-43 11 0 159 0 160 -80 0 -80 0 0 -160z m-640 -1475 l0 -765 -80 0
-80 0 0 708 1 707 77 57 c42 32 78 58 80 58 1 0 2 -344 2 -765z m1562 677 l38
-27 0 -707 0 -708 -80 0 -80 0 0 766 0 766 43 -32 c23 -17 59 -44 79 -58z"/>
<path d="M375 3901 c-87 -40 -135 -120 -135 -223 1 -142 97 -238 240 -238 144
0 240 96 240 240 0 104 -53 187 -142 224 -52 22 -153 20 -203 -3z"/>
<path d="M4535 3901 c-87 -40 -135 -120 -135 -223 1 -142 97 -238 240 -238
144 0 240 96 240 240 0 104 -53 187 -142 224 -52 22 -153 20 -203 -3z"/>
<path d="M2160 1840 l0 -160 400 0 400 0 0 160 0 160 -400 0 -400 0 0 -160z"/>
<path d="M2160 880 l0 -640 80 0 80 0 0 640 0 640 -80 0 -80 0 0 -640z"/>
<path d="M2480 880 l0 -640 80 0 80 0 0 640 0 640 -80 0 -80 0 0 -640z"/>
<path d="M2800 880 l0 -640 80 0 80 0 0 640 0 640 -80 0 -80 0 0 -640z"/>
</g>
</svg>
