<?xml version="1.0" standalone="no"?>
<!DOCTYPE svg PUBLIC "-//W3C//DTD SVG 20010904//EN"
 "http://www.w3.org/TR/2001/REC-SVG-20010904/DTD/svg10.dtd">
<svg version="1.0" xmlns="http://www.w3.org/2000/svg"
 width="512.000000pt" height="512.000000pt" viewBox="0 0 512.000000 512.000000"
 preserveAspectRatio="xMidYMid meet">
<metadata>
Created by potrace 1.15, written by Peter Selinger 2001-2017
</metadata>
<g transform="translate(0.000000,512.000000) scale(0.100000,-0.100000)"
fill="#ffffff" stroke="none">
<path d="M3243 4139 c117 -161 174 -269 211 -407 14 -48 40 -119 60 -158 71
-143 95 -333 60 -485 -9 -39 -14 -72 -12 -73 1 -2 40 -6 84 -8 l81 -5 16 46
c43 124 51 175 52 331 0 175 -16 253 -80 379 -90 180 -275 338 -465 396 -24 8
-24 7 -7 -16z"/>
<path d="M863 4070 c-69 -41 -83 -137 -35 -232 l27 -55 -45 20 c-66 30 -164
29 -214 -2 -74 -46 -99 -137 -55 -207 26 -42 60 -62 191 -114 124 -48 279
-138 400 -232 78 -61 344 -304 412 -376 l29 -31 44 71 c24 39 61 93 83 121
l40 49 -113 123 c-230 249 -348 415 -467 660 -97 198 -123 225 -217 225 -30 0
-60 -7 -80 -20z"/>
<path d="M4080 3861 c55 -133 74 -233 74 -381 0 -98 -4 -153 -17 -200 -24 -90
-85 -214 -140 -284 l-47 -59 74 -42 c85 -48 113 -69 178 -131 l47 -46 40 61
c45 70 93 181 119 273 13 47 17 101 17 213 0 129 -3 160 -23 225 -32 101 -82
194 -148 274 -54 65 -168 165 -190 166 -7 0 -1 -27 16 -69z"/>
<path d="M2690 3853 c-161 -20 -300 -84 -408 -188 -139 -132 -202 -276 -202
-458 0 -60 6 -127 15 -161 40 -155 152 -292 305 -375 l85 -47 55 -204 c31
-113 58 -211 61 -219 4 -12 79 5 392 89 213 57 387 108 387 114 0 5 -25 101
-55 213 -30 112 -55 209 -55 215 0 6 18 39 40 72 65 101 92 185 98 306 5 121
-10 197 -59 297 -76 157 -231 280 -409 326 -61 16 -196 27 -250 20z m419 -443
c131 -66 126 -243 -7 -302 -147 -65 -289 98 -207 237 28 48 90 85 143 85 18 0
50 -9 71 -20z m-607 -140 c74 -21 128 -89 128 -162 -1 -48 -33 -111 -70 -138
-39 -28 -117 -38 -160 -20 -40 17 -86 71 -101 118 -27 92 54 202 156 211 6 1
27 -4 47 -9z m396 -360 c55 -69 97 -128 94 -131 -10 -9 -241 -64 -245 -58 -8
8 37 329 44 321 4 -4 52 -63 107 -132z"/>
<path d="M4691 3348 c13 -91 10 -252 -7 -339 -33 -174 -117 -335 -233 -441
l-58 -55 28 -85 c30 -89 51 -241 42 -292 l-6 -29 34 19 c64 36 241 224 292
311 175 294 161 632 -37 901 -25 34 -50 62 -54 62 -5 0 -5 -24 -1 -52z"/>
<path d="M1862 2955 c-81 -88 -147 -209 -187 -342 l-13 -42 73 -40 c40 -22
106 -67 146 -99 205 -163 322 -380 354 -655 l7 -58 31 7 c48 10 182 7 240 -6
87 -20 192 -78 263 -144 l65 -61 -57 -45 c-86 -67 -79 -66 -134 -17 -131 118
-301 138 -475 56 -63 -30 -147 -109 -170 -159 l-19 -42 -85 7 c-48 4 -88 9
-89 10 -7 7 20 80 46 125 32 57 104 134 161 173 l44 30 -6 91 c-24 347 -241
599 -631 732 -118 41 -234 29 -313 -32 -120 -92 -188 -342 -163 -606 6 -62 17
-157 25 -210 8 -54 15 -104 15 -111 0 -7 -62 50 -138 125 -147 146 -186 172
-285 188 -105 17 -222 -25 -297 -106 -62 -67 -83 -117 -88 -212 -4 -77 -2 -87
26 -145 37 -75 142 -186 231 -246 145 -98 402 -198 676 -264 83 -20 159 -37
170 -39 15 -3 4 -12 -39 -33 -136 -65 -195 -160 -152 -244 70 -135 349 -222
670 -208 404 17 646 178 530 355 l-16 25 173 -7 c182 -7 647 6 885 24 726 56
1284 190 1457 349 76 71 137 232 137 366 0 208 -137 397 -338 464 -81 28 -159
26 -262 -3 -47 -14 -86 -23 -88 -21 -2 2 5 44 17 93 31 130 35 222 17 317 -48
245 -251 448 -514 516 -93 24 -289 27 -298 5 -3 -7 27 -132 66 -277 38 -144
67 -266 63 -269 -16 -14 -1107 -300 -1114 -293 -4 5 -38 125 -76 268 l-70 260
-57 33 c-81 47 -200 163 -256 249 -26 39 -60 106 -75 147 -15 42 -29 76 -30
76 -2 0 -26 -25 -53 -55z"/>
<path d="M3860 556 c-125 -36 -170 -95 -120 -159 63 -79 358 -104 485 -40 76
39 98 98 52 141 -51 48 -114 66 -247 69 -81 1 -141 -2 -170 -11z"/>
<path d="M680 413 c-54 -9 -122 -36 -150 -60 -37 -31 -41 -82 -9 -114 78 -78
330 -98 469 -38 190 82 55 222 -208 218 -42 -1 -88 -4 -102 -6z"/>
</g>
</svg>
