<?xml version="1.0" standalone="no"?>
<!DOCTYPE svg PUBLIC "-//W3C//DTD SVG 20010904//EN"
 "http://www.w3.org/TR/2001/REC-SVG-20010904/DTD/svg10.dtd">
<svg version="1.0" xmlns="http://www.w3.org/2000/svg"
 width="512.000000pt" height="512.000000pt" viewBox="0 0 512.000000 512.000000"
 preserveAspectRatio="xMidYMid meet">
<metadata>
Created by potrace 1.15, written by Peter Selinger 2001-2017
</metadata>
<g transform="translate(0.000000,512.000000) scale(0.100000,-0.100000)"
fill="#ffffff" stroke="none">
<path d="M1311 4671 c-121 -138 -221 -257 -221 -265 0 -8 38 -190 86 -403 47
-213 114 -521 149 -683 36 -162 99 -450 140 -640 195 -890 256 -1173 253
-1175 -2 -2 -41 -6 -88 -10 l-86 -7 -53 243 c-29 134 -117 539 -196 899 -79
360 -194 884 -255 1165 -61 280 -114 512 -116 515 -3 2 -62 -54 -131 -125 -70
-72 -195 -200 -280 -285 l-153 -155 305 -1200 c168 -660 333 -1310 367 -1445
33 -135 64 -249 68 -253 6 -6 252 269 410 455 3 4 34 -21 68 -55 l63 -63 -217
-248 c-119 -136 -212 -251 -208 -256 5 -4 458 -114 1007 -244 l999 -237 46 43
c245 223 492 453 492 457 0 4 -432 119 -960 256 -571 148 -959 253 -957 260 3
5 13 43 23 83 10 39 23 72 29 72 5 0 145 -36 310 -79 1264 -330 1667 -432
1678 -428 6 2 90 152 186 333 96 181 187 352 202 379 68 128 392 737 518 974
l140 265 -38 70 c-132 244 -529 982 -584 1087 l-66 125 -323 98 c-178 55 -467
143 -643 197 -323 98 -1696 516 -1726 525 -12 3 -83 -70 -238 -245z m1299
-306 c494 -107 947 -451 1165 -885 108 -215 143 -379 136 -645 l-2 -70 -68
136 c-210 417 -515 745 -846 909 -207 102 -406 142 -605 120 -361 -40 -485
-185 -365 -427 72 -146 283 -327 522 -447 124 -62 198 -89 375 -136 199 -54
345 -108 513 -190 451 -221 722 -511 751 -803 22 -231 -174 -519 -432 -633
-158 -70 -355 -87 -526 -45 -328 79 -600 312 -699 598 -25 73 -45 241 -31 255
7 7 15 1 26 -21 21 -39 114 -148 194 -225 128 -124 289 -227 432 -276 98 -34
256 -39 347 -11 123 38 237 141 301 271 23 47 27 68 27 140 0 75 -4 92 -30
144 -72 142 -266 284 -585 427 -116 51 -339 141 -460 184 -258 91 -450 183
-632 304 -393 259 -628 552 -628 781 0 199 171 385 457 499 141 57 235 71 423
67 99 -3 195 -11 240 -21z m93 -600 c42 -4 77 -10 76 -13 0 -4 -28 -25 -62
-48 -129 -84 -181 -198 -175 -377 l3 -103 -46 33 c-71 50 -202 193 -228 247
-53 109 -32 178 69 228 59 30 165 48 240 42 25 -2 80 -6 123 -9z m1400 -278
c31 -22 80 -67 107 -101 143 -173 165 -376 62 -564 -28 -52 -184 -211 -190
-194 -2 6 2 37 8 69 7 32 14 139 17 239 6 212 -8 320 -63 479 -19 55 -37 108
-41 119 -5 16 -4 17 18 6 13 -7 50 -31 82 -53z m-1552 -851 c91 -28 163 -88
198 -166 25 -55 26 -82 5 -126 -25 -52 -71 -75 -150 -75 -183 0 -346 182 -278
312 30 60 130 84 225 55z"/>
</g>
</svg>
