<?xml version="1.0" standalone="no"?>
<!DOCTYPE svg PUBLIC "-//W3C//DTD SVG 20010904//EN"
 "http://www.w3.org/TR/2001/REC-SVG-20010904/DTD/svg10.dtd">
<svg version="1.0" xmlns="http://www.w3.org/2000/svg"
 width="512.000000pt" height="512.000000pt" viewBox="0 0 512.000000 512.000000"
 preserveAspectRatio="xMidYMid meet">
<metadata>
Created by potrace 1.15, written by Peter Selinger 2001-2017
</metadata>
<g transform="translate(0.000000,512.000000) scale(0.100000,-0.100000)"
fill="#ffffff" stroke="none">
<path d="M1750 4843 c-211 -15 -408 -61 -545 -128 -160 -78 -246 -163 -329
-325 -76 -147 -105 -288 -86 -419 l10 -72 -131 -172 c-73 -95 -136 -178 -142
-185 -5 -7 -7 -15 -5 -18 3 -3 97 15 209 40 111 25 210 46 219 46 9 0 29 -14
46 -31 45 -48 114 -95 200 -138 119 -59 164 -71 264 -71 l89 0 131 -170 c72
-93 134 -172 139 -174 5 -3 12 65 15 152 4 86 9 186 12 222 6 65 6 66 45 83
55 24 201 119 284 186 96 77 139 105 220 143 63 29 79 33 160 33 85 0 96 -3
166 -37 91 -45 186 -131 233 -211 34 -58 69 -172 80 -259 6 -55 32 -46 -214
-79 -85 -11 -164 -24 -174 -28 -16 -6 8 -24 120 -95 264 -168 246 -154 239
-189 -24 -117 -136 -390 -177 -434 -43 -46 -111 -75 -265 -114 -239 -59 -376
-131 -498 -261 l-74 -79 -198 44 c-109 25 -200 43 -201 42 -2 -2 57 -83 131
-181 l135 -177 -14 -46 c-30 -98 -55 -260 -69 -449 -19 -252 -43 -335 -134
-455 -71 -94 -64 -96 -191 68 -61 80 -115 147 -119 149 -8 5 -21 -202 -21
-333 0 -36 -4 -71 -8 -78 -4 -7 -51 -18 -103 -24 -239 -29 -432 60 -523 242
-32 63 -65 174 -55 183 2 2 94 41 204 86 110 46 203 86 208 90 4 3 -85 35
-198 71 -236 74 -226 64 -169 177 42 85 113 152 194 184 72 28 209 30 295 4
71 -21 195 -81 260 -126 26 -18 48 -30 51 -27 2 2 -17 46 -43 98 -104 209
-306 339 -525 339 l-74 0 -155 136 c-85 75 -162 143 -172 152 -9 8 -19 13 -22
10 -3 -3 9 -98 26 -212 l31 -207 -51 -54 c-97 -102 -170 -243 -202 -390 -17
-75 -17 -317 0 -405 26 -142 85 -280 160 -380 22 -30 41 -57 41 -61 0 -3 -11
-91 -25 -195 -14 -104 -25 -199 -25 -212 0 -26 -5 -29 203 161 l86 78 68 -24
c139 -50 216 -62 398 -61 142 0 184 4 255 23 132 34 272 107 358 187 l73 67
215 -48 c119 -26 217 -45 220 -43 2 2 -59 86 -136 186 l-139 181 20 58 c26 78
56 230 64 328 11 141 34 299 56 375 52 190 166 327 342 413 104 52 160 63 232
47 78 -17 145 -71 272 -218 142 -164 236 -260 334 -338 41 -32 75 -58 76 -59
1 0 -11 -102 -28 -225 -16 -124 -27 -229 -26 -235 2 -5 59 42 127 105 68 63
143 132 166 153 l43 38 65 -20 c92 -28 219 -51 286 -51 151 0 333 56 468 143
l71 46 43 -18 c104 -45 366 -151 373 -151 3 0 -42 93 -101 206 l-107 207 27
86 c15 47 32 128 38 180 31 267 -72 599 -264 848 l-39 52 91 175 c51 97 88
176 83 176 -4 0 -84 -32 -177 -70 -93 -39 -174 -70 -180 -70 -23 0 -138 173
-194 293 -79 167 -111 305 -119 513 l-6 162 182 7 c99 4 181 10 181 14 0 3
-72 62 -160 130 -88 68 -160 129 -160 135 0 31 65 259 110 386 28 80 54 154
56 165 10 38 -152 -140 -219 -241 -111 -168 -183 -343 -228 -554 -18 -84 -22
-141 -23 -285 -1 -99 1 -207 4 -240 l5 -59 -132 -101 c-72 -55 -129 -103 -126
-107 2 -5 41 -8 87 -8 46 0 117 -3 159 -6 l75 -7 36 -86 c74 -178 163 -310
332 -491 90 -97 157 -187 197 -267 l17 -31 -115 -74 c-63 -40 -150 -95 -194
-123 -44 -27 -81 -52 -81 -55 0 -3 101 -18 223 -34 l224 -29 -9 -51 c-39 -224
-274 -400 -513 -383 -163 12 -314 91 -509 265 -116 104 -283 290 -311 346 -33
66 -33 132 1 211 117 271 161 413 190 610 38 255 -7 561 -107 733 l-19 33 101
190 c55 105 99 194 97 199 -2 4 -68 -19 -148 -52 -80 -33 -169 -69 -197 -80
l-53 -21 -52 40 c-127 97 -281 141 -449 130 l-88 -7 -129 153 c-71 84 -137
158 -146 166 -15 12 -16 -4 -16 -212 0 -215 -1 -226 -19 -232 -11 -3 -62 -34
-113 -69 -51 -34 -127 -85 -168 -113 -139 -94 -256 -143 -344 -143 -55 0 -187
66 -256 128 -31 27 -69 74 -85 103 -25 47 -30 66 -33 149 -1 52 1 101 6 107 6
10 54 3 212 -32 112 -24 206 -42 208 -40 2 1 -56 81 -128 176 -126 164 -131
173 -118 197 18 34 149 145 236 199 78 49 216 113 245 113 9 0 17 5 17 10 0 6
-6 9 -12 8 -7 -1 -33 -3 -58 -5z"/>
</g>
</svg>
