<?xml version="1.0" standalone="no"?>
<!DOCTYPE svg PUBLIC "-//W3C//DTD SVG 20010904//EN"
 "http://www.w3.org/TR/2001/REC-SVG-20010904/DTD/svg10.dtd">
<svg version="1.0" xmlns="http://www.w3.org/2000/svg"
 width="512.000000pt" height="512.000000pt" viewBox="0 0 512.000000 512.000000"
 preserveAspectRatio="xMidYMid meet">
<metadata>
Created by potrace 1.15, written by Peter Selinger 2001-2017
</metadata>
<g transform="translate(0.000000,512.000000) scale(0.100000,-0.100000)"
fill="#ffffff" stroke="none">
<path d="M2395 4981 c-60 -17 -105 -37 -105 -47 0 -2 18 -41 41 -85 36 -72 43
-80 62 -74 12 3 48 13 80 22 44 12 56 19 53 32 -2 9 -7 51 -11 94 -7 75 -7 77
-33 76 -15 0 -54 -8 -87 -18z"/>
<path d="M2611 4929 c-7 -41 -14 -83 -16 -94 -4 -17 5 -24 58 -41 34 -11 69
-24 78 -28 12 -5 25 13 60 79 37 72 42 87 29 95 -26 17 -118 50 -159 56 l-39
6 -11 -73z"/>
<path d="M2082 4776 c-37 -42 -92 -122 -92 -133 0 -9 144 -93 159 -93 8 0 26
22 96 116 7 10 -7 31 -55 79 -35 36 -67 65 -71 65 -4 0 -20 -15 -37 -34z"/>
<path d="M2929 4733 c-35 -31 -65 -60 -67 -64 -2 -4 12 -27 30 -51 18 -24 40
-54 48 -67 l16 -23 82 41 c45 23 82 47 82 54 0 24 -103 167 -120 167 -4 0 -36
-25 -71 -57z"/>
<path d="M1901 4427 c-11 -30 -35 -176 -29 -182 2 -2 46 -6 98 -7 l94 -3 12
70 c7 39 13 75 13 82 1 10 -141 63 -170 63 -5 0 -13 -10 -18 -23z"/>
<path d="M3095 4406 c-44 -13 -80 -27 -80 -32 1 -12 14 -102 21 -136 5 -25 10
-28 47 -28 23 0 66 3 96 7 l54 6 -7 58 c-8 82 -26 149 -40 148 -6 0 -47 -11
-91 -23z"/>
<path d="M1962 4057 l-93 -9 6 -32 c20 -105 39 -176 48 -176 6 0 49 12 95 27
79 26 83 29 78 53 -4 14 -12 53 -18 88 -7 34 -15 61 -18 61 -3 -1 -47 -6 -98
-12z"/>
<path d="M3016 3978 c-9 -40 -18 -79 -19 -86 -2 -15 164 -84 175 -73 9 9 48
151 48 178 0 24 -10 28 -85 38 -27 3 -61 8 -75 11 -24 4 -27 1 -44 -68z"/>
<path d="M2126 3731 c-15 -10 -46 -22 -68 -25 -29 -5 -38 -10 -34 -21 3 -8 -1
-18 -9 -23 -12 -6 -10 -14 11 -46 15 -21 31 -54 36 -73 8 -29 13 -34 31 -29
12 3 65 13 117 22 52 9 97 18 99 20 6 5 -133 193 -144 193 -5 1 -23 -8 -39
-18z"/>
<path d="M2850 3649 c-39 -50 -70 -93 -67 -95 8 -9 230 -53 238 -48 5 3 9 10
9 16 0 5 11 31 24 57 12 26 23 60 22 76 -1 27 -6 31 -56 45 -30 8 -65 21 -77
27 -20 12 -26 6 -93 -78z"/>
<path d="M1800 3593 c-54 -36 -130 -106 -130 -118 0 -8 30 -40 66 -73 l67 -60
61 50 c34 28 62 54 64 59 4 8 -90 159 -98 159 -3 0 -17 -8 -30 -17z"/>
<path d="M3216 3516 c-25 -36 -48 -71 -51 -78 -3 -7 22 -38 58 -70 l63 -56 73
65 c70 64 72 66 54 86 -27 30 -133 117 -143 117 -4 0 -29 -29 -54 -64z"/>
<path d="M1500 3228 c-22 -45 -39 -89 -38 -96 3 -12 168 -87 173 -79 5 7 75
160 75 162 0 3 -142 85 -162 93 -4 2 -26 -34 -48 -80z"/>
<path d="M3463 3234 c-46 -25 -83 -50 -83 -55 0 -8 67 -148 75 -157 6 -6 168
63 172 74 2 6 -15 50 -39 97 l-43 86 -82 -45z"/>
<path d="M1374 2846 c-10 -53 -15 -98 -12 -101 6 -6 180 -37 184 -32 3 4 34
158 34 171 0 7 -32 20 -72 29 -40 10 -83 20 -94 23 -20 5 -23 -1 -40 -90z"/>
<path d="M3598 2887 c-42 -12 -79 -25 -83 -29 -5 -5 23 -165 31 -177 2 -1 45
5 97 14 l94 17 -13 66 c-24 122 -26 132 -38 131 -6 0 -46 -11 -88 -22z"/>
<path d="M1330 2451 l0 -101 94 0 93 0 8 91 c3 50 4 93 2 96 -3 2 -48 7 -101
10 l-96 6 0 -102z"/>
<path d="M3608 2513 l-38 -4 0 -95 0 -94 100 0 100 0 0 33 c0 17 -3 62 -7 100
l-6 67 -56 -2 c-31 -1 -73 -3 -93 -5z"/>
<path d="M1395 2173 l-61 -4 8 -96 c4 -53 10 -98 12 -100 4 -5 177 15 183 21
3 3 2 46 -2 95 l-7 91 -37 -2 c-20 -1 -63 -3 -96 -5z"/>
<path d="M3567 2114 c-3 -22 -9 -64 -12 -95 l-6 -57 43 -6 c141 -19 146 -19
151 0 3 11 9 56 13 102 l7 82 -35 0 c-19 0 -62 3 -95 6 l-61 7 -5 -39z"/>
<path d="M1480 1821 c0 -15 -10 -20 -50 -26 -27 -4 -50 -12 -50 -17 0 -6 5
-39 12 -74 l11 -64 104 0 103 0 0 100 0 100 -65 0 c-57 0 -65 -2 -65 -19z"/>
<path d="M1790 1741 c0 -55 3 -102 8 -104 4 -2 48 -1 97 2 105 7 102 3 90 128
l-7 73 -94 0 -94 0 0 -99z"/>
<path d="M3086 1744 c-4 -53 -5 -99 -2 -101 2 -2 45 -7 94 -11 90 -7 91 -7 97
16 3 13 3 62 -1 108 l-7 84 -87 0 -87 0 -7 -96z"/>
<path d="M3450 1740 l0 -100 119 0 c131 0 125 -4 136 73 l7 45 -51 7 c-50 7
-51 8 -51 41 l0 34 -80 0 -80 0 0 -100z"/>
<path d="M1895 1461 l-80 -6 4 -95 c2 -52 4 -96 6 -98 1 -1 46 0 100 4 l97 7
-6 30 c-3 16 -6 60 -6 98 0 60 -2 69 -17 67 -10 -1 -54 -4 -98 -7z"/>
<path d="M3066 1448 c-3 -7 -7 -50 -10 -96 -4 -61 -2 -84 7 -87 7 -2 51 -6 98
-9 l86 -5 6 96 c4 53 6 97 4 98 -1 1 -44 5 -95 9 -71 5 -93 4 -96 -6z"/>
<path d="M2460 1245 l0 -95 100 0 100 0 0 95 0 95 -100 0 -100 0 0 -95z"/>
<path d="M1868 1083 c-27 -4 -28 -6 -28 -67 0 -35 3 -78 6 -95 6 -29 10 -31
48 -31 22 0 65 3 94 6 51 7 52 8 52 39 0 18 -3 60 -6 94 l-7 61 -66 -1 c-36
-1 -78 -4 -93 -6z"/>
<path d="M3036 1046 c-3 -22 -7 -66 -9 -97 l-3 -57 94 -6 c52 -4 95 -6 97 -4
2 2 6 44 10 95 9 106 17 99 -112 106 l-72 4 -5 -41z"/>
<path d="M2460 870 l0 -100 100 0 100 0 0 100 0 100 -100 0 -100 0 0 -100z"/>
<path d="M1911 713 l-54 -4 7 -67 c3 -37 6 -80 6 -97 l0 -30 94 5 c52 3 96 8
98 10 2 3 1 46 -2 95 l-5 90 -45 1 c-25 0 -69 -1 -99 -3z"/>
<path d="M3006 664 c-3 -26 -6 -68 -6 -94 l0 -47 53 -7 c28 -3 71 -6 93 -6
l41 0 7 46 c3 26 6 68 6 94 l0 47 -46 7 c-26 3 -68 6 -94 6 l-47 0 -7 -46z"/>
<path d="M2460 495 l0 -95 100 0 100 0 0 95 0 95 -100 0 -100 0 0 -95z"/>
<path d="M1959 343 l-76 -4 4 -57 c2 -31 6 -81 9 -109 l5 -53 80 0 79 0 0 50
c0 39 3 50 16 50 12 0 15 6 10 23 -3 12 -6 41 -6 65 0 37 -2 42 -22 40 -13 -1
-57 -4 -99 -5z"/>
<path d="M2978 283 c-2 -32 0 -59 4 -61 5 -2 8 -26 8 -53 l0 -49 84 0 85 0 5
53 c3 28 7 75 10 103 l5 51 -76 7 c-129 11 -121 14 -125 -51z"/>
<path d="M2240 220 l0 -100 100 0 100 0 0 100 0 100 -100 0 -100 0 0 -100z"/>
<path d="M2620 220 l0 -100 95 0 95 0 0 100 0 100 -95 0 -95 0 0 -100z"/>
</g>
</svg>
