<?xml version="1.0" standalone="no"?>
<!DOCTYPE svg PUBLIC "-//W3C//DTD SVG 20010904//EN"
 "http://www.w3.org/TR/2001/REC-SVG-20010904/DTD/svg10.dtd">
<svg version="1.0" xmlns="http://www.w3.org/2000/svg"
 width="512.000000pt" height="512.000000pt" viewBox="0 0 512.000000 512.000000"
 preserveAspectRatio="xMidYMid meet">
<metadata>
Created by potrace 1.15, written by Peter Selinger 2001-2017
</metadata>
<g transform="translate(0.000000,512.000000) scale(0.100000,-0.100000)"
fill="#ffffff" stroke="none">
<path d="M1190 4395 l0 -465 -465 0 -465 0 0 -120 0 -120 585 0 585 0 0 585 0
585 -120 0 -120 0 0 -465z"/>
<path d="M2030 3975 l0 -885 -885 0 -885 0 0 -530 0 -530 885 0 885 0 0 -885
0 -885 530 0 530 0 0 885 0 885 885 0 885 0 0 530 0 530 -885 0 -885 0 0 885
0 885 -530 0 -530 0 0 -885z"/>
<path d="M3690 4275 l0 -585 585 0 585 0 0 120 0 120 -465 0 -465 0 0 465 0
465 -120 0 -120 0 0 -585z"/>
<path d="M260 1310 l0 -120 465 0 465 0 0 -465 0 -465 120 0 120 0 0 585 0
585 -585 0 -585 0 0 -120z"/>
<path d="M3690 845 l0 -585 120 0 120 0 0 465 0 465 465 0 465 0 0 120 0 120
-585 0 -585 0 0 -585z"/>
</g>
</svg>
