<?xml version="1.0" standalone="no"?>
<!DOCTYPE svg PUBLIC "-//W3C//DTD SVG 20010904//EN"
 "http://www.w3.org/TR/2001/REC-SVG-20010904/DTD/svg10.dtd">
<svg version="1.0" xmlns="http://www.w3.org/2000/svg"
 width="512.000000pt" height="512.000000pt" viewBox="0 0 512.000000 512.000000"
 preserveAspectRatio="xMidYMid meet">
<metadata>
Created by potrace 1.15, written by Peter Selinger 2001-2017
</metadata>
<g transform="translate(0.000000,512.000000) scale(0.100000,-0.100000)"
fill="#ffffff" stroke="none">
<path d="M3550 4778 c-195 -66 -361 -125 -368 -132 -22 -22 -211 -381 -202
-384 11 -4 700 227 717 241 7 5 42 66 79 135 37 70 82 155 101 190 19 35 33
65 31 67 -1 1 -163 -51 -358 -117z"/>
<path d="M4043 4778 c-93 -166 -104 -188 -90 -188 11 0 112 32 174 55 9 3 4
29 -17 91 -17 48 -32 89 -34 91 -2 2 -17 -20 -33 -49z"/>
<path d="M1210 4436 l0 -274 150 50 150 50 0 74 0 74 218 0 218 0 370 125
c203 69 398 137 434 150 l65 24 -802 0 -803 1 0 -274z"/>
<path d="M2895 4555 c-212 -67 -673 -229 -684 -240 -23 -23 -211 -380 -201
-383 7 -3 631 205 702 233 17 7 39 43 128 210 23 44 56 104 72 133 17 29 29
55 27 56 -2 2 -22 -2 -44 -9z"/>
<path d="M3755 4341 l-140 -48 0 -617 0 -618 139 -44 c77 -24 143 -44 148 -44
4 0 8 320 8 710 0 391 -3 710 -7 709 -5 0 -71 -22 -148 -48z"/>
<path d="M1640 4130 c-447 -151 -399 -128 -442 -210 -21 -38 -38 -72 -38 -74
0 -3 70 -28 156 -55 l155 -50 127 44 c70 24 135 46 144 50 9 4 30 30 46 58 47
85 184 347 180 347 -1 -1 -149 -50 -328 -110z"/>
<path d="M3270 4174 c-85 -29 -396 -134 -690 -234 -294 -100 -597 -203 -673
-229 -76 -26 -138 -51 -137 -56 1 -6 301 -106 668 -223 907 -289 984 -313 989
-309 2 2 2 251 1 554 l-3 549 -155 -52z"/>
<path d="M680 3805 c0 -3 270 -384 286 -404 2 -2 164 -55 361 -118 197 -62
407 -129 467 -148 60 -20 111 -33 113 -31 8 7 -278 401 -300 413 -12 6 -116
41 -232 78 -115 37 -314 100 -442 141 -221 71 -253 80 -253 69z"/>
<path d="M1904 3414 c3 -8 67 -102 143 -207 75 -106 137 -193 138 -194 3 -5
940 -301 943 -298 2 2 -62 96 -143 209 l-146 205 -92 30 c-51 16 -243 78 -427
136 -184 58 -355 112 -378 120 -39 13 -43 13 -38 -1z"/>
<path d="M1210 2331 c0 -446 3 -811 8 -811 4 0 71 23 149 52 l143 53 0 712 0
712 -132 41 c-73 23 -141 43 -150 46 -17 5 -18 -38 -18 -805z"/>
<path d="M3124 3025 c4 -11 243 -353 281 -402 1 -2 97 -33 213 -69 l210 -67
159 58 c87 32 160 60 161 61 2 1 -17 32 -42 68 -54 75 16 46 -566 231 -201 64
-378 120 -394 125 -23 8 -27 7 -22 -5z"/>
<path d="M1690 2341 l0 -651 23 10 c12 5 272 102 577 216 305 113 558 208 562
210 4 3 -3 22 -17 42 -49 74 -51 183 -4 259 38 61 119 113 178 113 77 1 31 22
-207 97 -350 111 -1084 345 -1099 350 -10 4 -13 -129 -13 -646z"/>
<path d="M4320 2489 c-85 -32 -290 -109 -456 -170 l-300 -112 -136 -211 c-75
-116 -135 -213 -133 -215 6 -5 908 330 922 343 12 11 273 414 273 422 0 7 -10
4 -170 -57z"/>
<path d="M3170 2512 c0 -2 16 -23 36 -44 42 -47 73 -111 74 -150 0 -34 2 -34
81 -4 l64 24 3 49 3 49 -131 40 c-71 23 -130 39 -130 36z"/>
<path d="M2987 2352 c-23 -25 -22 -85 1 -105 25 -23 85 -22 105 1 23 25 22 85
-1 105 -25 23 -85 22 -105 -1z"/>
<path d="M2815 1931 l-450 -169 -123 -188 c-67 -104 -129 -201 -138 -216 l-14
-28 92 33 c51 19 261 96 466 172 l372 138 128 201 c158 247 146 226 130 226
-7 -1 -215 -77 -463 -169z"/>
<path d="M3753 1767 l-143 -52 0 -426 0 -425 150 -31 150 -30 0 508 c0 280 -3
509 -7 508 -5 0 -72 -24 -150 -52z"/>
<path d="M2050 1644 c-19 -7 -201 -74 -405 -149 -203 -75 -376 -140 -385 -145
-13 -8 -13 -9 0 -14 42 -14 541 -108 552 -103 14 5 283 415 277 421 -2 2 -20
-2 -39 -10z"/>
<path d="M2885 1444 c-286 -107 -565 -210 -620 -230 -124 -45 -136 -51 -115
-58 8 -3 290 -59 625 -126 336 -66 620 -123 633 -125 l22 -5 0 370 c0 290 -3
370 -12 369 -7 0 -247 -88 -533 -195z"/>
<path d="M812 1232 c59 -83 296 -353 312 -357 108 -25 861 -174 864 -170 5 5
5 5 -166 212 l-132 160 -438 87 c-240 48 -441 86 -445 86 -5 0 -2 -8 5 -18z"/>
<path d="M1970 1002 c8 -12 78 -97 155 -190 l140 -169 439 -87 c241 -48 441
-85 443 -82 6 5 -261 329 -293 357 -12 10 -172 46 -434 98 -228 45 -426 85
-440 88 -23 6 -24 5 -10 -15z"/>
<path d="M3120 785 c0 -12 304 -371 319 -376 35 -13 862 -171 867 -166 3 3
-62 86 -144 185 l-151 180 -73 16 c-40 8 -230 47 -423 86 -192 38 -360 72
-372 75 -13 3 -23 3 -23 0z"/>
<path d="M1210 465 l0 -215 150 0 150 0 -2 187 -3 187 -135 28 c-74 15 -141
27 -147 28 -10 0 -13 -49 -13 -215z"/>
<path d="M1690 415 l0 -165 828 1 827 1 -810 163 c-445 90 -818 164 -827 165
-16 0 -18 -14 -18 -165z"/>
<path d="M4346 468 c130 -158 138 -168 144 -168 6 0 40 163 40 191 0 11 -30
21 -107 37 -60 12 -116 22 -126 22 -14 0 -2 -20 49 -82z"/>
</g>
</svg>
