<?xml version="1.0" standalone="no"?>
<!DOCTYPE svg PUBLIC "-//W3C//DTD SVG 20010904//EN"
 "http://www.w3.org/TR/2001/REC-SVG-20010904/DTD/svg10.dtd">
<svg version="1.0" xmlns="http://www.w3.org/2000/svg"
 width="512.000000pt" height="512.000000pt" viewBox="0 0 512.000000 512.000000"
 preserveAspectRatio="xMidYMid meet">
<metadata>
Created by potrace 1.15, written by Peter Selinger 2001-2017
</metadata>
<g transform="translate(0.000000,512.000000) scale(0.100000,-0.100000)"
fill="#ffffff" stroke="none">
<path d="M1900 4934 c0 -7 118 -587 126 -619 l6 -25 209 0 209 0 0 -90 0 -90
-190 0 c-146 0 -190 -3 -190 -12 1 -7 18 -94 38 -193 l37 -180 417 -3 c390 -2
417 -1 422 15 9 30 66 338 66 356 0 15 -19 17 -200 17 l-200 0 0 90 0 90 222
2 222 3 63 310 c34 171 62 316 63 323 0 9 -138 12 -660 12 -363 0 -660 -3
-660 -6z"/>
<path d="M3219 4020 l-94 -470 -562 0 c-310 0 -563 2 -563 4 0 14 -182 895
-188 908 -6 14 -29 8 -192 -49 -102 -36 -342 -120 -535 -188 -192 -68 -426
-150 -520 -183 -125 -44 -170 -64 -169 -75 1 -9 328 -557 726 -1219 399 -662
731 -1214 738 -1228 7 -14 15 -20 17 -14 2 6 -132 463 -297 1014 -166 552
-297 1006 -293 1010 8 8 155 51 159 47 1 -1 89 -294 197 -652 l194 -650 364
-53 364 -53 360 53 359 53 194 650 c107 358 195 651 196 652 4 4 151 -39 159
-46 4 -5 -125 -453 -288 -997 -162 -543 -294 -993 -292 -998 3 -10 1467 2406
1474 2433 3 13 -136 66 -699 269 -387 139 -706 252 -709 252 -3 0 -48 -211
-100 -470z"/>
<path d="M1900 2079 c0 -17 550 -1851 561 -1869 5 -8 9 316 9 748 l0 762 90 0
90 0 0 -767 c0 -429 4 -761 9 -753 11 19 561 1857 561 1874 0 8 -9 12 -22 10
-13 -2 -160 -24 -327 -49 l-305 -45 -310 45 c-171 25 -321 48 -333 50 -14 3
-23 1 -23 -6z"/>
</g>
</svg>
