<?xml version="1.0" standalone="no"?>
<!DOCTYPE svg PUBLIC "-//W3C//DTD SVG 20010904//EN"
 "http://www.w3.org/TR/2001/REC-SVG-20010904/DTD/svg10.dtd">
<svg version="1.0" xmlns="http://www.w3.org/2000/svg"
 width="512.000000pt" height="512.000000pt" viewBox="0 0 512.000000 512.000000"
 preserveAspectRatio="xMidYMid meet">
<metadata>
Created by potrace 1.15, written by Peter Selinger 2001-2017
</metadata>
<g transform="translate(0.000000,512.000000) scale(0.100000,-0.100000)"
fill="#ffffff" stroke="none">
<path d="M750 4867 c0 -12 259 -698 267 -707 3 -3 51 43 108 101 l103 107 39
-22 c206 -119 271 -159 353 -215 423 -289 608 -566 569 -851 -21 -149 -104
-311 -257 -499 -43 -52 -194 -214 -337 -361 -263 -268 -358 -370 -445 -479
-129 -160 -238 -364 -281 -521 -42 -157 -28 -378 33 -535 67 -172 178 -342
332 -510 l64 -70 1678 -3 c924 -2 1677 -2 1674 1 -3 3 -49 22 -103 41 -884
320 -1368 707 -1512 1209 -73 257 -72 444 6 997 78 548 64 828 -55 1086 -173
373 -597 667 -1304 903 -111 38 -205 71 -209 74 -3 4 32 47 77 97 45 50 81 93
78 95 -2 3 -182 18 -399 35 -217 16 -413 32 -436 35 -30 3 -43 1 -43 -8z"/>
</g>
</svg>
