<?xml version="1.0" standalone="no"?>
<!DOCTYPE svg PUBLIC "-//W3C//DTD SVG 20010904//EN"
 "http://www.w3.org/TR/2001/REC-SVG-20010904/DTD/svg10.dtd">
<svg version="1.0" xmlns="http://www.w3.org/2000/svg"
 width="512.000000pt" height="512.000000pt" viewBox="0 0 512.000000 512.000000"
 preserveAspectRatio="xMidYMid meet">
<metadata>
Created by potrace 1.15, written by Peter Selinger 2001-2017
</metadata>
<g transform="translate(0.000000,512.000000) scale(0.100000,-0.100000)"
fill="#ffffff" stroke="none">
<path d="M3415 4353 c-176 -21 -331 -67 -491 -143 -364 -175 -665 -470 -1085
-1060 -312 -440 -481 -633 -649 -744 -347 -229 -622 -204 -952 86 -44 39 -78
63 -78 54 0 -29 68 -213 110 -296 59 -117 110 -190 199 -283 129 -135 282
-227 460 -275 88 -24 112 -26 291 -26 168 0 206 3 273 22 237 65 425 182 682
423 227 214 343 302 478 363 107 49 168 66 277 75 191 17 360 -39 530 -174
192 -153 290 -346 290 -569 0 -192 -78 -345 -226 -447 -200 -137 -512 -150
-850 -34 -58 20 -108 34 -112 31 -11 -11 170 -236 257 -318 210 -201 392 -278
653 -278 712 0 1362 668 1473 1516 9 66 15 192 15 295 0 510 -108 939 -315
1254 -187 283 -436 450 -772 515 -81 16 -140 20 -266 19 -89 -1 -175 -4 -192
-6z"/>
</g>
</svg>
