<?xml version="1.0" standalone="no"?>
<!DOCTYPE svg PUBLIC "-//W3C//DTD SVG 20010904//EN"
 "http://www.w3.org/TR/2001/REC-SVG-20010904/DTD/svg10.dtd">
<svg version="1.0" xmlns="http://www.w3.org/2000/svg"
 width="512.000000pt" height="512.000000pt" viewBox="0 0 512.000000 512.000000"
 preserveAspectRatio="xMidYMid meet">
<metadata>
Created by potrace 1.15, written by Peter Selinger 2001-2017
</metadata>
<g transform="translate(0.000000,512.000000) scale(0.100000,-0.100000)"
fill="#ffffff" stroke="none">
<path d="M1685 4946 c258 -36 405 -63 575 -106 233 -59 382 -112 556 -197 383
-188 586 -447 586 -748 0 -113 -20 -194 -79 -313 -75 -154 -170 -269 -333
-406 -100 -84 -117 -95 -235 -168 -532 -328 -1267 -472 -2005 -392 -155 17
-339 46 -458 74 -46 11 -90 20 -98 20 -11 0 -14 -27 -14 -148 l0 -149 124 -27
c306 -66 586 -91 931 -83 255 6 386 20 632 68 821 160 1510 591 1739 1088 59
127 76 195 81 327 7 148 -11 239 -68 363 -22 46 -37 86 -35 88 2 2 31 -28 64
-67 387 -460 137 -1255 -573 -1820 -250 -199 -586 -374 -955 -499 -135 -46
-460 -132 -494 -130 -24 1 -26 0 125 47 589 185 1129 534 1432 925 35 45 67
89 72 96 10 18 -46 -21 -66 -45 -24 -29 -170 -148 -259 -211 -301 -212 -694
-391 -1075 -487 -516 -130 -1004 -157 -1612 -90 l-63 7 0 -347 c0 -190 2 -346
5 -346 3 0 49 -6 103 -14 786 -117 1696 60 2377 462 221 131 384 249 555 402
l95 85 -50 -65 c-72 -93 -354 -373 -465 -462 -475 -376 -1078 -651 -1709 -777
-193 -39 -417 -62 -668 -68 l-243 -6 0 -315 0 -315 248 6 c1543 42 2914 535
3767 1355 511 492 789 1075 761 1595 -18 344 -138 633 -376 905 -40 45 -76 82
-81 82 -5 0 13 -44 40 -97 219 -438 220 -926 3 -1402 -127 -277 -275 -489
-517 -740 -545 -564 -1328 -974 -2110 -1105 -82 -13 -199 -27 -260 -30 l-110
-6 105 25 c474 113 866 279 1233 522 328 216 645 519 864 823 225 313 378 658
439 995 28 150 25 453 -4 591 -94 439 -355 772 -782 996 -150 79 -290 118
-625 172 -348 57 -568 75 -960 81 l-300 4 170 -23z"/>
</g>
</svg>
