<?xml version="1.0" standalone="no"?>
<!DOCTYPE svg PUBLIC "-//W3C//DTD SVG 20010904//EN"
 "http://www.w3.org/TR/2001/REC-SVG-20010904/DTD/svg10.dtd">
<svg version="1.0" xmlns="http://www.w3.org/2000/svg"
 width="512.000000pt" height="512.000000pt" viewBox="0 0 512.000000 512.000000"
 preserveAspectRatio="xMidYMid meet">
<metadata>
Created by potrace 1.15, written by Peter Selinger 2001-2017
</metadata>
<g transform="translate(0.000000,512.000000) scale(0.100000,-0.100000)"
fill="#ffffff" stroke="none">
<path d="M1505 4905 c-87 -16 -126 -31 -105 -39 8 -3 41 -15 72 -26 164 -60
290 -197 292 -315 1 -94 -56 -152 -169 -175 -94 -19 -235 -66 -356 -120 l-112
-49 -57 35 c-239 147 -547 114 -760 -83 -68 -63 -170 -199 -170 -228 0 -8 21
-2 59 16 195 93 413 37 447 -113 4 -23 -4 -44 -44 -106 -125 -195 -243 -490
-291 -728 -89 -438 -9 -841 224 -1132 108 -134 230 -231 405 -321 297 -152
566 -176 858 -77 284 97 485 317 518 566 l7 55 -59 -61 c-103 -107 -209 -161
-359 -184 -151 -23 -296 4 -460 84 -156 77 -277 194 -349 340 -52 106 -70 183
-69 311 1 493 422 909 951 941 425 26 813 -208 1010 -608 176 -357 156 -728
-60 -1106 -66 -116 -146 -220 -263 -341 -375 -388 -719 -548 -1273 -593 -293
-24 -784 33 -1087 126 -94 29 -85 70 -85 -394 l0 -410 1678 0 1677 1 61 47
c34 26 82 64 107 85 l45 38 63 -11 c396 -64 787 160 994 570 59 118 137 362
120 378 -3 3 -22 -10 -43 -29 -141 -134 -280 -200 -419 -200 -78 0 -147 23
-191 64 -41 38 -43 50 -22 130 51 202 84 565 73 813 l-6 131 66 31 c239 111
401 323 458 597 24 113 26 306 4 430 -17 95 -62 241 -94 303 l-19 37 -7 -30
c-47 -216 -134 -354 -269 -427 -53 -28 -71 -33 -131 -33 -119 1 -167 37 -231
174 -56 119 -130 244 -207 346 -32 43 -61 84 -63 90 -3 6 5 46 16 89 27 107
27 264 0 370 -55 215 -203 419 -414 568 -79 56 -252 146 -262 136 -3 -4 7 -26
24 -50 65 -95 112 -231 112 -323 0 -106 -55 -200 -135 -231 -53 -20 -72 -17
-193 31 -119 46 -302 92 -438 110 -58 8 -107 15 -108 17 -1 2 -15 32 -31 68
-65 140 -212 284 -360 351 -121 54 -240 79 -379 78 -66 0 -152 -7 -191 -14z"/>
</g>
</svg>
