<?xml version="1.0" standalone="no"?>
<!DOCTYPE svg PUBLIC "-//W3C//DTD SVG 20010904//EN"
 "http://www.w3.org/TR/2001/REC-SVG-20010904/DTD/svg10.dtd">
<svg version="1.0" xmlns="http://www.w3.org/2000/svg"
 width="512.000000pt" height="512.000000pt" viewBox="0 0 512.000000 512.000000"
 preserveAspectRatio="xMidYMid meet">
<metadata>
Created by potrace 1.15, written by Peter Selinger 2001-2017
</metadata>
<g transform="translate(0.000000,512.000000) scale(0.100000,-0.100000)"
fill="#ffffff" stroke="none">
<path d="M2506 4853 c-91 -184 -218 -351 -349 -462 -237 -199 -486 -240 -725
-120 -121 61 -217 175 -256 302 -5 17 -10 15 -49 -14 -411 -318 -711 -767
-841 -1259 -59 -221 -70 -317 -70 -580 -1 -187 3 -272 17 -358 136 -862 715
-1563 1532 -1856 742 -265 1603 -130 2222 351 366 284 642 666 787 1090 257
753 115 1580 -376 2200 -130 163 -420 435 -447 419 -5 -4 -12 -19 -16 -36 -10
-43 -75 -139 -132 -192 -160 -148 -387 -168 -613 -53 -194 98 -389 296 -564
573 -32 50 -61 92 -65 92 -4 0 -28 -44 -55 -97z m-941 -1118 c180 -59 326
-169 386 -290 28 -57 31 -72 27 -128 -3 -51 -10 -72 -32 -101 -139 -183 -546
-141 -786 81 -188 174 -171 380 38 447 78 25 83 25 187 21 73 -3 122 -11 180
-30z m2380 14 c257 -47 309 -262 110 -454 -208 -202 -568 -270 -746 -140 -107
77 -117 191 -28 324 123 185 436 312 664 270z m-2150 -1384 c137 -228 252
-415 256 -415 3 0 45 57 94 128 183 262 428 607 440 620 10 11 50 -63 211
-382 109 -218 202 -395 206 -393 4 1 152 202 329 446 l322 444 170 -339 c93
-186 171 -341 174 -344 6 -7 6 -7 380 313 237 202 349 292 351 281 2 -8 -1
-54 -8 -102 -63 -486 -317 -1022 -635 -1345 -91 -92 -175 -161 -185 -150 -4 4
-58 154 -119 333 -62 178 -113 326 -115 328 -2 2 -66 -100 -141 -225 -421
-699 -418 -694 -431 -681 -10 11 -108 165 -488 770 -33 54 -64 98 -68 98 -3 0
-84 -93 -180 -207 -95 -113 -249 -297 -341 -407 -93 -111 -172 -202 -176 -204
-4 -1 -47 66 -96 150 -49 84 -141 243 -205 353 -64 110 -140 242 -170 293 -29
51 -57 95 -61 98 -9 5 -14 -9 -108 -360 -39 -142 -72 -260 -74 -263 -2 -2 -44
36 -93 84 -337 333 -544 815 -561 1308 -3 88 -3 158 -1 155 3 -3 121 -151 262
-330 142 -179 261 -326 266 -328 10 -4 24 16 296 411 208 303 219 317 234 297
8 -11 127 -207 265 -435z"/>
</g>
</svg>
