<?xml version="1.0" standalone="no"?>
<!DOCTYPE svg PUBLIC "-//W3C//DTD SVG 20010904//EN"
 "http://www.w3.org/TR/2001/REC-SVG-20010904/DTD/svg10.dtd">
<svg version="1.0" xmlns="http://www.w3.org/2000/svg"
 width="512.000000pt" height="512.000000pt" viewBox="0 0 512.000000 512.000000"
 preserveAspectRatio="xMidYMid meet">
<metadata>
Created by potrace 1.15, written by Peter Selinger 2001-2017
</metadata>
<g transform="translate(0.000000,512.000000) scale(0.100000,-0.100000)"
fill="#ffffff" stroke="none">
<path d="M3545 4725 c-212 -75 -362 -257 -437 -533 -31 -114 -32 -363 0 -479
43 -157 19 -295 -60 -343 -112 -68 -234 43 -269 245 -12 68 -7 283 7 319 3 9
2 16 -3 16 -15 0 -108 -185 -142 -284 -37 -105 -61 -233 -61 -325 0 -82 30
-226 62 -307 86 -209 268 -381 502 -474 l79 -31 25 28 c71 81 95 116 131 189
52 104 77 190 92 313 15 118 3 264 -30 371 -11 35 -18 66 -15 69 3 3 35 -26
72 -65 114 -119 174 -262 188 -450 l7 -96 49 6 c97 13 196 62 273 135 l35 33
0 -139 c0 -155 -13 -222 -60 -315 -21 -40 -26 -58 -16 -58 21 0 224 103 306
155 159 101 283 215 326 297 21 41 24 61 24 145 0 54 -9 145 -19 203 -21 118
-60 270 -70 270 -3 0 -17 -34 -30 -76 -26 -82 -78 -170 -132 -222 -150 -148
-323 -52 -359 199 -18 123 8 302 69 468 17 47 29 86 27 88 -2 2 -19 -9 -37
-24 -119 -102 -239 -163 -332 -170 -53 -4 -67 -2 -97 19 -69 47 -97 110 -107
243 -10 138 32 365 98 519 16 39 29 74 29 78 0 15 -56 7 -125 -17z"/>
<path d="M4796 4669 c-109 -184 -215 -258 -368 -259 -27 0 -48 -3 -48 -6 0 -3
23 -33 50 -67 83 -102 104 -155 108 -272 2 -80 -2 -120 -21 -197 -13 -54 -21
-98 -17 -98 3 0 40 35 82 78 134 137 219 296 255 471 17 84 21 350 6 390 -9
22 -12 19 -47 -40z"/>
<path d="M2005 4361 c-146 -37 -289 -213 -408 -507 -64 -156 -101 -282 -146
-499 -61 -290 -74 -404 -74 -620 0 -198 18 -351 63 -525 11 -41 16 -78 12 -81
-17 -15 -143 -42 -153 -32 -15 15 -58 219 -74 358 -35 297 -13 535 96 1035
117 541 117 678 -1 738 -48 24 -120 29 -167 11 -173 -64 -277 -338 -332 -869
-40 -383 -40 -860 -1 -1080 33 -184 38 -167 -51 -200 l-77 -29 -21 102 c-71
342 -75 589 -15 1161 13 132 25 270 25 308 1 119 -44 174 -153 185 -47 4 -56
2 -76 -20 -74 -79 -140 -473 -163 -969 -15 -334 2 -622 46 -773 18 -63 106
-518 150 -775 81 -472 66 -681 -57 -812 -54 -56 -248 -278 -248 -282 0 -3 465
-6 1034 -6 l1035 0 97 140 c82 118 103 141 133 151 124 40 209 115 295 261 90
154 168 253 325 409 155 155 302 271 506 400 131 84 339 190 453 233 104 40
123 76 81 158 -44 86 -170 178 -292 213 -41 12 -85 16 -146 13 -81 -3 -93 -6
-191 -55 -58 -29 -179 -95 -270 -148 -333 -193 -465 -250 -605 -262 -209 -17
-467 152 -578 380 -78 160 -107 314 -107 562 0 191 16 353 60 619 27 156 42
215 115 431 100 296 115 354 115 461 0 65 -4 89 -23 125 -36 69 -133 110 -212
90z"/>
</g>
</svg>
