<?xml version="1.0" standalone="no"?>
<!DOCTYPE svg PUBLIC "-//W3C//DTD SVG 20010904//EN"
 "http://www.w3.org/TR/2001/REC-SVG-20010904/DTD/svg10.dtd">
<svg version="1.0" xmlns="http://www.w3.org/2000/svg"
 width="512.000000pt" height="512.000000pt" viewBox="0 0 512.000000 512.000000"
 preserveAspectRatio="xMidYMid meet">
<metadata>
Created by potrace 1.15, written by Peter Selinger 2001-2017
</metadata>
<g transform="translate(0.000000,512.000000) scale(0.100000,-0.100000)"
fill="#ffffff" stroke="none">
<path d="M1046 4838 c-18 -29 -47 -128 -82 -286 l-28 -122 147 -462 c81 -253
146 -462 144 -464 -2 -2 -81 136 -177 307 -108 194 -176 306 -180 297 -18 -32
-75 -399 -67 -422 3 -7 91 -129 196 -270 105 -141 188 -256 185 -256 -3 0 -93
72 -200 160 -106 88 -196 160 -199 160 -7 0 -4 -224 3 -287 l7 -51 208 -168
c114 -92 206 -168 204 -170 -2 -2 -84 23 -182 56 -98 33 -181 58 -183 56 -5
-5 40 -144 72 -222 21 -52 26 -56 214 -180 106 -70 191 -128 190 -129 -2 -2
-61 6 -132 16 -71 11 -132 17 -135 14 -6 -6 4 -24 192 -365 145 -262 241 -464
282 -591 32 -99 30 -185 -5 -267 -25 -58 -90 -125 -143 -147 l-39 -16 30 38
c64 80 92 166 84 251 -5 48 -15 52 -77 23 -49 -22 -100 -78 -128 -140 -17 -38
-21 -65 -21 -156 0 -96 4 -119 28 -183 74 -197 231 -386 403 -487 99 -58 245
-105 344 -112 l77 -6 -2 444 c-1 315 3 476 12 554 20 166 62 468 68 487 4 13
-5 17 -48 23 -167 23 -377 130 -487 250 -60 65 -88 132 -102 245 -6 52 -22
129 -34 170 -66 211 -80 325 -72 604 3 116 11 241 16 278 11 67 10 72 -73 406
-47 186 -112 466 -146 623 -34 156 -72 329 -86 383 -36 141 -48 160 -78 114z"/>
<path d="M2480 4841 c-59 -23 -148 -80 -240 -155 -156 -126 -447 -427 -567
-586 -54 -72 -153 -271 -153 -307 0 -15 20 -104 43 -198 38 -152 42 -177 35
-240 -19 -189 -36 -565 -25 -565 2 0 23 7 48 14 24 8 144 47 266 86 l221 71 7
52 c13 91 112 476 164 633 57 173 264 654 281 654 11 0 205 -407 245 -514 66
-180 176 -603 201 -778 l6 -48 222 -70 c121 -39 241 -78 265 -86 25 -7 47 -14
49 -14 7 0 -8 354 -21 505 l-12 130 44 183 c51 208 51 203 -15 358 -47 109
-162 252 -369 460 -277 278 -501 435 -619 434 -17 -1 -51 -9 -76 -19z"/>
<path d="M4031 4842 c-15 -28 -54 -188 -121 -501 -34 -157 -99 -437 -146 -623
-83 -334 -84 -339 -73 -406 5 -37 13 -162 16 -278 8 -279 -6 -393 -72 -604
-12 -41 -28 -118 -34 -170 -14 -113 -42 -180 -102 -245 -110 -120 -320 -227
-487 -250 -43 -6 -52 -10 -48 -23 5 -16 36 -238 68 -487 9 -71 13 -232 12
-549 l-2 -449 77 6 c312 22 625 272 747 599 24 63 27 88 28 183 0 91 -3 118
-21 156 -29 62 -80 118 -128 140 -62 29 -72 25 -77 -23 -8 -85 20 -171 84
-251 l30 -38 -39 16 c-53 22 -118 89 -143 147 -35 82 -37 168 -5 267 41 127
137 329 282 591 188 341 198 359 192 365 -3 3 -64 -3 -135 -14 -71 -10 -130
-18 -132 -16 -1 1 84 59 190 129 188 124 193 128 214 180 32 78 77 217 72 222
-2 2 -85 -23 -183 -56 -98 -33 -180 -58 -182 -56 -2 2 90 78 204 170 l208 168
7 51 c7 63 10 287 3 287 -3 0 -93 -72 -199 -160 -107 -88 -197 -160 -200 -160
-3 0 82 118 189 262 116 156 195 271 195 284 0 34 -61 387 -69 402 -5 9 -68
-95 -181 -297 -96 -171 -175 -309 -177 -307 -2 2 63 210 143 462 l147 459 -12
60 c-7 33 -26 114 -42 180 -42 168 -73 224 -98 177z"/>
<path d="M2491 3898 c-65 -201 -102 -368 -169 -759 -38 -223 -39 -227 -20
-250 27 -34 58 -95 58 -114 0 -9 -11 -27 -24 -40 -21 -21 -29 -23 -57 -15 -18
5 -50 23 -70 40 l-38 30 -276 -84 c-152 -46 -279 -86 -282 -90 -9 -8 18 -124
31 -135 6 -5 127 -52 269 -105 l257 -96 46 35 c57 44 105 47 130 10 21 -33 12
-81 -31 -163 l-33 -63 43 -167 c52 -202 112 -419 124 -448 14 -31 101 -48 166
-31 l50 13 33 115 c18 63 57 205 87 316 l53 202 -33 63 c-43 82 -52 130 -31
163 25 37 73 34 130 -10 l46 -35 257 96 c142 53 263 100 269 105 13 11 40 127
31 135 -3 4 -130 44 -282 90 l-276 84 -38 -30 c-20 -17 -52 -35 -70 -40 -28
-8 -36 -6 -57 15 -13 13 -24 31 -24 40 0 19 25 69 55 110 l22 30 -63 348 c-35
192 -74 392 -88 447 -30 114 -111 359 -124 372 -4 4 -36 -78 -71 -184z m91
-1189 c23 -13 53 -77 63 -136 14 -88 -36 -213 -85 -213 -49 0 -99 125 -85 213
11 61 34 115 58 132 26 18 23 18 49 4z"/>
</g>
</svg>
