<?xml version="1.0" standalone="no"?>
<!DOCTYPE svg PUBLIC "-//W3C//DTD SVG 20010904//EN"
 "http://www.w3.org/TR/2001/REC-SVG-20010904/DTD/svg10.dtd">
<svg version="1.0" xmlns="http://www.w3.org/2000/svg"
 width="512.000000pt" height="512.000000pt" viewBox="0 0 512.000000 512.000000"
 preserveAspectRatio="xMidYMid meet">
<metadata>
Created by potrace 1.15, written by Peter Selinger 2001-2017
</metadata>
<g transform="translate(0.000000,512.000000) scale(0.100000,-0.100000)"
fill="#ffffff" stroke="none">
<path d="M2380 4860 c-496 -69 -900 -489 -1143 -1186 -107 -307 -184 -690
-204 -1010 l-6 -101 49 -7 c403 -58 679 -358 711 -773 l6 -81 96 -45 c293
-136 649 -178 990 -117 127 23 200 48 287 98 l61 35 6 91 c14 211 114 428 267
574 111 107 296 197 448 217 l52 7 0 41 c0 23 -5 105 -10 182 -48 676 -224
1227 -515 1614 -168 222 -385 373 -630 437 -81 21 -128 27 -250 29 -82 2 -179
0 -215 -5z m-274 -1214 c29 -13 74 -44 99 -67 47 -44 105 -131 105 -159 0 -9
-29 -29 -68 -48 -177 -85 -379 -259 -437 -377 -17 -33 -31 -62 -32 -64 -4 -7
-99 59 -130 91 -49 51 -93 154 -100 235 -21 249 200 454 451 421 33 -5 83 -19
112 -32z m1159 22 c99 -24 199 -107 249 -206 88 -174 33 -389 -128 -496 -32
-21 -59 -36 -60 -34 -2 1 -15 26 -29 53 -38 73 -107 157 -184 220 -76 63 -214
151 -286 183 l-48 21 16 38 c34 82 97 147 187 193 90 47 174 55 283 28z m-685
-668 c44 -48 97 -211 145 -450 27 -130 123 -685 120 -688 -2 -2 -31 11 -65 28
-113 57 -186 143 -221 258 -14 49 -20 46 -38 -18 -16 -58 -63 -131 -109 -171
-34 -30 -179 -106 -186 -98 -5 6 60 417 89 564 41 203 83 369 118 457 30 78
81 148 107 148 6 0 24 -13 40 -30z"/>
<path d="M379 1798 c-54 -14 -129 -77 -158 -133 -23 -45 -26 -61 -26 -155 0
-99 2 -110 33 -172 56 -114 167 -203 322 -257 l54 -19 -39 -7 c-127 -21 -255
-86 -309 -158 -117 -154 -69 -388 98 -475 44 -22 63 -26 136 -26 94 0 85 -2
383 123 306 129 670 243 942 295 72 14 141 26 155 28 21 3 34 21 80 115 30 62
59 111 63 110 4 -1 27 -45 51 -97 l43 -95 104 3 c57 2 111 5 119 8 8 2 33 45
55 95 22 50 42 92 45 94 3 2 23 -36 44 -83 22 -48 44 -93 49 -99 7 -9 44 -13
121 -13 l112 0 41 92 c23 51 45 94 50 95 5 2 26 -36 48 -84 22 -49 44 -98 50
-110 8 -18 24 -24 80 -33 395 -64 794 -177 1250 -356 193 -75 203 -78 285 -78
68 0 93 4 125 21 167 89 200 317 68 473 -50 61 -184 130 -250 130 -13 0 -23 5
-23 10 0 6 7 10 15 10 40 0 130 46 180 91 79 73 119 158 124 266 9 211 -106
363 -275 363 -65 0 -87 -7 -408 -130 -248 -94 -585 -206 -766 -253 l-165 -43
-57 -115 -56 -114 -20 45 c-60 140 -61 142 -90 136 -15 -3 -72 -13 -127 -21
-63 -10 -104 -22 -112 -31 -6 -8 -26 -49 -45 -90 -18 -41 -37 -73 -41 -71 -4
1 -23 36 -42 77 l-34 75 -123 3 -124 3 -39 -88 -39 -87 -43 92 -42 92 -53 1
c-29 0 -93 6 -143 13 -49 7 -91 13 -91 12 -1 0 -19 -36 -41 -79 l-39 -79 -43
94 c-24 51 -45 94 -46 96 -1 1 -60 18 -131 37 -266 70 -543 180 -874 345 -237
118 -305 137 -411 108z"/>
<path d="M3150 614 c-88 -28 -337 -72 -475 -84 -238 -21 -558 8 -769 69 -38
11 -73 18 -77 15 -15 -9 -11 -310 4 -322 16 -13 175 -54 307 -79 77 -14 147
-18 375 -17 263 0 288 2 415 27 74 15 167 35 205 45 l70 18 3 172 c1 95 -1
172 -5 171 -5 -1 -28 -7 -53 -15z"/>
</g>
</svg>
