<?xml version="1.0" standalone="no"?>
<!DOCTYPE svg PUBLIC "-//W3C//DTD SVG 20010904//EN"
 "http://www.w3.org/TR/2001/REC-SVG-20010904/DTD/svg10.dtd">
<svg version="1.0" xmlns="http://www.w3.org/2000/svg"
 width="512.000000pt" height="512.000000pt" viewBox="0 0 512.000000 512.000000"
 preserveAspectRatio="xMidYMid meet">
<metadata>
Created by potrace 1.15, written by Peter Selinger 2001-2017
</metadata>
<g transform="translate(0.000000,512.000000) scale(0.100000,-0.100000)"
fill="#ffffff" stroke="none">
<path d="M2790 4144 c-121 -22 -309 -87 -418 -144 -395 -208 -668 -583 -748
-1030 -19 -103 -21 -356 -4 -455 l12 -70 -74 -68 c-165 -152 -366 -271 -547
-323 -75 -21 -95 -24 -101 -13 -13 21 -23 156 -17 225 12 129 72 212 182 253
66 25 200 40 293 33 l62 -4 0 78 c0 44 -3 90 -7 103 l-6 24 -146 -6 c-209 -8
-323 -45 -424 -139 -113 -104 -152 -226 -145 -454 l4 -144 -80 0 c-91 0 -225
20 -336 49 -41 12 -78 21 -82 21 -5 0 -8 -45 -8 -100 l0 -99 38 -10 c108 -28
223 -44 364 -48 l157 -6 17 -74 c34 -153 1 -278 -98 -375 -95 -92 -267 -154
-410 -146 l-68 4 0 -97 c0 -92 1 -97 22 -103 38 -10 128 -6 208 8 350 64 566
324 546 656 -3 52 -10 109 -15 126 -9 31 -8 32 30 38 67 11 221 67 322 117
113 56 222 128 313 205 63 54 64 54 73 31 5 -12 23 -54 40 -92 l31 -68 -91
-91 c-190 -189 -310 -429 -325 -646 -9 -124 5 -111 -166 -170 -314 -109 -442
-167 -599 -271 -112 -75 -263 -224 -336 -331 l-53 -76 0 -141 0 -141 40 0 c39
0 39 0 74 74 122 266 312 447 602 574 73 32 432 162 448 162 2 0 10 -24 16
-52 26 -110 99 -264 189 -398 l30 -44 -132 -44 c-159 -52 -346 -143 -442 -215
l-70 -52 178 -3 179 -2 98 39 c99 40 299 101 329 101 9 0 42 -22 74 -49 114
-98 92 -92 304 -89 l188 3 -90 49 c-111 60 -220 136 -208 145 4 4 64 20 132
36 68 15 163 39 210 54 l86 27 63 -49 c111 -84 273 -154 437 -189 36 -8 122
-12 215 -12 132 1 169 5 250 26 153 41 267 100 391 200 l56 46 64 -13 c58 -13
234 -32 348 -38 42 -2 44 -3 64 -52 11 -27 32 -90 47 -140 l28 -90 101 -3 c55
-1 101 -1 101 1 0 13 -63 223 -79 264 l-20 51 52 6 c63 9 218 47 327 82 l80
25 0 106 c0 96 -1 105 -17 98 -62 -25 -174 -60 -273 -84 -114 -29 -250 -55
-255 -49 -1 2 -12 21 -23 43 -11 22 -46 78 -77 124 -30 46 -55 85 -53 86 40
36 185 128 253 161 154 75 270 88 390 43 28 -11 51 -19 53 -19 1 0 2 47 2 104
l0 104 -52 13 c-89 21 -239 15 -341 -15 -134 -40 -208 -80 -422 -230 -9 -7
-33 9 -86 57 -97 89 -207 167 -317 225 l-92 48 48 23 c225 109 470 347 603
588 l40 73 37 -19 c139 -71 362 -86 530 -36 l52 16 0 103 0 104 -85 -30 c-143
-49 -245 -48 -376 2 -88 33 -91 38 -74 96 50 168 63 443 30 629 -100 575 -526
1020 -1105 1157 -117 27 -436 34 -560 12z m-860 -2329 c70 -90 239 -241 338
-300 1 -1 -10 -28 -24 -61 -48 -109 -74 -236 -75 -364 0 -139 23 -239 81 -354
22 -43 39 -80 38 -81 -14 -11 -430 -105 -463 -105 -8 0 -43 37 -76 82 -89 120
-148 244 -194 405 -5 19 4 27 85 68 119 59 200 114 278 189 76 72 138 154 126
165 -5 4 -39 33 -76 65 l-67 57 -25 -38 c-60 -88 -176 -187 -283 -242 -52 -26
-53 -26 -53 1 0 91 78 275 167 393 61 80 154 175 171 175 5 0 29 -25 52 -55z
m751 -476 c158 -42 327 -55 486 -39 157 16 179 15 273 -11 159 -43 338 -146
475 -273 l70 -65 -102 -102 -102 -103 -58 25 c-127 55 -277 173 -374 295 l-51
65 -87 -7 c-147 -12 -142 -5 -70 -107 110 -155 268 -298 422 -382 l67 -37 -22
-17 c-187 -142 -504 -184 -753 -99 -60 21 -160 68 -202 95 -21 14 -20 15 46
82 105 105 155 234 149 389 l-3 77 -65 11 c-36 6 -79 14 -97 18 l-32 7 6 -73
c7 -95 -10 -176 -50 -235 -35 -51 -113 -117 -128 -107 -19 11 -61 87 -86 152
-48 129 -42 285 19 444 l29 77 67 -26 c37 -14 115 -39 173 -54z m1473 -604
c20 -30 36 -58 36 -61 0 -8 -171 4 -179 11 -5 6 89 105 100 105 3 0 23 -25 43
-55z"/>
<path d="M4920 1878 c-178 -151 -383 -222 -568 -197 l-74 10 -73 -78 -73 -78
49 -17 c129 -45 311 -48 464 -8 83 21 240 93 288 132 l28 23 -3 121 -3 122
-35 -30z"/>
</g>
</svg>
