<?xml version="1.0" standalone="no"?>
<!DOCTYPE svg PUBLIC "-//W3C//DTD SVG 20010904//EN"
 "http://www.w3.org/TR/2001/REC-SVG-20010904/DTD/svg10.dtd">
<svg version="1.0" xmlns="http://www.w3.org/2000/svg"
 width="512.000000pt" height="512.000000pt" viewBox="0 0 512.000000 512.000000"
 preserveAspectRatio="xMidYMid meet">
<metadata>
Created by potrace 1.15, written by Peter Selinger 2001-2017
</metadata>
<g transform="translate(0.000000,512.000000) scale(0.100000,-0.100000)"
fill="#ffffff" stroke="none">
<path d="M180 4478 l0 -463 499 -285 499 -285 -483 -5 c-266 -3 -486 -8 -489
-11 -3 -3 47 -31 111 -61 65 -31 332 -157 593 -281 261 -124 538 -255 615
-292 77 -37 201 -95 275 -130 74 -35 387 -183 695 -329 307 -146 561 -264 563
-262 3 3 -326 704 -578 1231 -34 72 -79 166 -100 210 -96 204 -134 286 -390
825 -149 316 -275 579 -280 583 -11 12 -19 -172 -26 -605 l-7 -377 -87 152
c-48 84 -178 307 -288 497 l-200 345 -461 3 -461 2 0 -462z"/>
<path d="M2810 3999 c-134 -16 -391 -76 -413 -98 -4 -4 11 -46 33 -93 l42 -86
31 10 c18 5 53 15 78 22 l46 13 51 -103 c29 -58 52 -106 52 -108 0 -3 -34 -14
-75 -27 -41 -12 -75 -26 -75 -30 0 -7 64 -145 77 -168 1 -2 28 3 60 12 114 30
111 30 127 -2 10 -19 22 -114 36 -277 l22 -249 51 -112 52 -112 45 -1 c169 -1
335 -111 415 -274 155 -315 -78 -687 -431 -687 -141 0 -257 52 -356 159 -65
72 -104 156 -121 257 l-12 78 -90 44 -90 44 -3 -36 c-2 -27 -8 -36 -25 -39
-70 -14 -496 -45 -522 -38 -28 8 -30 12 -33 62 -3 45 8 127 35 282 5 26 1 30
-78 67 -46 21 -87 36 -90 32 -13 -12 -49 -189 -55 -267 -4 -44 -9 -84 -13 -90
-4 -8 -43 0 -123 25 -64 20 -120 39 -122 42 -9 9 22 197 49 297 14 52 25 99
25 106 0 15 -161 89 -171 79 -11 -11 -54 -164 -73 -258 -82 -409 -24 -841 163
-1215 123 -245 253 -413 455 -587 262 -225 547 -365 886 -434 103 -22 141 -24
365 -24 217 0 264 3 355 22 428 89 775 285 1059 599 517 573 634 1419 292
2111 -326 659 -984 1068 -1707 1062 -82 -1 -183 -5 -224 -10z m590 -226 c438
-95 818 -358 1065 -736 101 -156 244 -493 219 -517 -14 -13 -170 -90 -183 -90
-6 0 -11 8 -11 17 0 9 -18 71 -41 137 -107 318 -303 571 -588 759 -110 73
-210 121 -361 171 -95 31 -275 66 -345 66 -19 0 -26 4 -22 13 3 8 19 59 36
114 l31 101 43 -5 c23 -3 94 -16 157 -30z m-94 -408 c377 -71 729 -345 899
-700 40 -83 90 -233 100 -298 9 -57 34 -50 -280 -77 -132 -11 -261 -23 -286
-26 -46 -6 -46 -5 -53 29 -11 58 -81 189 -135 255 -94 113 -245 201 -387 225
l-62 11 -12 140 c-7 78 -17 202 -24 277 -7 86 -8 147 -3 164 l9 27 82 -7 c44
-3 113 -13 152 -20z m1024 -1318 c0 -80 -27 -225 -60 -326 -64 -197 -163 -355
-319 -512 -171 -170 -355 -277 -576 -333 -85 -21 -94 -22 -100 -7 -5 13 -55
537 -55 578 0 7 5 13 11 13 6 0 48 17 93 38 197 93 335 272 377 492 6 36 14
67 16 70 10 11 559 56 586 47 25 -8 27 -13 27 -60z m402 -75 c3 -4 0 -52 -8
-106 -77 -547 -428 -1033 -929 -1284 -87 -44 -304 -127 -310 -120 -2 2 -26 49
-54 106 -36 71 -48 104 -39 107 7 2 58 18 113 35 342 108 636 343 825 660 87
147 167 384 185 547 3 32 8 72 11 89 l4 32 98 -30 c53 -17 100 -33 104 -36z
m-2343 -74 c23 -76 84 -181 144 -244 113 -121 245 -191 411 -215 65 -10 77
-15 81 -33 11 -56 46 -530 41 -552 -7 -26 -8 -26 -79 -19 -357 32 -622 156
-857 401 -47 49 -106 121 -132 159 -63 94 -134 242 -162 340 -39 129 -39 133
-15 145 16 9 414 53 535 59 16 1 24 -8 33 -41z m-735 -235 c74 -237 196 -433
383 -614 240 -233 545 -371 891 -405 61 -6 72 -9 67 -23 -3 -8 -20 -62 -37
-118 l-32 -102 -45 5 c-127 15 -282 48 -376 79 -442 148 -795 454 -1002 870
-56 113 -117 280 -109 301 3 7 54 38 113 68 93 47 109 52 114 38 4 -10 18 -54
33 -99z"/>
</g>
</svg>
