<?xml version="1.0" standalone="no"?>
<!DOCTYPE svg PUBLIC "-//W3C//DTD SVG 20010904//EN"
 "http://www.w3.org/TR/2001/REC-SVG-20010904/DTD/svg10.dtd">
<svg version="1.0" xmlns="http://www.w3.org/2000/svg"
 width="512.000000pt" height="512.000000pt" viewBox="0 0 512.000000 512.000000"
 preserveAspectRatio="xMidYMid meet">
<metadata>
Created by potrace 1.15, written by Peter Selinger 2001-2017
</metadata>
<g transform="translate(0.000000,512.000000) scale(0.100000,-0.100000)"
fill="#ffffff" stroke="none">
<path d="M367 4906 c-94 -46 -146 -119 -154 -216 -10 -103 41 -187 133 -226
63 -26 72 -22 213 120 l134 134 -6 42 c-18 135 -186 212 -320 146z"/>
<path d="M692 4467 c-34 -34 -62 -68 -62 -75 0 -24 83 -177 143 -265 108 -158
250 -294 434 -414 44 -29 87 -53 95 -53 7 0 55 42 106 93 l93 93 -52 74 c-115
165 -279 339 -418 445 -57 43 -257 165 -271 165 -3 0 -34 -28 -68 -63z"/>
<path d="M1525 3620 l-529 -529 24 -28 c54 -61 210 -213 218 -213 5 0 24 21
43 48 41 57 205 258 268 327 153 169 429 425 631 584 58 46 108 86 112 90 4 4
-47 62 -115 129 l-122 122 -530 -530z"/>
<path d="M2098 3518 c-197 -169 -546 -534 -535 -561 11 -27 222 -271 346 -399
138 -143 328 -317 466 -428 91 -73 362 -269 385 -279 45 -18 -408 -15 -521 4
-41 7 -43 6 -29 -10 22 -26 304 -210 460 -300 132 -76 375 -197 534 -266 l80
-34 -90 -6 c-196 -15 -478 -7 -649 16 l-40 6 30 -26 c17 -14 107 -77 200 -139
506 -338 1041 -597 1574 -762 231 -72 622 -166 635 -153 7 7 -58 269 -113 462
-203 704 -505 1347 -894 1907 -44 63 -82 117 -84 119 -10 13 -11 -12 -3 -69
17 -115 30 -472 22 -599 l-7 -124 -59 139 c-73 172 -204 428 -303 593 -84 140
-243 375 -249 368 -2 -2 1 -39 6 -82 14 -112 24 -402 16 -458 l-7 -47 -73 109
c-169 252 -375 501 -603 727 -130 129 -381 346 -408 352 -7 2 -46 -25 -87 -60z"/>
</g>
</svg>
