<?xml version="1.0" standalone="no"?>
<!DOCTYPE svg PUBLIC "-//W3C//DTD SVG 20010904//EN"
 "http://www.w3.org/TR/2001/REC-SVG-20010904/DTD/svg10.dtd">
<svg version="1.0" xmlns="http://www.w3.org/2000/svg"
 width="512.000000pt" height="512.000000pt" viewBox="0 0 512.000000 512.000000"
 preserveAspectRatio="xMidYMid meet">
<metadata>
Created by potrace 1.15, written by Peter Selinger 2001-2017
</metadata>
<g transform="translate(0.000000,512.000000) scale(0.100000,-0.100000)"
fill="#ffffff" stroke="none">
<path d="M2650 4903 c-446 -43 -821 -225 -1160 -562 -333 -331 -577 -766 -714
-1276 -58 -211 -75 -316 -89 -540 -2 -39 -2 -39 -19 25 -29 110 -56 288 -69
445 -38 474 59 1000 257 1399 25 49 42 91 40 93 -10 10 -126 -89 -201 -169
-189 -206 -342 -500 -421 -811 -68 -269 -86 -631 -44 -916 76 -521 299 -983
647 -1342 l104 -106 -80 12 c-164 27 -358 95 -514 181 -44 24 -82 42 -85 39
-7 -7 75 -101 203 -234 378 -392 799 -621 1273 -693 160 -24 483 -29 646 -10
54 7 101 11 103 9 5 -6 -184 -83 -263 -106 -99 -30 -292 -61 -387 -62 -155 -2
-158 -9 -17 -56 224 -75 304 -87 550 -87 208 0 219 1 332 31 252 67 463 187
669 381 72 68 189 199 246 277 l22 30 -15 -64 c-27 -118 -77 -253 -141 -379
-34 -69 -61 -127 -60 -129 2 -1 50 40 107 91 501 445 759 905 834 1487 13 103
13 103 15 38 2 -96 -17 -306 -39 -444 -62 -386 -222 -792 -462 -1174 -32 -52
-57 -97 -56 -101 4 -10 169 102 259 176 494 408 774 1083 729 1759 -59 876
-555 1601 -1380 2018 l-75 38 115 -6 c189 -8 374 -61 575 -163 106 -54 245
-142 292 -185 37 -33 38 -12 2 45 -264 420 -624 671 -1053 734 -85 13 -155 15
-301 11 -204 -6 -314 -24 -517 -85 -54 -16 -98 -28 -98 -27 0 2 28 21 63 43
216 136 460 213 750 234 100 7 153 15 143 20 -28 16 -169 57 -261 78 -147 31
-334 45 -455 33z m216 -758 c121 -25 269 -73 370 -120 l92 -43 23 -93 c20 -81
24 -119 24 -269 0 -153 -3 -185 -23 -254 -54 -187 -156 -326 -326 -445 -68
-47 -59 -50 56 -21 236 59 415 220 497 445 35 98 61 243 61 348 0 37 3 67 8
67 10 0 137 -131 194 -200 116 -141 225 -339 283 -514 33 -98 79 -299 73 -317
-2 -5 -26 7 -53 27 -130 93 -225 123 -407 131 -80 3 -138 2 -138 -3 0 -5 30
-18 68 -28 118 -34 235 -100 310 -175 127 -127 173 -256 175 -491 l2 -145 -39
-100 c-47 -121 -93 -215 -155 -315 l-46 -75 -6 175 c-4 122 -12 203 -27 266
-68 301 -224 508 -464 618 -114 52 -187 68 -348 73 -190 7 -325 -16 -551 -92
-228 -77 -334 -98 -489 -97 -106 0 -137 4 -205 26 -102 33 -168 71 -243 141
-109 101 -187 271 -213 462 -15 118 -7 376 17 498 20 104 20 104 189 229 164
121 328 201 523 256 l104 30 61 -21 c218 -73 381 -231 454 -441 33 -94 37
-250 9 -343 -48 -159 -152 -285 -289 -351 -270 -128 -592 44 -599 320 -4 152
99 284 237 303 l45 6 -17 -33 c-70 -140 33 -310 188 -310 75 0 157 54 190 125
72 156 -89 364 -316 406 -219 40 -448 -121 -509 -357 -71 -275 95 -566 377
-663 236 -81 499 -23 677 151 152 148 230 337 230 558 0 237 -80 422 -257 599
l-83 84 93 -6 c52 -4 130 -13 173 -22z m-1687 -1085 c65 -385 284 -644 616
-730 215 -56 461 -33 764 71 352 121 583 130 790 28 146 -71 254 -201 311
-372 42 -125 54 -215 53 -392 0 -203 -28 -374 -64 -405 -195 -167 -431 -291
-674 -356 -113 -30 -138 -28 -244 15 -368 150 -536 545 -372 876 108 218 333
328 552 270 74 -19 123 -47 186 -108 130 -126 144 -324 30 -453 -44 -50 -123
-94 -170 -94 -27 0 -27 0 -12 30 40 77 27 176 -31 240 -97 107 -274 87 -341
-39 -57 -108 -9 -245 120 -344 73 -55 166 -80 280 -75 79 4 101 9 160 38 248
123 341 444 204 704 -44 84 -154 192 -243 239 -99 51 -180 70 -299 71 -160 0
-275 -38 -407 -136 -169 -125 -273 -329 -285 -558 -13 -254 72 -468 259 -654
l79 -78 -53 7 c-132 16 -233 38 -339 71 -124 39 -335 137 -348 163 -39 75 -46
387 -12 516 49 183 165 351 311 447 46 30 74 54 65 56 -22 5 -166 -34 -231
-63 -243 -107 -402 -354 -421 -653 l-6 -92 -71 76 c-198 214 -336 472 -401
749 -24 103 -38 185 -32 185 2 0 17 -11 33 -25 47 -42 203 -114 279 -130 39
-8 118 -15 178 -15 107 0 140 12 70 25 -63 11 -196 70 -260 113 -117 79 -199
199 -238 347 -9 33 -19 114 -22 180 -6 118 -5 122 30 225 41 124 84 219 141
315 l41 70 6 -145 c4 -80 12 -174 18 -210z"/>
</g>
</svg>
