<?xml version="1.0" standalone="no"?>
<!DOCTYPE svg PUBLIC "-//W3C//DTD SVG 20010904//EN"
 "http://www.w3.org/TR/2001/REC-SVG-20010904/DTD/svg10.dtd">
<svg version="1.0" xmlns="http://www.w3.org/2000/svg"
 width="512.000000pt" height="512.000000pt" viewBox="0 0 512.000000 512.000000"
 preserveAspectRatio="xMidYMid meet">
<metadata>
Created by potrace 1.15, written by Peter Selinger 2001-2017
</metadata>
<g transform="translate(0.000000,512.000000) scale(0.100000,-0.100000)"
fill="#ffffff" stroke="none">
<path d="M846 4880 c-10 -53 -62 -115 -178 -213 -214 -179 -268 -255 -254
-354 8 -61 58 -143 121 -201 87 -78 261 -200 271 -189 2 2 -3 23 -11 47 -8 23
-15 72 -15 109 0 75 32 155 91 227 19 23 62 77 97 119 80 99 104 146 104 206
0 71 -33 129 -120 209 -42 38 -81 70 -88 70 -6 0 -14 -14 -18 -30z"/>
<path d="M2735 4869 c-127 -80 -185 -218 -165 -387 16 -128 55 -226 131 -327
21 -28 45 -67 54 -88 52 -125 -33 -226 -181 -214 -127 10 -236 100 -312 259
-26 54 -49 97 -52 97 -3 0 -14 -18 -25 -41 -41 -86 -139 -128 -229 -98 -82 27
-186 182 -220 330 -18 74 -21 189 -6 239 5 19 8 36 6 38 -1 2 -19 -10 -39 -26
-94 -74 -178 -213 -203 -334 -22 -105 -7 -189 52 -291 62 -106 84 -174 84
-255 0 -203 -189 -318 -422 -256 -61 16 -186 75 -227 106 -36 28 -37 16 -3
-33 40 -58 95 -170 121 -245 69 -203 68 -502 -2 -708 -57 -166 -168 -334 -268
-406 l-26 -18 18 55 c32 98 43 176 42 314 -1 200 -35 332 -119 463 -33 51 -59
77 -105 107 -69 45 -83 49 -74 21 15 -49 35 -161 35 -201 0 -68 -26 -176 -58
-244 -59 -124 -167 -209 -267 -210 -27 0 -58 3 -67 8 -17 8 -18 -52 -18 -1173
l0 -1181 270 0 269 0 11 43 c34 128 102 292 167 401 171 286 471 456 958 542
55 10 101 19 103 20 2 1 -26 38 -63 81 -304 360 -429 826 -350 1310 86 526
413 940 821 1040 91 22 275 22 368 -1 158 -38 313 -133 453 -279 236 -245 366
-581 380 -977 10 -288 -36 -531 -147 -768 -51 -109 -84 -161 -182 -289 -43
-56 -78 -103 -78 -106 0 -3 37 -10 83 -17 127 -18 343 -66 432 -95 204 -67
393 -186 503 -317 90 -107 184 -318 242 -545 l11 -43 259 0 260 0 0 1278 0
1278 -30 90 c-51 150 -126 290 -190 354 -31 31 -71 62 -88 68 -18 6 -32 10
-32 9 0 -1 9 -27 21 -57 34 -89 49 -193 49 -333 0 -473 -258 -896 -608 -1001
l-53 -15 47 52 c203 226 351 654 304 882 -7 33 -14 64 -17 68 -3 4 -31 -20
-63 -55 -32 -35 -84 -79 -116 -98 -53 -32 -65 -35 -135 -35 -70 0 -81 3 -121
30 -59 42 -90 101 -96 185 -9 130 55 265 198 420 123 133 213 289 246 427 25
102 22 259 -5 358 -24 87 -96 243 -133 288 l-23 28 4 -91 c2 -76 -1 -104 -23
-173 -45 -146 -158 -281 -289 -350 -57 -29 -70 -32 -157 -32 -85 0 -101 3
-153 29 -176 90 -235 307 -136 503 56 111 161 209 262 244 20 7 37 16 37 20 0
13 -127 34 -200 33 -104 -2 -179 -32 -245 -98 -28 -28 -60 -72 -70 -97 l-19
-46 -71 61 c-128 111 -211 202 -241 262 -25 51 -29 70 -29 147 0 52 -4 87 -10
86 -5 0 -23 -9 -40 -20z"/>
<path d="M1970 2459 c-56 -11 -134 -50 -185 -93 l-39 -34 19 -37 c84 -160 242
-224 441 -180 64 14 220 68 232 80 1 1 -18 29 -44 61 -127 158 -282 233 -424
203z"/>
<path d="M2973 2460 c-93 -20 -200 -92 -280 -192 -31 -38 -54 -71 -51 -73 13
-13 194 -74 251 -85 189 -35 338 30 421 184 l18 35 -37 33 c-95 83 -216 120
-322 98z"/>
<path d="M1970 1602 c0 -52 118 -237 193 -302 55 -47 152 -101 222 -123 92
-28 270 -30 360 -3 172 51 325 180 403 337 23 47 42 90 42 96 0 7 -32 5 -97
-7 -368 -67 -758 -64 -1082 9 -34 7 -41 6 -41 -7z"/>
</g>
</svg>
