<?xml version="1.0" standalone="no"?>
<!DOCTYPE svg PUBLIC "-//W3C//DTD SVG 20010904//EN"
 "http://www.w3.org/TR/2001/REC-SVG-20010904/DTD/svg10.dtd">
<svg version="1.0" xmlns="http://www.w3.org/2000/svg"
 width="512.000000pt" height="512.000000pt" viewBox="0 0 512.000000 512.000000"
 preserveAspectRatio="xMidYMid meet">
<metadata>
Created by potrace 1.15, written by Peter Selinger 2001-2017
</metadata>
<g transform="translate(0.000000,512.000000) scale(0.100000,-0.100000)"
fill="#ffffff" stroke="none">
<path d="M3162 4923 c-19 -16 -931 -1440 -954 -1488 -6 -14 -2 -48 14 -111
l23 -91 -83 -22 c-46 -12 -86 -21 -87 -19 -5 5 -40 145 -95 378 -69 295 -113
439 -170 556 -89 184 -184 258 -329 257 -76 0 -161 -17 -161 -32 0 -4 11 -41
25 -82 66 -193 147 -534 230 -974 145 -763 257 -1035 472 -1144 23 -11 49 -21
58 -21 19 0 19 -9 -2 -97 -20 -87 -22 -88 -131 -36 -145 69 -282 236 -362 443
-19 47 -35 87 -37 89 -2 3 -70 -61 -151 -142 -150 -148 -222 -213 -347 -311
-198 -154 -486 -333 -734 -456 l-151 -75 0 -683 0 -682 707 2 708 3 34 65
c118 227 342 600 471 782 312 442 586 666 816 668 22 0 43 2 46 5 2 3 -59 188
-137 412 l-141 407 103 34 c57 18 103 37 103 41 0 5 -68 168 -151 362 -83 195
-153 361 -156 369 -6 16 88 -109 510 -679 76 -101 136 -185 134 -187 -1 -1
-60 -18 -131 -37 -70 -20 -130 -38 -133 -40 -5 -6 293 -647 308 -662 6 -6 270
0 752 19 627 24 745 30 759 43 23 21 55 108 67 184 12 73 0 179 -26 233 l-17
36 -70 0 c-39 0 -276 -7 -526 -15 -250 -8 -487 -15 -526 -15 l-71 0 -7 116
c-4 64 -5 118 -3 120 2 2 286 102 633 223 346 120 637 222 646 226 10 4 20 22
23 43 3 21 8 45 10 55 7 37 -17 154 -44 213 -16 33 -45 77 -64 97 l-37 36
-277 -94 c-624 -210 -989 -334 -1005 -340 -13 -5 -27 15 -68 97 -29 57 -56
108 -61 114 -6 8 97 87 318 245 180 129 422 302 538 385 l210 150 -2 47 c-1
54 -38 139 -85 198 -37 47 -141 119 -171 119 -10 0 -89 -51 -175 -113 -87 -63
-274 -198 -417 -302 -348 -252 -377 -273 -448 -325 l-61 -46 -82 61 c-45 33
-89 65 -98 70 -14 9 36 92 338 565 339 532 353 556 340 581 -30 59 -154 143
-249 167 -89 23 -140 24 -163 5z"/>
<path d="M3110 1531 c0 -52 -24 -167 -56 -266 -15 -44 -70 -165 -124 -270 -54
-104 -105 -214 -114 -244 -20 -68 -21 -170 -2 -216 22 -53 91 -120 154 -151
49 -24 70 -28 147 -28 77 -1 98 3 146 25 69 33 133 89 162 143 18 33 22 56 21
121 -2 102 -23 160 -124 345 -118 216 -170 363 -186 516 -7 70 -24 87 -24 25z"/>
</g>
</svg>
