<?xml version="1.0" standalone="no"?>
<!DOCTYPE svg PUBLIC "-//W3C//DTD SVG 20010904//EN"
 "http://www.w3.org/TR/2001/REC-SVG-20010904/DTD/svg10.dtd">
<svg version="1.0" xmlns="http://www.w3.org/2000/svg"
 width="512.000000pt" height="512.000000pt" viewBox="0 0 512.000000 512.000000"
 preserveAspectRatio="xMidYMid meet">
<metadata>
Created by potrace 1.15, written by Peter Selinger 2001-2017
</metadata>
<g transform="translate(0.000000,512.000000) scale(0.100000,-0.100000)"
fill="#ffffff" stroke="none">
<path d="M2185 4879 c-409 -26 -809 -87 -1210 -184 -182 -44 -418 -112 -464
-134 l-34 -16 6 -310 c9 -439 33 -751 83 -1090 121 -819 388 -1470 818 -1996
100 -122 374 -391 501 -493 192 -153 612 -422 689 -442 18 -4 53 11 143 62
1345 768 1937 1949 1970 3929 l6 351 -120 37 c-385 120 -872 219 -1288 261
-344 35 -788 45 -1100 25z m665 -194 c447 -13 920 -86 1421 -220 114 -30 210
-55 215 -55 4 0 4 -109 1 -242 -26 -966 -173 -1683 -466 -2274 -169 -339 -336
-571 -610 -845 -231 -230 -394 -356 -690 -535 l-134 -81 -81 47 c-487 283
-856 612 -1134 1012 -222 318 -397 715 -502 1137 -114 457 -164 879 -186 1572
l-6 206 23 5 c13 3 121 31 239 61 383 100 699 157 1103 198 123 12 509 27 587
22 25 -1 124 -5 220 -8z"/>
<path d="M2335 4159 c-154 -88 -281 -162 -282 -163 -1 -1 59 -107 133 -236
185 -321 170 -285 131 -304 -17 -8 -51 -27 -74 -41 l-42 -25 -33 57 c-19 32
-85 147 -148 256 -63 108 -119 197 -124 197 -6 0 -132 -72 -281 -159 l-270
-158 -3 -327 -2 -326 300 0 300 0 0 -90 0 -90 -300 0 -300 0 2 -327 3 -327 55
-32 c30 -17 153 -88 272 -157 120 -70 221 -127 225 -127 5 0 17 17 29 38 11
20 78 136 148 258 l128 221 74 -44 74 -45 -29 -51 c-16 -29 -83 -144 -149
-257 -88 -152 -116 -208 -108 -216 6 -7 56 -38 111 -70 55 -31 177 -102 271
-156 l172 -100 273 158 c151 86 278 160 283 165 7 6 -134 259 -275 495 l-19
32 57 32 c32 18 65 39 74 47 15 13 28 -6 139 -199 68 -117 134 -232 147 -255
14 -24 29 -46 34 -49 6 -3 60 23 122 59 62 35 185 106 275 157 l162 94 0 328
0 328 -298 0 -299 0 1 90 0 90 298 0 298 0 0 328 0 328 -265 153 c-146 84
-273 155 -283 157 -13 3 -49 -51 -161 -248 -80 -139 -146 -255 -147 -257 -2
-2 -25 10 -51 27 -26 16 -60 36 -74 43 l-27 14 149 255 c81 140 148 258 149
261 0 4 -39 29 -87 57 -49 27 -175 100 -281 161 -106 61 -194 111 -195 111 -1
0 -128 -72 -282 -161z m395 -845 c168 -39 310 -180 355 -349 43 -168 -4 -335
-129 -461 -155 -155 -371 -188 -571 -87 -62 32 -162 132 -197 199 -196 367
135 794 542 698z"/>
</g>
</svg>
