<?xml version="1.0" standalone="no"?>
<!DOCTYPE svg PUBLIC "-//W3C//DTD SVG 20010904//EN"
 "http://www.w3.org/TR/2001/REC-SVG-20010904/DTD/svg10.dtd">
<svg version="1.0" xmlns="http://www.w3.org/2000/svg"
 width="512.000000pt" height="512.000000pt" viewBox="0 0 512.000000 512.000000"
 preserveAspectRatio="xMidYMid meet">
<metadata>
Created by potrace 1.15, written by Peter Selinger 2001-2017
</metadata>
<g transform="translate(0.000000,512.000000) scale(0.100000,-0.100000)"
fill="#ffffff" stroke="none">
<path d="M3365 4893 c-237 -50 -423 -188 -523 -388 -46 -93 -48 -105 -18 -105
14 0 41 -14 60 -31 67 -59 115 -197 137 -396 6 -60 13 -109 13 -110 1 -2 78
-14 172 -28 93 -14 185 -28 204 -31 l35 -6 -40 -21 c-22 -11 -65 -26 -95 -34
-61 -14 -228 -16 -305 -3 -41 6 -54 5 -69 -9 -10 -9 -93 -108 -185 -221 -299
-367 -340 -413 -694 -780 l-170 -175 38 -3 c20 -2 100 11 177 28 77 17 143 29
145 26 6 -6 -62 -40 -212 -106 -272 -119 -300 -135 -460 -268 -108 -89 -855
-839 -897 -900 -16 -23 -32 -58 -35 -76 -13 -81 50 -114 247 -130 l135 -11 -2
-30 c-2 -19 -17 -44 -48 -75 l-45 -45 -101 -3 -100 -4 -37 -56 c-63 -99 -129
-233 -172 -351 -23 -63 -48 -127 -56 -142 -46 -89 9 -92 175 -9 124 62 280
162 386 247 33 26 80 61 105 77 25 16 74 50 110 76 80 59 124 81 158 82 15 1
81 -20 147 -45 354 -134 886 -249 1165 -251 143 -1 165 7 195 71 25 52 22 126
-11 308 -40 219 -39 451 2 597 4 14 24 11 172 -28 173 -46 334 -73 435 -74
l59 0 -5 -412 c-3 -314 -8 -438 -21 -517 -9 -58 -13 -108 -9 -112 10 -8 569
-209 582 -209 12 0 18 21 25 90 l6 55 -165 109 c-100 66 -165 115 -165 125 0
9 14 65 31 125 41 148 75 309 94 446 21 150 32 607 16 638 -26 49 -321 187
-610 285 l-127 44 97 159 c53 87 123 188 155 223 115 126 319 259 599 391 361
171 488 243 554 315 53 58 60 87 32 139 -12 23 -28 72 -36 110 -8 38 -20 73
-27 78 -15 10 -138 1 -174 -12 -27 -10 -73 -78 -127 -186 -20 -40 -49 -82 -64
-93 -49 -39 -307 -160 -372 -175 -66 -15 -119 -12 -127 8 -2 6 10 79 27 161
38 185 47 296 27 345 -14 33 -13 40 13 111 107 294 266 563 482 813 92 108
-83 -12 -224 -153 -148 -148 -275 -328 -361 -510 -18 -39 -38 -71 -44 -71 -23
0 -53 47 -59 95 -9 66 10 201 41 295 81 242 273 375 617 426 39 5 39 6 20 26
-38 42 -172 135 -258 180 -99 50 -188 81 -279 97 -84 15 -278 12 -361 -6z"/>
</g>
</svg>
