<?xml version="1.0" standalone="no"?>
<!DOCTYPE svg PUBLIC "-//W3C//DTD SVG 20010904//EN"
 "http://www.w3.org/TR/2001/REC-SVG-20010904/DTD/svg10.dtd">
<svg version="1.0" xmlns="http://www.w3.org/2000/svg"
 width="512.000000pt" height="512.000000pt" viewBox="0 0 512.000000 512.000000"
 preserveAspectRatio="xMidYMid meet">
<metadata>
Created by potrace 1.15, written by Peter Selinger 2001-2017
</metadata>
<g transform="translate(0.000000,512.000000) scale(0.100000,-0.100000)"
fill="#ffffff" stroke="none">
<path d="M2875 4908 c-79 -29 -184 -118 -247 -211 -119 -175 -177 -483 -119
-631 6 -16 10 -30 9 -31 -2 -2 -30 -16 -63 -32 -57 -29 -62 -29 -95 -16 -103
44 -380 93 -519 93 -104 0 -200 -26 -406 -112 -109 -45 -438 -209 -458 -227
-12 -12 105 -270 123 -271 8 0 87 41 175 91 208 119 302 164 399 189 153 39
255 25 416 -59 58 -30 128 -66 156 -80 46 -24 51 -29 48 -56 -2 -16 -6 -85 -8
-152 -19 -420 -138 -767 -429 -1247 l-102 -169 -75 -38 c-158 -81 -361 -126
-781 -174 -91 -11 -90 -7 -26 -152 32 -70 61 -134 66 -141 6 -10 56 -6 251 23
259 37 413 69 571 116 180 53 229 82 624 364 354 253 640 427 979 597 l159 80
81 -41 c148 -75 236 -177 396 -459 35 -62 68 -111 72 -110 4 2 61 54 128 117
l121 113 -37 67 c-134 242 -385 510 -663 711 l-99 70 -103 -36 c-102 -35 -401
-176 -488 -230 l-44 -27 7 24 c43 158 45 386 3 547 -27 108 -41 101 108 58
102 -30 267 -56 348 -56 53 0 60 3 118 51 95 80 210 202 317 337 53 68 130
165 169 215 40 51 73 97 73 102 0 6 -43 46 -96 89 l-97 79 -19 -24 c-10 -13
-62 -80 -114 -149 -121 -158 -237 -291 -309 -353 l-56 -49 -81 17 c-92 18
-167 45 -296 105 -76 35 -93 48 -101 73 -6 16 -11 33 -11 36 0 4 29 26 64 49
136 89 267 267 295 400 33 160 -6 356 -93 459 -52 62 -161 89 -241 61z"/>
<path d="M180 730 l0 -550 710 0 710 0 0 550 0 550 -710 0 -710 0 0 -550z"/>
<path d="M3520 730 l0 -550 710 0 710 0 0 550 0 550 -710 0 -710 0 0 -550z"/>
</g>
</svg>
