<?xml version="1.0" standalone="no"?>
<!DOCTYPE svg PUBLIC "-//W3C//DTD SVG 20010904//EN"
 "http://www.w3.org/TR/2001/REC-SVG-20010904/DTD/svg10.dtd">
<svg version="1.0" xmlns="http://www.w3.org/2000/svg"
 width="512.000000pt" height="512.000000pt" viewBox="0 0 512.000000 512.000000"
 preserveAspectRatio="xMidYMid meet">
<metadata>
Created by potrace 1.15, written by Peter Selinger 2001-2017
</metadata>
<g transform="translate(0.000000,512.000000) scale(0.100000,-0.100000)"
fill="#ffffff" stroke="none">
<path d="M1024 4843 c7 -25 420 -1611 757 -2908 71 -275 132 -508 135 -517 3
-11 20 -19 47 -23 35 -4 1949 -159 2635 -212 116 -9 215 -14 218 -11 3 3 -110
448 -251 989 -409 1571 -460 1765 -552 2119 -47 184 -90 339 -94 344 -4 5
-164 22 -356 37 -1552 125 -2479 199 -2509 199 -29 0 -34 -3 -30 -17z m1326
-863 c322 -22 799 -54 1060 -71 261 -17 486 -33 499 -35 23 -5 24 -6 18 -86
-4 -45 -9 -83 -11 -85 -5 -6 -2375 152 -2379 158 -2 2 -1 42 1 88 l4 84 112
-7 c61 -3 374 -24 696 -46z m-255 -442 c50 -78 93 -145 96 -150 3 -5 66 15
140 43 74 29 179 69 234 90 55 22 101 35 103 31 1 -4 54 -99 117 -211 63 -112
115 -207 115 -211 0 -3 -18 -16 -40 -29 -109 -61 -290 -216 -290 -248 0 -18
70 -17 145 2 89 23 252 106 345 176 155 117 268 247 371 428 l52 91 51 -43
c28 -24 172 -145 319 -270 148 -124 269 -229 269 -233 0 -5 -100 -51 -222
-104 -122 -52 -223 -99 -224 -105 0 -5 19 -20 44 -32 84 -43 212 -27 352 43
37 19 70 34 73 34 7 0 99 -140 94 -144 -2 -2 -45 -25 -94 -50 -306 -154 -553
-96 -709 165 -20 33 -36 62 -36 63 0 2 88 41 195 87 107 46 195 89 194 94 0 6
-41 44 -90 85 -50 41 -107 90 -128 107 l-39 33 -63 -88 c-223 -309 -576 -525
-859 -527 -86 0 -99 3 -142 27 -89 53 -111 155 -53 254 31 52 130 151 201 200
l54 37 -41 76 c-23 42 -43 77 -44 78 -1 2 -35 -10 -76 -27 -174 -69 -383 -149
-385 -147 0 1 -36 57 -79 125 -43 67 -81 122 -86 122 -11 0 -66 -81 -80 -117
-19 -51 -13 -130 15 -188 31 -63 111 -143 199 -200 34 -22 64 -44 65 -50 4
-14 -69 -145 -80 -145 -20 0 -148 91 -211 149 -176 166 -222 349 -133 537 31
67 54 95 142 182 57 56 110 102 117 102 7 0 53 -64 102 -142z m1097 -1113
c608 -41 1114 -75 1124 -75 15 0 16 -9 11 -86 -2 -47 -7 -87 -9 -89 -3 -3
-1591 101 -2296 151 -89 6 -93 8 -88 28 3 11 6 52 6 89 l0 69 73 -7 c39 -3
570 -39 1179 -80z"/>
<path d="M775 4823 c-182 -94 -372 -327 -430 -526 -9 -31 -16 -85 -16 -120 0
-62 24 -184 40 -200 4 -4 16 14 26 40 79 210 247 428 415 537 41 27 79 52 83
56 5 4 0 41 -12 81 -11 41 -25 93 -31 117 -6 23 -14 42 -18 42 -4 -1 -29 -13
-57 -27z"/>
<path d="M883 4392 c-204 -162 -349 -418 -398 -700 l-16 -93 30 -107 c16 -59
160 -582 320 -1163 160 -580 294 -1066 299 -1079 8 -22 10 -20 37 26 99 171
268 334 437 424 32 17 58 33 58 34 0 2 -50 194 -111 427 -60 233 -214 822
-340 1309 -126 487 -234 902 -240 923 -5 20 -14 37 -18 37 -5 0 -31 -17 -58
-38z"/>
<path d="M1625 1518 c-150 -90 -310 -281 -375 -449 -49 -128 -49 -131 16 -362
31 -114 62 -207 68 -207 7 0 11 35 12 98 1 109 20 189 69 297 70 153 183 292
319 391 l29 21 -33 124 c-17 68 -33 125 -34 126 -1 1 -33 -16 -71 -39z"/>
<path d="M1880 1174 c-158 -107 -290 -290 -336 -468 -15 -56 -23 -210 -12
-221 5 -5 2901 -254 2906 -250 2 2 -9 26 -23 53 -31 60 -55 143 -55 193 0 44
-3 47 -112 90 -47 18 -84 36 -82 39 3 2 97 19 210 36 113 18 208 35 212 39 4
4 -23 35 -59 70 l-67 63 37 35 c44 42 126 98 169 116 18 8 32 16 32 20 0 3
-183 21 -407 39 -225 18 -545 44 -713 57 -168 14 -555 46 -860 71 -305 25
-607 48 -670 50 l-115 6 -55 -38z"/>
</g>
</svg>
