<?xml version="1.0" standalone="no"?>
<!DOCTYPE svg PUBLIC "-//W3C//DTD SVG 20010904//EN"
 "http://www.w3.org/TR/2001/REC-SVG-20010904/DTD/svg10.dtd">
<svg version="1.0" xmlns="http://www.w3.org/2000/svg"
 width="512.000000pt" height="512.000000pt" viewBox="0 0 512.000000 512.000000"
 preserveAspectRatio="xMidYMid meet">
<metadata>
Created by potrace 1.15, written by Peter Selinger 2001-2017
</metadata>
<g transform="translate(0.000000,512.000000) scale(0.100000,-0.100000)"
fill="#ffffff" stroke="none">
<path d="M1435 4821 c-290 -71 -546 -361 -626 -708 -15 -68 -12 -218 7 -310
69 -335 251 -575 789 -1038 509 -439 732 -679 905 -972 23 -40 46 -73 50 -73
5 0 25 30 45 68 45 81 135 207 229 322 145 175 319 343 681 655 489 421 681
661 771 960 24 78 28 108 28 230 1 108 -3 154 -17 200 -67 224 -180 401 -333
525 -88 71 -175 114 -286 142 -104 26 -268 21 -398 -12 -92 -24 -260 -99 -337
-151 -144 -97 -266 -235 -335 -378 -24 -50 -46 -90 -49 -90 -3 -1 -15 23 -27
52 -78 187 -271 382 -482 487 -198 99 -438 135 -615 91z"/>
<path d="M535 3122 c-40 -25 -83 -106 -100 -191 -20 -93 -25 -675 -7 -776 31
-177 173 -574 297 -830 54 -113 143 -241 212 -307 58 -55 190 -146 269 -186
70 -34 71 -36 83 -86 22 -94 24 -167 6 -246 -28 -125 -30 -157 -10 -186 57
-87 312 -99 517 -24 241 88 338 286 325 660 -9 239 -47 407 -120 528 -37 62
-118 143 -235 237 -117 94 -129 114 -273 475 -74 186 -88 214 -150 306 -128
190 -263 225 -309 80 -37 -117 31 -454 155 -761 19 -48 35 -88 35 -91 0 -26
-164 59 -225 116 -162 154 -203 313 -224 860 -10 261 -20 313 -68 378 -46 61
-120 79 -178 44z"/>
<path d="M4455 3121 c-85 -52 -104 -115 -115 -380 -21 -488 -39 -599 -115
-751 -41 -81 -99 -147 -169 -194 -54 -36 -155 -80 -163 -72 -3 2 12 48 32 103
110 291 158 487 159 638 1 94 -2 115 -20 145 -25 43 -64 64 -105 55 -43 -10
-123 -77 -176 -148 -61 -83 -96 -156 -187 -385 -122 -309 -131 -324 -261 -428
-221 -175 -279 -272 -327 -544 -20 -117 -17 -439 5 -520 37 -137 113 -253 200
-303 161 -94 442 -126 564 -66 77 38 82 56 54 193 -25 120 -25 175 0 282 11
49 15 53 68 79 164 79 325 218 416 358 72 112 89 148 193 409 187 468 209 587
193 1063 -10 277 -18 327 -67 412 -41 70 -116 93 -179 54z"/>
</g>
</svg>
