<?xml version="1.0" standalone="no"?>
<!DOCTYPE svg PUBLIC "-//W3C//DTD SVG 20010904//EN"
 "http://www.w3.org/TR/2001/REC-SVG-20010904/DTD/svg10.dtd">
<svg version="1.0" xmlns="http://www.w3.org/2000/svg"
 width="512.000000pt" height="512.000000pt" viewBox="0 0 512.000000 512.000000"
 preserveAspectRatio="xMidYMid meet">
<metadata>
Created by potrace 1.15, written by Peter Selinger 2001-2017
</metadata>
<g transform="translate(0.000000,512.000000) scale(0.100000,-0.100000)"
fill="#ffffff" stroke="none">
<path d="M220 4951 c0 -13 1461 -1581 1474 -1581 7 0 93 31 191 70 98 38 180
68 180 67 1 -1 16 -38 32 -82 l30 -79 -543 -211 c-298 -116 -546 -213 -549
-217 -7 -6 2129 -2363 2208 -2437 105 -98 263 -183 413 -222 76 -20 113 -23
254 -23 149 0 174 3 255 27 348 104 602 361 695 702 33 119 38 320 12 445 -63
303 -254 555 -522 690 -41 20 -86 41 -99 45 -13 4 -322 173 -687 376 -364 203
-669 369 -677 369 -8 0 -137 -52 -287 -116 -150 -63 -274 -114 -276 -112 -13
14 -64 152 -57 158 4 5 98 46 208 93 110 46 423 179 696 294 272 116 505 214
517 217 12 4 22 10 22 14 0 5 -2932 1283 -3462 1509 -15 7 -28 9 -28 4z m3848
-2957 c148 -30 271 -96 383 -205 160 -156 240 -346 242 -574 1 -93 -17 -215
-31 -215 -3 0 -48 7 -99 17 -65 11 -93 20 -93 30 0 8 9 90 21 184 11 93 19
177 17 187 -2 9 -29 -44 -60 -118 -31 -74 -82 -197 -113 -273 -32 -75 -55
-140 -52 -143 3 -3 71 -15 150 -27 80 -12 149 -25 153 -29 20 -21 -188 -254
-220 -246 -32 7 -486 233 -486 241 0 5 81 106 181 225 99 118 176 218 172 222
-18 16 -785 401 -790 397 -2 -3 58 -60 134 -128 76 -68 193 -172 260 -232
l122 -110 -214 -176 c-117 -97 -214 -180 -215 -186 0 -5 93 -101 207 -213
l208 -203 -84 6 c-298 23 -539 182 -666 440 -25 50 -52 117 -60 150 -18 71
-32 235 -19 235 4 0 70 -24 146 -52 95 -36 138 -57 138 -68 0 -8 -14 -64 -30
-125 -25 -94 -30 -131 -17 -114 85 104 278 352 275 353 -2 2 -109 40 -238 86
-129 46 -239 87 -245 91 -22 20 65 201 141 293 72 87 170 166 257 209 119 57
98 69 230 -123 65 -93 122 -172 127 -175 4 -2 115 6 246 20 132 14 248 25 258
25 53 0 -16 20 -184 54 -102 20 -193 39 -202 42 -9 3 -55 59 -102 124 l-86
120 81 0 c44 0 115 -7 157 -16z"/>
</g>
</svg>
