<?xml version="1.0" standalone="no"?>
<!DOCTYPE svg PUBLIC "-//W3C//DTD SVG 20010904//EN"
 "http://www.w3.org/TR/2001/REC-SVG-20010904/DTD/svg10.dtd">
<svg version="1.0" xmlns="http://www.w3.org/2000/svg"
 width="512.000000pt" height="512.000000pt" viewBox="0 0 512.000000 512.000000"
 preserveAspectRatio="xMidYMid meet">
<metadata>
Created by potrace 1.15, written by Peter Selinger 2001-2017
</metadata>
<g transform="translate(0.000000,512.000000) scale(0.100000,-0.100000)"
fill="#ffffff" stroke="none">
<path d="M180 4839 l0 -80 303 -322 c167 -177 413 -439 547 -582 235 -251 301
-320 476 -505 44 -47 224 -238 399 -425 176 -187 353 -376 394 -420 159 -167
307 -325 428 -455 l52 -55 73 39 c133 71 141 78 186 161 23 43 42 84 42 90 0
7 -57 67 -127 135 -132 128 -1256 1235 -1913 1885 -206 204 -431 426 -500 493
l-126 122 -117 0 -117 0 0 -81z"/>
<path d="M1590 4911 c0 -4 56 -125 124 -268 l123 -260 -77 -18 -78 -18 -251
183 c-139 100 -254 180 -257 177 -4 -4 349 -514 409 -592 l23 -29 165 36 c90
19 167 33 171 29 4 -3 63 -125 132 -271 69 -146 130 -266 135 -268 5 -2 175
92 376 207 202 116 370 211 373 210 15 -1 427 -647 447 -700 5 -13 -18 -31
-94 -78 -55 -33 -105 -61 -113 -61 -7 0 -163 56 -347 125 -282 106 -365 134
-340 111 2 -2 93 -74 202 -160 109 -86 253 -200 320 -254 67 -54 138 -110 157
-125 l36 -26 159 124 159 123 413 -1186 c226 -653 411 -1187 410 -1188 -1 -1
-213 72 -472 162 -824 287 -871 303 -1037 340 -201 45 -423 106 -633 174 -152
50 -166 57 -274 134 -171 121 -496 405 -480 420 2 2 96 41 208 87 112 46 205
89 208 95 4 11 -790 1277 -805 1282 -5 1 -61 -106 -126 -238 l-118 -241 -176
249 c-97 137 -242 342 -322 455 -80 113 -148 206 -152 207 -5 0 -8 -74 -8
-163 l0 -164 142 -199 c77 -109 189 -266 247 -349 59 -82 149 -210 200 -282
52 -73 97 -133 100 -133 3 0 57 105 119 233 l113 232 22 -34 c12 -19 126 -199
253 -400 l231 -366 -196 -81 c-108 -45 -213 -88 -234 -97 l-39 -17 49 -62 c70
-91 295 -320 394 -402 401 -333 556 -446 831 -603 l88 -50 -338 4 c-185 3
-488 8 -673 12 l-337 6 74 185 c41 102 74 191 74 198 0 7 -147 85 -327 174
-181 88 -329 161 -330 162 -1 0 15 69 34 151 l36 150 230 205 c126 112 225
206 220 207 -5 2 -115 -37 -243 -87 -129 -49 -237 -90 -241 -90 -3 0 -115 131
-250 291 l-244 292 -3 -152 -3 -151 177 -210 176 -210 -56 -236 c-31 -129 -56
-243 -56 -253 0 -13 81 -57 315 -172 173 -85 315 -159 315 -166 0 -34 -132
-339 -184 -424 l-60 -96 -80 37 c-45 21 -144 68 -221 104 -76 36 -141 63 -143
61 -3 -3 328 -445 406 -542 l27 -34 151 202 151 201 199 -1 c110 0 396 -4 637
-7 428 -7 437 -7 390 -24 -227 -80 -400 -145 -407 -152 -6 -4 42 -8 105 -9 62
0 389 -4 724 -8 l610 -9 165 -56 c473 -163 916 -260 1323 -290 l67 -5 0 42 c0
153 -61 522 -136 827 l-56 225 57 759 c31 417 54 760 52 763 -3 2 -51 -61
-108 -141 -57 -80 -106 -145 -109 -146 -3 0 -18 316 -33 703 -16 386 -31 743
-34 792 l-5 90 156 89 c87 49 159 93 161 96 6 9 -157 560 -165 560 -3 0 -21
-95 -40 -210 -19 -116 -37 -214 -40 -218 -3 -5 -77 -48 -164 -97 -88 -50 -236
-133 -330 -186 l-171 -96 -18 31 c-10 17 -120 216 -245 441 l-227 410 -113 3
c-61 1 -112 0 -112 -3 0 -15 634 -1145 642 -1145 9 0 144 74 424 231 l51 29
12 -328 c6 -180 14 -353 17 -384 l6 -58 -80 0 -80 0 -6 38 c-3 20 -13 130 -22
245 -10 114 -20 207 -23 207 -9 0 -183 -581 -178 -594 3 -6 93 -47 201 -90
164 -67 196 -83 196 -100 0 -44 30 -756 35 -826 l5 -75 -39 85 c-207 459 -476
896 -739 1199 -44 50 -118 155 -165 233 -48 79 -148 235 -222 348 l-136 205 6
165 c3 91 8 199 11 240 l6 75 -358 53 c-198 29 -368 52 -379 52 -11 0 98 -62
242 -138 144 -75 265 -141 269 -145 4 -4 -3 -53 -15 -110 l-23 -102 -137 -79
c-75 -44 -188 -109 -251 -146 -63 -36 -136 -78 -161 -93 l-47 -26 -88 187
c-48 103 -120 256 -161 341 -40 84 -73 154 -73 156 0 1 -38 82 -85 179 l-84
176 -106 0 c-58 0 -105 -4 -105 -9z"/>
<path d="M3482 2638 c-11 -18 -61 -109 -113 -203 -51 -93 -127 -233 -170 -310
l-76 -140 -154 -86 c-85 -47 -230 -127 -324 -178 -93 -52 -181 -100 -194 -109
l-25 -15 25 -10 c29 -11 33 -12 918 -321 387 -136 706 -245 708 -243 4 5 -560
1634 -569 1642 -3 4 -15 -9 -26 -27z"/>
</g>
</svg>
