<?xml version="1.0" standalone="no"?>
<!DOCTYPE svg PUBLIC "-//W3C//DTD SVG 20010904//EN"
 "http://www.w3.org/TR/2001/REC-SVG-20010904/DTD/svg10.dtd">
<svg version="1.0" xmlns="http://www.w3.org/2000/svg"
 width="512.000000pt" height="512.000000pt" viewBox="0 0 512.000000 512.000000"
 preserveAspectRatio="xMidYMid meet">
<metadata>
Created by potrace 1.15, written by Peter Selinger 2001-2017
</metadata>
<g transform="translate(0.000000,512.000000) scale(0.100000,-0.100000)"
fill="#ffffff" stroke="none">
<path d="M2490 4670 c-25 -4 -61 -15 -80 -23 -19 -8 -383 -217 -809 -464 -486
-281 -782 -459 -795 -476 -30 -41 -26 -91 9 -127 30 -29 1493 -882 1594 -928
67 -31 173 -39 246 -20 59 16 1590 897 1641 944 64 59 41 128 -65 191 -306
182 -1521 879 -1549 888 -52 18 -139 24 -192 15z m213 -560 c75 -23 146 -68
168 -107 29 -50 31 -87 10 -178 -28 -114 -27 -122 13 -160 l34 -32 -155 -87
c-168 -94 -171 -95 -228 -45 -50 45 -59 82 -40 170 35 160 31 185 -37 220
-126 64 -357 -43 -476 -220 l-38 -58 -112 61 c-61 34 -112 64 -112 67 0 11
161 144 233 192 139 93 339 175 477 197 75 12 188 3 263 -20z m530 -640 c43
-23 75 -46 70 -50 -4 -4 -76 -45 -159 -92 l-151 -85 -126 71 c-69 39 -123 74
-119 78 4 4 75 45 157 92 l150 84 50 -27 c28 -16 85 -47 128 -71z"/>
<path d="M723 3378 c-66 -17 -64 25 -61 -925 l3 -858 29 -60 c17 -33 51 -80
76 -105 67 -65 1537 -911 1595 -918 53 -5 92 25 105 83 13 56 13 1597 0 1666
-14 75 -52 148 -103 198 -30 30 -273 176 -798 479 -415 239 -767 438 -784 442
-16 4 -45 3 -62 -2z m521 -663 c113 -33 197 -72 299 -138 222 -145 341 -327
341 -522 1 -124 -36 -174 -165 -227 -89 -37 -102 -49 -108 -101 l-6 -47 -142
82 -143 82 0 41 c0 22 10 61 23 85 22 46 47 62 186 123 100 45 94 177 -11 274
-80 73 -189 113 -310 113 l-58 0 0 130 c0 72 2 130 4 130 2 0 43 -11 90 -25z
m226 -1096 l140 -81 0 -144 c0 -79 -3 -144 -7 -144 -5 0 -69 36 -143 79 l-135
78 -3 147 c-1 80 0 146 3 146 3 0 68 -36 145 -81z"/>
<path d="M4335 3380 c-16 -4 -367 -201 -780 -439 -665 -384 -756 -439 -806
-491 -39 -39 -64 -77 -78 -115 -21 -55 -21 -66 -21 -911 l0 -856 30 -30 c57
-57 40 -65 870 413 413 239 772 451 796 472 26 23 56 64 76 105 l33 67 3 857
c2 757 1 862 -13 888 -9 17 -17 30 -18 30 -1 0 -16 4 -32 8 -17 5 -43 5 -60 2z
m-400 -763 c24 -24 36 -48 44 -90 27 -126 -17 -255 -161 -480 -87 -136 -107
-180 -108 -237 l0 -45 -143 -82 -142 -82 -3 35 c-7 75 38 182 148 354 94 147
121 205 127 269 5 48 2 59 -16 75 -54 49 -180 -21 -336 -187 l-95 -100 0 125
0 125 68 60 c210 187 398 291 526 292 53 1 61 -2 91 -32z m-225 -1141 l0 -144
-139 -81 c-77 -45 -142 -81 -146 -81 -3 0 -4 66 -3 146 l3 146 135 79 c74 43
138 78 143 78 4 1 7 -64 7 -143z"/>
</g>
</svg>
