<?xml version="1.0" standalone="no"?>
<!DOCTYPE svg PUBLIC "-//W3C//DTD SVG 20010904//EN"
 "http://www.w3.org/TR/2001/REC-SVG-20010904/DTD/svg10.dtd">
<svg version="1.0" xmlns="http://www.w3.org/2000/svg"
 width="512.000000pt" height="512.000000pt" viewBox="0 0 512.000000 512.000000"
 preserveAspectRatio="xMidYMid meet">
<metadata>
Created by potrace 1.15, written by Peter Selinger 2001-2017
</metadata>
<g transform="translate(0.000000,512.000000) scale(0.100000,-0.100000)"
fill="#ffffff" stroke="none">
<path d="M1081 4827 c-73 -149 -190 -262 -354 -342 -130 -62 -200 -79 -332
-78 -60 0 -122 5 -137 11 -37 15 -37 14 8 -206 163 -812 457 -1818 732 -2507
100 -251 237 -553 247 -543 2 2 -11 52 -30 111 -38 121 -78 280 -95 378 -22
124 33 259 143 351 71 58 126 87 232 121 317 100 612 18 711 -197 29 -64 50
-202 65 -422 6 -93 12 -170 13 -171 5 -5 26 235 37 427 13 222 6 1038 -11
1295 -28 435 -61 803 -100 1120 -21 167 -81 578 -85 583 -2 2 -25 -11 -51 -28
-85 -54 -193 -82 -329 -87 -231 -9 -437 67 -573 211 l-51 54 -40 -81z m209
-393 c0 -15 86 -439 121 -599 145 -654 305 -1144 417 -1275 39 -44 58 -35 84
39 71 210 33 796 -102 1580 -17 95 -30 177 -30 181 0 8 158 35 165 28 16 -16
125 -761 157 -1068 20 -196 17 -586 -5 -687 -32 -149 -82 -228 -166 -266 -151
-66 -292 94 -433 495 l-33 93 -6 -205 c-10 -317 -47 -438 -151 -489 -58 -28
-103 -27 -166 5 -177 88 -332 465 -496 1209 -48 219 -127 647 -122 660 3 10
154 41 161 33 1 -2 10 -46 19 -98 57 -322 150 -756 207 -965 107 -393 244
-693 313 -683 83 12 88 533 10 1198 -17 152 -88 646 -104 729 -5 30 -8 56 -5
59 5 5 119 29 148 31 9 0 17 -2 17 -5z"/>
<path d="M3923 4470 c-146 -140 -379 -214 -596 -190 -109 13 -197 40 -271 85
-32 19 -60 34 -61 33 -4 -5 -65 -420 -85 -583 -39 -322 -73 -697 -102 -1145
-8 -119 -13 -411 -13 -750 0 -459 3 -589 18 -750 17 -177 27 -243 27 -179 1
75 23 338 36 424 27 176 91 269 228 334 93 44 157 55 298 48 145 -6 236 -29
350 -89 131 -68 212 -163 244 -287 15 -59 15 -71 0 -155 -20 -107 -65 -281
-101 -385 -33 -98 -31 -109 7 -36 242 466 558 1386 788 2290 105 416 211 908
197 921 -3 3 -32 0 -64 -6 -87 -18 -216 -6 -326 30 -217 72 -400 232 -473 412
-10 27 -21 48 -24 48 -3 -1 -37 -32 -77 -70z m-9 -405 c44 -9 81 -17 83 -19 2
-1 -1 -27 -7 -56 -22 -117 -91 -618 -115 -830 -58 -532 -59 -943 -4 -1082 15
-38 30 -35 73 12 138 153 305 706 447 1485 23 127 43 231 44 233 4 4 155 -25
161 -31 3 -3 -13 -106 -36 -229 -185 -1007 -377 -1547 -583 -1647 -89 -43
-185 -16 -237 66 -57 90 -80 220 -80 454 0 90 -4 159 -8 154 -5 -6 -23 -53
-41 -105 -49 -142 -143 -327 -198 -389 -100 -114 -206 -120 -301 -17 -83 90
-107 213 -107 536 1 241 8 342 51 680 23 190 111 741 119 748 5 6 148 -20 158
-28 4 -3 -6 -85 -23 -181 -90 -525 -133 -920 -134 -1224 0 -222 9 -306 41
-387 30 -75 76 -37 154 127 132 276 293 875 440 1633 12 61 22 112 23 112 1 0
37 -7 80 -15z"/>
<path d="M1585 1971 c-134 -34 -219 -85 -266 -159 -23 -37 -29 -57 -29 -101 0
-47 27 -190 46 -240 3 -11 20 1 58 41 174 182 412 226 623 114 37 -20 69 -34
71 -31 7 6 -16 192 -29 239 -14 52 -60 100 -121 127 -73 32 -250 37 -353 10z"/>
<path d="M3227 1615 c-62 -17 -123 -57 -147 -97 -20 -33 -36 -109 -46 -226
l-7 -73 49 31 c73 46 165 71 261 71 151 1 274 -52 378 -162 l64 -69 10 38 c52
193 54 259 11 324 -71 106 -253 179 -443 177 -45 0 -104 -7 -130 -14z"/>
<path d="M1723 1509 c-71 -9 -139 -44 -196 -101 -47 -47 -107 -155 -107 -192
0 -48 120 -311 197 -429 121 -189 237 -253 323 -181 91 77 160 347 160 627 l0
113 -52 50 c-102 98 -195 131 -325 113z"/>
<path d="M3229 1136 c-67 -26 -103 -48 -156 -99 l-53 -50 0 -113 c0 -192 35
-402 89 -526 28 -65 85 -126 126 -134 96 -18 231 120 348 352 58 115 117 261
117 289 0 36 -59 142 -106 190 -66 69 -139 99 -244 102 -54 2 -98 -3 -121 -11z"/>
</g>
</svg>
