<?xml version="1.0" standalone="no"?>
<!DOCTYPE svg PUBLIC "-//W3C//DTD SVG 20010904//EN"
 "http://www.w3.org/TR/2001/REC-SVG-20010904/DTD/svg10.dtd">
<svg version="1.0" xmlns="http://www.w3.org/2000/svg"
 width="512.000000pt" height="512.000000pt" viewBox="0 0 512.000000 512.000000"
 preserveAspectRatio="xMidYMid meet">
<metadata>
Created by potrace 1.15, written by Peter Selinger 2001-2017
</metadata>
<g transform="translate(0.000000,512.000000) scale(0.100000,-0.100000)"
fill="#ffffff" stroke="none">
<path d="M2341 4899 c-147 -11 -306 -35 -460 -70 -130 -30 -338 -93 -403 -123
-18 -8 -85 -35 -148 -61 -561 -226 -892 -607 -1045 -1201 -89 -345 -116 -832
-75 -1344 15 -189 8 -174 98 -208 259 -100 546 -92 862 25 52 20 96 37 98 38
2 2 -6 38 -17 81 -42 165 -54 265 -54 429 0 312 77 558 216 694 l45 43 7 -103
c9 -129 -10 -784 -30 -1059 -39 -535 -111 -986 -220 -1383 -20 -75 -30 -126
-24 -133 18 -22 258 -134 370 -172 687 -236 1619 -187 2292 120 37 17 67 34
67 38 0 5 -16 65 -35 136 -139 505 -199 1125 -230 2349 l-6 230 59 -60 c209
-218 279 -681 168 -1112 l-24 -92 87 -31 c289 -106 545 -118 847 -42 l109 27
7 47 c33 237 36 899 4 1137 -89 668 -343 1110 -801 1391 -97 60 -312 162 -420
199 -49 18 -104 38 -120 46 -51 24 -185 65 -309 95 -279 69 -601 93 -915 69z
m634 -213 c55 -9 133 -23 173 -32 73 -16 73 -16 55 -36 -24 -27 -119 -99 -168
-127 -68 -39 -181 -80 -277 -99 -71 -15 -93 -23 -98 -38 -4 -10 -26 -72 -50
-137 l-43 -119 -56 138 -57 137 -93 19 c-172 35 -306 100 -407 198 l-46 45 33
7 c76 17 269 48 349 57 127 14 565 6 685 -13z m-1198 -196 c121 -130 278 -222
462 -270 41 -11 75 -21 76 -22 1 -2 10 -23 19 -48 104 -269 240 -589 246 -580
4 7 36 90 71 186 34 96 66 174 71 174 4 0 23 -31 43 -69 19 -38 38 -72 43 -75
9 -5 152 253 152 274 0 7 -18 45 -40 85 l-40 73 67 23 c156 51 291 135 404
251 l76 78 129 -44 c290 -99 473 -200 659 -362 116 -101 114 -95 53 -211 l-51
-98 74 -137 c41 -76 76 -138 79 -138 3 0 25 37 49 83 25 45 53 95 62 112 l18
29 37 -79 c85 -187 148 -428 179 -695 18 -159 30 -567 18 -660 l-8 -65 -40 77
c-22 43 -42 78 -45 78 -8 0 -150 -264 -150 -279 0 -7 16 -41 35 -76 l36 -63
-69 -7 c-76 -7 -233 7 -335 32 l-69 17 7 45 c21 142 24 191 25 341 0 263 -42
457 -141 650 -111 217 -263 335 -496 385 l-33 7 0 -50 c0 -260 33 -1267 50
-1507 7 -98 6 -131 -3 -137 -21 -13 -218 -56 -327 -72 -97 -14 -276 -31 -412
-39 l-57 -4 29 57 28 56 -76 138 c-88 161 -70 163 -168 -21 l-65 -122 32 -56
31 -55 -34 0 c-93 0 -379 23 -503 40 -120 17 -334 62 -354 74 -3 2 -1 73 6
158 10 135 30 567 36 793 l2 80 35 -67 c19 -38 37 -68 40 -68 7 0 150 265 150
279 0 6 -33 72 -74 147 l-74 136 -25 -44 c-14 -23 -31 -56 -39 -72 -14 -27
-15 -17 -20 133 -3 89 -7 163 -9 165 -11 11 -183 -29 -237 -55 -203 -97 -346
-348 -398 -699 -20 -136 -14 -418 11 -540 8 -41 11 -77 7 -81 -4 -3 -45 -17
-92 -30 -113 -31 -358 -34 -459 -6 -36 10 -66 19 -68 20 -9 10 -23 311 -23
517 0 461 51 785 169 1070 152 369 419 634 801 796 54 23 325 122 339 123 2 1
37 -35 78 -79z m1768 -3067 c-3 -7 -207 -56 -305 -72 -524 -89 -1228 -67
-1609 51 l-63 19 6 42 c3 23 9 66 12 95 6 48 9 53 28 49 270 -67 457 -88 828
-94 425 -8 751 19 993 80 l90 23 10 -96 c6 -52 10 -96 10 -97z m-1868 -239
c88 -21 341 -64 381 -64 8 0 0 -23 -23 -64 l-36 -65 76 -140 c42 -78 78 -141
80 -141 2 0 37 63 79 141 l76 141 -30 53 c-16 29 -30 54 -30 56 0 2 143 4 318
4 405 1 660 26 902 89 52 13 96 23 98 21 2 -2 16 -80 32 -173 16 -93 42 -227
59 -298 17 -70 29 -129 28 -130 -10 -9 -235 -81 -327 -104 -273 -68 -443 -90
-751 -97 -306 -7 -506 10 -756 63 l-32 6 39 73 c22 39 40 76 40 82 0 6 -33 72
-74 148 l-74 136 -20 -33 c-10 -18 -46 -82 -77 -142 l-59 -110 28 -49 c15 -27
26 -51 24 -53 -5 -4 -218 82 -228 92 -4 5 7 69 25 142 18 74 45 200 60 280 34
182 31 176 53 167 9 -3 63 -18 119 -31z"/>
<path d="M3246 4148 c-7 -13 -41 -74 -75 -137 l-61 -114 74 -136 c41 -75 77
-136 81 -136 4 0 40 61 81 136 l74 136 -72 136 c-40 75 -76 137 -80 137 -4 0
-14 -10 -22 -22z"/>
<path d="M1168 3979 c-14 -24 -48 -87 -76 -139 l-51 -95 73 -135 c40 -74 77
-134 82 -134 5 1 41 61 81 135 l72 133 -62 116 c-34 64 -69 127 -78 140 l-15
23 -26 -44z"/>
<path d="M3167 3443 c-3 -5 -37 -67 -76 -140 l-72 -132 76 -141 c42 -77 78
-140 80 -140 1 0 37 63 79 141 l75 140 -75 140 c-42 76 -78 139 -79 139 -2 0
-6 -3 -8 -7z"/>
<path d="M705 3307 c-38 -72 -71 -136 -73 -143 -3 -13 138 -284 148 -284 9 0
151 272 148 283 -5 19 -139 266 -146 271 -4 2 -38 -55 -77 -127z"/>
<path d="M2505 3257 c-38 -72 -70 -136 -70 -142 0 -13 134 -263 145 -270 8 -5
20 16 118 195 l41 75 -73 135 c-40 74 -77 135 -82 137 -5 1 -40 -57 -79 -130z"/>
<path d="M4246 3079 l-75 -140 75 -140 c42 -78 80 -137 84 -132 4 4 40 67 79
140 l72 132 -77 141 c-42 77 -77 140 -79 140 -1 0 -37 -63 -79 -141z"/>
<path d="M2788 2590 l-76 -141 75 -140 c42 -77 79 -136 84 -132 4 4 40 68 79
140 l71 133 -71 132 c-40 73 -75 136 -79 141 -4 4 -42 -56 -83 -133z"/>
<path d="M2148 2628 c-14 -24 -48 -86 -76 -139 l-52 -95 69 -128 c38 -70 73
-132 78 -137 12 -12 22 2 101 151 l61 115 -70 130 c-39 72 -74 134 -78 138 -5
5 -20 -11 -33 -35z"/>
<path d="M3245 2288 c-38 -72 -71 -136 -73 -142 -1 -6 25 -63 59 -126 100
-187 80 -184 165 -25 41 75 74 141 74 147 0 12 -143 278 -150 278 -3 0 -36
-59 -75 -132z"/>
</g>
</svg>
