<?xml version="1.0" standalone="no"?>
<!DOCTYPE svg PUBLIC "-//W3C//DTD SVG 20010904//EN"
 "http://www.w3.org/TR/2001/REC-SVG-20010904/DTD/svg10.dtd">
<svg version="1.0" xmlns="http://www.w3.org/2000/svg"
 width="512.000000pt" height="512.000000pt" viewBox="0 0 512.000000 512.000000"
 preserveAspectRatio="xMidYMid meet">
<metadata>
Created by potrace 1.15, written by Peter Selinger 2001-2017
</metadata>
<g transform="translate(0.000000,512.000000) scale(0.100000,-0.100000)"
fill="#ffffff" stroke="none">
<path d="M1901 3913 l-514 -1028 46 -65 c143 -206 245 -531 307 -982 l12 -87
46 -6 c360 -48 680 -129 857 -217 33 -17 98 -55 145 -86 l85 -55 1027 514
c566 283 1024 515 1019 517 -6 2 -364 -67 -798 -153 l-788 -156 -374 -125
c-206 -68 -379 -124 -385 -124 -7 0 -35 119 -71 299 l-59 298 -295 58 c-163
32 -299 59 -303 61 -3 2 52 179 123 392 l129 387 155 780 c86 429 154 785 153
793 -2 7 -234 -450 -517 -1015z m235 -1783 l220 -219 -58 -58 -58 -58 -222
223 -223 222 55 55 c30 30 57 55 60 55 4 0 105 -99 226 -220z"/>
<path d="M3697 3983 l-1218 -945 -91 -185 c-68 -136 -89 -186 -79 -192 7 -5
70 -18 141 -31 71 -13 134 -26 140 -30 6 -4 24 -71 39 -149 15 -77 31 -144 35
-148 4 -4 89 34 190 84 l184 92 64 83 c35 46 461 595 946 1221 485 626 882
1140 882 1142 0 3 -3 5 -7 5 -5 -1 -556 -426 -1226 -947z"/>
<path d="M1295 1855 c-126 -126 -316 -318 -422 -426 l-194 -195 -89 -299 c-49
-165 -87 -302 -84 -304 5 -6 1061 1045 1073 1069 8 15 -30 310 -47 358 -9 26
-15 21 -237 -203z"/>
<path d="M1162 1046 c-295 -294 -534 -537 -531 -540 3 -3 139 34 303 83 l297
89 267 263 c374 369 582 576 582 582 0 3 -11 8 -24 11 -41 10 -296 46 -328 46
-27 0 -92 -62 -566 -534z"/>
<path d="M287 852 l-117 -117 0 -283 0 -282 283 0 282 0 120 120 c65 65 116
122 113 125 -5 5 -356 -95 -730 -208 l-46 -14 9 26 c16 49 219 739 219 745 0
17 -26 -4 -133 -112z"/>
</g>
</svg>
