<?xml version="1.0" standalone="no"?>
<!DOCTYPE svg PUBLIC "-//W3C//DTD SVG 20010904//EN"
 "http://www.w3.org/TR/2001/REC-SVG-20010904/DTD/svg10.dtd">
<svg version="1.0" xmlns="http://www.w3.org/2000/svg"
 width="512.000000pt" height="512.000000pt" viewBox="0 0 512.000000 512.000000"
 preserveAspectRatio="xMidYMid meet">
<metadata>
Created by potrace 1.15, written by Peter Selinger 2001-2017
</metadata>
<g transform="translate(0.000000,512.000000) scale(0.100000,-0.100000)"
fill="#ffffff" stroke="none">
<path d="M3595 4943 c-75 -17 -100 -28 -152 -68 -113 -84 -171 -191 -271 -496
-105 -321 -362 -1189 -362 -1224 0 -13 34 -15 248 -15 l249 0 25 58 c14 31 85
183 158 337 193 411 346 775 386 922 69 256 -22 466 -211 485 -27 3 -59 4 -70
1z"/>
<path d="M1263 2960 c-88 -18 -164 -75 -205 -154 -30 -57 -30 -165 -1 -221 27
-51 75 -97 133 -125 35 -18 69 -24 162 -29 l118 -6 -52 -85 c-136 -226 -233
-507 -295 -860 -28 -159 -25 -494 5 -605 72 -267 230 -434 525 -556 71 -29 93
-35 95 -24 2 8 -6 76 -17 152 -11 76 -25 199 -31 273 -7 75 -24 189 -40 255
-62 257 -80 470 -80 938 l0 337 411 0 c386 0 410 -1 405 -17 -16 -57 -80 -362
-101 -487 -78 -458 -85 -702 -35 -1116 20 -162 55 -386 67 -424 5 -18 16 -19
237 -13 259 7 386 21 563 66 238 60 392 139 523 271 89 89 156 208 192 340 21
77 23 106 23 295 -1 174 -5 232 -24 340 -61 347 -159 625 -300 855 l-39 65
106 6 c133 7 181 22 238 72 64 56 88 107 88 187 0 114 -55 198 -164 249 l-55
26 -697 3 -697 3 -17 -57 c-33 -114 -16 -291 40 -418 l25 -56 -369 0 -368 0
-44 48 c-124 139 -142 291 -47 421 16 23 29 45 29 51 0 12 -245 12 -307 0z"/>
<path d="M1975 1739 c-83 -445 -119 -779 -104 -954 12 -140 36 -333 57 -455
l17 -95 65 -12 c90 -17 130 -16 130 1 0 8 -9 68 -20 133 -46 280 -70 546 -71
810 0 114 -7 233 -15 286 -8 51 -17 151 -20 222 -4 72 -10 136 -14 144 -4 7
-15 -27 -25 -80z"/>
</g>
</svg>
