<?xml version="1.0" standalone="no"?>
<!DOCTYPE svg PUBLIC "-//W3C//DTD SVG 20010904//EN"
 "http://www.w3.org/TR/2001/REC-SVG-20010904/DTD/svg10.dtd">
<svg version="1.0" xmlns="http://www.w3.org/2000/svg"
 width="512.000000pt" height="512.000000pt" viewBox="0 0 512.000000 512.000000"
 preserveAspectRatio="xMidYMid meet">
<metadata>
Created by potrace 1.15, written by Peter Selinger 2001-2017
</metadata>
<g transform="translate(0.000000,512.000000) scale(0.100000,-0.100000)"
fill="#ffffff" stroke="none">
<path d="M283 4585 c4 -11 65 -254 136 -540 113 -452 136 -534 180 -630 77
-170 516 -1152 587 -1315 l64 -145 -201 208 c-111 114 -203 206 -206 203 -3
-3 121 -505 198 -800 l11 -39 45 52 c91 104 210 176 352 212 86 22 166 24 269
5 39 -7 72 -10 72 -7 0 4 -142 273 -231 436 -14 28 -133 250 -264 495 -131
245 -250 468 -265 495 -15 28 -64 120 -110 205 -45 85 -102 191 -125 235 -24
44 -145 271 -270 505 -213 400 -256 474 -242 425z"/>
<path d="M1115 4565 c11 -9 103 -59 205 -112 261 -135 402 -209 495 -258 44
-24 224 -118 400 -210 176 -92 372 -194 435 -228 214 -112 315 -164 445 -232
72 -37 157 -82 190 -100 129 -69 226 -117 230 -113 2 2 -2 22 -10 44 -8 23
-19 71 -26 108 l-11 67 -75 47 c-41 26 -94 59 -117 73 -35 23 -785 493 -841
528 -18 11 -17 12 10 7 17 -2 288 -48 604 -102 l573 -97 51 51 c28 28 49 53
47 55 -5 4 -135 28 -890 167 -146 27 -582 108 -970 180 -388 71 -718 132 -735
135 -29 6 -29 5 -10 -10z"/>
<path d="M861 4302 c2 -6 119 -142 259 -304 140 -161 443 -511 674 -778 231
-267 459 -530 507 -585 48 -55 138 -158 199 -230 62 -71 120 -138 129 -149 9
-10 -134 101 -318 248 -183 146 -338 266 -342 266 -9 0 20 -41 286 -405 139
-190 793 -1086 853 -1169 34 -47 36 -48 43 -25 53 191 107 300 208 420 l30 35
-212 265 c-117 145 -288 358 -381 473 -166 206 -171 218 -56 131 30 -23 250
-184 488 -359 l432 -317 88 29 c48 17 107 33 131 37 l44 7 -39 33 c-39 32
-595 472 -1454 1150 -679 536 -1052 830 -1310 1035 -250 198 -265 209 -259
192z"/>
<path d="M4003 4035 c-297 -80 -439 -413 -298 -695 61 -121 185 -219 315 -249
58 -13 162 -13 220 0 178 40 331 193 370 370 17 74 8 198 -18 271 -52 146
-180 264 -327 303 -73 19 -192 18 -262 0z"/>
<path d="M3915 1710 c-371 -67 -624 -389 -597 -760 24 -346 281 -615 631 -661
335 -45 652 156 768 486 26 74 28 92 28 225 -1 132 -3 152 -28 225 -78 225
-256 399 -471 463 -91 26 -248 37 -331 22z"/>
<path d="M1471 1615 c-186 -52 -325 -207 -354 -396 -37 -240 114 -477 347
-544 45 -13 84 -16 160 -13 90 4 110 9 179 41 104 48 184 128 235 234 37 77
37 79 37 203 0 107 -4 133 -24 183 -50 126 -174 245 -294 283 -73 23 -218 28
-286 9z"/>
</g>
</svg>
