<?xml version="1.0" standalone="no"?>
<!DOCTYPE svg PUBLIC "-//W3C//DTD SVG 20010904//EN"
 "http://www.w3.org/TR/2001/REC-SVG-20010904/DTD/svg10.dtd">
<svg version="1.0" xmlns="http://www.w3.org/2000/svg"
 width="512.000000pt" height="512.000000pt" viewBox="0 0 512.000000 512.000000"
 preserveAspectRatio="xMidYMid meet">
<metadata>
Created by potrace 1.15, written by Peter Selinger 2001-2017
</metadata>
<g transform="translate(0.000000,512.000000) scale(0.100000,-0.100000)"
fill="#ffffff" stroke="none">
<path d="M3363 4819 l-393 -130 0 -1115 c0 -613 2 -1114 6 -1114 3 0 36 7 75
16 l69 16 0 838 0 839 48 14 c195 59 578 181 585 186 4 4 6 136 5 294 l-3 287
-392 -131z"/>
<path d="M3800 3732 l-505 -128 -3 -622 c-1 -342 -5 -622 -7 -622 -6 0 -437
-107 -467 -116 -17 -5 -18 29 -18 616 0 587 -1 621 -17 616 -10 -3 -173 -44
-363 -91 -189 -48 -346 -88 -348 -89 -1 -2 24 -30 56 -62 166 -166 276 -487
326 -954 17 -156 35 -499 36 -672 0 -60 3 -108 8 -108 4 0 541 133 1195 296
l1187 297 0 101 c-1 178 -19 559 -35 708 -53 502 -184 831 -369 925 -97 49
-114 47 -676 -95z"/>
<path d="M1644 3203 c-137 -40 -246 -183 -322 -423 -31 -100 -59 -236 -50
-246 3 -3 211 36 461 85 251 50 458 91 461 91 13 0 5 42 -20 112 -70 197 -177
337 -287 377 -69 25 -167 27 -243 4z"/>
<path d="M1572 2416 c-227 -46 -415 -86 -419 -89 -3 -4 0 -9 8 -12 8 -2 107
-37 221 -76 l208 -71 72 54 c40 30 136 101 213 158 77 56 144 107 150 111 18
17 -44 7 -453 -75z"/>
<path d="M2139 2367 c-63 -46 -206 -151 -318 -234 l-203 -152 -364 124 -364
124 0 -350 c0 -329 1 -350 18 -345 9 3 44 10 77 15 59 9 225 38 955 164 l365
63 3 65 c6 115 -33 588 -51 605 -2 2 -55 -33 -118 -79z"/>
<path d="M2107 1570 c-87 -15 -161 -30 -164 -33 -5 -6 8 -8 202 -32 184 -23
175 -25 175 40 0 67 13 65 -213 25z"/>
<path d="M3440 1561 l-145 -37 -3 -677 -2 -677 155 0 155 0 0 715 c0 393 -3
715 -7 714 -5 0 -73 -18 -153 -38z"/>
<path d="M1025 1385 c-137 -24 -262 -46 -277 -49 -26 -5 -28 -3 -28 24 0 38
-9 38 -107 -1 -99 -39 -194 -90 -259 -139 -53 -40 -114 -121 -114 -150 0 -72
206 -113 565 -114 301 -1 505 35 789 140 129 47 513 230 504 240 -9 8 -719 94
-773 93 -27 0 -162 -20 -300 -44z"/>
</g>
</svg>
