<?xml version="1.0" standalone="no"?>
<!DOCTYPE svg PUBLIC "-//W3C//DTD SVG 20010904//EN"
 "http://www.w3.org/TR/2001/REC-SVG-20010904/DTD/svg10.dtd">
<svg version="1.0" xmlns="http://www.w3.org/2000/svg"
 width="512.000000pt" height="512.000000pt" viewBox="0 0 512.000000 512.000000"
 preserveAspectRatio="xMidYMid meet">
<metadata>
Created by potrace 1.15, written by Peter Selinger 2001-2017
</metadata>
<g transform="translate(0.000000,512.000000) scale(0.100000,-0.100000)"
fill="#ffffff" stroke="none">
<path d="M3286 4892 c5 -5 61 -52 124 -105 146 -122 197 -166 189 -167 -4 0
-26 7 -50 16 -78 27 -277 73 -395 90 -232 33 -530 7 -754 -66 -249 -81 -504
-256 -649 -443 l-41 -54 -153 5 c-446 13 -851 -105 -1229 -359 -83 -55 -140
-100 -135 -106 2 -2 39 12 81 31 64 29 92 36 174 42 121 8 259 -8 365 -43 414
-137 567 -618 445 -1396 -12 -75 -25 -134 -28 -130 -4 5 -18 42 -33 83 -95
276 -159 456 -166 463 -4 4 -11 -66 -14 -156 -18 -454 -127 -944 -303 -1367
-42 -100 -54 -156 -60 -270 -20 -353 169 -667 490 -816 114 -52 201 -69 356
-69 158 1 240 20 373 86 200 100 341 265 419 489 32 93 33 99 32 260 0 159 -1
169 -32 260 -40 122 -102 226 -187 318 l-67 73 11 107 c6 59 11 179 11 267 0
636 -224 1227 -599 1576 -92 87 -257 197 -354 237 -151 63 -341 98 -482 88
-78 -6 -79 -6 -42 9 68 26 233 56 344 63 392 25 691 -86 964 -358 282 -280
494 -677 679 -1273 l49 -159 -38 -76 c-47 -95 -95 -242 -111 -344 -16 -96 -7
-369 13 -450 86 -336 278 -592 572 -761 312 -180 699 -203 1035 -62 258 108
477 313 607 570 130 255 150 608 52 900 -121 358 -420 644 -784 750 -50 14
-115 28 -147 32 -31 3 -60 8 -65 12 -5 3 -35 49 -67 101 -364 592 -875 1031
-1451 1245 -86 32 -219 69 -369 102 l-39 8 69 47 c113 75 210 115 338 137 314
56 691 -106 1117 -479 l74 -65 2 -105 c4 -225 97 -428 267 -588 268 -250 685
-294 998 -105 196 118 330 297 389 520 30 110 30 297 0 408 -61 228 -199 408
-408 531 -240 142 -693 322 -979 389 -193 46 -434 79 -408 57z m1008 -554
c-27 -32 -436 -481 -506 -556 l-59 -63 23 -18 c26 -20 146 -104 315 -219 62
-42 113 -80 113 -83 0 -7 -297 -199 -309 -199 -16 0 -126 120 -156 172 -86
145 -116 331 -81 483 38 159 159 326 297 408 93 55 225 92 343 96 l39 1 -19
-22z m314 -81 c84 -50 183 -161 231 -258 34 -71 78 -209 66 -209 -2 0 -75 46
-162 103 -87 56 -204 132 -260 167 -56 36 -101 68 -100 72 1 4 34 43 72 87 46
53 75 79 85 75 8 -3 39 -19 68 -37z m-178 -396 c102 -66 247 -159 323 -208
160 -102 156 -90 88 -229 -98 -199 -291 -331 -520 -354 -82 -9 -195 0 -227 18
-9 5 69 60 216 152 126 80 229 147 229 150 0 3 -110 82 -245 175 -135 94 -249
175 -254 180 -5 6 32 55 93 122 56 62 104 113 107 113 3 0 88 -54 190 -119z
m-580 -1391 c180 -39 335 -125 473 -261 65 -64 87 -93 83 -106 -3 -10 -35
-137 -71 -282 -36 -145 -67 -266 -69 -268 -6 -6 -658 -114 -662 -110 -2 2 47
129 108 282 l111 278 -25 21 c-14 12 -128 104 -254 205 -126 101 -233 188
-239 193 -15 13 10 25 90 44 159 37 298 38 455 4z m-515 -325 c127 -102 234
-191 239 -198 5 -8 -31 -112 -103 -294 l-112 -281 -122 -95 c-67 -52 -187
-147 -267 -210 l-144 -115 -35 57 c-93 152 -135 307 -135 501 0 183 25 291
105 451 43 86 89 151 163 228 57 60 156 141 171 141 6 0 114 -83 240 -185z
m1271 -490 c40 -252 -25 -506 -183 -727 -93 -129 -77 -143 -172 141 -46 137
-81 253 -78 258 4 6 62 18 131 28 l125 19 56 231 c31 126 59 237 62 245 9 25
43 -86 59 -195z m-3004 -109 c86 -17 162 -45 235 -89 49 -29 66 -47 44 -47 -8
0 -197 -84 -411 -182 -36 -16 -68 -30 -71 -31 -7 -2 -238 254 -239 264 0 14
147 72 213 84 96 18 141 18 229 1z m-431 -401 c90 -102 169 -185 175 -185 6 0
82 32 169 70 86 39 159 70 160 68 3 -3 73 -292 71 -294 -5 -6 -739 -294 -749
-294 -12 0 -63 70 -91 126 -53 108 -72 301 -41 432 17 70 71 183 110 230 15
18 28 32 30 32 1 0 76 -83 166 -185z m2893 -142 c54 -164 101 -303 103 -309 5
-14 -163 -97 -248 -123 -229 -68 -493 -48 -704 54 -89 44 -250 156 -250 175 0
8 441 366 502 407 16 10 387 80 488 92 6 0 55 -133 109 -296z m-2001 210 c48
-91 71 -188 71 -303 0 -123 -16 -187 -77 -304 -49 -95 -144 -194 -237 -249
-157 -91 -356 -116 -515 -63 -44 15 -95 34 -113 44 l-32 18 407 163 c225 90
409 165 410 165 1 1 -26 113 -59 251 -33 137 -56 251 -51 252 5 2 41 19 79 37
38 19 74 35 80 35 6 1 22 -20 37 -46z"/>
</g>
</svg>
