<?xml version="1.0" standalone="no"?>
<!DOCTYPE svg PUBLIC "-//W3C//DTD SVG 20010904//EN"
 "http://www.w3.org/TR/2001/REC-SVG-20010904/DTD/svg10.dtd">
<svg version="1.0" xmlns="http://www.w3.org/2000/svg"
 width="512.000000pt" height="512.000000pt" viewBox="0 0 512.000000 512.000000"
 preserveAspectRatio="xMidYMid meet">
<metadata>
Created by potrace 1.15, written by Peter Selinger 2001-2017
</metadata>
<g transform="translate(0.000000,512.000000) scale(0.100000,-0.100000)"
fill="#ffffff" stroke="none">
<path d="M2445 4926 c-117 -37 -208 -108 -283 -220 -142 -213 -173 -517 -78
-768 33 -90 68 -147 145 -242 69 -85 69 -89 -3 -100 -152 -24 -252 -70 -335
-155 -206 -213 -313 -595 -351 -1255 -5 -98 -10 -227 -10 -287 l0 -109 219 0
219 0 6 -67 c4 -38 29 -372 56 -743 27 -371 52 -701 56 -732 l6 -58 483 0 484
0 5 53 c3 28 26 374 51 767 25 393 48 730 51 748 l5 32 209 0 209 0 -5 238
c-14 660 -67 987 -202 1246 -102 193 -234 290 -444 323 -60 9 -108 20 -108 24
0 3 23 35 50 69 150 188 209 369 197 603 -14 255 -122 466 -297 579 -94 60
-240 84 -335 54z"/>
<path d="M4190 4923 c-315 -52 -584 -368 -640 -752 -12 -81 -9 -301 6 -362 5
-24 3 -26 -53 -38 -74 -17 -142 -44 -194 -77 l-42 -26 34 -26 c19 -15 53 -44
76 -65 l42 -39 78 28 c75 25 84 26 216 20 75 -3 137 -2 137 3 0 4 -18 48 -40
96 -53 114 -71 193 -71 323 -1 263 96 482 273 618 98 76 158 98 263 99 82 0
96 -3 157 -33 156 -77 252 -262 251 -487 0 -162 -36 -284 -124 -432 -57 -95
-114 -157 -211 -230 -49 -36 -87 -68 -84 -70 2 -3 48 -24 102 -49 53 -24 115
-56 136 -71 59 -40 130 -122 161 -186 54 -110 62 -163 61 -387 0 -179 -4 -222
-28 -345 -44 -230 -127 -555 -141 -555 -7 0 -91 21 -185 46 -95 25 -173 44
-175 42 -1 -2 -117 -347 -257 -768 l-255 -765 -212 -3 c-157 -2 -213 -6 -216
-15 -2 -6 -5 -49 -8 -94 l-4 -83 291 0 291 0 248 745 c143 427 254 745 260
745 7 -1 91 -23 187 -49 96 -27 178 -46 182 -42 10 10 134 494 167 651 46 226
64 402 58 565 -10 278 -78 449 -238 599 l-70 66 40 48 c56 66 125 190 161 290
46 128 63 244 57 392 -6 147 -22 212 -82 337 -114 236 -366 376 -605 336z"/>
<path d="M668 4910 c-91 -17 -207 -89 -286 -175 -59 -64 -133 -206 -159 -305
-14 -50 -18 -104 -18 -230 0 -143 4 -175 23 -240 54 -177 129 -321 219 -420
l32 -36 -45 -39 c-58 -48 -124 -137 -163 -220 -138 -292 -117 -764 65 -1440
25 -93 46 -171 48 -172 1 -1 89 22 196 51 107 29 198 51 201 47 4 -3 120 -336
258 -740 137 -403 253 -736 256 -740 4 -3 143 -8 310 -9 l303 -4 -5 69 c-2 37
-6 83 -9 101 l-5 32 -227 0 -227 0 -260 761 c-143 419 -265 764 -272 766 -6 2
-94 -18 -196 -44 l-185 -49 -36 145 c-42 175 -80 378 -96 519 -16 138 -8 417
14 497 52 188 142 296 319 382 59 29 107 55 107 57 0 2 -35 29 -78 59 -159
111 -270 268 -327 462 -34 112 -38 272 -12 375 49 186 158 313 298 346 205 49
430 -87 549 -332 61 -124 82 -216 83 -364 0 -145 -8 -188 -65 -327 -23 -57
-40 -105 -37 -107 2 -2 31 0 64 5 160 20 283 8 379 -39 l40 -20 70 61 c39 34
71 65 71 71 0 29 -223 126 -290 126 -48 0 -53 7 -43 63 6 29 8 120 5 202 -5
178 -29 272 -107 430 -107 215 -285 369 -485 420 -61 15 -210 18 -277 5z"/>
</g>
</svg>
