<?xml version="1.0" standalone="no"?>
<!DOCTYPE svg PUBLIC "-//W3C//DTD SVG 20010904//EN"
 "http://www.w3.org/TR/2001/REC-SVG-20010904/DTD/svg10.dtd">
<svg version="1.0" xmlns="http://www.w3.org/2000/svg"
 width="512.000000pt" height="512.000000pt" viewBox="0 0 512.000000 512.000000"
 preserveAspectRatio="xMidYMid meet">
<metadata>
Created by potrace 1.15, written by Peter Selinger 2001-2017
</metadata>
<g transform="translate(0.000000,512.000000) scale(0.100000,-0.100000)"
fill="#ffffff" stroke="none">
<path d="M2340 4904 c-262 -37 -507 -127 -752 -275 l-96 -59 -266 0 -266 0 0
-2030 0 -2030 267 0 266 0 117 -70 c213 -129 448 -218 676 -257 161 -27 448
-25 606 5 225 42 495 149 685 271 l80 51 271 0 272 0 0 2030 0 2030 -271 0
-271 0 -96 59 c-229 139 -440 220 -693 267 -122 22 -400 27 -529 8z m1580
-2369 l0 -1735 -1340 0 -1340 0 0 1735 0 1735 1340 0 1340 0 0 -1735z"/>
<path d="M1410 3545 c0 -300 3 -545 8 -545 6 0 1213 1029 1262 1076 12 12 -76
14 -628 14 l-642 0 0 -545z"/>
<path d="M2414 3234 l-999 -857 -3 -288 c-1 -159 0 -289 4 -289 3 0 526 446
1162 991 l1157 992 3 153 3 154 -164 0 -164 0 -999 -856z"/>
<path d="M2750 1854 c-536 -459 -984 -844 -995 -854 -19 -20 -18 -20 220 -20
l240 0 762 643 763 642 0 213 c0 116 -3 212 -7 212 -5 0 -447 -376 -983 -836z"/>
<path d="M3119 1514 c-338 -284 -615 -521 -617 -525 -2 -5 271 -9 617 -9 l621
0 0 525 c0 289 -2 525 -4 525 -2 0 -280 -232 -617 -516z"/>
</g>
</svg>
