<?xml version="1.0" standalone="no"?>
<!DOCTYPE svg PUBLIC "-//W3C//DTD SVG 20010904//EN"
 "http://www.w3.org/TR/2001/REC-SVG-20010904/DTD/svg10.dtd">
<svg version="1.0" xmlns="http://www.w3.org/2000/svg"
 width="512.000000pt" height="512.000000pt" viewBox="0 0 512.000000 512.000000"
 preserveAspectRatio="xMidYMid meet">
<metadata>
Created by potrace 1.15, written by Peter Selinger 2001-2017
</metadata>
<g transform="translate(0.000000,512.000000) scale(0.100000,-0.100000)"
fill="#ffffff" stroke="none">
<path d="M3644 4903 l-352 -3 -52 -93 c-96 -166 -256 -390 -413 -575 -43 -51
-77 -95 -75 -97 1 -1 71 -20 153 -40 83 -21 151 -39 153 -40 2 -2 -30 -48 -71
-103 -222 -298 -339 -589 -388 -967 -15 -116 -15 -439 0 -575 16 -141 56 -378
84 -499 l23 -98 -85 -21 c-47 -11 -87 -20 -87 -19 -7 8 -59 266 -78 390 -51
321 -59 671 -22 912 45 287 139 554 277 783 36 59 48 87 39 92 -6 4 -37 13
-68 19 -155 34 -686 170 -917 236 -624 178 -1077 358 -1419 565 -133 80 -140
80 -132 -6 5 -60 36 -126 100 -211 37 -48 71 -77 168 -140 441 -287 1041 -525
1618 -643 85 -17 156 -33 157 -34 2 -1 -3 -39 -9 -84 -14 -96 -3 -92 -165 -61
-472 90 -999 280 -1439 519 -88 48 -272 161 -320 197 -46 34 -53 30 -43 -24
27 -144 170 -341 354 -491 162 -132 573 -303 965 -401 149 -38 401 -81 473
-81 49 0 53 -7 47 -95 l-5 -80 -79 3 c-218 8 -600 99 -935 224 -207 76 -526
234 -676 335 -74 49 -77 46 -44 -43 41 -110 153 -251 302 -381 103 -90 106
-92 309 -176 344 -143 706 -241 1012 -273 l69 -7 -6 -85 c-4 -46 -8 -86 -9
-87 -5 -4 -158 14 -263 31 -314 50 -687 170 -1069 345 -83 38 -151 67 -154 65
-7 -8 21 -93 54 -158 112 -222 433 -412 899 -531 157 -41 347 -79 478 -97 48
-7 87 -15 87 -19 0 -3 5 -46 10 -96 11 -98 30 -164 66 -237 l24 -47 -69 -41
c-38 -22 -74 -40 -79 -40 -15 0 -71 131 -95 226 -20 80 -25 89 -47 92 -200 27
-598 130 -772 200 l-98 39 -43 -51 c-80 -95 -147 -184 -147 -194 0 -14 208
-300 305 -417 45 -55 113 -133 151 -173 l69 -74 178 62 c98 34 182 58 186 54
4 -5 18 -45 31 -89 139 -480 514 -868 1068 -1104 405 -172 895 -215 1312 -115
88 21 249 74 255 84 2 4 -24 24 -58 44 -450 263 -871 823 -1150 1531 -59 150
-147 422 -147 456 0 39 159 247 331 436 367 401 957 805 1467 1004 l111 44 1
518 0 517 -477 -2 c-263 -2 -636 -4 -829 -5z"/>
</g>
</svg>
