<?xml version="1.0" standalone="no"?>
<!DOCTYPE svg PUBLIC "-//W3C//DTD SVG 20010904//EN"
 "http://www.w3.org/TR/2001/REC-SVG-20010904/DTD/svg10.dtd">
<svg version="1.0" xmlns="http://www.w3.org/2000/svg"
 width="512.000000pt" height="512.000000pt" viewBox="0 0 512.000000 512.000000"
 preserveAspectRatio="xMidYMid meet">
<metadata>
Created by potrace 1.15, written by Peter Selinger 2001-2017
</metadata>
<g transform="translate(0.000000,512.000000) scale(0.100000,-0.100000)"
fill="#ffffff" stroke="none">
<path d="M2138 4783 l-88 -88 -63 63 -62 62 -730 -730 -730 -730 63 -63 62
-62 -105 -105 -105 -105 0 -197 0 -198 100 0 100 0 0 158 0 158 75 74 75 75
170 -170 c94 -93 170 -172 170 -175 0 -3 -45 -52 -100 -109 l-100 -105 0 -193
0 -193 100 0 100 0 0 153 0 152 74 77 73 76 171 -171 172 -172 -100 -100 -100
-100 0 -202 0 -203 95 0 95 0 0 158 0 158 75 74 75 75 180 -180 180 -180 -105
-105 -105 -106 2 -194 3 -195 98 -3 97 -3 0 158 0 159 75 74 75 75 175 -175
175 -175 -105 -105 -105 -105 0 -198 0 -197 100 0 100 0 0 158 0 158 75 74 75
75 170 -170 170 -170 -100 -102 -100 -101 0 -201 0 -201 95 0 95 0 0 153 0
152 77 78 77 78 60 -60 61 -61 730 730 729 729 -24 28 c-14 15 -42 43 -63 63
l-38 35 90 89 c50 49 91 92 91 96 0 9 -126 130 -136 130 -5 0 -48 -39 -96 -87
l-88 -88 -170 170 -170 170 90 90 90 90 -70 70 -70 70 -90 -90 -90 -90 -175
175 -175 175 92 92 92 92 -66 66 c-36 36 -70 65 -74 65 -5 0 -48 -39 -96 -87
l-88 -88 -180 180 -180 180 90 90 90 90 -70 70 -70 70 -90 -90 -90 -90 -173
173 -172 173 95 90 95 89 -74 73 -74 72 -89 -95 -89 -94 -174 174 -175 175 90
90 89 90 -65 68 c-37 37 -69 67 -73 67 -3 0 -45 -39 -93 -87z m839 -1634 c571
-572 1039 -1043 1041 -1047 1 -4 -160 -169 -358 -367 l-360 -360 -1045 1045
-1045 1045 362 362 c200 200 364 363 365 363 1 0 469 -468 1040 -1041z m-865
-866 l1088 -1088 0 -145 0 -145 -1220 1220 c-670 670 -1217 1221 -1215 1223 5
5 145 18 215 21 l45 1 1087 -1087z m2246 -277 c57 -8 105 -16 107 -18 2 -2
-236 -244 -530 -538 l-535 -535 0 140 0 140 412 412 c227 227 420 413 428 413
8 0 61 -7 118 -14z"/>
<path d="M1540 3485 l-65 -65 600 -598 c330 -329 739 -735 908 -902 l308 -304
204 204 c113 113 205 208 205 212 0 3 -29 37 -64 75 l-64 68 -88 -85 c-49 -47
-113 -109 -143 -138 l-55 -53 -316 314 c-173 172 -546 542 -828 823 -282 280
-518 510 -525 512 -7 1 -41 -27 -77 -63z"/>
</g>
</svg>
