<?xml version="1.0" standalone="no"?>
<!DOCTYPE svg PUBLIC "-//W3C//DTD SVG 20010904//EN"
 "http://www.w3.org/TR/2001/REC-SVG-20010904/DTD/svg10.dtd">
<svg version="1.0" xmlns="http://www.w3.org/2000/svg"
 width="512.000000pt" height="512.000000pt" viewBox="0 0 512.000000 512.000000"
 preserveAspectRatio="xMidYMid meet">
<metadata>
Created by potrace 1.15, written by Peter Selinger 2001-2017
</metadata>
<g transform="translate(0.000000,512.000000) scale(0.100000,-0.100000)"
fill="#ffffff" stroke="none">
<path d="M2436 4645 c-86 -22 -168 -70 -229 -134 -269 -281 -119 -740 263
-807 162 -28 321 24 431 142 91 98 129 195 129 330 0 124 -46 247 -124 333
-35 39 -134 101 -194 123 -75 26 -200 32 -276 13z"/>
<path d="M1782 4555 c-137 -103 -283 -288 -356 -451 -81 -182 -111 -336 -103
-534 8 -202 43 -336 133 -512 172 -333 486 -561 870 -634 135 -25 405 -15 534
19 306 82 564 264 725 512 138 211 196 405 196 657 0 304 -113 589 -319 809
-81 86 -200 185 -210 174 -3 -2 13 -24 34 -47 90 -97 165 -240 206 -388 20
-73 23 -108 23 -250 0 -191 -15 -262 -90 -415 -135 -280 -384 -472 -694 -535
-423 -86 -859 132 -1051 525 -80 164 -95 230 -95 430 0 148 3 180 23 250 44
152 124 296 220 398 49 50 27 47 -46 -8z"/>
<path d="M1136 4500 c-613 -456 -962 -1167 -933 -1905 8 -187 25 -313 68 -484
43 -174 79 -273 164 -446 119 -245 265 -445 462 -636 365 -352 802 -565 1308
-640 148 -22 482 -26 625 -9 978 121 1770 807 2004 1736 50 198 60 283 60 534
1 259 -11 362 -64 571 -103 405 -339 810 -636 1088 -82 77 -260 223 -294 241
-28 15 -25 -2 6 -31 15 -13 52 -55 84 -94 230 -281 367 -607 411 -979 17 -143
7 -413 -21 -551 -114 -578 -492 -1072 -1015 -1325 -264 -128 -470 -178 -765
-187 -416 -12 -793 101 -1128 340 -262 187 -464 426 -602 710 -326 677 -219
1460 280 2035 39 46 70 85 68 87 -2 2 -39 -23 -82 -55z"/>
</g>
</svg>
