<?xml version="1.0" standalone="no"?>
<!DOCTYPE svg PUBLIC "-//W3C//DTD SVG 20010904//EN"
 "http://www.w3.org/TR/2001/REC-SVG-20010904/DTD/svg10.dtd">
<svg version="1.0" xmlns="http://www.w3.org/2000/svg"
 width="512.000000pt" height="512.000000pt" viewBox="0 0 512.000000 512.000000"
 preserveAspectRatio="xMidYMid meet">
<metadata>
Created by potrace 1.15, written by Peter Selinger 2001-2017
</metadata>
<g transform="translate(0.000000,512.000000) scale(0.100000,-0.100000)"
fill="#ffffff" stroke="none">
<path d="M1565 4938 c3 -13 50 -333 105 -713 55 -379 103 -703 106 -720 3 -16
2 -25 -3 -19 -4 5 -165 158 -358 339 -192 180 -374 351 -402 379 -29 27 -55
48 -58 45 -4 -5 88 -294 306 -956 49 -150 89 -278 89 -284 0 -7 -22 -8 -67 -4
-38 4 -203 19 -368 35 -165 15 -301 27 -303 25 -1 -1 54 -101 124 -221 69
-121 157 -274 196 -341 l70 -123 364 0 c200 0 364 3 364 8 0 4 -24 87 -53 185
-30 97 -51 177 -49 177 3 0 63 -31 133 -70 71 -38 130 -70 132 -70 3 0 8 108
12 241 4 132 11 237 15 232 9 -9 173 -200 323 -375 55 -65 103 -118 107 -118
3 0 34 159 69 353 34 193 66 364 69 380 6 21 26 -38 91 -267 72 -252 87 -294
100 -286 9 5 135 92 281 194 146 101 266 184 267 182 1 -1 -35 -128 -81 -282
-47 -153 -81 -280 -76 -282 6 -2 349 131 493 193 l38 16 -39 -53 c-21 -29 -89
-122 -150 -206 l-112 -152 413 0 412 0 184 315 c101 174 182 317 180 319 -2 2
-33 0 -69 -5 -239 -34 -433 -59 -435 -57 -1 2 43 189 99 415 55 227 97 415 93
419 -3 4 -48 -22 -99 -57 -198 -135 -402 -276 -456 -314 -31 -23 -74 -51 -95
-64 l-38 -23 14 33 c18 43 279 644 382 882 42 98 75 180 73 182 -2 2 -215
-111 -473 -250 -399 -216 -471 -252 -477 -237 -6 15 -119 939 -118 970 0 6 -3
12 -8 12 -4 0 -122 -233 -262 -519 l-255 -519 -13 37 c-29 84 -306 826 -309
830 -2 3 -45 -36 -96 -86 l-92 -92 -140 194 c-77 107 -143 195 -148 195 -4 0
-5 -10 -2 -22z"/>
<path d="M1905 2200 c-126 -92 -234 -174 -239 -182 -6 -11 17 -49 88 -143 53
-71 95 -130 93 -132 -3 -3 -962 -131 -1164 -156 -51 -6 -93 -15 -93 -21 0 -6
18 -152 41 -325 22 -173 39 -325 37 -338 -3 -25 -26 -36 -410 -197 l-68 -28 0
-239 0 -239 178 0 177 1 234 231 235 232 -93 369 c-50 203 -91 371 -89 373 2
1 103 16 225 32 l221 28 6 -75 c3 -42 11 -164 17 -271 6 -107 14 -198 18 -201
3 -3 95 -79 204 -168 108 -90 197 -165 197 -168 0 -3 -38 -87 -85 -186 -47
-99 -85 -184 -85 -189 0 -4 124 -8 275 -8 213 0 275 3 275 13 0 6 12 136 26
288 15 152 25 283 21 291 -3 9 -144 71 -325 143 l-320 128 -8 116 c-4 64 -8
161 -8 216 l-1 99 357 46 c197 26 360 49 363 51 3 3 -19 37 -48 75 -29 38 -92
122 -139 188 l-87 118 264 192 c146 105 265 194 265 199 0 4 -73 7 -162 6
l-163 0 -230 -169z"/>
<path d="M2740 2362 c0 -5 108 -135 240 -290 132 -155 240 -286 240 -290 0 -9
-735 -362 -755 -362 -8 0 -15 -3 -15 -7 0 -5 117 -147 259 -316 l258 -308 -74
-142 c-41 -78 -110 -211 -154 -294 l-80 -153 366 0 367 0 -7 244 c-4 135 -10
302 -14 373 l-6 128 -257 210 c-141 115 -259 212 -262 215 -3 3 125 67 283
142 l288 137 324 -75 c178 -42 341 -80 361 -85 l38 -10 -48 -77 c-27 -42 -128
-204 -225 -360 l-177 -282 207 -280 208 -280 353 0 c193 0 352 2 352 4 0 3
-174 127 -387 277 -214 149 -389 273 -391 274 -4 3 129 327 138 338 3 4 170
-57 371 -136 200 -80 374 -147 387 -151 l22 -7 0 178 0 178 -337 73 c-186 41
-340 75 -341 77 -2 2 38 69 88 150 50 81 90 148 88 150 -2 3 -323 79 -648 155
-41 10 -138 32 -215 50 -77 18 -146 38 -154 44 -8 6 -110 124 -228 263 l-214
253 -125 0 c-68 0 -124 -4 -124 -8z"/>
</g>
</svg>
