<?xml version="1.0" standalone="no"?>
<!DOCTYPE svg PUBLIC "-//W3C//DTD SVG 20010904//EN"
 "http://www.w3.org/TR/2001/REC-SVG-20010904/DTD/svg10.dtd">
<svg version="1.0" xmlns="http://www.w3.org/2000/svg"
 width="512.000000pt" height="512.000000pt" viewBox="0 0 512.000000 512.000000"
 preserveAspectRatio="xMidYMid meet">
<metadata>
Created by potrace 1.15, written by Peter Selinger 2001-2017
</metadata>
<g transform="translate(0.000000,512.000000) scale(0.100000,-0.100000)"
fill="#ffffff" stroke="none">
<path d="M2402 2685 c-903 -904 -1642 -1647 -1642 -1652 0 -12 233 -243 245
-243 6 0 751 741 1658 1648 l1647 1647 -123 123 c-67 67 -127 122 -132 122 -6
-1 -749 -741 -1653 -1645z"/>
<path d="M2330 3929 c-221 -22 -508 -96 -709 -182 -408 -173 -810 -479 -1131
-862 -84 -100 -230 -303 -230 -319 0 -7 18 -40 40 -74 164 -254 500 -602 766
-795 29 -20 56 -37 60 -37 5 0 145 136 312 303 302 302 303 303 292 333 -22
57 -40 177 -40 269 0 384 255 723 628 834 138 41 326 43 474 5 l69 -18 217
217 c119 119 213 219 210 222 -13 13 -190 57 -328 81 -166 28 -467 40 -630 23z"/>
<path d="M3660 3195 l-294 -294 21 -68 c36 -110 46 -197 40 -318 -7 -131 -30
-217 -91 -340 -129 -258 -369 -431 -663 -476 -105 -16 -267 0 -373 36 l-75 25
-219 -220 c-121 -121 -218 -222 -215 -224 12 -12 259 -77 366 -97 168 -30 518
-38 698 -15 669 86 1286 447 1781 1044 107 128 224 294 224 316 0 19 -140 217
-224 316 -105 125 -288 312 -396 404 -116 100 -257 206 -273 206 -7 0 -145
-133 -307 -295z"/>
</g>
</svg>
