<?xml version="1.0" standalone="no"?>
<!DOCTYPE svg PUBLIC "-//W3C//DTD SVG 20010904//EN"
 "http://www.w3.org/TR/2001/REC-SVG-20010904/DTD/svg10.dtd">
<svg version="1.0" xmlns="http://www.w3.org/2000/svg"
 width="512.000000pt" height="512.000000pt" viewBox="0 0 512.000000 512.000000"
 preserveAspectRatio="xMidYMid meet">
<metadata>
Created by potrace 1.15, written by Peter Selinger 2001-2017
</metadata>
<g transform="translate(0.000000,512.000000) scale(0.100000,-0.100000)"
fill="#ffffff" stroke="none">
<path d="M3225 4641 l-240 -239 -475 34 c-261 18 -488 33 -505 33 -29 1 -33
-6 -232 -398 -112 -219 -203 -403 -203 -408 0 -5 89 -42 198 -82 108 -40 263
-98 344 -128 l148 -55 52 30 c29 16 107 57 173 92 66 35 125 67 130 71 11 8
95 -135 85 -144 -11 -9 -424 -227 -431 -227 -3 0 -137 48 -295 106 -159 58
-337 123 -395 144 l-107 39 -348 -275 c-192 -151 -348 -281 -348 -288 1 -8 61
-115 134 -238 74 -122 159 -268 190 -323 51 -90 137 -234 146 -244 2 -2 69 -9
150 -16 l148 -13 245 157 c136 86 258 165 273 175 l27 18 47 -73 c26 -40 43
-74 38 -76 -5 -2 -140 -86 -299 -188 l-291 -184 -218 17 -218 17 -93 152 -92
152 -34 -18 c-268 -142 -530 -284 -534 -291 -4 -7 33 -78 244 -468 73 -134 82
-154 70 -170 -8 -9 -66 -80 -130 -157 -63 -77 -179 -219 -257 -314 l-142 -175
0 -253 0 -253 856 0 857 0 -6 38 c-3 20 -15 118 -27 217 -11 99 -24 187 -28
195 -4 9 -35 42 -69 73 l-61 58 -259 -76 c-142 -42 -301 -90 -354 -106 -53
-16 -102 -29 -110 -29 -8 0 -60 44 -117 98 l-104 97 61 60 61 59 65 -64 65
-64 47 12 c27 7 191 56 367 108 l318 95 27 -23 c14 -12 45 -40 68 -62 l42 -39
183 181 c100 99 185 179 187 177 3 -4 80 -729 81 -764 0 -8 3 -12 6 -9 4 5 62
802 64 893 1 11 21 -36 47 -105 43 -118 63 -160 63 -131 0 7 14 110 31 228 23
169 34 221 49 237 11 12 94 114 185 228 l166 208 64 -52 c36 -28 62 -56 58
-62 -3 -6 -21 -30 -40 -53 -18 -23 -33 -46 -33 -52 0 -8 466 -251 641 -333
l37 -18 134 46 134 47 104 -83 c58 -45 110 -84 117 -87 7 -3 60 21 118 52 58
31 109 54 114 51 5 -3 25 -36 44 -74 l35 -68 -162 -84 -163 -84 -117 92 c-65
51 -123 92 -130 91 -6 0 -63 -19 -126 -43 l-115 -43 -48 25 c-26 13 -49 23
-51 21 -2 -2 84 -200 191 -439 l195 -435 -51 -97 c-28 -53 -51 -99 -51 -102 0
-3 248 -6 550 -6 l550 0 0 145 0 145 -47 -19 c-27 -10 -94 -37 -151 -60 -57
-23 -107 -39 -111 -37 -9 6 -65 146 -60 150 2 1 86 36 187 76 l182 73 0 1182
0 1183 -96 108 c-53 60 -105 118 -115 130 -11 11 -67 169 -125 350 -58 181
-108 332 -112 336 -4 4 -83 -66 -175 -154 l-168 -161 -212 26 c-117 15 -356
45 -532 67 l-320 41 -48 47 c-27 26 -89 91 -139 145 l-91 98 58 59 58 59 121
-124 121 -123 405 -51 c223 -28 433 -54 466 -57 l62 -7 157 154 157 154 -265
311 -266 311 -188 65 c-103 36 -197 69 -208 72 -16 5 -67 -40 -260 -233z m694
-1763 c89 -109 167 -198 173 -198 14 0 282 61 287 66 2 1 -6 31 -18 65 -11 34
-19 65 -16 67 12 12 150 51 156 44 4 -4 27 -73 51 -155 44 -145 45 -147 24
-152 -215 -52 -550 -124 -556 -120 -5 3 -69 78 -142 167 -73 89 -142 172 -153
185 l-20 23 -165 -99 -165 -99 -42 71 c-23 39 -41 72 -40 74 19 19 453 271
457 265 4 -4 80 -96 169 -204z"/>
</g>
</svg>
