<?xml version="1.0" standalone="no"?>
<!DOCTYPE svg PUBLIC "-//W3C//DTD SVG 20010904//EN"
 "http://www.w3.org/TR/2001/REC-SVG-20010904/DTD/svg10.dtd">
<svg version="1.0" xmlns="http://www.w3.org/2000/svg"
 width="512.000000pt" height="512.000000pt" viewBox="0 0 512.000000 512.000000"
 preserveAspectRatio="xMidYMid meet">
<metadata>
Created by potrace 1.15, written by Peter Selinger 2001-2017
</metadata>
<g transform="translate(0.000000,512.000000) scale(0.100000,-0.100000)"
fill="#ffffff" stroke="none">
<path d="M2430 4864 c-215 -19 -436 -63 -605 -120 -99 -33 -312 -125 -385
-166 -572 -323 -989 -863 -1145 -1483 -53 -210 -69 -344 -69 -565 0 -400 75
-725 244 -1065 76 -152 202 -355 226 -362 22 -7 218 277 294 428 45 89 106
258 115 320 7 48 41 -26 -434 944 -135 275 -159 331 -147 340 8 5 189 125 403
265 213 140 426 281 473 312 46 31 86 56 87 54 2 -2 -29 -52 -69 -112 -185
-276 -273 -536 -272 -804 0 -193 35 -327 128 -484 50 -85 176 -220 261 -281
105 -74 307 -168 324 -149 5 5 18 41 30 81 12 40 24 79 27 88 4 10 0 15 -12
15 -10 0 -67 25 -128 55 -251 123 -398 323 -432 583 l-7 53 27 -11 c181 -69
580 189 960 621 135 153 347 424 410 526 1 1 172 -32 381 -73 209 -41 419 -82
468 -91 48 -9 87 -19 87 -23 0 -4 -37 -10 -82 -13 -107 -7 -294 -48 -426 -92
-508 -170 -837 -542 -809 -913 3 -41 8 -76 11 -79 4 -4 708 401 916 527 25 15
77 45 115 68 l71 42 294 -84 c162 -46 357 -100 432 -122 76 -21 135 -40 133
-42 -2 -2 -71 -8 -152 -12 -201 -12 -472 -52 -625 -95 -362 -99 -594 -252
-707 -465 -52 -97 -92 -290 -58 -278 6 3 62 22 122 43 61 22 294 105 520 185
l409 147 406 -325 c223 -178 409 -328 415 -333 5 -5 -38 7 -95 26 -137 46
-355 100 -500 122 -160 25 -531 25 -680 0 -463 -78 -848 -263 -1305 -628 -121
-97 -130 -106 -160 -173 -87 -189 -158 -467 -190 -749 -23 -194 -22 -196 45
-219 282 -99 509 -138 793 -138 406 0 756 84 1102 264 222 115 374 226 559
405 381 371 621 852 691 1384 17 136 20 387 5 538 -81 817 -587 1533 -1333
1889 -209 100 -423 164 -662 200 -125 19 -401 32 -495 24z"/>
</g>
</svg>
