<?xml version="1.0" standalone="no"?>
<!DOCTYPE svg PUBLIC "-//W3C//DTD SVG 20010904//EN"
 "http://www.w3.org/TR/2001/REC-SVG-20010904/DTD/svg10.dtd">
<svg version="1.0" xmlns="http://www.w3.org/2000/svg"
 width="512.000000pt" height="512.000000pt" viewBox="0 0 512.000000 512.000000"
 preserveAspectRatio="xMidYMid meet">
<metadata>
Created by potrace 1.15, written by Peter Selinger 2001-2017
</metadata>
<g transform="translate(0.000000,512.000000) scale(0.100000,-0.100000)"
fill="#ffffff" stroke="none">
<path d="M1325 4909 c-44 -23 -123 -69 -175 -104 -596 -392 -697 -983 -247
-1452 78 -81 78 -82 64 -110 -24 -46 -84 -221 -112 -323 -34 -126 -63 -288
-71 -398 l-7 -89 85 -6 c186 -15 395 -92 538 -200 85 -65 100 -79 164 -157
181 -218 275 -513 276 -866 l0 -102 113 -21 c61 -12 116 -21 120 -21 5 0 7
112 5 249 l-3 249 35 6 c19 3 58 6 86 6 l51 0 8 -91 c4 -51 5 -171 4 -268 l-3
-176 74 -6 c41 -4 99 -7 128 -8 l52 -1 0 285 0 285 85 0 85 0 0 -285 0 -285
83 5 c45 3 101 8 124 11 l43 5 -7 137 c-3 75 -2 194 2 265 l7 127 52 0 c28 0
67 -3 86 -6 l35 -6 -3 -240 c-3 -136 0 -244 5 -249 5 -5 51 -1 113 11 58 11
105 20 106 20 1 0 4 78 7 173 13 375 119 650 333 864 165 165 400 271 642 290
l85 6 -7 79 c-18 211 -79 468 -160 670 l-43 107 59 58 c118 116 217 281 260
428 29 101 31 282 5 388 -58 234 -240 467 -500 640 -101 67 -253 150 -267 145
-5 -1 6 -26 26 -53 40 -56 106 -187 127 -255 49 -149 56 -328 19 -467 -62
-237 -223 -455 -449 -606 -100 -66 -251 -147 -276 -147 -17 0 -73 123 -59 128
35 11 197 101 247 137 106 76 275 261 275 303 0 23 -206 164 -335 229 -331
168 -686 218 -1046 149 -254 -49 -558 -199 -741 -364 l-27 -25 32 -46 c55 -77
174 -197 251 -250 40 -27 120 -73 176 -101 57 -27 105 -52 108 -54 2 -3 -9
-32 -24 -65 -32 -73 -22 -73 -179 4 -492 240 -733 680 -620 1128 19 75 93 233
141 299 52 73 49 73 -61 17z m249 -1853 c168 -179 459 -318 741 -355 126 -17
120 -12 86 -78 -62 -123 -219 -235 -365 -262 -140 -26 -308 -3 -419 56 -70 37
-187 156 -216 217 -52 113 -50 229 5 339 23 44 98 137 112 137 3 0 29 -24 56
-54z m2115 8 c113 -129 138 -292 65 -436 -38 -75 -146 -179 -228 -217 -230
-110 -516 -69 -682 97 -57 56 -120 160 -106 173 4 4 50 12 102 19 270 35 560
170 726 339 38 39 72 70 76 71 3 0 25 -21 47 -46z m-1004 -773 c39 -111 102
-243 167 -350 22 -36 40 -70 41 -75 3 -17 -115 -36 -259 -43 -109 -4 -163 -2
-245 11 -57 10 -108 21 -112 25 -4 4 13 43 39 87 99 166 181 371 239 596 l28
108 33 -128 c18 -70 49 -174 69 -231z"/>
<path d="M1816 921 c-2 -3 -7 -31 -11 -61 -8 -63 -66 -279 -95 -358 l-20 -52
56 -36 c70 -45 223 -119 230 -111 16 16 91 545 80 572 -3 8 -18 15 -33 15 -15
1 -67 9 -116 19 -48 10 -89 16 -91 12z"/>
<path d="M3218 902 c-76 -13 -98 -20 -98 -32 0 -54 74 -558 84 -567 4 -5 149
67 209 104 48 29 58 40 54 57 -2 11 -21 77 -41 145 -20 67 -44 164 -54 215
-21 106 -11 101 -154 78z"/>
<path d="M2240 855 c0 -26 -46 -355 -66 -468 -14 -82 -24 -150 -22 -152 8 -8
209 -45 281 -51 l77 -7 0 331 0 332 -22 4 c-31 6 -248 16 -248 11z"/>
<path d="M2770 851 l-85 -6 -3 -333 -2 -334 62 7 c135 15 288 50 288 65 0 5
-11 71 -24 147 -13 76 -32 201 -41 278 -9 77 -18 150 -21 163 -5 24 -2 24
-174 13z"/>
</g>
</svg>
