<?xml version="1.0" standalone="no"?>
<!DOCTYPE svg PUBLIC "-//W3C//DTD SVG 20010904//EN"
 "http://www.w3.org/TR/2001/REC-SVG-20010904/DTD/svg10.dtd">
<svg version="1.0" xmlns="http://www.w3.org/2000/svg"
 width="512.000000pt" height="512.000000pt" viewBox="0 0 512.000000 512.000000"
 preserveAspectRatio="xMidYMid meet">
<metadata>
Created by potrace 1.15, written by Peter Selinger 2001-2017
</metadata>
<g transform="translate(0.000000,512.000000) scale(0.100000,-0.100000)"
fill="#ffffff" stroke="none">
<path d="M150 4681 l0 -309 128 -95 c178 -133 362 -294 536 -470 241 -245 382
-453 393 -577 5 -55 4 -61 -24 -88 -19 -20 -48 -34 -85 -42 -56 -13 -62 -12
-268 16 l-35 5 60 -56 c123 -114 320 -233 531 -321 138 -57 332 -152 419 -206
220 -136 425 -343 635 -638 157 -220 219 -350 235 -497 37 -327 -304 -599
-693 -555 -201 24 -342 81 -446 184 -75 73 -96 125 -77 189 15 49 90 122 160
157 l56 27 -54 3 c-69 4 -196 -22 -268 -54 -154 -68 -236 -198 -235 -374 1
-96 37 -213 92 -297 21 -32 37 -59 35 -61 -2 -2 -36 13 -76 34 -82 44 -201
154 -243 226 -43 73 -67 156 -74 248 l-7 84 -42 -64 c-262 -405 -51 -825 477
-950 84 -20 116 -20 1888 -20 l1802 0 -2 1747 -3 1748 -38 94 c-48 121 -95
198 -169 277 -75 80 -158 136 -244 164 -54 18 -82 22 -158 18 -80 -3 -99 -8
-154 -38 -77 -41 -146 -115 -191 -205 -36 -73 -81 -237 -81 -294 l0 -36 31 55
c60 109 126 152 234 151 119 -1 252 -73 423 -229 122 -111 131 -127 54 -96
-257 104 -484 56 -607 -127 -32 -47 -81 -176 -71 -187 3 -2 37 17 75 43 100
66 169 88 256 83 86 -6 136 -30 202 -97 100 -101 155 -262 155 -456 0 -212
-65 -382 -171 -450 -50 -31 -140 -48 -195 -35 -142 31 -308 158 -441 335 -102
136 -205 397 -205 521 0 24 -3 44 -7 44 -15 -1 -64 -80 -88 -143 -99 -264 -10
-626 213 -860 66 -69 130 -117 216 -163 72 -39 67 -41 -34 -14 -131 36 -270
112 -360 197 -165 155 -242 313 -344 710 -90 346 -129 444 -214 535 -53 56
-110 93 -98 63 14 -37 29 -202 22 -245 -9 -58 -39 -108 -74 -121 -111 -43
-367 94 -707 380 -287 242 -486 429 -1090 1021 -143 141 -299 293 -346 338
l-85 82 -262 0 -262 0 0 -309z"/>
</g>
</svg>
