<?xml version="1.0" standalone="no"?>
<!DOCTYPE svg PUBLIC "-//W3C//DTD SVG 20010904//EN"
 "http://www.w3.org/TR/2001/REC-SVG-20010904/DTD/svg10.dtd">
<svg version="1.0" xmlns="http://www.w3.org/2000/svg"
 width="512.000000pt" height="512.000000pt" viewBox="0 0 512.000000 512.000000"
 preserveAspectRatio="xMidYMid meet">
<metadata>
Created by potrace 1.15, written by Peter Selinger 2001-2017
</metadata>
<g transform="translate(0.000000,512.000000) scale(0.100000,-0.100000)"
fill="#ffffff" stroke="none">
<path d="M4206 4199 c-74 -11 -164 -53 -235 -109 l-54 -43 45 -23 c25 -12 83
-33 129 -45 114 -31 326 -33 411 -5 62 20 112 64 106 92 -5 28 -101 89 -175
112 -85 26 -151 32 -227 21z"/>
<path d="M1675 4076 c-123 -31 -227 -110 -274 -211 -42 -89 -69 -98 -159 -57
-245 113 -469 71 -675 -128 -227 -217 -341 -503 -354 -891 -11 -314 51 -655
161 -879 59 -121 168 -231 286 -288 l85 -41 26 124 c14 68 31 131 38 139 7 8
25 19 41 24 37 13 91 -12 104 -50 7 -21 -17 -152 -110 -598 -90 -426 -118
-575 -110 -586 19 -25 76 -26 146 -1 l64 23 193 539 c175 491 196 543 227 570
19 17 62 54 96 84 129 113 238 278 259 395 10 56 33 83 78 92 27 5 37 1 64
-25 30 -30 31 -35 26 -89 -2 -31 -16 -86 -31 -120 -52 -129 -201 -321 -317
-408 -48 -36 -89 -101 -89 -139 0 -24 116 -130 178 -163 126 -67 315 -66 460
3 109 52 196 142 255 266 33 68 53 99 72 107 59 27 92 7 137 -86 44 -89 117
-163 191 -190 74 -28 225 -39 295 -22 29 6 52 14 52 17 0 3 -9 60 -21 126 -11
67 -18 131 -14 144 15 62 94 85 138 41 20 -21 33 -82 111 -553 48 -291 90
-538 92 -547 6 -22 86 -52 114 -43 38 12 90 65 90 92 0 14 -29 267 -65 564
-65 541 -70 594 -59 624 10 25 62 47 94 40 54 -12 61 -31 86 -232 13 -103 24
-191 24 -196 0 -11 49 3 101 29 59 29 98 83 138 188 42 112 78 130 162 81 61
-35 119 -33 196 5 118 59 213 189 254 349 25 98 42 293 33 396 l-6 80 -71 -3
c-249 -12 -409 106 -578 425 -30 57 -56 103 -59 103 -3 0 -19 -26 -34 -57 -78
-160 -124 -198 -228 -191 -164 12 -282 153 -280 338 1 171 148 556 260 681 36
40 42 53 31 60 -59 37 -286 37 -380 0 -64 -24 -142 -88 -166 -135 -21 -40 -41
-55 -76 -56 -45 0 -66 17 -91 75 -28 62 -79 97 -185 127 -170 47 -333 -1 -459
-137 -28 -30 -63 -57 -77 -61 -35 -9 -72 19 -103 77 -12 24 -34 56 -48 70 -32
34 -125 76 -194 89 -64 12 -81 12 -145 -4z"/>
<path d="M4851 3803 c10 -65 23 -190 30 -278 12 -166 32 -245 63 -245 58 0 55
189 -5 392 -27 90 -91 248 -101 248 -2 0 4 -53 13 -117z"/>
<path d="M3686 3849 c-41 -48 -106 -192 -156 -344 -63 -193 -66 -280 -12 -344
20 -24 36 -33 61 -34 l35 -2 74 140 74 140 -17 170 c-9 94 -20 201 -23 239
l-7 70 -29 -35z"/>
<path d="M3900 3786 c0 -41 9 -145 20 -230 l20 -155 93 -173 c108 -201 140
-250 197 -302 56 -51 112 -74 196 -82 78 -7 145 7 174 36 23 23 64 150 85 266
18 100 31 371 21 428 l-7 36 -22 -25 c-34 -39 -77 -42 -115 -10 -25 21 -32 35
-32 61 0 72 85 111 137 62 l23 -21 0 29 c0 34 -17 145 -24 151 -2 2 -27 -8
-56 -22 -29 -15 -82 -33 -119 -41 -77 -16 -249 -18 -338 -4 -57 9 -195 47
-235 65 -16 6 -18 0 -18 -69z m219 -111 c76 -39 44 -155 -42 -155 -32 0 -73
33 -81 65 -12 46 32 102 82 104 7 1 26 -6 41 -14z m489 -492 c6 -9 12 -26 12
-37 -1 -36 -39 -108 -78 -144 l-37 -35 -7 49 c-3 27 -7 77 -7 111 -1 58 0 62
27 72 33 12 73 5 90 -16z m-241 -7 c2 -2 12 -51 22 -109 l18 -105 -46 20 c-57
24 -80 44 -97 85 -21 50 -17 79 13 103 20 16 36 20 57 16 16 -4 31 -8 33 -10z"/>
<path d="M3965 1506 c-22 -23 -51 -50 -64 -59 l-25 -16 84 -316 83 -315 72 0
c58 0 78 4 99 21 14 11 26 27 26 36 0 17 -220 674 -229 685 -4 4 -24 -12 -46
-36z"/>
<path d="M1595 1014 c8 -273 9 -279 49 -304 50 -30 81 -26 127 18 l41 38 -18
194 c-9 107 -21 199 -26 205 -5 5 -32 15 -61 21 -28 6 -67 15 -84 19 l-33 7 5
-198z"/>
</g>
</svg>
