<?xml version="1.0" standalone="no"?>
<!DOCTYPE svg PUBLIC "-//W3C//DTD SVG 20010904//EN"
 "http://www.w3.org/TR/2001/REC-SVG-20010904/DTD/svg10.dtd">
<svg version="1.0" xmlns="http://www.w3.org/2000/svg"
 width="512.000000pt" height="512.000000pt" viewBox="0 0 512.000000 512.000000"
 preserveAspectRatio="xMidYMid meet">
<metadata>
Created by potrace 1.15, written by Peter Selinger 2001-2017
</metadata>
<g transform="translate(0.000000,512.000000) scale(0.100000,-0.100000)"
fill="#ffffff" stroke="none">
<path d="M854 4840 c-254 -37 -482 -259 -590 -575 -22 -65 -28 -98 -28 -180
-1 -95 4 -118 97 -480 109 -421 613 -2384 680 -2647 23 -93 45 -168 49 -168 5
0 8 16 8 36 0 19 7 67 16 106 69 303 294 528 590 589 62 13 262 7 2753 -82
305 -11 556 -18 558 -16 2 2 -170 454 -383 1003 -431 1117 -461 1194 -707
1832 -96 249 -177 455 -178 456 -2 2 -258 16 -569 30 -311 15 -941 44 -1400
66 -459 22 -837 39 -840 39 -3 -1 -28 -5 -56 -9z m1444 -253 l1284 -62 48
-125 c26 -69 103 -267 170 -440 67 -173 193 -499 280 -725 357 -924 452 -1170
533 -1380 47 -121 84 -221 82 -223 -2 -3 -156 1 -342 7 -2034 67 -2525 82
-2628 78 -85 -3 -140 -11 -190 -27 -154 -49 -310 -147 -391 -246 l-40 -50 -28
110 c-16 61 -167 654 -337 1318 -170 664 -309 1224 -309 1245 0 21 9 72 21
113 61 226 231 420 403 461 53 12 122 10 1444 -54z"/>
<path d="M1005 4457 c-38 -11 -72 -22 -73 -23 -4 -3 717 -2533 727 -2550 4 -8
32 -4 96 15 77 23 90 30 87 46 -3 14 -674 2370 -718 2518 -7 22 -30 21 -119
-6z"/>
<path d="M1637 4243 c34 -362 200 -616 487 -749 78 -36 192 -68 277 -79 l54
-7 49 87 c26 48 46 88 44 90 -1 2 -99 47 -216 101 l-213 97 78 46 78 45 -58
12 c-128 26 -249 104 -451 293 -66 61 -123 111 -127 111 -3 0 -5 -21 -2 -47z"/>
<path d="M3379 4163 c-111 -207 -184 -293 -286 -340 l-54 -25 26 -34 c14 -19
36 -49 50 -68 l26 -34 -53 -34 c-29 -20 -83 -54 -120 -77 -38 -24 -68 -47 -68
-51 0 -12 142 -140 156 -140 6 0 37 9 68 20 189 65 329 212 371 392 17 72 19
187 6 270 -14 83 -52 218 -61 218 -5 0 -32 -44 -61 -97z"/>
<path d="M3877 3374 c-3 -4 -77 -132 -164 -285 -86 -154 -160 -279 -163 -279
-3 0 -43 83 -89 185 -46 102 -88 188 -92 191 -5 2 -63 -105 -130 -238 -66
-134 -124 -246 -128 -249 -3 -4 -116 76 -251 176 -135 101 -248 180 -251 177
-3 -4 -23 -82 -44 -174 l-38 -167 -61 48 c-313 247 -699 542 -703 537 -5 -5
445 -984 456 -991 4 -2 35 45 71 104 l64 107 224 -288 c122 -158 227 -290 232
-293 4 -3 52 99 106 226 75 177 100 228 108 217 18 -24 398 -458 401 -458 1 0
42 117 90 259 l89 259 95 -139 c53 -76 99 -139 104 -139 4 0 7 10 7 23 0 12
18 285 39 607 22 322 38 586 37 587 -2 2 -5 0 -9 -3z"/>
<path d="M1693 1345 c-181 -39 -333 -174 -409 -360 -39 -98 -46 -253 -15 -337
12 -31 28 -61 36 -68 15 -13 126 -17 1840 -75 572 -19 1104 -37 1183 -41 l143
-6 -8 38 c-13 63 -7 233 11 308 9 38 15 71 13 73 -2 2 -48 18 -102 36 l-98 33
74 44 c41 24 94 55 119 70 25 15 66 39 91 53 46 26 125 120 115 136 -3 4 -103
11 -223 15 -362 11 -2490 85 -2603 90 -68 3 -127 0 -167 -9z"/>
</g>
</svg>
