<?xml version="1.0" standalone="no"?>
<!DOCTYPE svg PUBLIC "-//W3C//DTD SVG 20010904//EN"
 "http://www.w3.org/TR/2001/REC-SVG-20010904/DTD/svg10.dtd">
<svg version="1.0" xmlns="http://www.w3.org/2000/svg"
 width="512.000000pt" height="512.000000pt" viewBox="0 0 512.000000 512.000000"
 preserveAspectRatio="xMidYMid meet">
<metadata>
Created by potrace 1.15, written by Peter Selinger 2001-2017
</metadata>
<g transform="translate(0.000000,512.000000) scale(0.100000,-0.100000)"
fill="#ffffff" stroke="none">
<path d="M3597 4690 c-77 -12 -257 -73 -315 -107 -120 -69 -193 -123 -272
-203 -133 -135 -207 -281 -219 -434 l-6 -78 -126 -38 c-367 -108 -637 -257
-844 -464 -161 -162 -254 -310 -339 -539 -103 -277 -180 -825 -180 -1287 0
-223 2 -252 22 -325 39 -142 93 -238 180 -325 107 -106 215 -162 406 -211
l111 -28 -505 -1 -505 -1 -247 -245 c-137 -135 -248 -247 -248 -250 0 -2 57
-4 128 -4 70 0 397 -9 727 -21 975 -34 1634 -21 2037 41 399 61 586 170 562
328 -21 139 -129 254 -339 359 -162 82 -290 129 -720 268 -165 54 -312 106
-327 117 -158 112 -207 684 -103 1203 26 131 83 335 113 404 l18 44 13 -44
c56 -191 245 -599 396 -854 197 -333 367 -525 465 -525 120 0 319 269 730 990
201 353 270 470 337 571 35 52 63 100 63 106 0 23 -66 38 -170 38 -103 0 -107
-1 -190 -42 -137 -67 -275 -187 -374 -326 l-48 -67 11 -136 c7 -74 19 -156 27
-181 l16 -46 -139 -141 c-77 -78 -166 -169 -198 -204 -32 -34 -62 -59 -66 -55
-21 21 -144 273 -190 388 -127 318 -238 725 -288 1055 -7 41 -14 84 -16 96 -4
19 -2 19 53 -8 134 -66 358 -76 537 -24 309 91 587 335 666 586 89 281 -38
520 -322 604 -65 20 -242 28 -322 16z"/>
</g>
</svg>
