<?xml version="1.0" standalone="no"?>
<!DOCTYPE svg PUBLIC "-//W3C//DTD SVG 20010904//EN"
 "http://www.w3.org/TR/2001/REC-SVG-20010904/DTD/svg10.dtd">
<svg version="1.0" xmlns="http://www.w3.org/2000/svg"
 width="512.000000pt" height="512.000000pt" viewBox="0 0 512.000000 512.000000"
 preserveAspectRatio="xMidYMid meet">
<metadata>
Created by potrace 1.15, written by Peter Selinger 2001-2017
</metadata>
<g transform="translate(0.000000,512.000000) scale(0.100000,-0.100000)"
fill="#ffffff" stroke="none">
<path d="M3130 4741 l0 -119 -90 -83 c-49 -45 -90 -86 -90 -90 0 -5 54 -9 120
-9 l121 0 89 -92 89 -93 0 125 0 125 93 87 93 87 -125 1 -125 1 -80 89 c-44
48 -83 89 -87 89 -5 1 -8 -53 -8 -118z"/>
<path d="M3944 4285 l-91 -75 -121 19 c-67 10 -122 14 -122 10 0 -4 22 -34 48
-66 26 -32 60 -74 75 -93 l26 -36 -18 -119 c-11 -66 -17 -122 -15 -124 1 -2
46 31 99 74 l96 77 120 -17 c66 -10 122 -16 124 -13 2 2 -30 46 -71 98 -41 52
-74 102 -74 110 0 8 7 58 15 110 17 110 18 120 8 120 -5 -1 -49 -34 -99 -75z"/>
<path d="M357 4238 l-36 -83 62 -28 c34 -16 363 -161 732 -322 369 -161 816
-357 995 -435 179 -78 390 -171 470 -205 80 -35 213 -94 295 -130 83 -37 157
-69 166 -72 15 -4 22 7 75 133 l13 32 -112 50 c-62 28 -177 79 -257 113 l-145
64 90 17 c585 112 1276 -37 1409 -304 47 -94 28 -174 -60 -261 -162 -160 -519
-260 -929 -261 -305 -1 -581 52 -770 147 -244 122 -315 273 -199 425 14 18 24
35 23 36 -2 2 -78 35 -168 74 l-163 71 -71 -36 c-330 -166 -416 -355 -243
-535 135 -141 425 -269 780 -343 294 -62 379 -69 796 -70 414 0 488 6 770 61
254 49 423 104 595 191 323 163 402 345 232 530 -146 158 -495 298 -920 368
-423 70 -808 71 -1322 5 l-90 -12 -275 122 c-151 67 -338 149 -415 182 -77 34
-178 78 -225 98 -98 43 -624 273 -878 384 -96 42 -177 76 -181 76 -4 0 -24
-37 -44 -82z"/>
<path d="M2440 4195 l0 -89 -62 -58 -63 -57 85 -1 84 0 63 -62 63 -62 0 86 0
86 60 55 c33 29 60 57 60 60 0 4 -37 7 -82 7 l-82 0 -63 62 -63 62 0 -89z"/>
<path d="M2150 2058 c0 -112 -3 -213 -6 -226 -6 -19 1 -25 47 -46 341 -149
718 -220 1045 -197 269 20 469 64 719 161 61 23 117 44 126 47 14 4 15 30 11
231 -2 125 -6 228 -7 230 -1 2 -56 -10 -121 -27 -260 -65 -508 -92 -844 -92
-335 0 -574 27 -843 92 -65 16 -120 29 -123 29 -2 0 -4 -91 -4 -202z"/>
<path d="M2126 1499 c-4 -66 -10 -127 -12 -134 -15 -38 359 -168 636 -222 121
-24 159 -26 365 -27 198 0 247 3 350 22 218 41 436 107 600 181 66 30 67 31
62 63 -3 18 -9 79 -13 136 -4 56 -9 102 -12 102 -2 0 -59 -20 -126 -44 -293
-106 -561 -156 -838 -156 -293 0 -513 38 -820 140 -99 33 -181 60 -182 60 -2
0 -6 -54 -10 -121z"/>
<path d="M2071 1022 c-12 -81 -34 -203 -48 -272 -14 -71 -23 -141 -20 -163 20
-150 309 -269 757 -313 205 -20 652 -14 830 11 339 47 577 143 635 256 22 42
21 82 -7 219 -15 69 -36 189 -49 267 l-22 142 -51 -21 c-95 -38 -331 -116
-416 -136 -381 -93 -741 -93 -1120 0 -85 21 -321 98 -416 136 l-50 20 -23
-146z"/>
</g>
</svg>
