<?xml version="1.0" standalone="no"?>
<!DOCTYPE svg PUBLIC "-//W3C//DTD SVG 20010904//EN"
 "http://www.w3.org/TR/2001/REC-SVG-20010904/DTD/svg10.dtd">
<svg version="1.0" xmlns="http://www.w3.org/2000/svg"
 width="512.000000pt" height="512.000000pt" viewBox="0 0 512.000000 512.000000"
 preserveAspectRatio="xMidYMid meet">
<metadata>
Created by potrace 1.15, written by Peter Selinger 2001-2017
</metadata>
<g transform="translate(0.000000,512.000000) scale(0.100000,-0.100000)"
fill="#ffffff" stroke="none">
<path d="M2496 4434 c-75 -130 -136 -244 -136 -253 0 -21 77 -101 137 -142 81
-56 208 -110 270 -116 l59 -5 33 61 32 62 -29 27 c-17 16 -36 46 -42 69 -11
35 -10 46 8 85 15 36 29 50 67 68 47 23 67 22 130 -6 6 -2 25 23 43 56 39 71
38 73 -48 153 -69 64 -161 119 -258 153 -127 45 -110 58 -266 -212z"/>
<path d="M1859 4157 c-111 -38 -206 -130 -193 -186 12 -52 69 -137 143 -215
138 -144 314 -268 548 -385 170 -85 316 -136 450 -156 102 -15 152 -12 190 11
26 17 53 98 53 162 0 91 -49 223 -118 318 l-30 41 -69 -4 c-38 -3 -93 0 -122
6 -130 28 -327 138 -425 237 -50 51 -106 137 -106 165 0 23 -29 29 -150 29
-83 0 -119 -5 -171 -23z"/>
<path d="M3016 4129 c7 -13 316 -423 544 -724 188 -248 736 -973 1165 -1542
121 -161 223 -292 228 -292 4 -1 7 522 7 1162 l0 1162 -958 118 c-526 65 -965
121 -976 124 -14 4 -16 2 -10 -8z"/>
<path d="M1357 3473 c-186 -325 -259 -453 -445 -773 -442 -764 -492 -854 -492
-881 0 -42 39 -114 102 -188 205 -243 656 -506 986 -576 123 -26 234 -16 258
22 6 10 106 182 221 383 116 201 366 635 557 964 190 329 346 601 346 603 0 1
-21 3 -47 3 -121 0 -371 82 -582 191 -305 157 -511 321 -691 548 l-25 31 -188
-327z m607 -347 c98 -30 170 -119 201 -247 15 -65 18 -219 6 -274 l-7 -30 -8
40 c-23 121 -132 268 -243 328 -98 52 -231 69 -353 43 l-65 -14 35 29 c19 16
69 47 111 69 129 67 229 84 323 56z m-963 -1251 c49 -100 116 -168 215 -217
82 -40 89 -42 197 -46 78 -2 129 1 167 12 30 8 56 13 58 11 9 -9 -122 -100
-193 -135 -103 -50 -160 -64 -243 -58 -194 14 -292 168 -278 438 3 63 9 129
13 145 6 28 7 26 20 -29 7 -32 27 -87 44 -121z"/>
<path d="M252 1556 c-23 -40 -42 -85 -42 -98 0 -74 120 -227 277 -353 346
-276 820 -470 1020 -416 37 10 46 19 87 88 24 43 44 78 43 80 -1 1 -43 7 -92
13 -234 31 -500 143 -775 325 -205 136 -365 281 -444 402 -12 18 -23 33 -27
33 -3 0 -24 -33 -47 -74z"/>
</g>
</svg>
