<?xml version="1.0" standalone="no"?>
<!DOCTYPE svg PUBLIC "-//W3C//DTD SVG 20010904//EN"
 "http://www.w3.org/TR/2001/REC-SVG-20010904/DTD/svg10.dtd">
<svg version="1.0" xmlns="http://www.w3.org/2000/svg"
 width="512.000000pt" height="512.000000pt" viewBox="0 0 512.000000 512.000000"
 preserveAspectRatio="xMidYMid meet">
<metadata>
Created by potrace 1.15, written by Peter Selinger 2001-2017
</metadata>
<g transform="translate(0.000000,512.000000) scale(0.100000,-0.100000)"
fill="#ffffff" stroke="none">
<path d="M250 4160 l0 -550 2310 0 2310 0 0 550 0 550 -105 0 -105 0 0 -275 0
-275 -180 0 -180 0 0 275 0 275 -300 0 -300 0 0 -275 0 -275 -180 0 -180 0 0
275 0 275 -300 0 -300 0 0 -275 0 -275 -180 0 -180 0 0 275 0 275 -300 0 -300
0 0 -275 0 -275 -180 0 -180 0 0 275 0 275 -300 0 -300 0 0 -275 0 -275 -180
0 -180 0 0 275 0 275 -105 0 -105 0 0 -550z"/>
<path d="M250 2400 l0 -1030 310 0 310 0 0 230 0 230 -115 0 -115 0 0 90 0 90
355 0 355 0 0 230 0 230 -195 0 -195 0 0 90 0 90 480 0 480 0 0 -90 0 -90
-195 0 -195 0 0 -230 0 -230 355 0 355 0 0 -90 0 -90 -35 0 -35 0 0 -230 0
-230 1350 0 1350 0 0 1030 0 1030 -150 0 -150 0 0 -195 0 -195 -90 0 -90 0 0
195 0 195 -550 0 -550 0 0 -195 0 -195 -90 0 -90 0 0 195 0 195 -550 0 -550 0
0 -195 0 -195 -90 0 -90 0 0 195 0 195 -550 0 -550 0 0 -195 0 -195 -90 0 -90
0 0 195 0 195 -150 0 -150 0 0 -1030z m4230 160 l0 -90 -435 0 -435 0 0 -275
0 -275 -90 0 -90 0 0 275 0 275 -355 0 -355 0 0 90 0 90 880 0 880 0 0 -90z"/>
<path d="M1050 1600 l0 -230 470 0 470 0 0 230 0 230 -470 0 -470 0 0 -230z"/>
<path d="M250 720 l0 -470 243 0 243 0 69 280 c47 190 74 280 83 280 13 0 144
-31 150 -35 2 -2 -108 -456 -124 -507 -5 -17 78 -18 1646 -18 1568 0 1651 1
1646 18 -16 51 -126 505 -124 507 6 4 137 35 150 35 9 0 36 -90 83 -280 l69
-280 243 0 243 0 0 470 0 470 -700 0 c-553 0 -700 -3 -700 -12 0 -7 30 -161
66 -341 36 -181 64 -331 62 -333 -6 -6 -159 -36 -162 -32 -2 1 -33 156 -70
343 -37 187 -69 348 -72 358 -5 16 -49 17 -734 17 -685 0 -729 -1 -734 -17 -3
-10 -35 -171 -72 -358 -37 -187 -68 -342 -70 -343 -3 -4 -156 26 -162 32 -2 2
26 152 62 333 36 180 66 334 66 341 0 9 -147 12 -700 12 l-700 0 0 -470z"/>
</g>
</svg>
