<?xml version="1.0" encoding="UTF-8" standalone="no"?>
<!-- Created with Inkscape (http://www.inkscape.org/) -->

<svg
   xmlns:dc="http://purl.org/dc/elements/1.1/"
   xmlns:cc="http://creativecommons.org/ns#"
   xmlns:rdf="http://www.w3.org/1999/02/22-rdf-syntax-ns#"
   xmlns:svg="http://www.w3.org/2000/svg"
   xmlns="http://www.w3.org/2000/svg"
   xmlns:sodipodi="http://sodipodi.sourceforge.net/DTD/sodipodi-0.dtd"
   xmlns:inkscape="http://www.inkscape.org/namespaces/inkscape"
   width="135.46666mm"
   height="135.46666mm"
   viewBox="0 0 135.46666 135.46666"
   version="1.1"
   id="svg1007"
   inkscape:version="0.92.4 (5da689c313, 2019-01-14)"
   sodipodi:docname="produce-flame.svg">
  <defs
     id="defs1001" />
  <sodipodi:namedview
     id="base"
     pagecolor="#ffffff"
     bordercolor="#666666"
     borderopacity="1.0"
     inkscape:pageopacity="0.0"
     inkscape:pageshadow="2"
     inkscape:zoom="0.7"
     inkscape:cx="250.26112"
     inkscape:cy="185.44516"
     inkscape:document-units="mm"
     inkscape:current-layer="layer1"
     showgrid="false"
     inkscape:pagecheckerboard="true"
     inkscape:window-width="1850"
     inkscape:window-height="1016"
     inkscape:window-x="70"
     inkscape:window-y="27"
     inkscape:window-maximized="1" />
  <metadata
     id="metadata1004">
    <rdf:RDF>
      <cc:Work
         rdf:about="">
        <dc:format>image/svg+xml</dc:format>
        <dc:type
           rdf:resource="http://purl.org/dc/dcmitype/StillImage" />
        <dc:title></dc:title>
      </cc:Work>
    </rdf:RDF>
  </metadata>
  <g
     inkscape:label="Layer 1"
     inkscape:groupmode="layer"
     id="layer1"
     transform="translate(328.5369,80.673805)">
    <path
       style="fill:#ffffff;fill-opacity:1;stroke-width:2.28020763"
       d="m -280.76025,37.233924 c 9.12017,-1.800904 19.19299,-2.95303 22.38409,-2.560355 4.46989,0.550471 9.48995,-2.726814 21.86394,-14.27197 8.83408,-8.242329 19.87446,-19.2679519 24.53426,-24.5013506 4.65978,-5.233444 9.58121,-9.7231104 10.93645,-9.9770684 4.89123,-0.916471 5.24182,-7.775754 0.39919,-7.611174 -5.76455,0.195901 -14.86187,10.867731 -15.59355,11.160733 0.55024,-1.258134 13.8533,-14.237673 16.43223,-16.523398 6.61786,-5.865488 4.61835,-10.221132 -2.84557,-6.198298 -1.42046,0.765612 -8.48426,5.920604 -9.88268,6.677758 1.02576,-2.562562 4.8497,-4.081723 2.33236,-6.048575 -3.75575,-2.93451 -22.60334,11.766877 -25.90884,20.331321 -2.60898,6.7597733 -21.32803,25.913779 -22.57485,23.09948 -0.32611,-0.736578 3.73759,-5.5263859 9.03071,-10.64444949 10.45663,-10.11081281 11.33704,-12.84839451 4.38471,-13.63437051 -4.31189,-0.487407 -8.58504,2.076731 -30.20405,18.1246775 -7.32759,5.4393415 -12.82527,7.1999815 -24.17858,7.7432305 -8.08201,0.38666 -10.58201,1.83625 -13.19817,4.617747 -1.08595,1.154563 -5.87149,3.394964 -7.0065,3.928602 -1.98143,0.931609 -3.13796,1.195155 -5.97436,2.678034 l -0.15644,23.779215 c 2.02109,1.838718 17.85285,-8.237403 25.13295,-11.393358 2.91214,1.133847 2.86142,0.948189 5.5652,1.321916 6.41798,0.887122 7.53759,0.534799 14.52699,-0.0982 z m -6.97408,-31.3327829 c 11.94343,-3.3411245 12.62781,-6.64495633 1.31186,-6.33448656 -10.94097,0.3001801 -19.00499,3.09753126 -20.56249,7.13290756 -1.34157,3.4756959 4.89622,3.2170477 19.25027,-0.7984593 z"
       id="path4548"
       inkscape:connector-curvature="0"
       sodipodi:nodetypes="ccccsscsccsscccccsscccsccccssc" />
    <path
       style="fill:#fffff9;fill-opacity:1;stroke-width:0.26458332"
       d="m -271.21599,-17.40713 c -5.71628,-2.495529 -9.53587,-5.964737 -11.95716,-10.86028 -1.78546,-3.609962 -2.10791,-5.124693 -2.08402,-9.789583 0.0181,-3.535706 0.0994,-4.228576 0.74525,-6.35 0.8549,-2.8082 2.11344,-5.779357 3.30618,-7.805208 l 0.85677,-1.455208 -0.18849,1.190625 c -0.10367,0.654844 -0.18635,2.559844 -0.18372,4.233333 0.007,4.664427 0.96932,7.60417 3.10083,9.47566 1.32348,1.162037 2.4851,1.317596 4.04299,0.54142 1.8569,-0.925145 2.59262,-2.502091 2.57164,-5.512102 -0.009,-1.348105 -0.19862,-2.841654 -0.47019,-3.711228 -1.04766,-3.354599 -1.06264,-8.728807 -0.0357,-12.823496 1.83814,-7.329371 6.62743,-12.699177 12.73066,-14.273755 2.07814,-0.53614 2.02479,-0.546496 1.58756,0.30819 -0.20472,0.400182 -0.747,1.858698 -1.20508,3.241146 -2.55821,7.720646 -2.60611,14.79307 -0.11984,17.697716 1.0974,1.282065 2.31183,1.725671 4.06437,1.484633 2.17905,-0.299697 6.12009,-2.420033 8.56806,-4.609738 0.41933,-0.375094 0.69513,-0.503393 0.61288,-0.285112 -1.91294,5.076642 -2.66738,8.951595 -2.49841,12.832291 0.15438,3.54548 0.84023,5.547354 2.45455,7.164395 3.39896,3.404669 8.3422,0.739685 10.71679,-5.777605 0.33093,-0.908257 0.68247,-1.7447 0.7812,-1.858764 0.23555,-0.272132 1.19135,3.253374 1.74191,6.425099 0.23997,1.382448 0.44359,3.777802 0.4525,5.323011 0.0151,2.620534 -0.0343,2.896328 -0.7342,4.101042 -1.88856,3.250599 -8.18097,7.944625 -14.46335,10.789398 l -2.02579,0.917313 0.79242,-1.747644 c 1.12843,-2.488687 1.52951,-4.737291 1.53477,-8.604395 l 0.005,-3.37648 -1.5183,1.236673 c -1.99385,1.624012 -4.91223,2.994678 -6.78848,3.188324 l -1.48281,0.15304 v -1.871802 c 0,-4.994508 -2.13681,-10.026565 -5.56743,-13.11099 -1.42963,-1.285357 -2.03413,-1.557732 -1.70404,-0.767803 1.01419,2.426997 1.28704,4.268909 1.28361,8.665104 -0.003,4.139427 -0.0611,4.686665 -0.72622,6.866112 -0.39749,1.302507 -1.1907,3.267038 -1.76268,4.365625 -1.1245,2.159772 -3.52074,5.306721 -4.03682,5.30149 -0.17529,-0.0019 -1.25385,-0.411477 -2.39679,-0.910447 z"
       id="path5909"
       inkscape:connector-curvature="0"
       sodipodi:nodetypes="ccccscsccccccsscssccccccsccsccccsscscccccccc" />
  </g>
</svg>
