<?xml version="1.0" standalone="no"?>
<!DOCTYPE svg PUBLIC "-//W3C//DTD SVG 20010904//EN"
 "http://www.w3.org/TR/2001/REC-SVG-20010904/DTD/svg10.dtd">
<svg version="1.0" xmlns="http://www.w3.org/2000/svg"
 width="512.000000pt" height="512.000000pt" viewBox="0 0 512.000000 512.000000"
 preserveAspectRatio="xMidYMid meet">
<metadata>
Created by potrace 1.15, written by Peter Selinger 2001-2017
</metadata>
<g transform="translate(0.000000,512.000000) scale(0.100000,-0.100000)"
fill="#ffffff" stroke="none">
<path d="M2410 4919 c-1146 -70 -2070 -935 -2227 -2084 -18 -132 -20 -452 -4
-580 95 -747 501 -1383 1127 -1767 377 -232 795 -350 1239 -351 293 -1 510 34
780 124 869 292 1488 1045 1611 1964 33 240 16 585 -41 835 -207 916 -936
1631 -1850 1815 -207 41 -430 57 -635 44z m320 -196 c31 -6 27 -8 -56 -33
-171 -52 -354 -138 -529 -248 l-80 -50 -240 -5 c-234 -5 -307 -13 -470 -51
-33 -8 -61 -13 -63 -11 -8 7 186 122 303 180 218 107 465 181 696 209 121 15
385 20 439 9z m550 -162 l25 -7 -31 -17 c-60 -31 -230 -164 -320 -249 l-90
-87 -85 31 c-46 16 -154 47 -239 69 -85 22 -159 41 -165 43 -14 4 95 58 223
111 115 47 231 80 352 100 81 14 289 17 330 6z m379 -126 c17 -8 39 -34 52
-62 22 -45 24 -60 24 -213 0 -133 -5 -188 -24 -282 l-23 -116 -126 83 c-131
86 -343 206 -438 247 -29 12 -54 26 -54 29 0 10 125 119 204 178 173 129 308
176 385 136z m-1967 -359 c-70 -69 -150 -152 -177 -186 -57 -70 -34 -67 -230
-26 -66 14 -178 31 -250 38 l-130 13 60 41 c205 140 516 233 812 243 l41 1
-126 -124z m2377 -91 c51 -102 89 -209 115 -325 19 -82 46 -286 46 -346 l0
-45 -115 119 c-63 65 -146 145 -185 178 -65 54 -71 62 -66 89 3 17 17 84 31
150 14 66 31 179 37 252 l12 132 38 -52 c21 -29 60 -97 87 -152z m-1823 180
c117 -20 234 -48 366 -86 l106 -31 -70 -82 c-39 -44 -108 -128 -154 -186 l-83
-106 -69 -12 c-38 -6 -107 -23 -152 -38 l-83 -26 -127 51 c-70 27 -169 64
-219 82 -76 26 -89 34 -82 48 16 28 273 275 354 339 45 35 88 62 101 62 13 0
63 -7 112 -15z m854 -283 c179 -89 315 -171 452 -269 l76 -55 -13 -44 c-29
-98 -108 -304 -116 -302 -4 2 -32 31 -63 66 -126 142 -279 253 -439 318 -72
29 -177 57 -305 81 -23 4 -23 4 14 51 72 89 206 242 213 242 4 0 85 -39 181
-88z m1337 -207 c141 -225 241 -492 294 -785 22 -118 36 -422 24 -515 l-7 -60
-24 81 c-49 170 -149 387 -250 542 l-54 83 0 192 c0 106 -5 233 -10 282 -10
85 -40 245 -55 290 l-7 20 17 -20 c9 -11 42 -60 72 -110z m-3220 5 l111 -22
-83 -126 c-86 -131 -206 -343 -247 -438 -12 -29 -26 -54 -29 -54 -9 0 -135
149 -193 229 -25 35 -65 102 -88 148 -35 70 -42 95 -43 144 0 50 4 62 26 85
15 14 51 35 80 45 74 27 305 21 466 -11z m480 -136 c87 -31 164 -59 171 -63
10 -6 -5 -23 -51 -60 -208 -165 -365 -431 -410 -694 l-12 -76 -81 67 c-44 37
-106 90 -138 119 l-58 51 75 154 c41 84 104 200 138 258 65 107 196 300 204
300 3 0 76 -25 162 -56z m2273 -290 c58 -60 136 -147 174 -194 l68 -85 -6 -60
c-9 -91 -50 -279 -91 -418 l-37 -126 -102 87 c-55 48 -138 116 -183 151 -86
66 -87 68 -98 141 -4 25 -21 87 -37 138 l-31 93 56 142 c30 78 67 177 82 219
l27 78 37 -29 c20 -16 83 -78 141 -137z m-3283 -194 c33 -41 91 -109 130 -150
l70 -75 -38 -115 c-21 -63 -52 -175 -70 -248 l-32 -132 -25 42 c-38 67 -108
238 -136 329 -52 176 -75 352 -61 492 l7 77 47 -73 c26 -39 75 -106 108 -147z
m-237 -556 c44 -112 133 -284 195 -381 l54 -82 4 -238 c4 -233 22 -390 58
-501 19 -58 3 -45 -56 45 -151 232 -270 545 -320 843 -19 111 -31 410 -20 496
l7 59 24 -81 c12 -44 37 -116 54 -160z m4004 57 c109 -243 163 -514 141 -715
l-7 -69 -26 44 c-45 78 -157 222 -244 314 l-84 89 43 133 c23 74 55 185 70
248 l27 114 19 -31 c10 -17 38 -74 61 -127z m-3116 -116 c29 -22 54 -49 56
-60 2 -11 10 -51 16 -90 7 -38 26 -110 42 -158 l29 -88 -45 -112 c-24 -62 -59
-154 -76 -204 l-32 -93 -27 19 c-41 30 -260 258 -328 344 -36 44 -63 88 -63
101 0 65 49 296 102 478 l31 106 121 -102 c67 -56 145 -120 174 -141z m2565
-184 c53 -46 97 -87 97 -89 0 -3 -36 -78 -79 -166 -82 -166 -182 -335 -278
-468 l-55 -76 -47 14 c-26 7 -97 32 -157 54 -60 22 -115 42 -122 45 -8 3 9 24
46 54 210 175 372 470 398 726 l7 65 46 -37 c25 -21 90 -75 144 -122z m318
-313 c167 -194 259 -359 259 -464 0 -51 -48 -97 -125 -120 -80 -23 -296 -15
-451 16 l-112 23 83 126 c86 130 206 342 247 437 12 29 26 54 30 54 4 0 35
-32 69 -72z m-2358 -369 c140 -105 292 -170 481 -207 l87 -17 -70 -83 c-38
-45 -90 -105 -115 -133 l-45 -50 -123 59 c-68 32 -173 87 -233 121 -106 61
-341 217 -351 232 -2 4 21 80 52 168 l57 160 91 -96 c50 -53 126 -123 169
-154z m-673 -85 c65 -54 71 -62 66 -89 -3 -16 -16 -84 -30 -150 -14 -66 -31
-178 -38 -250 l-13 -130 -46 70 c-131 198 -210 456 -234 764 l-7 84 116 -120
c63 -66 147 -146 186 -179z m1951 -82 c52 -21 142 -55 201 -76 l108 -39 -29
-36 c-87 -110 -397 -381 -436 -381 -70 0 -295 48 -477 101 l-108 31 36 42 c19
22 83 100 142 173 104 128 108 132 152 138 55 8 206 49 252 69 48 21 55 20
159 -22z m-1383 -320 c65 -37 157 -85 204 -107 48 -22 86 -43 85 -48 -5 -17
-159 -143 -253 -206 -118 -79 -198 -113 -271 -115 -62 -1 -93 23 -120 93 -28
72 -25 319 6 473 l23 117 104 -70 c57 -38 157 -100 222 -137z m2157 88 c61
-10 152 -22 204 -26 l94 -7 -34 -28 c-45 -37 -226 -131 -315 -162 -106 -38
-233 -66 -374 -82 -215 -26 -209 -32 -82 90 60 57 141 142 181 188 l71 83 73
-18 c39 -10 122 -27 182 -38z m-1400 -405 c66 -18 147 -39 180 -45 l60 -12
-95 -48 c-253 -126 -539 -192 -763 -174 l-87 7 82 55 c92 61 188 138 293 235
l70 64 70 -24 c38 -13 124 -39 190 -58z m1311 -44 c-10 -15 -194 -125 -285
-171 -185 -92 -402 -163 -616 -201 -132 -23 -431 -37 -531 -24 l-59 7 95 28
c176 51 365 137 534 244 l88 56 194 0 c202 0 362 16 494 49 92 23 93 23 86 12z"/>
</g>
</svg>
