<?xml version="1.0" standalone="no"?>
<!DOCTYPE svg PUBLIC "-//W3C//DTD SVG 20010904//EN"
 "http://www.w3.org/TR/2001/REC-SVG-20010904/DTD/svg10.dtd">
<svg version="1.0" xmlns="http://www.w3.org/2000/svg"
 width="512.000000pt" height="512.000000pt" viewBox="0 0 512.000000 512.000000"
 preserveAspectRatio="xMidYMid meet">
<metadata>
Created by potrace 1.15, written by Peter Selinger 2001-2017
</metadata>
<g transform="translate(0.000000,512.000000) scale(0.100000,-0.100000)"
fill="#ffffff" stroke="none">
<path d="M180 4860 l0 -90 190 0 190 0 0 -389 c0 -351 -2 -390 -17 -402 -28
-23 -92 -130 -104 -171 -10 -39 -9 -42 137 -301 263 -467 276 -491 303 -539
14 -26 29 -48 32 -48 3 0 21 24 40 53 44 69 167 192 251 251 183 129 395 211
601 232 37 3 67 9 67 12 0 6 -40 78 -337 607 -68 121 -130 226 -138 234 -19
20 -160 26 -238 11 -34 -6 -89 -21 -122 -32 -61 -21 -222 -98 -259 -124 -11
-8 -24 -14 -28 -14 -5 0 -8 140 -8 310 l0 310 225 0 225 0 0 -133 0 -133 90
-2 90 -1 0 134 0 135 275 0 275 0 0 90 0 90 -870 0 -870 0 0 -90z"/>
<path d="M1725 3273 c-11 -2 -51 -13 -90 -24 -262 -76 -530 -287 -590 -464
-22 -66 -13 -108 28 -137 29 -21 42 -23 152 -22 103 0 132 4 205 28 173 57
325 150 445 270 90 92 133 162 142 235 5 47 4 52 -25 79 -17 16 -46 32 -63 36
-34 7 -172 6 -204 -1z"/>
<path d="M2181 3104 c-34 -150 -172 -319 -367 -450 -280 -187 -602 -256 -790
-170 -39 18 -56 22 -59 13 -4 -12 -475 -2285 -475 -2293 0 -2 999 -4 2220 -4
l2220 0 -2 696 -3 695 -580 335 c-319 185 -659 381 -755 436 -448 258 -698
403 -855 493 -324 188 -530 305 -536 305 -3 0 -11 -25 -18 -56z"/>
</g>
</svg>
