<?xml version="1.0" encoding="UTF-8" standalone="no"?>
<!-- Created with Inkscape (http://www.inkscape.org/) -->

<svg
   xmlns:dc="http://purl.org/dc/elements/1.1/"
   xmlns:cc="http://creativecommons.org/ns#"
   xmlns:rdf="http://www.w3.org/1999/02/22-rdf-syntax-ns#"
   xmlns:svg="http://www.w3.org/2000/svg"
   xmlns="http://www.w3.org/2000/svg"
   xmlns:sodipodi="http://sodipodi.sourceforge.net/DTD/sodipodi-0.dtd"
   xmlns:inkscape="http://www.inkscape.org/namespaces/inkscape"
   width="67.73333mm"
   height="67.73333mm"
   viewBox="0 0 67.73333 67.73333"
   version="1.1"
   id="svg5936"
   inkscape:version="0.92.4 (5da689c313, 2019-01-14)"
   sodipodi:docname="protection-from-evil-and-good.svg">
  <defs
     id="defs5930" />
  <sodipodi:namedview
     id="base"
     pagecolor="#ffffff"
     bordercolor="#666666"
     borderopacity="1.0"
     inkscape:pageopacity="0.0"
     inkscape:pageshadow="2"
     inkscape:zoom="2.8"
     inkscape:cx="129.33483"
     inkscape:cy="88.156262"
     inkscape:document-units="mm"
     inkscape:current-layer="layer1"
     showgrid="false"
     inkscape:pagecheckerboard="true"
     inkscape:window-width="1850"
     inkscape:window-height="1016"
     inkscape:window-x="70"
     inkscape:window-y="27"
     inkscape:window-maximized="1" />
  <metadata
     id="metadata5933">
    <rdf:RDF>
      <cc:Work
         rdf:about="">
        <dc:format>image/svg+xml</dc:format>
        <dc:type
           rdf:resource="http://purl.org/dc/dcmitype/StillImage" />
        <dc:title></dc:title>
      </cc:Work>
    </rdf:RDF>
  </metadata>
  <g
     inkscape:label="Layer 1"
     inkscape:groupmode="layer"
     id="layer1"
     transform="translate(3.6285696,-90.020241)">
    <path
       style="fill:#ffffff;fill-opacity:1;fill-rule:evenodd;stroke:none;stroke-width:3.2692914;stroke-linecap:butt;stroke-linejoin:miter;stroke-miterlimit:4;stroke-dasharray:none;stroke-opacity:1"
       d="M 62.125 49.929688 C 62.125 49.929688 55.319155 64.576872 54.59375 95.175781 C 54.52739 97.974972 54.515978 100.65031 54.548828 103.21484 C 54.959497 135.27868 57.843133 152.80294 64.306641 167.82031 C 67.363067 176.95241 72.031191 183.85193 76.433594 189.50586 C 79.614675 193.59127 83.001625 196.69011 86.367188 199.93555 C 93.181127 206.50628 128.28906 222.41211 128.28906 222.41211 C 128.28906 222.41211 163.36573 206.47371 170.21094 199.93555 C 173.81644 196.49178 177.62507 192.68537 180.16406 189.48242 C 184.61043 183.87331 189.21946 176.94132 192.27148 167.82422 C 198.73617 152.80599 201.66203 135.28193 202.03125 103.21484 C 202.06395 100.37676 202.04777 97.730031 201.98438 95.148438 C 201.23313 64.569073 194.45508 49.929688 194.45508 49.929688 C 183.22059 52.193364 170.23349 55.654264 158.3418 57.251953 C 145.67645 58.953586 141.88352 58.714862 128.28906 58.714844 C 114.69503 58.714826 106.86784 58.224308 98.238281 57.251953 C 86.434579 55.921944 73.023745 52.801647 62.125 49.929688 z M 112.49219 68.671875 L 115.30469 70.582031 C 115.30469 70.582031 114.34728 71.986122 113.45117 73.962891 C 112.55506 75.939659 111.8176 78.447055 112.04883 80.267578 C 112.23289 81.716687 112.57017 81.894209 113.53125 82.1875 C 114.49233 82.480791 116.15467 82.457645 117.94727 82.371094 C 119.73986 82.284807 121.65941 82.136039 123.51172 82.673828 C 125.36402 83.211617 127.10091 84.873357 127.44727 87.316406 C 127.87389 90.325696 128.09619 97.060215 128.24219 103.82812 L 155.04492 102.85156 C 156.60903 94.74208 163.48863 88.564453 171.7832 88.564453 C 181.23796 88.564453 188.86523 96.589811 188.86523 106.35547 C 188.86523 116.12109 181.23796 124.15234 171.7832 124.15234 C 168.17759 124.15234 164.84282 122.9791 162.0918 120.99219 L 149.48438 140.66797 L 162.71094 147.86914 C 163.97212 145.51551 165.03516 143.47266 165.03516 143.47266 L 168.0625 145.0293 C 168.0625 145.0293 166.57703 147.92171 164.89453 151.00781 C 164.05328 152.55088 163.16158 154.14366 162.37109 155.4668 C 161.58061 156.78993 161.06019 157.71921 160.28906 158.47266 C 158.42849 160.29057 157.05787 160.99639 155.875 161.20312 C 154.69214 161.40975 153.40425 161.25397 152.19922 160.70117 C 151.05624 160.17714 150.27586 159.29003 149.82812 158.39844 C 149.3804 157.50681 149.18536 156.64009 149.37891 155.68164 C 149.651 154.33424 150.28925 153.30095 151.12109 152.73633 C 151.95294 152.17223 152.83187 152.14453 153.16602 152.14453 L 153.16602 155.54883 C 152.99511 155.54883 153.02716 155.56042 153.0332 155.55664 C 153.03921 155.55256 152.86621 155.604 152.71484 156.35352 C 152.74077 156.22531 152.72328 156.57472 152.87109 156.86914 C 153.01891 157.16349 153.25375 157.43224 153.62305 157.60156 C 154.28337 157.9043 154.72142 157.94315 155.29102 157.84375 C 155.86061 157.74427 156.27345 157.64409 157.91211 156.04297 C 157.90997 156.04505 158.69671 154.97503 159.44727 153.71875 C 159.95133 152.87501 160.51236 151.88203 161.07812 150.86719 L 147.64062 143.54688 L 134.75391 163.6582 C 138.97737 166.91044 141.72266 172.11984 141.72266 177.9668 C 141.72266 187.73245 134.09733 195.75781 124.64258 195.75781 C 115.18783 195.75781 107.56836 187.73245 107.56836 177.9668 C 107.56836 171.22419 111.20175 165.31162 116.5625 162.29492 L 105.64258 142.57617 L 96.464844 147.69727 L 93.652344 161.38672 L 90.316406 160.70117 L 92.988281 147.6875 L 79.916016 142.94727 L 81.074219 139.74414 L 94.804688 144.71875 L 103.99023 139.59375 L 94.009766 121.57227 C 91.320603 123.41978 88.104935 124.50781 84.638672 124.50781 C 75.183915 124.50781 67.564453 116.48245 67.564453 106.7168 C 67.564453 96.951137 75.183915 88.919922 84.638672 88.919922 C 93.465798 88.919922 100.69567 95.922233 101.61719 104.79883 L 124.83008 103.95312 C 124.67625 97.138354 124.42464 90.227304 124.08008 87.796875 C 123.8811 86.393385 123.54344 86.230667 122.56055 85.945312 C 121.57765 85.659959 119.90728 85.688839 118.10938 85.775391 C 116.31146 85.86198 114.38534 86.008096 112.53516 85.443359 C 110.68498 84.878622 108.98137 83.170401 108.66797 80.703125 C 108.29201 77.743226 109.3281 74.818248 110.35156 72.560547 C 111.37502 70.302846 112.49219 68.671875 112.49219 68.671875 z M 171.7832 91.96875 C 165.4383 91.96875 160.09341 96.507017 158.56445 102.72461 L 174.16016 102.15625 L 163.92578 118.12891 C 166.15235 119.77378 168.86055 120.74219 171.7832 120.74219 C 179.31207 120.74219 185.46094 114.3624 185.46094 106.35547 C 185.46094 98.348501 179.31207 91.96875 171.7832 91.96875 z M 84.638672 92.330078 C 77.1098 92.330078 70.96875 98.709827 70.96875 106.7168 C 70.96875 114.72376 77.1098 121.10547 84.638672 121.10547 C 87.5006 121.10547 90.15999 120.17847 92.361328 118.5957 L 86.396484 107.82422 L 85.052734 105.40234 L 98.203125 104.92383 C 97.363866 97.780379 91.594582 92.330078 84.638672 92.330078 z M 167.77344 105.79492 L 158.12109 106.14648 C 158.12014 106.21687 158.11133 106.28483 158.11133 106.35547 C 158.11133 109.95511 159.35941 113.22025 161.41016 115.73047 L 167.77344 105.79492 z M 154.71289 106.26953 L 128.31055 107.23047 C 128.44304 114.59377 128.47266 121.13281 128.47266 121.13281 L 125.07031 121.15625 C 125.07031 121.15625 125.0337 114.6647 124.90234 107.35547 L 101.64844 108.20117 C 101.30198 112.52777 99.46869 116.43304 96.662109 119.33594 L 106.9668 137.93359 L 117.54883 132.0293 L 119.20898 135.00391 L 108.61719 140.91602 L 119.70703 160.93359 C 121.26901 160.44108 122.92475 160.16992 124.64258 160.16992 C 127.23029 160.16992 129.67025 160.78907 131.86523 161.86328 L 144.64258 141.91406 L 131.51367 134.76172 L 133.14648 131.77148 L 146.48633 139.03516 L 159.50977 118.69922 C 156.53927 115.48887 154.70898 111.13347 154.70898 106.35547 C 154.70898 106.32647 154.71276 106.2985 154.71289 106.26953 z M 98.230469 108.32617 L 90.714844 108.59961 L 94.923828 116.19727 C 96.71532 114.04968 97.914399 111.33867 98.230469 108.32617 z M 124.64258 163.58008 C 123.52657 163.58008 122.44584 163.7351 121.40625 164 L 125.62305 171.61133 L 130.02539 164.73633 C 128.37159 163.99277 126.55246 163.58008 124.64258 163.58008 z M 118.20898 165.26758 C 113.90861 167.67735 110.9707 172.431 110.9707 177.9668 C 110.9707 185.97376 117.11371 192.35547 124.64258 192.35547 C 132.17145 192.35547 138.3125 185.97376 138.3125 177.9668 C 138.3125 173.26729 136.18829 169.14111 132.91797 166.52344 L 125.40234 178.25586 L 118.20898 165.26758 z "
       transform="matrix(0.26458333,0,0,0.26458333,-3.6285696,90.020241)"
       id="path6015" />
  </g>
</svg>
