<?xml version="1.0" standalone="no"?>
<!DOCTYPE svg PUBLIC "-//W3C//DTD SVG 20010904//EN"
 "http://www.w3.org/TR/2001/REC-SVG-20010904/DTD/svg10.dtd">
<svg version="1.0" xmlns="http://www.w3.org/2000/svg"
 width="512.000000pt" height="512.000000pt" viewBox="0 0 512.000000 512.000000"
 preserveAspectRatio="xMidYMid meet">
<metadata>
Created by potrace 1.15, written by Peter Selinger 2001-2017
</metadata>
<g transform="translate(0.000000,512.000000) scale(0.100000,-0.100000)"
fill="#ffffff" stroke="none">
<path d="M2405 4856 c-83 -19 -159 -49 -305 -119 l-125 -59 75 -14 c105 -18
244 -60 319 -94 35 -17 69 -30 77 -30 7 0 45 29 82 65 69 65 128 163 120 202
-9 49 -135 74 -243 49z"/>
<path d="M1595 4505 c-157 -45 -298 -157 -368 -291 -20 -40 -37 -74 -37 -77 0
-2 46 4 103 15 226 41 310 50 427 45 136 -6 199 -24 289 -84 l63 -43 50 27
c80 44 141 130 189 266 11 33 11 39 -1 47 -31 19 -201 70 -286 85 -126 23
-365 29 -429 10z"/>
<path d="M4324 4346 c-70 -81 -121 -169 -149 -259 -14 -43 -25 -85 -25 -94 0
-14 82 -144 111 -177 5 -5 50 29 104 78 l95 88 0 88 c0 91 -15 155 -63 274
l-24 58 -49 -56z"/>
<path d="M3896 4019 c-9 -46 -7 -253 4 -333 l8 -69 106 -106 c58 -58 107 -103
110 -101 2 3 15 68 29 144 l24 140 -56 116 c-52 109 -59 119 -124 170 -95 75
-94 75 -101 39z"/>
<path d="M1405 4010 c-163 -34 -336 -92 -480 -160 -258 -122 -475 -387 -559
-682 -23 -81 -61 -306 -53 -315 2 -2 24 27 49 64 286 428 853 727 1459 769
l101 7 26 40 c21 32 28 55 30 112 l4 72 -47 31 c-92 61 -146 75 -300 78 -109
3 -160 -1 -230 -16z"/>
<path d="M4597 3882 c-69 -24 -89 -37 -180 -121 l-103 -94 -24 -139 c-12 -76
-21 -141 -18 -143 3 -3 65 20 137 51 l132 57 39 78 c38 75 120 297 120 325 0
19 -12 17 -103 -14z"/>
<path d="M1760 3509 c-603 -61 -1119 -399 -1370 -899 -81 -161 -90 -195 -90
-338 0 -227 48 -362 170 -481 37 -37 80 -74 97 -83 l30 -17 7 117 c27 486 296
914 775 1233 144 96 338 196 486 250 50 18 96 37 103 42 17 13 15 82 -4 120
-37 72 -38 72 -204 56z"/>
<path d="M3755 3399 c13 -193 46 -298 117 -368 42 -41 157 -106 167 -95 5 5
19 73 32 152 l23 142 -94 96 c-85 85 -147 129 -243 172 -4 2 -5 -43 -2 -99z"/>
<path d="M4519 3327 c-20 -7 -92 -37 -161 -67 l-125 -54 -22 -131 c-12 -71
-25 -142 -28 -156 -5 -26 -4 -27 44 -22 168 16 249 75 333 243 29 57 80 182
80 195 0 9 -85 3 -121 -8z"/>
<path d="M1970 3144 c-275 -98 -532 -257 -739 -458 -377 -367 -524 -804 -410
-1217 50 -183 151 -319 283 -384 68 -34 173 -65 264 -79 39 -6 43 -5 38 11 -3
10 -16 61 -28 113 -19 82 -22 124 -22 300 0 226 13 313 76 509 133 416 437
810 768 992 44 24 80 49 80 55 0 23 -61 102 -104 132 -88 63 -98 65 -206 26z"/>
<path d="M2542 2889 c-64 -11 -178 -67 -303 -150 -121 -81 -339 -298 -431
-429 -218 -309 -331 -677 -300 -973 16 -150 13 -147 86 -80 65 61 148 110 243
145 42 15 89 21 173 24 l115 4 28 37 c24 33 27 45 27 114 0 84 12 188 36 314
14 71 100 453 109 481 2 7 38 6 117 -6 l113 -16 80 55 c90 61 206 117 313 152
39 12 72 28 72 33 0 17 -66 144 -94 180 -32 43 -130 94 -213 111 -75 16 -94
17 -171 4z"/>
<path d="M3496 2723 c-3 -47 -3 -90 2 -95 5 -5 37 -13 73 -19 134 -21 369 -99
369 -123 0 -6 -18 -67 -40 -136 -22 -69 -40 -130 -40 -136 0 -10 139 -48 147
-40 2 2 19 54 37 115 19 62 36 114 39 117 8 8 148 -108 205 -171 113 -123 193
-273 232 -430 18 -70 23 -118 22 -216 l0 -127 29 -6 c16 -3 54 -18 84 -32 30
-15 58 -24 62 -20 4 4 9 73 11 154 5 168 -10 268 -59 410 -80 228 -250 444
-461 585 -62 41 -77 56 -74 72 3 11 8 47 11 81 l7 61 -72 12 c-40 6 -75 9 -78
6 -3 -3 -8 -24 -12 -48 -7 -51 -8 -51 -146 -3 -86 30 -168 49 -310 71 l-31 5
-7 -87z"/>
<path d="M3240 2732 c-41 -8 -76 -15 -78 -17 -1 -1 7 -36 19 -76 16 -55 23
-112 26 -220 l5 -146 75 -7 c42 -4 77 -5 79 -3 2 2 -5 57 -16 123 -11 65 -23
173 -27 239 l-8 120 -75 -13z"/>
<path d="M2447 2123 c-8 -38 -11 -70 -7 -73 16 -10 1453 -121 1460 -113 4 4
10 29 13 55 8 58 33 51 -263 72 -289 21 -557 48 -898 92 -150 18 -277 34 -281
34 -5 0 -16 -30 -24 -67z"/>
<path d="M2530 1828 c-77 -39 -103 -131 -57 -198 38 -56 69 -73 135 -73 102 0
162 54 162 146 0 117 -126 182 -240 125z"/>
<path d="M3038 1780 c-52 -28 -81 -73 -86 -136 -5 -64 21 -117 75 -154 52 -36
144 -36 196 0 108 74 101 232 -13 290 -50 26 -123 25 -172 0z"/>
<path d="M3576 1760 c-57 -17 -106 -85 -106 -146 0 -45 40 -102 88 -125 120
-59 266 46 233 168 -23 84 -121 131 -215 103z"/>
<path d="M4074 1739 c16 -82 26 -183 29 -302 3 -103 7 -131 20 -144 37 -37
144 -4 133 41 -25 102 -38 221 -33 319 l6 107 -42 0 c-23 0 -60 3 -81 7 l-39
6 7 -34z"/>
<path d="M2323 1400 c-42 -25 -63 -68 -63 -125 0 -86 50 -137 140 -143 98 -6
164 59 157 154 -6 87 -58 134 -149 134 -35 0 -64 -7 -85 -20z"/>
<path d="M2786 1319 c-34 -27 -56 -70 -56 -109 0 -75 57 -130 135 -130 69 0
115 30 135 88 13 37 13 47 0 84 -20 58 -66 88 -135 88 -38 0 -60 -6 -79 -21z"/>
<path d="M3689 1281 c-100 -104 -168 -307 -155 -461 17 -208 130 -437 264
-535 40 -29 55 -35 101 -35 29 0 79 7 110 15 31 7 87 19 124 25 65 10 72 9
155 -21 183 -65 188 -66 238 -39 182 96 318 448 274 709 -25 149 -139 312
-239 342 -46 14 -68 4 -186 -81 -112 -80 -155 -100 -215 -100 -68 0 -108 22
-208 115 -149 136 -186 146 -263 66z"/>
<path d="M3265 1296 c-103 -46 -112 -181 -15 -231 20 -10 49 -15 81 -13 l50 3
23 65 c12 36 30 79 39 96 15 30 15 32 -6 52 -45 42 -115 53 -172 28z"/>
<path d="M1901 1244 c-206 -55 -352 -252 -354 -474 0 -142 39 -246 129 -341
103 -107 249 -156 394 -130 119 22 234 92 301 184 l29 39 -50 45 c-95 85 -130
208 -91 318 12 33 24 68 27 77 4 12 -5 22 -34 37 -21 11 -60 43 -85 71 -43 47
-54 72 -83 178 -5 17 -114 15 -183 -4z"/>
<path d="M2540 940 c-77 -14 -124 -71 -122 -149 1 -78 60 -133 149 -138 47 -3
66 1 97 19 52 31 79 80 73 137 -10 92 -96 150 -197 131z"/>
<path d="M3012 864 c-119 -61 -115 -211 8 -275 14 -7 52 -13 86 -13 178 0 248
176 111 278 -38 28 -157 34 -205 10z"/>
<path d="M3365 510 c-42 -43 -143 -99 -179 -101 -21 0 -21 -1 -1 -9 20 -8 295
-14 295 -6 0 2 -13 33 -30 68 -16 34 -30 69 -30 76 0 21 -14 14 -55 -28z"/>
<path d="M2661 458 c-62 -32 -85 -66 -85 -128 0 -115 125 -185 237 -131 139
67 99 260 -58 277 -40 4 -59 1 -94 -18z"/>
</g>
</svg>
