<?xml version="1.0" standalone="no"?>
<!DOCTYPE svg PUBLIC "-//W3C//DTD SVG 20010904//EN"
 "http://www.w3.org/TR/2001/REC-SVG-20010904/DTD/svg10.dtd">
<svg version="1.0" xmlns="http://www.w3.org/2000/svg"
 width="512.000000pt" height="512.000000pt" viewBox="0 0 512.000000 512.000000"
 preserveAspectRatio="xMidYMid meet">
<metadata>
Created by potrace 1.15, written by Peter Selinger 2001-2017
</metadata>
<g transform="translate(0.000000,512.000000) scale(0.100000,-0.100000)"
fill="#ffffff" stroke="none">
<path d="M120 4711 l0 -199 205 -199 c387 -373 836 -850 1101 -1168 389 -469
604 -807 813 -1278 93 -211 200 -511 235 -658 l6 -26 -83 13 c-245 39 -526
136 -751 260 -65 35 -121 63 -123 60 -4 -4 72 -123 133 -209 300 -414 725
-759 1166 -945 315 -134 650 -196 931 -173 293 24 528 113 723 272 568 463
573 1404 13 2239 -217 322 -478 583 -797 797 -62 42 -115 73 -118 71 -3 -3 9
-29 26 -59 167 -283 281 -624 314 -941 l6 -57 -48 14 c-397 118 -989 369
-1290 546 -434 256 -1011 745 -1734 1471 l-367 368 -181 0 -180 0 0 -199z
m3747 -2462 c357 -49 650 -302 749 -648 34 -120 29 -137 -21 -69 -88 120 -222
212 -375 259 -109 34 -294 34 -400 1 -211 -67 -366 -196 -454 -377 -58 -121
-70 -175 -71 -320 0 -157 10 -196 31 -116 32 122 122 228 242 284 127 59 292
46 407 -33 101 -70 167 -172 188 -294 39 -227 -132 -453 -367 -485 -131 -19
-328 22 -466 96 -235 125 -394 328 -461 589 -32 124 -32 323 -1 439 123 448
550 736 999 674z"/>
</g>
</svg>
