<?xml version="1.0" standalone="no"?>
<!DOCTYPE svg PUBLIC "-//W3C//DTD SVG 20010904//EN"
 "http://www.w3.org/TR/2001/REC-SVG-20010904/DTD/svg10.dtd">
<svg version="1.0" xmlns="http://www.w3.org/2000/svg"
 width="512.000000pt" height="512.000000pt" viewBox="0 0 512.000000 512.000000"
 preserveAspectRatio="xMidYMid meet">
<metadata>
Created by potrace 1.15, written by Peter Selinger 2001-2017
</metadata>
<g transform="translate(0.000000,512.000000) scale(0.100000,-0.100000)"
fill="#ffffff" stroke="none">
<path d="M190 4762 l0 -177 1333 -1332 c1460 -1460 1376 -1383 1498 -1383 99
0 193 65 234 164 21 51 19 142 -6 196 -15 35 -309 334 -1352 1378 l-1332 1332
-187 0 -188 0 0 -178z"/>
<path d="M4068 2927 c-37 -7 -70 -15 -74 -19 -7 -7 58 -142 80 -165 8 -9 29
-9 90 -1 57 8 100 8 162 0 195 -26 321 -118 382 -280 36 -97 42 -268 13 -409
-12 -56 -25 -112 -30 -125 -8 -22 -9 -21 -25 17 -102 245 -201 473 -205 470
-2 -3 -24 -150 -47 -326 -24 -177 -45 -324 -47 -325 -2 -2 -34 40 -72 94 -38
53 -112 155 -165 227 l-95 130 -3 -75 c-2 -41 -6 -174 -10 -296 l-7 -220 -182
88 -183 88 45 62 c101 136 180 313 209 468 29 152 16 266 -43 376 -46 86 -124
149 -224 182 -115 38 -291 28 -438 -23 -76 -27 -199 -88 -199 -99 0 -6 30 -41
66 -77 l67 -67 64 29 c96 43 178 62 273 63 78 1 90 -2 140 -30 78 -44 110
-106 110 -214 0 -374 -417 -869 -860 -1020 -155 -53 -296 -45 -368 23 -90 83
-93 262 -9 457 l34 78 -73 73 -72 72 -36 -72 c-53 -103 -93 -232 -107 -337
-27 -213 50 -388 208 -471 208 -110 535 -45 831 164 35 25 65 43 68 41 2 -3
44 -87 93 -189 l89 -184 -42 -7 c-22 -3 -97 -7 -166 -7 -227 -2 -411 -13 -401
-25 5 -6 106 -81 224 -166 118 -85 214 -156 214 -157 -1 0 -149 -20 -329 -44
-181 -24 -328 -46 -328 -49 0 -3 106 -50 236 -105 129 -54 237 -102 239 -106
9 -14 -181 -44 -275 -44 -268 1 -435 128 -487 368 -15 70 -13 238 2 279 5 12
-13 27 -78 62 -46 25 -89 46 -94 46 -17 0 -34 -137 -34 -266 1 -341 169 -577
471 -661 104 -29 342 -24 485 9 705 165 1448 855 1704 1581 53 151 74 274 75
432 0 162 -15 238 -71 355 -68 142 -223 267 -388 313 -87 24 -309 31 -407 14z"/>
</g>
</svg>
