<?xml version="1.0" standalone="no"?>
<!DOCTYPE svg PUBLIC "-//W3C//DTD SVG 20010904//EN"
 "http://www.w3.org/TR/2001/REC-SVG-20010904/DTD/svg10.dtd">
<svg version="1.0" xmlns="http://www.w3.org/2000/svg"
 width="512.000000pt" height="512.000000pt" viewBox="0 0 512.000000 512.000000"
 preserveAspectRatio="xMidYMid meet">
<metadata>
Created by potrace 1.15, written by Peter Selinger 2001-2017
</metadata>
<g transform="translate(0.000000,512.000000) scale(0.100000,-0.100000)"
fill="#ffffff" stroke="none">
<path d="M1960 4946 c0 -7 23 -414 50 -902 28 -489 52 -950 55 -1024 l5 -135
-93 280 c-52 154 -203 619 -338 1033 l-243 752 -103 0 c-57 0 -103 -3 -103 -6
0 -3 56 -178 124 -388 69 -209 186 -570 261 -801 75 -231 174 -537 221 -679
46 -143 82 -261 80 -263 -2 -2 -39 40 -81 94 -121 153 -245 349 -365 578 -40
78 -70 121 -56 82 45 -128 184 -670 245 -953 65 -306 151 -818 151 -903 0 -21
0 -21 -255 434 -119 215 -281 503 -358 640 -77 138 -182 327 -235 420 -52 94
-122 220 -157 280 -34 61 -176 315 -316 565 l-254 455 -3 -198 -2 -199 124
-221 c68 -122 197 -352 286 -512 90 -159 239 -427 333 -595 94 -168 212 -379
263 -470 362 -647 422 -755 419 -758 -6 -6 -147 99 -265 197 -147 122 -390
366 -549 552 -68 79 -129 146 -134 148 -5 2 67 -147 160 -330 198 -390 278
-559 381 -799 84 -198 177 -450 157 -429 -26 29 -247 282 -440 504 -109 127
-202 232 -205 235 -3 3 -113 129 -244 280 -132 151 -250 286 -262 300 l-24 25
0 -150 0 -150 83 -95 c46 -52 236 -270 422 -485 187 -214 388 -445 447 -512
60 -68 108 -125 108 -127 0 -6 -72 15 -179 50 -121 41 -286 108 -470 193 -96
45 -176 79 -178 77 -2 -1 43 -37 99 -78 280 -206 503 -434 678 -695 l55 -82
528 -1 c415 0 527 3 527 13 0 6 -14 211 -32 455 l-32 442 -133 0 -133 0 0 98
c0 53 5 162 10 242 36 497 150 740 384 814 17 6 17 8 3 24 -25 28 -73 133 -86
186 -17 70 -15 203 4 278 35 132 128 249 232 288 117 44 251 7 338 -94 143
-168 162 -429 45 -619 -17 -27 -30 -50 -30 -52 0 -2 15 -7 33 -10 143 -31 257
-173 312 -388 35 -141 46 -250 52 -520 l6 -247 -125 0 -124 0 -29 -455 -30
-455 461 0 461 0 39 57 c57 84 217 239 348 337 119 90 317 216 474 301 50 28
92 53 92 56 0 3 -78 -14 -172 -38 -234 -59 -476 -107 -697 -137 -102 -14 -189
-26 -195 -26 -5 0 19 21 54 47 36 25 115 83 175 128 61 44 166 123 235 173 69
51 209 154 311 230 102 75 229 169 282 207 l96 70 1 123 0 123 -42 -30 c-24
-16 -196 -142 -383 -281 -187 -138 -394 -290 -460 -338 -66 -49 -173 -128
-239 -176 -65 -48 -117 -84 -115 -80 45 101 207 372 312 519 135 190 252 331
466 563 57 61 101 112 97 112 -4 0 -46 -25 -94 -55 -197 -126 -491 -258 -698
-314 -104 -27 -254 -60 -254 -55 0 3 35 49 190 250 25 32 168 218 319 414 151
195 311 402 355 460 104 134 324 419 449 580 l97 125 0 158 c0 89 -4 156 -9
153 -5 -3 -69 -83 -142 -178 -73 -95 -261 -339 -418 -543 -157 -203 -362 -469
-455 -590 -93 -121 -190 -247 -216 -280 -25 -33 -99 -130 -165 -215 -65 -85
-123 -159 -128 -165 -14 -14 0 191 23 359 27 193 81 451 135 646 47 169 169
541 205 626 25 57 20 66 -12 22 -186 -255 -395 -518 -443 -558 -17 -14 -18
-13 -12 2 6 17 273 971 308 1103 11 39 70 252 132 475 l114 405 -100 3 c-55 1
-101 1 -103 -1 -2 -2 -119 -420 -261 -929 -142 -510 -259 -925 -261 -923 -3 3
25 1510 32 1728 l5 137 -605 0 c-507 0 -604 -2 -604 -14z m117 -2088 c-3 -8
-6 -5 -6 6 -1 11 2 17 5 13 3 -3 4 -12 1 -19z"/>
</g>
</svg>
