<?xml version="1.0" standalone="no"?>
<!DOCTYPE svg PUBLIC "-//W3C//DTD SVG 20010904//EN"
 "http://www.w3.org/TR/2001/REC-SVG-20010904/DTD/svg10.dtd">
<svg version="1.0" xmlns="http://www.w3.org/2000/svg"
 width="512.000000pt" height="512.000000pt" viewBox="0 0 512.000000 512.000000"
 preserveAspectRatio="xMidYMid meet">
<metadata>
Created by potrace 1.15, written by Peter Selinger 2001-2017
</metadata>
<g transform="translate(0.000000,512.000000) scale(0.100000,-0.100000)"
fill="#ffffff" stroke="none">
<path d="M1284 4910 c-91 -47 -222 -157 -420 -354 -194 -195 -249 -263 -240
-299 3 -12 30 -51 61 -87 240 -281 285 -373 272 -555 -10 -133 -49 -254 -172
-535 -90 -204 -288 -777 -311 -897 -21 -112 -14 -345 14 -478 65 -301 189
-533 401 -746 231 -232 506 -372 855 -435 379 -68 450 -93 628 -227 106 -81
142 -100 188 -100 46 0 77 17 191 103 160 122 255 158 554 210 487 86 823 280
1074 620 233 314 338 795 248 1130 -45 167 -211 628 -300 835 -132 307 -167
430 -167 578 1 135 64 260 216 427 42 47 88 102 102 123 31 46 27 57 -54 154
-182 216 -491 492 -609 544 -58 26 -86 20 -185 -36 -174 -98 -257 -120 -440
-119 -166 2 -258 26 -429 112 -113 56 -116 57 -201 57 -85 0 -88 -1 -201 -57
-173 -87 -263 -110 -434 -112 -174 -1 -221 11 -409 105 -76 38 -146 69 -156
69 -9 0 -43 -14 -76 -30z"/>
</g>
</svg>
