<?xml version="1.0" standalone="no"?>
<!DOCTYPE svg PUBLIC "-//W3C//DTD SVG 20010904//EN"
 "http://www.w3.org/TR/2001/REC-SVG-20010904/DTD/svg10.dtd">
<svg version="1.0" xmlns="http://www.w3.org/2000/svg"
 width="512.000000pt" height="512.000000pt" viewBox="0 0 512.000000 512.000000"
 preserveAspectRatio="xMidYMid meet">
<metadata>
Created by potrace 1.15, written by Peter Selinger 2001-2017
</metadata>
<g transform="translate(0.000000,512.000000) scale(0.100000,-0.100000)"
fill="#ffffff" stroke="none">
<path d="M2396 4880 c-129 -60 -219 -229 -232 -438 -18 -271 113 -552 306
-656 41 -22 71 -30 127 -34 67 -4 79 -2 137 27 103 51 177 162 212 319 33 148
9 353 -58 502 -56 123 -171 245 -265 280 -69 26 -172 26 -227 0z"/>
<path d="M4319 4554 c-13 -14 -69 -62 -124 -106 -295 -237 -662 -438 -1100
-602 -51 -19 -75 -34 -87 -54 -27 -45 -123 -134 -177 -164 -134 -73 -281 -77
-420 -10 l-43 21 -170 -29 c-454 -79 -953 -99 -1363 -56 -66 7 -122 11 -125 8
-9 -7 116 -104 222 -170 356 -222 817 -345 1301 -346 92 0 167 -3 167 -6 0
-33 -57 -385 -81 -498 -100 -482 -244 -954 -541 -1772 -55 -151 -119 -328
-143 -395 -24 -66 -46 -128 -50 -138 -13 -32 12 -17 121 74 503 418 961 1057
1125 1567 12 39 26 72 30 72 9 0 130 -275 177 -405 91 -251 147 -484 257
-1060 25 -132 49 -249 54 -259 16 -41 134 340 180 584 141 748 54 1572 -242
2286 l-54 131 131 64 c394 192 678 471 856 842 79 165 163 447 133 447 -5 0
-20 -12 -34 -26z"/>
</g>
</svg>
