<?xml version="1.0" standalone="no"?>
<!DOCTYPE svg PUBLIC "-//W3C//DTD SVG 20010904//EN"
 "http://www.w3.org/TR/2001/REC-SVG-20010904/DTD/svg10.dtd">
<svg version="1.0" xmlns="http://www.w3.org/2000/svg"
 width="512.000000pt" height="512.000000pt" viewBox="0 0 512.000000 512.000000"
 preserveAspectRatio="xMidYMid meet">
<metadata>
Created by potrace 1.15, written by Peter Selinger 2001-2017
</metadata>
<g transform="translate(0.000000,512.000000) scale(0.100000,-0.100000)"
fill="#ffffff" stroke="none">
<path d="M2745 4955 c-145 -32 -275 -94 -389 -185 -124 -98 -211 -212 -296
-384 -95 -193 -138 -371 -147 -613 -7 -164 7 -292 45 -432 36 -132 38 -307 3
-393 -54 -138 -181 -202 -296 -149 -96 44 -188 189 -222 351 -21 102 -24 374
-5 489 7 40 11 76 8 78 -7 8 -55 -73 -117 -197 -206 -416 -250 -797 -133
-1150 105 -313 361 -595 689 -758 82 -40 216 -92 239 -92 9 0 3 26 -20 88
-132 352 -83 686 128 860 64 54 102 74 198 103 193 59 404 6 545 -137 181
-182 215 -467 98 -814 -19 -58 -40 -114 -45 -124 -10 -18 -7 -18 31 -12 61 9
242 80 326 126 315 174 504 443 566 808 15 90 12 356 -6 478 -26 177 -99 484
-115 484 -4 0 -14 -28 -24 -62 -77 -282 -217 -520 -331 -563 -56 -22 -87 -14
-119 28 -44 57 -59 144 -53 292 9 195 64 425 166 698 27 73 48 133 46 135 -2
2 -34 -20 -72 -50 -169 -136 -294 -206 -422 -239 -206 -54 -342 54 -386 307
-43 249 21 614 173 992 24 58 27 57 -63 37z"/>
<path d="M4106 2300 c-10 -49 -18 -93 -18 -97 0 -4 38 -23 84 -43 235 -102
377 -228 378 -336 0 -37 -42 -105 -101 -162 -128 -123 -417 -239 -784 -315
-913 -190 -2099 -107 -2700 188 -224 110 -324 232 -286 347 25 75 154 179 316
254 61 28 84 43 80 54 -2 8 -17 50 -32 92 -33 91 -20 89 -167 16 -127 -63
-197 -112 -267 -185 -117 -121 -145 -201 -135 -388 3 -66 13 -153 21 -194 112
-563 605 -1036 1298 -1245 277 -84 500 -116 812 -116 281 0 451 21 704 85 736
186 1284 679 1406 1263 23 110 35 307 23 372 -31 169 -208 334 -488 452 -136
58 -123 62 -144 -42z"/>
</g>
</svg>
