<?xml version="1.0" encoding="UTF-8" standalone="no"?>
<!-- Created with Inkscape (http://www.inkscape.org/) -->

<svg
   xmlns:dc="http://purl.org/dc/elements/1.1/"
   xmlns:cc="http://creativecommons.org/ns#"
   xmlns:rdf="http://www.w3.org/1999/02/22-rdf-syntax-ns#"
   xmlns:svg="http://www.w3.org/2000/svg"
   xmlns="http://www.w3.org/2000/svg"
   xmlns:sodipodi="http://sodipodi.sourceforge.net/DTD/sodipodi-0.dtd"
   xmlns:inkscape="http://www.inkscape.org/namespaces/inkscape"
   width="67.73333mm"
   height="67.73333mm"
   viewBox="0 0 67.73333 67.73333"
   version="1.1"
   id="svg6118"
   sodipodi:docname="sanctuary.svg"
   inkscape:version="0.92.4 (5da689c313, 2019-01-14)">
  <defs
     id="defs6112" />
  <sodipodi:namedview
     id="base"
     pagecolor="#ffffff"
     bordercolor="#666666"
     borderopacity="1.0"
     inkscape:pageopacity="0.0"
     inkscape:pageshadow="2"
     inkscape:zoom="1.979899"
     inkscape:cx="132.25177"
     inkscape:cy="146.91467"
     inkscape:document-units="mm"
     inkscape:current-layer="layer1"
     showgrid="false"
     inkscape:pagecheckerboard="true"
     inkscape:window-width="1850"
     inkscape:window-height="1016"
     inkscape:window-x="70"
     inkscape:window-y="27"
     inkscape:window-maximized="1" />
  <metadata
     id="metadata6115">
    <rdf:RDF>
      <cc:Work
         rdf:about="">
        <dc:format>image/svg+xml</dc:format>
        <dc:type
           rdf:resource="http://purl.org/dc/dcmitype/StillImage" />
        <dc:title></dc:title>
      </cc:Work>
    </rdf:RDF>
  </metadata>
  <g
     inkscape:label="Layer 1"
     inkscape:groupmode="layer"
     id="layer1"
     transform="translate(209.24762,-37.859524)">
    <path
       style="fill:#ffffff;fill-opacity:1;fill-rule:evenodd;stroke:none;stroke-width:1.16227353;stroke-linecap:butt;stroke-linejoin:miter;stroke-miterlimit:4;stroke-dasharray:none;stroke-opacity:1"
       d="m -176.57233,39.062276 c -4.65329,4.129899 -9.05145,6.289409 -12.11937,5.943722 -4.19635,-0.472824 -7.43788,-0.953746 -11.31251,-1.97476 0,0 -2.41957,5.207271 -2.67746,16.085545 -0.0236,0.995148 -0.0276,1.946267 -0.0159,2.857987 0.14599,11.399094 1.17117,17.629187 3.46903,22.968041 1.0866,3.246589 2.74617,5.699432 4.31127,7.709481 1.13092,1.452412 2.33502,2.554077 3.53153,3.707883 1.2112,1.167989 5.48441,2.52218 9.28845,4.100875 3.53244,1.466 5.61528,3.88981 5.61528,3.88981 0,0 2.23643,-2.50971 5.82082,-3.84189 3.73916,-1.389708 7.86615,-2.986595 9.08293,-4.148795 1.2818,-1.224309 2.63582,-2.577539 3.53846,-3.716219 1.58075,-1.994108 3.21931,-4.458518 4.30433,-7.699758 2.29829,-5.33916 3.33846,-11.569179 3.46972,-22.969428 0.012,-1.008963 0.005,-1.949915 -0.0167,-2.867708 -0.26707,-10.871341 -2.67676,-16.075824 -2.67676,-16.075824 -3.99399,0.804763 -6.81545,1.586604 -11.04309,2.154599 -4.50269,0.604961 -9.53263,-4.148378 -12.56999,-6.123561 z m 0.44925,5.677088 c 4.18947,0 7.62892,3.264887 7.62892,7.314389 0,1.500758 -0.47457,2.89221 -1.28248,4.05159 1.27841,1.200127 2.52897,2.412963 3.43917,3.393337 0.69105,0.744331 1.5099,1.707087 2.34416,2.723973 0.98185,-0.441507 2.07177,-0.69505 3.22253,-0.69505 4.18947,0 7.62893,3.266968 7.62893,7.316468 0,4.049502 -3.43946,7.313696 -7.62893,7.313696 -1.6935,0 -3.25925,-0.539811 -4.53002,-1.44288 -1.46261,1.441156 -2.86739,3.012016 -3.78703,4.492507 -0.87885,1.414844 -1.96167,3.380042 -3.01838,5.367405 1.75825,1.338984 2.89548,3.401521 2.89548,5.725696 0,4.0495 -3.44223,7.317167 -7.63172,7.317167 -4.18947,0 -7.62893,-3.267667 -7.62893,-7.317167 0,-2.647695 1.47514,-4.953861 3.66415,-6.238132 -0.98509,-1.913364 -2.17929,-3.812034 -3.56971,-5.285469 -0.93351,-0.989235 -2.1973,-2.22743 -3.51624,-3.488466 -1.35106,1.153364 -3.12358,1.858801 -5.06259,1.858801 -4.18947,0 -7.6317,-3.26697 -7.6317,-7.316474 0,-4.049494 3.44223,-7.316468 7.6317,-7.316468 0.99909,0 1.95292,0.190498 2.83021,0.528409 1.4179,-1.439334 2.89638,-2.904736 4.03216,-3.942577 0.96367,-0.880571 2.25267,-1.974556 3.57456,-3.071156 -0.77653,-1.144323 -1.23318,-2.506542 -1.23318,-3.97521 0,-4.049502 3.43945,-7.314389 7.62894,-7.314389 z m 0,1.343588 c -3.4961,0 -6.28535,2.681817 -6.28535,5.970801 0,1.142089 0.3422,2.20714 0.92766,3.116288 2.68256,-2.198669 5.21326,-4.182131 5.21326,-4.182131 l 0.43536,-0.343708 0.42008,0.364538 c 0,0 2.23638,1.948695 4.64111,4.168938 0.58849,-0.910789 0.93322,-1.978646 0.93322,-3.123925 0,-3.288984 -2.78924,-5.970801 -6.28534,-5.970801 z m 11.56803,5.23825 c 0,0 0.089,0.124174 0.14165,0.241637 0.0527,0.11746 0.10738,0.271983 0.14998,0.477721 0.085,0.411476 0.12651,1.017986 0.0312,1.923377 -0.10886,1.034137 -0.63905,1.735018 -1.13598,2.11502 -0.49693,0.379995 -1.00543,0.490913 -1.00543,0.490913 l -0.28608,-1.312341 c 0,0 0.20874,-0.04292 0.47495,-0.246497 0.26619,-0.20357 0.54591,-0.514275 0.61659,-1.185967 0.084,-0.800437 0.0363,-1.27219 -0.0132,-1.511622 -0.0248,-0.11972 -0.0483,-0.182038 -0.0576,-0.202059 -0.009,-0.02001 0.034,0.04722 0.034,0.04722 z m -23.71656,0.915861 c 0.62321,-0.02501 1.20423,0.211931 1.68729,0.577709 0.48305,0.365777 0.9022,0.892736 0.94225,1.579668 0.0297,0.509311 -0.20542,0.914239 -0.46453,1.238738 -0.25908,0.324502 -0.57273,0.593122 -0.87905,0.824206 -0.61269,0.462166 -1.22,0.774212 -1.22,0.774212 a 0.67279575,0.67279575 0 1 1 -0.61451,-1.197077 c 0,0 0.52404,-0.271763 1.02627,-0.650616 0.2511,-0.189428 0.48972,-0.40315 0.63742,-0.588123 0.14766,-0.184975 0.17408,-0.314546 0.1736,-0.322878 -0.007,-0.131942 -0.1465,-0.386567 -0.41177,-0.587427 -0.26525,-0.200858 -0.62502,-0.31553 -0.82142,-0.307602 -0.002,7.5e-5 -0.47366,0.275712 -0.80616,0.67214 -0.33249,0.396428 -0.57492,0.797821 -0.57492,0.797821 a 0.67263766,0.67263766 0 1 1 -1.15472,-0.690194 c 0,-1e-6 0.2854,-0.47815 0.69853,-0.970716 0.41314,-0.492568 0.90554,-1.114697 1.78172,-1.149861 z m 12.38946,0.170814 c -0.3267,0.256929 -2.4559,1.931812 -4.74942,3.808564 1.13836,1.114189 2.73115,1.810197 4.50849,1.810197 1.77202,0 3.36037,-0.691427 4.49806,-1.799782 -2.05608,-1.893849 -3.95637,-3.555832 -4.25713,-3.818979 z m 14.25522,3.469716 c 0.50212,-0.01007 1.05401,0.04513 1.64841,0.193727 l -0.32496,1.304008 c -1.28792,-0.32198 -2.21189,-0.100201 -2.83716,0.184006 -0.62525,0.284207 -0.89989,0.598538 -0.89989,0.598538 l -0.99987,-0.895031 c 0,0 0.48746,-0.537129 1.34358,-0.926276 0.42807,-0.194572 0.96019,-0.360691 1.58453,-0.427725 0.15609,-0.01676 0.31798,-0.02788 0.48536,-0.03125 z m -30.98652,0.333987 c 0.72545,-0.0044 1.32521,0.385776 1.84075,0.715191 0.58921,0.376475 1.03947,0.771434 1.03947,0.771434 l -0.88185,1.013071 c 0,0 -0.38939,-0.338739 -0.88183,-0.653392 -0.49245,-0.314653 -1.11557,-0.509497 -1.21513,-0.492996 -0.12577,0.02085 -0.68171,0.436881 -1.06793,0.920721 -0.38622,0.483843 -0.66173,0.952662 -0.66173,0.952662 l -1.16235,-0.674223 c 0,0 0.31636,-0.544343 0.77421,-1.11792 0.45785,-0.573575 1.00051,-1.258046 1.89769,-1.406773 0.10886,-0.01805 0.21507,-0.02714 0.3187,-0.02777 z m 10.94937,0.855452 c -1.29079,1.0696 -2.56154,2.147828 -3.52111,3.024632 -1.05618,0.965106 -2.38683,2.279946 -3.66968,3.580123 2.11431,1.299101 3.52803,3.566036 3.52803,6.158968 0,1.699314 -0.61149,3.256505 -1.62409,4.496677 1.29905,1.241101 2.56813,2.485213 3.55026,3.525962 1.60029,1.695829 2.8716,3.686361 3.86689,5.610428 0.83938,-0.305246 1.74423,-0.479802 2.69133,-0.479802 1.2978,0 2.52323,0.314774 3.59749,0.867951 0.99839,-1.889061 2.06505,-3.822565 3.01561,-5.352821 1.01494,-1.633928 2.43287,-3.251517 3.87452,-4.68832 -1.26314,-1.303435 -2.04489,-3.043836 -2.04489,-4.966759 0,-2.461272 1.27476,-4.628096 3.21211,-5.953441 -0.7559,-0.919466 -1.49895,-1.792109 -2.13654,-2.478867 -0.88452,-0.952715 -2.09379,-2.124536 -3.32321,-3.276684 -1.25551,1.243079 -2.9613,2.061733 -4.85844,2.208759 l -0.30553,6.747096 a 0.67190153,0.67190153 0 1 1 -1.34081,-0.06042 l 0.30066,-6.694322 c -1.88662,-0.172641 -3.5753,-1.013117 -4.8126,-2.269169 z m 20.8933,5.804154 c -0.83264,0 -1.62334,0.156198 -2.34764,0.432588 2.1005,2.616774 4.05368,5.225061 4.05368,5.225061 l 0.40619,0.543681 -0.54854,0.401341 c 0,0 -2.50117,1.862828 -5.11327,4.301562 1.00729,0.654714 2.22753,1.03876 3.54958,1.03876 3.4961,0 6.28534,-2.681125 6.28534,-5.970108 0,-3.288984 -2.78924,-5.972885 -6.28534,-5.972885 z m -32.18499,0.986687 c -3.49611,0 -6.28811,2.683904 -6.28811,5.972882 0,3.288984 2.792,5.972889 6.28811,5.972889 1.57076,0 2.99535,-0.545057 4.09187,-1.440105 -2.97723,-2.812586 -5.93469,-5.469472 -5.93469,-5.469472 l -0.51175,-0.459666 0.47286,-0.501331 c -1e-5,0 1.66358,-1.766377 3.67108,-3.827309 -0.56666,-0.158908 -1.16594,-0.247888 -1.78937,-0.247888 z m 28.61111,0.07082 c -1.64225,1.07936 -2.71147,2.880449 -2.71147,4.915373 0,1.55669 0.62995,2.972418 1.65883,4.03701 2.25564,-2.119063 4.36433,-3.690048 4.85218,-4.050202 -0.30091,-0.400034 -1.99096,-2.650104 -3.79954,-4.902181 z m -25.47398,0.72769 c -1.7657,1.811002 -3.27332,3.408468 -3.5704,3.723156 0.3923,0.352484 2.87417,2.577828 5.4667,5.022309 0.78383,-0.998086 1.25192,-2.232333 1.25192,-3.571097 0,-2.209352 -1.2622,-4.141174 -3.14822,-5.174368 z m 25.0039,12.98731 c 0.59683,-0.01007 1.09454,0.10579 1.49565,0.34093 0.53482,0.313519 0.83435,0.821461 0.96308,1.283178 0.2571,0.92343 -0.0111,1.782423 -0.0111,1.782423 a 0.67190153,0.67190153 0 1 1 -1.29637,-0.352043 c 0,0 0.13803,-0.622204 0.0139,-1.067924 -0.0621,-0.222861 -0.15183,-0.372392 -0.34926,-0.488136 -0.19744,-0.115676 -0.56757,-0.216208 -1.25471,-0.11804 a 0.67190153,0.67190153 0 1 1 -0.19164,-1.328312 c 0.221,-0.03156 0.43153,-0.04872 0.63048,-0.05208 z m -22.20216,0.845036 a 0.67190153,0.67190153 0 0 1 0.65825,0.918636 l -0.77143,2.017813 2.75868,-0.320099 a 0.67190153,0.67190153 0 1 1 0.15694,1.333171 l -4.9626,0.577011 1.5644,-4.088392 a 0.67190153,0.67190153 0 0 1 0.59576,-0.43814 z m 20.16768,0.957522 c 1.29581,0 2.39138,1.025696 2.39138,2.31222 0,1.286521 -1.09557,2.312217 -2.39138,2.312217 -1.29582,0 -2.39068,-1.025696 -2.39068,-2.312217 0,-1.286524 1.09486,-2.31222 2.39068,-2.31222 z m 0,1.343588 c -0.60244,0 -1.04708,0.442627 -1.04708,0.968632 0,0.526002 0.44464,0.968633 1.04708,0.968633 0.60244,0 1.0471,-0.442631 1.0471,-0.968633 0,-0.526005 -0.44466,-0.968632 -1.0471,-0.968632 z m -9.99323,3.537763 c -0.73832,0 -1.442,0.125969 -2.09766,0.34579 1.21644,2.600148 1.92332,4.92629 2.23445,6.010382 0.40549,-0.823994 1.52116,-3.103537 2.84133,-5.646538 -0.88462,-0.451734 -1.89714,-0.709634 -2.97812,-0.709634 z m -3.37459,0.935304 c -1.7537,1.061705 -2.91075,2.922129 -2.91075,5.037579 0,3.288985 2.78925,5.973574 6.28534,5.973574 3.4961,0 6.28813,-2.684589 6.28813,-5.973574 1e-5,-1.807497 -0.84667,-3.428825 -2.18654,-4.525837 -1.86899,3.567425 -3.49819,6.885268 -3.49819,6.885268 l -0.79225,1.624804 -0.45968,-1.748395 c 0,0 -0.94484,-3.496313 -2.72606,-7.273419 z"
       id="path6015-5"
       inkscape:connector-curvature="0" />
  </g>
</svg>
