<?xml version="1.0" encoding="UTF-8" standalone="no"?>
<!-- Created with Inkscape (http://www.inkscape.org/) -->

<svg
   xmlns:dc="http://purl.org/dc/elements/1.1/"
   xmlns:cc="http://creativecommons.org/ns#"
   xmlns:rdf="http://www.w3.org/1999/02/22-rdf-syntax-ns#"
   xmlns:svg="http://www.w3.org/2000/svg"
   xmlns="http://www.w3.org/2000/svg"
   xmlns:sodipodi="http://sodipodi.sourceforge.net/DTD/sodipodi-0.dtd"
   xmlns:inkscape="http://www.inkscape.org/namespaces/inkscape"
   width="67.73333mm"
   height="67.73333mm"
   viewBox="0 0 67.73333 67.73333"
   version="1.1"
   id="svg6118"
   inkscape:version="0.92.4 (5da689c313, 2019-01-14)"
   sodipodi:docname="sanctuary.svg">
  <defs
     id="defs6112" />
  <sodipodi:namedview
     id="base"
     pagecolor="#ffffff"
     bordercolor="#666666"
     borderopacity="1.0"
     inkscape:pageopacity="0.0"
     inkscape:pageshadow="2"
     inkscape:zoom="1.979899"
     inkscape:cx="132.25177"
     inkscape:cy="207.52382"
     inkscape:document-units="mm"
     inkscape:current-layer="layer1"
     showgrid="false"
     inkscape:pagecheckerboard="true"
     inkscape:window-width="1850"
     inkscape:window-height="1016"
     inkscape:window-x="70"
     inkscape:window-y="27"
     inkscape:window-maximized="1" />
  <metadata
     id="metadata6115">
    <rdf:RDF>
      <cc:Work
         rdf:about="">
        <dc:format>image/svg+xml</dc:format>
        <dc:type
           rdf:resource="http://purl.org/dc/dcmitype/StillImage" />
        <dc:title></dc:title>
      </cc:Work>
    </rdf:RDF>
  </metadata>
  <g
     inkscape:label="Layer 1"
     inkscape:groupmode="layer"
     id="layer1"
     transform="translate(209.24762,-37.859524)">
    <path
       style="fill:#ffffff;fill-opacity:1;fill-rule:evenodd;stroke:none;stroke-width:3.2692914;stroke-linecap:butt;stroke-linejoin:miter;stroke-miterlimit:4;stroke-dasharray:none;stroke-opacity:1"
       d="M 127.02539 40.40625 C 113.93643 52.023002 101.56512 58.097359 92.935547 57.125 C 81.131856 55.795022 72.013956 54.442262 61.115234 51.570312 C 61.115234 51.570312 54.309389 66.21754 53.583984 96.816406 C 53.517465 99.6156 53.506181 102.29095 53.539062 104.85547 C 53.949708 136.91932 56.833392 154.44359 63.296875 169.46094 C 66.353303 178.59307 71.021434 185.49254 75.423828 191.14648 C 78.604905 195.23189 81.991866 198.33071 85.357422 201.57617 C 88.764364 204.86155 100.78423 208.67068 111.48438 213.11133 C 121.42056 217.23491 127.2793 224.05273 127.2793 224.05273 C 127.2793 224.05273 133.57 216.99332 143.65234 213.24609 C 154.17001 209.33708 165.77858 204.84526 169.20117 201.57617 C 172.80665 198.13239 176.61532 194.32597 179.1543 191.12305 C 183.60068 185.51393 188.20971 178.58193 191.26172 169.46484 C 197.72641 154.44663 200.65226 136.92257 201.02148 104.85547 C 201.0555 102.01742 201.03659 99.370669 200.97461 96.789062 C 200.22335 66.209699 193.44531 51.570312 193.44531 51.570312 C 182.21082 53.833985 174.27449 56.033177 162.38281 57.630859 C 149.71746 59.332516 135.56905 45.962125 127.02539 40.40625 z M 128.28906 56.375 C 140.0734 56.375 149.74805 65.558611 149.74805 76.949219 C 149.74805 81.170615 148.41316 85.084551 146.14062 88.345703 C 149.73657 91.721469 153.25422 95.132984 155.81445 97.890625 C 157.75826 99.984307 160.06158 102.69239 162.4082 105.55273 C 165.16999 104.31084 168.23577 103.59766 171.47266 103.59766 C 183.257 103.59766 192.93164 112.78713 192.93164 124.17773 C 192.93164 135.56834 183.257 144.75 171.47266 144.75 C 166.70912 144.75 162.30493 143.2316 158.73047 140.69141 C 154.61633 144.74515 150.66494 149.16373 148.07812 153.32812 C 145.60604 157.30785 142.56028 162.83564 139.58789 168.42578 C 144.53358 172.19213 147.73242 177.99371 147.73242 184.53125 C 147.73242 195.92186 138.04997 205.11328 126.26562 205.11328 C 114.48129 205.11328 104.80664 195.92186 104.80664 184.53125 C 104.80664 177.08371 108.95597 170.59683 115.11328 166.98438 C 112.3424 161.60239 108.98332 156.26173 105.07227 152.11719 C 102.44646 149.33463 98.891613 145.85178 95.181641 142.30469 C 91.38133 145.54892 86.395504 147.5332 80.941406 147.5332 C 69.157066 147.5332 59.474609 138.34373 59.474609 126.95312 C 59.474609 115.56253 69.157066 106.37305 80.941406 106.37305 C 83.751659 106.37305 86.434628 106.90889 88.902344 107.85938 C 92.890645 103.81076 97.049352 99.688816 100.24414 96.769531 C 102.9548 94.292625 106.58052 91.215422 110.29883 88.130859 C 108.11456 84.912059 106.83008 81.080352 106.83008 76.949219 C 106.83008 65.558611 116.50472 56.375 128.28906 56.375 z M 128.28906 60.154297 C 118.45511 60.154297 110.60938 67.697827 110.60938 76.949219 C 110.60938 80.161736 111.57194 83.157557 113.21875 85.714844 C 120.76436 79.530337 127.88281 73.951172 127.88281 73.951172 L 129.10742 72.984375 L 130.28906 74.009766 C 130.28906 74.009766 136.57963 79.491135 143.34375 85.736328 C 144.99908 83.174422 145.96875 80.170708 145.96875 76.949219 C 145.96875 67.697827 138.12305 60.154297 128.28906 60.154297 z M 160.82812 74.888672 C 160.82812 74.888672 161.07841 75.237953 161.22656 75.568359 C 161.3748 75.898751 161.52863 76.333403 161.64844 76.912109 C 161.88768 78.069525 162.0043 79.775544 161.73633 82.322266 C 161.43015 85.23113 159.9388 87.202596 158.54102 88.271484 C 157.14323 89.34035 155.71289 89.652344 155.71289 89.652344 L 154.9082 85.960938 C 154.9082 85.960937 155.49534 85.840192 156.24414 85.267578 C 156.99294 84.694965 157.77971 83.821004 157.97852 81.931641 C 158.21474 79.680138 158.08087 78.353172 157.94141 77.679688 C 157.87148 77.342932 157.80575 77.167643 157.7793 77.111328 C 157.75397 77.055051 157.875 77.244141 157.875 77.244141 L 160.82812 74.888672 z M 94.117188 77.464844 C 95.870169 77.394492 97.504503 78.060969 98.863281 79.089844 C 100.22202 80.118718 101.40104 81.600969 101.51367 83.533203 C 101.59716 84.965814 100.93584 86.104811 100.20703 87.017578 C 99.478264 87.930349 98.596032 88.685934 97.734375 89.335938 C 96.011024 90.635939 94.302734 91.513672 94.302734 91.513672 A 1.8924666 1.8924666 0 1 1 92.574219 88.146484 C 92.574219 88.146484 94.048226 87.382059 95.460938 86.316406 C 96.167255 85.783576 96.838461 85.18241 97.253906 84.662109 C 97.669276 84.141804 97.743547 83.777339 97.742188 83.753906 C 97.720569 83.382772 97.330139 82.666553 96.583984 82.101562 C 95.83783 81.536581 94.82589 81.214029 94.273438 81.236328 C 94.268146 81.23654 92.941141 82.011864 92.005859 83.126953 C 91.070615 84.242042 90.388672 85.371094 90.388672 85.371094 A 1.8920234 1.8920234 0 1 1 87.140625 83.429688 C 87.140625 83.429687 87.943415 82.084729 89.105469 80.699219 C 90.26756 79.313704 91.652633 77.563754 94.117188 77.464844 z M 128.9668 77.945312 C 128.04781 78.668014 122.05872 83.379198 115.60742 88.658203 C 118.80945 91.792241 123.28972 93.75 128.28906 93.75 C 133.27349 93.75 137.7413 91.805127 140.94141 88.6875 C 135.15798 83.360404 129.8128 78.685504 128.9668 77.945312 z M 169.06445 87.705078 C 170.47685 87.67666 172.02924 87.832017 173.70117 88.25 L 172.78711 91.917969 C 169.16439 91.012288 166.56541 91.63612 164.80664 92.435547 C 163.04791 93.234977 162.27539 94.119141 162.27539 94.119141 L 159.46289 91.601562 C 159.46289 91.601563 160.83406 90.090702 163.24219 88.996094 C 164.44627 88.448792 165.94306 87.981529 167.69922 87.792969 C 168.13826 87.745824 168.59365 87.714551 169.06445 87.705078 z M 81.904297 88.644531 C 83.944856 88.632179 85.631874 89.729657 87.082031 90.65625 C 88.739354 91.715213 90.005859 92.826172 90.005859 92.826172 L 87.525391 95.675781 C 87.525391 95.675781 86.430081 94.722958 85.044922 93.837891 C 83.659725 92.952824 81.907016 92.404759 81.626953 92.451172 C 81.273189 92.509815 79.709434 93.680049 78.623047 95.041016 C 77.536659 96.401986 76.761719 97.720703 76.761719 97.720703 L 73.492188 95.824219 C 73.492188 95.824219 74.382048 94.293065 75.669922 92.679688 C 76.957796 91.066313 78.484185 89.141005 81.007812 88.722656 C 81.314039 88.671893 81.612788 88.646296 81.904297 88.644531 z M 112.70312 91.050781 C 109.07234 94.059398 105.4979 97.092282 102.79883 99.558594 C 99.827933 102.27328 96.085026 105.97172 92.476562 109.62891 C 98.423776 113.28308 102.40039 119.65961 102.40039 126.95312 C 102.40039 131.73302 100.68033 136.11315 97.832031 139.60156 C 101.48608 143.09258 105.05579 146.59207 107.81836 149.51953 C 112.31973 154.28963 115.89574 159.88868 118.69531 165.30078 C 121.05636 164.44217 123.60155 163.95117 126.26562 163.95117 C 129.91612 163.95117 133.36305 164.83658 136.38477 166.39258 C 139.19309 161.07895 142.19344 155.64031 144.86719 151.33594 C 147.72209 146.73996 151.71048 142.18994 155.76562 138.14844 C 152.2126 134.48208 150.01367 129.58661 150.01367 124.17773 C 150.01367 117.25456 153.59939 111.15963 159.04883 107.43164 C 156.92261 104.84533 154.83252 102.39072 153.03906 100.45898 C 150.55105 97.779145 147.14961 94.482998 143.69141 91.242188 C 140.15989 94.738772 135.36172 97.041517 130.02539 97.455078 L 129.16602 116.43359 A 1.8899528 1.8899528 0 1 1 125.39453 116.26367 L 126.24023 97.433594 C 120.93343 96.947986 116.18345 94.58386 112.70312 91.050781 z M 171.47266 107.37695 C 169.13062 107.37695 166.9065 107.81631 164.86914 108.59375 C 170.77749 115.95432 176.27148 123.29102 176.27148 123.29102 L 177.41406 124.82031 L 175.87109 125.94922 C 175.87109 125.94922 168.83569 131.18906 161.48828 138.04883 C 164.32159 139.89044 167.75399 140.9707 171.47266 140.9707 C 181.30665 140.9707 189.15234 133.42912 189.15234 124.17773 C 189.15234 114.92634 181.30665 107.37695 171.47266 107.37695 z M 80.941406 110.15234 C 71.107416 110.15234 63.253906 117.70174 63.253906 126.95312 C 63.253906 136.20451 71.107416 143.75391 80.941406 143.75391 C 85.359699 143.75391 89.366827 142.22075 92.451172 139.70312 C 84.076675 131.79176 75.757812 124.31836 75.757812 124.31836 L 74.318359 123.02539 L 75.648438 121.61523 C 75.648437 121.61523 80.327847 116.64669 85.974609 110.84961 C 84.380678 110.40263 82.694998 110.15234 80.941406 110.15234 z M 161.41992 110.35156 C 156.80054 113.38763 153.79297 118.45381 153.79297 124.17773 C 153.79297 128.55645 155.56491 132.53867 158.45898 135.5332 C 164.80376 129.57261 170.73519 125.15368 172.10742 124.14062 C 171.261 123.01539 166.50718 116.6863 161.41992 110.35156 z M 89.765625 112.39844 C 84.798978 117.4925 80.558332 121.98592 79.722656 122.87109 C 80.826138 123.86257 87.807261 130.12211 95.099609 136.99805 C 97.304398 134.19059 98.621094 130.71885 98.621094 126.95312 C 98.621094 120.73856 95.070711 115.30465 89.765625 112.39844 z M 160.09766 148.92969 C 161.77643 148.90142 163.17641 149.22726 164.30469 149.88867 C 165.80905 150.77055 166.65159 152.19931 167.01367 153.49805 C 167.73685 156.09551 166.98242 158.51172 166.98242 158.51172 A 1.8899528 1.8899528 0 1 1 163.33594 157.52148 C 163.33594 157.52148 163.72423 155.77132 163.375 154.51758 C 163.20027 153.89071 162.94794 153.4701 162.39258 153.14453 C 161.83721 152.81915 160.79609 152.53637 158.86328 152.8125 A 1.8899528 1.8899528 0 1 1 158.32422 149.07617 C 158.94586 148.98737 159.53807 148.93911 160.09766 148.92969 z M 97.646484 151.30664 A 1.8899528 1.8899528 0 0 1 99.498047 153.89062 L 97.328125 159.56641 L 105.08789 158.66602 A 1.8899528 1.8899528 0 1 1 105.5293 162.41602 L 91.570312 164.03906 L 95.970703 152.53906 A 1.8899528 1.8899528 0 0 1 97.646484 151.30664 z M 154.375 154 C 158.0199 154 161.10156 156.88512 161.10156 160.50391 C 161.10156 164.12269 158.0199 167.00781 154.375 167.00781 C 150.73006 167.00781 147.65039 164.12269 147.65039 160.50391 C 147.65039 156.88512 150.73006 154 154.375 154 z M 154.375 157.7793 C 152.68041 157.7793 151.42969 159.02434 151.42969 160.50391 C 151.42969 161.98347 152.68041 163.22852 154.375 163.22852 C 156.06955 163.22852 157.32031 161.98347 157.32031 160.50391 C 157.32031 159.02434 156.06955 157.7793 154.375 157.7793 z M 126.26562 167.73047 C 124.18886 167.73047 122.20949 168.0848 120.36523 168.70312 C 123.78685 176.01695 125.77522 182.56001 126.65039 185.60938 C 127.79096 183.29163 130.92915 176.87962 134.64258 169.72656 C 132.15432 168.4559 129.30622 167.73047 126.26562 167.73047 z M 116.77344 170.36133 C 111.84055 173.34774 108.58594 178.58082 108.58594 184.53125 C 108.58594 193.78264 116.43164 201.33398 126.26562 201.33398 C 136.09958 201.33398 143.95312 193.78264 143.95312 184.53125 C 143.95313 179.44705 141.5716 174.8865 137.80273 171.80078 C 132.54556 181.8354 127.96289 191.16797 127.96289 191.16797 L 125.73438 195.73828 L 124.44141 190.82031 C 124.44141 190.82031 121.78372 180.98575 116.77344 170.36133 z "
       transform="matrix(0.26458333,0,0,0.26458333,-209.24762,37.859524)"
       id="path6015-5" />
  </g>
</svg>
