<?xml version="1.0" standalone="no"?>
<!DOCTYPE svg PUBLIC "-//W3C//DTD SVG 20010904//EN"
 "http://www.w3.org/TR/2001/REC-SVG-20010904/DTD/svg10.dtd">
<svg version="1.0" xmlns="http://www.w3.org/2000/svg"
 width="512.000000pt" height="512.000000pt" viewBox="0 0 512.000000 512.000000"
 preserveAspectRatio="xMidYMid meet">
<metadata>
Created by potrace 1.15, written by Peter Selinger 2001-2017
</metadata>
<g transform="translate(0.000000,512.000000) scale(0.100000,-0.100000)"
fill="#ffffff" stroke="none">
<path d="M2410 4930 c-284 -19 -553 -82 -795 -185 -630 -269 -1111 -792 -1322
-1435 -93 -284 -129 -521 -119 -800 13 -384 90 -691 258 -1025 465 -926 1499
-1440 2533 -1258 50 8 94 19 98 23 5 4 -24 18 -65 30 -40 12 -107 38 -148 57
l-75 35 -175 3 c-185 2 -314 19 -482 61 -322 80 -643 252 -878 469 l-45 42
445 149 445 149 -160 7 c-88 5 -351 11 -585 14 l-425 7 -43 67 c-70 112 -201
384 -190 395 2 2 307 13 678 26 371 12 678 25 682 28 4 4 -325 89 -731 190
l-739 183 -7 83 c-8 96 -3 430 7 440 3 4 371 -98 817 -225 447 -127 816 -230
820 -228 5 2 -67 48 -161 103 -93 55 -234 138 -311 184 -78 46 -191 113 -252
149 -60 35 -146 86 -190 112 -130 77 -290 171 -457 270 l-157 92 16 42 c50
131 157 329 240 443 l30 43 539 -378 c920 -646 999 -700 1003 -696 2 2 -12 23
-31 46 -19 24 -196 243 -394 487 -197 245 -390 483 -428 530 -38 47 -125 154
-193 238 -67 83 -123 154 -123 157 0 12 244 167 346 219 100 50 273 122 279
115 3 -4 253 -417 322 -533 33 -55 178 -296 323 -535 144 -239 272 -450 283
-469 12 -19 22 -30 24 -24 2 6 -49 206 -112 444 -64 239 -164 609 -221 823
-57 214 -101 392 -98 395 3 3 79 5 168 4 217 -2 537 -56 557 -93 4 -8 40 -184
79 -390 39 -206 93 -492 121 -635 28 -143 60 -311 71 -372 12 -62 24 -113 28
-113 5 0 18 101 116 910 25 206 48 381 50 388 13 43 338 -221 505 -409 l58
-66 -44 -259 c-25 -142 -64 -373 -88 -511 -24 -139 -41 -253 -38 -253 3 0 89
153 191 340 102 187 188 340 191 340 12 0 81 -164 124 -294 110 -329 133 -656
73 -1008 -10 -60 -9 -75 10 -140 27 -91 52 -221 52 -270 0 -21 3 -38 8 -38 9
0 73 167 106 280 65 221 90 408 90 660 0 293 -29 474 -119 748 -113 341 -275
615 -518 876 -477 512 -1177 792 -1867 746z"/>
<path d="M3472 2641 c173 -159 208 -419 93 -681 -91 -206 -292 -411 -493 -502
-90 -41 -241 -78 -316 -78 -198 1 -364 98 -446 262 -22 44 -40 89 -40 99 0 10
-4 20 -9 24 -27 16 -32 -293 -7 -427 45 -238 144 -426 316 -599 238 -240 523
-350 869 -336 281 11 530 115 733 306 261 244 391 583 359 932 -6 64 -20 151
-31 193 -97 381 -375 680 -750 808 -94 32 -228 58 -298 58 l-45 0 65 -59z"/>
<path d="M3085 2584 c-11 -2 -45 -9 -75 -15 -221 -45 -453 -255 -543 -491 -27
-73 -31 -96 -31 -188 -1 -90 2 -113 23 -158 113 -249 499 -223 775 53 143 143
219 306 220 470 1 194 -107 316 -293 330 -31 2 -65 2 -76 -1z m-19 -230 c140
-66 74 -313 -108 -404 -74 -36 -127 -39 -188 -7 -79 39 -99 116 -59 222 55
146 238 244 355 189z"/>
</g>
</svg>
