<?xml version="1.0" standalone="no"?>
<!DOCTYPE svg PUBLIC "-//W3C//DTD SVG 20010904//EN"
 "http://www.w3.org/TR/2001/REC-SVG-20010904/DTD/svg10.dtd">
<svg version="1.0" xmlns="http://www.w3.org/2000/svg"
 width="512.000000pt" height="512.000000pt" viewBox="0 0 512.000000 512.000000"
 preserveAspectRatio="xMidYMid meet">
<metadata>
Created by potrace 1.15, written by Peter Selinger 2001-2017
</metadata>
<g transform="translate(0.000000,512.000000) scale(0.100000,-0.100000)"
fill="#ffffff" stroke="none">
<path d="M920 4720 l0 -210 1665 0 1665 0 0 210 0 210 -1665 0 -1665 0 0 -210z"/>
<path d="M1190 2555 l0 -1775 115 0 115 0 0 1775 0 1775 -115 0 -115 0 0
-1775z"/>
<path d="M1660 4291 c0 -128 69 -510 126 -700 144 -476 393 -821 652 -901 71
-22 179 -26 252 -9 325 75 628 563 755 1214 24 128 55 353 55 407 l0 28 -920
0 -920 0 0 -39z"/>
<path d="M3750 2555 l0 -1775 115 0 115 0 0 1775 0 1775 -115 0 -115 0 0
-1775z"/>
<path d="M2466 2464 c-184 -44 -379 -238 -521 -514 -155 -303 -244 -648 -289
-1117 l-5 -53 926 0 926 0 -7 92 c-22 297 -100 647 -201 898 -89 221 -195 391
-325 520 -100 100 -172 145 -272 171 -84 22 -150 23 -232 3z"/>
<path d="M920 390 l0 -210 1665 0 1665 0 0 210 0 210 -1665 0 -1665 0 0 -210z"/>
</g>
</svg>
