<?xml version="1.0" standalone="no"?>
<!DOCTYPE svg PUBLIC "-//W3C//DTD SVG 20010904//EN"
 "http://www.w3.org/TR/2001/REC-SVG-20010904/DTD/svg10.dtd">
<svg version="1.0" xmlns="http://www.w3.org/2000/svg"
 width="512.000000pt" height="512.000000pt" viewBox="0 0 512.000000 512.000000"
 preserveAspectRatio="xMidYMid meet">
<metadata>
Created by potrace 1.15, written by Peter Selinger 2001-2017
</metadata>
<g transform="translate(0.000000,512.000000) scale(0.100000,-0.100000)"
fill="#ffffff" stroke="none">
<path d="M1545 4892 c-87 -41 -145 -140 -152 -262 -10 -141 46 -274 167 -403
42 -45 60 -74 65 -101 9 -46 57 -104 102 -122 18 -8 54 -14 81 -14 95 0 133
74 94 185 l-21 61 20 74 c84 322 -25 583 -249 597 -51 3 -77 -1 -107 -15z"/>
<path d="M4127 4806 c-59 -16 -98 -53 -142 -131 -114 -202 -59 -367 100 -301
70 29 188 163 224 254 52 129 -39 218 -182 178z"/>
<path d="M3725 4143 c-22 -20 -125 -120 -230 -223 -443 -436 -644 -580 -945
-679 -319 -104 -687 -78 -1117 79 -75 27 -138 48 -140 47 -1 -2 5 -25 13 -52
59 -193 58 -370 -3 -490 -44 -85 -162 -172 -279 -204 -34 -10 -43 -8 -69 11
-103 75 -169 147 -370 406 -26 34 -50 60 -52 58 -5 -4 23 -335 38 -451 31
-249 90 -455 191 -665 221 -463 583 -747 1148 -900 219 -59 623 -98 885 -86
283 13 543 73 813 188 529 224 975 671 1195 1199 47 111 91 238 86 243 -2 2
-40 -2 -84 -10 -86 -14 -185 -18 -185 -7 0 3 34 72 76 152 42 80 112 215 156
299 44 83 77 152 74 152 -5 0 -160 -71 -364 -166 l-73 -34 6 38 c18 109 85
348 151 539 41 119 72 218 70 220 -5 6 -290 -218 -680 -535 -191 -156 -358
-282 -367 -276 -21 13 -41 117 -46 239 -8 198 21 406 109 768 22 93 38 170 36
172 -1 2 -21 -13 -43 -32z m588 -995 c-73 -363 -13 -610 169 -696 35 -17 72
-33 83 -37 20 -6 20 -7 1 -21 -54 -39 -130 -58 -236 -59 -98 0 -108 2 -159 30
-63 34 -114 98 -132 165 -19 65 -14 175 10 264 12 43 20 80 18 83 -2 2 -24
-22 -48 -54 -88 -117 -197 -241 -329 -373 -256 -257 -504 -420 -755 -496 -123
-37 -295 -40 -400 -7 -137 44 -272 147 -350 269 -47 73 -100 180 -115 231 -7
24 -17 43 -21 43 -4 0 -10 -19 -14 -42 -4 -24 -21 -80 -36 -125 -71 -201 -194
-333 -358 -383 -77 -24 -202 -26 -286 -5 -224 56 -440 259 -529 497 l-26 68
46 -35 c162 -124 341 -187 529 -188 97 -1 120 3 195 29 134 47 252 138 333
256 39 57 103 191 119 251 6 26 15 47 18 47 4 0 28 -31 54 -70 247 -361 600
-480 1020 -343 103 34 359 164 485 247 162 105 496 360 671 510 36 31 65 56
65 56 1 0 -9 -51 -22 -112z"/>
<path d="M275 3708 c-36 -19 -67 -52 -87 -92 -42 -81 -2 -232 75 -282 50 -34
78 -36 127 -11 63 32 85 80 84 177 -2 130 -59 220 -138 220 -22 0 -50 -6 -61
-12z"/>
<path d="M4300 1460 c155 -132 190 -216 135 -327 -114 -227 -636 -410 -1367
-480 -217 -20 -750 -23 -963 -5 -749 64 -1301 255 -1411 487 -13 28 -24 67
-24 88 0 71 49 152 128 213 58 44 39 43 -85 -5 -327 -128 -511 -280 -530 -439
-18 -156 106 -301 368 -431 311 -155 739 -256 1339 -318 251 -26 1085 -26
1339 0 926 94 1551 318 1687 606 68 143 -10 310 -202 434 -108 70 -316 166
-414 192 l-25 6 25 -21z"/>
</g>
</svg>
