<?xml version="1.0" standalone="no"?>
<!DOCTYPE svg PUBLIC "-//W3C//DTD SVG 20010904//EN"
 "http://www.w3.org/TR/2001/REC-SVG-20010904/DTD/svg10.dtd">
<svg version="1.0" xmlns="http://www.w3.org/2000/svg"
 width="512.000000pt" height="512.000000pt" viewBox="0 0 512.000000 512.000000"
 preserveAspectRatio="xMidYMid meet">
<metadata>
Created by potrace 1.15, written by Peter Selinger 2001-2017
</metadata>
<g transform="translate(0.000000,512.000000) scale(0.100000,-0.100000)"
fill="#ffffff" stroke="none">
<path d="M1081 4785 c-183 -40 -335 -120 -469 -249 -158 -150 -254 -337 -287
-555 -18 -114 -7 -286 25 -400 91 -324 353 -586 675 -672 152 -41 420 -36 539
11 l30 11 -90 90 -89 89 347 347 348 348 59 -59 60 -59 7 27 c4 16 4 90 1 165
-4 107 -11 155 -32 226 -103 348 -380 608 -727 679 -95 20 -307 20 -397 1z"/>
<path d="M1879 3342 l-234 -232 435 -435 435 -435 -115 -115 c-63 -63 -111
-117 -108 -120 7 -7 1150 -236 1155 -232 4 5 -226 1149 -232 1156 -3 3 -57
-46 -120 -109 l-114 -114 -100 97 c-56 54 -251 249 -435 434 l-334 337 -233
-232z"/>
<path d="M3535 2218 c11 -49 133 -663 131 -665 0 -1 -163 31 -361 71 -198 41
-375 76 -392 80 l-33 6 0 -695 0 -695 960 0 960 0 0 960 0 960 -635 0 -635 0
5 -22z"/>
</g>
</svg>
