<?xml version="1.0" standalone="no"?>
<!DOCTYPE svg PUBLIC "-//W3C//DTD SVG 20010904//EN"
 "http://www.w3.org/TR/2001/REC-SVG-20010904/DTD/svg10.dtd">
<svg version="1.0" xmlns="http://www.w3.org/2000/svg"
 width="512.000000pt" height="512.000000pt" viewBox="0 0 512.000000 512.000000"
 preserveAspectRatio="xMidYMid meet">
<metadata>
Created by potrace 1.15, written by Peter Selinger 2001-2017
</metadata>
<g transform="translate(0.000000,512.000000) scale(0.100000,-0.100000)"
fill="#ffffff" stroke="none">
<path d="M2275 4909 c-527 -25 -1042 -111 -1592 -266 l-93 -26 0 -276 c0 -381
22 -660 80 -1008 232 -1385 883 -2498 1784 -3046 l110 -67 45 27 c408 235 785
602 1088 1058 450 678 762 1597 853 2515 18 188 30 501 23 648 l-6 143 -32 13
c-58 24 -456 125 -635 160 -358 71 -681 110 -1056 126 -262 11 -318 11 -569
-1z m800 -209 c411 -36 749 -93 1162 -197 l143 -35 0 -107 c0 -361 -52 -805
-141 -1201 -267 -1198 -864 -2183 -1619 -2671 l-56 -36 -90 60 c-581 389
-1041 1023 -1342 1852 -178 488 -293 1028 -332 1555 -11 159 -17 537 -7 546
16 16 458 116 726 164 157 28 399 57 571 70 80 6 168 12 195 14 94 7 670 -3
790 -14z"/>
<path d="M2435 3935 c-77 -344 -144 -625 -150 -625 -5 1 -107 54 -225 120
-118 65 -216 117 -218 115 -2 -2 55 -110 128 -240 72 -130 130 -238 128 -239
-2 -2 -502 -144 -875 -248 -18 -5 -33 -12 -33 -16 0 -4 71 -27 158 -51 470
-132 732 -208 737 -213 4 -3 -37 -84 -91 -179 -53 -96 -113 -203 -132 -238
-21 -39 -30 -62 -21 -59 8 3 111 60 229 126 183 103 216 118 222 104 4 -9 46
-190 93 -402 157 -705 190 -850 195 -850 3 0 26 96 52 212 180 807 229 1025
236 1040 8 18 -2 23 315 -156 76 -43 140 -77 142 -74 3 2 -54 109 -126 237
-71 128 -128 235 -126 237 2 2 107 33 233 69 126 35 329 93 451 127 123 35
223 65 223 68 0 3 -206 63 -458 134 -251 71 -458 130 -460 132 -2 1 56 109
128 239 73 130 130 238 127 241 -2 3 -101 -49 -219 -116 -118 -66 -219 -120
-224 -120 -5 0 -72 281 -149 625 -77 344 -142 625 -145 625 -3 0 -68 -281
-145 -625z"/>
</g>
</svg>
