<?xml version="1.0" standalone="no"?>
<!DOCTYPE svg PUBLIC "-//W3C//DTD SVG 20010904//EN"
 "http://www.w3.org/TR/2001/REC-SVG-20010904/DTD/svg10.dtd">
<svg version="1.0" xmlns="http://www.w3.org/2000/svg"
 width="512.000000pt" height="512.000000pt" viewBox="0 0 512.000000 512.000000"
 preserveAspectRatio="xMidYMid meet">
<metadata>
Created by potrace 1.15, written by Peter Selinger 2001-2017
</metadata>
<g transform="translate(0.000000,512.000000) scale(0.100000,-0.100000)"
fill="#ffffff" stroke="none">
<path d="M250 4241 l0 -700 36 -118 c328 -1090 775 -1613 1548 -1813 114 -29
360 -70 424 -70 l34 0 -6 62 c-4 35 -13 189 -21 342 -9 154 -17 282 -19 284
-3 2 -71 -12 -152 -32 -81 -20 -148 -35 -149 -34 -4 6 -35 138 -35 151 0 9 51
26 165 53 l165 39 0 185 c0 102 -3 229 -7 282 l-6 97 -46 5 c-25 3 -107 13
-181 22 -74 9 -246 35 -382 58 l-248 42 0 -28 0 -28 -90 0 -90 0 0 160 0 160
90 0 90 0 0 -30 c0 -16 4 -30 9 -30 4 0 136 16 292 34 157 19 353 41 437 47
l152 13 37 74 c50 102 128 179 234 231 117 58 204 74 357 68 68 -3 125 -7 127
-9 3 -2 10 -88 17 -191 l12 -186 50 -6 c28 -3 183 -21 345 -40 162 -19 298
-35 303 -35 4 0 8 14 8 30 l0 30 90 0 90 0 0 -160 0 -160 -90 0 c-89 0 -90 0
-90 25 0 14 -6 25 -12 25 -7 0 -98 -15 -203 -34 -104 -19 -251 -42 -325 -52
-74 -9 -139 -21 -144 -25 -8 -7 5 -275 25 -501 l12 -127 53 -12 c30 -7 54 -17
54 -23 0 -6 -7 -44 -17 -84 -16 -68 -19 -73 -40 -67 -16 4 -23 1 -23 -9 0 -60
103 -532 120 -549 11 -13 187 38 315 90 230 93 428 226 601 404 268 276 453
619 645 1194 l64 190 3 728 3 727 -817 0 -816 0 5 -22 c7 -30 26 -171 29 -225
3 -40 2 -41 -32 -47 -19 -3 -59 -6 -87 -6 l-53 0 -1 53 c0 28 -8 95 -17 147
l-17 95 -516 3 -516 2 -16 -99 c-10 -55 -17 -123 -17 -151 l0 -50 -90 0 -90 0
5 58 c9 91 26 213 32 228 4 12 -114 14 -806 14 l-811 0 0 -699z m1746 169 c23
-10 95 -68 160 -129 89 -84 138 -121 193 -149 l75 -37 136 0 136 0 75 37 c55
28 104 65 193 149 137 129 180 153 276 152 122 0 220 -58 250 -146 30 -92 -58
-207 -159 -207 -66 0 -146 62 -158 122 -3 16 -8 28 -12 28 -4 0 -49 -39 -101
-88 -111 -102 -138 -122 -217 -161 -173 -86 -393 -86 -566 0 -79 39 -106 59
-217 161 -52 49 -97 88 -101 88 -4 0 -9 -12 -12 -28 -12 -60 -92 -122 -158
-122 -70 0 -139 57 -159 131 -42 155 187 279 366 199z"/>
<path d="M2743 3593 c-22 -4 -22 -5 -17 -191 9 -312 24 -369 107 -411 26 -13
49 -22 50 -20 3 4 -6 241 -18 487 l-7 142 -47 -1 c-25 -1 -56 -4 -68 -6z"/>
<path d="M2496 3467 c-20 -24 -46 -66 -58 -93 -22 -47 -23 -61 -26 -384 -4
-322 8 -762 28 -1110 17 -284 62 -915 66 -919 12 -13 851 -157 860 -148 2 2
-18 51 -45 108 -231 490 -368 1046 -411 1669 -15 217 -12 206 -57 215 -102 18
-192 84 -238 175 -41 81 -55 162 -62 353 -3 97 -10 177 -14 177 -4 0 -24 -19
-43 -43z"/>
<path d="M1467 994 c-91 -28 -157 -122 -221 -315 -32 -93 -84 -326 -102 -451
l-6 -48 171 0 171 0 0 55 c0 107 39 223 92 272 54 51 123 64 233 44 101 -18
361 -49 760 -91 603 -63 844 -99 1094 -165 69 -19 127 -32 129 -30 5 5 -39
167 -53 196 -24 45 -66 89 -104 108 -55 28 -143 47 -421 91 -533 84 -883 154
-1350 270 -332 83 -333 83 -393 64z"/>
<path d="M947 565 c-176 -88 -286 -218 -287 -337 l0 -48 150 0 c147 0 150 0
155 23 2 12 14 76 25 142 12 66 27 145 35 176 25 95 23 96 -78 44z"/>
<path d="M1685 368 c-36 -28 -65 -92 -65 -145 l0 -43 955 0 c525 0 955 2 955
4 0 8 -219 56 -345 76 -246 37 -510 64 -1034 105 -405 31 -430 31 -466 3z"/>
</g>
</svg>
