<?xml version="1.0" standalone="no"?>
<!DOCTYPE svg PUBLIC "-//W3C//DTD SVG 20010904//EN"
 "http://www.w3.org/TR/2001/REC-SVG-20010904/DTD/svg10.dtd">
<svg version="1.0" xmlns="http://www.w3.org/2000/svg"
 width="512.000000pt" height="512.000000pt" viewBox="0 0 512.000000 512.000000"
 preserveAspectRatio="xMidYMid meet">
<metadata>
Created by potrace 1.15, written by Peter Selinger 2001-2017
</metadata>
<g transform="translate(0.000000,512.000000) scale(0.100000,-0.100000)"
fill="#ffffff" stroke="none">
<path d="M1211 4894 c-88 -23 -168 -73 -247 -152 -60 -60 -84 -93 -124 -175
-76 -154 -93 -231 -93 -412 0 -122 4 -165 22 -229 25 -95 72 -201 118 -264 32
-46 31 -61 -6 -62 -36 0 -162 -74 -223 -130 -263 -241 -393 -784 -393 -1640
l0 -105 212 -3 c211 -2 213 -3 217 -25 3 -12 28 -344 56 -737 28 -393 53 -725
56 -737 l4 -23 545 0 544 0 5 42 c6 44 96 1415 96 1456 l0 22 207 0 206 0 -7
313 c-8 352 -18 511 -47 709 -72 506 -255 791 -557 868 l-43 11 21 32 c42 63
100 193 121 272 31 116 32 325 1 450 -53 214 -183 393 -344 474 -117 58 -239
74 -347 45z"/>
<path d="M3613 4895 c-112 -31 -209 -96 -289 -193 -230 -279 -245 -741 -34
-1048 l29 -41 -60 -21 c-34 -12 -86 -36 -116 -54 -67 -40 -176 -154 -221 -231
-111 -186 -188 -463 -227 -817 -16 -148 -35 -506 -35 -667 l0 -103 155 0 c85
0 155 4 155 8 0 4 -23 34 -52 66 l-52 59 12 281 c16 383 52 610 131 824 29 78
91 217 94 210 1 -1 -1 -313 -6 -693 l-8 -690 58 -793 58 -792 435 1 c239 0
429 3 422 6 -7 3 -156 31 -330 62 l-317 58 -7 49 c-25 175 -77 769 -98 1124
-15 242 -20 897 -9 1115 10 206 31 458 55 656 l17 135 109 60 c60 32 114 62
120 66 7 4 -9 29 -40 64 -63 71 -123 184 -154 290 -33 114 -33 343 0 457 101
351 384 531 639 406 37 -18 73 -35 78 -37 23 -10 -64 72 -111 104 -112 77
-286 112 -401 79z"/>
<path d="M4377 3003 c2 -104 6 -434 9 -735 l6 -548 116 0 115 0 -6 293 c-8
416 -44 679 -127 928 -37 113 -97 249 -109 249 -3 0 -5 -84 -4 -187z"/>
</g>
</svg>
