<?xml version="1.0" standalone="no"?>
<!DOCTYPE svg PUBLIC "-//W3C//DTD SVG 20010904//EN"
 "http://www.w3.org/TR/2001/REC-SVG-20010904/DTD/svg10.dtd">
<svg version="1.0" xmlns="http://www.w3.org/2000/svg"
 width="512.000000pt" height="512.000000pt" viewBox="0 0 512.000000 512.000000"
 preserveAspectRatio="xMidYMid meet">
<metadata>
Created by potrace 1.15, written by Peter Selinger 2001-2017
</metadata>
<g transform="translate(0.000000,512.000000) scale(0.100000,-0.100000)"
fill="#ffffff" stroke="none">
<path d="M2031 4699 c-341 -44 -698 -203 -1006 -448 -96 -76 -278 -259 -355
-356 -104 -132 -198 -281 -276 -440 -142 -292 -214 -588 -214 -888 0 -127 8
-139 29 -47 34 143 129 364 238 553 79 137 220 315 357 452 261 260 535 432
857 539 199 67 305 86 509 93 200 7 323 -8 494 -59 290 -85 563 -286 734 -539
l31 -46 -81 29 c-397 140 -912 41 -1303 -252 -442 -331 -715 -828 -732 -1335
-3 -82 -3 -148 0 -145 3 3 20 50 37 105 95 296 252 548 481 771 247 240 521
388 844 455 132 28 363 31 483 6 276 -57 500 -194 656 -402 89 -118 90 -115
-17 -87 -114 29 -320 34 -432 9 -405 -90 -749 -363 -935 -742 -96 -197 -144
-391 -138 -560 3 -88 3 -88 43 35 129 398 461 739 857 878 193 68 407 82 584
37 93 -24 264 -99 264 -117 0 -4 6 -8 14 -8 20 0 139 -113 191 -183 40 -52 95
-146 95 -161 0 -2 -28 6 -62 17 -53 18 -88 21 -218 21 -143 1 -162 -1 -245
-28 -49 -15 -112 -39 -140 -53 -203 -103 -394 -292 -494 -489 -76 -151 -116
-313 -109 -444 l3 -65 23 70 c35 106 104 242 163 320 293 387 759 532 1114
347 90 -47 208 -163 254 -250 27 -51 29 -62 14 -54 -10 6 -55 16 -99 23 -183
28 -396 -47 -561 -195 -159 -144 -257 -342 -270 -541 -6 -96 4 -105 26 -25 42
147 177 328 315 422 270 185 571 183 762 -7 66 -65 128 -176 140 -253 16 -98
31 -27 25 113 -7 158 -81 303 -200 391 l-48 36 -6 82 c-13 174 -109 363 -234
462 l-50 39 -7 91 c-15 213 -87 379 -244 565 -9 11 -40 38 -68 60 l-51 39 -17
112 c-41 262 -135 454 -313 639 -67 69 -83 92 -83 117 0 63 -40 262 -74 365
-161 490 -554 829 -1064 917 -122 21 -364 26 -491 9z"/>
</g>
</svg>
