<?xml version="1.0" standalone="no"?>
<!DOCTYPE svg PUBLIC "-//W3C//DTD SVG 20010904//EN"
 "http://www.w3.org/TR/2001/REC-SVG-20010904/DTD/svg10.dtd">
<svg version="1.0" xmlns="http://www.w3.org/2000/svg"
 width="512.000000pt" height="512.000000pt" viewBox="0 0 512.000000 512.000000"
 preserveAspectRatio="xMidYMid meet">
<metadata>
Created by potrace 1.15, written by Peter Selinger 2001-2017
</metadata>
<g transform="translate(0.000000,512.000000) scale(0.100000,-0.100000)"
fill="#ffffff" stroke="none">
<path d="M2452 4914 c-223 -60 -396 -267 -459 -548 -20 -94 -20 -298 0 -392
23 -100 61 -198 108 -273 22 -35 36 -67 32 -71 -4 -4 -37 -14 -73 -24 -210
-56 -394 -237 -500 -491 -83 -200 -120 -409 -127 -716 l-6 -227 85 5 c77 5
139 -5 204 -33 8 -3 10 81 6 306 l-5 310 92 0 91 0 0 -225 0 -225 290 0 290 0
0 534 0 534 90 -1 90 0 0 -534 0 -533 285 0 285 0 0 225 0 225 90 0 91 0 -3
-310 c-3 -273 -1 -309 12 -304 74 30 107 36 178 31 43 -2 85 -8 95 -12 16 -7
17 5 17 158 0 667 -257 1164 -663 1282 l-57 16 31 45 c43 64 104 197 123 274
26 100 32 286 12 398 -49 279 -221 506 -433 572 -77 24 -192 26 -271 4z m241
-517 c53 -31 118 -101 146 -156 l21 -41 -285 0 c-157 0 -285 4 -285 8 0 20 80
131 112 155 96 73 202 86 291 34z m202 -444 c-17 -122 -53 -210 -118 -280 -58
-63 -115 -94 -187 -100 -53 -5 -67 -2 -125 26 -70 35 -122 87 -161 163 -29 58
-54 149 -54 200 l0 38 326 0 325 0 -6 -47z"/>
<path d="M4145 4813 c-9 -32 -18 -65 -20 -73 -2 -8 -9 -35 -15 -59 l-12 -44
-89 89 -89 89 -70 -70 -70 -70 90 -90 91 -91 -109 -28 c-60 -15 -115 -31 -121
-36 -11 -6 3 -83 34 -177 3 -9 34 -4 112 17 59 16 113 30 119 30 8 0 2 -38
-17 -107 -16 -60 -29 -113 -29 -119 0 -10 140 -54 172 -54 10 0 22 29 38 93
40 159 28 154 128 54 l87 -87 70 70 70 70 -88 88 -87 87 113 29 c61 16 115 30
118 32 4 2 1 25 -7 51 -7 27 -18 67 -24 91 -13 50 -12 50 -147 13 -65 -18
-103 -24 -103 -17 1 6 14 58 30 116 16 58 26 108 22 112 -6 6 -160 48 -175 48
-3 0 -13 -26 -22 -57z"/>
<path d="M955 4448 c-2 -7 -25 -92 -50 -188 -25 -96 -48 -181 -51 -189 -3 -10
-55 35 -154 134 l-150 150 -70 -70 -70 -70 147 -147 c81 -81 145 -149 143
-152 -3 -2 -93 -27 -200 -56 -107 -29 -196 -53 -197 -54 -3 -3 45 -178 51
-183 2 -2 94 20 205 50 110 30 201 52 201 49 0 -2 -22 -86 -49 -186 -27 -99
-51 -190 -53 -200 -2 -16 10 -23 86 -43 48 -14 92 -21 96 -16 4 4 26 80 49
168 23 88 47 175 53 194 l10 33 149 -148 149 -149 70 70 70 70 -150 150 -150
151 202 53 c112 30 204 54 205 55 4 3 -44 176 -50 182 -3 4 -94 -17 -202 -46
-107 -29 -197 -51 -199 -49 -3 2 20 94 49 204 30 109 53 199 52 200 -7 4 -166
45 -176 45 -6 0 -14 -6 -16 -12z"/>
<path d="M4368 2868 c-43 -11 -78 -25 -78 -32 0 -6 14 -60 30 -121 16 -60 30
-110 30 -111 0 -1 -53 13 -117 31 -83 23 -120 29 -125 21 -13 -23 -47 -171
-40 -177 4 -4 58 -19 119 -35 l113 -29 -85 -85 c-47 -47 -85 -90 -85 -95 0 -6
29 -40 65 -75 l65 -65 89 89 89 89 12 -44 c32 -121 50 -182 55 -187 4 -4 174
36 183 43 2 2 -11 54 -27 116 -17 62 -29 115 -26 117 2 3 56 -9 119 -26 l114
-30 24 92 c16 58 21 93 15 98 -6 3 -59 19 -119 34 l-108 29 87 87 88 88 -70
70 -70 70 -86 -86 c-48 -47 -89 -82 -92 -78 -2 5 -17 57 -32 117 -21 81 -32
107 -44 106 -9 -1 -51 -10 -93 -21z"/>
<path d="M707 2178 c-9 -29 -23 -81 -33 -116 l-17 -64 -89 88 -88 89 -70 -70
-70 -70 90 -90 90 -90 -112 -29 c-62 -16 -117 -32 -121 -36 -7 -6 14 -104 38
-177 3 -8 35 -3 112 18 59 16 113 29 120 29 7 0 3 -29 -13 -87 -14 -49 -28
-102 -31 -119 l-5 -30 80 -22 c44 -12 86 -22 94 -22 10 0 22 29 38 93 40 159
28 154 128 54 l87 -87 70 70 70 70 -88 88 -87 87 112 29 c62 16 116 31 119 32
6 4 -36 173 -46 182 -3 4 -55 -7 -116 -22 -60 -16 -112 -27 -115 -24 -2 3 9
56 26 118 17 62 29 114 28 115 -5 3 -172 45 -180 45 -4 0 -13 -24 -21 -52z"/>
<path d="M1910 1838 c0 -167 5 -387 12 -490 l12 -188 273 0 273 0 0 380 0 380
90 0 90 0 0 -380 0 -380 259 0 259 0 6 63 c18 189 36 509 38 700 l3 217 -657
0 -658 0 0 -302z"/>
<path d="M1453 1975 c-148 -89 -79 -325 95 -325 182 0 249 241 91 329 -53 30
-132 28 -186 -4z"/>
<path d="M3510 1993 c-62 -23 -109 -95 -110 -166 -1 -169 221 -242 323 -106
61 83 30 216 -64 264 -27 15 -119 19 -149 8z"/>
<path d="M3927 1263 c-2 -4 -22 -79 -43 -166 l-38 -158 -80 78 c-45 43 -100
96 -124 118 l-42 39 -65 -64 c-36 -35 -65 -69 -65 -74 0 -5 52 -58 115 -119
63 -60 115 -112 115 -116 0 -4 -69 -26 -152 -50 -84 -24 -156 -45 -159 -47 -4
-2 5 -44 20 -94 18 -62 31 -90 41 -90 8 1 80 20 160 44 80 24 146 40 148 35 2
-5 -13 -74 -32 -154 -20 -81 -36 -152 -36 -158 0 -9 180 -61 186 -54 1 1 19
76 41 167 l39 165 122 -120 123 -119 70 70 70 71 -124 119 -125 120 154 44
c85 24 158 46 163 50 13 7 -40 192 -53 187 -54 -20 -307 -89 -312 -85 -4 4 48
231 72 309 3 12 -12 19 -68 32 -40 10 -83 20 -94 23 -12 3 -24 2 -27 -3z"/>
<path d="M1954 868 c3 -62 9 -155 13 -205 l6 -93 253 0 254 0 0 205 0 205
-267 0 -266 0 7 -112z"/>
<path d="M2660 775 l0 -205 238 0 239 0 12 183 c7 100 14 192 17 205 l4 22
-255 0 -255 0 0 -205z"/>
<path d="M1990 326 c0 -35 3 -84 6 -110 l7 -46 238 0 239 0 0 110 0 110 -245
0 -245 0 0 -64z"/>
<path d="M2660 280 l0 -110 225 0 225 0 0 33 c0 19 3 68 6 110 l7 77 -232 0
-231 0 0 -110z"/>
</g>
</svg>
