<?xml version="1.0" standalone="no"?>
<!DOCTYPE svg PUBLIC "-//W3C//DTD SVG 20010904//EN"
 "http://www.w3.org/TR/2001/REC-SVG-20010904/DTD/svg10.dtd">
<svg version="1.0" xmlns="http://www.w3.org/2000/svg"
 width="512.000000pt" height="512.000000pt" viewBox="0 0 512.000000 512.000000"
 preserveAspectRatio="xMidYMid meet">
<metadata>
Created by potrace 1.15, written by Peter Selinger 2001-2017
</metadata>
<g transform="translate(0.000000,512.000000) scale(0.100000,-0.100000)"
fill="#ffffff" stroke="none">
<path d="M3315 4819 c-613 -101 -922 -151 -1810 -294 -396 -64 -725 -118 -731
-120 -11 -3 -9 -17 21 -202 4 -22 12 -33 23 -33 18 0 3105 500 3109 504 3 2
-23 161 -32 204 -5 19 -11 22 -53 21 -26 -1 -263 -37 -527 -80z"/>
<path d="M3630 4446 c-56 -10 -65 -14 -63 -31 2 -11 37 -229 78 -484 41 -255
75 -474 75 -486 0 -12 -12 -32 -26 -46 -59 -54 -82 -167 -49 -245 l14 -35 53
30 c105 59 220 74 341 45 27 -6 27 -6 27 47 0 31 -8 71 -19 94 -21 46 -74 99
-113 114 -17 6 -28 20 -32 38 -6 31 -156 960 -156 968 0 8 -58 4 -130 -9z"/>
<path d="M2372 4241 l-893 -146 7 -40 c13 -83 87 -322 140 -453 109 -271 238
-483 393 -644 154 -161 276 -243 414 -279 291 -77 552 77 723 426 88 181 143
383 175 640 14 113 17 475 5 578 l-8 67 -31 -1 c-18 -1 -434 -67 -925 -148z"/>
<path d="M1107 4037 c-67 -9 -69 -10 -64 -36 3 -14 40 -241 82 -503 l78 -477
-35 -40 c-56 -66 -74 -163 -43 -237 l14 -35 53 30 c105 59 220 74 341 45 27
-6 27 -6 27 47 -1 90 -47 162 -136 210 l-29 15 -80 497 -79 497 -31 -1 c-16
-1 -61 -6 -98 -12z"/>
<path d="M3846 3020 c-158 -48 -225 -261 -126 -399 101 -139 312 -141 417 -3
129 170 10 414 -202 411 -33 0 -73 -5 -89 -9z"/>
<path d="M1289 2592 c-173 -90 -184 -331 -20 -447 38 -26 52 -30 124 -33 58
-3 93 1 118 12 155 65 208 264 106 398 -48 63 -122 98 -207 98 -55 0 -78 -5
-121 -28z"/>
<path d="M2671 2475 c-425 -96 -694 -695 -667 -1485 8 -228 12 -260 35 -260 9
0 425 66 924 147 l909 148 -7 45 c-12 77 -85 319 -137 453 -97 250 -234 480
-385 650 -212 237 -461 350 -672 302z"/>
<path d="M4115 2381 c-66 -34 -74 -36 -170 -36 -55 0 -115 4 -132 8 l-33 9 0
-54 c1 -89 53 -174 132 -211 34 -16 34 -16 53 -134 59 -383 143 -884 148 -890
4 -3 47 0 97 7 64 9 90 17 90 27 0 8 -33 219 -74 471 -97 596 -91 548 -72 555
8 3 29 30 45 59 24 42 31 65 31 109 0 63 -16 120 -33 117 -7 0 -43 -17 -82
-37z"/>
<path d="M1635 1989 c-61 -40 -160 -62 -248 -56 -45 3 -91 7 -102 9 -17 3 -20
-3 -23 -46 -4 -65 35 -147 91 -187 22 -16 46 -29 52 -29 17 0 12 25 101 -530
43 -267 79 -487 80 -489 2 -2 47 2 100 9 96 13 96 13 91 39 -3 14 -40 243 -83
508 l-77 482 33 37 c18 21 39 52 46 70 26 61 12 205 -19 203 -7 0 -25 -9 -42
-20z"/>
<path d="M4320 920 c-184 -31 -454 -76 -1905 -311 -550 -89 -1002 -164 -1004
-166 -3 -2 3 -55 13 -118 16 -100 21 -115 38 -115 20 0 3101 500 3106 504 1 2
-6 54 -16 117 -16 109 -18 114 -42 116 -14 1 -99 -11 -190 -27z"/>
</g>
</svg>
