<?xml version="1.0" standalone="no"?>
<!DOCTYPE svg PUBLIC "-//W3C//DTD SVG 20010904//EN"
 "http://www.w3.org/TR/2001/REC-SVG-20010904/DTD/svg10.dtd">
<svg version="1.0" xmlns="http://www.w3.org/2000/svg"
 width="512.000000pt" height="512.000000pt" viewBox="0 0 512.000000 512.000000"
 preserveAspectRatio="xMidYMid meet">
<metadata>
Created by potrace 1.15, written by Peter Selinger 2001-2017
</metadata>
<g transform="translate(0.000000,512.000000) scale(0.100000,-0.100000)"
fill="#ffffff" stroke="none">
<path d="M1790 4519 c0 -367 -1 -401 -16 -395 -9 4 -98 55 -198 115 -99 59
-191 113 -203 120 -25 13 -25 11 97 -312 28 -76 50 -140 48 -141 -1 -2 -199
32 -438 75 -239 44 -495 89 -567 102 -73 13 -133 21 -133 17 0 -4 100 -66 223
-137 475 -278 572 -335 581 -344 6 -5 -191 -9 -487 -9 l-497 0 0 -143 0 -143
554 -73 553 -74 254 77 c140 43 353 107 474 143 121 36 224 70 229 74 6 5 2
18 -10 31 -161 184 -211 545 -110 794 61 150 145 251 253 305 61 31 76 34 153
34 71 0 94 -4 142 -27 140 -65 256 -232 299 -428 21 -97 19 -308 -5 -395 -25
-92 -74 -199 -119 -257 l-36 -47 77 -25 c42 -14 266 -82 497 -152 l420 -127
535 72 c294 40 550 74 568 78 l32 5 0 139 0 139 -497 0 c-489 0 -497 1 -468
19 34 21 182 108 547 321 136 80 248 148 248 151 0 3 -10 4 -22 2 -13 -2 -282
-50 -598 -107 -316 -57 -575 -103 -576 -103 0 1 39 107 88 236 48 129 86 236
85 238 -2 1 -111 -62 -243 -141 l-239 -143 -3 419 -2 418 -745 0 -745 0 0
-401z"/>
<path d="M200 2549 l0 -339 534 -2 534 -3 -439 -259 c-242 -142 -442 -263
-446 -269 -4 -6 6 -8 28 -4 19 4 283 52 588 107 304 55 556 99 558 97 2 -3
-41 -125 -97 -272 -55 -148 -98 -270 -95 -273 2 -3 86 44 185 103 99 59 182
106 184 104 2 -2 -58 -308 -135 -679 -76 -371 -138 -681 -139 -687 0 -10 55
-13 245 -13 189 0 245 3 245 13 0 6 29 332 64 722 l64 710 -109 594 c-59 326
-109 594 -111 596 -2 1 -127 -27 -278 -62 l-275 -65 -485 97 c-267 53 -515
103 -552 110 l-68 13 0 -339z"/>
<path d="M4380 2779 l-545 -110 -205 47 c-388 89 -359 84 -364 65 -3 -9 -66
-275 -141 -591 l-136 -575 82 -728 83 -727 263 0 c145 0 263 3 262 8 0 4 -85
324 -188 712 -103 388 -187 706 -185 708 1 2 102 -56 223 -129 122 -72 224
-129 227 -127 3 3 -42 130 -99 282 -102 272 -104 277 -78 272 143 -29 1198
-215 1205 -213 6 2 -50 39 -124 83 -74 44 -276 163 -448 264 l-313 185 531 3
530 2 0 340 c0 317 -1 340 -17 339 -10 0 -263 -50 -563 -110z"/>
</g>
</svg>
