<?xml version="1.0" standalone="no"?>
<!DOCTYPE svg PUBLIC "-//W3C//DTD SVG 20010904//EN"
 "http://www.w3.org/TR/2001/REC-SVG-20010904/DTD/svg10.dtd">
<svg version="1.0" xmlns="http://www.w3.org/2000/svg"
 width="512.000000pt" height="512.000000pt" viewBox="0 0 512.000000 512.000000"
 preserveAspectRatio="xMidYMid meet">
<metadata>
Created by potrace 1.15, written by Peter Selinger 2001-2017
</metadata>
<g transform="translate(0.000000,512.000000) scale(0.100000,-0.100000)"
fill="#ffffff" stroke="none">
<path d="M1825 4924 c-452 -84 -754 -363 -855 -788 -54 -225 -40 -549 35 -849
14 -54 25 -99 25 -101 0 -2 -34 16 -77 40 -87 49 -214 98 -318 121 -100 22
-298 21 -402 -2 l-83 -18 0 -185 c0 -160 2 -183 15 -178 62 24 188 38 285 33
129 -7 198 -25 317 -82 240 -116 438 -330 617 -667 99 -187 165 -467 181 -773
18 -333 -77 -688 -248 -928 -52 -72 -296 -347 -309 -347 -4 0 -8 -4 -8 -10 0
-7 155 -10 445 -10 l445 0 30 60 c157 310 201 738 124 1200 -24 145 -90 396
-145 557 -77 222 -146 378 -324 738 -173 349 -224 478 -270 679 -122 547 59
982 479 1150 114 46 195 58 346 53 119 -3 146 -8 230 -36 120 -41 213 -95 300
-177 l69 -65 -25 -36 c-41 -61 -30 -129 26 -158 111 -57 280 -31 389 61 89 75
78 174 -24 208 -33 11 -49 27 -87 84 -137 205 -372 351 -668 417 -107 24 -409
29 -515 9z"/>
<path d="M3358 4309 c-3 -37 -15 -83 -27 -106 -11 -23 -21 -46 -21 -51 0 -4
33 -18 73 -30 101 -30 189 -85 277 -172 189 -188 299 -456 331 -800 10 -115 1
-327 -17 -396 -5 -20 -1 -22 78 -28 82 -6 187 3 282 24 50 11 206 68 206 76 0
2 -19 34 -42 71 -108 176 -179 370 -274 747 -36 144 -79 295 -95 337 -102 264
-276 373 -620 386 l-146 6 -5 -64z"/>
<path d="M2438 4097 c-176 -110 -282 -211 -336 -319 -79 -161 -71 -300 42
-684 104 -356 136 -530 136 -744 l0 -132 53 7 c193 25 385 107 510 220 l28 25
-54 72 c-223 299 -339 687 -296 993 19 142 82 291 160 379 16 19 29 36 29 39
0 3 -20 15 -44 27 -54 26 -118 86 -137 129 -8 17 -16 31 -19 30 -3 0 -35 -19
-72 -42z"/>
<path d="M3055 3952 c-177 -52 -291 -170 -341 -352 -14 -50 -18 -99 -18 -210
1 -128 5 -159 32 -263 105 -401 406 -752 735 -857 l69 -22 29 28 c62 59 149
213 189 334 83 248 85 590 4 837 -78 238 -205 408 -363 486 -59 29 -75 32
-171 34 -77 2 -121 -2 -165 -15z"/>
<path d="M4043 2421 c-104 -48 -112 -213 -14 -278 24 -17 49 -23 86 -23 98 0
160 68 152 168 -8 116 -119 182 -224 133z"/>
<path d="M4535 2045 c-49 -25 -65 -52 -65 -107 0 -44 4 -54 34 -84 102 -102
259 40 180 162 -29 43 -95 56 -149 29z"/>
<path d="M3714 2004 c-20 -20 -34 -46 -34 -60 0 -22 -4 -24 -44 -24 -154 0
-204 -231 -64 -299 56 -27 93 -27 148 2 52 26 80 72 80 132 0 37 3 42 32 50
45 14 78 66 78 122 0 38 -6 51 -34 79 -29 29 -41 34 -81 34 -42 0 -52 -5 -81
-36z"/>
<path d="M2755 1981 c-38 -23 -61 -57 -77 -114 -10 -40 -9 -49 13 -93 29 -58
83 -94 145 -94 117 0 195 160 126 257 -43 60 -146 82 -207 44z"/>
<path d="M653 1809 c65 -159 59 -264 -25 -389 -48 -72 -132 -138 -216 -171
-60 -23 -181 -31 -235 -16 l-28 8 3 -142 3 -142 40 -14 c64 -23 207 -20 285 7
166 56 301 187 367 358 23 56 27 83 27 167 1 89 -2 106 -26 155 -15 31 -48 76
-73 101 -48 49 -132 102 -122 78z"/>
<path d="M4432 1580 c-19 -12 -40 -37 -49 -57 -43 -103 77 -205 170 -145 43
29 56 53 57 106 0 42 -5 53 -34 82 -41 41 -92 46 -144 14z"/>
<path d="M3745 1376 c-134 -62 -140 -275 -11 -351 55 -32 144 -37 193 -11 70
36 110 120 100 208 -8 62 -29 101 -74 135 -30 23 -47 28 -107 31 -45 1 -82 -3
-101 -12z"/>
<path d="M3104 1260 c-12 -4 -31 -20 -42 -35 -67 -85 -13 -195 95 -195 45 0
77 20 98 60 53 103 -45 213 -151 170z"/>
<path d="M4685 1011 c-58 -35 -82 -101 -63 -176 18 -74 70 -116 146 -117 98 0
152 54 152 155 0 69 -19 111 -63 137 -43 26 -131 27 -172 1z"/>
<path d="M2635 900 c-49 -24 -74 -64 -81 -127 -7 -63 26 -130 76 -155 45 -23
116 -23 159 0 102 55 93 230 -14 282 -52 25 -89 25 -140 0z"/>
<path d="M4051 745 c-63 -54 -60 -146 8 -192 42 -28 76 -29 118 -3 73 44 89
136 34 191 -40 40 -115 42 -160 4z"/>
<path d="M3430 503 c-50 -18 -92 -86 -92 -148 0 -135 152 -212 253 -128 87 74
78 194 -20 260 -33 22 -102 30 -141 16z"/>
<path d="M4633 495 c-64 -28 -85 -128 -37 -184 48 -57 140 -59 183 -5 50 64
31 148 -43 184 -49 23 -60 24 -103 5z"/>
</g>
</svg>
