<?xml version="1.0" standalone="no"?>
<!DOCTYPE svg PUBLIC "-//W3C//DTD SVG 20010904//EN"
 "http://www.w3.org/TR/2001/REC-SVG-20010904/DTD/svg10.dtd">
<svg version="1.0" xmlns="http://www.w3.org/2000/svg"
 width="512.000000pt" height="512.000000pt" viewBox="0 0 512.000000 512.000000"
 preserveAspectRatio="xMidYMid meet">
<metadata>
Created by potrace 1.15, written by Peter Selinger 2001-2017
</metadata>
<g transform="translate(0.000000,512.000000) scale(0.100000,-0.100000)"
fill="#ffffff" stroke="none">
<path d="M771 4834 c0 -5 80 -121 178 -259 l179 -249 -307 -84 c-168 -45 -321
-85 -339 -89 -18 -3 -31 -10 -29 -16 2 -8 288 -168 322 -180 5 -2 -22 -42 -61
-88 -260 -306 -417 -708 -480 -1220 -19 -153 -20 -246 -16 -1561 l2 -898 1241
0 1241 0 -5 22 c-81 371 -109 604 -110 913 0 210 15 375 47 510 8 33 14 60 13
61 -72 36 -145 83 -183 118 -61 54 -148 173 -118 162 265 -104 580 -182 889
-222 169 -22 651 -26 780 -6 158 24 305 54 305 63 0 5 -5 9 -11 9 -18 0 -310
145 -435 216 -165 93 -392 234 -499 310 -178 125 -530 438 -509 452 233 160
510 290 792 372 128 37 332 84 338 77 1 -1 -48 -41 -109 -89 -202 -156 -379
-336 -491 -501 -25 -37 -46 -69 -46 -72 0 -6 149 -115 157 -115 5 0 31 34 58
76 66 98 220 270 320 357 208 180 456 325 638 373 64 17 152 19 332 9 l100 -6
-30 23 c-136 107 -492 296 -705 376 -363 136 -628 184 -1028 187 l-253 2 -72
70 c-179 174 -387 300 -606 368 -61 19 -1262 452 -1478 532 -7 3 -13 1 -12 -3z
m848 -1090 c3 -3 -3 -12 -14 -20 -101 -71 -130 -174 -81 -281 17 -36 38 -60
67 -80 38 -25 51 -28 125 -28 77 0 85 2 121 31 21 17 48 45 60 63 29 42 36 28
41 -82 7 -135 -35 -235 -137 -330 -63 -59 -133 -92 -226 -108 -60 -10 -81 -10
-147 5 -210 47 -348 231 -336 447 13 228 223 410 452 394 39 -3 72 -8 75 -11z"/>
</g>
</svg>
