<?xml version="1.0" standalone="no"?>
<!DOCTYPE svg PUBLIC "-//W3C//DTD SVG 20010904//EN"
 "http://www.w3.org/TR/2001/REC-SVG-20010904/DTD/svg10.dtd">
<svg version="1.0" xmlns="http://www.w3.org/2000/svg"
 width="512.000000pt" height="512.000000pt" viewBox="0 0 512.000000 512.000000"
 preserveAspectRatio="xMidYMid meet">
<metadata>
Created by potrace 1.15, written by Peter Selinger 2001-2017
</metadata>
<g transform="translate(0.000000,512.000000) scale(0.100000,-0.100000)"
fill="#ffffff" stroke="none">
<path d="M3665 4789 c-258 -60 -1143 -266 -1965 -457 -887 -206 -1495 -352
-1495 -359 0 -6 223 -246 495 -533 272 -287 505 -534 518 -549 13 -14 60 -64
106 -111 45 -47 239 -251 431 -455 192 -203 383 -406 426 -450 42 -44 178
-188 303 -320 l226 -240 -290 -285 c-159 -157 -291 -291 -292 -299 -2 -11 302
-72 1407 -281 776 -148 1412 -266 1413 -265 2 2 -82 459 -188 1017 -105 557
-225 1191 -266 1408 -41 217 -76 399 -77 405 -2 5 -76 -63 -166 -151 l-162
-160 71 -164 c147 -337 262 -606 272 -630 8 -22 7 -23 -5 -10 -27 30 -393 434
-452 500 -238 265 -358 390 -705 730 -216 212 -397 387 -403 389 -5 2 79 -170
187 -383 108 -212 194 -386 191 -386 -3 0 -110 89 -238 199 -127 109 -419 356
-647 550 -228 194 -416 355 -417 359 -2 4 493 237 1098 517 605 281 1103 513
1105 518 7 10 27 15 -481 -104z m-1284 -1840 c92 -31 143 -105 144 -209 l0
-66 159 -154 c87 -85 167 -161 178 -168 17 -13 29 -4 134 95 63 59 137 127
164 150 l48 43 56 -61 c31 -33 56 -63 55 -67 0 -4 -36 -38 -79 -77 -43 -38
-79 -75 -79 -81 -1 -6 45 -55 102 -109 107 -104 607 -587 862 -834 83 -80 210
-203 282 -275 l133 -129 91 -290 c49 -159 89 -291 87 -293 -2 -1 -132 34 -289
80 -185 53 -296 90 -315 105 -16 12 -90 82 -164 155 -74 73 -337 327 -585 566
-247 238 -493 476 -546 528 l-97 94 -87 -81 c-48 -44 -91 -81 -95 -81 -10 0
-110 111 -110 121 0 4 70 72 155 151 85 78 155 147 155 152 0 8 -245 249 -320
315 -22 19 -39 24 -91 25 -77 2 -119 23 -166 84 -59 78 -55 171 12 249 53 62
134 86 206 62z"/>
<path d="M2949 2145 c-35 -37 -65 -70 -67 -74 -1 -5 17 -25 40 -46 24 -21 97
-90 163 -155 66 -64 311 -300 545 -525 234 -224 473 -455 531 -513 l107 -104
63 67 c35 37 64 72 64 79 0 8 -1128 1101 -1351 1308 l-31 29 -64 -66z"/>
</g>
</svg>
