<?xml version="1.0" standalone="no"?>
<!DOCTYPE svg PUBLIC "-//W3C//DTD SVG 20010904//EN"
 "http://www.w3.org/TR/2001/REC-SVG-20010904/DTD/svg10.dtd">
<svg version="1.0" xmlns="http://www.w3.org/2000/svg"
 width="512.000000pt" height="512.000000pt" viewBox="0 0 512.000000 512.000000"
 preserveAspectRatio="xMidYMid meet">
<metadata>
Created by potrace 1.15, written by Peter Selinger 2001-2017
</metadata>
<g transform="translate(0.000000,512.000000) scale(0.100000,-0.100000)"
fill="#ffffff" stroke="none">
<path d="M2315 4949 c-183 -23 -285 -83 -285 -169 0 -109 108 -206 300 -269
168 -56 408 -66 521 -22 109 42 186 117 196 190 4 31 -1 53 -21 95 -44 89
-136 149 -265 172 -85 15 -336 16 -446 3z"/>
<path d="M3222 4664 c-21 -137 -85 -233 -196 -299 -38 -22 -53 -35 -40 -36 10
0 80 -6 154 -12 l135 -12 -3 -85 c-2 -47 -5 -86 -5 -86 -1 -1 -95 6 -209 16
l-208 18 -67 59 -68 60 -126 6 -126 6 -71 -132 c-103 -191 -86 -177 -168 -132
-38 21 -70 39 -72 40 -1 1 29 60 67 131 38 70 68 131 65 135 -2 4 -21 13 -42
19 -68 22 -186 89 -240 136 -64 56 -108 118 -130 184 l-17 50 -50 -36 c-28
-20 -151 -104 -275 -186 -124 -83 -276 -189 -339 -236 -113 -85 -269 -230
-308 -287 l-21 -30 59 -164 c33 -91 56 -168 52 -171 -5 -4 -75 -35 -158 -70
-82 -34 -154 -66 -159 -70 -5 -5 -8 -33 -8 -64 0 -61 20 -113 77 -202 65 -101
65 -99 39 -374 -43 -469 -54 -769 -34 -915 25 -178 306 -633 572 -924 l49 -54
97 22 c325 72 846 90 1032 35 87 -26 153 -62 147 -82 -38 -133 -35 -157 34
-248 27 -37 48 -68 46 -70 -11 -12 -129 -84 -136 -84 -15 0 -79 93 -107 154
-14 31 -28 80 -31 110 -5 51 -7 54 -36 60 -96 19 -276 26 -435 16 -204 -12
-449 -44 -455 -60 -2 -6 142 -143 278 -264 202 -180 381 -297 544 -356 136
-50 134 -50 226 17 44 33 101 74 127 92 l46 33 99 -101 98 -101 135 159 c74
87 138 157 141 155 3 -2 43 -57 89 -123 l83 -119 45 20 c469 208 865 870 991
1659 35 216 44 365 38 622 -8 351 -47 567 -155 842 -52 133 -52 139 -62 415
-13 378 -24 413 -166 553 -195 192 -447 332 -744 412 l-86 22 -12 -73z m-1394
-527 c-29 -65 -55 -120 -58 -122 -3 -2 -46 -14 -97 -28 l-91 -25 50 111 c27
62 77 174 111 249 l61 138 39 -102 38 -102 -53 -119z m2095 -46 c5 -6 -59
-488 -86 -641 -1 -8 -38 123 -82 290 l-80 305 -116 175 c-63 96 -119 181 -123
188 -7 11 461 -294 487 -317z m-731 -287 l68 -47 -34 -46 c-71 -99 -338 -486
-343 -497 -2 -6 19 -62 46 -125 28 -62 51 -120 51 -128 0 -18 -70 -222 -80
-234 -5 -6 -201 447 -212 490 -3 12 421 633 432 633 3 0 35 -21 72 -46z
m-1362 -209 l259 -65 153 60 c84 33 157 60 163 60 10 0 71 -148 63 -154 -1 -2
-85 -35 -186 -74 l-183 -70 -382 84 c-210 46 -393 86 -406 89 -20 5 0 18 110
70 74 35 138 64 142 64 4 1 124 -28 267 -64z m1870 -317 c39 -91 99 -182 127
-192 10 -4 27 4 47 22 17 16 47 41 67 56 l36 26 50 -68 50 -68 -40 -30 c-70
-52 -201 -198 -235 -261 -35 -66 -48 -131 -38 -186 15 -78 104 -171 239 -247
31 -17 57 -34 57 -36 0 -7 -75 -155 -142 -281 l-59 -113 -72 36 c-40 20 -73
38 -75 39 -2 2 25 60 60 130 l63 127 -40 31 c-136 106 -205 230 -205 368 0 35
-4 59 -11 59 -6 0 -50 17 -97 37 -76 32 -98 48 -172 123 l-85 85 45 3 c79 6
191 -16 275 -53 44 -19 85 -35 92 -35 6 0 27 23 47 52 l35 52 -43 46 c-23 25
-58 72 -77 105 -38 66 -102 205 -96 211 9 9 134 53 146 51 7 -1 30 -41 51 -89z
m-1934 -160 l33 -72 -81 -38 c-44 -21 -85 -38 -89 -38 -5 0 -9 -2 -9 -5 0 -6
51 -159 55 -163 5 -5 213 71 255 94 l45 25 23 -28 c13 -15 36 -44 53 -65 l29
-36 -27 -21 c-53 -42 -298 -141 -349 -141 -18 0 -30 -26 -39 -84 -4 -27 -20
-86 -35 -130 -16 -45 -26 -84 -22 -87 4 -3 35 -27 69 -53 34 -26 101 -84 149
-128 l86 -82 -61 -59 -61 -59 -78 73 c-43 41 -104 94 -135 118 l-57 44 -68
-64 c-37 -35 -69 -64 -71 -66 -2 -1 21 -30 52 -63 30 -33 69 -88 86 -120 32
-59 71 -162 71 -185 0 -8 -27 -18 -67 -25 -38 -6 -75 -14 -84 -16 -13 -3 -18
5 -24 33 -18 100 -122 234 -274 356 -103 81 -135 128 -160 230 -17 70 -15 250
4 343 43 207 165 398 297 463 50 26 73 31 129 31 69 0 148 23 261 75 29 13 54
22 57 20 2 -3 19 -37 37 -77z m942 -1385 c26 -29 121 -130 212 -225 100 -104
151 -164 130 -151 -19 11 -143 85 -275 163 -132 78 -244 145 -249 150 -12 12
-35 325 -35 470 l0 115 85 -235 c77 -211 90 -240 132 -287z m1497 6 c20 -39
35 -72 33 -73 -1 -1 -34 -20 -73 -41 -113 -62 -239 -151 -294 -210 l-52 -55
-94 -6 c-55 -4 -95 -3 -95 2 0 19 60 112 104 161 26 29 75 74 109 101 68 54
292 192 312 192 7 0 29 -32 50 -71z m-400 -696 c28 -126 39 -292 20 -323 -5
-7 -29 20 -67 77 -103 153 -142 232 -162 330 -7 31 -6 32 31 36 21 2 63 4 94
5 l55 2 29 -127z"/>
<path d="M1344 2910 c-58 -23 -147 -166 -181 -291 -25 -92 -25 -320 0 -366 60
-111 172 -62 260 114 60 117 81 204 81 318 -1 115 -15 156 -70 205 -36 31 -54
35 -90 20z"/>
</g>
</svg>
