<?xml version="1.0" standalone="no"?>
<!DOCTYPE svg PUBLIC "-//W3C//DTD SVG 20010904//EN"
 "http://www.w3.org/TR/2001/REC-SVG-20010904/DTD/svg10.dtd">
<svg version="1.0" xmlns="http://www.w3.org/2000/svg"
 width="512.000000pt" height="512.000000pt" viewBox="0 0 512.000000 512.000000"
 preserveAspectRatio="xMidYMid meet">
<metadata>
Created by potrace 1.15, written by Peter Selinger 2001-2017
</metadata>
<g transform="translate(0.000000,512.000000) scale(0.100000,-0.100000)"
fill="#ffffff" stroke="none">
<path d="M3390 4909 c-12 -28 -11 -36 13 -85 28 -57 26 -59 -30 -18 -22 16
-23 15 -65 -70 l-42 -86 16 -42 c9 -24 19 -51 23 -61 7 -16 4 -16 -38 2 l-45
19 -17 -38 c-20 -44 -26 -27 82 -211 l73 -126 -169 -349 -170 -349 51 -12 c28
-6 72 -14 97 -18 l46 -6 305 626 c168 345 306 633 308 640 2 9 -27 29 -77 55
-44 22 -82 40 -85 40 -2 0 -21 -38 -42 -84 l-38 -85 -84 145 c-46 79 -87 144
-92 144 -4 0 -13 -14 -20 -31z"/>
<path d="M460 4761 c-144 -44 -184 -143 -197 -491 -23 -623 164 -2098 378
-2980 90 -371 160 -571 214 -606 17 -11 36 -14 59 -10 30 6 35 11 41 44 9 56
-10 168 -65 372 -227 844 -418 2137 -437 2955 -6 268 5 436 32 501 37 88 186
32 359 -135 101 -98 216 -236 466 -556 247 -316 327 -410 461 -541 177 -171
271 -224 413 -232 100 -6 116 3 116 63 0 43 -36 75 -142 123 -109 50 -175 101
-304 233 -120 124 -184 201 -419 504 -394 507 -572 684 -752 746 -58 20 -173
25 -223 10z"/>
<path d="M2421 4608 l-41 -122 45 -99 c39 -87 42 -97 22 -85 -75 48 -99 60
-106 52 -5 -5 -15 -30 -24 -55 l-15 -46 105 -137 105 -137 -53 -150 c-30 -87
-48 -153 -43 -158 9 -9 166 -63 170 -58 3 4 324 959 324 966 0 7 -169 65 -175
59 -2 -1 -16 -40 -32 -86 l-29 -83 -100 130 c-54 72 -102 131 -106 131 -3 0
-25 -55 -47 -122z"/>
<path d="M3992 4603 c-32 -4 -37 -10 -94 -129 -33 -69 -59 -127 -57 -129 2 -2
45 27 95 63 80 58 95 75 123 130 17 34 31 65 31 67 0 5 -45 4 -98 -2z"/>
<path d="M3107 4475 c-27 -7 -51 -15 -53 -18 -13 -12 -161 -477 -153 -477 25
0 105 24 115 34 11 10 164 447 164 467 0 11 -13 10 -73 -6z"/>
<path d="M4201 4379 l-44 -62 7 -126 7 -126 -42 73 c-22 40 -45 70 -49 67 -5
-3 -37 -44 -71 -91 l-61 -86 59 -161 59 -161 -109 -151 -109 -150 113 -3 c98
-2 115 0 130 15 9 10 123 167 254 348 131 182 249 344 262 362 l24 32 -75 55
c-41 31 -76 56 -78 56 -2 0 -26 -31 -53 -70 -28 -38 -52 -70 -55 -70 -3 0 -30
66 -60 148 -29 81 -56 150 -60 155 -3 4 -26 -21 -49 -54z"/>
<path d="M3890 4331 l-65 -17 -43 -83 c-24 -45 -42 -85 -40 -87 3 -2 33 -1 68
3 l63 6 44 95 c24 52 43 95 41 96 -2 2 -32 -4 -68 -13z"/>
<path d="M4701 3969 c-13 -17 -20 -33 -18 -36 3 -2 32 -7 65 -10 58 -5 59 -5
86 29 14 19 26 38 26 41 0 4 -31 7 -68 7 -65 0 -69 -2 -91 -31z"/>
<path d="M4548 3757 c-130 -180 -129 -174 -28 -176 42 0 47 3 78 44 17 24 32
46 32 49 0 3 -12 12 -27 20 l-28 15 35 1 c19 0 40 4 47 8 13 8 113 143 113
152 0 7 -86 50 -98 50 -4 -1 -60 -74 -124 -163z"/>
<path d="M2258 3477 l-26 -53 47 -21 c67 -31 128 -88 158 -147 21 -41 27 -65
27 -121 0 -179 -132 -262 -349 -221 -44 8 -90 18 -102 21 -18 6 -25 0 -42 -34
-12 -22 -21 -44 -21 -49 0 -11 191 -93 280 -120 212 -65 408 -87 689 -79 218
6 349 21 573 63 l138 26 180 242 180 241 -188 7 c-479 16 -882 89 -1332 239
-96 32 -177 59 -180 59 -3 0 -18 -24 -32 -53z"/>
<path d="M1735 2452 c-179 -338 -349 -639 -540 -957 l-163 -270 45 -175 c53
-211 63 -302 39 -384 -56 -193 -304 -225 -422 -55 -14 21 -30 39 -34 39 -4 0
-23 -23 -41 -51 l-32 -51 19 -37 c10 -20 57 -74 104 -121 64 -64 105 -96 165
-127 98 -51 210 -83 288 -83 l59 0 146 127 c567 493 1155 1088 1637 1658 218
257 457 559 446 563 -5 2 -59 -4 -118 -12 -196 -29 -306 -37 -503 -37 -347 0
-611 54 -890 183 l-75 35 -130 -245z"/>
</g>
</svg>
