<?xml version="1.0" standalone="no"?>
<!DOCTYPE svg PUBLIC "-//W3C//DTD SVG 20010904//EN"
 "http://www.w3.org/TR/2001/REC-SVG-20010904/DTD/svg10.dtd">
<svg version="1.0" xmlns="http://www.w3.org/2000/svg"
 width="512.000000pt" height="512.000000pt" viewBox="0 0 512.000000 512.000000"
 preserveAspectRatio="xMidYMid meet">
<metadata>
Created by potrace 1.15, written by Peter Selinger 2001-2017
</metadata>
<g transform="translate(0.000000,512.000000) scale(0.100000,-0.100000)"
fill="#ffffff" stroke="none">
<path d="M1232 4909 c-191 -32 -369 -175 -468 -374 -68 -139 -87 -222 -88
-400 -1 -186 26 -318 90 -447 13 -26 24 -49 24 -52 0 -3 -26 -19 -57 -36 -232
-123 -381 -374 -458 -768 -38 -196 -55 -390 -62 -714 l-6 -298 210 0 210 0 6
-63 c3 -34 27 -403 53 -820 l49 -757 591 0 592 0 6 53 c3 28 26 383 51 787 25
404 48 750 51 768 l5 32 209 0 210 0 0 118 c0 186 -19 546 -35 682 -31 250
-91 484 -162 624 -75 151 -196 284 -313 345 -36 19 -67 35 -68 37 -2 1 12 42
32 91 19 48 40 111 47 138 6 28 13 51 14 53 2 2 183 -41 404 -94 221 -53 404
-94 408 -91 3 4 -32 125 -79 269 -52 161 -81 264 -74 265 6 2 121 -26 256 -61
l245 -63 8 -64 c16 -135 39 -236 73 -323 47 -122 48 -126 34 -126 -24 0 -136
-75 -194 -130 -250 -236 -354 -629 -373 -1397 l-6 -273 211 0 211 0 5 -42 c3
-24 26 -374 51 -778 25 -404 48 -754 51 -777 l5 -43 589 0 590 0 4 23 c3 12
26 355 51 762 25 407 48 766 52 798 l6 57 208 0 209 0 0 173 c-1 823 -131
1305 -415 1533 -35 29 -86 62 -114 75 -35 16 -50 29 -47 39 3 8 20 53 40 100
52 127 69 222 69 385 1 172 -22 276 -90 415 -39 79 -62 110 -138 186 -104 105
-186 151 -320 179 -232 48 -473 -64 -622 -288 -48 -72 -112 -223 -113 -264 0
-13 -3 -23 -7 -23 -5 0 -192 47 -418 105 -225 57 -411 102 -413 100 -3 -2 34
-125 82 -271 47 -147 84 -270 82 -272 -6 -5 -478 108 -489 117 -4 4 -11 50
-16 102 -20 212 -89 373 -214 507 -96 101 -199 159 -331 187 -82 16 -123 17
-204 4z m177 -200 c161 -37 292 -173 350 -361 26 -86 38 -188 22 -188 -6 0
-50 9 -96 21 -75 19 -84 24 -90 48 -11 50 -77 124 -140 156 -50 26 -70 30
-134 30 -63 0 -86 -5 -133 -28 -106 -52 -162 -149 -160 -275 0 -47 7 -78 27
-118 103 -211 391 -220 525 -16 l15 23 88 -22 c48 -12 87 -27 87 -33 0 -25
-39 -137 -69 -198 -18 -36 -63 -103 -101 -149 -38 -46 -66 -86 -63 -89 2 -3
53 -14 111 -26 148 -29 211 -61 302 -153 171 -172 257 -457 290 -961 5 -80 10
-193 10 -252 l0 -108 -121 0 -122 0 5 295 4 295 -96 0 -97 0 -7 -562 c-6 -479
-12 -644 -41 -1102 -19 -296 -35 -542 -35 -547 0 -5 -72 -9 -160 -9 l-160 0 0
695 0 695 -100 0 -100 0 0 -695 0 -695 -149 0 -150 0 -5 43 c-3 23 -20 265
-37 537 -30 476 -31 517 -28 1068 l4 572 -97 0 -98 0 0 -295 0 -295 -125 0
-125 0 0 144 c0 261 31 547 79 739 53 210 121 347 222 448 75 75 157 114 300
144 63 13 115 24 117 24 2 1 -27 36 -63 79 -126 148 -184 301 -192 507 -5 112
-2 143 16 215 11 47 35 112 52 146 95 190 289 295 468 253z m2494 -9 c285 -88
424 -471 305 -840 -33 -102 -71 -170 -148 -264 -45 -55 -67 -88 -58 -90 7 -2
53 -12 103 -21 170 -32 267 -86 350 -197 160 -213 237 -538 252 -1060 l6 -218
-119 0 -119 0 3 295 4 295 -95 0 -94 0 -7 -46 c-3 -26 -6 -251 -6 -501 0 -406
-4 -511 -35 -1001 -19 -301 -37 -575 -41 -609 l-6 -63 -159 0 -159 0 0 695 0
695 -95 0 -95 0 0 -695 0 -695 -154 0 -154 0 -6 77 c-4 43 -20 292 -37 553
-30 461 -31 492 -26 1033 l5 557 -99 0 -99 0 0 -295 0 -295 -125 0 -125 0 0
118 c0 424 68 819 176 1032 45 89 64 116 131 183 75 75 152 113 284 138 57 11
110 22 117 25 9 2 -8 30 -48 79 -83 102 -122 168 -153 263 -25 75 -53 219 -45
227 7 7 153 -34 156 -43 1 -5 17 -33 35 -63 92 -154 306 -187 442 -67 69 61
99 126 99 218 1 56 -5 87 -20 121 -64 139 -212 207 -358 165 -46 -14 -69 -29
-114 -74 -32 -31 -61 -65 -67 -74 -9 -17 -14 -17 -83 1 -41 11 -75 21 -77 23
-2 2 7 35 19 74 56 174 163 292 313 343 74 26 144 26 226 1z"/>
</g>
</svg>
