<?xml version="1.0" standalone="no"?>
<!DOCTYPE svg PUBLIC "-//W3C//DTD SVG 20010904//EN"
 "http://www.w3.org/TR/2001/REC-SVG-20010904/DTD/svg10.dtd">
<svg version="1.0" xmlns="http://www.w3.org/2000/svg"
 width="512.000000pt" height="512.000000pt" viewBox="0 0 512.000000 512.000000"
 preserveAspectRatio="xMidYMid meet">
<metadata>
Created by potrace 1.15, written by Peter Selinger 2001-2017
</metadata>
<g transform="translate(0.000000,512.000000) scale(0.100000,-0.100000)"
fill="#ffffff" stroke="none">
<path d="M2335 4640 l115 -230 110 0 110 0 115 230 115 230 -340 0 -340 0 115
-230z"/>
<path d="M1995 4626 c-80 -26 -240 -90 -253 -101 -1 -1 14 -72 34 -157 l37
-155 91 43 c97 45 255 100 318 110 21 4 41 10 43 15 3 4 -25 69 -62 143 -54
108 -72 136 -88 136 -11 -1 -65 -16 -120 -34z"/>
<path d="M2917 4524 c-37 -74 -65 -139 -62 -143 2 -5 22 -11 43 -15 63 -10
221 -65 318 -110 l91 -43 32 137 c18 75 34 146 37 156 4 16 -8 25 -72 52 -94
41 -275 102 -300 102 -15 0 -36 -33 -87 -136z"/>
<path d="M1370 4488 c-85 -72 -198 -166 -250 -210 -52 -44 -96 -83 -98 -87 -1
-4 388 -179 468 -209 11 -4 170 130 169 142 -1 37 -117 490 -124 492 -6 2 -80
-56 -165 -128z"/>
<path d="M3575 4608 c-2 -7 -10 -42 -19 -78 -8 -36 -33 -141 -56 -234 -22 -92
-40 -171 -40 -175 0 -11 161 -142 170 -139 79 30 469 205 468 209 -5 12 -503
429 -512 429 -4 0 -8 -6 -11 -12z"/>
<path d="M2626 3680 l-258 -420 -32 19 c-27 16 -343 200 -635 368 -51 30 -95
52 -98 49 -5 -5 112 -220 339 -626 l97 -175 -67 -31 c-37 -17 -183 -82 -324
-145 -142 -62 -258 -116 -258 -119 0 -3 141 -23 313 -44 171 -21 324 -40 339
-43 l28 -5 -23 -28 c-12 -15 -113 -125 -225 -245 -112 -119 -202 -218 -200
-220 2 -2 190 48 418 111 228 62 418 113 421 111 3 -1 95 -100 204 -219 109
-120 202 -218 205 -218 4 0 10 46 13 103 4 56 12 184 18 283 l12 181 264 -88
c144 -48 263 -83 263 -78 0 6 -37 67 -82 137 -45 70 -100 157 -123 193 l-43
65 307 59 c168 32 310 61 314 65 10 8 31 0 -368 149 -176 66 -328 123 -338
126 -20 8 -19 10 280 318 95 98 173 182 173 186 0 5 -64 -7 -142 -26 -383 -91
-489 -116 -493 -111 -5 4 -25 542 -25 666 0 39 -3 72 -8 72 -4 0 -124 -189
-266 -420z"/>
<path d="M1028 3893 c-53 -80 -148 -257 -148 -277 0 -6 57 -53 127 -103 l126
-93 42 94 c34 75 129 232 190 312 6 9 6 17 0 23 -10 9 -267 121 -278 121 -4 0
-30 -35 -59 -77z"/>
<path d="M3891 3912 c-74 -32 -136 -63 -138 -69 -2 -6 23 -48 57 -94 51 -71
131 -218 166 -307 9 -23 13 -21 136 70 70 51 128 98 128 104 1 32 -188 354
-207 354 -5 0 -68 -26 -142 -58z"/>
<path d="M596 3229 c-32 -181 -56 -332 -54 -335 6 -5 480 136 491 146 4 4 16
53 26 109 l19 101 -209 155 c-114 85 -210 155 -212 155 -2 0 -29 -149 -61
-331z"/>
<path d="M4255 3409 c-150 -112 -201 -155 -203 -173 -3 -26 24 -186 34 -195 7
-8 488 -150 493 -145 5 5 -112 664 -118 663 -3 0 -96 -67 -206 -150z"/>
<path d="M965 2840 c-33 -10 -100 -31 -149 -45 l-88 -27 6 -66 c9 -88 33 -224
52 -290 l15 -53 152 7 c84 3 155 8 159 10 3 2 -1 25 -9 51 -30 100 -53 222
-59 321 -4 56 -10 104 -13 106 -3 2 -33 -4 -66 -14z"/>
<path d="M4086 2848 c-3 -7 -7 -53 -10 -103 -6 -95 -34 -241 -60 -314 -9 -24
-14 -46 -12 -48 7 -7 307 -26 313 -20 20 20 85 388 71 402 -4 5 -287 95 -296
95 -1 0 -4 -6 -6 -12z"/>
<path d="M915 2194 c-104 -7 -202 -13 -217 -13 -16 -1 -28 -5 -28 -10 0 -5 22
-47 49 -93 26 -45 101 -174 165 -285 65 -112 119 -203 120 -203 6 0 286 427
286 436 0 4 -23 47 -52 96 l-52 88 -41 -1 c-22 -1 -125 -8 -230 -15z"/>
<path d="M3882 2121 c-29 -49 -52 -92 -52 -95 0 -6 267 -416 280 -429 8 -9 17
5 217 352 119 207 131 231 116 231 -5 0 -116 7 -248 15 -132 8 -245 15 -250
15 -6 0 -34 -40 -63 -89z"/>
<path d="M1313 1748 l-86 -132 74 -71 c89 -85 221 -187 231 -177 4 4 39 65 79
137 l72 129 -28 21 c-54 38 -185 156 -213 191 -15 19 -31 34 -35 34 -4 0 -46
-59 -94 -132z"/>
<path d="M3679 1844 c-40 -43 -173 -160 -214 -189 l-28 -21 72 -129 c40 -72
75 -133 79 -137 10 -10 142 92 231 178 l75 71 -87 132 c-48 72 -88 131 -90
131 -2 0 -19 -16 -38 -36z"/>
<path d="M1460 888 c-190 -341 -346 -625 -348 -630 -2 -4 59 -8 136 -8 l140 0
280 630 280 630 -72 0 -71 0 -345 -622z"/>
<path d="M1852 880 l-280 -630 988 0 988 0 -280 630 -281 630 -427 0 -427 0
-281 -630z"/>
<path d="M3452 880 l280 -630 140 0 c77 0 138 4 136 8 -1 5 -158 289 -348 630
l-345 622 -71 0 -72 0 280 -630z"/>
</g>
</svg>
