<?xml version="1.0" standalone="no"?>
<!DOCTYPE svg PUBLIC "-//W3C//DTD SVG 20010904//EN"
 "http://www.w3.org/TR/2001/REC-SVG-20010904/DTD/svg10.dtd">
<svg version="1.0" xmlns="http://www.w3.org/2000/svg"
 width="512.000000pt" height="512.000000pt" viewBox="0 0 512.000000 512.000000"
 preserveAspectRatio="xMidYMid meet">
<metadata>
Created by potrace 1.15, written by Peter Selinger 2001-2017
</metadata>
<g transform="translate(0.000000,512.000000) scale(0.100000,-0.100000)"
fill="#ffffff" stroke="none">
<path d="M4259 4830 c207 -315 174 -586 -88 -724 -72 -37 -189 -71 -289 -82
l-64 -7 33 64 c91 180 106 338 49 492 -21 55 -98 173 -107 163 -3 -2 2 -26 11
-53 54 -165 19 -302 -108 -429 -83 -83 -177 -133 -310 -166 l-85 -21 -113 27
c-278 65 -480 53 -716 -42 -253 -103 -512 -357 -648 -635 l-36 -72 5 105 c11
221 83 470 208 720 43 85 76 156 74 159 -20 20 -332 -283 -411 -399 -211 -307
-313 -662 -316 -1095 l-1 -148 -56 59 c-31 32 -94 101 -141 153 -47 52 -106
117 -131 145 -161 179 -251 276 -257 276 -4 0 5 -177 20 -392 67 -971 99
-1418 105 -1486 l6 -72 326 -237 c179 -130 466 -338 636 -462 171 -123 342
-248 380 -276 147 -109 298 -215 307 -215 5 0 199 143 431 318 232 175 540
407 683 515 144 109 266 203 271 210 5 6 99 347 208 757 109 410 226 850 261
979 35 129 62 236 60 238 -3 3 -176 -130 -761 -585 l-170 -132 -30 34 c-64 72
-102 187 -86 258 19 82 82 144 178 175 26 9 100 18 163 22 l115 6 -66 32
c-104 50 -180 66 -282 60 -75 -4 -99 -10 -160 -40 -85 -42 -177 -130 -223
-212 -28 -50 -32 -54 -37 -33 -4 12 -2 52 3 88 40 282 269 475 520 438 115
-16 288 16 419 78 367 173 615 568 586 934 -12 155 -80 310 -189 427 -53 58
-203 173 -224 173 -7 0 15 -40 47 -90z m-2789 -2648 c524 -405 640 -495 638
-498 -2 -1 -214 41 -471 94 -322 66 -461 99 -443 103 14 4 69 10 121 14 92 7
96 9 91 29 -3 11 -48 119 -99 239 l-94 217 36 -27 c20 -15 119 -92 221 -171z
m2224 -29 c-25 -60 -48 -114 -51 -120 -4 -10 26 -13 131 -13 75 0 136 -3 136
-7 0 -5 -26 -55 -58 -113 l-57 -104 -220 -33 c-121 -18 -325 -49 -454 -68
-128 -20 -235 -34 -237 -32 -2 2 56 45 129 95 72 51 265 184 427 297 162 112
296 204 297 205 1 0 -18 -48 -43 -107z m-1562 -778 c41 -60 132 -195 203 -299
86 -127 130 -184 135 -175 4 8 29 100 55 204 26 105 51 193 54 197 4 5 45 -62
91 -147 45 -85 86 -152 90 -150 4 3 128 108 276 234 147 127 269 229 271 228
1 -2 -12 -49 -29 -105 -17 -56 -29 -105 -25 -108 3 -4 111 37 239 89 128 53
234 94 236 92 2 -2 -106 -127 -239 -279 -134 -151 -244 -274 -246 -272 -2 1
15 56 37 121 22 66 40 125 40 133 0 16 -40 -18 -185 -157 -49 -48 -199 -189
-333 -315 -204 -192 -245 -227 -256 -215 -19 20 -199 228 -341 394 -137 160
-134 160 -112 -18 l13 -108 -26 28 c-64 66 -595 618 -600 623 -3 3 -21 22 -40
43 l-35 38 56 -25 c31 -13 156 -75 279 -136 122 -61 228 -109 234 -107 7 3 25
73 41 161 16 86 32 153 35 149 4 -5 41 -57 82 -118z"/>
</g>
</svg>
