<?xml version="1.0" standalone="no"?>
<!DOCTYPE svg PUBLIC "-//W3C//DTD SVG 20010904//EN"
 "http://www.w3.org/TR/2001/REC-SVG-20010904/DTD/svg10.dtd">
<svg version="1.0" xmlns="http://www.w3.org/2000/svg"
 width="512.000000pt" height="512.000000pt" viewBox="0 0 512.000000 512.000000"
 preserveAspectRatio="xMidYMid meet">
<metadata>
Created by potrace 1.15, written by Peter Selinger 2001-2017
</metadata>
<g transform="translate(0.000000,512.000000) scale(0.100000,-0.100000)"
fill="#ffffff" stroke="none">
<path d="M2035 4903 c-42 -389 -199 -734 -486 -1068 -321 -375 -815 -645
-1244 -682 -41 -3 -75 -9 -75 -13 0 -11 204 -58 300 -70 310 -37 636 33 906
196 352 212 592 561 669 974 24 128 25 371 2 497 -17 89 -54 223 -62 223 -2 0
-6 -26 -10 -57z"/>
<path d="M210 4336 l0 -584 33 -11 c184 -58 368 -61 537 -9 468 144 713 659
533 1121 l-26 67 -539 0 -538 0 0 -584z"/>
<path d="M2820 4870 c-1 -34 -20 -199 -31 -260 -66 -385 -268 -823 -537 -1165
-263 -335 -577 -598 -952 -798 -265 -141 -625 -253 -883 -273 -48 -4 -90 -10
-92 -14 -5 -9 145 -52 255 -74 140 -28 291 -39 455 -33 647 23 1214 341 1578
885 312 466 403 1059 251 1622 -27 98 -43 139 -44 110z"/>
<path d="M3697 4844 c-4 -4 -7 -32 -7 -63 0 -31 -9 -118 -20 -193 -54 -368
-161 -696 -339 -1043 -82 -159 -110 -207 -199 -345 -146 -225 -394 -519 -607
-720 -589 -555 -1339 -915 -2042 -982 -73 -7 -133 -15 -133 -19 0 -7 177 -58
275 -80 597 -132 1203 -62 1743 201 166 82 285 154 420 254 395 295 709 709
886 1168 113 293 163 549 173 873 8 288 -19 524 -91 785 -41 150 -50 173 -59
164z"/>
<path d="M4706 4528 c-52 -765 -401 -1610 -951 -2298 -533 -667 -1224 -1187
-1982 -1489 -376 -150 -739 -237 -1115 -266 -49 -4 -88 -10 -88 -14 0 -4 17
-12 38 -18 20 -5 76 -22 124 -36 525 -156 1152 -166 1705 -27 705 177 1303
564 1763 1140 354 444 580 969 671 1555 40 265 38 703 -7 985 -29 183 -119
538 -143 563 -5 4 -11 -38 -15 -95z"/>
</g>
</svg>
