<?xml version="1.0" standalone="no"?>
<!DOCTYPE svg PUBLIC "-//W3C//DTD SVG 20010904//EN"
 "http://www.w3.org/TR/2001/REC-SVG-20010904/DTD/svg10.dtd">
<svg version="1.0" xmlns="http://www.w3.org/2000/svg"
 width="512.000000pt" height="512.000000pt" viewBox="0 0 512.000000 512.000000"
 preserveAspectRatio="xMidYMid meet">
<metadata>
Created by potrace 1.15, written by Peter Selinger 2001-2017
</metadata>
<g transform="translate(0.000000,512.000000) scale(0.100000,-0.100000)"
fill="#ffffff" stroke="none">
<path d="M168 5023 l-88 -4 0 -175 c0 -207 -29 -153 224 -419 184 -194 375
-395 387 -409 4 -4 34 1 66 12 304 105 767 261 768 259 2 -1 44 -75 94 -163
l92 -162 115 -18 c71 -11 113 -22 110 -28 -99 -233 -201 -457 -220 -486 l-25
-37 50 -59 c28 -33 68 -82 90 -110 l40 -52 -217 -377 c-119 -207 -217 -383
-218 -390 -1 -14 279 -325 292 -325 4 1 38 29 77 64 l69 64 -102 109 -101 110
102 179 c237 412 231 404 243 391 6 -7 78 -93 159 -192 81 -99 151 -181 156
-183 9 -4 133 107 137 123 1 6 -111 149 -250 319 -139 169 -258 315 -265 324
-9 14 15 53 156 249 92 128 169 234 171 237 6 5 690 49 695 44 4 -4 115 -524
115 -543 1 -5 37 28 80 75 52 55 80 93 80 108 0 13 -25 140 -55 284 -30 143
-55 270 -55 283 l0 22 -277 6 c-153 4 -393 7 -533 8 -140 1 -295 4 -345 8
l-89 6 -58 289 c-32 159 -60 291 -62 293 -4 5 -52 -13 -256 -92 -87 -34 -245
-95 -494 -192 -77 -29 -143 -50 -148 -45 -4 4 -81 140 -171 302 l-164 295
-144 1 c-79 0 -183 -1 -231 -3z"/>
<path d="M4771 4741 c-119 -87 -274 -180 -408 -243 l-103 -48 0 -98 c0 -405
-241 -882 -718 -1422 -225 -255 -624 -627 -977 -910 -229 -184 -778 -590 -798
-590 -7 0 -100 141 -95 144 646 451 1045 774 1457 1180 374 368 631 699 789
1014 103 206 151 364 166 546 7 73 6 78 -11 72 -22 -9 -205 -52 -255 -61 -33
-5 -38 -10 -42 -38 -2 -18 -10 -69 -16 -115 -35 -257 -191 -534 -494 -882
-170 -195 -577 -595 -891 -876 -392 -350 -807 -714 -830 -726 -9 -6 -60 55
-180 217 -92 124 -170 225 -173 225 -13 0 -187 -153 -187 -165 0 -6 32 -38 70
-71 61 -53 177 -173 311 -323 21 -25 62 -69 90 -99 l51 -56 -141 -121 c-195
-167 -393 -323 -594 -466 l-92 -67 -58 24 c-74 30 -170 32 -244 4 -64 -24
-143 -97 -172 -160 -30 -64 -29 -196 0 -261 31 -66 84 -121 151 -155 50 -25
69 -29 138 -29 69 0 88 4 138 29 113 58 169 149 174 281 l2 79 78 59 c207 156
784 557 801 557 13 0 225 -282 415 -552 65 -93 121 -168 123 -168 7 0 204 171
204 177 0 2 -100 119 -223 260 -122 140 -223 258 -224 261 -2 4 16 20 40 36
641 447 1257 932 1680 1324 688 637 1088 1206 1192 1692 22 104 30 279 16 370
-13 82 -50 220 -60 220 -4 0 -49 -31 -100 -69z m-4205 -4137 c74 -35 86 -143
23 -196 -50 -42 -110 -39 -155 6 -29 29 -34 41 -34 83 0 54 18 83 65 107 38
20 59 20 101 0z"/>
<path d="M4283 2840 c-153 -171 -143 -156 -483 -715 -100 -165 -193 -317 -206
-337 -13 -21 -24 -40 -24 -42 0 -4 214 -339 506 -790 42 -66 77 -125 78 -132
0 -7 -119 -157 -266 -333 -148 -176 -268 -325 -268 -329 0 -12 132 -122 145
-121 12 0 629 743 633 763 2 7 -35 72 -81 142 -46 71 -105 164 -133 207 -27
42 -80 126 -119 185 -38 60 -89 137 -111 173 -23 35 -67 103 -97 150 l-55 86
102 169 c168 276 149 253 193 248 21 -2 89 -8 151 -13 63 -5 116 -12 119 -15
3 -2 -16 -160 -43 -350 -26 -191 -45 -348 -43 -350 6 -6 702 -136 706 -133 7
7 34 159 31 174 -2 13 -51 26 -257 65 -140 26 -256 50 -259 53 -3 2 18 166 45
362 28 197 50 359 49 360 -1 1 -97 10 -213 20 l-210 17 27 45 c36 61 222 365
225 369 3 3 60 -33 231 -144 l87 -57 186 49 c171 45 186 51 189 73 4 23 -25
149 -37 163 -3 4 -73 -10 -155 -32 l-148 -39 -67 43 c-140 92 -275 176 -280
176 -3 -1 -70 -72 -148 -160z"/>
<path d="M2632 1410 c-45 -34 -80 -64 -78 -69 3 -4 33 -25 68 -46 114 -70 483
-298 486 -300 6 -5 2 -447 -4 -672 l-7 -213 100 0 100 0 6 362 c4 199 7 423 7
498 l0 136 -292 180 c-160 98 -294 180 -298 182 -3 1 -43 -25 -88 -58z"/>
<path d="M1608 692 l-106 -187 25 -45 c180 -323 237 -420 247 -420 6 0 46 21
89 46 l78 45 -32 57 c-18 31 -66 115 -106 186 l-74 129 52 91 c29 50 57 98 62
107 8 12 -3 35 -48 98 -32 44 -63 81 -69 81 -6 0 -59 -85 -118 -188z"/>
</g>
</svg>
