<?xml version="1.0" standalone="no"?>
<!DOCTYPE svg PUBLIC "-//W3C//DTD SVG 20010904//EN"
 "http://www.w3.org/TR/2001/REC-SVG-20010904/DTD/svg10.dtd">
<svg version="1.0" xmlns="http://www.w3.org/2000/svg"
 width="512.000000pt" height="512.000000pt" viewBox="0 0 512.000000 512.000000"
 preserveAspectRatio="xMidYMid meet">
<metadata>
Created by potrace 1.15, written by Peter Selinger 2001-2017
</metadata>
<g transform="translate(0.000000,512.000000) scale(0.100000,-0.100000)"
fill="#ffffff" stroke="none">
<path d="M2140 4838 c-91 -46 -204 -108 -251 -139 l-86 -57 -12 33 c-15 42
-52 66 -103 67 -106 1 -156 -125 -78 -195 l31 -28 -55 -60 c-68 -73 -124 -155
-156 -229 -21 -47 -25 -71 -25 -160 0 -99 2 -109 33 -172 38 -78 118 -163 210
-222 l65 -43 1 -66 c2 -105 56 -162 156 -162 65 0 99 18 135 71 l19 29 103
-26 c134 -36 354 -75 525 -94 244 -27 436 -94 573 -198 157 -119 235 -314 206
-519 -6 -46 -14 -95 -17 -110 -4 -16 -2 -28 4 -28 21 0 150 152 184 217 63
119 71 219 28 340 l-18 53 42 -29 c58 -40 114 -105 138 -159 28 -63 21 -150
-18 -223 -60 -114 -259 -282 -479 -405 l-70 -39 145 -3 c167 -4 243 7 386 53
275 90 433 233 434 393 0 59 -20 115 -53 150 l-22 24 30 -7 c251 -55 347 -161
277 -307 -27 -55 -115 -144 -182 -184 -27 -16 -50 -32 -50 -36 0 -4 31 4 69
17 284 96 428 245 420 434 -2 47 2 64 19 86 33 41 30 106 -6 146 -21 24 -38
32 -75 36 -44 5 -50 9 -91 67 -55 78 -165 181 -240 225 -82 49 -198 90 -482
172 -293 84 -454 142 -674 243 -205 96 -306 156 -390 233 -74 69 -100 112
-100 168 0 49 20 85 76 133 l46 41 37 -39 c33 -35 43 -40 84 -40 82 0 135 73
109 148 l-10 29 105 33 c353 108 1044 203 1738 238 l140 7 3 88 3 87 -1333 0
-1333 0 -165 -82z m134 -325 c-132 -144 -171 -348 -96 -507 70 -148 243 -265
480 -325 135 -34 127 -38 -75 -48 -197 -9 -345 21 -481 99 -69 39 -172 139
-200 195 l-21 41 33 6 c38 7 84 48 92 83 18 72 -28 134 -106 143 l-48 5 21 55
c26 72 136 183 222 225 49 23 190 72 216 74 4 1 -13 -20 -37 -46z"/>
<path d="M1260 4623 c-27 -10 -70 -56 -70 -75 0 -12 -8 -18 -22 -18 -47 -1
-106 -37 -127 -79 -24 -47 -26 -79 -7 -124 23 -54 59 -80 119 -85 88 -7 157
47 157 123 0 26 5 33 35 44 21 7 41 24 50 41 19 38 19 100 -1 128 -28 41 -89
61 -134 45z"/>
<path d="M4600 4603 c-486 -21 -930 -107 -1175 -227 -166 -82 -244 -169 -245
-273 0 -33 -4 -43 -21 -48 -29 -10 -59 -64 -59 -108 0 -31 7 -46 34 -73 29
-29 41 -34 81 -34 39 0 52 5 77 31 l31 30 66 -27 c113 -46 258 -93 490 -160
123 -35 226 -64 230 -64 3 0 5 30 3 68 -6 123 53 232 177 323 l66 48 23 -29
c32 -41 87 -56 134 -37 46 19 69 54 71 109 l2 43 85 17 c47 9 133 20 193 24
l107 7 0 193 0 194 -152 -2 c-84 -1 -182 -3 -218 -5z"/>
<path d="M4673 4001 c-17 -11 -37 -29 -42 -40 -19 -34 -13 -96 12 -127 17 -22
22 -42 22 -89 0 -68 25 -114 75 -140 38 -20 103 -19 146 1 100 48 99 216 -3
264 -24 11 -32 23 -37 50 -12 78 -107 122 -173 81z"/>
<path d="M1155 3898 c-52 -45 -48 -140 7 -181 59 -44 151 -15 174 53 27 81
-22 150 -106 150 -36 0 -56 -6 -75 -22z"/>
<path d="M4354 3850 c-38 -15 -64 -59 -64 -106 0 -126 181 -157 220 -38 33 98
-60 183 -156 144z"/>
<path d="M2425 3251 c-11 -5 -30 -19 -41 -32 -68 -76 -14 -189 90 -189 30 0
45 7 72 34 29 29 34 41 34 80 0 61 -37 105 -95 111 -22 3 -49 1 -60 -4z"/>
<path d="M1800 3004 c-97 -35 -160 -74 -240 -150 l-55 -52 -70 24 c-46 15 -93
24 -138 24 -119 0 -159 -40 -159 -161 0 -137 76 -304 215 -472 l39 -47 80 75
c88 83 195 142 308 172 94 24 244 22 343 -5 42 -12 80 -22 84 -22 10 0 -5 210
-21 286 -32 150 -81 240 -165 299 -38 27 -51 30 -124 32 -45 1 -89 0 -97 -3z"/>
<path d="M2855 2780 c-135 -28 -268 -104 -391 -222 -75 -72 -169 -187 -169
-207 0 -5 29 -30 63 -56 82 -61 148 -141 198 -238 21 -42 42 -77 46 -77 15 0
210 154 289 228 171 160 262 304 263 419 1 72 -18 105 -78 136 -43 23 -156 31
-221 17z"/>
<path d="M4604 2316 c-26 -26 -34 -42 -34 -70 0 -52 23 -90 66 -111 46 -21 93
-14 128 22 75 74 25 193 -81 193 -38 0 -50 -5 -79 -34z"/>
<path d="M511 2264 c-30 -8 -69 -24 -87 -35 -86 -53 -56 -167 78 -295 142
-137 341 -234 612 -299 155 -38 147 -41 140 58 -7 87 5 184 32 263 l15 44 -75
89 c-41 49 -78 97 -83 106 -11 19 -124 50 -261 70 -123 19 -300 18 -371 -1z"/>
<path d="M1847 2250 c-27 -5 -51 -10 -53 -12 -2 -2 6 -78 17 -167 11 -90 18
-165 17 -167 -2 -1 -58 44 -126 102 l-122 104 -30 -32 c-45 -49 -98 -165 -112
-246 -6 -39 -9 -74 -5 -78 3 -3 75 -15 159 -25 84 -11 157 -20 161 -22 4 -1
-53 -46 -127 -100 -75 -54 -136 -100 -136 -102 0 -31 111 -150 179 -194 52
-34 158 -74 165 -63 2 4 25 80 51 170 27 89 51 162 54 162 3 0 38 -73 76 -161
39 -88 73 -162 76 -165 4 -2 40 13 80 33 86 43 180 131 222 210 l28 52 -103
54 c-57 30 -116 62 -132 70 l-30 15 85 25 c46 14 112 34 146 44 60 17 63 19
63 50 0 71 -84 263 -115 263 -7 0 -63 -33 -126 -73 -63 -40 -119 -76 -125 -80
-7 -4 -2 34 13 96 13 56 29 123 35 150 8 31 8 51 2 57 -15 15 -142 40 -194 39
-25 -1 -67 -5 -93 -9z"/>
<path d="M3060 2065 c-37 -8 -81 -27 -102 -42 -20 -16 -82 -62 -136 -103 -54
-41 -119 -89 -144 -106 l-45 -32 -2 -69 c-2 -95 -23 -171 -76 -278 -38 -77
-42 -92 -29 -101 23 -18 371 -131 502 -163 205 -50 317 -64 486 -59 172 5 245
25 291 79 74 89 -26 244 -243 374 l-99 60 58 62 c86 93 97 156 43 250 -26 46
-83 89 -154 118 -61 25 -259 30 -350 10z"/>
<path d="M750 1481 c-314 -113 -510 -260 -510 -382 0 -43 29 -80 88 -112 94
-51 159 -62 358 -61 l182 2 -25 -61 c-31 -75 -63 -200 -63 -241 0 -128 86
-206 225 -206 221 1 453 187 563 452 28 66 72 216 72 242 0 6 -21 22 -46 35
-61 33 -184 148 -224 211 -18 28 -42 52 -54 54 -11 3 -64 12 -116 21 -52 8
-150 31 -217 50 -67 19 -123 35 -125 34 -2 0 -50 -17 -108 -38z"/>
<path d="M2330 1174 c-19 -14 -59 -36 -87 -51 -29 -14 -53 -29 -53 -32 0 -4
31 -62 70 -130 257 -449 528 -721 717 -721 88 0 118 67 111 245 -6 130 -38
238 -119 396 -55 108 -84 149 -103 149 -19 0 -333 106 -416 140 -40 17 -76 30
-79 30 -3 -1 -22 -12 -41 -26z"/>
<path d="M1805 1034 c-33 -153 -118 -343 -203 -456 -51 -69 -52 -71 -41 -107
38 -116 121 -229 194 -262 51 -23 145 -24 203 -1 126 50 237 203 273 378 l12
61 -65 104 c-36 57 -89 148 -118 202 -53 95 -54 97 -90 97 -21 0 -64 3 -98 6
l-61 7 -6 -29z"/>
</g>
</svg>
