<?xml version="1.0" standalone="no"?>
<!DOCTYPE svg PUBLIC "-//W3C//DTD SVG 20010904//EN"
 "http://www.w3.org/TR/2001/REC-SVG-20010904/DTD/svg10.dtd">
<svg version="1.0" xmlns="http://www.w3.org/2000/svg"
 width="512.000000pt" height="512.000000pt" viewBox="0 0 512.000000 512.000000"
 preserveAspectRatio="xMidYMid meet">
<metadata>
Created by potrace 1.15, written by Peter Selinger 2001-2017
</metadata>
<g transform="translate(0.000000,512.000000) scale(0.100000,-0.100000)"
fill="#ffffff" stroke="none">
<path d="M2130 4911 c-162 -23 -310 -106 -386 -217 -32 -46 -36 -57 -24 -64 8
-5 46 -32 85 -59 l69 -51 -137 0 -137 0 -104 49 c-149 71 -203 85 -321 85
-155 -1 -258 -35 -391 -130 -92 -65 -154 -144 -194 -249 -36 -94 -33 -215 8
-318 18 -43 32 -82 32 -85 0 -4 -21 -20 -46 -36 -192 -121 -332 -297 -380
-476 -25 -95 -23 -262 4 -367 22 -84 65 -201 100 -269 l19 -38 -38 -58 c-55
-86 -72 -144 -68 -236 3 -59 11 -90 32 -133 34 -70 106 -144 178 -184 49 -27
63 -30 145 -30 85 0 95 2 170 39 61 31 99 59 165 126 l86 86 102 12 c56 7 135
22 177 33 240 63 443 235 529 448 45 112 58 202 53 362 l-6 148 37 12 c106 34
179 95 231 192 l35 66 40 -33 c107 -88 255 -118 394 -81 30 8 58 12 61 10 4
-3 10 -31 14 -64 10 -91 43 -197 88 -286 60 -116 191 -245 308 -302 47 -23
108 -47 135 -54 28 -7 51 -13 52 -14 2 -1 -4 -37 -13 -81 -25 -132 0 -231 79
-312 95 -98 229 -132 387 -97 36 8 72 14 80 14 8 1 33 -25 55 -55 54 -75 158
-173 227 -211 139 -79 295 -96 446 -48 172 54 332 202 396 365 24 61 32 175
16 252 -25 130 -91 241 -212 359 l-78 77 48 31 c26 17 58 41 69 53 65 69 83
209 39 303 -36 77 -80 106 -183 120 l-52 7 7 31 c4 18 7 111 6 207 0 201 -15
274 -84 418 -51 108 -89 161 -174 250 -214 222 -484 332 -816 332 -193 0 -358
-38 -546 -125 l-91 -42 -39 49 c-149 189 -439 303 -684 269z"/>
<path d="M2184 3289 c-14 -15 -101 -83 -121 -94 -2 -1 11 -37 28 -81 71 -183
158 -538 190 -774 l11 -85 -44 -100 c-25 -55 -58 -127 -75 -159 l-30 -59 -81
164 c-80 162 -216 383 -232 377 -5 -2 -38 -32 -75 -67 l-66 -63 62 -95 c34
-52 101 -177 149 -277 86 -178 88 -183 106 -311 16 -106 19 -190 19 -460 0
-337 -7 -422 -51 -665 l-16 -85 -121 -29 c-67 -15 -182 -48 -255 -73 -194 -65
-502 -191 -502 -205 0 -5 570 -8 1267 -8 747 0 1263 4 1258 9 -16 15 -252 116
-398 170 -153 57 -259 89 -384 117 l-83 19 -50 103 c-84 170 -145 375 -170
576 -8 67 -7 90 10 155 83 325 221 570 469 830 44 47 79 86 77 88 -9 9 -242
-105 -327 -160 -31 -20 -85 -59 -119 -86 -35 -28 -65 -49 -67 -47 -8 8 40 134
88 230 75 149 175 294 298 430 l63 68 -49 23 c-26 13 -63 35 -82 49 -19 14
-38 26 -42 26 -14 0 -171 -194 -231 -285 -33 -49 -61 -91 -62 -92 -1 -2 17 55
40 125 23 70 59 186 79 258 l37 131 -37 52 c-21 29 -53 80 -71 114 -21 39 -35
56 -38 47 -3 -8 -23 -80 -45 -160 -67 -241 -74 -265 -81 -273 -3 -4 -14 30
-24 75 -44 205 -167 578 -191 578 -6 0 -20 -9 -31 -21z"/>
</g>
</svg>
