<?xml version="1.0" standalone="no"?>
<!DOCTYPE svg PUBLIC "-//W3C//DTD SVG 20010904//EN"
 "http://www.w3.org/TR/2001/REC-SVG-20010904/DTD/svg10.dtd">
<svg version="1.0" xmlns="http://www.w3.org/2000/svg"
 width="512.000000pt" height="512.000000pt" viewBox="0 0 512.000000 512.000000"
 preserveAspectRatio="xMidYMid meet">
<metadata>
Created by potrace 1.15, written by Peter Selinger 2001-2017
</metadata>
<g transform="translate(0.000000,512.000000) scale(0.100000,-0.100000)"
fill="#ffffff" stroke="none">
<path d="M795 4452 c-134 -64 -221 -203 -240 -382 -13 -128 45 -294 128 -365
57 -49 102 -67 178 -73 60 -4 75 -1 133 26 288 135 335 613 76 781 -50 32 -63
36 -135 39 -71 3 -86 0 -140 -26z"/>
<path d="M2495 4333 c-76 -56 -145 -173 -145 -245 0 -81 76 -388 99 -402 9 -6
92 53 161 113 l35 31 -47 42 c-60 55 -88 103 -88 151 0 30 8 46 43 84 73 80
175 112 241 78 34 -18 46 -8 46 37 0 80 -80 130 -219 136 -82 4 -88 3 -126
-25z"/>
<path d="M2125 3873 c-62 -26 -285 -86 -365 -98 -25 -4 -49 -9 -53 -12 -4 -2
8 -26 26 -51 40 -55 83 -139 121 -238 l28 -71 51 -12 c27 -6 107 -34 176 -62
253 -103 277 -112 326 -125 27 -7 51 -12 53 -10 2 2 -11 26 -28 54 -81 132
-194 406 -233 563 -12 49 -26 89 -32 88 -5 0 -37 -12 -70 -26z"/>
<path d="M3849 3847 c-1 -17 -5 -179 -8 -359 l-6 -327 -309 160 c-170 88 -312
157 -317 152 -11 -12 -233 -613 -227 -618 2 -2 163 -11 357 -19 195 -9 356
-18 359 -20 3 -4 -170 -490 -182 -513 -1 -1 -199 -25 -441 -53 -242 -29 -442
-54 -443 -55 -5 -4 -341 -966 -345 -983 -1 -9 57 -35 173 -76 96 -35 200 -73
230 -85 338 -137 799 -367 1088 -542 61 -38 117 -70 122 -72 6 -1 120 249 255
557 l245 559 -174 186 c-95 102 -223 240 -284 306 l-110 119 17 46 c10 25 55
143 101 262 l83 217 91 -76 c93 -77 213 -176 369 -303 48 -40 90 -71 92 -69 6
7 265 647 265 656 0 4 -147 39 -328 77 -180 38 -330 71 -335 73 -4 2 20 39 53
81 259 330 362 464 359 467 -2 1 -159 62 -349 133 -190 72 -357 135 -372 141
-27 10 -28 9 -29 -22z"/>
<path d="M1306 3721 c-26 -49 -118 -143 -181 -183 -163 -106 -377 -103 -522 8
l-32 24 -53 -43 c-67 -55 -136 -140 -174 -214 -52 -105 -44 -269 20 -408 77
-168 362 -356 620 -410 73 -15 306 -22 319 -9 3 3 -10 27 -29 54 -51 72 -113
210 -139 313 l-23 92 -38 8 c-125 25 -176 42 -289 98 -69 33 -125 65 -125 70
0 7 49 136 56 147 1 2 47 -19 102 -47 129 -65 208 -91 275 -91 82 0 113 15
139 66 47 94 181 188 269 187 54 -1 182 -57 218 -97 14 -14 28 -26 32 -26 7 0
-82 226 -111 281 -42 80 -124 148 -213 179 -98 33 -105 33 -121 1z"/>
<path d="M1780 3159 c0 -11 -5 -29 -11 -40 -10 -19 -11 -19 -42 3 -28 20 -44
23 -127 23 -85 0 -100 -3 -141 -27 -28 -17 -49 -37 -53 -51 -9 -38 19 -116 68
-189 l45 -66 -70 -26 c-39 -14 -77 -26 -85 -26 -21 0 -18 -10 24 -78 41 -68
107 -141 195 -214 l59 -48 -39 -16 c-89 -38 -205 -74 -288 -89 -133 -25 -317
-8 -471 45 -31 11 -59 18 -62 16 -2 -3 10 -35 27 -71 42 -89 87 -228 111 -345
25 -124 43 -354 35 -452 l-7 -78 89 0 c231 0 600 -54 912 -133 l170 -43 15 40
c7 23 73 209 145 415 72 205 131 377 131 382 0 4 -32 48 -70 96 -175 217 -347
522 -496 875 -48 115 -64 139 -64 97z"/>
<path d="M730 1289 c-191 -22 -339 -62 -470 -128 l-75 -38 -3 -117 -3 -117 38
17 c150 65 293 104 453 126 127 17 453 14 615 -6 639 -76 1490 -382 2187 -785
l106 -61 198 2 198 3 -95 62 c-787 513 -1762 909 -2509 1017 -232 34 -479 43
-640 25z"/>
<path d="M4430 564 c-184 -18 -258 -26 -276 -31 -16 -3 -33 -30 -63 -95 -23
-50 -39 -93 -37 -95 3 -3 80 1 173 7 92 7 291 13 441 14 l273 1 -3 100 -3 100
-235 1 c-129 1 -251 -1 -270 -2z"/>
</g>
</svg>
