<?xml version="1.0" standalone="no"?>
<!DOCTYPE svg PUBLIC "-//W3C//DTD SVG 20010904//EN"
 "http://www.w3.org/TR/2001/REC-SVG-20010904/DTD/svg10.dtd">
<svg version="1.0" xmlns="http://www.w3.org/2000/svg"
 width="512.000000pt" height="512.000000pt" viewBox="0 0 512.000000 512.000000"
 preserveAspectRatio="xMidYMid meet">
<metadata>
Created by potrace 1.15, written by Peter Selinger 2001-2017
</metadata>
<g transform="translate(0.000000,512.000000) scale(0.100000,-0.100000)"
fill="#ffffff" stroke="none">
<path d="M2380 4063 c-231 -34 -375 -75 -577 -162 -438 -188 -821 -471 -1230
-906 -122 -130 -334 -379 -354 -417 -13 -24 1 -45 144 -218 586 -704 1249
-1153 1902 -1286 141 -29 462 -26 610 5 447 94 904 340 1335 717 116 102 381
369 478 482 67 79 203 249 216 270 14 24 -201 287 -414 506 -354 364 -659 595
-1025 776 -268 132 -442 191 -668 224 -94 14 -348 20 -417 9z m405 -249 c135
-26 385 -117 385 -141 0 -5 -19 -18 -42 -30 -58 -28 -139 -102 -178 -163 -39
-61 -70 -156 -70 -215 l0 -44 -44 20 c-24 10 -76 26 -115 35 l-71 16 0 114 0
114 -90 0 -90 0 0 -114 0 -114 -71 -16 c-273 -62 -494 -282 -555 -552 l-16
-74 -114 0 -114 0 0 -90 0 -90 115 0 115 0 5 -27 c36 -176 90 -278 210 -399
75 -76 105 -99 182 -137 50 -25 126 -53 167 -62 l76 -17 0 -114 0 -114 90 0
90 0 0 114 0 114 76 17 c43 9 117 37 168 63 73 38 109 64 182 137 78 77 98
104 137 185 41 85 51 114 72 213 l5 27 115 0 115 0 0 90 0 90 -115 0 -115 0
-5 28 c-15 67 -20 62 60 62 153 0 260 44 362 148 41 42 65 59 68 50 51 -137
71 -430 41 -593 -23 -121 -78 -283 -127 -375 -113 -208 -292 -395 -493 -513
-324 -189 -740 -222 -1091 -88 -344 132 -636 434 -750 776 -66 195 -87 464
-52 645 85 434 383 794 794 957 209 83 468 108 688 67z m-225 -934 l90 0 0
109 0 109 58 -15 c177 -46 325 -197 377 -385 l13 -48 -109 0 -109 0 0 -90 0
-90 109 0 109 0 -13 -47 c-52 -197 -208 -348 -407 -397 l-28 -6 0 110 0 110
-90 0 -90 0 0 -110 c0 -60 -1 -110 -3 -110 -2 0 -28 7 -58 16 -184 55 -326
200 -375 386 l-12 48 109 0 109 0 0 90 0 90 -110 0 -110 0 6 28 c46 193 196
353 379 403 l60 16 3 -108 3 -109 89 0z"/>
</g>
</svg>
