<?xml version="1.0" standalone="no"?>
<!DOCTYPE svg PUBLIC "-//W3C//DTD SVG 20010904//EN"
 "http://www.w3.org/TR/2001/REC-SVG-20010904/DTD/svg10.dtd">
<svg version="1.0" xmlns="http://www.w3.org/2000/svg"
 width="512.000000pt" height="512.000000pt" viewBox="0 0 512.000000 512.000000"
 preserveAspectRatio="xMidYMid meet">
<metadata>
Created by potrace 1.15, written by Peter Selinger 2001-2017
</metadata>
<g transform="translate(0.000000,512.000000) scale(0.100000,-0.100000)"
fill="#ffffff" stroke="none">
<path d="M2290 4313 c-410 -28 -750 -130 -1070 -322 -496 -298 -822 -698 -939
-1152 -42 -162 -55 -295 -48 -479 10 -253 57 -477 170 -799 50 -145 51 -146
119 -214 97 -96 221 -174 466 -293 117 -57 216 -104 219 -104 3 0 3 46 -1 101
-7 95 -6 101 11 94 10 -4 53 -20 95 -35 l76 -29 -5 75 -6 74 107 0 c58 0 106
2 106 5 0 3 -74 88 -165 190 l-164 184 33 73 c40 87 70 200 93 355 11 73 22
117 30 120 8 3 55 -4 106 -15 50 -12 177 -40 282 -63 l189 -42 275 32 c150 18
277 29 280 24 4 -4 15 -73 25 -153 25 -211 71 -424 127 -595 l49 -150 353
-197 c193 -108 353 -192 355 -188 2 5 -4 46 -13 91 -9 44 -15 83 -12 85 5 5
174 -21 211 -33 17 -5 18 -1 12 48 -4 30 -9 69 -13 88 l-6 34 117 -6 c64 -3
116 -2 116 2 0 4 -12 18 -27 31 -16 12 -55 48 -88 79 -96 90 -265 244 -301
275 l-34 29 0 207 0 208 37 33 c77 67 206 110 337 110 135 0 132 3 139 -99 6
-98 30 -175 108 -340 62 -132 116 -201 287 -365 40 -38 76 -66 81 -63 5 3 12
44 16 91 4 47 10 85 14 85 3 0 53 -9 111 -20 58 -11 106 -20 108 -20 1 0 -1
37 -4 82 l-7 81 69 -7 c38 -4 93 -10 123 -13 45 -5 53 -4 46 8 -5 8 -60 94
-122 192 l-113 178 0 179 c0 168 -16 429 -27 440 -2 3 -14 -9 -26 -25 -69 -96
-195 -180 -327 -219 -77 -23 -338 -24 -435 -1 -92 22 -185 68 -246 123 -78 70
-78 72 -2 125 l67 45 48 -43 c27 -24 75 -54 106 -67 52 -21 73 -23 237 -23
l181 0 76 37 c119 59 188 139 188 220 0 27 11 44 65 97 35 34 76 87 92 116
l27 54 -23 53 c-64 148 -64 189 -1 287 78 121 77 209 -2 248 -67 33 -119 45
-137 31 -9 -7 -44 -40 -79 -75 l-63 -64 -62 8 c-34 4 -129 8 -212 7 -157 0
-264 -19 -365 -62 l-44 -18 -145 68 c-195 91 -230 90 -287 -8 -18 -30 -28 -65
-31 -107 -7 -87 9 -137 58 -182 l41 -37 -28 -70 c-15 -38 -31 -71 -36 -74 -13
-8 -72 32 -113 78 -21 22 -49 66 -64 97 -23 50 -26 68 -26 166 0 103 2 114 31
175 42 87 93 143 160 176 48 23 63 26 127 22 60 -4 92 -14 196 -62 l124 -56
66 19 c82 24 156 38 246 47 l70 7 -77 72 c-171 162 -352 284 -582 396 -281
136 -546 206 -866 229 -131 10 -165 10 -260 3z m2018 -1037 c86 -45 105 -171
34 -239 -59 -57 -134 -40 -172 38 -31 64 -23 124 23 174 38 41 73 49 115 27z
m-454 -74 c10 -9 25 -31 32 -49 39 -91 -22 -203 -111 -203 -36 0 -94 57 -104
103 -30 131 92 230 183 149z m341 -394 c38 -20 55 -41 55 -70 0 -22 -8 -33
-35 -49 l-34 -21 6 -79 6 -79 -85 0 -85 0 -7 78 c-6 72 -9 78 -36 94 -75 43
-33 120 75 139 45 8 110 2 140 -13z"/>
<path d="M1490 1963 c1 -5 18 -90 38 -191 l37 -182 195 -130 c106 -71 195
-128 197 -127 1 2 -3 33 -9 70 -6 37 -9 70 -6 72 3 3 38 1 77 -6 40 -6 75 -8
79 -5 3 4 -4 27 -16 51 -12 25 -22 48 -22 50 0 3 38 5 85 5 47 0 85 3 85 8 0
4 -45 48 -99 99 -78 73 -100 100 -105 127 -4 20 -14 37 -24 40 -52 16 -490
126 -500 126 -7 0 -12 -3 -12 -7z"/>
</g>
</svg>
