<?xml version="1.0" standalone="no"?>
<!DOCTYPE svg PUBLIC "-//W3C//DTD SVG 20010904//EN"
 "http://www.w3.org/TR/2001/REC-SVG-20010904/DTD/svg10.dtd">
<svg version="1.0" xmlns="http://www.w3.org/2000/svg"
 width="512.000000pt" height="512.000000pt" viewBox="0 0 512.000000 512.000000"
 preserveAspectRatio="xMidYMid meet">
<metadata>
Created by potrace 1.15, written by Peter Selinger 2001-2017
</metadata>
<g transform="translate(0.000000,512.000000) scale(0.100000,-0.100000)"
fill="#ffffff" stroke="none">
<path d="M294 4834 c-127 -124 -156 -157 -144 -165 8 -5 62 -37 120 -71 347
-203 607 -470 761 -781 l44 -87 -298 -298 -297 -297 173 -173 c95 -94 175
-172 179 -172 4 0 34 40 67 90 369 552 812 998 1350 1359 l94 63 -169 169
c-93 93 -173 169 -179 169 -5 0 -143 -133 -306 -296 l-296 -296 -84 42 c-323
162 -575 415 -799 802 l-56 97 -160 -155z"/>
<path d="M4334 4944 c36 -91 47 -289 21 -389 -61 -233 -245 -349 -452 -287
-85 26 -170 71 -246 129 -32 25 -60 44 -62 42 -2 -2 8 -38 22 -79 54 -158 40
-320 -36 -438 -47 -71 -88 -106 -171 -146 -60 -29 -73 -31 -170 -31 -98 0
-110 2 -173 32 -38 18 -83 45 -100 59 -17 14 -33 22 -35 16 -2 -6 4 -37 13
-69 22 -78 31 -255 16 -321 -38 -181 -179 -306 -376 -334 -149 -21 -149 -21
-373 181 -108 97 -243 218 -300 269 l-104 93 -36 -31 c-71 -60 -303 -305 -300
-317 2 -6 95 -114 208 -239 386 -427 350 -381 350 -444 0 -143 -46 -275 -126
-360 -53 -56 -147 -106 -229 -121 -75 -14 -209 -5 -307 21 -40 10 -73 18 -74
17 -2 -1 14 -27 35 -58 87 -130 106 -305 47 -436 -53 -117 -173 -207 -314
-234 -74 -14 -179 -1 -282 37 -35 13 -66 21 -68 20 -2 -2 18 -33 43 -68 99
-133 151 -274 142 -383 -9 -117 -86 -226 -198 -282 -116 -58 -302 -73 -437
-35 -39 11 -72 17 -72 13 0 -8 164 -116 310 -205 404 -245 855 -386 1235 -386
401 0 745 133 1025 397 92 86 210 216 210 231 0 4 -37 17 -81 30 -424 118
-636 425 -598 864 12 147 75 374 136 491 l19 39 75 -84 c42 -45 160 -177 264
-293 103 -115 207 -230 229 -255 44 -49 192 -213 242 -270 17 -19 80 -88 140
-154 l109 -118 160 -64 c236 -94 217 -81 164 -111 -57 -32 -216 -99 -260 -108
-19 -4 -41 -11 -49 -16 -19 -10 -39 -1 475 -201 932 -362 948 -368 952 -364 2
2 -55 156 -127 342 -196 503 -192 495 -268 689 -38 99 -89 231 -113 293 -23
61 -46 112 -49 112 -4 0 -17 -35 -29 -77 -22 -77 -79 -208 -118 -270 l-20 -33
-74 191 -74 191 -180 161 c-99 89 -182 164 -185 167 -3 3 -115 105 -250 225
-135 121 -250 224 -256 230 -10 9 -85 76 -244 219 -36 32 -66 62 -68 66 -1 4
23 18 55 32 474 208 880 174 1127 -94 76 -81 161 -243 197 -373 13 -44 24 -82
26 -84 11 -15 239 206 314 305 287 375 377 819 268 1329 -68 316 -250 719
-480 1062 -49 73 -79 104 -65 67z"/>
</g>
</svg>
