<?xml version="1.0" standalone="no"?>
<!DOCTYPE svg PUBLIC "-//W3C//DTD SVG 20010904//EN"
 "http://www.w3.org/TR/2001/REC-SVG-20010904/DTD/svg10.dtd">
<svg version="1.0" xmlns="http://www.w3.org/2000/svg"
 width="512.000000pt" height="512.000000pt" viewBox="0 0 512.000000 512.000000"
 preserveAspectRatio="xMidYMid meet">
<metadata>
Created by potrace 1.15, written by Peter Selinger 2001-2017
</metadata>
<g transform="translate(0.000000,512.000000) scale(0.100000,-0.100000)"
fill="#ffffff" stroke="none">
<path d="M2965 4356 c-366 -53 -686 -192 -980 -426 -44 -35 -210 -197 -369
-360 -575 -587 -706 -709 -882 -823 -155 -100 -304 -157 -464 -179 l-90 -12 0
-453 c0 -249 2 -453 6 -453 11 0 132 86 221 157 152 122 272 265 473 564 272
405 396 565 612 793 319 336 422 423 594 506 133 64 220 85 359 85 135 0 190
-14 286 -71 59 -36 142 -117 161 -159 13 -30 28 -33 28 -6 0 10 9 47 20 82 85
276 401 223 569 -95 17 -33 39 -85 47 -115 8 -31 18 -63 21 -71 3 -8 14 18 24
58 63 239 174 346 282 272 l32 -22 -42 -86 c-188 -389 -222 -867 -97 -1367
164 -657 577 -1238 1057 -1489 48 -25 94 -46 102 -46 12 0 15 19 15 104 l0
104 -65 37 c-151 84 -369 284 -498 456 -258 346 -430 775 -478 1199 -17 149
-6 427 21 555 22 104 70 256 99 313 l17 32 37 -94 c53 -135 104 -317 139 -501
17 -88 33 -167 35 -175 3 -8 20 39 38 106 76 274 168 433 271 469 110 38 199
-76 240 -308 7 -45 14 -104 14 -131 0 -63 15 -52 59 43 134 290 30 649 -279
962 -265 269 -634 456 -1050 531 -145 26 -451 33 -585 14z"/>
<path d="M2765 3403 c-542 -121 -1247 -814 -1768 -1739 -182 -322 -334 -659
-434 -963 -45 -137 -106 -371 -118 -451 -4 -25 -9 -53 -11 -62 -5 -17 21 -18
454 -18 l459 0 7 133 c24 457 104 877 252 1317 268 797 716 1468 1166 1745 62
39 68 45 43 44 -17 -1 -39 -3 -50 -6z"/>
<path d="M3075 3216 c-456 -348 -821 -1162 -970 -2163 -37 -248 -59 -627 -48
-810 l5 -73 394 0 c217 0 394 2 394 5 0 3 -9 24 -20 46 -126 245 -200 674
-200 1149 0 343 27 596 96 911 88 400 206 686 376 912 32 42 55 77 51 77 -5 0
-39 -24 -78 -54z"/>
<path d="M3342 2929 c-67 -181 -119 -389 -148 -599 -22 -153 -29 -509 -15
-681 39 -456 169 -925 372 -1336 l71 -143 400 0 400 0 -64 47 c-152 113 -368
362 -500 578 -273 448 -455 1017 -499 1560 -13 161 -7 438 11 563 6 40 10 78
8 84 -2 6 -18 -27 -36 -73z"/>
</g>
</svg>
