<?xml version="1.0" standalone="no"?>
<!DOCTYPE svg PUBLIC "-//W3C//DTD SVG 20010904//EN"
 "http://www.w3.org/TR/2001/REC-SVG-20010904/DTD/svg10.dtd">
<svg version="1.0" xmlns="http://www.w3.org/2000/svg"
 width="512.000000pt" height="512.000000pt" viewBox="0 0 512.000000 512.000000"
 preserveAspectRatio="xMidYMid meet">
<metadata>
Created by potrace 1.15, written by Peter Selinger 2001-2017
</metadata>
<g transform="translate(0.000000,512.000000) scale(0.100000,-0.100000)"
fill="#ffffff" stroke="none">
<path d="M180 3590 c0 -742 2 -1350 4 -1350 8 0 253 103 321 135 64 31 96 56
204 163 143 142 185 204 230 338 41 123 55 260 48 480 l-5 181 80 7 c45 4 83
4 86 2 3 -3 7 -92 10 -198 12 -493 -72 -703 -423 -1053 -153 -153 -415 -376
-536 -457 l-22 -14 -1 -822 -2 -822 2383 0 2383 0 0 124 0 124 -67 7 c-38 4
-167 17 -289 31 -916 99 -1535 314 -2029 703 -105 83 -307 283 -398 396 -152
188 -304 441 -411 680 -102 232 -226 626 -226 720 0 120 54 347 195 820 105
352 143 489 194 690 36 146 91 416 91 451 0 12 -127 14 -910 14 l-910 0 0
-1350z m1200 -1220 c86 -46 140 -119 140 -189 0 -23 -5 -52 -12 -64 -37 -70
-49 -423 -21 -609 35 -227 19 -305 -63 -302 -42 2 -79 34 -91 82 -3 15 1 91
11 170 27 226 30 300 16 455 l-12 145 -39 12 c-51 17 -115 72 -139 121 -24 46
-26 116 -4 147 39 57 140 72 214 32z m680 -885 c59 -30 104 -83 121 -143 11
-39 10 -52 -4 -91 -44 -126 -54 -423 -21 -626 26 -165 26 -275 -2 -312 -22
-29 -58 -39 -101 -28 -31 7 -62 74 -63 135 0 25 9 111 20 190 12 80 21 197 22
260 0 124 -10 281 -21 297 -3 6 -26 20 -51 33 -104 51 -165 151 -141 230 13
44 27 57 78 76 48 18 101 11 163 -21z"/>
<path d="M2681 4482 c-39 -39 -73 -134 -75 -211 l-1 -64 54 -48 c58 -52 181
-119 296 -163 145 -54 365 -91 419 -70 27 10 18 42 -26 90 -23 25 -150 126
-282 226 -133 100 -264 201 -292 225 -28 24 -54 43 -58 43 -4 0 -20 -12 -35
-28z"/>
<path d="M4405 3790 c-286 -5 -346 -8 -377 -22 -21 -10 -38 -22 -38 -29 0 -40
161 -132 330 -189 139 -46 223 -62 337 -63 89 -2 105 1 130 19 57 42 116 200
99 267 -6 26 -8 27 -74 25 -37 -1 -220 -5 -407 -8z"/>
<path d="M2740 3070 c-64 -80 -126 -227 -155 -368 -16 -76 -20 -202 -7 -202 4
0 72 88 152 194 80 107 146 194 147 193 1 -1 12 -74 24 -162 12 -88 25 -164
29 -168 4 -5 48 12 99 37 50 25 94 46 99 46 4 0 29 -43 55 -95 26 -52 53 -95
59 -95 7 0 53 22 103 49 l89 48 49 -96 c27 -53 51 -98 53 -101 3 -2 61 52 129
120 l125 125 0 -250 1 -250 32 36 c42 48 108 182 142 289 19 60 29 114 32 186
l5 101 -103 12 c-353 43 -718 162 -1005 327 -52 30 -100 57 -108 60 -8 3 -27
-12 -46 -36z"/>
<path d="M2509 2388 c-81 -102 -122 -239 -103 -348 8 -51 13 -58 79 -113 131
-110 294 -204 450 -260 165 -59 410 -93 587 -82 l108 7 34 38 c80 89 116 190
116 327 0 46 -3 83 -6 83 -4 0 -58 -49 -120 -110 -63 -60 -117 -110 -122 -110
-4 0 -28 41 -52 91 -25 50 -48 93 -52 95 -4 3 -51 -18 -104 -46 -53 -28 -97
-50 -99 -48 -1 2 -25 47 -51 100 l-49 97 -97 -50 c-54 -27 -100 -49 -103 -49
-3 0 -27 45 -55 100 l-50 100 -100 -50 c-98 -49 -100 -50 -105 -27 -2 12 -16
85 -30 161 -14 77 -27 141 -29 143 -2 3 -23 -19 -47 -49z"/>
</g>
</svg>
