<?xml version="1.0" standalone="no"?>
<!DOCTYPE svg PUBLIC "-//W3C//DTD SVG 20010904//EN"
 "http://www.w3.org/TR/2001/REC-SVG-20010904/DTD/svg10.dtd">
<svg version="1.0" xmlns="http://www.w3.org/2000/svg"
 width="512.000000pt" height="512.000000pt" viewBox="0 0 512.000000 512.000000"
 preserveAspectRatio="xMidYMid meet">
<metadata>
Created by potrace 1.15, written by Peter Selinger 2001-2017
</metadata>
<g transform="translate(0.000000,512.000000) scale(0.100000,-0.100000)"
fill="#ffffff" stroke="none">
<path d="M1306 4879 c-296 -128 -481 -342 -566 -654 -18 -66 -23 -117 -27
-292 -8 -309 18 -553 94 -875 l36 -157 -66 -455 -67 -455 100 -382 c55 -210
102 -384 104 -386 2 -3 30 8 61 23 102 50 177 157 211 301 22 92 14 299 -16
448 -59 290 34 487 263 556 135 42 314 11 487 -83 52 -29 103 -69 166 -133 78
-78 99 -106 137 -186 55 -112 71 -190 65 -303 -5 -97 -36 -172 -112 -268 -49
-62 -259 -242 -300 -258 -33 -12 -108 1 -232 39 -108 34 -167 38 -219 17 -56
-24 -122 -102 -178 -213 -60 -119 -65 -107 63 -152 428 -149 554 -191 566
-191 18 0 152 81 244 148 111 82 253 207 371 329 167 173 153 143 188 408 56
427 65 532 65 840 l1 290 -34 65 c-203 389 -572 1001 -822 1362 -196 283 -480
648 -502 648 -7 -1 -43 -14 -81 -31z"/>
<path d="M3411 2263 c158 -159 346 -350 419 -425 131 -136 134 -138 177 -138
54 0 143 31 196 67 40 28 107 107 107 127 0 6 -26 27 -58 48 -58 37 -309 178
-316 178 -2 0 -118 64 -258 141 -282 157 -530 289 -544 289 -5 0 120 -129 277
-287z"/>
<path d="M3030 2408 c0 -3 100 -186 221 -405 253 -455 313 -564 408 -753 67
-131 71 -136 142 -190 211 -158 354 -218 454 -191 45 12 135 65 135 80 0 30
-295 368 -595 681 -340 355 -765 787 -765 778z"/>
<path d="M2910 2238 c0 -35 -31 -325 -53 -490 l-23 -178 36 -97 c130 -349 315
-709 482 -935 87 -118 229 -256 308 -298 57 -30 74 -35 137 -35 39 0 74 3 77
6 7 7 -58 228 -105 357 -82 225 -205 495 -363 797 -90 173 -474 865 -487 880
-6 5 -9 3 -9 -7z"/>
</g>
</svg>
