<?xml version="1.0" standalone="no"?>
<!DOCTYPE svg PUBLIC "-//W3C//DTD SVG 20010904//EN"
 "http://www.w3.org/TR/2001/REC-SVG-20010904/DTD/svg10.dtd">
<svg version="1.0" xmlns="http://www.w3.org/2000/svg"
 width="512.000000pt" height="512.000000pt" viewBox="0 0 512.000000 512.000000"
 preserveAspectRatio="xMidYMid meet">
<metadata>
Created by potrace 1.15, written by Peter Selinger 2001-2017
</metadata>
<g transform="translate(0.000000,512.000000) scale(0.100000,-0.100000)"
fill="#ffffff" stroke="none">
<path d="M2345 4934 c-16 -3 -79 -11 -138 -20 -321 -45 -657 -175 -943 -366
-531 -354 -890 -888 -1014 -1506 -51 -256 -59 -468 -29 -737 59 -527 294
-1019 664 -1390 140 -140 236 -219 382 -316 324 -214 663 -336 1048 -379 134
-15 413 -12 555 5 856 105 1599 684 1914 1492 197 505 209 1083 35 1606 -118
356 -296 646 -562 916 -359 364 -807 595 -1312 677 -96 16 -527 28 -600 18z
m400 -189 c487 -27 997 -263 1357 -627 333 -337 537 -741 615 -1220 24 -146
24 -525 0 -663 -41 -232 -96 -403 -197 -611 -143 -294 -357 -559 -620 -765
-157 -123 -420 -265 -615 -332 -504 -173 -1066 -155 -1553 49 -716 300 -1218
954 -1318 1719 -18 142 -21 434 -4 555 139 1038 995 1838 2030 1899 69 4 143
6 165 5 22 -2 85 -6 140 -9z"/>
<path d="M2355 4539 c-96 -12 -249 -44 -273 -58 -13 -8 -1 -11 48 -11 83 -1
255 -23 344 -46 65 -16 68 -18 50 -33 -35 -29 -64 -73 -75 -114 -15 -57 -13
-149 5 -192 69 -165 283 -227 426 -124 47 34 50 35 50 11 0 -36 53 -124 100
-164 l49 -42 -53 -57 c-64 -69 -99 -128 -134 -229 -37 -105 -38 -270 -2 -379
67 -207 240 -368 447 -417 97 -23 255 -15 349 18 130 45 257 147 321 256 14
23 29 40 33 37 11 -7 75 -211 99 -315 74 -321 74 -691 1 -980 -45 -178 -145
-416 -220 -525 -57 -83 -20 -62 84 46 477 498 658 1183 490 1851 -189 751
-803 1317 -1579 1454 -100 18 -453 26 -560 13z"/>
<path d="M2311 2920 c-71 -33 -118 -76 -150 -142 -56 -111 -39 -252 40 -342
118 -134 335 -136 454 -4 55 60 78 120 79 203 1 122 -59 221 -166 274 -52 27
-72 31 -137 31 -54 0 -89 -6 -120 -20z"/>
<path d="M3150 2331 c-119 -39 -204 -112 -257 -219 -37 -73 -38 -80 -37 -177
0 -79 5 -112 23 -157 77 -196 289 -300 499 -244 196 53 327 255 293 457 -23
138 -109 255 -231 313 -58 27 -76 31 -165 33 -55 1 -111 -2 -125 -6z"/>
<path d="M2152 1970 c-112 -57 -167 -146 -166 -270 0 -90 23 -147 83 -213 59
-63 127 -92 221 -91 128 0 223 62 278 182 20 45 24 65 20 130 -8 177 -126 292
-299 292 -65 0 -85 -4 -137 -30z"/>
</g>
</svg>
