<?xml version="1.0" standalone="no"?>
<!DOCTYPE svg PUBLIC "-//W3C//DTD SVG 20010904//EN"
 "http://www.w3.org/TR/2001/REC-SVG-20010904/DTD/svg10.dtd">
<svg version="1.0" xmlns="http://www.w3.org/2000/svg"
 width="512.000000pt" height="512.000000pt" viewBox="0 0 512.000000 512.000000"
 preserveAspectRatio="xMidYMid meet">
<metadata>
Created by potrace 1.15, written by Peter Selinger 2001-2017
</metadata>
<g transform="translate(0.000000,512.000000) scale(0.100000,-0.100000)"
fill="#ffffff" stroke="none">
<path d="M1335 4947 c-64 -22 -105 -46 -158 -96 -50 -47 -151 -180 -142 -189
2 -3 21 10 42 28 135 119 350 87 422 -63 27 -55 27 -109 0 -164 -20 -42 -92
-113 -113 -113 -24 0 -134 -60 -173 -94 -25 -22 -56 -64 -75 -103 -30 -62 -33
-74 -32 -162 2 -284 185 -392 475 -280 82 32 131 67 67 49 -54 -16 -149 -11
-193 9 -53 24 -112 91 -121 136 -17 90 18 160 110 223 72 48 144 67 261 66
240 0 397 -126 436 -349 24 -139 -24 -277 -134 -382 -71 -68 -147 -110 -257
-143 -243 -71 -419 -244 -475 -465 -8 -32 -15 -76 -15 -96 l0 -36 -56 19 c-69
23 -185 25 -264 3 -183 -50 -310 25 -310 182 1 140 105 248 260 269 l55 8 -60
12 c-99 21 -244 18 -311 -7 -108 -41 -171 -129 -182 -254 -13 -170 93 -357
232 -410 l45 -17 -25 -49 c-93 -185 -62 -394 82 -556 76 -86 161 -128 259
-128 194 1 269 165 168 373 l-27 57 -6 -90 c-6 -100 -22 -142 -61 -164 -39
-22 -92 -2 -161 59 -107 95 -137 207 -88 334 29 77 117 166 185 190 145 49
246 -19 360 -244 92 -182 239 -350 469 -538 174 -143 218 -210 233 -358 14
-145 -83 -387 -209 -521 -46 -47 -141 -86 -213 -87 -222 -1 -266 259 -66 385
55 36 33 37 -54 4 -119 -45 -195 -106 -240 -194 -25 -49 -17 -160 15 -224 29
-58 107 -140 158 -166 l36 -19 -79 -39 c-170 -85 -319 -123 -515 -130 -231 -9
-367 22 -447 101 -65 66 -70 129 -13 198 45 55 124 88 239 100 300 31 416 99
467 274 49 170 -28 347 -170 385 -55 15 -175 5 -258 -20 -85 -27 -95 -41 -23
-34 72 8 134 -11 186 -55 94 -81 93 -195 -5 -278 -46 -40 -127 -66 -251 -82
-194 -25 -349 -131 -401 -273 -9 -25 -16 -75 -16 -117 0 -61 5 -83 31 -136 38
-78 111 -148 194 -186 224 -105 590 -104 894 1 450 155 830 532 913 906 30
137 37 155 72 207 31 47 89 86 128 86 37 0 99 -39 126 -79 53 -81 66 -175 39
-286 -63 -260 1 -450 181 -532 144 -66 295 -43 371 56 47 61 63 126 63 258 0
115 -12 143 -24 57 -3 -26 -17 -66 -31 -90 -89 -151 -268 -151 -343 1 -27 54
-30 106 -17 316 6 105 5 135 -10 184 -37 130 -112 227 -212 276 -40 20 -63 24
-143 24 -81 0 -102 -4 -140 -24 -25 -13 -52 -30 -61 -38 -15 -12 -19 -8 -44
39 -47 92 -106 159 -225 253 -138 111 -142 115 -175 187 -60 132 -33 252 68
305 41 21 124 20 167 -2 44 -22 107 -81 127 -120 27 -50 25 -12 -2 60 -30 80
-56 125 -104 178 -54 60 -104 82 -186 81 -60 0 -79 -5 -133 -34 -39 -20 -85
-57 -117 -92 -61 -68 -58 -70 -75 66 -31 248 101 417 371 472 219 44 554 -28
811 -175 94 -54 188 -119 188 -129 0 -4 -20 -15 -44 -25 -64 -26 -141 -105
-176 -179 -84 -176 5 -330 237 -415 86 -31 96 -29 39 8 -111 74 -153 188 -105
287 58 119 193 130 374 32 38 -21 96 -46 128 -55 77 -22 214 -22 302 0 68 17
98 30 259 113 185 96 345 80 421 -43 28 -45 30 -56 30 -140 0 -85 -2 -96 -38
-168 -70 -142 -206 -260 -390 -339 -196 -85 -319 -98 -411 -44 -100 58 -113
190 -28 279 31 33 112 77 141 77 11 0 23 5 26 10 8 13 -120 3 -195 -15 -158
-39 -254 -124 -280 -251 -9 -43 -8 -65 5 -116 17 -70 50 -116 116 -167 41 -31
44 -38 51 -92 9 -77 47 -145 125 -224 128 -130 314 -232 544 -300 190 -55 415
-273 444 -428 23 -123 -80 -220 -266 -248 -144 -21 -145 -24 -16 -44 224 -34
391 -9 469 72 46 48 58 79 58 153 0 154 -144 356 -351 493 -43 28 -77 52 -76
53 1 2 45 -4 97 -12 266 -40 458 17 536 158 25 45 29 64 29 124 -1 60 -6 82
-34 138 -18 37 -56 90 -84 119 -49 49 -158 129 -166 122 -1 -2 13 -30 32 -62
76 -125 72 -217 -15 -302 -126 -125 -485 -169 -727 -90 -120 40 -236 138 -247
211 -5 29 -1 41 24 69 32 37 61 52 240 123 62 24 152 68 200 98 108 67 243
200 296 291 21 37 42 66 45 64 152 -84 283 -62 357 61 34 56 58 147 52 202
l-3 35 -23 -43 c-29 -54 -87 -119 -123 -138 -99 -51 -192 36 -218 205 -31 201
-167 334 -373 366 l-37 6 44 92 c74 154 115 335 115 508 l0 66 57 -15 c114
-29 266 18 346 108 79 88 86 187 23 315 -19 39 -58 95 -86 125 -28 30 -50 51
-48 45 2 -5 13 -30 25 -55 56 -123 27 -241 -72 -297 -80 -46 -169 -20 -252 71
-52 58 -62 74 -124 216 -138 315 -152 366 -153 555 -1 127 1 145 23 192 39 87
118 143 201 143 24 0 112 -20 155 -36 34 -12 -44 63 -110 107 -170 112 -365
102 -456 -24 -89 -123 -76 -346 33 -568 l33 -66 -60 54 c-89 81 -222 167 -316
203 -67 26 -103 34 -179 37 -90 5 -98 3 -150 -24 -44 -23 -60 -39 -82 -82 -24
-46 -28 -65 -28 -140 0 -56 7 -112 21 -161 22 -83 97 -260 109 -260 4 0 3 21
-2 48 -5 26 -9 88 -10 138 0 77 3 100 24 146 14 31 39 65 56 77 125 89 379
-10 581 -226 90 -96 125 -157 174 -303 98 -288 86 -524 -34 -727 -47 -79 -149
-185 -223 -231 -106 -68 -195 -95 -311 -96 -109 -1 -160 12 -270 67 -76 37
-222 181 -255 251 -50 105 -19 209 84 287 95 72 237 90 332 41 79 -40 149
-147 161 -243 7 -57 -8 -86 -52 -105 -38 -15 -69 -12 -163 18 -35 11 -65 18
-68 15 -9 -9 102 -100 151 -123 111 -53 227 -18 276 82 20 42 24 64 24 149 0
87 -3 107 -26 155 -119 253 -403 347 -664 221 -140 -67 -225 -165 -261 -298
-9 -37 -19 -70 -20 -72 -2 -2 -15 6 -31 17 -88 62 -316 157 -454 188 -38 9
-69 18 -69 21 0 3 15 23 34 45 49 57 104 174 122 259 23 106 14 242 -21 334
-59 152 -64 172 -65 225 0 30 5 72 11 93 12 46 58 100 99 117 46 19 132 8 179
-23 47 -31 64 -55 97 -134 l24 -58 0 50 c0 66 -24 173 -49 223 -54 105 -119
147 -231 146 -86 0 -162 -29 -236 -89 -47 -39 -104 -141 -104 -187 0 -15 -2
-28 -4 -28 -3 0 -44 13 -93 29 -48 16 -114 33 -146 36 -54 7 -58 9 -52 29 3
11 11 49 17 83 38 205 -127 440 -322 458 -33 3 -71 -1 -95 -8z"/>
</g>
</svg>
