<?xml version="1.0" standalone="no"?>
<!DOCTYPE svg PUBLIC "-//W3C//DTD SVG 20010904//EN"
 "http://www.w3.org/TR/2001/REC-SVG-20010904/DTD/svg10.dtd">
<svg version="1.0" xmlns="http://www.w3.org/2000/svg"
 width="512.000000pt" height="512.000000pt" viewBox="0 0 512.000000 512.000000"
 preserveAspectRatio="xMidYMid meet">
<metadata>
Created by potrace 1.15, written by Peter Selinger 2001-2017
</metadata>
<g transform="translate(0.000000,512.000000) scale(0.100000,-0.100000)"
fill="#ffffff" stroke="none">
<path d="M1030 4664 c-259 -22 -508 -94 -735 -212 l-110 -57 -3 -2108 -2
-2107 2385 0 2385 0 0 1369 0 1369 -97 85 c-117 103 -242 197 -358 272 -96 62
-335 190 -335 180 0 -4 48 -57 106 -118 119 -126 229 -283 305 -435 28 -57 49
-105 47 -107 -1 -1 -48 7 -103 20 -55 12 -101 19 -103 16 -1 -4 23 -45 54 -92
139 -208 216 -454 198 -639 -7 -69 -23 -117 -24 -69 0 42 -39 157 -81 240
-131 261 -398 478 -681 554 l-91 24 -102 -19 c-179 -35 -349 -94 -480 -168
-65 -36 -107 -71 -70 -58 42 16 193 36 266 36 536 0 1037 -478 1109 -1060 6
-52 10 -122 8 -155 l-3 -60 -29 83 c-62 179 -211 371 -369 476 -84 55 -167
101 -167 91 0 -3 21 -31 47 -63 141 -172 176 -403 97 -634 -73 -216 -253 -410
-452 -488 -29 -11 -51 -17 -49 -13 3 5 30 47 60 96 59 94 103 204 133 332 15
62 19 117 18 240 -1 140 -4 173 -27 260 -48 182 -147 346 -268 443 -63 51
-165 109 -175 99 -3 -3 7 -25 24 -49 83 -121 117 -234 116 -388 0 -135 -15
-199 -80 -338 -68 -147 -168 -273 -303 -386 -44 -36 -81 -66 -84 -66 -2 0 -4
48 -4 107 1 126 -16 196 -64 261 -27 38 -109 92 -138 92 -5 0 0 -24 11 -52 30
-79 23 -203 -16 -281 -58 -114 -193 -212 -309 -224 -147 -15 -372 110 -426
238 -43 99 -24 229 52 352 16 26 27 50 24 54 -3 3 -35 -5 -72 -17 -115 -38
-223 -125 -267 -215 -69 -140 -41 -336 70 -503 23 -35 42 -65 42 -68 0 -11
-32 0 -115 40 -233 114 -335 322 -280 578 32 152 150 327 279 414 l51 34 -75
0 c-181 -1 -361 -82 -509 -230 -58 -58 -101 -118 -154 -215 l-38 -70 6 64 c16
160 80 339 171 478 147 222 364 328 617 302 51 -5 107 -14 125 -20 52 -17 49
-3 -5 21 -132 60 -241 100 -344 126 -105 27 -128 29 -289 28 -160 0 -183 -3
-263 -27 -173 -53 -325 -151 -480 -309 -86 -89 -195 -239 -237 -328 l-21 -45
6 67 c19 223 153 494 355 720 52 58 64 79 91 160 31 98 119 288 170 371 16 27
28 54 26 60 -5 16 -314 -296 -388 -392 -35 -46 -72 -93 -82 -105 -18 -21 -18
-20 -13 28 15 129 91 354 162 482 79 143 172 261 300 384 134 127 330 243 509
300 55 17 107 35 115 38 27 12 -212 13 -315 2 -231 -26 -517 -103 -703 -190
l-83 -39 22 37 c238 389 634 686 989 741 105 17 259 15 354 -4 112 -23 254
-84 371 -161 100 -66 -114 153 -249 253 -169 126 -366 209 -586 247 -90 15
-294 26 -370 20z"/>
<path d="M4295 4419 c-267 -32 -508 -137 -701 -306 -79 -68 -241 -269 -229
-282 3 -2 38 19 78 47 425 294 924 252 1428 -119 37 -27 69 -49 73 -49 3 0 6
155 6 343 l0 344 -92 12 c-120 16 -460 22 -563 10z"/>
<path d="M3313 3470 c-90 -26 -153 -64 -222 -132 -62 -62 -124 -168 -137 -236
l-7 -34 60 31 c132 66 345 108 496 96 242 -18 476 -131 685 -329 49 -47 51
-41 26 64 -60 254 -281 472 -548 540 -103 26 -265 26 -353 0z"/>
<path d="M2591 2268 c-102 -14 -103 -20 -11 -67 273 -140 446 -343 535 -631
15 -47 29 -92 31 -99 6 -18 44 62 65 134 20 72 18 227 -5 295 -33 98 -67 154
-136 221 -81 80 -166 125 -276 144 -89 16 -112 16 -203 3z"/>
</g>
</svg>
