<?xml version="1.0" standalone="no"?>
<!DOCTYPE svg PUBLIC "-//W3C//DTD SVG 20010904//EN"
 "http://www.w3.org/TR/2001/REC-SVG-20010904/DTD/svg10.dtd">
<svg version="1.0" xmlns="http://www.w3.org/2000/svg"
 width="512.000000pt" height="512.000000pt" viewBox="0 0 512.000000 512.000000"
 preserveAspectRatio="xMidYMid meet">
<metadata>
Created by potrace 1.15, written by Peter Selinger 2001-2017
</metadata>
<g transform="translate(0.000000,512.000000) scale(0.100000,-0.100000)"
fill="#ffffff" stroke="none">
<path d="M2041 4731 c-12 -8 -4 -60 49 -325 l63 -316 31 0 c71 -1 160 -69 204
-157 30 -59 59 -159 107 -377 24 -109 48 -203 54 -209 11 -11 33 56 58 182 25
124 25 487 -1 626 -53 288 -165 480 -325 553 -58 27 -213 42 -240 23z"/>
<path d="M1720 4640 c-94 -35 -347 -123 -1060 -370 -379 -132 -481 -168 -486
-173 -3 -2 -3 -50 -2 -105 l3 -100 345 124 c607 218 653 235 775 279 66 24
226 81 355 128 l235 85 -1 43 c-3 70 -22 129 -42 128 -9 -1 -64 -18 -122 -39z"/>
<path d="M1793 4297 c-62 -23 -111 -46 -110 -50 1 -5 66 -38 142 -72 105 -48
141 -60 143 -50 3 13 -21 152 -34 198 -7 23 -11 22 -141 -26z"/>
<path d="M1220 4089 c-102 -38 -191 -69 -198 -69 -38 0 11 -29 190 -110 l198
-89 197 80 c109 45 202 83 206 86 5 3 -31 23 -80 45 -48 22 -132 60 -185 84
-54 24 -108 43 -120 43 -13 -1 -106 -32 -208 -70z"/>
<path d="M547 3846 c-109 -39 -199 -76 -199 -81 0 -6 93 -54 206 -107 l207
-97 203 82 c112 45 204 87 204 92 0 13 -376 185 -403 184 -11 0 -109 -33 -218
-73z"/>
<path d="M170 3489 c0 -149 1 -161 18 -155 138 51 350 141 345 147 -7 7 -352
169 -360 169 -2 0 -3 -72 -3 -161z"/>
<path d="M2933 3527 c-68 -29 -123 -54 -123 -57 0 -3 52 -29 116 -58 165 -76
290 -105 362 -85 22 5 14 16 -99 129 -68 68 -126 124 -129 123 -3 0 -60 -24
-127 -52z"/>
<path d="M2030 3520 c-30 -17 -119 -65 -198 -107 -79 -41 -140 -79 -135 -83 4
-4 33 -16 63 -26 82 -27 253 -25 403 6 64 13 117 26 117 29 0 3 -44 52 -98
108 l-97 103 -55 -30z"/>
<path d="M2922 3200 c6 -20 195 -171 250 -200 55 -30 139 -60 167 -60 17 0 7
78 -16 128 -24 51 -115 128 -160 135 -62 11 -245 8 -241 -3z"/>
<path d="M2493 3186 c-336 -152 -1267 -1245 -1848 -2171 -169 -270 -393 -682
-420 -772 l-6 -23 1373 0 1373 1 77 157 c181 368 533 893 850 1269 43 51 78
95 78 99 0 15 -210 286 -409 529 -348 424 -693 771 -875 883 -69 41 -140 52
-193 28z"/>
<path d="M1815 3116 l-220 -63 2 -29 c3 -36 53 -81 101 -90 41 -8 191 2 224
15 16 6 43 44 81 113 31 58 57 108 57 111 0 11 -16 8 -245 -57z"/>
<path d="M4313 1841 c-37 -23 -194 -184 -288 -296 -202 -238 -484 -640 -673
-957 -71 -119 -192 -348 -192 -363 0 -3 403 -5 895 -5 l895 0 0 528 0 527
-118 146 c-138 173 -319 375 -364 409 -44 32 -113 37 -155 11z"/>
</g>
</svg>
