<?xml version="1.0" standalone="no"?>
<!DOCTYPE svg PUBLIC "-//W3C//DTD SVG 20010904//EN"
 "http://www.w3.org/TR/2001/REC-SVG-20010904/DTD/svg10.dtd">
<svg version="1.0" xmlns="http://www.w3.org/2000/svg"
 width="512.000000pt" height="512.000000pt" viewBox="0 0 512.000000 512.000000"
 preserveAspectRatio="xMidYMid meet">
<metadata>
Created by potrace 1.15, written by Peter Selinger 2001-2017
</metadata>
<g transform="translate(0.000000,512.000000) scale(0.100000,-0.100000)"
fill="#ffffff" stroke="none">
<path d="M3716 4760 c-12 -47 -596 -2835 -596 -2845 0 -5 -27 55 -60 135 -86
208 -80 197 -90 180 -4 -8 -124 -386 -266 -840 -141 -454 -260 -828 -263 -832
-4 -4 -130 599 -280 1340 -150 741 -275 1348 -276 1350 -7 7 -18 -54 -130
-708 -64 -371 -125 -720 -134 -775 l-18 -100 -11 40 c-6 22 -48 189 -93 370
-45 182 -85 333 -88 337 -6 6 -310 -1539 -312 -1582 -1 -17 -159 998 -355
2280 -75 492 -139 898 -143 902 -3 4 -100 -603 -214 -1350 l-207 -1357 0 -562
0 -563 2380 0 2380 0 0 618 -1 617 -153 364 -153 365 30 64 c35 76 44 135 27
188 -28 86 -88 109 -140 54 -53 -56 -56 -155 -10 -251 l21 -44 -111 -255 c-60
-140 -114 -264 -119 -275 l-8 -20 -6 20 c-4 11 -22 106 -41 210 -19 105 -74
399 -121 655 -47 256 -160 868 -251 1360 -90 492 -168 904 -173 915 -8 19 -9
19 -15 -5z"/>
<path d="M1864 3850 c-56 -22 -86 -112 -65 -197 14 -56 71 -183 81 -183 5 0
27 38 50 85 53 108 63 181 31 243 -19 38 -47 63 -68 61 -4 0 -18 -4 -29 -9z"/>
</g>
</svg>
