<?xml version="1.0" standalone="no"?>
<!DOCTYPE svg PUBLIC "-//W3C//DTD SVG 20010904//EN"
 "http://www.w3.org/TR/2001/REC-SVG-20010904/DTD/svg10.dtd">
<svg version="1.0" xmlns="http://www.w3.org/2000/svg"
 width="512.000000pt" height="512.000000pt" viewBox="0 0 512.000000 512.000000"
 preserveAspectRatio="xMidYMid meet">
<metadata>
Created by potrace 1.15, written by Peter Selinger 2001-2017
</metadata>
<g transform="translate(0.000000,512.000000) scale(0.100000,-0.100000)"
fill="#ffffff" stroke="none">
<path d="M190 4800 c0 -66 4 -100 11 -100 6 0 774 -106 1707 -235 934 -130
1987 -276 2342 -325 355 -49 657 -92 672 -95 l28 -4 0 98 0 99 -32 6 c-50 9
-4700 656 -4715 656 -10 0 -13 -24 -13 -100z"/>
<path d="M190 3394 l0 -1089 35 -136 c120 -474 365 -857 681 -1067 43 -29 94
-58 112 -64 17 -7 32 -16 32 -20 0 -16 -183 -8 -283 12 -178 35 -375 151 -505
296 -31 35 -60 64 -64 64 -5 0 -8 -166 -8 -369 l0 -370 33 5 c17 3 692 96
1498 208 1455 202 1466 203 1530 236 203 102 397 306 486 510 18 41 35 94 39
118 3 23 10 42 14 42 18 0 44 -157 44 -265 0 -124 -15 -188 -70 -298 -29 -57
-32 -68 -17 -63 10 2 80 13 156 22 l138 18 38 45 c119 145 224 332 287 513
l35 103 -5 -185 c-4 -168 -15 -259 -45 -385 -6 -22 -8 -41 -6 -43 4 -4 186 19
273 35 l32 5 0 138 c0 331 -88 691 -227 935 -25 44 -53 89 -62 99 -16 19 -15
19 19 0 56 -31 240 -222 313 -324 55 -78 166 -286 240 -450 15 -32 16 16 16
630 l1 666 -83 104 c-248 311 -552 499 -897 555 -170 27 -461 16 -640 -24
l-45 -10 25 19 c55 42 242 142 335 179 178 70 322 104 506 119 62 6 86 11 69
15 -24 7 -416 62 -1500 211 -883 122 -779 112 -910 93 -253 -37 -464 -136
-637 -300 l-73 -69 31 73 c50 123 131 261 211 361 12 15 20 29 17 31 -5 5
-618 87 -647 87 -26 0 -51 -49 -112 -227 -93 -268 -133 -588 -107 -858 l6 -70
-44 90 c-54 110 -109 274 -132 397 -27 145 -24 415 6 586 13 73 22 134 20 137
-3 2 -39 7 -82 11 l-77 7 0 -1089z m703 499 c-87 -273 -87 -558 1 -756 47
-108 139 -225 229 -293 33 -24 63 -44 67 -44 5 0 -2 24 -16 54 -49 108 -67
207 -62 346 4 106 10 139 37 220 71 211 196 365 374 462 34 18 66 35 71 37 4
2 -19 -31 -53 -73 -73 -92 -119 -169 -155 -260 -90 -224 -67 -453 58 -583 51
-51 54 -53 107 -53 107 0 148 55 200 266 60 249 115 396 188 501 41 61 117
140 126 132 3 -3 -5 -48 -17 -100 -28 -124 -30 -289 -4 -374 18 -61 64 -155
75 -155 3 1 31 40 61 88 176 278 345 445 499 493 123 38 281 18 389 -48 l33
-20 -66 -7 c-152 -15 -291 -83 -355 -172 -44 -61 -60 -121 -60 -218 1 -151 32
-220 114 -251 71 -27 103 -16 196 70 227 209 462 306 740 306 156 1 243 -20
390 -92 96 -47 115 -62 215 -163 118 -119 171 -198 232 -350 33 -84 76 -237
88 -316 7 -44 6 -44 -68 68 -159 237 -290 350 -476 411 -78 26 -206 28 -300 6
-97 -23 -231 -96 -325 -177 l-38 -33 98 -2 c122 -3 195 -21 309 -77 187 -92
334 -275 391 -487 25 -94 22 -244 -6 -334 -27 -87 -75 -167 -135 -225 l-46
-45 22 60 c27 77 37 231 19 306 -50 213 -232 360 -465 377 l-79 5 28 -34 c64
-75 96 -187 96 -332 0 -106 -19 -195 -56 -270 -66 -130 -150 -189 -271 -188
-38 0 -82 5 -98 11 l-29 11 51 29 c133 76 209 249 183 416 -20 122 -79 197
-167 210 -107 16 -151 -48 -227 -334 -26 -95 -60 -207 -77 -250 -38 -95 -109
-216 -165 -280 -54 -62 -141 -134 -125 -104 24 45 33 131 21 202 -16 92 -55
155 -108 171 -46 13 -50 12 -215 -93 -62 -39 -168 -107 -237 -150 -141 -89
-333 -187 -430 -218 -257 -83 -450 -18 -594 199 -64 96 -67 107 -24 81 20 -11
73 -34 119 -51 206 -76 382 -39 522 111 50 53 127 170 127 193 0 3 -35 -6 -77
-20 -416 -133 -894 -39 -1129 220 -171 188 -220 441 -147 747 l17 71 23 -88
c87 -328 326 -554 587 -553 45 1 98 7 119 14 45 17 107 57 107 71 0 6 -21 19
-47 29 -117 48 -281 186 -381 321 -105 141 -194 345 -229 525 -22 113 -21 318
2 425 21 101 75 241 121 316 32 53 120 169 128 169 2 0 -7 -35 -21 -77z"/>
<path d="M4615 1039 c-148 -21 -774 -108 -1390 -194 -616 -86 -1181 -164
-1255 -175 -74 -11 -495 -69 -935 -130 -440 -61 -810 -113 -822 -115 -22 -5
-23 -10 -23 -100 0 -84 2 -95 18 -95 9 0 1080 147 2380 327 l2362 328 0 97 0
98 -32 -1 c-18 -1 -154 -18 -303 -40z"/>
</g>
</svg>
