<?xml version="1.0" standalone="no"?>
<!DOCTYPE svg PUBLIC "-//W3C//DTD SVG 20010904//EN"
 "http://www.w3.org/TR/2001/REC-SVG-20010904/DTD/svg10.dtd">
<svg version="1.0" xmlns="http://www.w3.org/2000/svg"
 width="512.000000pt" height="512.000000pt" viewBox="0 0 512.000000 512.000000"
 preserveAspectRatio="xMidYMid meet">
<metadata>
Created by potrace 1.15, written by Peter Selinger 2001-2017
</metadata>
<g transform="translate(0.000000,512.000000) scale(0.100000,-0.100000)"
fill="#ffffff" stroke="none">
<path d="M3443 4686 c-204 -64 -824 -620 -1432 -1286 -445 -486 -805 -936
-1058 -1321 -144 -221 -278 -468 -261 -484 1 -1 81 17 176 41 256 65 416 87
587 81 125 -4 149 -8 227 -36 113 -41 167 -70 373 -205 261 -170 386 -226 510
-226 125 0 266 66 475 221 259 193 358 251 485 284 67 17 228 20 290 5 22 -5
43 -10 48 -10 4 0 -11 35 -32 78 -174 341 -264 788 -293 1437 -9 209 -9 385 0
775 12 501 9 612 -19 646 -14 17 -21 17 -76 0z"/>
<path d="M3554 1551 c-125 -31 -230 -93 -514 -305 -63 -48 -162 -110 -219
-138 -98 -49 -109 -52 -195 -56 -78 -4 -102 0 -169 22 -91 31 -196 88 -358
197 -277 185 -404 237 -599 246 -216 10 -525 -49 -925 -177 -167 -53 -377
-128 -387 -138 -5 -5 6 -46 23 -91 28 -71 36 -82 53 -78 12 3 89 30 173 61
343 126 735 220 974 233 195 11 303 -31 609 -232 185 -123 273 -170 381 -206
63 -21 93 -24 204 -24 110 1 140 4 195 24 113 41 198 92 399 238 331 240 436
280 631 239 204 -44 590 -247 897 -473 40 -29 76 -53 81 -53 15 0 115 141 106
149 -63 57 -374 263 -529 349 -372 207 -609 268 -831 213z"/>
<path d="M3570 1139 c-126 -33 -226 -90 -450 -258 -313 -235 -442 -280 -637
-220 -85 26 -151 63 -373 205 -194 124 -272 166 -373 200 -224 76 -514 50
-991 -91 -243 -71 -546 -179 -546 -193 0 -4 15 -44 33 -89 24 -63 36 -82 47
-77 74 31 338 122 475 164 205 62 347 95 520 121 311 46 402 20 755 -211 291
-191 414 -240 594 -240 187 0 318 57 580 254 228 171 307 218 421 251 148 43
374 -21 690 -196 106 -59 370 -231 466 -304 l47 -35 58 76 58 76 -24 19 c-167
130 -474 321 -675 419 -288 141 -485 179 -675 129z"/>
</g>
</svg>
