<?xml version="1.0" standalone="no"?>
<!DOCTYPE svg PUBLIC "-//W3C//DTD SVG 20010904//EN"
 "http://www.w3.org/TR/2001/REC-SVG-20010904/DTD/svg10.dtd">
<svg version="1.0" xmlns="http://www.w3.org/2000/svg"
 width="512.000000pt" height="512.000000pt" viewBox="0 0 512.000000 512.000000"
 preserveAspectRatio="xMidYMid meet">
<metadata>
Created by potrace 1.15, written by Peter Selinger 2001-2017
</metadata>
<g transform="translate(0.000000,512.000000) scale(0.100000,-0.100000)"
fill="#ffffff" stroke="none">
<path d="M2256 4874 c-588 -75 -1148 -388 -1511 -844 -312 -392 -492 -855
-514 -1324 -20 -446 58 -828 246 -1198 183 -361 459 -674 789 -893 221 -146
549 -286 788 -335 332 -68 682 -68 1011 1 227 47 527 171 741 305 176 111 386
292 525 454 222 258 401 597 484 916 89 340 99 727 29 1074 -110 538 -414
1029 -847 1368 -268 210 -611 373 -928 441 -237 51 -575 65 -813 35z m594
-190 c459 -61 903 -282 1223 -608 345 -350 548 -766 612 -1249 20 -153 19
-414 -1 -559 -99 -709 -547 -1325 -1189 -1633 -319 -153 -589 -216 -935 -216
-360 0 -642 67 -965 228 -219 109 -386 231 -560 408 -333 338 -536 751 -600
1220 -22 160 -22 444 0 590 140 937 860 1664 1800 1816 166 27 427 28 615 3z"/>
<path d="M2165 4361 c-60 -21 -139 -50 -175 -65 -166 -70 -400 -211 -543 -329
-67 -55 -68 -56 -46 -69 12 -7 65 -41 117 -75 l94 -62 82 71 c113 98 267 198
417 272 127 63 365 149 447 162 23 4 42 10 42 13 0 10 -138 77 -207 100 -83
28 -100 27 -228 -18z"/>
<path d="M2755 4133 c-59 -8 -247 -54 -319 -77 -211 -69 -403 -170 -571 -301
-131 -102 -128 -93 -52 -165 36 -33 91 -93 124 -132 32 -39 67 -82 78 -95 l20
-24 85 63 c188 139 476 251 805 314 50 9 94 20 98 24 13 11 -30 128 -74 202
-41 69 -145 199 -157 197 -4 -1 -20 -4 -37 -6z"/>
<path d="M1181 3704 c-84 -104 -131 -174 -189 -285 -91 -170 -161 -413 -147
-508 17 -118 115 -344 115 -266 0 8 21 78 46 156 82 250 245 545 413 749 l70
85 -27 23 c-35 29 -193 122 -209 122 -6 0 -39 -34 -72 -76z"/>
<path d="M1577 3477 c-223 -263 -409 -640 -473 -958 l-18 -86 35 -31 c101 -93
270 -179 416 -210 l42 -10 6 57 c48 476 119 703 288 928 l39 52 -48 63 c-56
72 -200 225 -225 239 -14 7 -26 -2 -62 -44z"/>
<path d="M4393 2300 c-83 -172 -229 -394 -361 -549 -463 -547 -1012 -850
-1649 -912 -73 -7 -133 -16 -133 -21 0 -29 195 -94 343 -114 116 -16 253 -13
352 8 28 6 97 29 155 51 590 226 1040 736 1294 1466 26 74 45 139 43 145 -2 5
-22 -28 -44 -74z"/>
</g>
</svg>
