<?xml version="1.0" standalone="no"?>
<!DOCTYPE svg PUBLIC "-//W3C//DTD SVG 20010904//EN"
 "http://www.w3.org/TR/2001/REC-SVG-20010904/DTD/svg10.dtd">
<svg version="1.0" xmlns="http://www.w3.org/2000/svg"
 width="512.000000pt" height="512.000000pt" viewBox="0 0 512.000000 512.000000"
 preserveAspectRatio="xMidYMid meet">
<metadata>
Created by potrace 1.15, written by Peter Selinger 2001-2017
</metadata>
<g transform="translate(0.000000,512.000000) scale(0.100000,-0.100000)"
fill="#ffffff" stroke="none">
<path d="M210 4896 l0 -54 252 -246 252 -245 0 -108 c0 -66 -6 -124 -15 -150
l-14 -41 -79 90 c-171 194 -379 423 -387 426 -5 2 -9 -60 -9 -137 l0 -141 207
-233 c797 -896 1339 -1588 1752 -2235 104 -164 108 -173 129 -270 35 -165 45
-282 39 -461 -10 -305 -91 -546 -271 -806 l-55 -80 117 -3 c111 -3 117 -2 134
20 29 39 103 179 139 263 18 44 34 81 35 83 4 6 157 -20 234 -39 41 -11 111
-33 154 -51 79 -31 79 -32 106 -92 15 -34 38 -89 51 -123 l24 -63 102 0 c57 0
103 4 103 8 0 5 -22 64 -49 133 l-49 124 46 49 c60 62 171 135 257 170 37 15
69 26 70 24 11 -11 179 -334 215 -411 l45 -97 107 0 107 0 -26 63 c-43 106
-109 242 -177 367 -36 65 -66 121 -66 123 0 12 64 18 179 18 132 0 243 -17
335 -52 49 -18 55 -25 142 -157 50 -75 121 -188 159 -249 l68 -113 114 0 114
0 -28 48 c-71 123 -175 290 -265 425 -54 81 -98 154 -98 162 0 29 66 201 86
224 1 1 106 -78 233 -178 127 -100 233 -181 236 -181 3 0 5 55 5 123 l-1 122
-178 139 c-171 133 -178 141 -165 161 20 31 136 124 206 167 58 35 63 36 89
22 15 -8 33 -14 39 -14 6 0 10 38 10 105 l0 105 -72 36 c-40 20 -165 84 -277
142 l-203 107 5 90 c11 180 84 310 240 428 120 91 208 137 261 137 l46 0 0 95
0 95 -73 0 -74 0 -46 98 c-50 105 -94 245 -103 326 l-6 51 58 28 c33 16 101
51 152 79 l92 51 0 114 c0 62 -2 113 -5 113 -3 0 -57 -31 -121 -70 -606 -365
-1182 -448 -1769 -255 -267 87 -938 425 -1633 822 -512 292 -487 274 -868 646
l-191 187 -87 0 -86 0 0 -54z m855 -861 c55 -49 101 -95 103 -102 7 -28 -93
-273 -117 -288 -4 -2 -56 52 -115 121 l-108 125 30 77 c16 42 33 97 37 122 12
84 13 85 43 58 15 -14 72 -64 127 -113z m423 -364 c89 -74 104 -92 130 -150
63 -141 100 -337 88 -470 -9 -92 -25 -171 -35 -171 -5 0 -46 48 -92 108 -46
59 -155 194 -242 300 l-158 192 31 45 c31 45 100 181 119 236 13 36 -1 44 159
-90z m699 -184 l82 -41 -19 -36 c-35 -69 -38 -68 -146 17 -130 101 -345 272
-364 289 -8 8 71 -32 175 -87 105 -56 227 -120 272 -142z m391 -196 c102 -51
414 -191 584 -263 l58 -24 -48 -46 c-58 -56 -119 -91 -195 -113 l-57 -16 -118
82 c-214 150 -433 312 -430 318 13 28 75 120 81 121 4 0 60 -26 125 -59z
m-523 -175 c145 -133 554 -520 552 -522 -5 -3 -779 95 -783 99 -3 3 2 22 11
43 44 106 59 195 59 361 1 141 3 160 16 150 8 -7 73 -66 145 -131z m2431 7
c20 -93 56 -216 77 -268 14 -33 24 -61 22 -63 -6 -6 -302 58 -429 93 -72 20
-189 56 -260 80 -130 43 -131 43 -79 44 137 3 457 67 588 119 67 27 74 26 81
-5z m-789 -302 l131 -46 -28 -68 c-37 -85 -65 -179 -84 -286 -9 -46 -16 -85
-16 -88 0 -9 -361 214 -523 322 l-48 33 55 30 c61 35 178 140 203 183 l16 27
81 -30 c45 -17 140 -51 213 -77z m442 -137 c53 -15 166 -41 253 -59 l156 -31
-54 -45 c-143 -117 -238 -289 -262 -471 l-7 -58 -169 97 -169 96 7 73 c9 108
33 205 78 322 26 65 46 102 56 102 8 0 58 -12 111 -26z m-729 -410 c302 -186
285 -173 288 -224 3 -61 31 -242 47 -315 8 -32 13 -60 11 -62 -1 -2 -65 67
-140 152 -188 213 -252 281 -526 565 l-237 245 198 -131 c109 -71 270 -175
359 -230z m-1279 181 l114 -14 74 -78 c99 -104 247 -282 374 -450 151 -201
142 -184 118 -231 -32 -62 -72 -188 -90 -285 l-17 -88 -48 88 c-138 249 -428
707 -625 986 -72 101 -80 95 100 72z m579 -71 c144 -18 120 -3 302 -196 l110
-117 -39 -33 c-21 -17 -59 -54 -84 -80 -26 -26 -49 -48 -52 -48 -3 0 -43 51
-88 112 -70 94 -229 294 -287 361 -19 21 -22 21 138 1z m1750 -714 c118 -62
217 -115 219 -117 3 -2 -6 -11 -19 -20 -133 -94 -265 -248 -343 -402 l-53
-106 -86 115 c-84 113 -86 118 -141 285 -61 186 -101 336 -123 460 -8 44 -14
83 -14 87 0 3 78 -38 173 -91 95 -54 269 -148 387 -211z m-1076 118 l118 -131
-123 -43 c-161 -56 -287 -119 -389 -194 l-81 -61 7 38 c13 76 62 204 104 275
44 74 207 248 233 248 7 0 66 -59 131 -132z m381 -443 c119 -147 295 -372 295
-379 0 -2 -66 -2 -147 1 -100 3 -177 -1 -238 -10 -49 -8 -93 -13 -96 -11 -4 2
-26 36 -50 76 -23 40 -82 136 -131 212 -49 77 -85 143 -81 147 14 12 291 105
324 108 3 1 59 -64 124 -144z m-606 -103 c14 -20 69 -109 123 -196 l98 -159
-78 -37 c-95 -45 -177 -96 -232 -146 -22 -20 -42 -35 -44 -33 -2 2 -37 73 -77
158 l-73 153 28 54 c15 29 49 77 74 106 45 52 140 138 151 138 4 0 17 -17 30
-38z m-463 -344 c52 -103 94 -190 94 -192 0 -2 -33 4 -72 14 -40 10 -108 24
-151 31 -63 10 -77 15 -73 28 18 65 45 288 46 391 0 31 24 -10 156 -272z"/>
</g>
</svg>
