<?xml version="1.0" standalone="no"?>
<!DOCTYPE svg PUBLIC "-//W3C//DTD SVG 20010904//EN"
 "http://www.w3.org/TR/2001/REC-SVG-20010904/DTD/svg10.dtd">
<svg version="1.0" xmlns="http://www.w3.org/2000/svg"
 width="512.000000pt" height="512.000000pt" viewBox="0 0 512.000000 512.000000"
 preserveAspectRatio="xMidYMid meet">
<metadata>
Created by potrace 1.15, written by Peter Selinger 2001-2017
</metadata>
<g transform="translate(0.000000,512.000000) scale(0.100000,-0.100000)"
fill="#ffffff" stroke="none">
<path d="M3344 4931 c-23 -11 -75 -53 -115 -94 -62 -62 -92 -83 -187 -130
-268 -133 -423 -271 -463 -410 -11 -37 5 -129 33 -186 34 -71 130 -160 243
-226 151 -87 164 -97 185 -140 16 -32 18 -48 10 -73 -32 -115 -189 -246 -529
-443 l-143 -84 48 -43 c27 -23 65 -54 84 -67 l36 -25 174 76 c366 158 517 242
617 343 65 66 83 104 83 178 0 129 -81 221 -301 342 -263 146 -359 220 -359
276 0 42 45 117 101 171 68 63 153 110 297 164 l114 42 87 -11 c168 -21 320
-10 371 28 50 37 34 46 -92 52 -85 4 -123 10 -142 23 -49 32 -34 40 153 86
191 47 202 61 87 109 -150 62 -309 79 -392 42z m156 -76 l55 -19 -80 -16 c-44
-9 -81 -16 -83 -14 -9 6 30 76 40 72 7 -3 38 -13 68 -23z"/>
<path d="M1866 4917 c-21 -21 -26 -36 -26 -75 0 -52 23 -130 59 -200 23 -45
23 -45 78 -4 l33 24 -5 -28 c-2 -16 -6 -54 -9 -85 -6 -56 -5 -57 29 -83 20
-15 55 -36 80 -47 51 -23 63 -49 46 -102 -14 -42 -64 -90 -162 -155 l-77 -51
-12 45 c-17 60 -73 134 -131 173 -168 115 -462 98 -618 -36 -49 -41 -91 -121
-91 -171 l0 -33 -52 28 c-54 29 -203 170 -212 201 -3 9 -10 67 -16 128 -11
116 -31 201 -57 241 -18 28 -171 131 -257 175 -135 68 -235 87 -256 48 -23
-43 17 -119 200 -376 63 -88 156 -219 205 -290 151 -216 265 -312 411 -346 49
-12 51 -14 63 -58 20 -74 125 -278 210 -406 156 -235 290 -363 409 -389 40 -8
131 19 262 81 102 48 260 136 260 144 0 3 -39 16 -87 29 -484 132 -689 255
-822 493 l-32 56 133 1 c134 0 238 15 310 45 21 9 39 16 41 16 3 0 7 -30 9
-67 9 -125 90 -236 235 -322 138 -82 331 -139 423 -126 137 20 245 131 181
189 -10 9 -94 34 -192 57 -192 44 -307 80 -356 110 -50 31 -83 76 -83 113 0
47 51 119 118 168 33 24 89 64 125 90 36 26 78 66 94 89 24 37 28 52 27 113
-1 83 -28 261 -50 327 -15 46 -15 46 -82 64 -37 10 -71 21 -75 25 -5 4 8 17
27 30 20 12 36 25 36 29 0 7 -114 78 -178 110 -24 12 -65 25 -92 28 -43 5 -51
3 -74 -20z m-1302 -222 c31 -14 56 -29 56 -34 0 -5 -6 -23 -14 -41 l-13 -32
-23 33 c-13 19 -35 49 -48 67 -13 17 -22 32 -19 32 2 0 30 -11 61 -25z m1069
-475 c21 -6 52 -24 69 -39 30 -27 30 -27 14 -60 -34 -64 -173 -98 -355 -87
-114 7 -125 12 -115 61 12 61 63 109 141 131 54 16 184 12 246 -6z"/>
<path d="M4410 4761 c-14 -5 -53 -22 -88 -40 l-64 -32 24 -32 c14 -18 27 -37
30 -42 4 -7 -24 -10 -80 -10 l-86 0 -36 -52 c-24 -35 -74 -80 -160 -144 -143
-107 -280 -238 -334 -320 -86 -131 -101 -233 -66 -469 32 -225 21 -285 -61
-309 -189 -57 -346 -197 -300 -269 26 -42 159 -29 301 28 153 62 228 146 257
286 15 74 15 88 -3 224 -25 188 -25 303 -1 351 25 51 105 143 189 217 123 108
125 109 218 122 47 6 115 19 151 30 l67 20 18 82 19 82 28 -43 c23 -35 31 -40
43 -30 25 21 82 122 103 186 28 83 27 118 -4 148 -20 21 -33 25 -82 24 -32 0
-69 -4 -83 -8z"/>
<path d="M4520 4159 c-30 -5 -93 -28 -140 -50 -74 -35 -95 -41 -160 -43 -64
-1 -84 -7 -138 -36 -153 -82 -349 -338 -302 -395 17 -20 120 -20 191 1 80 24
216 95 383 201 243 154 253 157 285 90 72 -149 -41 -247 -381 -332 -176 -44
-226 -63 -253 -99 -39 -51 -48 -113 -38 -276 9 -160 7 -224 -9 -253 -13 -25
-76 -52 -184 -79 -75 -19 -117 -22 -269 -22 -199 0 -347 20 -537 74 l-101 28
-64 -31 c-35 -17 -63 -35 -63 -39 0 -11 323 -113 450 -142 133 -29 308 -53
465 -62 241 -14 414 49 476 173 23 46 24 55 22 250 l-3 203 30 34 c41 46 106
72 273 106 176 37 254 72 298 136 58 84 82 152 87 240 12 224 -117 355 -318
323z m-330 -248 c0 -3 -34 -18 -76 -33 -85 -30 -85 -32 -10 49 l29 32 28 -22
c16 -11 29 -23 29 -26z"/>
<path d="M622 3894 c-74 -37 -161 -129 -213 -225 -24 -45 -65 -101 -90 -125
-71 -68 -73 -76 -45 -166 l23 -76 -43 21 c-24 11 -47 17 -51 13 -5 -4 -8 -58
-7 -119 0 -91 4 -121 21 -159 41 -90 96 -98 178 -26 51 45 129 153 120 167 -3
5 -21 15 -40 21 -19 6 -35 15 -35 18 0 4 30 23 68 42 l67 35 3 80 c2 44 -2 99
-8 122 -6 27 -7 49 -1 60 48 89 85 143 104 149 54 19 101 -12 144 -93 43 -80
60 -154 93 -398 16 -115 36 -229 44 -253 44 -124 133 -249 203 -285 47 -25
176 -47 271 -47 183 0 319 37 662 181 118 50 226 95 239 100 24 10 24 10 -25
54 -81 72 -80 72 -186 37 -51 -16 -163 -55 -249 -85 -250 -89 -384 -107 -507
-69 -75 24 -166 84 -203 134 -29 42 -59 150 -79 293 -41 295 -71 406 -135 500
-82 120 -205 158 -323 99z"/>
<path d="M4672 3205 c-81 -65 -163 -163 -193 -231 -18 -40 -21 -60 -16 -118 3
-39 15 -98 27 -131 l21 -60 -30 -100 c-65 -218 -141 -355 -199 -355 -70 0
-150 68 -257 220 -127 180 -184 221 -309 222 -127 0 -182 -52 -173 -163 9
-109 42 -124 137 -64 30 19 61 35 70 35 31 0 113 -64 154 -120 23 -30 59 -87
81 -124 22 -38 56 -87 76 -110 l36 -41 -190 1 -190 1 -46 69 c-141 211 -327
321 -387 228 -26 -39 -15 -152 25 -238 45 -99 73 -132 130 -153 l48 -17 -32
-45 c-75 -107 -71 -216 11 -293 111 -104 364 -119 468 -27 69 60 84 174 36
257 l-21 35 64 -6 c35 -3 96 -13 137 -23 60 -13 81 -24 118 -58 105 -96 196
-250 263 -443 l31 -93 -40 -67 c-23 -38 -44 -75 -47 -84 -3 -9 9 -42 29 -77
20 -33 36 -63 36 -67 0 -3 -20 -3 -45 1 -43 6 -45 5 -45 -18 0 -39 37 -172 60
-218 48 -93 103 -113 165 -59 37 32 101 151 111 207 6 30 5 32 -22 33 -70 1
-71 12 -4 65 l62 49 -5 47 c-3 26 -17 75 -30 110 -13 35 -45 124 -71 198 -107
305 -225 501 -355 588 l-58 39 42 11 c52 14 139 90 190 168 53 80 111 225 144
361 26 109 32 124 84 193 104 138 172 297 152 359 -11 35 -32 24 -66 -36 -54
-96 -89 -144 -116 -156 -54 -24 -57 50 -8 202 35 109 43 151 26 151 -5 0 -40
-25 -79 -55z m-48 -232 c-8 -27 -17 -58 -20 -70 -8 -29 -15 -29 -45 3 l-24 26
48 44 c27 24 51 44 52 44 2 0 -3 -21 -11 -47z m-872 -1149 c44 -28 73 -68 65
-88 -8 -21 -76 -37 -117 -27 -37 8 -120 48 -120 57 0 33 83 97 115 88 11 -3
37 -17 57 -30z"/>
<path d="M463 2850 c-91 -21 -168 -102 -199 -208 -20 -68 -20 -208 1 -287 44
-174 171 -329 328 -404 148 -71 216 -85 412 -85 148 -1 181 2 254 22 157 43
280 111 382 209 64 62 74 59 64 -20 -27 -217 -163 -414 -358 -518 -179 -95
-286 -79 -582 88 -184 105 -275 142 -345 143 -63 0 -128 -35 -165 -88 -28 -41
-30 -50 -30 -135 0 -111 18 -160 107 -303 52 -83 64 -111 80 -188 30 -145 69
-206 167 -256 61 -31 179 -60 269 -67 69 -5 82 -4 82 9 0 9 -54 68 -121 132
-66 64 -119 122 -117 129 10 29 65 18 163 -33 54 -27 103 -50 107 -50 4 0 8
11 8 25 0 58 -139 162 -297 221 l-76 29 -59 90 c-111 166 -155 282 -115 298
26 10 114 -29 282 -124 191 -109 289 -153 374 -170 50 -11 72 -10 147 5 162
32 302 104 422 220 173 165 232 328 232 639 0 183 -12 247 -56 288 -22 21 -35
24 -97 24 -111 0 -150 -24 -246 -149 -136 -176 -219 -239 -353 -271 -75 -17
-235 -20 -310 -4 -141 29 -273 129 -333 253 -69 139 -69 260 -2 334 35 38 62
29 106 -37 90 -131 266 -279 426 -358 65 -31 100 -43 125 -41 34 3 35 5 38 48
7 94 -81 293 -179 404 -42 47 -124 96 -162 96 -10 0 -55 18 -100 40 -110 54
-195 69 -274 50z m483 -285 c13 -31 24 -58 24 -60 0 -2 -30 16 -66 42 l-66 46
28 13 c47 20 54 17 80 -41z m-261 -1680 c17 -15 23 -24 14 -22 -9 3 -40 8 -70
12 l-54 7 4 44 3 44 37 -29 c20 -17 50 -42 66 -56z"/>
<path d="M2300 2740 c-118 -44 -226 -84 -239 -90 l-24 -11 34 -35 c45 -47 115
-98 205 -149 l74 -42 -53 -7 c-80 -9 -156 -7 -180 5 -12 6 -31 23 -43 37 l-21
25 5 -166 c6 -235 -20 -426 -84 -604 l-26 -73 30 -38 c57 -71 187 -188 265
-236 167 -104 320 -131 461 -81 103 36 217 110 317 203 108 102 170 182 221
289 l40 82 -67 62 c-36 34 -78 83 -93 108 -25 42 -27 55 -27 146 0 88 5 116
43 240 23 77 42 148 42 157 0 11 -13 21 -37 27 -42 12 -48 7 -57 -48 -7 -44
-37 -95 -69 -115 -37 -25 -133 -38 -209 -31 l-69 7 53 25 c65 30 205 122 236
156 l23 25 -73 21 c-125 36 -239 81 -349 137 -58 30 -108 54 -110 53 -2 0
-101 -36 -219 -79z m215 -532 c48 -9 72 -8 120 5 33 8 61 14 62 13 1 -1 -29
-33 -67 -71 l-70 -70 -73 74 c-39 41 -63 70 -52 66 11 -4 47 -12 80 -17z
m-316 -348 l83 -35 59 -115 58 -115 0 93 1 93 38 -8 c48 -10 196 -10 245 0
l37 8 1 -93 0 -93 58 115 59 115 83 35 c45 19 87 37 92 39 5 2 -59 -99 -142
-223 -83 -124 -153 -226 -155 -226 -2 0 -28 11 -58 25 -32 15 -71 25 -98 25
-27 0 -66 -10 -98 -25 -30 -14 -56 -25 -58 -25 -2 0 -72 102 -155 226 -83 124
-147 225 -142 223 5 -2 47 -20 92 -39z"/>
<path d="M3281 1493 c-30 -42 -49 -79 -44 -80 25 -9 103 -64 103 -73 0 -18
-74 -93 -125 -125 -27 -17 -102 -55 -167 -84 -125 -56 -188 -102 -208 -151
-29 -71 16 -187 95 -242 22 -16 66 -34 98 -40 85 -18 176 4 414 100 247 100
319 122 395 122 49 0 63 -4 83 -25 32 -31 33 -96 5 -182 l-21 -60 -92 -36
c-173 -69 -317 -172 -317 -227 0 -30 26 -25 123 25 85 44 148 57 162 35 3 -5
-51 -66 -121 -134 -75 -73 -124 -128 -120 -135 17 -27 224 6 326 51 119 53
146 96 210 328 33 119 44 178 47 255 4 95 3 103 -24 155 -34 67 -84 104 -173
126 -56 15 -78 15 -162 5 -119 -15 -180 -34 -350 -112 -73 -34 -163 -72 -200
-85 -79 -28 -165 -32 -175 -8 -11 29 49 73 218 159 92 47 181 97 198 110 42
36 81 119 81 175 0 71 -61 156 -150 209 -19 11 -40 21 -45 21 -6 0 -35 -35
-64 -77z m613 -1182 c-3 -3 -35 -11 -70 -17 -36 -6 -61 -7 -57 -3 4 4 33 28
63 53 l55 45 8 -36 c4 -20 5 -39 1 -42z"/>
<path d="M1816 1348 c-66 -207 -90 -228 -281 -239 -124 -7 -189 -23 -261 -64
-57 -33 -121 -100 -152 -160 -24 -44 -27 -62 -27 -145 0 -87 3 -100 30 -149
49 -89 138 -151 268 -188 84 -23 305 -28 415 -9 115 20 137 20 256 0 79 -13
105 -14 144 -4 171 43 432 261 407 340 -22 70 -370 43 -597 -46 -35 -13 -90
-41 -122 -61 l-59 -36 -181 -1 c-242 -1 -334 23 -376 97 -23 41 8 125 65 175
53 47 93 58 261 77 67 7 141 19 165 26 80 24 169 139 218 282 l18 52 -46 50
c-25 28 -58 65 -73 83 -15 17 -29 32 -31 32 -3 0 -21 -51 -41 -112z m494 -782
c0 -2 -23 -23 -51 -47 l-51 -42 -23 29 c-14 16 -24 32 -25 35 0 3 30 10 68 16
37 5 70 11 75 11 4 1 7 0 7 -2z"/>
</g>
</svg>
