<?xml version="1.0" standalone="no"?>
<!DOCTYPE svg PUBLIC "-//W3C//DTD SVG 20010904//EN"
 "http://www.w3.org/TR/2001/REC-SVG-20010904/DTD/svg10.dtd">
<svg version="1.0" xmlns="http://www.w3.org/2000/svg"
 width="512.000000pt" height="512.000000pt" viewBox="0 0 512.000000 512.000000"
 preserveAspectRatio="xMidYMid meet">
<metadata>
Created by potrace 1.15, written by Peter Selinger 2001-2017
</metadata>
<g transform="translate(0.000000,512.000000) scale(0.100000,-0.100000)"
fill="#ffffff" stroke="none">
<path d="M1615 4549 c-535 -63 -1064 -451 -1279 -936 -57 -129 -83 -213 -107
-351 -30 -179 -29 -182 42 -260 129 -141 280 -406 375 -661 27 -72 53 -129 58
-128 4 1 22 30 40 62 197 374 515 698 851 865 192 96 359 143 553 156 89 6
102 9 97 23 -21 54 -49 173 -67 286 -17 108 -21 192 -25 497 l-5 366 -52 22
c-137 57 -316 79 -481 59z"/>
<path d="M2058 3104 c-374 -58 -772 -333 -1040 -719 -56 -81 -68 -105 -64
-127 8 -40 220 -472 311 -635 186 -330 434 -695 576 -847 l56 -60 64 23 c133
48 401 167 589 262 229 115 449 235 469 254 11 11 9 24 -14 81 -100 251 -128
570 -75 847 20 104 73 276 104 334 9 18 16 34 16 36 0 2 -48 7 -107 10 -69 3
-133 13 -176 27 l-69 21 -40 -27 c-108 -75 -218 -242 -281 -425 -5 -15 -13
-15 -84 -2 -43 8 -81 18 -86 22 -10 9 27 120 65 196 45 88 102 170 180 257
l68 77 -22 15 c-13 9 -51 43 -85 76 -70 68 -65 68 -163 3 -81 -53 -154 -120
-215 -198 -49 -61 -115 -186 -115 -217 0 -9 -4 -19 -9 -22 -10 -6 -159 18
-168 28 -9 9 24 110 59 181 67 134 192 272 323 358 122 81 113 65 74 130 -18
31 -38 57 -44 56 -5 -1 -49 -7 -97 -15z"/>
<path d="M3874 3071 c-312 -77 -581 -351 -719 -733 -63 -175 -92 -446 -66
-629 27 -188 97 -393 159 -461 34 -37 34 -39 16 -53 -17 -13 -260 -156 -345
-203 -261 -145 -720 -359 -923 -429 -55 -19 -103 -36 -108 -39 -11 -7 113
-184 128 -184 24 0 437 174 629 265 525 248 1054 545 1555 873 333 218 720
503 720 530 0 8 -16 69 -36 136 -137 460 -343 764 -597 881 -142 66 -273 80
-413 46z"/>
</g>
</svg>
