<?xml version="1.0" standalone="no"?>
<!DOCTYPE svg PUBLIC "-//W3C//DTD SVG 20010904//EN"
 "http://www.w3.org/TR/2001/REC-SVG-20010904/DTD/svg10.dtd">
<svg version="1.0" xmlns="http://www.w3.org/2000/svg"
 width="512.000000pt" height="512.000000pt" viewBox="0 0 512.000000 512.000000"
 preserveAspectRatio="xMidYMid meet">
<metadata>
Created by potrace 1.15, written by Peter Selinger 2001-2017
</metadata>
<g transform="translate(0.000000,512.000000) scale(0.100000,-0.100000)"
fill="#ffffff" stroke="none">
<path d="M2905 4909 c-799 -52 -1560 -475 -2129 -1184 -140 -173 -306 -455
-404 -685 -206 -481 -270 -1029 -170 -1462 11 -49 23 -88 28 -88 5 0 46 22 92
48 588 343 533 310 527 316 -2 2 -47 -9 -99 -26 -52 -16 -165 -51 -251 -77
l-157 -48 47 141 c26 78 54 161 61 186 l13 45 239 99 c132 55 241 103 244 108
3 4 -37 5 -88 3 -51 -3 -144 -7 -206 -10 l-112 -5 91 178 c51 97 97 182 103
189 8 9 104 16 326 23 173 6 317 13 319 15 2 3 -2 7 -10 9 -8 3 -119 41 -248
85 -128 44 -235 82 -238 85 -7 6 261 365 273 366 6 0 118 -36 249 -80 131 -45
239 -79 241 -77 2 1 -73 79 -166 172 l-170 170 167 167 168 168 177 -177 c98
-98 178 -171 178 -163 0 8 -37 126 -82 262 -45 136 -80 249 -78 251 32 28 361
267 368 267 5 0 45 -106 88 -235 44 -129 82 -235 85 -235 3 0 9 136 13 303 4
166 10 303 14 305 4 1 90 47 192 102 124 66 187 95 191 87 3 -7 28 -112 54
-234 27 -123 52 -223 55 -223 4 0 24 114 45 253 21 138 41 263 44 276 6 20 27
29 181 76 206 62 184 77 194 -130 7 -158 16 -248 23 -241 4 3 193 555 193 563
0 1 -39 10 -87 22 -172 39 -378 54 -588 40z"/>
<path d="M4130 4289 c-129 -50 -311 -120 -405 -155 l-170 -65 -807 -807 -808
-807 0 -65 c0 -76 -22 -130 -71 -179 -157 -158 -430 -50 -433 170 -1 27 -4 49
-8 49 -13 0 -85 -103 -117 -167 -36 -71 -67 -183 -74 -264 l-5 -56 77 -6 c73
-6 197 -42 248 -73 13 -8 35 -21 49 -30 l26 -16 -33 -20 c-127 -77 -357 -298
-467 -450 l-63 -86 -57 24 c-78 32 -135 32 -169 -2 -23 -23 -25 -31 -21 -88 9
-103 79 -210 191 -290 111 -79 201 -97 254 -52 25 21 28 31 27 78 -1 35 -10
73 -26 105 l-24 51 70 50 c154 107 329 283 439 440 60 85 55 86 118 -43 41
-84 69 -190 69 -264 l0 -43 58 6 c146 18 265 63 374 143 l63 46 -63 13 c-78
16 -123 43 -167 101 -77 101 -66 242 27 329 48 46 95 67 165 73 l62 6 805 804
806 803 146 392 c81 215 150 401 155 414 5 12 5 22 1 22 -4 0 -113 -41 -242
-91z m-325 -489 l60 -60 -928 -928 -927 -927 -62 63 -63 62 925 925 c509 509
927 925 930 925 3 0 32 -27 65 -60z"/>
<path d="M4660 3509 c-102 -32 -231 -73 -287 -91 -57 -17 -101 -33 -99 -36 2
-2 98 -8 212 -13 114 -5 209 -11 211 -13 3 -3 -95 -342 -103 -354 0 -1 -131
-14 -290 -29 -159 -14 -292 -29 -296 -32 -4 -4 106 -37 244 -74 139 -37 254
-69 256 -72 2 -2 -42 -92 -98 -199 l-101 -196 -103 0 c-168 0 -496 -13 -496
-19 0 -4 108 -42 239 -86 l240 -80 -135 -180 c-74 -99 -139 -184 -143 -188 -4
-4 -125 33 -269 82 -144 49 -262 86 -262 83 0 -4 81 -88 180 -187 l180 -180
-167 -167 -168 -168 -167 167 c-93 92 -168 164 -168 159 0 -5 34 -114 76 -243
42 -130 72 -239 67 -244 -35 -35 -358 -268 -363 -262 -4 5 -42 112 -85 238
-43 127 -81 236 -85 244 -10 18 -18 -107 -26 -397 l-6 -233 -190 -95 -190 -95
7 218 c4 120 5 216 2 213 -3 -3 -50 -117 -106 -254 -56 -137 -102 -250 -103
-252 -10 -8 -368 -121 -368 -115 0 3 32 109 71 235 38 125 68 230 66 232 -5 5
-366 -569 -370 -588 -7 -32 313 -79 553 -81 595 -4 1211 222 1730 634 136 108
415 386 519 518 523 661 745 1443 610 2150 -12 61 -24 111 -28 110 -3 0 -89
-27 -191 -60z"/>
</g>
</svg>
