<?xml version="1.0" encoding="UTF-8" standalone="no"?>
<!-- Created with Inkscape (http://www.inkscape.org/) -->

<svg
   xmlns:dc="http://purl.org/dc/elements/1.1/"
   xmlns:cc="http://creativecommons.org/ns#"
   xmlns:rdf="http://www.w3.org/1999/02/22-rdf-syntax-ns#"
   xmlns:svg="http://www.w3.org/2000/svg"
   xmlns="http://www.w3.org/2000/svg"
   xmlns:sodipodi="http://sodipodi.sourceforge.net/DTD/sodipodi-0.dtd"
   xmlns:inkscape="http://www.inkscape.org/namespaces/inkscape"
   width="31.75mm"
   height="31.75mm"
   viewBox="0 0 31.75 31.75"
   version="1.1"
   id="svg4842"
   inkscape:version="0.92.4 (5da689c313, 2019-01-14)"
   sodipodi:docname="bard.svg">
  <defs
     id="defs4836" />
  <sodipodi:namedview
     id="base"
     pagecolor="#ffffff"
     bordercolor="#666666"
     borderopacity="1.0"
     inkscape:pageopacity="0.0"
     inkscape:pageshadow="2"
     inkscape:zoom="5.6"
     inkscape:cx="7.5158167"
     inkscape:cy="55.188103"
     inkscape:document-units="mm"
     inkscape:current-layer="layer1"
     showgrid="false"
     inkscape:pagecheckerboard="true"
     inkscape:window-width="1850"
     inkscape:window-height="1016"
     inkscape:window-x="70"
     inkscape:window-y="27"
     inkscape:window-maximized="1" />
  <metadata
     id="metadata4839">
    <rdf:RDF>
      <cc:Work
         rdf:about="">
        <dc:format>image/svg+xml</dc:format>
        <dc:type
           rdf:resource="http://purl.org/dc/dcmitype/StillImage" />
        <dc:title></dc:title>
      </cc:Work>
    </rdf:RDF>
  </metadata>
  <g
     inkscape:label="Layer 1"
     inkscape:groupmode="layer"
     id="layer1"
     transform="translate(-154.97025,1.6011904)">
    <path
       style="fill:#ffffff;stroke-width:0.26458332;fill-opacity:1"
       d="m 167.86061,28.780263 c -0.49001,-0.178795 -0.97238,-0.724043 -1.44448,-1.632757 -0.6054,-1.165302 -0.70906,-1.692389 -0.71063,-3.61328 -0.001,-1.839132 0.1534,-2.706999 0.84994,-4.7625 0.46848,-1.382448 1.32033,-3.21825 1.89301,-4.07956 l 1.04124,-1.566018 0.0825,1.301435 c 0.0454,0.715789 0.17341,-0.940059 0.28456,-3.679662 0.19156,-4.7211689 0.17471,-5.0195726 -0.32291,-5.7184078 -0.28875,-0.4055205 -0.43923,-0.8321376 -0.33439,-0.9480378 0.10484,-0.1159002 -0.0177,-0.135963 -0.2724,-0.044584 -0.33881,0.1215724 -0.46302,0.02864 -0.46302,-0.3464152 0,-0.3725559 0.12647,-0.4689695 0.46302,-0.3529762 0.43307,0.1492589 0.434,0.135884 0.0145,-0.2067411 -0.2467,-0.2014784 -0.53241,-0.7133231 -0.63491,-1.1374327 -0.15535,-0.6427139 -0.11511,-0.7437612 0.24163,-0.6068679 0.2354,0.090332 0.49837,0.050378 0.58438,-0.088788 0.086,-0.1391653 -0.0292,-0.253028 -0.25611,-0.253028 -0.22687,0 -0.41249,-0.18562041 -0.41249,-0.41248988 0,-0.22686944 0.1215,-0.33739892 0.27,-0.24562102 0.1485,0.0917779 0.63388,-0.13932037 1.07863,-0.51355175 1.01114,-0.85081364 1.41297,-0.85329443 2.25235,-0.0139054 0.36659,0.36658333 0.7779,0.59768163 0.91402,0.51355175 0.13612,-0.0841299 0.2475,0.0239268 0.2475,0.2401261 0,0.21619927 -0.20836,0.4475395 -0.46302,0.5140894 -0.34843,0.091055 -0.31569,0.1285957 0.13229,0.1516922 0.69085,0.035617 0.74402,0.4008147 0.20798,1.4284651 -0.21124,0.4049731 -0.27004,0.6658369 -0.13066,0.5796976 0.13937,-0.08614 0.25341,0.084798 0.25341,0.3798604 0,0.3978352 -0.11966,0.4935411 -0.46302,0.3703341 -0.25466,-0.091379 -0.37793,-0.072002 -0.27393,0.04306 0.10401,0.115062 0.0147,0.4581805 -0.19843,0.7624858 -0.31359,0.4477088 -0.37905,1.5896285 -0.34306,5.9845153 0.0245,2.987178 0.0528,3.289525 0.14155,4.372899 0.0843,-0.919582 0,0 0.17535,-1.902247 0.95921,1.373876 0.6532,0.854916 1.17756,1.67001 1.57179,2.443315 2.51089,5.57367 2.53029,8.434321 0.0142,2.093116 -0.0707,2.547752 -0.70148,3.757284 -0.59289,1.136864 -0.89045,1.424027 -1.71196,1.652169 -1.24387,0.345438 -4.71877,0.326457 -5.69876,-0.03112 z m 4.96901,-1.413203 c 0,-0.477533 -0.18094,-0.525542 -1.98075,-0.525542 -1.65416,0 -1.99504,0.07419 -2.0674,0.449958 -0.0727,0.37746 0.18249,0.46554 1.58387,0.546674 2.35702,0.136465 2.46428,0.115959 2.46428,-0.47109 z m -3.88937,-1.5045 c 0.55539,-0.555393 0.34508,-1.451506 -0.60854,-2.592917 -1.10298,-1.320183 -1.15057,-1.904634 -0.25112,-3.08388 0.37121,-0.486678 0.55844,-0.88487 0.41608,-0.88487 -0.49021,0 -1.35559,1.395774 -1.35559,2.186426 0,0.53368 0.30216,1.126596 0.92604,1.817164 0.92985,1.029232 1.11302,1.641666 0.69044,2.308577 -0.14813,0.233791 -0.43518,0.293129 -0.82283,0.170093 -0.40554,-0.128715 -0.53762,-0.09557 -0.41429,0.103978 0.23922,0.38707 1.02171,0.373529 1.41981,-0.02458 z m 5.34458,0.03509 c 0,-0.159052 -0.22411,-0.211283 -0.51305,-0.119576 -0.35192,0.111694 -0.60121,-0.0019 -0.79375,-0.361651 -0.38282,-0.715305 -0.41283,-0.63901 0.80459,-2.045627 0.93758,-1.083283 1.06536,-1.376774 0.93885,-2.156367 -0.16151,-0.99524 -0.52278,-1.534834 -1.30952,-1.955884 -0.42776,-0.228927 -0.39654,-0.116797 0.17667,0.634732 0.8494,1.113618 0.90521,2.311467 0.13996,3.004009 -0.57575,0.521042 -1.29583,1.739349 -1.29583,2.192406 0,0.43756 0.80335,1.090372 1.34182,1.090372 0.28064,0 0.51026,-0.127085 0.51026,-0.282414 z m -2.23693,-3.806601 c 0.79063,-0.790627 0.83109,-1.701635 0.10996,-2.475679 -0.70998,-0.762077 -1.71081,-0.734075 -2.51526,0.07037 -0.96679,0.966788 -0.73228,2.294894 0.49234,2.788305 0.91747,0.369657 1.22109,0.308867 1.91296,-0.383001 z M 169.25775,2.1029763 c 0,-0.1455209 -0.11906,-0.2645834 -0.26458,-0.2645834 -0.14552,0 -0.26459,0.1190625 -0.26459,0.2645834 0,0.1455208 0.11907,0.2645833 0.26459,0.2645833 0.14552,0 0.26458,-0.1190625 0.26458,-0.2645833 z m 3.70417,0 c 0,-0.1455209 -0.0525,-0.2645834 -0.11668,-0.2645834 -0.0642,0 -0.19026,0.1190625 -0.2802,0.2645834 -0.0899,0.1455208 -0.0374,0.2645833 0.11668,0.2645833 0.15411,0 0.2802,-0.1190625 0.2802,-0.2645833 z"
       id="path4855"
       inkscape:connector-curvature="0"
       sodipodi:nodetypes="cccccccccscssccccsssccssscccsscccccccccccssccscscssccccccscccccccssscscsccssssssscss" />
  </g>
</svg>
