<?xml version="1.0" encoding="UTF-8" standalone="no"?>
<!-- Created with Inkscape (http://www.inkscape.org/) -->

<svg
   xmlns:dc="http://purl.org/dc/elements/1.1/"
   xmlns:cc="http://creativecommons.org/ns#"
   xmlns:rdf="http://www.w3.org/1999/02/22-rdf-syntax-ns#"
   xmlns:svg="http://www.w3.org/2000/svg"
   xmlns="http://www.w3.org/2000/svg"
   xmlns:sodipodi="http://sodipodi.sourceforge.net/DTD/sodipodi-0.dtd"
   xmlns:inkscape="http://www.inkscape.org/namespaces/inkscape"
   width="31.75mm"
   height="31.75mm"
   viewBox="0 0 31.75 31.75"
   version="1.1"
   id="svg4802"
   inkscape:version="0.92.4 (5da689c313, 2019-01-14)"
   sodipodi:docname="cleric.svg">
  <defs
     id="defs4796" />
  <sodipodi:namedview
     id="base"
     pagecolor="#ffffff"
     bordercolor="#666666"
     borderopacity="1.0"
     inkscape:pageopacity="0.0"
     inkscape:pageshadow="2"
     inkscape:zoom="5.6"
     inkscape:cx="75.797157"
     inkscape:cy="87.416459"
     inkscape:document-units="mm"
     inkscape:current-layer="layer1"
     showgrid="false"
     inkscape:pagecheckerboard="true"
     inkscape:window-width="1850"
     inkscape:window-height="1016"
     inkscape:window-x="70"
     inkscape:window-y="27"
     inkscape:window-maximized="1" />
  <metadata
     id="metadata4799">
    <rdf:RDF>
      <cc:Work
         rdf:about="">
        <dc:format>image/svg+xml</dc:format>
        <dc:type
           rdf:resource="http://purl.org/dc/dcmitype/StillImage" />
        <dc:title></dc:title>
      </cc:Work>
    </rdf:RDF>
  </metadata>
  <g
     inkscape:label="Layer 1"
     inkscape:groupmode="layer"
     id="layer1"
     transform="translate(-31.750002,-61.14286)">
    <path
       style="fill:#ffffff;fill-opacity:1;stroke-width:0.26458332"
       d="m 46.845596,90.925768 c -0.173268,-0.208775 -0.277143,-0.767453 -0.230834,-1.24151 0.07951,-0.813954 0.146777,-0.865053 1.208677,-0.918237 l 1.12448,-0.05632 v 1.137229 c 0,0.792927 -0.126707,1.18585 -0.418515,1.297827 -0.696035,0.267094 -1.351099,0.181898 -1.683808,-0.218993 z m 0.426628,-2.442629 c -0.09701,-0.09701 -0.176389,-2.605349 -0.176389,-5.574079 v -5.397691 l 0.595313,0.18299 c 0.327422,0.100645 0.614738,0.197965 0.638481,0.216267 0.158332,0.122053 0.150515,10.170934 -0.0081,10.427598 -0.216122,0.349692 -0.768262,0.425947 -1.049292,0.144915 z m -5.461507,-9.498124 c 0.383327,-1.008225 0.313637,-2.459681 -0.18295,-3.810389 -0.507078,-1.379243 -1.172271,-2.199333 -2.398773,-2.957353 -0.982261,-0.607071 -1.115728,-1.020242 -0.329569,-1.020242 0.86123,0 2.563818,-1.289098 3.046761,-2.306824 0.319149,-0.672557 0.399628,-1.288021 0.283195,-2.165739 l -0.162658,-1.226174 1.65466,0.0051 c 1.888115,0.0058 3.08584,-0.63371 3.673582,-1.96151 l 0.340606,-0.769482 0.606174,0.654072 c 0.333395,0.359739 0.535872,0.775759 0.606174,0.874593 0.434313,0.610574 1.51953,1.19512 3.074459,1.18271 l 1.61925,-0.01292 -0.245133,0.887801 c -0.241661,0.875222 -0.17749,1.374539 0.355821,2.768683 0.30483,0.796863 2.055834,2.069693 2.847232,2.069693 0.692408,0 0.943775,0.45235 0.355859,0.640391 -0.256775,0.08213 -0.947444,0.596715 -1.534821,1.143528 -1.47327,1.371528 -2.190416,3.494241 -1.80921,5.355166 0.149574,0.730169 0.193307,1.327581 0.09718,1.327581 -0.09612,0 -0.626451,-0.655823 -1.178507,-1.457384 l -1.003739,-1.457385 0.703269,-1.062712 c 1.570076,-2.372545 1.30966,-5.845555 -0.601591,-8.023069 -1.010886,-1.151715 -3.524121,-1.914971 -3.827761,-1.162471 -0.106762,0.264584 -0.13763,0.264584 -0.154341,0 -0.06173,-0.977354 -3.003716,0.164075 -4.088448,1.586232 -0.95628,1.253747 -1.25718,2.229081 -1.25718,4.075009 0,1.559795 0.371768,2.643336 1.407982,4.103658 0.255855,0.360572 0.130216,0.700876 -0.708207,1.918229 -1.079196,1.566944 -1.618611,1.930333 -1.18932,0.801211 z m 5.338035,-2.020072 c -0.174625,-0.174625 -0.3175,-0.650875 -0.3175,-1.058333 0,-0.788068 -0.443746,-1.006714 -0.69807,-0.343958 -0.23274,0.606511 -0.684489,0.472437 -0.488525,-0.144989 0.239218,-0.753709 -0.345758,-1.381427 -1.108876,-1.189896 -0.699157,0.175477 -0.803348,-0.05336 -0.222199,-0.48803 0.535979,-0.400883 0.226776,-1.484377 -0.423605,-1.484377 -0.27407,0 -0.498308,-0.119063 -0.498308,-0.264583 0,-0.145521 0.224238,-0.264584 0.498308,-0.264584 0.650381,0 0.959584,-1.083494 0.423605,-1.484376 -0.591851,-0.442671 -0.472061,-0.709563 0.238438,-0.531239 0.85776,0.215284 1.261961,-0.33838 1.060201,-1.452236 l -0.16262,-0.897774 0.4708,0.661459 c 0.258939,0.363802 0.68664,0.816908 1.096931,0.713605 0.340468,-0.08572 0.61111,-0.564157 0.628558,-1.053644 0.01902,-0.533587 0.04398,-0.522957 0.279046,0.118844 0.338595,0.924461 0.971151,1.140864 1.63195,0.558303 0.51822,-0.456863 0.528094,-0.4521 0.369685,0.17829 -0.231157,0.919891 0.221883,1.346283 1.227237,1.155051 l 0.836819,-0.159174 -0.549308,0.633424 c -0.638922,0.736762 -0.556508,1.559467 0.156218,1.559467 0.271784,0 0.567736,0.119063 0.657673,0.264584 0.08994,0.14552 -0.07744,0.264583 -0.371951,0.264583 -0.750661,0 -1.297629,1.049621 -0.716455,1.374862 0.616586,0.345059 0.528408,0.809666 -0.114915,0.605483 -0.787361,-0.249898 -1.340744,0.314706 -1.135753,1.158783 0.164476,0.677252 0.154279,0.683999 -0.35412,0.23431 -0.739507,-0.654108 -0.878681,-0.585255 -0.878681,0.434713 0,1.113123 -0.833364,1.602651 -1.534583,0.901432 z"
       id="path4815"
       inkscape:connector-curvature="0"
       sodipodi:nodetypes="ccccsccccscccccccsssssccscsscccsscsssscsssssscsccsscsccssssssccsscssscsscsscssss" />
  </g>
</svg>
