<?xml version="1.0" encoding="UTF-8" standalone="no"?>
<!-- Created with Inkscape (http://www.inkscape.org/) -->

<svg
   xmlns:dc="http://purl.org/dc/elements/1.1/"
   xmlns:cc="http://creativecommons.org/ns#"
   xmlns:rdf="http://www.w3.org/1999/02/22-rdf-syntax-ns#"
   xmlns:svg="http://www.w3.org/2000/svg"
   xmlns="http://www.w3.org/2000/svg"
   xmlns:sodipodi="http://sodipodi.sourceforge.net/DTD/sodipodi-0.dtd"
   xmlns:inkscape="http://www.inkscape.org/namespaces/inkscape"
   width="31.75mm"
   height="31.75mm"
   viewBox="0 0 31.75 31.75"
   version="1.1"
   id="svg4802"
   inkscape:version="0.92.4 (5da689c313, 2019-01-14)"
   sodipodi:docname="cleric.svg">
  <defs
     id="defs4796" />
  <sodipodi:namedview
     id="base"
     pagecolor="#ffffff"
     bordercolor="#666666"
     borderopacity="1.0"
     inkscape:pageopacity="0.0"
     inkscape:pageshadow="2"
     inkscape:zoom="5.6"
     inkscape:cx="112.11985"
     inkscape:cy="71.376241"
     inkscape:document-units="mm"
     inkscape:current-layer="layer1"
     showgrid="false"
     inkscape:pagecheckerboard="true"
     inkscape:window-width="1850"
     inkscape:window-height="1016"
     inkscape:window-x="70"
     inkscape:window-y="27"
     inkscape:window-maximized="1" />
  <metadata
     id="metadata4799">
    <rdf:RDF>
      <cc:Work
         rdf:about="">
        <dc:format>image/svg+xml</dc:format>
        <dc:type
           rdf:resource="http://purl.org/dc/dcmitype/StillImage" />
        <dc:title />
      </cc:Work>
    </rdf:RDF>
  </metadata>
  <g
     inkscape:label="Layer 1"
     inkscape:groupmode="layer"
     id="layer1"
     transform="translate(-31.750002,-61.14286)">
    <path
       style="fill:#ffffff;fill-opacity:1;stroke-width:0.99999994"
       d="M 60.417969 6.1582031 L 59.130859 9.0664062 C 56.909472 14.084863 52.382276 16.50239 45.246094 16.480469 L 38.992188 16.460938 L 39.607422 21.095703 C 40.047484 24.413062 39.743342 26.739302 38.537109 29.28125 C 36.711813 33.127773 30.276527 38 27.021484 38 C 24.050175 38 24.555096 39.561027 28.267578 41.855469 C 32.903176 44.720426 35.417469 47.820316 37.333984 53.033203 C 39.210849 58.138241 39.474186 63.624933 38.025391 67.435547 C 36.402873 71.703095 38.44068 70.328558 42.519531 64.40625 C 45.688374 59.805231 46.164277 58.519042 45.197266 57.15625 C 41.280866 51.636923 39.875 47.541773 39.875 41.646484 C 39.875 34.669749 41.012667 30.984665 44.626953 26.246094 C 48.726728 20.871012 59.844815 16.556064 60.078125 20.25 C 60.141285 21.250003 60.258599 21.250003 60.662109 20.25 C 61.809725 17.405906 71.308235 20.291593 75.128906 24.644531 C 82.352532 32.874505 83.336489 45.999698 77.402344 54.966797 L 74.744141 58.984375 L 78.539062 64.492188 C 80.625573 67.521709 82.628899 70 82.992188 70 C 83.355502 70 83.190319 67.742116 82.625 64.982422 C 81.184221 57.949005 83.894626 49.925915 89.462891 44.742188 C 91.682898 42.675493 94.293184 40.730334 95.263672 40.419922 C 97.485717 39.709216 96.536897 38 93.919922 38 C 90.928811 38 84.310317 33.1895 83.158203 30.177734 C 81.14254 24.908529 80.901089 23.020816 81.814453 19.712891 L 82.740234 16.357422 L 76.619141 16.40625 C 70.742244 16.453154 66.641498 14.245181 65 11.9375 C 64.734292 11.563954 63.96906 9.9905028 62.708984 8.6308594 L 60.417969 6.1582031 z M 58.841797 24.373047 L 58.841797 28.277344 C 57.700408 28.422294 56.583656 28.719876 55.521484 29.162109 L 53.570312 25.783203 L 50.742188 27.421875 L 52.689453 30.794922 C 51.777198 31.492935 50.962649 32.310111 50.267578 33.224609 L 46.890625 31.275391 L 45.25 34.111328 L 48.617188 36.054688 C 48.177131 37.116522 47.881525 38.232598 47.738281 39.373047 L 43.841797 39.373047 L 43.841797 42.644531 L 47.742188 42.644531 C 47.887822 43.783262 48.185392 44.897342 48.626953 45.957031 L 45.25 47.908203 L 46.890625 50.734375 L 50.259766 48.791016 C 50.95838 49.7034 51.776218 50.517954 52.691406 51.212891 L 50.742188 54.587891 L 53.570312 56.226562 L 55.513672 52.859375 C 55.91581 53.026401 56.328028 53.165873 56.744141 53.291016 C 57.122897 54.986478 58.41434 60.069939 60.455078 60.113281 C 62.556537 60.157919 63.734682 54.836766 64.029297 53.335938 C 64.502941 53.199806 64.96991 53.04163 65.425781 52.851562 L 67.375 56.226562 L 70.201172 54.587891 L 68.255859 51.220703 C 69.169061 50.521622 69.984284 49.703114 70.679688 48.787109 L 74.054688 50.734375 L 75.693359 47.908203 L 72.326172 45.962891 C 72.766228 44.901056 73.061834 43.78498 73.205078 42.644531 L 77.103516 42.644531 L 77.103516 39.373047 L 73.203125 39.373047 C 73.057661 38.233652 72.760088 37.118904 72.318359 36.058594 L 75.693359 34.111328 L 74.054688 31.275391 L 70.683594 33.222656 C 69.984379 32.310137 69.165877 31.495583 68.25 30.800781 L 70.201172 27.421875 L 67.375 25.783203 L 65.427734 29.154297 C 64.364132 28.713066 63.24605 28.416793 62.103516 28.273438 L 62.103516 24.373047 L 58.841797 24.373047 z M 58 61.865234 L 58 82.265625 C 58 93.486022 58.299364 102.96733 58.666016 103.33398 C 59.728176 104.39615 61.815973 104.10683 62.632812 102.78516 C 63.232302 101.81509 63.262483 63.836303 62.664062 63.375 C 62.574325 63.305827 61.4875 62.937031 60.25 62.556641 L 58 61.865234 z M 65 104.18945 L 60.75 104.40234 C 56.73652 104.60335 56.482151 104.79669 56.181641 107.87305 C 56.006614 109.66476 56.399816 111.77538 57.054688 112.56445 C 58.31217 114.07963 60.787285 114.40207 63.417969 113.39258 C 64.520865 112.96936 65 111.48517 65 108.48828 L 65 104.18945 z "
       transform="matrix(0.26458333,0,0,0.26458333,31.750002,61.14286)"
       id="path4815" />
  </g>
</svg>
