<?xml version="1.0" encoding="UTF-8" standalone="no"?>
<!-- Created with Inkscape (http://www.inkscape.org/) -->

<svg
   xmlns:dc="http://purl.org/dc/elements/1.1/"
   xmlns:cc="http://creativecommons.org/ns#"
   xmlns:rdf="http://www.w3.org/1999/02/22-rdf-syntax-ns#"
   xmlns:svg="http://www.w3.org/2000/svg"
   xmlns="http://www.w3.org/2000/svg"
   xmlns:sodipodi="http://sodipodi.sourceforge.net/DTD/sodipodi-0.dtd"
   xmlns:inkscape="http://www.inkscape.org/namespaces/inkscape"
   width="31.75mm"
   height="31.75mm"
   viewBox="0 0 31.75 31.75"
   version="1.1"
   id="svg893"
   inkscape:version="0.92.4 (5da689c313, 2019-01-14)"
   sodipodi:docname="monk.svg">
  <defs
     id="defs887" />
  <sodipodi:namedview
     id="base"
     pagecolor="#ffffff"
     bordercolor="#666666"
     borderopacity="1.0"
     inkscape:pageopacity="0.0"
     inkscape:pageshadow="2"
     inkscape:zoom="2.8"
     inkscape:cx="114.74579"
     inkscape:cy="5.6240207"
     inkscape:document-units="mm"
     inkscape:current-layer="layer1"
     showgrid="false"
     inkscape:pagecheckerboard="true"
     inkscape:window-width="1850"
     inkscape:window-height="1016"
     inkscape:window-x="70"
     inkscape:window-y="27"
     inkscape:window-maximized="1" />
  <metadata
     id="metadata890">
    <rdf:RDF>
      <cc:Work
         rdf:about="">
        <dc:format>image/svg+xml</dc:format>
        <dc:type
           rdf:resource="http://purl.org/dc/dcmitype/StillImage" />
        <dc:title></dc:title>
      </cc:Work>
    </rdf:RDF>
  </metadata>
  <g
     inkscape:label="Layer 1"
     inkscape:groupmode="layer"
     id="layer1"
     transform="translate(59.720238,0.84523809)">
    <path
       style="fill:#fffffa;stroke-width:0.26458332;fill-opacity:1"
       d="m -45.300446,28.094739 c -0.873125,-0.369393 -1.745237,-0.870519 -1.938026,-1.113613 -0.271161,-0.341916 -0.331066,-1.622993 -0.264583,-5.658073 l 0.08594,-5.216084 -1.358201,-1.398499 -1.358202,-1.3985 -0.172501,-2.671824 c -0.135294,-2.095547 -0.09473,-2.7363649 0.188055,-2.9710583 0.587255,-0.4873784 3.913337,-1.1041327 4.017543,-0.7449717 0.04826,0.1663407 0.148034,0.4927315 0.221714,0.7253132 0.07834,0.2472952 -0.249785,0.8515051 -0.790277,1.4552083 -1.957052,2.1859285 -1.72493,2.6247855 0.362542,0.685432 l 1.370164,-1.2729422 0.21479,-3.2872939 0.21479,-3.2872937 0.990082,-0.1602715 c 0.544546,-0.088149 1.050561,-0.099793 1.12448,-0.025875 0.187928,0.1879279 0.163635,3.3363206 -0.03875,5.0214643 -0.153826,1.2808447 -0.234967,1.416672 -0.929248,1.5555283 -1.225181,0.2450358 -1.145693,0.6129593 0.132426,0.6129593 1.458939,0 1.504731,-0.098321 1.694396,-3.6380208 0.07992,-1.4915885 0.228984,-2.7119792 0.331249,-2.7119792 0.102265,0 0.561416,0.1873142 1.020336,0.4162537 0.928411,0.4631526 0.964807,0.6766591 0.661967,3.8832255 -0.141906,1.502546 -0.246568,1.7859375 -0.659577,1.7859375 -0.269999,0 -0.490907,0.1190625 -0.490907,0.2645833 0,0.1455209 0.300603,0.2645834 0.668007,0.2645834 0.797521,0 1.109146,-0.6560532 1.205323,-2.5375325 0.08618,-1.6858845 0.10905,-1.7150863 1.078564,-1.3771121 l 0.823531,0.2870843 -0.144582,3.5997176 c -0.152989,3.8090402 -0.630074,5.8346472 -1.521229,6.4588362 -0.441134,0.308983 -0.464538,0.574069 -0.262516,2.973387 0.712742,8.464853 0.742008,8.238309 -1.177224,9.112619 -0.641822,0.292383 -1.240728,0.650984 -1.330902,0.796888 -0.295642,0.478359 -2.350493,0.256744 -3.96918,-0.428077 z m 2.774073,-12.055565 c 0.0067,-1.166734 0.461699,-2.017172 1.315602,-2.458742 1.227693,-0.634865 0.959359,-0.952356 -0.410433,-0.485621 l -1.21555,0.414179 -1.194764,-0.842147 c -1.576322,-1.111095 -1.824811,-0.781244 -0.407449,0.540857 0.662508,0.617981 1.124089,1.287586 1.125808,1.633181 0.0016,0.322166 0.0782,1.041417 0.170219,1.598336 0.184963,1.119433 0.609472,0.844002 0.616567,-0.400043 z m 5.031135,-6.4333704 c 0,-0.2182813 -0.171567,-0.396875 -0.38126,-0.396875 -0.511515,0 -0.764866,0.4499051 -0.347993,0.6179719 0.577597,0.2328645 0.729253,0.1868845 0.729253,-0.2210969 z M -48.245335,5.7031994 c 0.08775,-0.3274219 0.161164,-0.8649531 0.163151,-1.1945138 0.0038,-0.6386391 1.340984,-1.6469622 2.186425,-1.648768 0.388491,-8.202e-4 0.463021,0.2489697 0.463021,1.5518924 v 1.5528811 l -0.992187,0.1639985 c -1.760814,0.2910446 -1.997601,0.2356993 -1.82041,-0.4254902 z"
       id="path906"
       inkscape:connector-curvature="0" />
  </g>
</svg>
