<?xml version="1.0" encoding="UTF-8" standalone="no"?>
<!-- Created with Inkscape (http://www.inkscape.org/) -->

<svg
   xmlns:dc="http://purl.org/dc/elements/1.1/"
   xmlns:cc="http://creativecommons.org/ns#"
   xmlns:rdf="http://www.w3.org/1999/02/22-rdf-syntax-ns#"
   xmlns:svg="http://www.w3.org/2000/svg"
   xmlns="http://www.w3.org/2000/svg"
   xmlns:sodipodi="http://sodipodi.sourceforge.net/DTD/sodipodi-0.dtd"
   xmlns:inkscape="http://www.inkscape.org/namespaces/inkscape"
   width="31.75mm"
   height="31.75mm"
   viewBox="0 0 31.75 31.75"
   version="1.1"
   id="svg4722"
   inkscape:version="0.92.4 (5da689c313, 2019-01-14)"
   sodipodi:docname="paladin.svg">
  <defs
     id="defs4716" />
  <sodipodi:namedview
     id="base"
     pagecolor="#ffffff"
     bordercolor="#666666"
     borderopacity="1.0"
     inkscape:pageopacity="0.0"
     inkscape:pageshadow="2"
     inkscape:zoom="3.959798"
     inkscape:cx="69.447025"
     inkscape:cy="57.735119"
     inkscape:document-units="mm"
     inkscape:current-layer="layer1"
     showgrid="false"
     inkscape:pagecheckerboard="true"
     inkscape:window-width="1850"
     inkscape:window-height="1016"
     inkscape:window-x="70"
     inkscape:window-y="27"
     inkscape:window-maximized="1" />
  <metadata
     id="metadata4719">
    <rdf:RDF>
      <cc:Work
         rdf:about="">
        <dc:format>image/svg+xml</dc:format>
        <dc:type
           rdf:resource="http://purl.org/dc/dcmitype/StillImage" />
        <dc:title></dc:title>
      </cc:Work>
    </rdf:RDF>
  </metadata>
  <g
     inkscape:label="Layer 1"
     inkscape:groupmode="layer"
     id="layer1"
     transform="translate(-100.54166,-67.190475)">
    <path
       style="fill:#ffffff;stroke-width:0.26458332;fill-opacity:1"
       d="m 114.76155,96.067957 c -0.54742,-1.541293 -2.83523,-5.115081 -3.84171,-6.001127 l -0.72089,-0.634633 0.8275,-0.0084 c 0.45513,-0.0046 0.96213,-0.170584 1.12669,-0.368858 0.16455,-0.198273 0.39261,-1.521152 0.50681,-2.939731 0.16537,-2.054402 0.13568,-2.606839 -0.14591,-2.714898 -0.55342,-0.212367 -0.7251,0.136686 -0.74508,1.514849 -0.0102,0.702616 -0.20164,1.55328 -0.42546,1.890365 -0.37168,0.559778 -0.47209,0.583199 -1.15882,0.270302 -0.59898,-0.272914 -0.67398,-0.391865 -0.3688,-0.584934 0.29994,-0.189762 0.25715,-0.243232 -0.19724,-0.246404 -0.31917,-0.0022 -0.76662,-0.270046 -0.99433,-0.59515 -0.3803,-0.542957 -0.37614,-0.604415 0.0511,-0.754601 0.41321,-0.145239 0.40186,-0.183632 -0.10158,-0.343706 -0.31171,-0.09911 -0.6375,-0.444151 -0.72399,-0.766753 -0.22465,-0.837969 -0.20119,-1.037352 0.10011,-0.851134 0.39496,0.244094 0.32362,-0.02267 -0.26359,-0.985792 -0.2905,-0.47646 -0.52862,-1.327354 -0.52917,-1.890875 -9e-4,-0.928412 0.0409,-0.9905 0.44543,-0.661459 0.3906,0.317732 0.42487,0.305647 0.27412,-0.09667 -0.4347,-1.160108 -0.49429,-3.021281 -0.1252,-3.910334 l 0.38258,-0.921534 0.19318,1.109247 c 0.10625,0.610087 0.36996,1.255957 0.58602,1.435268 0.33742,0.280038 0.36636,0.216883 0.20515,-0.44779 -0.10322,-0.425595 -0.2893,-1.04945 -0.41351,-1.386346 -0.45416,-1.231792 -0.25865,-2.37439 0.56723,-3.315017 0.43619,-0.496793 0.97813,-1.304608 1.2043,-1.795144 l 0.41123,-0.891885 -0.14456,1.283451 c -0.0795,0.705898 -0.34443,1.846177 -0.5887,2.533953 -0.38773,1.091676 -0.40121,1.452806 -0.10612,2.843337 0.45903,2.163056 2.17506,4.001906 2.7964,2.996551 0.42219,-0.683108 0.66906,-0.163252 0.53401,1.124479 l -0.14569,1.389062 0.36181,-1.08577 c 0.199,-0.597174 0.76647,-1.651393 1.26105,-2.342709 0.49458,-0.691317 1.10232,-1.565665 1.35053,-1.942996 0.4226,-0.642434 0.46286,-0.653296 0.63317,-0.170833 0.10003,0.283374 0.59009,0.945693 1.08901,1.471821 0.49892,0.526127 1.07197,1.419096 1.27344,1.984375 l 0.36632,1.027779 0.0116,-0.859896 c 0.0113,-0.836744 0.3427,-1.12986 0.67307,-0.595312 0.62787,1.015912 2.32528,-0.776526 2.78448,-2.940359 0.30048,-1.415934 0.27787,-1.751357 -0.23463,-3.48048 -0.31193,-1.052445 -0.55837,-2.211193 -0.54763,-2.574995 0.0169,-0.572098 0.0841,-0.518481 0.49735,0.396875 0.26279,0.582084 0.79017,1.346978 1.17193,1.699767 0.75127,0.694244 0.85876,1.563223 0.45292,3.661479 -0.1772,0.916108 -0.15314,1.073947 0.1281,0.840534 0.19045,-0.158058 0.3899,-0.606088 0.44323,-0.995621 l 0.097,-0.708242 0.33975,0.79375 c 0.32466,0.758481 0.2723,2.284164 -0.13166,3.836458 -0.16902,0.649494 -0.16407,0.651887 0.27349,0.132292 0.42658,-0.506561 0.44095,-0.469712 0.33623,0.862576 -0.0616,0.783152 -0.29981,1.602154 -0.54485,1.872917 -0.48108,0.531596 -0.58507,0.960081 -0.17087,0.70409 0.14552,-0.08994 0.26458,0.07313 0.26458,0.362361 0,0.571459 -0.64378,1.346233 -1.14337,1.376027 -0.17151,0.01023 -0.10251,0.101422 0.15333,0.202652 0.42715,0.169015 0.43133,0.232358 0.0511,0.775154 -0.22771,0.325104 -0.67516,0.592921 -0.99433,0.59515 -0.43549,0.003 -0.48885,0.06197 -0.21383,0.236144 0.29145,0.18458 0.24632,0.296394 -0.22045,0.546203 -0.87974,0.470822 -1.60018,-0.286632 -1.60485,-1.687302 -0.005,-1.538432 -0.2422,-2.264693 -0.68392,-2.09519 -0.28289,0.108555 -0.3708,0.753159 -0.3708,2.71881 0,2.877523 0.28538,3.444902 1.74063,3.460644 l 0.77291,0.0084 -0.68317,0.60219 c -0.92911,0.818966 -2.75424,3.547177 -3.67381,5.491606 l -0.75633,1.59925 -0.18797,-1.755214 c -0.10338,-0.965367 -0.13662,-3.087019 -0.0739,-4.71478 0.10892,-2.825053 0.1525,-3.012478 0.95869,-4.123742 0.96475,-1.329823 1.03324,-1.617826 0.38156,-1.604433 -0.58347,0.01199 -1.77666,1.015175 -2.02301,1.700859 -0.17761,0.494359 -0.20224,0.489143 -0.504,-0.106786 -0.41789,-0.82525 -1.59013,-1.679308 -2.14592,-1.563458 -0.37341,0.07783 -0.30687,0.297824 0.42806,1.415078 l 0.8702,1.322916 0.0878,4.828646 c 0.0483,2.655755 -0.0128,4.828646 -0.13572,4.828646 -0.12292,0 -0.42887,-0.578257 -0.67989,-1.285018 z"
       id="path4735"
       inkscape:connector-curvature="0" />
  </g>
</svg>
