<?xml version="1.0" encoding="UTF-8" standalone="no"?>
<!-- Created with Inkscape (http://www.inkscape.org/) -->

<svg
   xmlns:dc="http://purl.org/dc/elements/1.1/"
   xmlns:cc="http://creativecommons.org/ns#"
   xmlns:rdf="http://www.w3.org/1999/02/22-rdf-syntax-ns#"
   xmlns:svg="http://www.w3.org/2000/svg"
   xmlns="http://www.w3.org/2000/svg"
   xmlns:sodipodi="http://sodipodi.sourceforge.net/DTD/sodipodi-0.dtd"
   xmlns:inkscape="http://www.inkscape.org/namespaces/inkscape"
   width="31.75mm"
   height="31.75mm"
   viewBox="0 0 31.75 31.75"
   version="1.1"
   id="svg4682"
   inkscape:version="0.92.4 (5da689c313, 2019-01-14)"
   sodipodi:docname="ranger.svg">
  <defs
     id="defs4676" />
  <sodipodi:namedview
     id="base"
     pagecolor="#ffffff"
     bordercolor="#666666"
     borderopacity="1.0"
     inkscape:pageopacity="0.0"
     inkscape:pageshadow="2"
     inkscape:zoom="5.6"
     inkscape:cx="99.075628"
     inkscape:cy="60.420157"
     inkscape:document-units="mm"
     inkscape:current-layer="layer1"
     showgrid="false"
     inkscape:pagecheckerboard="true"
     inkscape:window-width="1850"
     inkscape:window-height="1016"
     inkscape:window-x="70"
     inkscape:window-y="27"
     inkscape:window-maximized="1" />
  <metadata
     id="metadata4679">
    <rdf:RDF>
      <cc:Work
         rdf:about="">
        <dc:format>image/svg+xml</dc:format>
        <dc:type
           rdf:resource="http://purl.org/dc/dcmitype/StillImage" />
        <dc:title></dc:title>
      </cc:Work>
    </rdf:RDF>
  </metadata>
  <g
     inkscape:label="Layer 1"
     inkscape:groupmode="layer"
     id="layer1"
     transform="translate(-29.482143,-145.80952)">
    <path
       style="fill:#ffffff;stroke-width:0.26458332;fill-opacity:1"
       d="m 37.70734,175.35375 c -0.272871,-0.50987 -0.256061,-0.79736 0.09587,-1.63966 0.234719,-0.56176 0.368445,-1.17336 0.297168,-1.35911 -0.07128,-0.18574 0.03392,-0.43016 0.233778,-0.54315 0.199855,-0.11299 0.738872,-1.15186 1.197817,-2.30861 0.458944,-1.15675 1.134826,-2.38156 1.50196,-2.72181 0.533676,-0.49459 0.604643,-0.69439 0.353941,-0.99647 -0.464098,-0.5592 1.108658,-2.99283 4.151528,-6.42392 3.580878,-4.03774 6.52561,-9.06943 6.883528,-9.75469 0.254646,-0.48754 0.390733,-1.23129 0.701619,-1.85732 0.326169,0.37798 0.218299,2.85242 -0.208412,5.20426 -0.788589,4.34634 -2.006038,6.21969 -5.649054,8.69248 -1.881207,1.27691 -3.596848,3.31943 -4.952254,5.89579 -1.11756,2.12426 -2.778524,6.35814 -2.778524,7.08259 0,0.45775 -0.882993,1.34789 -1.337079,1.34789 -0.08855,0 -0.309903,-0.27822 -0.491891,-0.61827 z m 14.058674,0.20639 c -0.32342,-0.22653 -0.588038,-0.63615 -0.588038,-0.91027 0,-1.41889 -2.463272,-6.96368 -4.268499,-9.60834 l -1.075501,-1.57561 0.753771,-0.6166 c 0.414574,-0.33913 0.834447,-0.62088 0.933052,-0.62612 0.0986,-0.005 0.599422,0.68211 1.112928,1.52744 0.658104,1.08335 0.886216,1.71832 0.772933,2.15152 -0.117694,0.45006 6.61e-4,0.7363 0.442166,1.06932 0.331584,0.25012 0.752926,0.85951 0.936316,1.35421 0.826957,2.23074 1.331701,3.30213 1.682476,3.5713 0.208286,0.15982 0.299008,0.41953 0.201604,0.57714 -0.0974,0.1576 0.02461,0.70953 0.271142,1.22652 0.385704,0.80883 0.398535,1.03284 0.09197,1.60567 -0.418189,0.78139 -0.491988,0.79618 -1.266317,0.25382 z m -9.258348,-0.7253 c -0.425602,-0.47028 -0.423019,-0.51842 0.04624,-0.86155 0.273366,-0.19989 0.573743,-0.3975 0.667503,-0.43912 0.09376,-0.0416 0.442172,-0.46264 0.774246,-0.93559 0.467592,-0.66594 0.793657,-0.85898 1.445651,-0.85584 0.987003,0.005 1.228816,0.1499 1.83313,1.10036 0.247423,0.38914 0.691157,0.78412 0.986076,0.87772 0.647332,0.20546 0.692335,0.73392 0.104075,1.22213 -0.292578,0.24282 -1.235334,0.36371 -2.919136,0.37433 -2.111725,0.0133 -2.555015,-0.0595 -2.937785,-0.48244 z m -0.442812,-2.09669 c -0.226533,-0.32342 -0.411878,-0.7361 -0.411878,-0.91707 0,-0.41962 0.843048,-2.19938 1.041192,-2.19807 0.181868,0.001 1.075475,2.13044 1.075475,2.56258 0,0.36071 -0.726298,1.1406 -1.062229,1.1406 -0.126875,0 -0.416027,-0.26462 -0.64256,-0.58804 z m 5.58808,0.11062 c -0.244039,-0.26966 -0.443708,-0.59873 -0.443708,-0.73126 0,-0.39387 0.912624,-2.49342 1.084296,-2.4945 0.08704,-5.5e-4 0.378493,0.48741 0.647674,1.08435 0.4367,0.96843 0.448154,1.15852 0.106329,1.76472 -0.498342,0.88378 -0.849776,0.9787 -1.394591,0.37669 z m -4.00058,-2.22729 c -0.596595,-0.85176 -0.508168,-1.63817 0.290995,-2.58793 l 0.702872,-0.83531 0.355461,0.84539 c 0.195503,0.46497 0.355461,1.36751 0.355461,2.00564 0,1.05403 -0.05918,1.16025 -0.646455,1.16025 -0.368093,0 -0.82381,-0.25321 -1.058334,-0.58804 z m 2.145761,0.41165 c -0.28608,-0.28608 -0.19485,-1.7321 0.17656,-2.79851 l 0.344981,-0.99053 0.709369,0.74042 c 0.800234,0.83527 0.905555,1.76884 0.29749,2.63697 -0.397982,0.5682 -1.16521,0.77484 -1.5284,0.41165 z m -4.742256,-11.26684 c -1.566252,-1.46274 -2.266355,-2.75629 -2.97785,-5.50204 -0.549597,-2.12096 -0.843972,-6.08482 -0.467097,-6.66947 0.217582,0.24222 0.453291,1.06806 0.521646,1.35524 0.275622,1.15796 2.960661,5.64185 5.453624,8.55989 0.682987,0.79945 1.241794,1.56617 1.241794,1.70384 0,0.332 -1.670345,1.9416 -2.01487,1.9416 -0.148438,0 -0.939199,-0.62507 -1.757247,-1.38906 z"
       id="path4695"
       inkscape:connector-curvature="0"
       sodipodi:nodetypes="ccccsccsscscssscccsscsccccscccccccsccccccccsscssscsccccscccssssccccscscscssc" />
  </g>
</svg>
