<?xml version="1.0" encoding="UTF-8" standalone="no"?>
<!-- Created with Inkscape (http://www.inkscape.org/) -->

<svg
   xmlns:dc="http://purl.org/dc/elements/1.1/"
   xmlns:cc="http://creativecommons.org/ns#"
   xmlns:rdf="http://www.w3.org/1999/02/22-rdf-syntax-ns#"
   xmlns:svg="http://www.w3.org/2000/svg"
   xmlns="http://www.w3.org/2000/svg"
   xmlns:sodipodi="http://sodipodi.sourceforge.net/DTD/sodipodi-0.dtd"
   xmlns:inkscape="http://www.inkscape.org/namespaces/inkscape"
   width="31.75mm"
   height="31.75mm"
   viewBox="0 0 31.75 31.75"
   version="1.1"
   id="svg933"
   inkscape:version="0.92.4 (5da689c313, 2019-01-14)"
   sodipodi:docname="rogue.svg">
  <defs
     id="defs927" />
  <sodipodi:namedview
     id="base"
     pagecolor="#ffffff"
     bordercolor="#666666"
     borderopacity="1.0"
     inkscape:pageopacity="0.0"
     inkscape:pageshadow="2"
     inkscape:zoom="2.8"
     inkscape:cx="63.453978"
     inkscape:cy="-1.9321534"
     inkscape:document-units="mm"
     inkscape:current-layer="layer1"
     showgrid="false"
     inkscape:pagecheckerboard="true"
     inkscape:window-width="1850"
     inkscape:window-height="1016"
     inkscape:window-x="70"
     inkscape:window-y="27"
     inkscape:window-maximized="1" />
  <metadata
     id="metadata930">
    <rdf:RDF>
      <cc:Work
         rdf:about="">
        <dc:format>image/svg+xml</dc:format>
        <dc:type
           rdf:resource="http://purl.org/dc/dcmitype/StillImage" />
        <dc:title></dc:title>
      </cc:Work>
    </rdf:RDF>
  </metadata>
  <g
     inkscape:label="Layer 1"
     inkscape:groupmode="layer"
     id="layer1"
     transform="translate(-34.773811,-7.4702382)">
    <path
       style="fill:#ffffff;stroke-width:0.26458332;fill-opacity:1"
       d="m 50.811687,36.129212 c -0.08483,-0.555509 -0.278348,-2.617359 -0.430032,-4.58189 -0.151683,-1.964532 -0.430088,-4.973871 -0.618676,-6.687421 -0.283628,-2.577098 -0.282438,-3.165714 0.0069,-3.405834 0.192378,-0.159659 0.349777,-0.586274 0.349777,-0.948034 0,-0.565139 -0.09088,-0.634934 -0.6455,-0.495734 -0.462747,0.116142 -0.856016,-0.01969 -1.389062,-0.479785 l -0.743563,-0.641796 1.504939,0.348495 c 0.827716,0.191673 1.564255,0.289179 1.636753,0.21668 0.0725,-0.0725 0.02036,-0.42498 -0.115875,-0.783292 -0.136231,-0.358313 -0.247692,-1.239039 -0.247692,-1.957171 0,-1.503303 -0.162967,-1.57118 -1.751838,-0.729658 l -1.090381,0.577504 -1.827501,-0.576769 c -1.005126,-0.317223 -1.946644,-0.576769 -2.092263,-0.576769 -0.304115,0 -3.719943,-3.382651 -3.541953,-3.507551 0.333661,-0.23414 4.687965,-1.527968 5.129171,-1.524071 0.282577,0.0025 1.315425,0.480789 2.295216,1.062872 0.979791,0.582084 2.088045,1.058334 2.462786,1.058334 0.719367,0 0.743942,-0.0616 0.788941,-1.977682 0.01901,-0.8093744 0.140217,-1.0745941 0.52615,-1.1512809 0.444653,-0.088354 0.484952,0.023391 0.355768,0.9865219 -0.328901,2.452144 0.316248,2.684498 3.010105,1.084107 0.979791,-0.582083 1.998748,-1.058848 2.264348,-1.059477 0.657017,-0.0016 5.103588,1.413904 5.108882,1.626291 0.0097,0.38945 -3.254196,3.147594 -3.911589,3.305466 -0.392911,0.09436 -1.156125,0.392789 -1.69603,0.663181 -1.25465,0.628346 -1.980863,0.6192 -3.059644,-0.03853 -0.47646,-0.290498 -0.963171,-0.528178 -1.081581,-0.528178 -0.11841,0 -0.234234,0.565547 -0.257388,1.256771 -0.02315,0.691224 -0.111449,1.584193 -0.196212,1.984375 -0.13346,0.630087 -0.07128,0.727604 0.463967,0.727604 0.339945,0 1.004249,-0.110751 1.476231,-0.246114 0.961572,-0.275775 1.098535,-0.05345 0.372079,0.603987 -0.343762,0.3111 -0.731076,0.390886 -1.322916,0.272517 -0.74504,-0.149007 -0.836848,-0.100717 -0.836848,0.440183 0,0.334154 0.169209,0.795521 0.37602,1.02526 0.306228,0.340178 0.329612,0.830669 0.125987,2.642598 -0.137519,1.223689 -0.41632,4.597578 -0.619559,7.497532 -0.203239,2.899953 -0.426706,5.329823 -0.496593,5.39971 -0.06989,0.06989 -0.196477,-0.327438 -0.281312,-0.882949 z m -2.61656,-21.689864 c 0.127281,-0.388081 -1.122296,-1.560148 -2.091194,-1.961478 -1.073695,-0.44474 -2.069705,-0.123536 -2.069705,0.66746 0,0.524635 0.246687,0.73378 1.389062,1.177664 1.476612,0.573755 2.606268,0.621175 2.771837,0.116354 z m 8.06326,-0.148786 c 1.499755,-0.429798 1.630657,-0.543269 1.414047,-1.225746 -0.211583,-0.666639 -1.495618,-0.973266 -2.31175,-0.552045 -1.002379,0.517345 -1.801456,1.365805 -1.801456,1.912784 0,0.564878 0.311338,0.549307 2.699159,-0.134993 z"
       id="path946"
       inkscape:connector-curvature="0" />
  </g>
</svg>
