<?xml version="1.0" encoding="UTF-8" standalone="no"?>
<!-- Created with Inkscape (http://www.inkscape.org/) -->

<svg
   xmlns:dc="http://purl.org/dc/elements/1.1/"
   xmlns:cc="http://creativecommons.org/ns#"
   xmlns:rdf="http://www.w3.org/1999/02/22-rdf-syntax-ns#"
   xmlns:svg="http://www.w3.org/2000/svg"
   xmlns="http://www.w3.org/2000/svg"
   xmlns:sodipodi="http://sodipodi.sourceforge.net/DTD/sodipodi-0.dtd"
   xmlns:inkscape="http://www.inkscape.org/namespaces/inkscape"
   width="31.75mm"
   height="31.75mm"
   viewBox="0 0 31.75 31.75"
   version="1.1"
   id="svg8"
   inkscape:version="0.92.4 (5da689c313, 2019-01-14)"
   sodipodi:docname="barbarian.svg">
  <defs
     id="defs2" />
  <sodipodi:namedview
     id="base"
     pagecolor="#ffffff"
     bordercolor="#666666"
     borderopacity="1.0"
     inkscape:pageopacity="0.0"
     inkscape:pageshadow="2"
     inkscape:zoom="3.959798"
     inkscape:cx="53.207161"
     inkscape:cy="36.209005"
     inkscape:document-units="mm"
     inkscape:current-layer="layer1"
     showgrid="false"
     inkscape:pagecheckerboard="true"
     inkscape:window-width="1850"
     inkscape:window-height="1016"
     inkscape:window-x="70"
     inkscape:window-y="27"
     inkscape:window-maximized="1" />
  <metadata
     id="metadata5">
    <rdf:RDF>
      <cc:Work
         rdf:about="">
        <dc:format>image/svg+xml</dc:format>
        <dc:type
           rdf:resource="http://purl.org/dc/dcmitype/StillImage" />
        <dc:title></dc:title>
      </cc:Work>
    </rdf:RDF>
  </metadata>
  <g
     inkscape:label="Layer 1"
     inkscape:groupmode="layer"
     id="layer1"
     transform="translate(46.113094,-135.98215)">
    <path
       style="fill:#ffffff;stroke-width:0.26458332;fill-opacity:1"
       d="m -30.978927,165.82715 c -0.595848,-0.59585 -0.31857,-0.87313 0.873125,-0.87313 0.655158,0 1.190625,0.12495 1.190625,0.27782 0,0.4555 -0.596493,0.91281 -1.190625,0.91281 -0.305594,0 -0.6985,-0.14288 -0.873125,-0.3175 z m 0.242428,-1.43698 c -0.520364,-0.36448 -0.559796,-0.6295 -0.558047,-3.75063 0.001,-1.84714 0.07648,-4.14816 0.167658,-5.11339 l 0.165778,-1.75496 0.824529,0.0352 c 1.086284,0.0463 1.168377,0.45352 1.208771,5.99556 l 0.03205,4.39686 -0.640403,0.29179 c -0.499427,0.22755 -0.763664,0.20545 -1.200332,-0.1004 z m -5.743468,-8.08395 c -2.193054,-2.352 -2.347721,-3.16587 -0.896803,-4.71908 0.442334,-0.47352 0.762398,-0.9028 0.711255,-0.95394 -0.05114,-0.0511 -0.645813,0.2576 -1.321487,0.6861 l -1.228497,0.77909 -0.277971,-0.98051 c -0.502896,-1.77393 -0.60406,-3.89255 -0.278136,-5.82485 l 0.320906,-1.90255 h 1.350914 1.350914 l -0.871888,-0.89956 c -1.068138,-1.10204 -0.99448,-1.42744 0.758918,-3.3527 l 1.308061,-1.43628 0.01201,1.06008 c 0.02615,2.30801 0.76814,3.5193 2.507409,4.09331 0.665632,0.21968 0.914448,0.49895 1.130029,1.26833 l 0.276452,0.98661 0.03343,-1.04094 c 0.04021,-1.25193 0.988188,-3.32468 1.52055,-3.32468 0.209867,0 0.455468,0.20836 0.545781,0.46302 0.09031,0.25466 0.344197,0.67253 0.564188,0.9286 0.27041,0.31476 0.393379,1.00045 0.379594,2.11667 l -0.02039,1.65108 0.217811,-1.24346 c 0.276894,-1.58077 0.357464,-1.69858 1.289069,-1.8849 0.423506,-0.0847 1.103929,-0.44122 1.51205,-0.79227 0.64416,-0.55409 0.756783,-0.86983 0.853817,-2.39372 0.06148,-0.96549 0.187204,-1.75499 0.279392,-1.75445 0.259381,0.002 2.557972,2.93914 3.042636,3.8885 0.429746,0.84179 1.214637,3.79689 1.22211,4.60122 0.0028,0.29664 -0.436835,0.51956 -1.488783,0.75497 -1.619119,0.36234 -1.543736,0.65129 0.248933,0.95416 0.558812,0.0944 1.080845,0.34058 1.160072,0.54704 0.197598,0.51493 -0.344053,2.58551 -1.127547,4.31031 -0.579451,1.27561 -2.67325,4.2125 -3.026305,4.24488 -0.07507,0.007 -0.152757,-0.69475 -0.172629,-1.55919 -0.04137,-1.79974 -0.909633,-3.66339 -1.794816,-3.85241 -1.428868,-0.30513 -1.672177,-0.24423 -2.378826,0.59547 -0.912908,1.0848 -1.575695,1.08633 -2.584891,0.006 -0.62954,-0.67392 -0.97259,-0.83591 -1.627508,-0.76851 -1.521614,0.1566 -2.331846,1.41669 -2.542942,3.95483 l -0.138972,1.67094 z"
       id="path826"
       inkscape:connector-curvature="0" />
  </g>
</svg>
