<?xml version="1.0" encoding="UTF-8" standalone="no"?>
<!-- Created with Inkscape (http://www.inkscape.org/) -->

<svg
   xmlns:dc="http://purl.org/dc/elements/1.1/"
   xmlns:cc="http://creativecommons.org/ns#"
   xmlns:rdf="http://www.w3.org/1999/02/22-rdf-syntax-ns#"
   xmlns:svg="http://www.w3.org/2000/svg"
   xmlns="http://www.w3.org/2000/svg"
   xmlns:sodipodi="http://sodipodi.sourceforge.net/DTD/sodipodi-0.dtd"
   xmlns:inkscape="http://www.inkscape.org/namespaces/inkscape"
   width="31.75mm"
   height="31.75mm"
   viewBox="0 0 31.75 31.75"
   version="1.1"
   id="svg4762"
   inkscape:version="0.92.4 (5da689c313, 2019-01-14)"
   sodipodi:docname="druid.svg">
  <defs
     id="defs4756" />
  <sodipodi:namedview
     id="base"
     pagecolor="#ffffff"
     bordercolor="#666666"
     borderopacity="1.0"
     inkscape:pageopacity="0.0"
     inkscape:pageshadow="2"
     inkscape:zoom="2.8"
     inkscape:cx="60.812952"
     inkscape:cy="19.719437"
     inkscape:document-units="mm"
     inkscape:current-layer="layer1"
     showgrid="false"
     inkscape:pagecheckerboard="true"
     inkscape:window-width="1850"
     inkscape:window-height="1016"
     inkscape:window-x="70"
     inkscape:window-y="27"
     inkscape:window-maximized="1" />
  <metadata
     id="metadata4759">
    <rdf:RDF>
      <cc:Work
         rdf:about="">
        <dc:format>image/svg+xml</dc:format>
        <dc:type
           rdf:resource="http://purl.org/dc/dcmitype/StillImage" />
        <dc:title></dc:title>
      </cc:Work>
    </rdf:RDF>
  </metadata>
  <g
     inkscape:label="Layer 1"
     inkscape:groupmode="layer"
     id="layer1"
     transform="translate(-40.065475,-119.35119)">
    <path
       style="fill:#ffffff;stroke-width:0.26458332;fill-opacity:1"
       d="m 53.605346,148.90133 c -0.674103,-0.71755 -0.78382,-2.23464 -0.178413,-2.46696 0.764539,-0.29338 0.431115,-1.32113 -0.771177,-2.37709 -2.489856,-2.1868 -2.896794,-2.49513 -3.489532,-2.64389 -0.336808,-0.0845 -0.765266,-0.33792 -0.952131,-0.56308 -0.280981,-0.33856 -0.264246,-0.45701 0.09674,-0.68471 0.387606,-0.2445 0.35036,-0.35579 -0.332556,-0.99373 -0.829827,-0.77518 -1.011873,-1.75244 -0.372175,-1.99792 0.223314,-0.0857 0.396875,-0.4795 0.396875,-0.90051 0,-2.11598 1.245174,-2.8414 2.034833,-1.18547 0.295692,0.62007 0.534456,0.84071 0.732197,0.67659 0.55432,-0.46004 1.052795,0.17478 1.008546,1.28441 -0.03283,0.82314 0.04262,1.02727 0.337808,0.914 0.515794,-0.19793 0.807141,0.65359 0.430161,1.25723 -0.246969,0.39546 -0.230357,0.45666 0.09053,0.33352 0.518868,-0.19911 0.531491,0.78441 0.01556,1.21259 -0.298773,0.24796 -0.318345,0.48908 -0.0939,1.15688 0.300714,0.89473 0.692506,1.50484 0.966761,1.50546 0.09132,2.1e-4 0.127211,-1.59845 0.07975,-3.55258 -0.08436,-3.4734 -0.07251,-3.56184 0.529166,-3.94976 0.3385,-0.21824 0.91311,-0.33786 1.276912,-0.26581 l 0.661459,0.13099 -0.056,3.79701 c -0.0308,2.08836 0.0385,4.31265 0.154008,4.94287 l 0.210007,1.14586 0.496647,-1.00548 c 0.404531,-0.81899 0.437309,-1.1005 0.176721,-1.51776 -0.385246,-0.61688 -0.418099,-1.31322 -0.06196,-1.31322 0.145521,0 0.18877,-0.34599 0.09922,-0.79375 -0.136899,-0.6845 -0.08067,-0.79375 0.408531,-0.79375 0.467127,0 0.539062,-0.11243 0.40745,-0.63681 -0.223204,-0.88932 0.313336,-1.81215 0.938274,-1.6138 0.338072,0.1073 0.541827,-0.002 0.652099,-0.34927 0.08821,-0.27793 0.393237,-0.71606 0.677834,-0.97361 0.712491,-0.6448 1.244068,-0.16373 1.467821,1.32837 0.09495,0.63315 0.338908,1.21499 0.542134,1.29297 0.60223,0.2311 0.422764,1.20418 -0.367911,1.99486 -0.554854,0.55485 -0.673281,0.83908 -0.478364,1.14809 0.349452,0.554 -0.243407,1.24879 -1.065577,1.24879 -0.345984,0 -0.629061,0.15667 -0.629061,0.34815 0,0.19149 -0.506016,0.6255 -1.12448,0.96448 -1.283172,0.7033 -2.315104,1.57047 -2.315104,1.94546 0,0.36374 -0.844109,0.95688 -1.375915,0.96683 -0.24743,0.005 -0.571232,-0.19995 -0.719558,-0.45461 -0.251286,-0.43143 -0.270234,-0.43207 -0.277731,-0.009 -0.01148,0.64737 0.917517,1.09117 1.56206,0.74622 0.70149,-0.37542 0.811144,-0.34807 0.811144,0.20236 0,1.19346 -1.649775,1.51005 -2.599712,0.49889 z m 0.703532,-14.14445 c -0.04851,-0.1126 -0.800049,-0.68698 -1.670092,-1.2764 -1.14595,-0.77634 -1.76573,-1.42927 -2.248959,-2.36926 -1.90209,-3.70002 0.53852,-8.52226 4.964432,-9.80891 2.882506,-0.83797 7.569973,-0.0265 8.967871,1.55255 0.473046,0.53433 0.469751,0.54149 -0.179572,0.39026 -3.09829,-0.72158 -3.971066,-0.79952 -5.908466,-0.52766 -2.566135,0.36009 -4.245395,1.17319 -5.22998,2.53237 -1.773109,2.44771 -1.618935,4.49854 0.486437,6.47063 0.660263,0.61846 1.415045,1.12448 1.677295,1.12448 0.648348,0 0.800275,0.3248 0.606087,1.29574 -0.12632,0.6316 -0.304021,0.82093 -0.770522,0.82093 -0.333485,0 -0.646024,-0.0921 -0.694531,-0.20473 z"
       id="path4775"
       inkscape:connector-curvature="0" />
  </g>
</svg>
