<?xml version="1.0" encoding="UTF-8" standalone="no"?>
<!-- Created with Inkscape (http://www.inkscape.org/) -->

<svg
   xmlns:dc="http://purl.org/dc/elements/1.1/"
   xmlns:cc="http://creativecommons.org/ns#"
   xmlns:rdf="http://www.w3.org/1999/02/22-rdf-syntax-ns#"
   xmlns:svg="http://www.w3.org/2000/svg"
   xmlns="http://www.w3.org/2000/svg"
   xmlns:sodipodi="http://sodipodi.sourceforge.net/DTD/sodipodi-0.dtd"
   xmlns:inkscape="http://www.inkscape.org/namespaces/inkscape"
   width="31.75mm"
   height="29.633333mm"
   viewBox="0 0 31.75 29.633333"
   version="1.1"
   id="svg853"
   inkscape:version="0.92.4 (5da689c313, 2019-01-14)"
   sodipodi:docname="fighter.svg">
  <defs
     id="defs847" />
  <sodipodi:namedview
     id="base"
     pagecolor="#ffffff"
     bordercolor="#666666"
     borderopacity="1.0"
     inkscape:pageopacity="0.0"
     inkscape:pageshadow="2"
     inkscape:zoom="2.8"
     inkscape:cx="117.28286"
     inkscape:cy="7.6971239"
     inkscape:document-units="mm"
     inkscape:current-layer="layer1"
     showgrid="false"
     inkscape:pagecheckerboard="true"
     inkscape:window-width="1850"
     inkscape:window-height="1016"
     inkscape:window-x="70"
     inkscape:window-y="27"
     inkscape:window-maximized="1" />
  <metadata
     id="metadata850">
    <rdf:RDF>
      <cc:Work
         rdf:about="">
        <dc:format>image/svg+xml</dc:format>
        <dc:type
           rdf:resource="http://purl.org/dc/dcmitype/StillImage" />
        <dc:title></dc:title>
      </cc:Work>
    </rdf:RDF>
  </metadata>
  <g
     inkscape:label="Layer 1"
     inkscape:groupmode="layer"
     id="layer1"
     transform="translate(230.56548,-45.57024)">
    <path
       style="fill:#ffffff;stroke-width:0.26458332;fill-opacity:1"
       d="m -217.44426,70.311954 -2.01957,-1.855256 0.005,-7.901784 0.005,-7.901784 0.61467,0.402747 c 1.01857,0.667392 2.2964,0.677998 2.94991,0.02448 0.39345,-0.39345 0.46487,-0.39345 0.89963,0 0.58936,0.533367 2.14537,0.554785 2.82741,0.03892 0.28247,-0.213653 0.6095,-0.392247 0.72672,-0.396875 0.11723,-0.0046 0.17676,3.502582 0.13229,7.7938 l -0.0808,7.802213 -2.02075,1.924396 -2.02076,1.924394 z m 12.0142,0.731137 c -0.50933,-0.350868 -1.90831,-1.596558 -3.10886,-2.768201 -1.83374,-1.789596 -2.18085,-2.262725 -2.17056,-2.958601 0.0121,-0.817069 0.0393,-0.799538 1.99798,1.288326 2.68912,2.866434 4.43677,4.890051 4.31127,4.992052 -0.0571,0.0464 -0.52051,-0.202709 -1.02983,-0.553576 z m -21.59959,0.06093 c -0.24131,-0.628855 0.58091,-1.414539 1.0204,-0.975052 0.23501,0.235017 0.2488,0.45012 0.0491,0.766663 -0.39576,0.627409 -0.87305,0.720404 -1.06953,0.208389 z m 1.31736,-1.337417 c -0.10758,-0.280348 0.68768,-1.241962 2.51633,-3.042708 1.4705,-1.448051 2.73564,-2.63282 2.81143,-2.63282 0.0758,0 0.1378,0.276981 0.1378,0.615513 0,0.432723 -0.75334,1.336322 -2.53672,3.042708 -1.3952,1.334958 -2.58956,2.427196 -2.65414,2.427196 -0.0646,0 -0.18819,-0.18445 -0.2747,-0.409889 z m 17.63639,-10.841486 c 0,-0.09599 0.23813,-0.477262 0.52917,-0.847261 1.00107,-1.272656 0.54517,-3.312544 -1.03807,-4.644751 l -0.79249,-0.666836 1.29782,-1.21396 c 1.30687,-1.222416 2.30875,-1.436583 1.98765,-0.424887 -0.26474,0.834125 2.16308,2.371425 3.75685,2.378844 1.10038,0.0051 -1.93901,3.896268 -3.77289,4.830199 -1.03065,0.524871 -1.96804,0.805249 -1.96804,0.588652 z m -13.29532,-2.861996 c -1.12035,-0.943506 -1.2289,-1.232462 -0.46301,-1.232462 0.35278,0 0.52917,-0.176389 0.52917,-0.529167 0,-0.291042 0.11487,-0.529167 0.25527,-0.529167 0.45707,0 0.83434,1.05529 0.75163,2.102467 l -0.0809,1.023917 z m -3.63801,-0.624554 c 0,-0.102213 0.38632,-0.584425 0.85849,-1.071583 l 0.8585,-0.885741 -2.02031,-1.94324 c -1.827,-1.757302 -1.98097,-1.982579 -1.60916,-2.354385 0.3718,-0.371806 0.59492,-0.216247 2.33181,1.62576 l 1.92066,2.036906 0.89312,-0.859896 c 0.49122,-0.472943 0.97675,-0.859896 1.07897,-0.859896 0.3912,0 0.16042,0.597263 -0.40948,1.059692 -0.40176,0.326007 -0.59531,0.769895 -0.59531,1.365327 0,0.823586 -0.0587,0.882273 -0.88227,0.882273 -0.59543,0 -1.03932,0.193544 -1.36533,0.595312 -0.46243,0.569893 -1.05969,0.800679 -1.05969,0.409471 z m 14.2875,-0.36776 c 0,-0.874635 1.04584,-1.898663 1.59159,-1.558396 0.32266,0.201174 0.21564,0.42259 -0.5994,1.240183 -0.98154,0.984602 -0.99219,0.988018 -0.99219,0.318213 z"
       id="path866"
       inkscape:connector-curvature="0" />
  </g>
</svg>
