<?xml version="1.0" encoding="UTF-8" standalone="no"?>
<!-- Created with Inkscape (http://www.inkscape.org/) -->

<svg
   xmlns:dc="http://purl.org/dc/elements/1.1/"
   xmlns:cc="http://creativecommons.org/ns#"
   xmlns:rdf="http://www.w3.org/1999/02/22-rdf-syntax-ns#"
   xmlns:svg="http://www.w3.org/2000/svg"
   xmlns="http://www.w3.org/2000/svg"
   xmlns:sodipodi="http://sodipodi.sourceforge.net/DTD/sodipodi-0.dtd"
   xmlns:inkscape="http://www.inkscape.org/namespaces/inkscape"
   width="135.46666mm"
   height="135.46666mm"
   viewBox="0 0 135.46666 135.46666"
   version="1.1"
   id="svg8"
   inkscape:version="0.92.4 (5da689c313, 2019-01-14)"
   sodipodi:docname="christmas.svg">
  <defs
     id="defs2">
    <filter
       style="color-interpolation-filters:sRGB;"
       inkscape:label="Blur"
       id="filter2423">
      <feGaussianBlur
         stdDeviation="4 4"
         result="blur"
         id="feGaussianBlur2421" />
    </filter>
    <filter
       style="color-interpolation-filters:sRGB;"
       inkscape:label="Blur"
       id="filter2427">
      <feGaussianBlur
         stdDeviation="4 4"
         result="blur"
         id="feGaussianBlur2425" />
    </filter>
    <filter
       style="color-interpolation-filters:sRGB;"
       inkscape:label="Blur"
       id="filter2431">
      <feGaussianBlur
         stdDeviation="4 4"
         result="blur"
         id="feGaussianBlur2429" />
    </filter>
    <filter
       style="color-interpolation-filters:sRGB;"
       inkscape:label="Blur"
       id="filter2435">
      <feGaussianBlur
         stdDeviation="4 4"
         result="blur"
         id="feGaussianBlur2433" />
    </filter>
  </defs>
  <sodipodi:namedview
     id="base"
     pagecolor="#ffffff"
     bordercolor="#666666"
     borderopacity="1.0"
     inkscape:pageopacity="0.0"
     inkscape:pageshadow="2"
     inkscape:zoom="0.98994949"
     inkscape:cx="24.653818"
     inkscape:cy="148.37234"
     inkscape:document-units="mm"
     inkscape:current-layer="layer1"
     showgrid="false"
     inkscape:pagecheckerboard="true"
     inkscape:window-width="1850"
     inkscape:window-height="1016"
     inkscape:window-x="70"
     inkscape:window-y="27"
     inkscape:window-maximized="1" />
  <metadata
     id="metadata5">
    <rdf:RDF>
      <cc:Work
         rdf:about="">
        <dc:format>image/svg+xml</dc:format>
        <dc:type
           rdf:resource="http://purl.org/dc/dcmitype/StillImage" />
        <dc:title />
      </cc:Work>
    </rdf:RDF>
  </metadata>
  <g
     inkscape:label="Layer 1"
     inkscape:groupmode="layer"
     id="layer1"
     transform="translate(-13.15357,-21.379763)">
    <g
       id="g951"
       transform="matrix(0.11767461,0,0,0.11767461,17.235712,28.561305)"
       style="filter:url(#filter2435)">
      <path
         id="path934"
         d="M 0,0 H 512 V 512 H 0 Z"
         inkscape:connector-curvature="0"
         style="fill:#006aff;fill-opacity:0" />
      <g
         id="g938"
         class="">
        <path
           id="path936"
           d="m 249.28,19.188 v 0.25 c -18.114,38.634 -45.065,72.36 -77.686,102.937 l 37.72,-3.938 -51.345,65.032 24.81,-7.907 -33.624,54.875 16.53,9.843 -65.25,92.157 36.095,0.188 -51.686,83.594 63.562,-8.126 12,32.094 66.438,-25.282 -11.344,78.375 h 52.938 l -6.532,-68.217 38.188,16.406 10.187,-24.783 44.283,20.97 56.406,-20.75 -37.064,-64.094 -12.437,-2.282 6.78,17.19 7.844,19.905 -19.938,-7.78 -50.906,-19.908 v 35.751 l -14.156,-8.594 -69.375,-42 -21.595,21.25 -18.03,17.75 2.155,-25.22 2.125,-24.655 18.188,1.56 9.218,-9.092 5.19,-5.094 6.218,3.75 61.375,37.156 v -29.906 l 12.75,4.97 43.718,17.092 -5.092,-12.906 -6.157,-15.656 16.533,3.03 45.468,8.345 -34.53,-38.94 -23.625,14.033 -6.688,3.968 -5.125,-5.874 -14.28,-16.437 0.218,1.217 -18.406,3.22 -5.97,-34.313 -5.75,-33.063 22,25.345 31.188,35.875 43.907,-26.03 c -24.67,-19.543 -39.507,-33.87 -49.658,-48.814 l 0.813,12.656 1.97,31 -18.75,-24.75 -34.47,-45.437 -22.25,46.813 -13.844,29.125 -3.843,-32.032 -3.5,-28.843 16.532,-1.968 16.624,-34.97 6.594,-13.875 9.28,12.22 25,32.936 -0.75,-11.53 -0.906,-14.28 13.47,4.936 22.777,8.344 -26.125,-35.156 -55.843,-28.875 -8.938,20.218 -9.656,21.937 -7.72,-22.688 -7.468,-21.875 16.97,-5.78 3.718,-8.438 4,-9.125 8.844,4.593 49.375,25.53 16.467,-5.562 C 282.014,88.469 260.804,53.893 249.278,19.186 Z"
           inkscape:connector-curvature="0"
           style="fill:#ffffff;fill-opacity:0.2745098" />
      </g>
    </g>
    <g
       id="g970"
       transform="matrix(0.1110305,0,0,0.1110305,88.8244,95.68987)"
       style="filter:url(#filter2431)">
      <path
         id="path953"
         d="M 0,0 H 512 V 512 H 0 Z"
         inkscape:connector-curvature="0"
         style="fill:#006aff;fill-opacity:0" />
      <g
         id="g957"
         class="">
        <path
           id="path955"
           d="m 149.518,78.38 c -6.55,0.117 -12.45,1.736 -17.35,4.91 -7.465,4.84 -11.765,12.904 -13.063,21.34 -2.595,16.874 4.747,36.355 19.862,52.31 C 154.08,172.893 177.643,185 208,185 h 2.438 l -9.118,-18.234 c -22.194,-1.554 -38.46,-10.777 -49.287,-22.205 -11.885,-12.545 -16.543,-28.064 -15.138,-37.19 0.702,-4.564 2.402,-7.25 5.062,-8.974 2.66,-1.724 7.113,-2.875 14.756,-1.326 13.078,2.65 34.233,13.948 62.205,39.284 L 220.27,135 h 23.408 c -35.31,-34.8 -62.215,-51.278 -83.39,-55.57 -2.715,-0.55 -5.363,-0.887 -7.925,-1.006 -0.96,-0.045 -1.91,-0.06 -2.845,-0.043 z m 212.964,0 c -0.935,-0.016 -1.885,0 -2.845,0.044 -2.562,0.12 -5.21,0.455 -7.924,1.006 -21.176,4.292 -48.082,20.77 -83.39,55.57 h 23.406 l 1.352,1.354 c 27.972,-25.336 49.127,-36.633 62.205,-39.284 7.643,-1.55 12.096,-0.398 14.756,1.326 2.66,1.725 4.36,4.41 5.062,8.973 1.405,9.126 -3.253,24.645 -15.138,37.19 -10.827,11.43 -27.093,20.652 -49.287,22.206 L 301.562,185 H 304 c 30.357,0 53.92,-12.106 69.033,-28.06 15.115,-15.955 22.457,-35.436 19.862,-52.31 -1.298,-8.436 -5.598,-16.5 -13.063,-21.34 -4.9,-3.174 -10.8,-4.793 -17.35,-4.91 z M 227.73,153 218.95,161.777 229.564,183 h 52.875 l 10.61,-21.223 -8.777,-8.777 h -56.54 z M 73,201 v 46 h 142 v -46 z m 160,0 v 270 h 46 V 201 Z m 64,0 v 46 H 439 V 201 Z M 105,265 V 471 H 215 V 265 Z m 192,0 V 471 H 407 V 265 Z"
           inkscape:connector-curvature="0"
           style="fill:#ffffff;fill-opacity:0.27450982" />
      </g>
    </g>
    <g
       id="g1037"
       transform="matrix(0.11545991,0,0,0.11545991,21.015473,92.514874)"
       style="filter:url(#filter2427)">
      <path
         id="path1020"
         d="M 0,0 H 512 V 512 H 0 Z"
         inkscape:connector-curvature="0"
         style="fill:#006aff;fill-opacity:0" />
      <g
         id="g1024"
         class="">
        <path
           id="path1022"
           d="M 165.98,13.443 99.3,79.56 l 65.01,65.56 66.678,-66.114 -65.01,-65.563 z m 100.62,56.57 -109.485,108.56 11.514,11.61 109.487,-108.557 -11.513,-11.61 z m 4.21,45.17 -83.68,82.975 c 0.983,44.08 36.834,79.322 81.157,79.322 26.4,0 49.786,-12.513 64.595,-31.943 -11.34,1.815 -22.184,2.067 -31.713,0.05 l 3.873,-18.284 c 9.668,2.047 26.2,0.5 42.63,-4.29 9.783,-2.85 19.46,-6.867 28.116,-11.408 -9.952,-2.903 -20.513,-5.278 -30.722,-6.597 -16.738,-2.163 -32.428,-1.36 -41.052,2.12 l -6.993,-17.33 c 7.08,-2.858 15.064,-4.287 23.59,-4.702 8.527,-0.416 17.597,0.18 26.85,1.377 0.477,0.06 0.956,0.132 1.433,0.197 -4.646,-39.556 -37.554,-70.256 -78.084,-71.486 z m 37.422,30.014 c 7.53,0 13.63,6.1 13.63,13.63 0,7.528 -6.1,13.63 -13.63,13.63 -7.528,0 -13.63,-6.102 -13.63,-13.63 0,-7.53 6.102,-13.63 13.63,-13.63 z m -55.75,35.102 c 7.53,0 13.63,6.1 13.63,13.63 0,7.528 -6.1,13.63 -13.63,13.63 -7.528,0 -13.63,-6.102 -13.63,-13.63 0,-7.53 6.102,-13.63 13.63,-13.63 z m -162.152,3.284 -18.402,3.264 12.379,69.753 -10.743,3.99 -30.808,-36.97 -14.358,11.964 39.276,47.13 41.51,-15.42 40.95,40.267 c -11.72,18.687 -18.505,40.798 -18.505,64.532 0,67.2 54.275,121.476 121.474,121.476 67.2,0 121.476,-54.277 121.476,-121.476 0,-23.558 -6.68,-45.52 -18.24,-64.12 l 37.805,-37.173 29.408,10.923 55.234,46.445 12.027,-14.303 -45.98,-38.664 30.096,-36.112 -14.358,-11.965 -30.806,36.97 -40.252,-14.95 -44.35,43.61 c -5.188,-6.018 -10.956,-11.52 -17.22,-16.42 -16.66,12.453 -37.316,19.837 -59.655,19.837 -28.506,0 -54.268,-12.024 -72.485,-31.26 -13.11,7.01 -24.775,16.355 -34.446,27.48 l -47.544,-46.75 -11.703,4.346 -11.78,-66.402 z M 306.17,346.31 c 7.53,0 13.63,6.1 13.63,13.63 0,7.528 -6.1,13.63 -13.63,13.63 -7.53,0 -13.63,-6.102 -13.63,-13.63 0,-7.53 6.1,-13.63 13.63,-13.63 z m -1.65,54.512 c 7.528,0 13.628,6.1 13.628,13.63 0,7.528 -6.1,13.628 -13.628,13.628 -7.53,0 -13.63,-6.1 -13.63,-13.63 0,-7.528 6.1,-13.628 13.63,-13.628 z M 288,444.596 c 7.53,0 13.63,6.1 13.63,13.63 0,7.527 -6.1,13.63 -13.63,13.63 -7.53,0 -13.63,-6.103 -13.63,-13.63 0,-7.53 6.1,-13.63 13.63,-13.63 z"
           inkscape:connector-curvature="0"
           style="fill:#ffffff;fill-opacity:0.27450982" />
      </g>
    </g>
    <g
       id="g1056"
       transform="matrix(0.10069522,0,0,0.10069522,90.563099,31.660708)"
       style="filter:url(#filter2423)">
      <path
         id="path1039"
         d="M 0,0 H 512 V 512 H 0 Z"
         inkscape:connector-curvature="0"
         style="fill:#006aff;fill-opacity:0" />
      <g
         id="g1043"
         class="">
        <path
           id="path1041"
           d="m 308.375,15.094 -65.438,21.436 -14.156,67.376 38.814,34.78 c -12.68,-1.094 -25.17,-0.08 -37.063,2.783 l 12.157,37.093 c -6.177,1.23 -12.12,3.2 -17.75,5.843 l -12.156,-37.094 c -11.5,4.83 -22.173,11.465 -31.56,19.657 L 191.937,116 140.687,70.062 75.25,91.47 l -14.156,67.374 51.25,45.937 49.594,-16.218 c -6.804,9.87 -12.145,20.955 -15.688,32.97 l 38.25,8.062 c -0.99,2.92 -1.85,5.905 -2.5,9 -0.652,3.102 -1.105,6.2 -1.375,9.28 l -38.25,-8.06 c -1.646,12.762 -1.132,25.392 1.28,37.467 l -39.155,-35.125 -65.438,21.438 -14.156,67.344 51.25,45.968 65.438,-21.406 10.844,-51.656 c 5.296,11.288 12.385,21.69 20.968,30.75 L 199.47,305.5 c 4.08,4.677 8.726,8.89 13.874,12.5 l -26.03,29.063 c 9.615,7.326 20.49,13.246 32.374,17.343 l -49.657,16.25 -14.155,67.375 51.25,45.97 65.438,-21.438 14.156,-67.343 -38.845,-34.845 c 12.66,1.094 25.125,0.073 37,-2.78 L 272.75,330.56 c 6.182,-1.218 12.147,-3.18 17.78,-5.812 l 12.126,37.03 c 11.548,-4.842 22.237,-11.517 31.656,-19.75 l -10.75,51.064 51.282,45.937 65.406,-21.405 14.156,-67.375 -51.25,-45.938 -49.72,16.282 c 6.843,-9.905 12.23,-21.002 15.783,-33.063 l -38.126,-8.03 c 0.99,-2.92 1.85,-5.938 2.5,-9.03 0.65,-3.1 1.074,-6.175 1.344,-9.25 l 38.125,8.03 c 1.64,-12.78 1.107,-25.415 -1.313,-37.5 l 39.28,35.188 65.411,-21.438 14.187,-67.344 -51.28,-45.97 -65.408,21.408 -10.875,51.687 c -5.302,-11.317 -12.418,-21.733 -21.03,-30.81 l -26,29.03 c -4.098,-4.682 -8.77,-8.892 -13.938,-12.5 l 26.03,-29.03 c -9.6,-7.307 -20.46,-13.188 -32.312,-17.282 l 49.657,-16.25 14.155,-67.375 -51.25,-45.97 z m -64,189.375 49.906,13.374 13.376,49.906 -36.53,36.53 L 221.22,290.905 207.843,241 l 36.53,-36.53 z"
           inkscape:connector-curvature="0"
           style="fill:#ffffff;fill-opacity:0.27450982" />
      </g>
    </g>
  </g>
</svg>
