<?xml version="1.0" encoding="UTF-8" standalone="no"?>
<!-- Created with Inkscape (http://www.inkscape.org/) -->

<svg
   xmlns:dc="http://purl.org/dc/elements/1.1/"
   xmlns:cc="http://creativecommons.org/ns#"
   xmlns:rdf="http://www.w3.org/1999/02/22-rdf-syntax-ns#"
   xmlns:svg="http://www.w3.org/2000/svg"
   xmlns="http://www.w3.org/2000/svg"
   xmlns:sodipodi="http://sodipodi.sourceforge.net/DTD/sodipodi-0.dtd"
   xmlns:inkscape="http://www.inkscape.org/namespaces/inkscape"
   width="135.46666mm"
   height="135.46666mm"
   viewBox="0 0 135.46666 135.46666"
   version="1.1"
   id="svg8"
   inkscape:version="0.92.4 (5da689c313, 2019-01-14)"
   sodipodi:docname="new-year.svg">
  <defs
     id="defs2">
    <filter
       style="color-interpolation-filters:sRGB;"
       inkscape:label="Blur"
       id="filter1141">
      <feGaussianBlur
         stdDeviation="2 2"
         result="blur"
         id="feGaussianBlur1139" />
    </filter>
    <filter
       style="color-interpolation-filters:sRGB;"
       inkscape:label="Blur"
       id="filter1145">
      <feGaussianBlur
         stdDeviation="2 2"
         result="blur"
         id="feGaussianBlur1143" />
    </filter>
  </defs>
  <sodipodi:namedview
     id="base"
     pagecolor="#ffffff"
     bordercolor="#666666"
     borderopacity="1.0"
     inkscape:pageopacity="0.0"
     inkscape:pageshadow="2"
     inkscape:zoom="0.7"
     inkscape:cx="237.96506"
     inkscape:cy="76.161099"
     inkscape:document-units="mm"
     inkscape:current-layer="layer1"
     showgrid="false"
     inkscape:pagecheckerboard="true"
     inkscape:window-width="1850"
     inkscape:window-height="1016"
     inkscape:window-x="70"
     inkscape:window-y="27"
     inkscape:window-maximized="1" />
  <metadata
     id="metadata5">
    <rdf:RDF>
      <cc:Work
         rdf:about="">
        <dc:format>image/svg+xml</dc:format>
        <dc:type
           rdf:resource="http://purl.org/dc/dcmitype/StillImage" />
        <dc:title></dc:title>
      </cc:Work>
    </rdf:RDF>
  </metadata>
  <g
     inkscape:label="Layer 1"
     inkscape:groupmode="layer"
     id="layer1"
     transform="translate(-13.15357,-21.379763)">
    <g
       id="g1094"
       transform="matrix(0.15237165,0,0,0.15237165,45.920785,22.391712)"
       style="filter:url(#filter1145)">
      <path
         id="path1077"
         d="M 0,0 H 512 V 512 H 0 Z"
         inkscape:connector-curvature="0"
         style="fill:#006aff;fill-opacity:0" />
      <g
         id="g1081"
         class="">
        <path
           id="path1079"
           d="m 223.78,18.563 c -13.577,0.267 -26.252,13.425 -16.81,33.062 17.045,35.465 29.126,53.574 45.936,81.906 0.43,-31.648 -0.522,-56.963 -6.25,-92.436 v -0.032 c -2.586,-16.03 -12.967,-22.695 -22.875,-22.5 z m 199.876,3.812 c -1.272,-0.007 -2.56,0.026 -3.906,0.125 -57.393,4.222 -115.434,43.967 -128.78,88.594 23.13,-27.564 75.967,-45.43 133.186,-41.72 42.626,2.766 38.924,-46.78 -0.5,-47 z M 100.28,80.72 c -7.754,0.096 -15.632,0.908 -23.5,2.468 -57.75,11.446 -46.283,90.25 9.19,67.062 63.716,-26.63 102.673,-15.477 131.78,20.688 1.942,-46.08 -54.322,-91.015 -117.47,-90.22 z M 368.22,100 c -3.29,0.052 -6.453,0.287 -9.44,0.75 -41.463,6.433 -62,23.806 -67.374,76.125 35.677,-42.483 73.564,-36.43 127.656,34.53 47.092,61.784 110.826,-19.008 53.594,-69.124 -28.248,-24.736 -72.65,-42.786 -104.437,-42.28 z M 143.28,207.656 C 116.746,207.629 93.478,208.99 62.437,214 24.443,220.13 39.03,270.016 73,253.688 c 35.465,-17.046 53.578,-29.124 81.906,-45.938 -3.956,-0.054 -7.834,-0.09 -11.625,-0.094 z m 81.282,17.188 C 159.165,234.252 98.376,273.34 36.095,347.75 c -50.007,59.747 32.842,116.914 70.75,46.97 43.54,-80.347 77.52,-124.72 117.72,-169.876 z M 318.625,228 c 34.243,46.835 48.228,65.114 59.22,150.72 9.567,74.527 102.045,37.72 78.342,-31.94 C 426.667,260.023 381.789,242.102 318.625,228 Z m -43.47,68.594 c -27.59,59.063 -36.883,87.625 -45.75,139.875 -12.43,73.245 83.39,75.698 81.064,-0.19 -1.33,-43.354 -17.064,-91.402 -35.314,-139.686 z m -56.592,12.344 c -27.555,39.625 -44.235,69.134 -65.813,110.312 -20.713,39.53 35.78,60.664 44.22,17.78 8.812,-44.765 17.524,-90.11 21.593,-128.092 z"
           inkscape:connector-curvature="0"
           style="fill:#ffffff;fill-opacity:0.27450982" />
      </g>
    </g>
    <g
       id="g1113"
       transform="matrix(0.26458333,0,0,0.26458333,12.819662,22.217633)"
       style="filter:url(#filter1141)">
      <path
         id="path1096"
         d="M 0,0 H 512 V 512 H 0 Z"
         inkscape:connector-curvature="0"
         style="fill:#006aff;fill-opacity:0" />
      <g
         id="g1100"
         class="">
        <path
           id="path1098"
           d="m 18,279.461 v 18.662 c 231.522,63.276 368.876,81.316 476,84.926 V 365.05 C 387.564,361.452 251.044,343.435 18,279.46 Z m 43.379,51.244 24.053,104.602 69.25,-82.002 z m 151.05,37.49 29.944,103.069 64.488,-85.797 -94.431,-17.272 z m 153.087,24.446 40.615,99.351 55.111,-92.101 z"
           inkscape:connector-curvature="0"
           style="fill:#ffffff;fill-opacity:0.27450982"
           sodipodi:nodetypes="ccccccccccccccccccc" />
      </g>
    </g>
  </g>
</svg>
